<svg width="1080" height="1920" viewBox="0 0 1080 1920" fill="none" xmlns="http://www.w3.org/2000/svg">


<rect id="textbox-1" x="231" y="409" width="150" height="200" fill="#EAEAEA"/>
<rect id="textbox-2" x="231" y="626" width="150" height="200" fill="#EAEAEA"/>
<rect id="textbox-3" x="231" y="843" width="150" height="200" fill="#EAEAEA"/>
<rect id="textbox-4" x="231" y="1060" width="150" height="200" fill="#EAEAEA"/>
<rect id="textbox-5" x="231" y="1277" width="150" height="200" fill="#EAEAEA"/>
<rect id="textbox-6" x="231" y="1494" width="150" height="200" fill="#EAEAEA"/>
<rect id="textbox-7" x="231" y="1711" width="150" height="200" fill="#EAEAEA"/>
<rect id="textbox-8" x="398" y="409" width="150" height="200" fill="#EAEAEA"/>
<rect id="textbox-9" x="398" y="626" width="150" height="200" fill="#EAEAEA"/>
<rect id="textbox-10" x="398" y="843" width="150" height="200" fill="#EAEAEA"/>
<rect id="textbox-11" x="398" y="1060" width="150" height="200" fill="#EAEAEA"/>
<rect id="textbox-12" x="398" y="1277" width="150" height="200" fill="#EAEAEA"/>
<rect id="textbox-13" x="398" y="1494" width="150" height="200" fill="#EAEAEA"/>
<rect id="textbox-14" x="398" y="1711" width="150" height="200" fill="#EAEAEA"/>
<rect id="textbox-15" x="565" y="409" width="150" height="200" fill="#EAEAEA"/>
<rect id="textbox-16" x="565" y="626" width="150" height="200" fill="#EAEAEA"/>
<rect id="textbox-17" x="565" y="843" width="150" height="200" fill="#EAEAEA"/>
<rect id="textbox-18" x="565" y="1060" width="150" height="200" fill="#EAEAEA"/>
<rect id="textbox-19" x="565" y="1277" width="150" height="200" fill="#EAEAEA"/>
<rect id="textbox-20" x="565" y="1494" width="150" height="200" fill="#EAEAEA"/>
<rect id="textbox-21" x="565" y="1711" width="150" height="200" fill="#EAEAEA"/>
<rect id="textbox-22" x="732" y="409" width="150" height="200" fill="#EAEAEA"/>
<rect id="textbox-23" x="732" y="626" width="150" height="200" fill="#EAEAEA"/>
<rect id="textbox-24" x="732" y="843" width="150" height="200" fill="#EAEAEA"/>
<rect id="textbox-25" x="732" y="1060" width="150" height="200" fill="#EAEAEA"/>
<rect id="textbox-26" x="732" y="1277" width="150" height="200" fill="#EAEAEA"/>
<rect id="textbox-27" x="732" y="1494" width="150" height="200" fill="#EAEAEA"/>
<rect id="textbox-28" x="732" y="1711" width="150" height="200" fill="#EAEAEA"/>
<rect id="textbox-29" x="899" y="409" width="150" height="200" fill="#EAEAEA"/>
<rect id="textbox-30" x="899" y="626" width="150" height="200" fill="#EAEAEA"/>
<rect id="textbox-31" x="899" y="843" width="150" height="200" fill="#EAEAEA"/>
<rect id="textbox-32" x="899" y="1060" width="150" height="200" fill="#EAEAEA"/>
<rect id="textbox-33" x="899" y="1277" width="150" height="200" fill="#EAEAEA"/>
<rect id="textbox-34" x="899" y="1494" width="150" height="200" fill="#EAEAEA"/>
<rect id="textbox-35" x="899" y="1711" width="150" height="200" fill="#EAEAEA"/>

</svg>
