<svg width="1080" height="1920" viewBox="0 0 1080 1920" fill="none" xmlns="http://www.w3.org/2000/svg">
<g id="Frame 16" clip-path="url(#clip0_300_4498)">
<rect width="1080" height="1920" fill="white"/>
<g id="calendar-bg">
<g id="Rectangle 164" filter="url(#filter0_d_300_4498)">
<rect width="1080" height="377" fill="#39A2AE"/>
</g>
<line id="Line 18" x1="214.5" y1="394" x2="214.5" y2="1935" stroke="#EAEAEA"/>
<path id="February" d="M83.0498 172.531V188H43.7188V172.531H52.2002V133.552H43.7188V118.083H101.419V146.34H88.7188L85.9502 133.552H74.7002V146.779H84.5V158.029H74.7002V172.531H83.0498ZM128.401 188.791C122.952 188.791 118.221 187.78 114.207 185.759C110.164 183.767 107.059 180.91 104.891 177.189C102.752 173.469 101.683 169.118 101.683 164.138C101.683 159.216 102.737 154.938 104.847 151.306C106.927 147.702 109.871 144.919 113.68 142.956C117.488 140.993 121.956 140.012 127.083 140.012C131.8 140.012 135.96 140.935 139.563 142.78C143.167 144.655 145.95 147.307 147.913 150.734C149.905 154.162 150.901 158.161 150.901 162.731C150.901 164.313 150.667 165.808 150.198 167.214H122.82C122.82 169.968 123.86 172.18 125.94 173.85C128.021 175.49 130.525 176.311 133.455 176.311C135.682 176.311 138.128 175.93 140.794 175.168C143.46 174.377 146.141 173.161 148.836 171.521L149.583 171.784V183.605C146.565 185.334 143.46 186.638 140.267 187.517C137.103 188.366 133.147 188.791 128.401 188.791ZM122.82 158.205V159.479H134.07V158.557C134.07 156.477 133.587 154.689 132.62 153.195C131.683 151.672 130.276 150.91 128.401 150.91C126.849 150.91 125.53 151.687 124.446 153.239C123.362 154.763 122.82 156.418 122.82 158.205ZM197.176 188.791C194.48 188.791 192.034 188.234 189.837 187.121C187.669 185.979 185.823 184.587 184.3 182.946L182.63 188H162.898V134.255H157.229V122.302L183.948 119.401V145.593C186.233 143.747 188.606 142.355 191.067 141.418C193.528 140.48 195.872 140.012 198.099 140.012C202.259 140.012 205.848 141.096 208.865 143.264C211.824 145.432 214.036 148.361 215.501 152.053C216.966 155.744 217.698 159.831 217.698 164.313C217.698 169.03 216.937 173.22 215.413 176.882C213.89 180.573 211.575 183.488 208.47 185.627C205.394 187.736 201.629 188.791 197.176 188.791ZM190.804 175.959C192.913 175.959 194.656 174.919 196.033 172.839C197.41 170.759 198.099 168.342 198.099 165.588C198.099 162.16 197.498 159.187 196.297 156.667C195.096 154.147 193.265 152.888 190.804 152.888C189.427 152.888 188.079 153.195 186.761 153.811C185.442 154.396 184.505 155.056 183.948 155.788V173.762C184.622 174.318 185.618 174.831 186.937 175.3C188.255 175.739 189.544 175.959 190.804 175.959ZM257.425 188H223.675V174.772H229.344V154.514H223.675V142.648L250.394 140.012V147.658C251.331 146.193 252.708 144.89 254.524 143.747C256.341 142.575 258.274 141.667 260.325 141.022C262.405 140.349 264.266 140.012 265.906 140.012V158.645C262.479 157.502 259.651 156.931 257.425 156.931C254.612 156.931 252.737 157.751 251.8 159.392C250.862 161.003 250.394 163.127 250.394 165.764V174.772H257.425V188ZM290.604 188.791C281.17 188.791 276.453 182.888 276.453 171.081V154.514H270.784V142.648L297.503 140.012V171.081C297.503 172.224 297.928 173.278 298.777 174.245C299.627 175.183 300.623 175.651 301.766 175.651C303.084 175.651 304.109 175.212 304.842 174.333C305.604 173.425 305.984 172.312 305.984 170.993V154.514H301.766V142.648L327.034 140.012V174.772H332.703V188H305.984V181.145C304.432 183.547 302.352 185.422 299.744 186.77C297.166 188.117 294.119 188.791 290.604 188.791ZM355.203 188.791C352.215 188.791 349.505 188.205 347.073 187.033C344.612 185.891 342.649 184.235 341.185 182.067C339.72 179.899 338.987 177.38 338.987 174.509C338.987 171.403 339.852 168.767 341.58 166.599C343.309 164.489 345.564 162.907 348.348 161.853C351.16 160.798 354.192 160.271 357.444 160.271C361.282 160.271 364.974 160.842 368.519 161.984V160.007C368.519 157.663 367.522 155.876 365.53 154.646C363.567 153.415 360.901 152.8 357.532 152.8C356.097 152.8 354.485 152.976 352.698 153.327C350.911 153.679 349.168 154.162 347.469 154.777C345.77 155.393 344.29 156.081 343.03 156.843L341.756 156.315V143.527C345.301 142.268 348.919 141.374 352.61 140.847C356.302 140.29 359.744 140.012 362.938 140.012C380.75 140.012 389.656 145.021 389.656 155.041V174.772H393.787V188H371.287L369.31 180.793C368.05 183.254 366.087 185.202 363.421 186.638C360.755 188.073 358.016 188.791 355.203 188.791ZM363.465 177.541C364.432 177.541 365.413 177.38 366.409 177.058C367.435 176.735 368.138 176.398 368.519 176.047V168.664C368.079 168.605 367.376 168.43 366.409 168.137C365.413 167.873 364.549 167.741 363.816 167.741C362.264 167.741 361.019 168.225 360.081 169.191C359.173 170.158 358.719 171.447 358.719 173.059C358.719 174.26 359.144 175.314 359.993 176.223C360.872 177.102 362.029 177.541 363.465 177.541ZM433.47 188H399.72V174.772H405.389V154.514H399.72V142.648L426.438 140.012V147.658C427.376 146.193 428.753 144.89 430.569 143.747C432.386 142.575 434.319 141.667 436.37 141.022C438.45 140.349 440.311 140.012 441.951 140.012V158.645C438.523 157.502 435.696 156.931 433.47 156.931C430.657 156.931 428.782 157.751 427.845 159.392C426.907 161.003 426.438 163.127 426.438 165.764V174.772H433.47V188ZM492.005 190.681V204.567H461.595V190.681H470.516L472.933 186.638L452.41 154.514H446.829V140.935H479.788V154.514H475.438L482.732 168.005L489.412 154.514H484.622V140.935H509.188V154.514H504.441L485.237 190.681H492.005Z" fill="white"/>
<path id="12" d="M305.114 349.926V361H281.53V349.857L284.606 349.926V328.529H279.001V319.711L301.628 314.037L301.833 349.926H305.114ZM350.505 361H311.438V350.644C315.721 349.003 319.39 346.929 322.443 344.423C324.266 342.851 325.736 341.426 326.853 340.15C327.969 338.874 328.778 337.576 329.279 336.254C329.803 334.932 330.065 333.428 330.065 331.742C330.065 330.102 329.598 328.712 328.664 327.572C327.73 326.433 326.613 325.863 325.314 325.863C323.856 325.863 322.728 326.319 321.931 327.23C321.133 328.142 320.734 329.293 320.734 330.683C320.734 331.48 320.939 332.289 321.35 333.109C321.783 333.93 322.284 334.613 322.854 335.16L315.163 341.107C313.568 339.717 312.292 337.86 311.335 335.536C310.469 333.417 310.036 331.343 310.036 329.315V328.495C310.036 325.715 310.822 323.254 312.395 321.112C313.99 318.902 316.245 317.17 319.162 315.917C322.079 314.664 325.406 314.037 329.143 314.037C332.72 314.037 335.887 314.687 338.645 315.985C341.424 317.284 343.589 319.118 345.139 321.488C346.711 323.835 347.497 326.501 347.497 329.486C347.497 332.289 346.688 334.944 345.07 337.45C343.452 339.979 341.652 342.11 339.67 343.842C337.688 345.574 335.42 347.374 332.868 349.242L331.535 350.165H337.072C339.305 350.119 341.083 349.766 342.404 349.105C343.749 348.445 344.421 347.112 344.421 345.106H350.3L350.505 361Z" fill="white"/>
<path id="13" d="M473.276 349.926V361H449.692V349.857L452.769 349.926V328.529H447.163V319.711L469.79 314.037L469.995 349.926H473.276ZM495.288 361.615C491.574 361.615 488.429 361.41 485.854 361C483.28 360.59 481.012 359.701 479.053 358.334V346.508C483.2 349.812 487.427 351.464 491.733 351.464C493.739 351.464 495.493 351.065 496.997 350.268C498.524 349.447 499.287 348.171 499.287 346.439C499.287 344.434 498.455 342.987 496.792 342.099C495.151 341.21 493.18 340.766 490.879 340.766C490.104 340.766 489.25 340.868 488.315 341.073C487.427 341.301 486.834 341.438 486.538 341.483H485.854V335.741L497.544 325.795V325.453H489.99C488.896 325.453 488.053 325.624 487.461 325.966C486.891 326.308 486.47 326.798 486.196 327.436C485.923 328.074 485.627 329.042 485.308 330.341L478.643 330.272V314.789H515.181V323.847L505.508 331.879C507.741 332.038 509.757 332.756 511.558 334.032C513.381 335.285 514.827 336.881 515.898 338.817C516.969 340.731 517.505 342.737 517.505 344.833C517.505 348.57 516.559 351.68 514.668 354.164C512.799 356.648 510.202 358.516 506.875 359.77C503.548 361 499.686 361.615 495.288 361.615Z" fill="white"/>
<path id="14" d="M638.772 349.926V361H615.188V349.857L618.265 349.926V328.529H612.659V319.711L635.286 314.037L635.491 349.926H638.772ZM681.36 351.122V361H657.298V351.122H661.604V346.645H643.421V337.484L662.254 315.165H677.225V337.895L685.018 337.826V346.645H677.225V351.122H681.36ZM661.604 329.862L655.179 337.826H661.604V329.862Z" fill="white"/>
<path id="15" d="M811.993 349.926V361H788.409V349.857L791.485 349.926V328.529H785.88V319.711L808.507 314.037L808.712 349.926H811.993ZM830.108 361.684C828.582 361.684 826.987 361.558 825.323 361.308C823.66 361.08 822.133 360.727 820.743 360.248C819.376 359.77 818.316 359.177 817.564 358.471L817.633 358.402V349.174C820.276 350.655 822.794 351.396 825.187 351.396C827.101 351.396 828.821 350.917 830.348 349.96C831.897 349.003 832.672 347.624 832.672 345.824C832.672 344.001 831.92 342.566 830.416 341.518C828.935 340.469 827.146 339.945 825.05 339.945C822.566 339.945 820.208 340.663 817.975 342.099L817.564 341.757V314.584H848.839V324.735H827.989V329.486C830.154 329.122 832.558 328.939 835.201 328.939C838.141 328.939 840.852 329.555 843.336 330.785C845.797 332.038 847.757 333.77 849.215 335.98C850.696 338.191 851.437 340.697 851.437 343.5C851.437 347.305 850.559 350.598 848.805 353.378C847.027 356.135 844.521 358.209 841.285 359.599C838.072 360.989 834.347 361.684 830.108 361.684Z" fill="white"/>
<path id="16" d="M971.269 349.926V361H947.685V349.857L950.761 349.926V328.529H945.155V319.711L967.782 314.037L967.987 349.926H971.269ZM997.484 361.615C993.77 361.615 990.272 360.875 986.991 359.394C983.71 357.912 981.067 355.759 979.062 352.934C977.056 350.108 976.054 346.701 976.054 342.714C976.054 339.638 976.84 336.63 978.412 333.69C979.46 331.731 980.622 329.896 981.898 328.188C983.197 326.456 984.815 324.564 986.752 322.514C988.712 320.463 991.161 317.956 994.101 314.994H1012.66C1010.04 317.615 1007.89 319.848 1006.2 321.693C1004.51 323.516 1003.28 324.952 1002.51 326C1006.18 326.16 1009.22 327.014 1011.63 328.563C1014.07 330.09 1015.85 332.073 1016.97 334.511C1018.11 336.949 1018.68 339.592 1018.68 342.44C1018.68 345.676 1017.82 348.764 1016.11 351.703C1014.38 354.643 1011.9 357.035 1008.66 358.881C1005.45 360.704 1001.72 361.615 997.484 361.615ZM997.416 349.721C999.877 349.721 1001.11 347.248 1001.11 342.304C1001.11 337.086 999.877 334.477 997.416 334.477C994.841 334.477 993.554 337.04 993.554 342.167C993.554 347.203 994.841 349.721 997.416 349.721Z" fill="white"/>
<rect id="Rectangle 170" x="35" y="206" width="823" height="10" fill="white"/>
<g id="Group 238">
<path id="9:00" d="M80.7578 512L89.2783 498.035C88.4645 498.361 87.724 498.58 87.0566 498.694C86.3893 498.808 85.6732 498.865 84.9082 498.865C83.4759 498.865 81.9867 498.589 80.4404 498.035C78.9105 497.465 77.6003 496.676 76.5098 495.667C75.4355 494.642 74.5404 493.388 73.8242 491.907C73.1243 490.41 72.7744 488.896 72.7744 487.366C72.7744 485.299 73.1243 483.46 73.8242 481.849C74.5241 480.237 75.4681 478.878 76.6562 477.771C77.8444 476.665 79.2197 475.826 80.7822 475.257C82.361 474.671 84.0293 474.378 85.7871 474.378C87.5449 474.378 89.1807 474.671 90.6943 475.257C92.2243 475.843 93.5833 476.689 94.7715 477.796C95.9596 478.886 96.8874 480.197 97.5547 481.727C98.2383 483.24 98.5801 484.925 98.5801 486.78C98.5801 488.213 98.3034 489.629 97.75 491.028C97.2129 492.428 96.5374 493.893 95.7236 495.423L86.4463 512H80.7578ZM85.665 478.626C84.5583 478.626 83.5003 478.821 82.4912 479.212C81.4821 479.603 80.5951 480.156 79.8301 480.872C79.0651 481.588 78.4548 482.443 77.999 483.436C77.5433 484.428 77.3154 485.527 77.3154 486.731C77.3154 488.066 77.5596 489.246 78.0479 490.271C78.5361 491.281 79.1872 492.127 80.001 492.811C80.8311 493.494 81.7507 494.007 82.7598 494.349C83.7852 494.69 84.8105 494.861 85.8359 494.861C87.3333 494.861 88.4889 494.682 89.3027 494.324C90.1328 493.95 90.9141 493.437 91.6465 492.786C92.3789 492.119 92.9567 491.281 93.3799 490.271C93.8031 489.246 94.0146 488.066 94.0146 486.731C94.0146 485.462 93.8031 484.323 93.3799 483.313C92.9567 482.304 92.3708 481.458 91.6221 480.774C90.8734 480.075 89.9863 479.546 88.9609 479.188C87.9518 478.813 86.8532 478.626 85.665 478.626ZM103.609 489.856C103.609 489.433 103.691 489.035 103.854 488.66C104.033 488.27 104.269 487.936 104.562 487.659C104.854 487.366 105.188 487.138 105.562 486.976C105.953 486.797 106.368 486.707 106.808 486.707C107.231 486.707 107.63 486.797 108.004 486.976C108.395 487.138 108.728 487.366 109.005 487.659C109.298 487.936 109.526 488.27 109.688 488.66C109.868 489.035 109.957 489.433 109.957 489.856C109.957 490.296 109.868 490.711 109.688 491.102C109.526 491.492 109.298 491.834 109.005 492.127C108.728 492.42 108.395 492.656 108.004 492.835C107.63 493.014 107.231 493.104 106.808 493.104C106.368 493.104 105.953 493.014 105.562 492.835C105.188 492.656 104.854 492.42 104.562 492.127C104.269 491.834 104.033 491.492 103.854 491.102C103.691 490.711 103.609 490.296 103.609 489.856ZM103.609 509.046C103.609 508.623 103.691 508.224 103.854 507.85C104.033 507.459 104.269 507.125 104.562 506.849C104.854 506.556 105.188 506.328 105.562 506.165C105.953 505.986 106.368 505.896 106.808 505.896C107.231 505.896 107.63 505.986 108.004 506.165C108.395 506.328 108.728 506.556 109.005 506.849C109.298 507.125 109.526 507.459 109.688 507.85C109.868 508.224 109.957 508.623 109.957 509.046C109.957 509.485 109.868 509.9 109.688 510.291C109.526 510.682 109.298 511.032 109.005 511.341C108.728 511.634 108.395 511.862 108.004 512.024C107.63 512.203 107.231 512.293 106.808 512.293C106.368 512.293 105.953 512.203 105.562 512.024C105.188 511.862 104.854 511.634 104.562 511.341C104.269 511.032 104.033 510.682 103.854 510.291C103.691 509.9 103.609 509.485 103.609 509.046ZM130.05 512.439C127.413 512.439 125.208 511.951 123.434 510.975C121.66 509.998 120.235 508.655 119.161 506.946C118.103 505.237 117.346 503.235 116.891 500.94C116.435 498.646 116.207 496.18 116.207 493.543C116.207 490.727 116.516 488.099 117.135 485.657C117.753 483.2 118.583 481.23 119.625 479.749C120.667 478.268 121.977 477.007 123.556 475.965C125.151 474.923 127.332 474.402 130.099 474.402C132.719 474.402 134.9 474.817 136.642 475.647C138.383 476.478 139.815 477.755 140.938 479.48C142.078 481.189 142.875 483.257 143.331 485.682C143.787 488.107 144.015 490.678 144.015 493.396C144.015 496.049 143.787 498.532 143.331 500.843C142.875 503.154 142.102 505.172 141.012 506.897C139.938 508.606 138.505 509.957 136.715 510.95C134.924 511.943 132.703 512.439 130.05 512.439ZM130.05 508.094C131.954 508.094 133.484 507.711 134.64 506.946C135.812 506.165 136.69 505.107 137.276 503.772C137.879 502.438 138.326 500.883 138.619 499.109C138.912 497.319 139.059 495.415 139.059 493.396C139.059 491.46 138.945 489.604 138.717 487.83C138.489 486.04 138.049 484.461 137.398 483.094C136.747 481.727 135.836 480.636 134.664 479.822C133.492 479.008 131.97 478.602 130.099 478.602C128.162 478.602 126.632 479.008 125.509 479.822C124.386 480.636 123.548 481.621 122.994 482.776C122.441 483.916 122.001 485.486 121.676 487.488C121.367 489.49 121.212 491.46 121.212 493.396C121.212 495.415 121.31 497.319 121.505 499.109C121.716 500.883 122.132 502.438 122.75 503.772C123.385 505.107 124.28 506.165 125.436 506.946C126.607 507.711 128.146 508.094 130.05 508.094ZM162.521 512.439C159.884 512.439 157.678 511.951 155.904 510.975C154.13 509.998 152.706 508.655 151.632 506.946C150.574 505.237 149.817 503.235 149.361 500.94C148.906 498.646 148.678 496.18 148.678 493.543C148.678 490.727 148.987 488.099 149.605 485.657C150.224 483.2 151.054 481.23 152.096 479.749C153.137 478.268 154.448 477.007 156.026 475.965C157.621 474.923 159.802 474.402 162.569 474.402C165.19 474.402 167.371 474.817 169.112 475.647C170.854 476.478 172.286 477.755 173.409 479.48C174.549 481.189 175.346 483.257 175.802 485.682C176.257 488.107 176.485 490.678 176.485 493.396C176.485 496.049 176.257 498.532 175.802 500.843C175.346 503.154 174.573 505.172 173.482 506.897C172.408 508.606 170.976 509.957 169.186 510.95C167.395 511.943 165.174 512.439 162.521 512.439ZM162.521 508.094C164.425 508.094 165.955 507.711 167.11 506.946C168.282 506.165 169.161 505.107 169.747 503.772C170.349 502.438 170.797 500.883 171.09 499.109C171.383 497.319 171.529 495.415 171.529 493.396C171.529 491.46 171.415 489.604 171.188 487.83C170.96 486.04 170.52 484.461 169.869 483.094C169.218 481.727 168.307 480.636 167.135 479.822C165.963 479.008 164.441 478.602 162.569 478.602C160.632 478.602 159.103 479.008 157.979 479.822C156.856 480.636 156.018 481.621 155.465 482.776C154.911 483.916 154.472 485.486 154.146 487.488C153.837 489.49 153.683 491.46 153.683 493.396C153.683 495.415 153.78 497.319 153.976 499.109C154.187 500.883 154.602 502.438 155.221 503.772C155.855 505.107 156.751 506.165 157.906 506.946C159.078 507.711 160.616 508.094 162.521 508.094Z" fill="#535252"/>
<path id="11:00" d="M79.2793 724.801H82.8682V697.726L75.373 701.803V696.7L85.6758 690.938H87.6289V724.801H91.2666V729H79.2793V724.801ZM100.227 724.801H103.815V697.726L96.3203 701.803V696.7L106.623 690.938H108.576V724.801H112.214V729H100.227V724.801ZM117.609 706.856C117.609 706.433 117.691 706.035 117.854 705.66C118.033 705.27 118.269 704.936 118.562 704.659C118.854 704.366 119.188 704.138 119.562 703.976C119.953 703.797 120.368 703.707 120.808 703.707C121.231 703.707 121.63 703.797 122.004 703.976C122.395 704.138 122.728 704.366 123.005 704.659C123.298 704.936 123.526 705.27 123.688 705.66C123.868 706.035 123.957 706.433 123.957 706.856C123.957 707.296 123.868 707.711 123.688 708.102C123.526 708.492 123.298 708.834 123.005 709.127C122.728 709.42 122.395 709.656 122.004 709.835C121.63 710.014 121.231 710.104 120.808 710.104C120.368 710.104 119.953 710.014 119.562 709.835C119.188 709.656 118.854 709.42 118.562 709.127C118.269 708.834 118.033 708.492 117.854 708.102C117.691 707.711 117.609 707.296 117.609 706.856ZM117.609 726.046C117.609 725.623 117.691 725.224 117.854 724.85C118.033 724.459 118.269 724.125 118.562 723.849C118.854 723.556 119.188 723.328 119.562 723.165C119.953 722.986 120.368 722.896 120.808 722.896C121.231 722.896 121.63 722.986 122.004 723.165C122.395 723.328 122.728 723.556 123.005 723.849C123.298 724.125 123.526 724.459 123.688 724.85C123.868 725.224 123.957 725.623 123.957 726.046C123.957 726.485 123.868 726.9 123.688 727.291C123.526 727.682 123.298 728.032 123.005 728.341C122.728 728.634 122.395 728.862 122.004 729.024C121.63 729.203 121.231 729.293 120.808 729.293C120.368 729.293 119.953 729.203 119.562 729.024C119.188 728.862 118.854 728.634 118.562 728.341C118.269 728.032 118.033 727.682 117.854 727.291C117.691 726.9 117.609 726.485 117.609 726.046ZM144.05 729.439C141.413 729.439 139.208 728.951 137.434 727.975C135.66 726.998 134.235 725.655 133.161 723.946C132.103 722.237 131.346 720.235 130.891 717.94C130.435 715.646 130.207 713.18 130.207 710.543C130.207 707.727 130.516 705.099 131.135 702.657C131.753 700.2 132.583 698.23 133.625 696.749C134.667 695.268 135.977 694.007 137.556 692.965C139.151 691.923 141.332 691.402 144.099 691.402C146.719 691.402 148.9 691.817 150.642 692.647C152.383 693.478 153.815 694.755 154.938 696.48C156.078 698.189 156.875 700.257 157.331 702.682C157.787 705.107 158.015 707.678 158.015 710.396C158.015 713.049 157.787 715.532 157.331 717.843C156.875 720.154 156.102 722.172 155.012 723.897C153.938 725.606 152.505 726.957 150.715 727.95C148.924 728.943 146.703 729.439 144.05 729.439ZM144.05 725.094C145.954 725.094 147.484 724.711 148.64 723.946C149.812 723.165 150.69 722.107 151.276 720.772C151.879 719.438 152.326 717.883 152.619 716.109C152.912 714.319 153.059 712.415 153.059 710.396C153.059 708.46 152.945 706.604 152.717 704.83C152.489 703.04 152.049 701.461 151.398 700.094C150.747 698.727 149.836 697.636 148.664 696.822C147.492 696.008 145.97 695.602 144.099 695.602C142.162 695.602 140.632 696.008 139.509 696.822C138.386 697.636 137.548 698.621 136.994 699.776C136.441 700.916 136.001 702.486 135.676 704.488C135.367 706.49 135.212 708.46 135.212 710.396C135.212 712.415 135.31 714.319 135.505 716.109C135.716 717.883 136.132 719.438 136.75 720.772C137.385 722.107 138.28 723.165 139.436 723.946C140.607 724.711 142.146 725.094 144.05 725.094ZM176.521 729.439C173.884 729.439 171.678 728.951 169.904 727.975C168.13 726.998 166.706 725.655 165.632 723.946C164.574 722.237 163.817 720.235 163.361 717.94C162.906 715.646 162.678 713.18 162.678 710.543C162.678 707.727 162.987 705.099 163.605 702.657C164.224 700.2 165.054 698.23 166.096 696.749C167.137 695.268 168.448 694.007 170.026 692.965C171.621 691.923 173.802 691.402 176.569 691.402C179.19 691.402 181.371 691.817 183.112 692.647C184.854 693.478 186.286 694.755 187.409 696.48C188.549 698.189 189.346 700.257 189.802 702.682C190.257 705.107 190.485 707.678 190.485 710.396C190.485 713.049 190.257 715.532 189.802 717.843C189.346 720.154 188.573 722.172 187.482 723.897C186.408 725.606 184.976 726.957 183.186 727.95C181.395 728.943 179.174 729.439 176.521 729.439ZM176.521 725.094C178.425 725.094 179.955 724.711 181.11 723.946C182.282 723.165 183.161 722.107 183.747 720.772C184.349 719.438 184.797 717.883 185.09 716.109C185.383 714.319 185.529 712.415 185.529 710.396C185.529 708.46 185.415 706.604 185.188 704.83C184.96 703.04 184.52 701.461 183.869 700.094C183.218 698.727 182.307 697.636 181.135 696.822C179.963 696.008 178.441 695.602 176.569 695.602C174.632 695.602 173.103 696.008 171.979 696.822C170.856 697.636 170.018 698.621 169.465 699.776C168.911 700.916 168.472 702.486 168.146 704.488C167.837 706.49 167.683 708.46 167.683 710.396C167.683 712.415 167.78 714.319 167.976 716.109C168.187 717.883 168.602 719.438 169.221 720.772C169.855 722.107 170.751 723.165 171.906 723.946C173.078 724.711 174.616 725.094 176.521 725.094Z" fill="#535252"/>
<path id="1:00" d="M86.2266 941.801H89.8154V914.726L82.3203 918.803V913.7L92.623 907.938H94.5762V941.801H98.2139V946H86.2266V941.801ZM103.609 923.856C103.609 923.433 103.691 923.035 103.854 922.66C104.033 922.27 104.269 921.936 104.562 921.659C104.854 921.366 105.188 921.138 105.562 920.976C105.953 920.797 106.368 920.707 106.808 920.707C107.231 920.707 107.63 920.797 108.004 920.976C108.395 921.138 108.728 921.366 109.005 921.659C109.298 921.936 109.526 922.27 109.688 922.66C109.868 923.035 109.957 923.433 109.957 923.856C109.957 924.296 109.868 924.711 109.688 925.102C109.526 925.492 109.298 925.834 109.005 926.127C108.728 926.42 108.395 926.656 108.004 926.835C107.63 927.014 107.231 927.104 106.808 927.104C106.368 927.104 105.953 927.014 105.562 926.835C105.188 926.656 104.854 926.42 104.562 926.127C104.269 925.834 104.033 925.492 103.854 925.102C103.691 924.711 103.609 924.296 103.609 923.856ZM103.609 943.046C103.609 942.623 103.691 942.224 103.854 941.85C104.033 941.459 104.269 941.125 104.562 940.849C104.854 940.556 105.188 940.328 105.562 940.165C105.953 939.986 106.368 939.896 106.808 939.896C107.231 939.896 107.63 939.986 108.004 940.165C108.395 940.328 108.728 940.556 109.005 940.849C109.298 941.125 109.526 941.459 109.688 941.85C109.868 942.224 109.957 942.623 109.957 943.046C109.957 943.485 109.868 943.9 109.688 944.291C109.526 944.682 109.298 945.032 109.005 945.341C108.728 945.634 108.395 945.862 108.004 946.024C107.63 946.203 107.231 946.293 106.808 946.293C106.368 946.293 105.953 946.203 105.562 946.024C105.188 945.862 104.854 945.634 104.562 945.341C104.269 945.032 104.033 944.682 103.854 944.291C103.691 943.9 103.609 943.485 103.609 943.046ZM130.05 946.439C127.413 946.439 125.208 945.951 123.434 944.975C121.66 943.998 120.235 942.655 119.161 940.946C118.103 939.237 117.346 937.235 116.891 934.94C116.435 932.646 116.207 930.18 116.207 927.543C116.207 924.727 116.516 922.099 117.135 919.657C117.753 917.2 118.583 915.23 119.625 913.749C120.667 912.268 121.977 911.007 123.556 909.965C125.151 908.923 127.332 908.402 130.099 908.402C132.719 908.402 134.9 908.817 136.642 909.647C138.383 910.478 139.815 911.755 140.938 913.48C142.078 915.189 142.875 917.257 143.331 919.682C143.787 922.107 144.015 924.678 144.015 927.396C144.015 930.049 143.787 932.532 143.331 934.843C142.875 937.154 142.102 939.172 141.012 940.897C139.938 942.606 138.505 943.957 136.715 944.95C134.924 945.943 132.703 946.439 130.05 946.439ZM130.05 942.094C131.954 942.094 133.484 941.711 134.64 940.946C135.812 940.165 136.69 939.107 137.276 937.772C137.879 936.438 138.326 934.883 138.619 933.109C138.912 931.319 139.059 929.415 139.059 927.396C139.059 925.46 138.945 923.604 138.717 921.83C138.489 920.04 138.049 918.461 137.398 917.094C136.747 915.727 135.836 914.636 134.664 913.822C133.492 913.008 131.97 912.602 130.099 912.602C128.162 912.602 126.632 913.008 125.509 913.822C124.386 914.636 123.548 915.621 122.994 916.776C122.441 917.916 122.001 919.486 121.676 921.488C121.367 923.49 121.212 925.46 121.212 927.396C121.212 929.415 121.31 931.319 121.505 933.109C121.716 934.883 122.132 936.438 122.75 937.772C123.385 939.107 124.28 940.165 125.436 940.946C126.607 941.711 128.146 942.094 130.05 942.094ZM162.521 946.439C159.884 946.439 157.678 945.951 155.904 944.975C154.13 943.998 152.706 942.655 151.632 940.946C150.574 939.237 149.817 937.235 149.361 934.94C148.906 932.646 148.678 930.18 148.678 927.543C148.678 924.727 148.987 922.099 149.605 919.657C150.224 917.2 151.054 915.23 152.096 913.749C153.137 912.268 154.448 911.007 156.026 909.965C157.621 908.923 159.802 908.402 162.569 908.402C165.19 908.402 167.371 908.817 169.112 909.647C170.854 910.478 172.286 911.755 173.409 913.48C174.549 915.189 175.346 917.257 175.802 919.682C176.257 922.107 176.485 924.678 176.485 927.396C176.485 930.049 176.257 932.532 175.802 934.843C175.346 937.154 174.573 939.172 173.482 940.897C172.408 942.606 170.976 943.957 169.186 944.95C167.395 945.943 165.174 946.439 162.521 946.439ZM162.521 942.094C164.425 942.094 165.955 941.711 167.11 940.946C168.282 940.165 169.161 939.107 169.747 937.772C170.349 936.438 170.797 934.883 171.09 933.109C171.383 931.319 171.529 929.415 171.529 927.396C171.529 925.46 171.415 923.604 171.188 921.83C170.96 920.04 170.52 918.461 169.869 917.094C169.218 915.727 168.307 914.636 167.135 913.822C165.963 913.008 164.441 912.602 162.569 912.602C160.632 912.602 159.103 913.008 157.979 913.822C156.856 914.636 156.018 915.621 155.465 916.776C154.911 917.916 154.472 919.486 154.146 921.488C153.837 923.49 153.683 925.46 153.683 927.396C153.683 929.415 153.78 931.319 153.976 933.109C154.187 934.883 154.602 936.438 155.221 937.772C155.855 939.107 156.751 940.165 157.906 940.946C159.078 941.711 160.616 942.094 162.521 942.094Z" fill="#535252"/>
<path id="3:00" d="M93.209 1135.66C93.209 1135.02 93.0706 1134.35 92.7939 1133.63C92.5335 1132.9 92.1185 1132.23 91.5488 1131.63C90.9954 1131.01 90.2874 1130.5 89.4248 1130.11C88.5785 1129.71 87.5775 1129.5 86.4219 1129.5C85.4616 1129.5 84.5827 1129.67 83.7852 1130.02C83.0039 1130.34 82.2227 1130.96 81.4414 1131.87C80.6602 1132.78 80.237 1133.79 80.1719 1134.9H75.5332C75.6146 1133.48 75.9645 1132.21 76.583 1131.07C77.2178 1129.93 78.0153 1128.93 78.9756 1128.06C79.9359 1127.2 81.0589 1126.52 82.3447 1126.01C83.6305 1125.51 84.9733 1125.26 86.373 1125.26C88.1146 1125.26 89.6934 1125.55 91.1094 1126.13C92.5254 1126.7 93.7298 1127.47 94.7227 1128.43C95.7318 1129.37 96.5049 1130.46 97.042 1131.68C97.5954 1132.9 97.8721 1134.14 97.8721 1135.41C97.8721 1136.19 97.7744 1136.97 97.5791 1137.76C97.3838 1138.54 97.0745 1139.29 96.6514 1140C96.2445 1140.7 95.7155 1141.35 95.0645 1141.96C94.4134 1142.56 93.624 1143.09 92.6963 1143.54C93.4613 1143.83 94.1774 1144.25 94.8447 1144.79C95.5283 1145.31 96.1224 1145.93 96.627 1146.67C97.1315 1147.4 97.5303 1148.23 97.8232 1149.16C98.1162 1150.08 98.2627 1151.1 98.2627 1152.21C98.2627 1153.8 97.9535 1155.29 97.335 1156.65C96.7165 1158 95.8783 1159.18 94.8203 1160.17C93.7624 1161.16 92.5173 1161.94 91.085 1162.51C89.6689 1163.07 88.1471 1163.34 86.5195 1163.34C85.0221 1163.34 83.5329 1163.08 82.0518 1162.56C80.5869 1162.02 79.3418 1161.27 78.3164 1160.29C77.291 1159.31 76.5342 1158.3 76.0459 1157.24C75.5576 1156.18 75.2646 1155.13 75.167 1154.09H79.8545C80.3265 1155.6 81.1647 1156.79 82.3691 1157.65C83.5898 1158.52 85.1361 1158.95 87.0078 1158.95C87.8542 1158.95 88.6761 1158.78 89.4736 1158.43C90.2874 1158.09 91.0036 1157.62 91.6221 1157.02C92.2406 1156.4 92.737 1155.68 93.1113 1154.87C93.4857 1154.04 93.6729 1153.14 93.6729 1152.16C93.6729 1151.13 93.4857 1150.21 93.1113 1149.38C92.737 1148.55 92.2324 1147.85 91.5977 1147.28C90.9629 1146.69 90.2223 1146.24 89.376 1145.93C88.5459 1145.61 87.6589 1145.45 86.7148 1145.45H84.6152V1141.76H86.3242C87.3984 1141.76 88.3587 1141.61 89.2051 1141.3C90.0677 1140.97 90.792 1140.53 91.3779 1139.98C91.9639 1139.42 92.4115 1138.78 92.7207 1138.05C93.0462 1137.3 93.209 1136.5 93.209 1135.66ZM103.609 1140.86C103.609 1140.43 103.691 1140.03 103.854 1139.66C104.033 1139.27 104.269 1138.94 104.562 1138.66C104.854 1138.37 105.188 1138.14 105.562 1137.98C105.953 1137.8 106.368 1137.71 106.808 1137.71C107.231 1137.71 107.63 1137.8 108.004 1137.98C108.395 1138.14 108.728 1138.37 109.005 1138.66C109.298 1138.94 109.526 1139.27 109.688 1139.66C109.868 1140.03 109.957 1140.43 109.957 1140.86C109.957 1141.3 109.868 1141.71 109.688 1142.1C109.526 1142.49 109.298 1142.83 109.005 1143.13C108.728 1143.42 108.395 1143.66 108.004 1143.83C107.63 1144.01 107.231 1144.1 106.808 1144.1C106.368 1144.1 105.953 1144.01 105.562 1143.83C105.188 1143.66 104.854 1143.42 104.562 1143.13C104.269 1142.83 104.033 1142.49 103.854 1142.1C103.691 1141.71 103.609 1141.3 103.609 1140.86ZM103.609 1160.05C103.609 1159.62 103.691 1159.22 103.854 1158.85C104.033 1158.46 104.269 1158.13 104.562 1157.85C104.854 1157.56 105.188 1157.33 105.562 1157.17C105.953 1156.99 106.368 1156.9 106.808 1156.9C107.231 1156.9 107.63 1156.99 108.004 1157.17C108.395 1157.33 108.728 1157.56 109.005 1157.85C109.298 1158.13 109.526 1158.46 109.688 1158.85C109.868 1159.22 109.957 1159.62 109.957 1160.05C109.957 1160.49 109.868 1160.9 109.688 1161.29C109.526 1161.68 109.298 1162.03 109.005 1162.34C108.728 1162.63 108.395 1162.86 108.004 1163.02C107.63 1163.2 107.231 1163.29 106.808 1163.29C106.368 1163.29 105.953 1163.2 105.562 1163.02C105.188 1162.86 104.854 1162.63 104.562 1162.34C104.269 1162.03 104.033 1161.68 103.854 1161.29C103.691 1160.9 103.609 1160.49 103.609 1160.05ZM130.05 1163.44C127.413 1163.44 125.208 1162.95 123.434 1161.97C121.66 1161 120.235 1159.66 119.161 1157.95C118.103 1156.24 117.346 1154.24 116.891 1151.94C116.435 1149.65 116.207 1147.18 116.207 1144.54C116.207 1141.73 116.516 1139.1 117.135 1136.66C117.753 1134.2 118.583 1132.23 119.625 1130.75C120.667 1129.27 121.977 1128.01 123.556 1126.96C125.151 1125.92 127.332 1125.4 130.099 1125.4C132.719 1125.4 134.9 1125.82 136.642 1126.65C138.383 1127.48 139.815 1128.76 140.938 1130.48C142.078 1132.19 142.875 1134.26 143.331 1136.68C143.787 1139.11 144.015 1141.68 144.015 1144.4C144.015 1147.05 143.787 1149.53 143.331 1151.84C142.875 1154.15 142.102 1156.17 141.012 1157.9C139.938 1159.61 138.505 1160.96 136.715 1161.95C134.924 1162.94 132.703 1163.44 130.05 1163.44ZM130.05 1159.09C131.954 1159.09 133.484 1158.71 134.64 1157.95C135.812 1157.17 136.69 1156.11 137.276 1154.77C137.879 1153.44 138.326 1151.88 138.619 1150.11C138.912 1148.32 139.059 1146.41 139.059 1144.4C139.059 1142.46 138.945 1140.6 138.717 1138.83C138.489 1137.04 138.049 1135.46 137.398 1134.09C136.747 1132.73 135.836 1131.64 134.664 1130.82C133.492 1130.01 131.97 1129.6 130.099 1129.6C128.162 1129.6 126.632 1130.01 125.509 1130.82C124.386 1131.64 123.548 1132.62 122.994 1133.78C122.441 1134.92 122.001 1136.49 121.676 1138.49C121.367 1140.49 121.212 1142.46 121.212 1144.4C121.212 1146.41 121.31 1148.32 121.505 1150.11C121.716 1151.88 122.132 1153.44 122.75 1154.77C123.385 1156.11 124.28 1157.17 125.436 1157.95C126.607 1158.71 128.146 1159.09 130.05 1159.09ZM162.521 1163.44C159.884 1163.44 157.678 1162.95 155.904 1161.97C154.13 1161 152.706 1159.66 151.632 1157.95C150.574 1156.24 149.817 1154.24 149.361 1151.94C148.906 1149.65 148.678 1147.18 148.678 1144.54C148.678 1141.73 148.987 1139.1 149.605 1136.66C150.224 1134.2 151.054 1132.23 152.096 1130.75C153.137 1129.27 154.448 1128.01 156.026 1126.96C157.621 1125.92 159.802 1125.4 162.569 1125.4C165.19 1125.4 167.371 1125.82 169.112 1126.65C170.854 1127.48 172.286 1128.76 173.409 1130.48C174.549 1132.19 175.346 1134.26 175.802 1136.68C176.257 1139.11 176.485 1141.68 176.485 1144.4C176.485 1147.05 176.257 1149.53 175.802 1151.84C175.346 1154.15 174.573 1156.17 173.482 1157.9C172.408 1159.61 170.976 1160.96 169.186 1161.95C167.395 1162.94 165.174 1163.44 162.521 1163.44ZM162.521 1159.09C164.425 1159.09 165.955 1158.71 167.11 1157.95C168.282 1157.17 169.161 1156.11 169.747 1154.77C170.349 1153.44 170.797 1151.88 171.09 1150.11C171.383 1148.32 171.529 1146.41 171.529 1144.4C171.529 1142.46 171.415 1140.6 171.188 1138.83C170.96 1137.04 170.52 1135.46 169.869 1134.09C169.218 1132.73 168.307 1131.64 167.135 1130.82C165.963 1130.01 164.441 1129.6 162.569 1129.6C160.632 1129.6 159.103 1130.01 157.979 1130.82C156.856 1131.64 156.018 1132.62 155.465 1133.78C154.911 1134.92 154.472 1136.49 154.146 1138.49C153.837 1140.49 153.683 1142.46 153.683 1144.4C153.683 1146.41 153.78 1148.32 153.976 1150.11C154.187 1151.88 154.602 1153.44 155.221 1154.77C155.855 1156.11 156.751 1157.17 157.906 1157.95C159.078 1158.71 160.616 1159.09 162.521 1159.09Z" fill="#787272"/>
<path id="5:00" d="M81.1729 1358.17C82.0843 1357.56 83.0202 1357.09 83.9805 1356.78C84.9408 1356.46 86.0394 1356.29 87.2764 1356.29C89.0993 1356.29 90.7757 1356.62 92.3057 1357.27C93.8356 1357.92 95.1458 1358.8 96.2363 1359.91C97.3431 1361.01 98.1976 1362.31 98.7998 1363.79C99.4183 1365.25 99.7275 1366.81 99.7275 1368.45C99.7275 1370.11 99.4264 1371.69 98.8242 1373.19C98.222 1374.67 97.3675 1375.97 96.2607 1377.09C95.154 1378.22 93.8193 1379.11 92.2568 1379.78C90.7106 1380.43 88.9854 1380.76 87.0811 1380.76C85.6325 1380.76 84.2816 1380.56 83.0283 1380.17C81.7751 1379.8 80.6439 1379.27 79.6348 1378.58C78.6257 1377.88 77.7467 1377.05 76.998 1376.09C76.2656 1375.13 75.6797 1374.08 75.2402 1372.94L79.2441 1370.94C79.5046 1371.77 79.887 1372.55 80.3916 1373.26C80.8962 1373.96 81.4902 1374.57 82.1738 1375.09C82.8574 1375.6 83.6143 1376 84.4443 1376.29C85.2744 1376.57 86.1533 1376.7 87.0811 1376.7C88.2529 1376.7 89.3353 1376.49 90.3281 1376.07C91.3372 1375.63 92.208 1375.04 92.9404 1374.29C93.6891 1373.54 94.2751 1372.67 94.6982 1371.67C95.1214 1370.67 95.333 1369.59 95.333 1368.45C95.333 1367.3 95.1214 1366.23 94.6982 1365.25C94.2751 1364.26 93.6891 1363.41 92.9404 1362.69C92.1917 1361.96 91.3128 1361.39 90.3037 1360.98C89.3109 1360.56 88.2367 1360.35 87.0811 1360.35C85.779 1360.35 84.5745 1360.58 83.4678 1361.05C82.3773 1361.51 81.4658 1362.13 80.7334 1362.91L77.1445 1362.35V1342.99H97.9941V1347.04H81.1729V1358.17ZM103.609 1357.86C103.609 1357.43 103.691 1357.03 103.854 1356.66C104.033 1356.27 104.269 1355.94 104.562 1355.66C104.854 1355.37 105.188 1355.14 105.562 1354.98C105.953 1354.8 106.368 1354.71 106.808 1354.71C107.231 1354.71 107.63 1354.8 108.004 1354.98C108.395 1355.14 108.728 1355.37 109.005 1355.66C109.298 1355.94 109.526 1356.27 109.688 1356.66C109.868 1357.03 109.957 1357.43 109.957 1357.86C109.957 1358.3 109.868 1358.71 109.688 1359.1C109.526 1359.49 109.298 1359.83 109.005 1360.13C108.728 1360.42 108.395 1360.66 108.004 1360.83C107.63 1361.01 107.231 1361.1 106.808 1361.1C106.368 1361.1 105.953 1361.01 105.562 1360.83C105.188 1360.66 104.854 1360.42 104.562 1360.13C104.269 1359.83 104.033 1359.49 103.854 1359.1C103.691 1358.71 103.609 1358.3 103.609 1357.86ZM103.609 1377.05C103.609 1376.62 103.691 1376.22 103.854 1375.85C104.033 1375.46 104.269 1375.13 104.562 1374.85C104.854 1374.56 105.188 1374.33 105.562 1374.17C105.953 1373.99 106.368 1373.9 106.808 1373.9C107.231 1373.9 107.63 1373.99 108.004 1374.17C108.395 1374.33 108.728 1374.56 109.005 1374.85C109.298 1375.13 109.526 1375.46 109.688 1375.85C109.868 1376.22 109.957 1376.62 109.957 1377.05C109.957 1377.49 109.868 1377.9 109.688 1378.29C109.526 1378.68 109.298 1379.03 109.005 1379.34C108.728 1379.63 108.395 1379.86 108.004 1380.02C107.63 1380.2 107.231 1380.29 106.808 1380.29C106.368 1380.29 105.953 1380.2 105.562 1380.02C105.188 1379.86 104.854 1379.63 104.562 1379.34C104.269 1379.03 104.033 1378.68 103.854 1378.29C103.691 1377.9 103.609 1377.49 103.609 1377.05ZM130.05 1380.44C127.413 1380.44 125.208 1379.95 123.434 1378.97C121.66 1378 120.235 1376.66 119.161 1374.95C118.103 1373.24 117.346 1371.24 116.891 1368.94C116.435 1366.65 116.207 1364.18 116.207 1361.54C116.207 1358.73 116.516 1356.1 117.135 1353.66C117.753 1351.2 118.583 1349.23 119.625 1347.75C120.667 1346.27 121.977 1345.01 123.556 1343.96C125.151 1342.92 127.332 1342.4 130.099 1342.4C132.719 1342.4 134.9 1342.82 136.642 1343.65C138.383 1344.48 139.815 1345.76 140.938 1347.48C142.078 1349.19 142.875 1351.26 143.331 1353.68C143.787 1356.11 144.015 1358.68 144.015 1361.4C144.015 1364.05 143.787 1366.53 143.331 1368.84C142.875 1371.15 142.102 1373.17 141.012 1374.9C139.938 1376.61 138.505 1377.96 136.715 1378.95C134.924 1379.94 132.703 1380.44 130.05 1380.44ZM130.05 1376.09C131.954 1376.09 133.484 1375.71 134.64 1374.95C135.812 1374.17 136.69 1373.11 137.276 1371.77C137.879 1370.44 138.326 1368.88 138.619 1367.11C138.912 1365.32 139.059 1363.41 139.059 1361.4C139.059 1359.46 138.945 1357.6 138.717 1355.83C138.489 1354.04 138.049 1352.46 137.398 1351.09C136.747 1349.73 135.836 1348.64 134.664 1347.82C133.492 1347.01 131.97 1346.6 130.099 1346.6C128.162 1346.6 126.632 1347.01 125.509 1347.82C124.386 1348.64 123.548 1349.62 122.994 1350.78C122.441 1351.92 122.001 1353.49 121.676 1355.49C121.367 1357.49 121.212 1359.46 121.212 1361.4C121.212 1363.41 121.31 1365.32 121.505 1367.11C121.716 1368.88 122.132 1370.44 122.75 1371.77C123.385 1373.11 124.28 1374.17 125.436 1374.95C126.607 1375.71 128.146 1376.09 130.05 1376.09ZM162.521 1380.44C159.884 1380.44 157.678 1379.95 155.904 1378.97C154.13 1378 152.706 1376.66 151.632 1374.95C150.574 1373.24 149.817 1371.24 149.361 1368.94C148.906 1366.65 148.678 1364.18 148.678 1361.54C148.678 1358.73 148.987 1356.1 149.605 1353.66C150.224 1351.2 151.054 1349.23 152.096 1347.75C153.137 1346.27 154.448 1345.01 156.026 1343.96C157.621 1342.92 159.802 1342.4 162.569 1342.4C165.19 1342.4 167.371 1342.82 169.112 1343.65C170.854 1344.48 172.286 1345.76 173.409 1347.48C174.549 1349.19 175.346 1351.26 175.802 1353.68C176.257 1356.11 176.485 1358.68 176.485 1361.4C176.485 1364.05 176.257 1366.53 175.802 1368.84C175.346 1371.15 174.573 1373.17 173.482 1374.9C172.408 1376.61 170.976 1377.96 169.186 1378.95C167.395 1379.94 165.174 1380.44 162.521 1380.44ZM162.521 1376.09C164.425 1376.09 165.955 1375.71 167.11 1374.95C168.282 1374.17 169.161 1373.11 169.747 1371.77C170.349 1370.44 170.797 1368.88 171.09 1367.11C171.383 1365.32 171.529 1363.41 171.529 1361.4C171.529 1359.46 171.415 1357.6 171.188 1355.83C170.96 1354.04 170.52 1352.46 169.869 1351.09C169.218 1349.73 168.307 1348.64 167.135 1347.82C165.963 1347.01 164.441 1346.6 162.569 1346.6C160.632 1346.6 159.103 1347.01 157.979 1347.82C156.856 1348.64 156.018 1349.62 155.465 1350.78C154.911 1351.92 154.472 1353.49 154.146 1355.49C153.837 1357.49 153.683 1359.46 153.683 1361.4C153.683 1363.41 153.78 1365.32 153.976 1367.11C154.187 1368.88 154.602 1370.44 155.221 1371.77C155.855 1373.11 156.751 1374.17 157.906 1374.95C159.078 1375.71 160.616 1376.09 162.521 1376.09Z" fill="#535252"/>
<path id="7:00" d="M79.3906 1592.8H82.2471C83.126 1590.29 84.0944 1587.76 85.1523 1585.18C86.2103 1582.6 87.2845 1580.08 88.375 1577.64C89.4655 1575.2 90.5397 1572.88 91.5977 1570.68C92.6556 1568.47 93.624 1566.47 94.5029 1564.7H80.6357V1567.56H75.9482V1559.99H100.24V1563.65C99.166 1565.77 98.043 1568.01 96.8711 1570.39C95.6992 1572.75 94.5355 1575.17 93.3799 1577.66C92.2406 1580.15 91.1338 1582.68 90.0596 1585.23C88.9854 1587.79 88.0088 1590.31 87.1299 1592.8H90.2061V1597H79.3906V1592.8ZM103.609 1574.86C103.609 1574.43 103.691 1574.03 103.854 1573.66C104.033 1573.27 104.269 1572.94 104.562 1572.66C104.854 1572.37 105.188 1572.14 105.562 1571.98C105.953 1571.8 106.368 1571.71 106.808 1571.71C107.231 1571.71 107.63 1571.8 108.004 1571.98C108.395 1572.14 108.728 1572.37 109.005 1572.66C109.298 1572.94 109.526 1573.27 109.688 1573.66C109.868 1574.03 109.957 1574.43 109.957 1574.86C109.957 1575.3 109.868 1575.71 109.688 1576.1C109.526 1576.49 109.298 1576.83 109.005 1577.13C108.728 1577.42 108.395 1577.66 108.004 1577.83C107.63 1578.01 107.231 1578.1 106.808 1578.1C106.368 1578.1 105.953 1578.01 105.562 1577.83C105.188 1577.66 104.854 1577.42 104.562 1577.13C104.269 1576.83 104.033 1576.49 103.854 1576.1C103.691 1575.71 103.609 1575.3 103.609 1574.86ZM103.609 1594.05C103.609 1593.62 103.691 1593.22 103.854 1592.85C104.033 1592.46 104.269 1592.13 104.562 1591.85C104.854 1591.56 105.188 1591.33 105.562 1591.17C105.953 1590.99 106.368 1590.9 106.808 1590.9C107.231 1590.9 107.63 1590.99 108.004 1591.17C108.395 1591.33 108.728 1591.56 109.005 1591.85C109.298 1592.13 109.526 1592.46 109.688 1592.85C109.868 1593.22 109.957 1593.62 109.957 1594.05C109.957 1594.49 109.868 1594.9 109.688 1595.29C109.526 1595.68 109.298 1596.03 109.005 1596.34C108.728 1596.63 108.395 1596.86 108.004 1597.02C107.63 1597.2 107.231 1597.29 106.808 1597.29C106.368 1597.29 105.953 1597.2 105.562 1597.02C105.188 1596.86 104.854 1596.63 104.562 1596.34C104.269 1596.03 104.033 1595.68 103.854 1595.29C103.691 1594.9 103.609 1594.49 103.609 1594.05ZM130.05 1597.44C127.413 1597.44 125.208 1596.95 123.434 1595.97C121.66 1595 120.235 1593.66 119.161 1591.95C118.103 1590.24 117.346 1588.24 116.891 1585.94C116.435 1583.65 116.207 1581.18 116.207 1578.54C116.207 1575.73 116.516 1573.1 117.135 1570.66C117.753 1568.2 118.583 1566.23 119.625 1564.75C120.667 1563.27 121.977 1562.01 123.556 1560.96C125.151 1559.92 127.332 1559.4 130.099 1559.4C132.719 1559.4 134.9 1559.82 136.642 1560.65C138.383 1561.48 139.815 1562.76 140.938 1564.48C142.078 1566.19 142.875 1568.26 143.331 1570.68C143.787 1573.11 144.015 1575.68 144.015 1578.4C144.015 1581.05 143.787 1583.53 143.331 1585.84C142.875 1588.15 142.102 1590.17 141.012 1591.9C139.938 1593.61 138.505 1594.96 136.715 1595.95C134.924 1596.94 132.703 1597.44 130.05 1597.44ZM130.05 1593.09C131.954 1593.09 133.484 1592.71 134.64 1591.95C135.812 1591.17 136.69 1590.11 137.276 1588.77C137.879 1587.44 138.326 1585.88 138.619 1584.11C138.912 1582.32 139.059 1580.41 139.059 1578.4C139.059 1576.46 138.945 1574.6 138.717 1572.83C138.489 1571.04 138.049 1569.46 137.398 1568.09C136.747 1566.73 135.836 1565.64 134.664 1564.82C133.492 1564.01 131.97 1563.6 130.099 1563.6C128.162 1563.6 126.632 1564.01 125.509 1564.82C124.386 1565.64 123.548 1566.62 122.994 1567.78C122.441 1568.92 122.001 1570.49 121.676 1572.49C121.367 1574.49 121.212 1576.46 121.212 1578.4C121.212 1580.41 121.31 1582.32 121.505 1584.11C121.716 1585.88 122.132 1587.44 122.75 1588.77C123.385 1590.11 124.28 1591.17 125.436 1591.95C126.607 1592.71 128.146 1593.09 130.05 1593.09ZM162.521 1597.44C159.884 1597.44 157.678 1596.95 155.904 1595.97C154.13 1595 152.706 1593.66 151.632 1591.95C150.574 1590.24 149.817 1588.24 149.361 1585.94C148.906 1583.65 148.678 1581.18 148.678 1578.54C148.678 1575.73 148.987 1573.1 149.605 1570.66C150.224 1568.2 151.054 1566.23 152.096 1564.75C153.137 1563.27 154.448 1562.01 156.026 1560.96C157.621 1559.92 159.802 1559.4 162.569 1559.4C165.19 1559.4 167.371 1559.82 169.112 1560.65C170.854 1561.48 172.286 1562.76 173.409 1564.48C174.549 1566.19 175.346 1568.26 175.802 1570.68C176.257 1573.11 176.485 1575.68 176.485 1578.4C176.485 1581.05 176.257 1583.53 175.802 1585.84C175.346 1588.15 174.573 1590.17 173.482 1591.9C172.408 1593.61 170.976 1594.96 169.186 1595.95C167.395 1596.94 165.174 1597.44 162.521 1597.44ZM162.521 1593.09C164.425 1593.09 165.955 1592.71 167.11 1591.95C168.282 1591.17 169.161 1590.11 169.747 1588.77C170.349 1587.44 170.797 1585.88 171.09 1584.11C171.383 1582.32 171.529 1580.41 171.529 1578.4C171.529 1576.46 171.415 1574.6 171.188 1572.83C170.96 1571.04 170.52 1569.46 169.869 1568.09C169.218 1566.73 168.307 1565.64 167.135 1564.82C165.963 1564.01 164.441 1563.6 162.569 1563.6C160.632 1563.6 159.103 1564.01 157.979 1564.82C156.856 1565.64 156.018 1566.62 155.465 1567.78C154.911 1568.92 154.472 1570.49 154.146 1572.49C153.837 1574.49 153.683 1576.46 153.683 1578.4C153.683 1580.41 153.78 1582.32 153.976 1584.11C154.187 1585.88 154.602 1587.44 155.221 1588.77C155.855 1590.11 156.751 1591.17 157.906 1591.95C159.078 1592.71 160.616 1593.09 162.521 1593.09Z" fill="#535252"/>
<path id="9:00_2" d="M80.7578 1814L89.2783 1800.04C88.4645 1800.36 87.724 1800.58 87.0566 1800.69C86.3893 1800.81 85.6732 1800.87 84.9082 1800.87C83.4759 1800.87 81.9867 1800.59 80.4404 1800.04C78.9105 1799.47 77.6003 1798.68 76.5098 1797.67C75.4355 1796.64 74.5404 1795.39 73.8242 1793.91C73.1243 1792.41 72.7744 1790.9 72.7744 1789.37C72.7744 1787.3 73.1243 1785.46 73.8242 1783.85C74.5241 1782.24 75.4681 1780.88 76.6562 1779.77C77.8444 1778.66 79.2197 1777.83 80.7822 1777.26C82.361 1776.67 84.0293 1776.38 85.7871 1776.38C87.5449 1776.38 89.1807 1776.67 90.6943 1777.26C92.2243 1777.84 93.5833 1778.69 94.7715 1779.8C95.9596 1780.89 96.8874 1782.2 97.5547 1783.73C98.2383 1785.24 98.5801 1786.92 98.5801 1788.78C98.5801 1790.21 98.3034 1791.63 97.75 1793.03C97.2129 1794.43 96.5374 1795.89 95.7236 1797.42L86.4463 1814H80.7578ZM85.665 1780.63C84.5583 1780.63 83.5003 1780.82 82.4912 1781.21C81.4821 1781.6 80.5951 1782.16 79.8301 1782.87C79.0651 1783.59 78.4548 1784.44 77.999 1785.44C77.5433 1786.43 77.3154 1787.53 77.3154 1788.73C77.3154 1790.07 77.5596 1791.25 78.0479 1792.27C78.5361 1793.28 79.1872 1794.13 80.001 1794.81C80.8311 1795.49 81.7507 1796.01 82.7598 1796.35C83.7852 1796.69 84.8105 1796.86 85.8359 1796.86C87.3333 1796.86 88.4889 1796.68 89.3027 1796.32C90.1328 1795.95 90.9141 1795.44 91.6465 1794.79C92.3789 1794.12 92.9567 1793.28 93.3799 1792.27C93.8031 1791.25 94.0146 1790.07 94.0146 1788.73C94.0146 1787.46 93.8031 1786.32 93.3799 1785.31C92.9567 1784.3 92.3708 1783.46 91.6221 1782.77C90.8734 1782.07 89.9863 1781.55 88.9609 1781.19C87.9518 1780.81 86.8532 1780.63 85.665 1780.63ZM103.609 1791.86C103.609 1791.43 103.691 1791.03 103.854 1790.66C104.033 1790.27 104.269 1789.94 104.562 1789.66C104.854 1789.37 105.188 1789.14 105.562 1788.98C105.953 1788.8 106.368 1788.71 106.808 1788.71C107.231 1788.71 107.63 1788.8 108.004 1788.98C108.395 1789.14 108.728 1789.37 109.005 1789.66C109.298 1789.94 109.526 1790.27 109.688 1790.66C109.868 1791.03 109.957 1791.43 109.957 1791.86C109.957 1792.3 109.868 1792.71 109.688 1793.1C109.526 1793.49 109.298 1793.83 109.005 1794.13C108.728 1794.42 108.395 1794.66 108.004 1794.83C107.63 1795.01 107.231 1795.1 106.808 1795.1C106.368 1795.1 105.953 1795.01 105.562 1794.83C105.188 1794.66 104.854 1794.42 104.562 1794.13C104.269 1793.83 104.033 1793.49 103.854 1793.1C103.691 1792.71 103.609 1792.3 103.609 1791.86ZM103.609 1811.05C103.609 1810.62 103.691 1810.22 103.854 1809.85C104.033 1809.46 104.269 1809.13 104.562 1808.85C104.854 1808.56 105.188 1808.33 105.562 1808.17C105.953 1807.99 106.368 1807.9 106.808 1807.9C107.231 1807.9 107.63 1807.99 108.004 1808.17C108.395 1808.33 108.728 1808.56 109.005 1808.85C109.298 1809.13 109.526 1809.46 109.688 1809.85C109.868 1810.22 109.957 1810.62 109.957 1811.05C109.957 1811.49 109.868 1811.9 109.688 1812.29C109.526 1812.68 109.298 1813.03 109.005 1813.34C108.728 1813.63 108.395 1813.86 108.004 1814.02C107.63 1814.2 107.231 1814.29 106.808 1814.29C106.368 1814.29 105.953 1814.2 105.562 1814.02C105.188 1813.86 104.854 1813.63 104.562 1813.34C104.269 1813.03 104.033 1812.68 103.854 1812.29C103.691 1811.9 103.609 1811.49 103.609 1811.05ZM130.05 1814.44C127.413 1814.44 125.208 1813.95 123.434 1812.97C121.66 1812 120.235 1810.66 119.161 1808.95C118.103 1807.24 117.346 1805.24 116.891 1802.94C116.435 1800.65 116.207 1798.18 116.207 1795.54C116.207 1792.73 116.516 1790.1 117.135 1787.66C117.753 1785.2 118.583 1783.23 119.625 1781.75C120.667 1780.27 121.977 1779.01 123.556 1777.96C125.151 1776.92 127.332 1776.4 130.099 1776.4C132.719 1776.4 134.9 1776.82 136.642 1777.65C138.383 1778.48 139.815 1779.76 140.938 1781.48C142.078 1783.19 142.875 1785.26 143.331 1787.68C143.787 1790.11 144.015 1792.68 144.015 1795.4C144.015 1798.05 143.787 1800.53 143.331 1802.84C142.875 1805.15 142.102 1807.17 141.012 1808.9C139.938 1810.61 138.505 1811.96 136.715 1812.95C134.924 1813.94 132.703 1814.44 130.05 1814.44ZM130.05 1810.09C131.954 1810.09 133.484 1809.71 134.64 1808.95C135.812 1808.17 136.69 1807.11 137.276 1805.77C137.879 1804.44 138.326 1802.88 138.619 1801.11C138.912 1799.32 139.059 1797.41 139.059 1795.4C139.059 1793.46 138.945 1791.6 138.717 1789.83C138.489 1788.04 138.049 1786.46 137.398 1785.09C136.747 1783.73 135.836 1782.64 134.664 1781.82C133.492 1781.01 131.97 1780.6 130.099 1780.6C128.162 1780.6 126.632 1781.01 125.509 1781.82C124.386 1782.64 123.548 1783.62 122.994 1784.78C122.441 1785.92 122.001 1787.49 121.676 1789.49C121.367 1791.49 121.212 1793.46 121.212 1795.4C121.212 1797.41 121.31 1799.32 121.505 1801.11C121.716 1802.88 122.132 1804.44 122.75 1805.77C123.385 1807.11 124.28 1808.17 125.436 1808.95C126.607 1809.71 128.146 1810.09 130.05 1810.09ZM162.521 1814.44C159.884 1814.44 157.678 1813.95 155.904 1812.97C154.13 1812 152.706 1810.66 151.632 1808.95C150.574 1807.24 149.817 1805.24 149.361 1802.94C148.906 1800.65 148.678 1798.18 148.678 1795.54C148.678 1792.73 148.987 1790.1 149.605 1787.66C150.224 1785.2 151.054 1783.23 152.096 1781.75C153.137 1780.27 154.448 1779.01 156.026 1777.96C157.621 1776.92 159.802 1776.4 162.569 1776.4C165.19 1776.4 167.371 1776.82 169.112 1777.65C170.854 1778.48 172.286 1779.76 173.409 1781.48C174.549 1783.19 175.346 1785.26 175.802 1787.68C176.257 1790.11 176.485 1792.68 176.485 1795.4C176.485 1798.05 176.257 1800.53 175.802 1802.84C175.346 1805.15 174.573 1807.17 173.482 1808.9C172.408 1810.61 170.976 1811.96 169.186 1812.95C167.395 1813.94 165.174 1814.44 162.521 1814.44ZM162.521 1810.09C164.425 1810.09 165.955 1809.71 167.11 1808.95C168.282 1808.17 169.161 1807.11 169.747 1805.77C170.349 1804.44 170.797 1802.88 171.09 1801.11C171.383 1799.32 171.529 1797.41 171.529 1795.4C171.529 1793.46 171.415 1791.6 171.188 1789.83C170.96 1788.04 170.52 1786.46 169.869 1785.09C169.218 1783.73 168.307 1782.64 167.135 1781.82C165.963 1781.01 164.441 1780.6 162.569 1780.6C160.632 1780.6 159.103 1781.01 157.979 1781.82C156.856 1782.64 156.018 1783.62 155.465 1784.78C154.911 1785.92 154.472 1787.49 154.146 1789.49C153.837 1791.49 153.683 1793.46 153.683 1795.4C153.683 1797.41 153.78 1799.32 153.976 1801.11C154.187 1802.88 154.602 1804.44 155.221 1805.77C155.855 1807.11 156.751 1808.17 157.906 1808.95C159.078 1809.71 160.616 1810.09 162.521 1810.09Z" fill="#535252"/>
</g>
</g>
</g>
<defs>
<filter id="filter0_d_300_4498" x="-4" y="0" width="1088" height="385" filterUnits="userSpaceOnUse" color-interpolation-filters="sRGB">
<feFlood flood-opacity="0" result="BackgroundImageFix"/>
<feColorMatrix in="SourceAlpha" type="matrix" values="0 0 0 0 0 0 0 0 0 0 0 0 0 0 0 0 0 0 127 0" result="hardAlpha"/>
<feOffset dy="4"/>
<feGaussianBlur stdDeviation="2"/>
<feComposite in2="hardAlpha" operator="out"/>
<feColorMatrix type="matrix" values="0 0 0 0 0 0 0 0 0 0 0 0 0 0 0 0 0 0 0.25 0"/>
<feBlend mode="normal" in2="BackgroundImageFix" result="effect1_dropShadow_300_4498"/>
<feBlend mode="normal" in="SourceGraphic" in2="effect1_dropShadow_300_4498" result="shape"/>
</filter>
<clipPath id="clip0_300_4498">
<rect width="1080" height="1920" fill="white"/>
</clipPath>
</defs>
</svg>
