<?xml version="1.0"?>
<svg xmlns="http://www.w3.org/2000/svg" id="filled_outline" data-name="filled outline" viewBox="0 0 512 512" width="512" height="512"><polygon points="336 328 400 352 424 392 448 392 440 344 392 288 336 288 336 328" style="fill:#d6bfae"/><path d="M104,208l0,0A190.53306,190.53306,0,0,0,72,313.68876V328L40,360v72H64l8-8,16,8h24V416L80,392l64-88V208Z" style="fill:#d6bfae"/><path d="M144,136,101.25482,93.25482A45.25478,45.25478,0,0,0,69.25485,80h-.00006A45.25479,45.25479,0,0,0,24,125.25479V280l0,0A79.99993,79.99993,0,0,0,56,216V123.3137A11.31369,11.31369,0,0,1,67.3137,112h0a11.31372,11.31372,0,0,1,8,3.31371L120,160Z" style="fill:#d6bfae"/><path d="M400,256v.00006a72.498,72.498,0,0,1-63.50572,71.93816L336,328l-16,72,32,16v16H328l-16-8-8,8H288V312H208v88l32,16v16H216l-16-8-8,8H176l-24-80,8-32-7.40769-6.34945A139.14979,139.14979,0,0,1,104,208.00015V208a88,88,0,0,1,88-88h80l25.03515-12.51757A108.763,108.763,0,0,1,345.67549,96h0a108.76311,108.76311,0,0,1,42.84389,8.794L424,120Z" style="fill:#e9d5c6"/><polygon points="360 224 400 256 432 256 472 184 488 168 464 120 392 120 360 160 360 224" style="fill:#f0dfd3"/><polygon points="488 248 482.67 256 472 272 440 272 400 216 416 184 472 184 488 248" style="fill:#ffceb6"/><path d="M288,312V296a24,24,0,0,0-24-24H232a24,24,0,0,0-24,24v16Z" style="fill:#e3cdbc"/><path d="M20.42236,287.15527a7.99878,7.99878,0,0,0,8.37744-.75537A88.41973,88.41973,0,0,0,64,216V123.31348a3.31388,3.31388,0,0,1,5.65674-2.34327L108.8125,160.126a95.369,95.369,0,0,0-12.78162,45.44555A197.87885,197.87885,0,0,0,64,313.689v10.99756L34.34326,354.34326A7.99877,7.99877,0,0,0,32,360v72a7.99977,7.99977,0,0,0,8,8H64a7.99877,7.99877,0,0,0,5.65674-2.34326l3.92285-3.92285,10.84277,5.42138A7.99583,7.99583,0,0,0,88,440h24a7.99977,7.99977,0,0,0,8-8V416a7.99927,7.99927,0,0,0-3.2002-6.3999l-25.69335-19.27,53.27465-73.25269q1.48206,1.3418,3.00464,2.64722l3.65381,3.13184-6.80078,27.20312a7.99945,7.99945,0,0,0,.09863,4.23926l24,80A8.00017,8.00017,0,0,0,176,440h16a7.99877,7.99877,0,0,0,5.65674-2.34326l3.92285-3.92285,10.84277,5.42138A7.99737,7.99737,0,0,0,216,440h24a7.99977,7.99977,0,0,0,8-8V416a7.99924,7.99924,0,0,0-4.42236-7.15527L216,395.05566V320h64V432a7.99977,7.99977,0,0,0,8,8h16a7.99877,7.99877,0,0,0,5.65674-2.34326l3.92285-3.92285,10.84277,5.42138A7.99583,7.99583,0,0,0,328,440h24a7.99977,7.99977,0,0,0,8-8V416a7.99924,7.99924,0,0,0-4.42236-7.15527l-26.41309-13.20655L341.812,338.72363l52.76465,19.78662,22.56348,37.60547A8.0001,8.0001,0,0,0,424,400h24a8.00034,8.00034,0,0,0,7.89111-9.31543l-8-48a8.00495,8.00495,0,0,0-1.81689-3.89111l-44.33228-51.72095A79.97248,79.97248,0,0,0,407.58923,264h16.86536l9.03564,12.6499A7.99921,7.99921,0,0,0,440,280h32a7.99943,7.99943,0,0,0,6.65625-3.5625l16-24a8.00024,8.00024,0,0,0,1.105-6.37793L480.85986,186.4541l12.79688-12.79736a7.9993,7.9993,0,0,0,1.49853-9.23438l-24-48A7.99924,7.99924,0,0,0,464,112H425.64185L391.6709,97.44092A116.1129,116.1129,0,0,0,345.67529,88a117.35743,117.35743,0,0,0-52.21777,12.32715L270.11133,112H192a95.412,95.412,0,0,0-47.874,12.8125L106.91162,87.59814A53.25467,53.25467,0,0,0,16,125.25488V280A7.99924,7.99924,0,0,0,20.42236,287.15527ZM75.2002,398.3999,104,420v4H89.88867l-14.311-7.15527a7.99942,7.99942,0,0,0-9.23438,1.49853L60.68652,424H48V363.31348l29.65674-29.65674A7.99877,7.99877,0,0,0,80,328V313.689a181.89812,181.89812,0,0,1,18.31665-79.70947,146.88782,146.88782,0,0,0,34.6626,71.57276l-59.449,81.74218A8,8,0,0,0,75.2002,398.3999Zm357.2749-50.88623L438.55615,384H428.5293l-21.66944-36.11572a7.99755,7.99755,0,0,0-4.05078-3.375l-41.40185-15.52564A80.84538,80.84538,0,0,0,393.49048,302.032ZM467.71875,264H444.11719l-34.80762-48.73047L420.94434,192h44.80957l11.99975,48H456v16h17.05188ZM272,128a7.99737,7.99737,0,0,0,3.57764-.84473l25.03515-12.51757A101.28123,101.28123,0,0,1,345.67529,104a100.2097,100.2097,0,0,1,39.69287,8.147l2.43677,1.04444a7.98954,7.98954,0,0,0-2.052,1.811l-32,40,12.49414,9.99512L395.84521,128h63.21045l19.21045,38.42041L468.68652,176H416a7.99924,7.99924,0,0,0-7.15527,4.42236l-16,32a7.99925,7.99925,0,0,0,.6455,8.22754L413.026,248H402.80615L368,220.15479V184H352v40a7.99951,7.99951,0,0,0,3.00244,6.24707l36.87647,29.5011a64.60354,64.60354,0,0,1-56.38086,60.25232l-.49414.06152a8.00073,8.00073,0,0,0-6.81348,6.20264l-16,72a7.99991,7.99991,0,0,0,4.23193,8.89062L344,420.94434V424H329.88867l-14.311-7.15527a7.99761,7.99761,0,0,0-9.23438,1.49853L300.686,424H296V272H280v32H216V272H200V400a7.99924,7.99924,0,0,0,4.42236,7.15527L232,420.94434V424H217.88867l-14.311-7.15527a7.998,7.998,0,0,0-9.23438,1.49853L188.686,424h-6.73389l-21.65772-72.19287,7.4668-29.8667a8.00132,8.00132,0,0,0-2.55469-8.01465l-7.40771-6.34961A130.99775,130.99775,0,0,1,112,208a80.09041,80.09041,0,0,1,80-80ZM32,125.25488A37.255,37.255,0,0,1,95.59814,98.91162l35.19092,35.19092a96.84134,96.84134,0,0,0-12.68652,12.68652L80.97021,109.65674A19.31354,19.31354,0,0,0,48,123.31348V216a72.35936,72.35936,0,0,1-16,45.2168Z"/><path d="M440,200h-8v8a8.00009,8.00009,0,0,0,8,8h8v-8A8.00009,8.00009,0,0,0,440,200Z"/></svg>
