<?xml version="1.0"?>
<svg xmlns="http://www.w3.org/2000/svg" id="filled_outline" data-name="filled outline" viewBox="0 0 512 512" width="512" height="512"><path d="M420.34137,248,488,336v17.83614a53.50829,53.50829,0,0,1-15.67222,37.83608L456,408H408V392l32-32L328,312V248Z" style="fill:#91591c"/><polygon points="440 360 440 328 344 272 328 312 440 360" style="fill:#854f15"/><path d="M88,320v80l24,40H64L24,400V226A154,154,0,0,1,178,72h24.74717a109.25,109.25,0,0,1,77.25141,31.99858l.11859.11859h0A115.37842,115.37842,0,0,1,338.93361,88h.00009a115.37787,115.37787,0,0,1,87.6014,40.29093L440,144v74.66659L328,312v96l24,32H296l-40-40V320Z" style="fill:#b1712c"/><polygon points="256 320 256 312 216 272 128 272 88 320 256 320" style="fill:#a36522"/><polygon points="120 320 144 408 184 440 224 440 200 400 200 320 120 320" style="fill:#91591c"/><path d="M344,176l0,0a54.62737,54.62737,0,0,1-16-38.62737V128h9.37261A54.62737,54.62737,0,0,1,376,144l0,0Z" style="fill:#d69651"/><path d="M472,176v0a54.62733,54.62733,0,0,0,16-38.62737V128h-9.3726A54.62732,54.62732,0,0,0,440,144l0,0Z" style="fill:#d69651"/><path d="M380,272h-4a40,40,0,0,1-40-40V208a71.99993,71.99993,0,0,1,71.99993-71.99993h.00014A71.99993,71.99993,0,0,1,480,208v24a40,40,0,0,1-40,40h-4l-1.02317,8.18534A27.18675,27.18675,0,0,1,408,304h0a27.18675,27.18675,0,0,1-26.97681-23.81465Z" style="fill:#c78640"/><path d="M384,200h-8v8a7.99993,7.99993,0,0,0,8,8h8v-8A7.99993,7.99993,0,0,0,384,200Z"/><path d="M424,208v8h8a7.99993,7.99993,0,0,0,8-8v-8h-8A7.99993,7.99993,0,0,0,424,208Z"/><path d="M412,264h-8a4,4,0,0,0-4,4v4a8,8,0,0,0,16,0v-4A4,4,0,0,0,412,264Z"/><path d="M488,120h-9.373a62.14674,62.14674,0,0,0-37.78711,12.68652l-8.23046-9.60205A123.35144,123.35144,0,0,0,281.36914,94.26221,116.40716,116.40716,0,0,0,202.74512,64H178C88.67285,64,16,136.67285,16,226V400a8.00035,8.00035,0,0,0,2.34277,5.65674l40,40A8.00076,8.00076,0,0,0,64,448h48a8,8,0,0,0,6.86035-12.11572L96,397.78418V328h17.88989l22.39234,82.105a7.99881,7.99881,0,0,0,2.71972,4.14209l40,32A8.0027,8.0027,0,0,0,184,448h40a8,8,0,0,0,6.86035-12.11572L208,397.78418V328h40v72a8.00035,8.00035,0,0,0,2.34277,5.65674l40,40A8.00076,8.00076,0,0,0,296,448h56a8.00031,8.00031,0,0,0,6.40039-12.7998L336,405.3335V324.1322l89.98779,38.56629-23.645,23.64477A8.00035,8.00035,0,0,0,400,392v16a8.00008,8.00008,0,0,0,8,8h48a8.00076,8.00076,0,0,0,5.65723-2.34326l16.32812-16.32764A61.10723,61.10723,0,0,0,496,353.83594a61.89617,61.89617,0,0,0-12.30078-36.90528l-29.34473-39.125A48.08453,48.08453,0,0,0,488,232V208a79.55613,79.55613,0,0,0-6.21191-30.89478A62.154,62.154,0,0,0,496,137.37256V128A8.00008,8.00008,0,0,0,488,120ZM193.13965,404.11572,209.87012,432H186.80664l-35.77441-28.61914L130.47363,328H192v72A8.006,8.006,0,0,0,193.13965,404.11572ZM299.31348,432,264,396.686V312a8.00035,8.00035,0,0,0-2.34277-5.65674l-32-32-11.31446,11.31348L244.686,312H105.08032l29.06519-34.87842-12.291-10.24316-40,48A8.00012,8.00012,0,0,0,80,320v80a8.00733,8.00733,0,0,0,1.13965,4.11572L97.87012,432H67.31348L32,396.686V226C32,145.49512,97.49512,80,178,80h24.74512A100.48989,100.48989,0,0,1,267.042,103.02393L251.5625,113.34375l8.875,13.3125,18.93359-12.62207A107.36217,107.36217,0,0,1,415.772,128.38354C413.21338,128.13574,410.62256,128,408,128a79.555,79.555,0,0,0-30.895,6.21179A62.15339,62.15339,0,0,0,337.37305,120H328a8.00008,8.00008,0,0,0-8,8v9.37256a62.15207,62.15207,0,0,0,14.21191,39.73266A79.55524,79.55524,0,0,0,328,208v24a48.06687,48.06687,0,0,0,30.083,44.51782l-35.2041,29.33667A7.99862,7.99862,0,0,0,320,312v96a8.00222,8.00222,0,0,0,1.59961,4.7998L336,432Zm43.51709-270.31274A46.32259,46.32259,0,0,1,336,137.37256V136h1.373a46.32119,46.32119,0,0,1,24.314,6.83081A80.645,80.645,0,0,0,342.83057,161.68726ZM480,353.83594a45.2106,45.2106,0,0,1-13.3291,32.17968L452.68652,400H416v-4.68652l29.65723-29.65674A8.00035,8.00035,0,0,0,448,360V328H432v19.8678l-88.85059-38.07874,30.4878-25.40674a35.18506,35.18506,0,0,0,67.91552,3.02161l29.34571,39.12683A45.79422,45.79422,0,0,1,480,353.83594ZM472,232a32.04749,32.04749,0,0,1-26.88574,31.5863l2.82422-22.59411-15.877-1.98438-5.02343,40.18555a19.18623,19.18623,0,0,1-38.07618,0l-5.02343-40.18555-15.877,1.98438,2.82422,22.59411A32.04749,32.04749,0,0,1,344,232V208a64,64,0,0,1,128,0Zm-17.687-89.16943A46.31936,46.31936,0,0,1,478.627,136H480v1.37256a46.32336,46.32336,0,0,1-6.83105,24.314A80.64118,80.64118,0,0,0,454.313,142.83057Z"/></svg>
