<?xml version="1.0"?>
<svg xmlns="http://www.w3.org/2000/svg" id="filled_outline" data-name="filled outline" viewBox="0 0 512 512" width="512" height="512"><polygon points="72 352 56 392 72 408 72 424 24 424 24 336 56 272 72 272 72 352" style="fill:#91591c"/><polygon points="344 424 344 408 312 384 304 344 344 280 264 280 264 424 344 424" style="fill:#91591c"/><path d="M488,128v32H472l-16-8-16,8H416l-9.52,71.3999A56.00179,56.00179,0,0,1,350.97,280H304l-32,64,8,56,24,8v16H256l-32-80,8-24V280H128l-16,48,24,64,24,16v16H112L56,328V208a55.99746,55.99746,0,0,1,56-56h16l29.48-34.3999a61.8621,61.8621,0,0,1,92.95-1.12012L291.52,162.12988a41.89057,41.89057,0,0,0,70.51-13.71L374.46,114.25A39.857,39.857,0,0,1,434.04,94.7L448,104h16Z" style="fill:#b1712c"/><path d="M416,160l-9.52,71.3999A56.00179,56.00179,0,0,1,350.97,280H304V256a32,32,0,0,1,32-32h18.81323a24,24,0,0,0,23.81467-21.02317L384,160Z" style="fill:#a36522"/><path d="M128,280l8-24V240h56a40,40,0,0,1,40,40v0Z" style="fill:#a36522"/><path d="M469.65723,98.34277A8.00235,8.00235,0,0,0,464,96H450.42188l-11.93946-7.96A47.7239,47.7239,0,0,0,411.92773,80H384a8.00039,8.00039,0,0,0-8,8v8c0,.08691.00586.17212.00659.25879a48.13643,48.13643,0,0,0-9.06909,15.25293l-12.42871,34.17871a33.89245,33.89245,0,0,1-57.04395,11.08984L256.376,111.126a69.85771,69.85771,0,0,0-104.96582,1.26953L124.32031,144H112a63.89873,63.89873,0,0,0-49.946,24.04932A48.05139,48.05139,0,0,0,16,216v64a8,8,0,0,0,16,0V216a32.0471,32.0471,0,0,1,19.74512-29.55591A63.69341,63.69341,0,0,0,48,208v62.11133L16.84473,332.42188A7.99934,7.99934,0,0,0,16,336v88a8.00039,8.00039,0,0,0,8,8H72a8.00039,8.00039,0,0,0,8-8V408a8.00235,8.00235,0,0,0-2.34277-5.65723L65.38672,390.07324l7.14355-17.8584,32.55957,55.81641A8.00059,8.00059,0,0,0,112,432h48a8.00039,8.00039,0,0,0,8-8V408a7.99943,7.99943,0,0,0-3.5625-6.65625L142.585,386.77539l-22.09961-58.93262L133.7666,288H224v30.70215l-7.58984,22.76758a8.00168,8.00168,0,0,0,.16211,5.501l32,80A7.99873,7.99873,0,0,0,256,432h88a8.00039,8.00039,0,0,0,8-8V408a8.00091,8.00091,0,0,0-3.2002-6.40039l-29.55468-22.166-6.77735-33.88769L348.43433,288h2.53637a64.19951,64.19951,0,0,0,63.43848-55.541L423.00391,168H440a7.99934,7.99934,0,0,0,3.57812-.84473L456,160.94434l12.42188,6.21093A7.99934,7.99934,0,0,0,472,168h16a8.00039,8.00039,0,0,0,8-8V128a8.00235,8.00235,0,0,0-2.34277-5.65723ZM50.34277,397.65723,64,411.31348V416H32V337.88867l16-32V328a8.001,8.001,0,0,0,1.08984,4.03125l13.21778,22.65918L48.57227,389.0293A8.00079,8.00079,0,0,0,50.34277,397.65723Zm246.87305-57.89746a8.002,8.002,0,0,0-1.06055,5.80957l8,40a7.99962,7.99962,0,0,0,3.04493,4.83105L336,412v4H312v-8a8.00026,8.00026,0,0,0-5.46973-7.58984l-19.30957-6.43653-6.94726-48.63086L308.94434,288h20.62133ZM480,152h-6.11133l-14.31055-7.15527a7.99634,7.99634,0,0,0-7.15624,0L438.11133,152H416a7.99961,7.99961,0,0,0-7.92969,6.94238l-9.52051,71.40137A48.14947,48.14947,0,0,1,350.9707,272H312V232H296v46.11133l-31.15527,62.31055a8.00966,8.00966,0,0,0-.76465,4.71l8,56a8.00308,8.00308,0,0,0,5.38965,6.458L296,413.76562V416H261.416L232.5166,343.75l7.07324-21.21973A8.0151,8.0151,0,0,0,240,320V224H224v48H139.09985l4.49-13.46973A8.0151,8.0151,0,0,0,144,256V224H128v30.70215l-23.58984,70.76758a8.00139,8.00139,0,0,0,.09961,5.33886l24,64a7.99383,7.99383,0,0,0,3.05273,3.84766L152,412.28125V416H116.59473L64,325.83691V208a48.05375,48.05375,0,0,1,48-48h16a7.99987,7.99987,0,0,0,6.07422-2.79395l29.48437-34.39843a53.85833,53.85833,0,0,1,80.92481-.97852l41.08887,45.6543a49.89242,49.89242,0,0,0,83.97363-16.3252l12.42871-34.17871c.19092-.52466.39966-1.043.61816-1.55688A31.96142,31.96142,0,0,0,408,128V112a16.01833,16.01833,0,0,1-16-16h19.92773a31.771,31.771,0,0,1,17.67969,5.35254l13.95508,9.30371A7.99986,7.99986,0,0,0,448,112h12.68652L480,131.31348Z"/><path d="M432,120h-8v8a8.00009,8.00009,0,0,0,8,8h8v-8A8.00009,8.00009,0,0,0,432,120Z"/></svg>
