<?xml version="1.0"?>
<svg xmlns="http://www.w3.org/2000/svg" id="filled_outline" data-name="filled outline" viewBox="0 0 512 512" width="512" height="512"><path d="M352,360H472V280H312l-16-8H24v80H44a59.99993,59.99993,0,0,0,36-12l0,0a59.99993,59.99993,0,0,1,36-12H264l48.63272,62.52778A24.53563,24.53563,0,0,0,332,400h20Z" style="fill:#b1712c"/><path d="M424,144H360a95.29647,95.29647,0,0,0-52.83984-16H176A103.997,103.997,0,0,0,72,232V352a55.9973,55.9973,0,0,0,56,56h20a44,44,0,0,0,0-88h-2.7a9.30311,9.30311,0,0,0-2.94019,18.12012l4.92017,1.63965A18.59772,18.59772,0,0,1,141.3999,376a26.14174,26.14174,0,0,1-25.96-29.2002L123.33008,279.73A44.97178,44.97178,0,0,1,168,240v32l16,24h16V240h54.3999L288,288v24l32,16V280c0-4.07861-12.47559-22.7124-24.70654-40H424Z" style="fill:#b9cd2a"/><path d="M272,208s11.53336,15.37781,23.29319,31.99983H424V208Z" style="fill:#acc221"/><path d="M488,184v24a57.22931,57.22931,0,0,1-4.08008,6.90991A57.87469,57.87469,0,0,1,436.21973,240H424l-64-48V104h48A80.00349,80.00349,0,0,1,488,184Z" style="fill:#c1d439"/><circle cx="416" cy="160" r="24" style="fill:#ffcc4d"/><path d="M200,240V201.53881A25.5388,25.5388,0,0,1,225.53881,176h30.79165A24.33046,24.33046,0,0,0,232,200.33046v0a24.33049,24.33049,0,0,0,4.39817,13.9526L254.4,240Z" style="fill:#acc221"/><polygon points="368 280 336 240 376 240 400 280 368 280" style="fill:#93ad10"/><path d="M408,96H360a8.00039,8.00039,0,0,0-8,8v26.251A102.90329,102.90329,0,0,0,307.15527,120H176A112.12706,112.12706,0,0,0,64,232v32H24a8.00039,8.00039,0,0,0-8,8v80a8.00039,8.00039,0,0,0,8,8H44a68.19393,68.19393,0,0,0,20.20776-3.08057A64.0714,64.0714,0,0,0,128,416h20a51.95817,51.95817,0,0,0,43.7832-80h68.30371l46.23145,59.43848A32.32313,32.32313,0,0,0,332,408h20a8.00039,8.00039,0,0,0,8-8V368H472a8.00039,8.00039,0,0,0,8-8V280a8.00039,8.00039,0,0,0-8-8H404.53027l-14.40039-24h46.09278a65.52845,65.52845,0,0,0,58.93261-36.42188A7.99934,7.99934,0,0,0,496,208V184A88.09957,88.09957,0,0,0,408,96ZM32,344V280H64v59.97217A52.21244,52.21244,0,0,1,44,344Zm432,8H360V336H344v56H332a16.43181,16.43181,0,0,1-13.05273-6.38379l-48.63282-62.52734A7.998,7.998,0,0,0,264,320H176v.2168A51.67512,51.67512,0,0,0,148,312h-2.70215a17.28561,17.28561,0,0,0-14.56274,8h-4.09156l4.62793-39.33984c.02613-.22168.06348-.43946.09327-.66016h32.354l13.625,20.4375A7.99943,7.99943,0,0,0,184,304h16a8.00039,8.00039,0,0,0,8-8V280h64v-.90723l8,11.42871V312a8.00022,8.00022,0,0,0,4.42188,7.15527l32,16A7.99951,7.99951,0,0,0,328,328V288H464Zm-340.61914-4.26758L124.76123,336h4.5874a17.27015,17.27015,0,0,0,10.47852,9.708l4.92676,1.64355A10.59595,10.59595,0,0,1,141.40332,368a18.14685,18.14685,0,0,1-18.02246-20.26758ZM160,264H137.55469A37.0281,37.0281,0,0,1,160,248.87939Zm48-16h42.23486l11.2002,16H208Zm124.15527,0,19.2002,24H325.57373c-2.249-4.50244-6.59033-11.72559-14.96631-24Zm53.71485,24H371.84473l-19.2002-24h18.8252Zm50.35254-40H299.42285c-4.13379-5.80054-8.15967-11.35156-11.5625-16H304V200H272a8.00013,8.00013,0,0,0-6.40039,12.7998C286.22852,240.30469,309.51074,273.65918,312,280.72461v34.33105l-16-8V288a7.99931,7.99931,0,0,0-1.44629-4.58789l-51.60156-73.7168A16.33028,16.33028,0,0,1,256.33008,184H304V168H256.33008a32.33026,32.33026,0,0,0-26.48535,50.87109L239.03491,232H208V192H192v96h-3.71875L176,269.57812V240a8.00235,8.00235,0,0,0-2.34277-5.65723l-24-24-11.31446,11.31446L151.363,234.677a53.00451,53.00451,0,0,0-35.98218,44.114l-7.89063,67.07226A34.14671,34.14671,0,0,0,141.40332,384a26.596,26.596,0,0,0,8.41113-51.82715l-4.92675-1.64355A1.29792,1.29792,0,0,1,145.29785,328H148a36,36,0,0,1,0,72H128a48.055,48.055,0,0,1-48-48V232a96.10874,96.10874,0,0,1,96-96H307.15527A86.95562,86.95562,0,0,1,352,148.417V192a8.0009,8.0009,0,0,0,3.2002,6.40039l32,24,9.5996-12.80078L368,188V112h40a72.08124,72.08124,0,0,1,72,72v11.05566l-4.42188-2.21093A7.99934,7.99934,0,0,0,472,192H448v16h22.11133l6.584,3.292A49.56645,49.56645,0,0,1,436.22266,232Z"/><path d="M416,128a32,32,0,1,0,32,32A32.03667,32.03667,0,0,0,416,128Zm0,48a16,16,0,1,1,16-16A16.01833,16.01833,0,0,1,416,176Z"/><circle cx="416" cy="160" r="8"/></svg>
