<?xml version="1.0"?>
<svg xmlns="http://www.w3.org/2000/svg" id="filled_outline" data-name="filled outline" viewBox="0 0 512 512" width="512" height="512"><polygon points="352 184 352 248 384 272 296 272 296 184 352 184" style="fill:#89a603"/><rect x="456" y="128" width="16" height="16" style="fill:#93ad10"/><path d="M456,104l-8.84473,4.42236a33.8885,33.8885,0,0,1-30.31054,0l-12.30567-6.15283a59.38666,59.38666,0,0,0-59.5,3.70435L336,112H176A152,152,0,0,0,24,263.99976V264A152,152,0,0,0,176,416h40l-59.40527-25.45947A86.77831,86.77831,0,0,1,104,310.77856V288h22.70166A35.0234,35.0234,0,0,0,136,286.72217V320h88l-8-8-32-16,12.40186-12.40186A39.5947,39.5947,0,0,0,192.26367,224H256v32l24,16h56l-32-24V224h7.01221a42.25,42.25,0,0,0,40.98852-32.00293l.25562-1.0227A51.96148,51.96148,0,0,0,381.52222,200a64.56514,64.56514,0,0,0,20.41772-3.31348L416,192h64V160h8V104Z" style="fill:#a2ba18"/><rect x="456" y="128" width="16" height="16"/><path d="M384,134.27637h8v-8a7.99993,7.99993,0,0,0-8-8h-8v8A8.00009,8.00009,0,0,0,384,134.27637Z"/><path d="M488,96H456a7.99225,7.99225,0,0,0-3.57715.84473l-8.84668,4.42187a25.88384,25.88384,0,0,1-23.15429,0l-12.30469-6.15234a67.387,67.387,0,0,0-67.51563,4.20312L333.57812,104H176C87.77539,104,16,175.77539,16,264S87.77539,424,176,424h40a8.00015,8.00015,0,0,0,3.15137-15.35352l-59.40528-25.459A78.68952,78.68952,0,0,1,112,310.77832V296h14.70215c.43432,0,.866-.01294,1.29785-.02588V320a8.00039,8.00039,0,0,0,8,8h88a8.00066,8.00066,0,0,0,5.65723-13.65723l-8-8a8.03215,8.03215,0,0,0-2.07911-1.498l-22.07324-11.03614,4.55469-4.55371A47.53136,47.53136,0,0,0,209.71216,232H248v24a7.99943,7.99943,0,0,0,3.5625,6.65625l24,16A8.00221,8.00221,0,0,0,280,280H384a7.99991,7.99991,0,0,0,4.7998-14.40039L360,244V204.01953A59.91936,59.91936,0,0,0,381.52246,208a72.46323,72.46323,0,0,0,22.94824-3.72363L417.29785,200H480a8.00039,8.00039,0,0,0,8-8V168a8.00039,8.00039,0,0,0,8-8V104A8.00039,8.00039,0,0,0,488,96ZM338.667,264,312,244V231.97925a50.1355,50.1355,0,0,0,32-12.30737V248a8.0009,8.0009,0,0,0,3.2002,6.40039L360,264ZM472,184H416a8.01957,8.01957,0,0,0-2.53027.41016l-14.0586,4.68652A56.46619,56.46619,0,0,1,381.52246,192a43.668,43.668,0,0,1-31.084-12.876l-8.78125-8.78125-11.31446,11.31446,8.78125,8.78125c1.24659,1.24658,2.54566,2.42016,3.87891,3.54174A34.18889,34.18889,0,0,1,311.01562,216H280v16h16v16a8.00229,8.00229,0,0,0,3.2002,6.40039L312,264H282.42188L264,251.71875V208a24.0275,24.0275,0,0,1,24-24h16V168H288a39.79015,39.79015,0,0,0-24,8.022V176H243.31348l-5.65625-5.65723A8.00235,8.00235,0,0,0,232,168H216a8.00235,8.00235,0,0,0-5.65723,2.34277L204.68652,176h-9.373l-5.65625-5.65723A8.00235,8.00235,0,0,0,184,168H168a8.00235,8.00235,0,0,0-5.65723,2.34277L156.68652,176H136v16h24a8.00235,8.00235,0,0,0,5.65723-2.34277L171.31348,184h9.373l5.65625,5.65723A8.00235,8.00235,0,0,0,192,192h16a8.00235,8.00235,0,0,0,5.65723-2.34277L219.31348,184h9.373l5.65625,5.65723A8.00235,8.00235,0,0,0,240,192h11.3501A39.75689,39.75689,0,0,0,248,208v8H194.77783a47.31793,47.31793,0,0,0-26.37549-8H120v16h48.40234a31.59746,31.59746,0,0,1,22.34278,53.94043l-12.40235,12.40234a8.00105,8.00105,0,0,0,2.07911,12.8125L198.11133,312H144V292.38062a43.03565,43.03565,0,0,0,23.58984-25.85132l-15.17968-5.0586A27.06384,27.06384,0,0,1,126.70215,280H104a8.00039,8.00039,0,0,0-8,8v22.77832a94.67456,94.67456,0,0,0,57.44336,87.11621L177.02441,408H176C96.59863,408,32,343.40137,32,264S96.59863,120,176,120H336a7.99986,7.99986,0,0,0,4.4375-1.34375l9.03906-6.02637a51.38955,51.38955,0,0,1,51.48535-3.20508l12.30371,6.15235a41.885,41.885,0,0,0,37.4668,0L457.88867,112H480v40H433.88867l-14.31055-7.15527a7.99634,7.99634,0,0,0-7.15624,0L398.11133,152H368v16h32a7.99934,7.99934,0,0,0,3.57812-.84473L416,160.94434l12.42188,6.21093A7.99934,7.99934,0,0,0,432,168h40Z"/><path d="M56,256H72A104.11832,104.11832,0,0,1,176.001,151.999H184v-16h-7.999A120.13665,120.13665,0,0,0,56,256Z"/><path d="M301.65723,130.34277A8.00235,8.00235,0,0,0,296,128H280a8.00235,8.00235,0,0,0-5.65723,2.34277L268.68652,136h-9.373l-5.65625-5.65723A8.00235,8.00235,0,0,0,248,128H232a8.00235,8.00235,0,0,0-5.65723,2.34277L220.68652,136H200v16h24a8.00235,8.00235,0,0,0,5.65723-2.34277L235.31348,144h9.373l5.65625,5.65723A8.00235,8.00235,0,0,0,256,152h16a8.00235,8.00235,0,0,0,5.65723-2.34277L283.31348,144h9.373l5.65625,5.65723A8.00235,8.00235,0,0,0,304,152h24V136H307.31348Z"/><rect x="104" y="240" width="32" height="16"/><rect x="56" y="272" width="16" height="40"/></svg>
