<?xml version="1.0"?>
<svg xmlns="http://www.w3.org/2000/svg" id="filled_outline" data-name="filled outline" viewBox="0 0 512 512" width="512" height="512"><path d="M432.9,177.89A231.7176,231.7176,0,0,0,296,99.44V88a48,48,0,0,0-48-48H176l34.69,23.13A29.89033,29.89033,0,0,1,224,88V98.19A232.04145,232.04145,0,0,0,24,328V472H43.16A53.904,53.904,0,0,0,88,448a53.90328,53.90328,0,0,0,44.84,24H152a77.68766,77.68766,0,0,0-42.93-69.47L72,384l5.02-14.06A147.58395,147.58395,0,0,1,216,272v6.82a62.00354,62.00354,0,0,1-27.61,51.59L168,344H278a42,42,0,0,0,42-42V272A146.44819,146.44819,0,0,1,420.07007,377.08L425.97,400.9A19.86791,19.86791,0,0,0,445.27,416,26.73346,26.73346,0,0,0,472,389.27V376a54.63482,54.63482,0,0,0,16-38.63V328A231.07486,231.07486,0,0,0,432.9,177.89Z" style="fill:#78889c"/><path d="M432,380v30.93a19.72894,19.72894,0,0,1-6.03-10.03l-5.8999-23.82A146.44819,146.44819,0,0,0,320,272v30a41.99485,41.99485,0,0,1-42,42H168l20.39-13.59A62.00354,62.00354,0,0,0,216,278.82V272A147.58395,147.58395,0,0,0,77.02,369.94L72,384v-4a180,180,0,0,1,360,0Z" style="fill:#f7efe9"/><path d="M224,344.00023a56,56,0,0,0,56-56h0A16.00022,16.00022,0,0,1,296.00022,272H320v30.0001a42,42,0,0,1-41.9999,42Z" style="fill:#f0dfd3"/><circle cx="456" cy="344" r="8"/><path d="M304,92.78058V88a56.06353,56.06353,0,0,0-56-56H176a7.99987,7.99987,0,0,0-4.43752,14.65625l34.687,23.125A21.85274,21.85274,0,0,1,216,88v3.32031A240.06785,240.06785,0,0,0,16,328V472a7.99977,7.99977,0,0,0,8,8H43.15576A61.75688,61.75688,0,0,0,88,460.77637,61.75688,61.75688,0,0,0,132.84424,480H152a7.99977,7.99977,0,0,0,8-8,85.19755,85.19755,0,0,0-47.355-76.62109L81.918,380.01514l2.63672-7.3833A139.90642,139.90642,0,0,1,207.98193,280.231a53.8862,53.8862,0,0,1-24.02783,43.51855l-20.39162,13.59424A7.99987,7.99987,0,0,0,168,352H278a50.05635,50.05635,0,0,0,50-50V283.20557a139.10347,139.10347,0,0,1,84.30518,95.792l5.89648,23.8208A27.83221,27.83221,0,0,0,445.26709,424,34.77206,34.77206,0,0,0,480,389.26758V379.186a62.16892,62.16892,0,0,0,16-41.813V328A240.17041,240.17041,0,0,0,304,92.78058ZM480,337.37305a46.32246,46.32246,0,0,1-13.65674,32.97021A7.99877,7.99877,0,0,0,464,376v13.26758A18.75373,18.75373,0,0,1,445.26709,408a11.86082,11.86082,0,0,1-11.53418-9.02686l-5.89648-23.82031A155.092,155.092,0,0,0,322.29883,264.3374,7.99991,7.99991,0,0,0,312,272v30a34.03864,34.03864,0,0,1-34,34H266.26416A63.85007,63.85007,0,0,0,288,288V256H272v32a48.05436,48.05436,0,0,1-48,48H194.37744A69.852,69.852,0,0,0,224,278.81885V272a7.99977,7.99977,0,0,0-8-8A155.908,155.908,0,0,0,69.4873,367.25049l-5.021,14.05859a7.99959,7.99959,0,0,0,3.95605,9.84619l37.06739,18.53418A69.22889,69.22889,0,0,1,143.54932,464H132.84424a45.80536,45.80536,0,0,1-38.188-20.437,7.99959,7.99959,0,0,0-13.3125,0A45.80536,45.80536,0,0,1,43.15576,464H32V328A224.04852,224.04852,0,0,1,225.09326,106.11426,7.99976,7.99976,0,0,0,232,98.18945V88a37.82,37.82,0,0,0-16.87549-31.53125L202.42188,48H248a40.04521,40.04521,0,0,1,40,40v2.11835A243.65939,243.65939,0,0,0,256,88v16A223.99942,223.99942,0,0,1,480,328Z"/></svg>
