<?xml version="1.0"?>
<svg xmlns="http://www.w3.org/2000/svg" id="filled_outline" data-name="filled outline" viewBox="0 0 512 512" width="512" height="512"><polygon points="324.308 272 352 200 352 184 280 184 280 272 324.308 272" style="fill:#5f6f82"/><polygon points="298.34 339.516 272 408 272 432 248 432 224 384 243.13 296 298.34 296 298.34 339.516" style="fill:#5f6f82"/><polygon points="104 328 72 408 88 432 40 432 24 408 24 198 104 198 104 328" style="fill:#5f6f82"/><path d="M239.27271,296l3.49592,12.81837a48,48,0,0,0,22.494,29.046L304,360v48l16,24h48l-16-32V336L302.22734,203.2729,280,80H141.99988A117.99989,117.99989,0,0,0,24,197.99988V198a93.52733,93.52733,0,0,0,31.39116,69.90321L96,304l32,104-8,24h72l-16-24V296Z" style="fill:#6e7e91"/><path d="M456,232V184A104,104,0,0,0,352,80H268.16633A44.16633,44.16633,0,0,0,224,124.16633v.00007a44.16634,44.16634,0,0,0,14.82382,33.01033l48.94073,43.50287A28.9813,28.9813,0,0,0,307.01867,208h0a28.88286,28.88286,0,0,0,19.98969-7.99724L327.00577,200H368l32,32Z" style="fill:#78889c"/><path d="M456,256v48a32,32,0,0,0,32,32h0v24H464a56,56,0,0,1-56-56V256Z" style="fill:#78889c"/><path d="M383.99984,168h0a15.99984,15.99984,0,0,1,15.99984,16.00013l-.00028,23.9993A24.00014,24.00014,0,0,0,423.99957,232h63.99929v0a42.24435,42.24435,0,0,1-40.98339,32H416a48,48,0,0,1-48-48V183.99984A15.99984,15.99984,0,0,1,383.99984,168Z" style="fill:#e9d5c6"/><path d="M488,328a24.02718,24.02718,0,0,1-24-24V269.05151a50.16421,50.16421,0,0,0,31.76025-35.11108A7.9996,7.9996,0,0,0,487.999,224H464V184A112.12706,112.12706,0,0,0,352,72H142A126.1428,126.1428,0,0,0,16,198V408a7.99836,7.99836,0,0,0,1.34375,4.4375l16,24A7.99943,7.99943,0,0,0,40,440H88a8.00016,8.00016,0,0,0,6.65625-12.4375l-13.66553-20.499,21.67658-54.19165,16.93231,55.03051-7.189,21.56739A8.00022,8.00022,0,0,0,120,440h72a8.00016,8.00016,0,0,0,6.65625-12.4375L184,405.57812V304h49.16229l.02338.08594-17.00305,78.21484a7.9983,7.9983,0,0,0,.66211,5.27734l24,48A7.99967,7.99967,0,0,0,248,440h24a8.00008,8.00008,0,0,0,8-8V409.48535l16-41.6001V408a7.99836,7.99836,0,0,0,1.34375,4.4375l16,24A7.99943,7.99943,0,0,0,320,440h48a8,8,0,0,0,7.15527-11.57812L360,398.11133V336a7.99392,7.99392,0,0,0-.50928-2.80859L334.7348,267.17578,357.49451,208H360v8a56.09145,56.09145,0,0,0,40,53.65869V304a64.07239,64.07239,0,0,0,64,64h24a8.00008,8.00008,0,0,0,8-8V336A8.00008,8.00008,0,0,0,488,328ZM352,88a96.10874,96.10874,0,0,1,96,96v40H423.99951a16,16,0,0,1-16-16.001V184A23.99976,23.99976,0,1,0,360,184v8H341.64209A36.79077,36.79077,0,0,0,344,179.01855V120a8.00008,8.00008,0,0,0-8-8H280v16h48v51.01855a20.98113,20.98113,0,0,1-34.92041,15.68165l-48.94092-43.50293A36.16629,36.16629,0,0,1,268.1665,88ZM64.57227,405.0293a7.99818,7.99818,0,0,0,.77148,7.4082L73.05176,424H44.28125L32,405.57812v-152.897a101.4008,101.4008,0,0,0,18.07617,21.20166l38.936,34.60938,6.163,20.02978Zm199.96093.09863A8.00385,8.00385,0,0,0,264,408v16H252.94434L232.4165,382.94434,244.037,329.48877a55.8485,55.8485,0,0,0,17.25647,15.32178L282.96838,357.196Zm80.31153-1.54981L355.05566,424H324.28125L312,405.57812V360a8.00057,8.00057,0,0,0-4.03076-6.94629L269.23193,330.918a39.738,39.738,0,0,1-18.74511-24.2041l-18.76856-68.81836a8,8,0,0,0-4.14062-5.05078l-32-16-7.15528,14.31054,28.80078,14.40039L228.79871,288H152v16h16V408a7.99836,7.99836,0,0,0,1.34375,4.4375L177.05176,424H131.09961l4.48975-13.46973a7.99773,7.99773,0,0,0,.05664-4.88281l-32-104a7.99759,7.99759,0,0,0-2.33106-3.627L60.70605,261.92383A85.59369,85.59369,0,0,1,32,198,110.12446,110.12446,0,0,1,142,88h88.62549a52.10191,52.10191,0,0,0,2.8833,75.15625l48.94092,43.50293a36.93819,36.93819,0,0,0,15.58856,8.22681L344,337.45117V400A7.99934,7.99934,0,0,0,344.84473,403.57812ZM326.27185,244.60767l-11.074-29.53052A36.85151,36.85151,0,0,0,329.94952,208h10.402ZM376,216V184a7.99976,7.99976,0,1,1,15.99951,0v23.999a32.00076,32.00076,0,0,0,32,32.001h52.00781a34.19414,34.19414,0,0,1-28.9917,16H416A40.04552,40.04552,0,0,1,376,216ZM480,352H464a48.05468,48.05468,0,0,1-48-48V272h31.01562c.32953,0,.65613-.0144.98438-.02075V304a40.07061,40.07061,0,0,0,32,39.19629Z"/><path d="M392,144h8v-8a8,8,0,0,0-8-8h-8v8A8,8,0,0,0,392,144Z"/></svg>
