<?xml version="1.0"?>
<svg xmlns="http://www.w3.org/2000/svg" id="filled_outline" data-name="filled outline" viewBox="0 0 512 512" width="512" height="512"><polygon points="304 240 304 280 288 312 288 464 320 488 248 488 256 464 256 312 240 288 240 240 304 240" style="fill:#ffc431"/><path d="M157.71428,264,144,288H247.43152A65.224,65.224,0,0,0,312,232.00006V232h45.74175A42.25825,42.25825,0,0,0,400,189.74175v0a45.38572,45.38572,0,0,0-7.62252-25.17548L338.9584,84.4376A17.61477,17.61477,0,0,1,336,74.66667h0A10.66665,10.66665,0,0,1,346.66666,64h0A10.66669,10.66669,0,0,1,355.2,68.26666L376,96h16l40-40a42.24617,42.24617,0,0,0-40.9848-32H348.36892A60.36892,60.36892,0,0,0,288,84.36892V84.369a60.369,60.369,0,0,0,11.5464,35.5073L352,192l-59.62351-34.78038A155.77339,155.77339,0,0,0,213.8868,136h-.00012A155.77335,155.77335,0,0,0,89.268,198.30935L40,264H157.71429" style="fill:#faa175"/><path d="M168,288l-45.92846,65.61208A55.7153,55.7153,0,0,0,112,385.56269v0a55.71534,55.71534,0,0,0,7.01136,27.05773L152,472v16h72l-48-24-32-80,64-96Z" style="fill:#ffc431"/><path d="M392,96s10.37332,0,20.55478-.01A19.429,19.429,0,0,1,432,115.42624v.27954a18.25688,18.25688,0,0,1-1.92925,8.16836L416,152s7.77689-2.222,17.53445-5.00936A53.09112,53.09112,0,0,0,472,95.804V94.79986a38.80014,38.80014,0,0,0-38.80912-38.80014L432,56Z" style="fill:#ffc431"/><path d="M392,64h8V56a8.00009,8.00009,0,0,0-8-8h-8v8A8.00009,8.00009,0,0,0,392,64Z"/><path d="M437.92676,48.23438A50.16875,50.16875,0,0,0,391.01562,16H348.36914a68.36785,68.36785,0,0,0-55.292,108.58105l30.04394,41.31055-26.71289-15.582a163.77471,163.77471,0,0,0-213.541,43.2002L33.59961,259.2002A8.00013,8.00013,0,0,0,40,272H143.92871l-6.875,12.03125A8.0003,8.0003,0,0,0,144,296h8.63477l-37.11719,53.02441a63.7129,63.7129,0,0,0-3.499,67.48047L144,474.07324V488a8.00039,8.00039,0,0,0,8,8h72a8,8,0,0,0,3.57812-15.15527l-45.28027-22.63965-29.30762-73.26856L212.28125,296h23.4375L248,314.42188V462.70215l-7.58984,22.76758A8.00022,8.00022,0,0,0,248,496h72a7.99991,7.99991,0,0,0,4.7998-14.40039L296,460V313.88867l15.15527-30.31055A7.99934,7.99934,0,0,0,312,280V257.28125A73.22338,73.22338,0,0,0,318.60059,240h39.1416A50.31538,50.31538,0,0,0,408,189.74121a53.21966,53.21966,0,0,0-8.96582-29.6123L345.61523,80A9.581,9.581,0,0,1,344,74.667a2.66666,2.66666,0,0,1,4.7998-1.60058l20.79981,27.73339A7.99952,7.99952,0,0,0,376,104h16s10.377,0,20.5625-.00977h.01172A11.42962,11.42962,0,0,1,424,115.42578v.28027a10.311,10.311,0,0,1-1.084,4.58887l-14.07032,28.126a7.99992,7.99992,0,0,0,9.35157,11.27148l17.53418-5.00976A61.41827,61.41827,0,0,0,480,95.80371V94.7998a46.81054,46.81054,0,0,0-42.07324-46.56542ZM137.34375,379.5625a7.99681,7.99681,0,0,0-.77148,7.4082l32,80a7.99953,7.99953,0,0,0,3.84961,4.18457L190.11133,480H160v-8a8.00029,8.00029,0,0,0-1.00684-3.88477l-32.98828-59.38085A47.71315,47.71315,0,0,1,128.625,358.2002L172.16528,296H193.052Zm143.501-71.14062A7.99934,7.99934,0,0,0,280,312V464a8.00229,8.00229,0,0,0,3.2002,6.40039L296,480H259.09961l4.49023-13.46973A8.01957,8.01957,0,0,0,264,464V312a8.00221,8.00221,0,0,0-1.34375-4.4375L254.69873,295.626a73.22721,73.22721,0,0,0,40.70947-17.53223c.20118-.17432.39283-.35742.5918-.53369v.55127ZM361.59961,63.46582A18.66683,18.66683,0,0,0,328,74.667a25.53294,25.53294,0,0,0,4.30176,14.208l53.41992,80.12891A37.26981,37.26981,0,0,1,392,189.74219,34.29683,34.29683,0,0,1,357.74219,224H312a8.00073,8.00073,0,0,0-7.91992,6.86816A57.50513,57.50513,0,0,1,247.43164,280H157.78516L169.126,260.1543A40.08618,40.08618,0,0,1,203.85547,240H224V224H203.85547a56.12084,56.12084,0,0,0-48.62207,28.2168L153.07129,256H56l39.668-52.89062a147.77368,147.77368,0,0,1,192.67773-38.9795l59.623,34.78028a7.99978,7.99978,0,0,0,10.501-11.61524l-52.45313-72.125A52.3679,52.3679,0,0,1,348.36914,32h42.64648a34.19238,34.19238,0,0,1,31.897,21.773L388.68555,88H380ZM464,95.80371a45.35073,45.35073,0,0,1-32.66406,43.49414l-.043.0127,5.93066-11.85547A26.375,26.375,0,0,0,440,115.70605v-.28027a27.42874,27.42874,0,0,0-27.4248-27.43555h-.02832q-.61194.00073-1.22388.00123l23.917-23.917A30.78647,30.78647,0,0,1,464,94.7998Z"/></svg>
