<?xml version="1.0"?>
<svg xmlns="http://www.w3.org/2000/svg" id="filled_outline" data-name="filled outline" viewBox="0 0 512 512" width="512" height="512"><polygon points="308.763 276.763 360 328 352 344 368 368 392 328 371.505 276.763 308.763 276.763" style="fill:#f78e00"/><path d="M448,176V144a73.71384,73.71384,0,0,0-38.03,29.05L408,176s-12.1,6.91-25.02,14.33a55.50322,55.50322,0,0,1-59.99-3.06l-.71-.51a100.68807,100.68807,0,0,0-59.16-18.77l-1.32.01A107.39,107.39,0,0,0,194.61,191.51C188.56006,196.35,184,200,184,200H153.26a80.24527,80.24527,0,0,0-48.76,16.5,79.11262,79.11262,0,0,0-8.01,7.01,28.97057,28.97057,0,0,1-40.98,0L24,192v6.4a100.34652,100.34652,0,0,0,29.41992,71.02,63.36886,63.36886,0,0,0,42.63013,18.53c.74.04,1.49.05,2.23.05a63.45862,63.45862,0,0,0,48.75-22.83l10.73-12.88A34.10691,34.10691,0,0,1,184,240a135.56744,135.56744,0,0,1-14.31006,60.62L160,320l40,48h24l-24-48,30.5-20.34a39.17438,39.17438,0,0,0,15.59143-20.61425L280,296l-16,32,16,40h24l-8-32,32-40a115.89053,115.89053,0,0,0,81.93994-33.94L424,248h40l24-16V216Z" style="fill:#ffa100"/><path d="M184,200v40a34.10691,34.10691,0,0,0-26.24,12.29l-10.73,12.88A63.45862,63.45862,0,0,1,98.28,288c-.74,0-1.49-.01-2.23-.05a63.36886,63.36886,0,0,1-42.63013-18.53A100.34652,100.34652,0,0,1,24,198.4V192l31.51,31.51a28.96286,28.96286,0,0,0,40.98,0,79.11262,79.11262,0,0,1,8.01-7.01A80.24527,80.24527,0,0,1,153.26,200Z" style="fill:#f78e00"/><path d="M104,248l16,16L96.05005,287.95a63.36886,63.36886,0,0,1-42.63013-18.53A100.34652,100.34652,0,0,1,24,198.4V192l31.51,31.51a28.96286,28.96286,0,0,0,40.98,0,79.11262,79.11262,0,0,1,8.01-7.01L120,232Z" style="fill:#ffe28f"/><path d="M456.00049,172.686,456,144a7.99949,7.99949,0,0,0-10.52979-7.58936A82.1184,82.1184,0,0,0,403.311,168.6123l-.91993,1.3794c-3.72949,2.13281-13.31054,7.61426-23.3916,13.40527a47.69674,47.69674,0,0,1-51.356-2.63379l-.71386-.51025a108.32483,108.32483,0,0,0-63.86084-20.26074l-1.271.00781a115.93421,115.93421,0,0,0-72.187,25.26611L181.19385,192h-27.939A87.70634,87.70634,0,0,0,90.8291,217.85742,20.83213,20.83213,0,0,1,76.001,224h-.00147a20.83525,20.83525,0,0,1-14.82812-6.14209L29.65674,186.34326A7.99981,7.99981,0,0,0,16,192v6.3999a107.721,107.721,0,0,0,31.75928,76.67285A71.44973,71.44973,0,0,0,153.17139,270.291l10.73291-12.87891a26.10015,26.10015,0,0,1,11.74658-8.05078A128.28685,128.28685,0,0,1,162.53369,297.044l-9.689,19.37841a8.00026,8.00026,0,0,0,1.00927,8.69922l40,48A8.00149,8.00149,0,0,0,200,376h24a7.99974,7.99974,0,0,0,7.15527-11.57764l-20.84179-41.68359,24.62695-16.418a47.26117,47.26117,0,0,0,15.10645-16.353l19.22021,9.60987-12.42236,24.84472a7.99985,7.99985,0,0,0-.27246,6.54883l15.999,40A7.99975,7.99975,0,0,0,279.999,376h24.00049a7.99993,7.99993,0,0,0,7.76123-9.93994l-7.03857-28.15625,23.94128-29.92688,21.60266,21.60266-5.42138,10.84277a7.99823,7.99823,0,0,0,.499,8.01514l16,24A7.99917,7.99917,0,0,0,367.99951,376c.06348,0,.12744-.001.19092-.00244a7.998,7.998,0,0,0,6.66943-3.88135l24-40a7.99909,7.99909,0,0,0,.56787-7.0874l-14.02685-35.06622a124.25643,124.25643,0,0,0,30.19726-22.24677L427.314,256H464a7.99983,7.99983,0,0,0,4.4375-1.34375l24-16A7.99943,7.99943,0,0,0,496,232l.00049-16a7.99881,7.99881,0,0,0-2.34326-5.65674ZM33.03955,212.35352l16.81836,16.81787A36.72774,36.72774,0,0,0,75.99854,240H76.001a36.731,36.731,0,0,0,26.1416-10.82861c.6217-.62171,1.26294-1.21631,1.90283-1.81244L108.68652,232,98.34326,242.34326a7.99915,7.99915,0,0,0,0,11.31348L108.68652,264l-15.744,15.744a55.02952,55.02952,0,0,1-33.86975-15.98474A91.747,91.747,0,0,1,33.03955,212.35352Zm350.05908,114.9331L367.644,353.044l-6.41259-9.61866,5.92382-11.84765a7.99917,7.99917,0,0,0-1.49853-9.23438l-19.64063-19.64068a122.939,122.939,0,0,0,24.7461-6.2555ZM480,227.71826,461.57764,240H424.00049a7.99877,7.99877,0,0,0-5.65674,2.34326l-14.05908,14.05908A107.17815,107.17815,0,0,1,328,288a7.99951,7.99951,0,0,0-6.24707,3.00244l-32,40a8.00021,8.00021,0,0,0-1.51416,6.9375L293.75342,360h-8.33789l-12.65332-31.63525,14.39306-28.78711a7.99968,7.99968,0,0,0-3.57763-10.73291L255.36279,274.7373A47.54948,47.54948,0,0,0,256,266.97119a44.09485,44.09485,0,0,0-7.42969-24.5376l-9.91406-14.87109-13.3125,8.875,9.91357,14.87109A28.14741,28.14741,0,0,1,240,266.97119a31.23173,31.23173,0,0,1-13.93457,26.03711L195.5625,313.34375a7.99937,7.99937,0,0,0-2.71777,10.23389L211.05566,360h-7.30859l-34.252-41.10205,7.34912-14.69873A144.27175,144.27175,0,0,0,191.99951,240a8.00008,8.00008,0,0,0-8-8,42.04523,42.04523,0,0,0-32.38672,15.16943l-10.73291,12.87842a55.361,55.361,0,0,1-21.32763,15.71344l6.10449-6.10455a7.99915,7.99915,0,0,0,0-11.31348L115.31348,248l10.34326-10.34326a7.99915,7.99915,0,0,0,0-11.31348l-8.62647-8.6264A71.84206,71.84206,0,0,1,153.25488,208h30.74561a8.00035,8.00035,0,0,0,4.99756-1.75293l10.60888-8.48779A99.90838,99.90838,0,0,1,261.84521,176l1.31934-.00781c.19043-.00147.38037-.002.5708-.002A92.15,92.15,0,0,1,317.62744,193.271l.71387.50976a63.73339,63.73339,0,0,0,68.62793,3.49024c12.00244-6.895,23.29492-13.3501,24.82568-14.2251a8.22245,8.22245,0,0,0,1.86231-1.38916,7.97837,7.97837,0,0,0,.99951-1.21924l1.96728-2.9502A66.05909,66.05909,0,0,1,440,156.16748L440.00049,176a7.99791,7.99791,0,0,0,2.34326,5.65674l37.65674,37.65674Z"/><path d="M432,200v8a8,8,0,0,0,8,8h8v-8a8,8,0,0,0-8-8Z"/></svg>
