<?xml version="1.0"?>
<svg xmlns="http://www.w3.org/2000/svg" id="filled_outline" data-name="filled outline" viewBox="0 0 512 512" width="512" height="512"><path d="M104,152H72a48,48,0,0,0-48,48v32a16,16,0,0,0,16,16h0a16,16,0,0,0,16-16v-8l48-40Z" style="fill:#a36522"/><polygon points="152 304 136 344 152 376 96 376 72 304 152 304" style="fill:#91591c"/><path d="M488,232v32l-24,24H416l-8-24H352v32H280l-24,40v24l8,16H232l-16-16V304H96v40l16,32H72L40,320l16-24V216a80.00365,80.00365,0,0,1,80-80H403.72A68.28427,68.28427,0,0,1,472,204.28V216Z" style="fill:#b1712c"/><path d="M96,304v0a32,32,0,0,1,32-32h88v32Z" style="fill:#a36522"/><polygon points="280 296 280 360 296 376 328 376 320 360 320 336 352 296 280 296" style="fill:#a36522"/><polygon points="352 264 352 240 424 240 408 264 352 264" style="fill:#a36522"/><path d="M480,212.68652v-8.40234A76.28382,76.28382,0,0,0,403.71582,128H136a87.50883,87.50883,0,0,0-50.5376,16H72a56.06322,56.06322,0,0,0-56,56v32a23.99123,23.99123,0,0,0,32,22.62378v38.95434L33.34375,315.5625a7.99848,7.99848,0,0,0-.28955,8.40625l32,56A7.99921,7.99921,0,0,0,72,384h80a8,8,0,0,0,7.15527-11.57812l-14.39306-28.78614L157.416,312H208v48a8.00076,8.00076,0,0,0,2.34326,5.65723l16,16A8.00035,8.00035,0,0,0,232,384h32a8,8,0,0,0,7.15527-11.57812L264,358.11133V338.21582l8-13.3335V360a8.00076,8.00076,0,0,0,2.34326,5.65723l16,16A8.00035,8.00035,0,0,0,296,384h32a8,8,0,0,0,7.15527-11.57812L328,358.11133V338.80664l30.24707-37.80859A8.0027,8.0027,0,0,0,360,296V272h42.23389l6.17675,18.53027A7.99967,7.99967,0,0,0,416,296h48a8.00035,8.00035,0,0,0,5.65674-2.34277l24-24A8.00076,8.00076,0,0,0,496,264V232a8.00076,8.00076,0,0,0-2.34326-5.65723ZM40,240a8.00917,8.00917,0,0,1-8-8V200a40.05541,40.05541,0,0,1,36.00391-39.7998A87.59282,87.59282,0,0,0,48,216v16A8.00917,8.00917,0,0,1,40,240Zm88.84473,107.57812L139.05566,368H116.94434L104,342.11133V312h36.184l-11.61169,29.0293A8,8,0,0,0,128.84473,347.57812ZM460.68652,280H421.76611l-4.93945-14.81836,13.82959-20.74414-13.3125-8.875L403.71875,256H360V224H344v69.19336L313.75293,331.002A8.0027,8.0027,0,0,0,312,336v24a7.99934,7.99934,0,0,0,.84473,3.57812L315.05566,368H299.31348L288,356.68652V304h24V288H280a8.00072,8.00072,0,0,0-6.85986,3.88379l-24,40A7.99883,7.99883,0,0,0,248,336v24a7.99934,7.99934,0,0,0,.84473,3.57812L251.05566,368H235.31348L224,356.68652V280H208v16H112l14.3999-19.2002-12.7998-9.5996-24,32A7.9984,7.9984,0,0,0,88,304v40a7.99934,7.99934,0,0,0,.84473,3.57812L99.05566,368H76.64258L49.39893,320.32422,62.65625,300.4375A8.00221,8.00221,0,0,0,64,296V216a72.08156,72.08156,0,0,1,72-72H403.71582A60.28472,60.28472,0,0,1,464,204.28418V216a8.00076,8.00076,0,0,0,2.34326,5.65723L480,235.31348v25.373l-3.99976,4-14.3435-14.34375-11.31348,11.31446L464.68628,276Z"/><path d="M432,192h-8v8a8.00009,8.00009,0,0,0,8,8h8v-8A8.00009,8.00009,0,0,0,432,192Z"/><path d="M391.6333,152a23.633,23.633,0,0,0-13.10937,43.29688l17.03857,11.35937,8.875-13.3125-17.03857-11.35937A7.63324,7.63324,0,0,1,391.6333,168a12.11732,12.11732,0,0,1,8.626,3.57324l10.084,10.084,11.31348-11.31446-10.084-10.084A28.01631,28.01631,0,0,0,391.6333,152Z"/></svg>
