<svg id="filled_outline" height="512" viewBox="0 0 512 512" width="512" xmlns="http://www.w3.org/2000/svg" data-name="filled outline"><path d="m128 304-64 48-8 72h-16l-16-40v-48l56-72v-28.07h48z" fill="#a36522"/><g fill="#b1712c"><path d="m304 296 64 80v24l16 24h16v-72l-24-72v-24l48-48v-75l-284.53265 35.56658a67.8878 67.8878 0 0 0 -59.46735 67.36356v.00009a59.93012 59.93012 0 0 0 21.5638 46.0396l26.4362 22.03017v88l16 32h16l24-128z"/><path d="m432 120-24-32-10.34315 10.34315a19.31369 19.31369 0 0 0 -5.65685 13.65685 19.31369 19.31369 0 0 0 5.65685 13.65684l10.34315 10.34316z"/><path d="m448 120 24-32 10.34315 10.34315a19.31369 19.31369 0 0 1 5.65685 13.65685 19.31369 19.31369 0 0 1 -5.65685 13.65684l-10.34315 10.34316z"/></g><path d="m464.87519 202.68721 18.31457-27.47184a28.641 28.641 0 0 0 4.81024-15.88716 28.641 28.641 0 0 0 -12.75382-23.83074l-35.24618-23.49747-35.24618 23.49745a28.641 28.641 0 0 0 -12.75382 23.83074 28.641 28.641 0 0 0 4.81024 15.88716l18.31457 27.47184a29.89625 29.89625 0 0 0 24.87519 13.31281 29.89625 29.89625 0 0 0 24.87519-13.31279z" fill="#c78640"/><path d="m184 296a40 40 0 0 1 40-40h80v40z" fill="#a36522"/><path d="m304 296-32 72v56h-16l-24-64 16-64z" fill="#91591c"/><path d="m432 152h-8a7.99989 7.99989 0 0 0 -8 8v8h8a7.99989 7.99989 0 0 0 8-8z"/><path d="m456 152h-8v8a7.99989 7.99989 0 0 0 8 8h8v-8a7.99989 7.99989 0 0 0 -8-8z"/><path d="m432 176h16v16h-16z"/><path d="m496 112a27.13424 27.13424 0 0 0 -8-19.31348l-10.34277-10.34326a8.00031 8.00031 0 0 0 -12.05762.85694l-18.126 24.16778-3.03613-2.02423a7.99771 7.99771 0 0 0 -8.875 0l-3.03613 2.02423-18.126-24.16778a8.00031 8.00031 0 0 0 -12.05762-.85694l-10.34273 10.34326a27.31288 27.31288 0 0 0 -1.92188 36.49121l-251.60253 31.45069a76.00654 76.00654 0 0 0 -66.47559 75.30176v25.32519l-54.31445 69.833a7.99756 7.99756 0 0 0 -1.68555 4.91163v48a8.00164 8.00164 0 0 0 .57227 2.97119l16 40a7.99975 7.99975 0 0 0 7.42773 5.02881h16a8.00017 8.00017 0 0 0 7.95117-7.1167l7.61817-68.56006 48.43066-36.32336v72.00012a7.99737 7.99737 0 0 0 .84473 3.57764l16 32a7.99869 7.99869 0 0 0 7.15527 4.42236h16a8.0006 8.0006 0 0 0 7.86328-6.52588l22.77637-121.47412h47.1145l-13.51489 54.05957a7.99459 7.99459 0 0 0 .27051 4.74951l24 64a7.999 7.999 0 0 0 7.49023 5.19092h16a8.00008 8.00008 0 0 0 8-8v-54.30225l25.96875-58.43017 54.03125 67.53857v21.19385a7.99983 7.99983 0 0 0 1.34375 4.4375l16 24a7.99943 7.99943 0 0 0 6.65625 3.5625h16a8.00008 8.00008 0 0 0 8-8v-72a8.0122 8.0122 0 0 0 -.41016-2.52979l-23.58984-70.76855v-19.38766l39.2334-39.23315a37.8736 37.8736 0 0 0 48.29785-12.9563l18.31445-27.47119a36.6174 36.6174 0 0 0 -4.27441-45.911l2.42871-2.42888a27.13424 27.13424 0 0 0 8-19.31348zm-23.13477-11.8208 3.82032 3.8208a11.31192 11.31192 0 0 1 0 16l-4.10547 4.10565-11.773-7.84863zm-69.55078 3.8208 3.82032-3.8208 12.0581 16.07782-11.773 7.84863-4.10542-4.10565a11.31192 11.31192 0 0 1 0-16zm-344.11425 241.6001a8.00151 8.00151 0 0 0 -3.15137 5.5166l-7.20899 64.8833h-3.42384l-13.416-33.54053v-43.71484l51.0708-65.66235a68.018 68.018 0 0 0 13.37158 15.03344l18.6648 15.55408zm205.48925 19.1509a8.00894 8.00894 0 0 0 -.68945 3.249v48h-2.456l-21.17872-56.47656 13.88057-55.52344h37.44409zm105.65332-114.40774a8.00035 8.00035 0 0 0 -2.34277 5.65674v24a8.0122 8.0122 0 0 0 .41016 2.52979l23.58984 70.76855v62.70166h-3.71875l-12.28125-18.42236v-21.57764a8.00033 8.00033 0 0 0 -1.75293-4.99756l-62.24707-77.80859v-37.19385h-16v32h-104v-32h-16v39.25635l-22.63965 120.74365h-4.416l-12.94435-25.88867v-86.11133a8.00036 8.00036 0 0 0 -2.87891-6.146l-26.43554-22.02978a51.79164 51.79164 0 0 1 -18.68555-39.89404 59.98183 59.98183 0 0 1 52.46-59.4253l246.15523-30.76928a36.63555 36.63555 0 0 0 3.53907 33.91723l18.31445 27.47168c.67773 1.017 1.4126 1.98157 2.1748 2.91785zm106.19043-79.56543-18.31445 27.47168a21.89607 21.89607 0 0 1 -36.4375 0l-18.31445-27.47217a20.64029 20.64029 0 0 1 5.72461-28.62353l30.80859-20.53906 30.80859 20.53906a20.64087 20.64087 0 0 1 5.72461 28.624z"/><path d="m128 208h16v16h-16z"/><path d="m144 272h16v16h-16z"/><path d="m160 192h16v16h-16z"/><path d="m184 224h16v16h-16z"/><path d="m120 240h16v16h-16z"/><path d="m200 176h16v16h-16z"/><path d="m224 216h16v16h-16z"/><path d="m248 184h16v16h-16z"/><path d="m296 168h16v16h-16z"/><path d="m280 208h16v16h-16z"/><path d="m320 200h16v16h-16z"/><path d="m336 168h16v16h-16z"/><path d="m352 208h16v16h-16z"/></svg>