<?xml version="1.0"?>
<svg xmlns="http://www.w3.org/2000/svg" id="filled_outline" data-name="filled outline" viewBox="0 0 512 512" width="512" height="512"><polygon points="472 220 472 288 424 328 456 360 456 392 440 392 416 368 368 344 368 216 472 220" style="fill:#ffb401"/><rect x="256" y="272" width="32" height="136" style="fill:#ffb401"/><path d="M424,192v88l-48,48,40,40v48H400l-8-24-53.58726-46.88886A30.49157,30.49157,0,0,1,328,322.16389v0a30.49154,30.49154,0,0,1,6.09832-18.29495L352,280H256V392l96,32v16H232l-16-24V280l-23.55423,17.66567A31.67166,31.67166,0,0,1,173.44278,304h0a31.67167,31.67167,0,0,1-29.40639-19.90909L136,264,78.91167,321.08833a50.91163,50.91163,0,0,0-14.91167,36v.00007A50.91164,50.91164,0,0,0,114.91164,408H172a20,20,0,0,1,20,20v0a20,20,0,0,1-20,20H112a88,88,0,0,1-88-88V264.15438C24,153.61217,113.61217,64,224.15438,64h.00031a200.15893,200.15893,0,0,1,170.46469,95.25647C397.96444,164.69222,400,168,400,168Z" style="fill:#ffc431"/><polygon points="456 256 488 184 464 144 416 144 392 184 424 256 456 256" style="fill:#ffcc4d"/><path d="M416,144l-16-24V90.21586A10.21586,10.21586,0,0,1,410.21586,80h0a10.21588,10.21588,0,0,1,8.76,4.95984L440,120v24Z" style="fill:#ffb401"/><path d="M464,144l16-24V90.21586A10.21586,10.21586,0,0,0,469.78414,80h0a10.21588,10.21588,0,0,0-8.76,4.95984L440,120v24Z" style="fill:#ffc431"/><path d="M256,280h96V256a24,24,0,0,0-24-24H288Z" style="fill:#ffb401"/><path d="M112,456h60a28,28,0,0,0,0-56H114.91162a42.91185,42.91185,0,0,1-30.34326-73.25488l48.50976-48.50977,3.53028,8.82715A39.48367,39.48367,0,0,0,173.44287,312a39.925,39.925,0,0,0,23.80322-7.93359L208,296V416a8.00221,8.00221,0,0,0,1.34375,4.4375l16,24A7.99943,7.99943,0,0,0,232,448H352a8.00008,8.00008,0,0,0,8-8V424a8.00071,8.00071,0,0,0-5.47021-7.58984L296,396.90088V288h39.99963l-8.30139,11.06836a38.49274,38.49274,0,0,0,5.44629,52.06348l51.95264,45.459,7.31347,21.93945A7.99967,7.99967,0,0,0,400,424h16a8.00008,8.00008,0,0,0,8-8V387.314l10.34326,10.34327A8.00035,8.00035,0,0,0,440,400h16a8.00008,8.00008,0,0,0,8-8V360a8.00076,8.00076,0,0,0-2.34326-5.65723l-25.80567-25.80566,41.27051-34.3916A7.99975,7.99975,0,0,0,480,288V221.69775L495.31055,187.249a7.99955,7.99955,0,0,0-.45069-7.36523L473.4646,144.2251l13.19165-19.7876A7.99836,7.99836,0,0,0,488,120V90.21582a18.216,18.216,0,0,0-33.83594-9.37207L440,104.45068,425.83594,80.84375A18.216,18.216,0,0,0,392,90.21582V120a7.99836,7.99836,0,0,0,1.34375,4.4375l13.19165,19.7876-5.82458,9.70752A208.08731,208.08731,0,0,0,224.1543,56C109.37744,56,16,149.37793,16,264.1543V360A96.10874,96.10874,0,0,0,112,456Zm168-64.43237-16-5.33325V288h16Zm184-107.3147-45.12158,37.60156a8.00027,8.00027,0,0,0-.53516,11.80274L448,363.31348V384h-4.686l-21.65722-21.65723L387.314,328l42.34278-42.34277A8.00076,8.00076,0,0,0,432,280V264h24a8.00079,8.00079,0,0,0,7.31055-4.751L464,257.69775ZM450.80078,248H429.19922L400.999,184.55078,420.5293,152h38.9414L479.001,184.55078Zm17.083-158.92383A2.21589,2.21589,0,0,1,472,90.21582v27.3623L459.71875,136H448V122.21582ZM408,90.21582a2.21589,2.21589,0,0,1,4.11621-1.13965L432,122.21582V136H420.28125L408,117.57812ZM32,264.1543C32,158.2002,118.2002,72,224.15479,72a192.16032,192.16032,0,0,1,163.65136,91.4502l3.64282,5.91894-6.30883,10.51465a7.99955,7.99955,0,0,0-.45069,7.36523L416,257.69775v18.98877l-45.65674,45.65625a8.00034,8.00034,0,0,0,0,11.31446L408,371.31348V408h-2.23389l-6.17675-18.53027a8.00138,8.00138,0,0,0-2.32129-3.49024l-53.58741-46.88867a22.49251,22.49251,0,0,1-3.18261-30.42187L358.3999,284.7998A7.9984,7.9984,0,0,0,360,280V232H344v40H270.948l10.301-15.45117A87.82967,87.82967,0,0,0,208.17041,120H200v16h8.17041a71.83018,71.83018,0,0,1,59.76611,111.67383L249.34375,275.5625A8.00221,8.00221,0,0,0,248,280V392a8.00071,8.00071,0,0,0,5.47021,7.58984L344,429.76562V432H236.28125L224,413.57812V280a8.00057,8.00057,0,0,0-12.80029-6.40039l-23.55371,17.666A23.823,23.823,0,0,1,173.44287,296a23.5595,23.5595,0,0,1-21.979-14.87988l-8.03614-20.09082a7.99963,7.99963,0,0,0-13.08447-2.68653L73.25488,315.43066A58.91222,58.91222,0,0,0,114.91162,416H172a12,12,0,0,1,0,24H112a80.09041,80.09041,0,0,1-80-80Z"/><path d="M432,184a8.00009,8.00009,0,0,0-8-8h-8v8a8.00009,8.00009,0,0,0,8,8h8Z"/><path d="M448,184v8h8a8.00009,8.00009,0,0,0,8-8v-8h-8A8.00009,8.00009,0,0,0,448,184Z"/><path d="M444,216h-8a3.99988,3.99988,0,0,0-4,4v4a8,8,0,0,0,16,0v-4A3.99988,3.99988,0,0,0,444,216Z"/></svg>
