<?xml version="1.0"?>
<svg xmlns="http://www.w3.org/2000/svg" id="filled_outline" data-name="filled outline" viewBox="0 0 512 512" width="512" height="512"><path d="M439.10986,386.67993A66.29175,66.29175,0,0,1,376.23,432H344L224,327.6499,160,272H80l-8-16,26.89014-40.34009L184,216l30.7-42.98A31.10015,31.10015,0,0,1,240,160H344l91.02,175.05005A66.38861,66.38861,0,0,1,439.10986,386.67993Z" style="fill:#657587"/><path d="M439.10986,386.67993A66.29175,66.29175,0,0,1,376.23,432H344l-48-41.74L224,327.6499V240a119.99709,119.99709,0,0,1,24-72l6-8h90l40,76.92993L427.18994,320,435.02,335.05005A66.38861,66.38861,0,0,1,439.10986,386.67993Z" style="fill:#6e7e91"/><polygon points="24 176 24 120 400 456 432 456 471 416 487 432 456 472 472 488 376 488 24 176" style="fill:#d69651"/><path d="M384,236.92993V240a80.00365,80.00365,0,0,1-80,80H232l-8,5.33008L208,336H176l-8-16,24-24V272h64a24.00619,24.00619,0,0,0,24-24V160h64Z" style="fill:#8394a8"/><path d="M336,80V72a24,24,0,0,1,24-24h0a24,24,0,0,1,24,24V80a32,32,0,0,1-32,32h0v24a56,56,0,0,1-55.99994,56h-.00012A56,56,0,0,1,240,136V112h0a32,32,0,0,1-32-32V72a24,24,0,0,1,24-24h0a24,24,0,0,1,24,24v8l10.68721-7.12481A52.84438,52.84438,0,0,1,296,64h0a52.84438,52.84438,0,0,1,29.31277,8.87519Z" style="fill:#8f9fb3"/><path d="M360,64h0a8,8,0,0,1,8,8v8a16,16,0,0,1-16,16h0a0,0,0,0,1,0,0V72a8,8,0,0,1,8-8Z" style="fill:#8394a8"/><path d="M224,64h0a16,16,0,0,1,16,16v8a8,8,0,0,1-8,8h0a8,8,0,0,1-8-8V64a0,0,0,0,1,0,0Z" transform="translate(464 160) rotate(180)" style="fill:#8394a8"/><path d="M435.02,335.05005,427.18994,320H342.3208A43.23772,43.23772,0,0,0,302.363,346.28516q-.06189.14721-.12305.29492A81.95113,81.95113,0,0,0,296,377.93994V384H258.42212A18.4223,18.4223,0,0,0,243.094,412.64111L256,432H376.23a66.31415,66.31415,0,0,0,58.79-96.94995Z" style="fill:#8394a8"/><path d="M492.65723,426.34277l-16-16A8.00405,8.00405,0,0,0,471,408h-.05078a8.00162,8.00162,0,0,0-5.67676,2.415L428.627,448H403.05371l-10.89014-9.73145a74.32747,74.32747,0,0,0,49.9585-106.9121L354.27173,162.41357A63.5959,63.5959,0,0,0,360,136V119.19629A40.07012,40.07012,0,0,0,392,80V72a32.00218,32.00218,0,0,0-63.33887-6.49023,60.84191,60.84191,0,0,0-65.32226,0A32.00218,32.00218,0,0,0,200,72v8a40.07012,40.07012,0,0,0,32,39.19629V136a63.85616,63.85616,0,0,0,2.15576,16.459,39.1684,39.1684,0,0,0-25.96533,15.91114L179.88281,208H134.48242L29.33105,114.03516A8.00028,8.00028,0,0,0,16,120v56a7.998,7.998,0,0,0,2.69336,5.98633l58.479,51.83349L65.34375,251.5625a7.999,7.999,0,0,0-.499,8.01562l8,16A8.00022,8.00022,0,0,0,80,280h49.273l35.73682,31.67578-2.667,2.667a8.00157,8.00157,0,0,0-1.498,9.23535l8,16A8.00022,8.00022,0,0,0,176,344h25.478l41.6372,36.90552a26.39736,26.39736,0,0,0-6.67773,36.1726l12.90625,19.35938A7.99943,7.99943,0,0,0,256,440h53.78564l60.90772,53.98633A7.99851,7.99851,0,0,0,376,496h96a8.00066,8.00066,0,0,0,5.65723-13.65723L466.6416,471.32812l26.68164-34.42773A8.00027,8.00027,0,0,0,492.65723,426.34277ZM216,80V72a16,16,0,0,1,32,0v8a7.99977,7.99977,0,0,0,12.4375,6.65625l10.6875-7.125a44.8455,44.8455,0,0,1,49.75,0l10.6875,7.125A7.99977,7.99977,0,0,0,344,80V72a16,16,0,0,1,32,0v8a24.0275,24.0275,0,0,1-24,24,8.00039,8.00039,0,0,0-8,8v24a48,48,0,0,1-96,0V112a8.00039,8.00039,0,0,0-8-8A24.0275,24.0275,0,0,1,216,80ZM184,224a7.99969,7.99969,0,0,0,6.50977-3.35059L221.21,177.66992a23.13778,23.13778,0,0,1,16.92261-9.58447A128.88129,128.88129,0,0,0,216,240v24H197.14941l-44.7622-40ZM84.94434,264l-3.71289-7.4248,8.02783-12.042L111.22168,264ZM32,172.40039V137.87793L184,273.707v18.97949l-7.656,7.65552ZM177.73438,321.58008l19.92285-19.92285A8.00235,8.00235,0,0,0,200,296V280h56a32.03667,32.03667,0,0,0,32-32V232H272v16a16.01833,16.01833,0,0,1-16,16H232V240A112.79537,112.79537,0,0,1,249.502,179.908a63.85777,63.85777,0,0,0,94.79859-1.99024L376,238.87817V240a72.08124,72.08124,0,0,1-72,72H232a8.00221,8.00221,0,0,0-4.4375,1.34375L205.57812,328H180.94434ZM261.70166,376,219.084,338.22534,234.42188,328h10.334l43.8977,39.22852q-.51268,4.34325-.6062,8.77148ZM292.648,349.34033,268.76758,328H303.1084A88.8886,88.8886,0,0,0,292.648,349.34033ZM254.94775,416H272V400H248.29565a10.43136,10.43136,0,0,1,10.12623-8H288v16h16V377.94043a73.45352,73.45352,0,0,1,21.65723-52.2832l.47827-.47827a88.33678,88.33678,0,0,0,62.67138-61.67212l39.11988,75.23046A58.32462,58.32462,0,0,1,376.23047,424H260.28125Zm194.729,51.09961a8.00027,8.00027,0,0,0,.666,10.55762L452.68652,480H379.03516l-45.12867-40h36.18238L394.669,461.96484A8.001,8.001,0,0,0,400,464h32a7.99817,7.99817,0,0,0,5.72754-2.415l33.34473-34.19922,5.28613,5.28614Z"/><path d="M272,136h8v-8a8.00009,8.00009,0,0,0-8-8h-8v8A8.00009,8.00009,0,0,0,272,136Z"/><path d="M328,128v-8h-8a8.00009,8.00009,0,0,0-8,8v8h8A8.00009,8.00009,0,0,0,328,128Z"/><path d="M296,160a8.00009,8.00009,0,0,0,8-8v-4a3.99988,3.99988,0,0,0-4-4h-8a3.99988,3.99988,0,0,0-4,4v4A8.00009,8.00009,0,0,0,296,160Z"/></svg>
