<?xml version="1.0"?>
<svg xmlns="http://www.w3.org/2000/svg" id="filled_outline" data-name="filled outline" viewBox="0 0 512 512" width="512" height="512"><path d="M192,152,88,152a64,64,0,0,0-64,64v32a16,16,0,0,0,16,16h0a16,16,0,0,0,16-16V216a32,32,0,0,1,32-32H192Z" style="fill:#ffb401"/><path d="M152,312H288l72,112h64v0a32,32,0,0,0-32-32h0l-48-80V152H184a80,80,0,0,0-80,80V400l24,24h56v0a32,32,0,0,0-32-32h0Z" style="fill:#ffc431"/><polygon points="152 312 208 264 288 264 288 312 152 312" style="fill:#ffb401"/><polygon points="104 328 56 368 40 408 24 408 24 344 104 240 104 328" style="fill:#ffb401"/><polygon points="456 288 488 328 488 368 456 392 448 368 456 352 424 320 456 288" style="fill:#ffb401"/><path d="M320,167.99992v49.83753A127.26493,127.26493,0,0,0,399.99992,336L400,336l.00008,0A127.26493,127.26493,0,0,0,480,217.83745V167.99992A79.99991,79.99991,0,0,0,400.00008,88h-.00016A79.99991,79.99991,0,0,0,320,167.99992Z" style="fill:#b1712c"/><path d="M448,152v62.11147A28.94425,28.94425,0,0,1,432,240h0v0a24,24,0,0,1-24,24H392a24,24,0,0,1-24-24v0h0a28.94425,28.94425,0,0,1-16-25.88852V152h16l18.34313,18.34315A19.31369,19.31369,0,0,0,400,176h0a19.31369,19.31369,0,0,0,13.65684-5.65685L432,152Z" style="fill:#ffc431"/><path d="M352,192l-18.38862-4.59715A17.96968,17.96968,0,0,1,320,169.9697v0A17.96967,17.96967,0,0,1,337.96969,152H352Z" style="fill:#ffb401"/><path d="M448,152h14.03033A17.96968,17.96968,0,0,1,480,169.96967v0a17.96967,17.96967,0,0,1-13.61139,17.43315L448,192Z" style="fill:#ffb401"/><path d="M384,208h8v-8a8,8,0,0,0-8-8h-8v8A8,8,0,0,0,384,208Z"/><path d="M424,200v-8h-8a8,8,0,0,0-8,8v8h8A8,8,0,0,0,424,200Z"/><path d="M392,232a8,8,0,0,0,16,0v-4a3.99992,3.99992,0,0,0-4-4h-8a3.99992,3.99992,0,0,0-4,4Z"/><path d="M494.24707,323.00244l-26.7959-33.49487A134.71722,134.71722,0,0,0,488,217.8374V168a88.00523,88.00523,0,0,0-172.67322-24H88a72.08187,72.08187,0,0,0-72,72v32a24,24,0,0,0,48,0V216a24.0275,24.0275,0,0,1,24-24h17.62769A87.46441,87.46441,0,0,0,96,232v5.27948L17.65918,339.12256A7.99714,7.99714,0,0,0,16,344v64a7.99977,7.99977,0,0,0,8,8H40a7.99975,7.99975,0,0,0,7.42773-5.02881L62.67627,372.8501,96,345.0802V400a7.99877,7.99877,0,0,0,2.34326,5.65674l24,24A7.99877,7.99877,0,0,0,128,432h56a7.99977,7.99977,0,0,0,8-8,40.06761,40.06761,0,0,0-32-39.19507V320H283.63232l69.63819,108.32617A8.00069,8.00069,0,0,0,360,432h64a7.99977,7.99977,0,0,0,8-8,40.05118,40.05118,0,0,0-35.29932-39.71448l-39.09961-65.16614a134.95464,134.95464,0,0,0,39.42774,24.30835,7.99925,7.99925,0,0,0,5.94238,0,135.75758,135.75758,0,0,0,21.95264-11.19043l21.34228,21.34229-5.42138,10.84277a7.99839,7.99839,0,0,0-.43409,6.10743l8,24a7.99957,7.99957,0,0,0,12.38916,3.87011l32-24A7.99927,7.99927,0,0,0,496,368V328A8.00033,8.00033,0,0,0,494.24707,323.00244ZM344,181.75366l-8.44824-2.11206A9.96962,9.96962,0,0,1,337.96973,160H344ZM360,160h4.686l16.00048,16a27.31316,27.31316,0,0,0,38.627,0L435.314,160H440v54.11133a20.831,20.831,0,0,1-11.57764,18.7334A7.99924,7.99924,0,0,0,424,240a16.01833,16.01833,0,0,1-16,16H392a16.01833,16.01833,0,0,1-16-16,7.99924,7.99924,0,0,0-4.42236-7.15527A20.831,20.831,0,0,1,360,214.11133Zm96,0h6.03027a9.96962,9.96962,0,0,1,2.418,19.6416L456,181.75366ZM400,96a72.11014,72.11014,0,0,1,68.11841,48.72778A25.92715,25.92715,0,0,0,462.03027,144H432a7.99877,7.99877,0,0,0-5.65674,2.34326L408,164.68652a11.31426,11.31426,0,0,1-16,0l-18.34326-18.34326A7.99877,7.99877,0,0,0,368,144H337.96973a25.92715,25.92715,0,0,0-6.08814.72778A72.11014,72.11014,0,0,1,400,96ZM88,176a40.04521,40.04521,0,0,0-40,40v32a8,8,0,0,1-16,0V216a56.06353,56.06353,0,0,1,56-56h45.4624a88.74,88.74,0,0,0-17.295,16ZM50.87842,361.85449a7.99351,7.99351,0,0,0-2.30615,3.17432L34.5835,400H32V346.72119l64-83.20056v60.73254ZM414.62891,416H364.36768L294.72949,307.67383A8.00069,8.00069,0,0,0,288,304H173.62634l39.5802-33.92578-10.41308-12.14844-56,48A8.00106,8.00106,0,0,0,144,312v72H128v16h24a24.04118,24.04118,0,0,1,22.62891,16H131.31348L112,396.68652V232a72.08124,72.08124,0,0,1,72-72H312.36743c-.23865,2.63586-.36743,5.303-.36743,8v49.8374a134.76966,134.76966,0,0,0,23.25635,75.8335c.24182.35718.49878.70117.74365,1.05566V312a8.00144,8.00144,0,0,0,1.14014,4.11621L377.87036,384H368v16h24A24.04118,24.04118,0,0,1,414.62891,416ZM400,327.3374a119.26569,119.26569,0,0,1-72-109.5v-23.903a26.11149,26.11149,0,0,0,3.6709,1.22967L344,198.24634v15.865a36.71238,36.71238,0,0,0,16.35889,30.68555A32.04908,32.04908,0,0,0,392,272h16a32.04908,32.04908,0,0,0,31.64111-27.20312A36.71238,36.71238,0,0,0,456,214.11133v-15.865l12.3291-3.08228A26.11149,26.11149,0,0,0,472,193.93439v23.903a119.26569,119.26569,0,0,1-72,109.5ZM480,364l-19.92041,14.94043-3.44238-10.32666,6.51806-13.03613a7.99917,7.99917,0,0,0-1.49853-9.23438L438.096,322.78247a134.70976,134.70976,0,0,0,19.68481-19.75024L480,330.80615Z"/></svg>
