<?xml version="1.0"?>
<svg xmlns="http://www.w3.org/2000/svg" id="filled_outline" data-name="filled outline" viewBox="0 0 512 512" width="512" height="512"><polygon points="398 248 416 272 408 288 488 288 480 272 448 264 432 232 432 160 400 160 398 248" style="fill:#a2ba18"/><path d="M476,128l-13.36656-26.73313A24,24,0,0,0,441.16718,88H399.598L400,128Z" style="fill:#acc221"/><path d="M216,224l144-88v-8.40206A39.59794,39.59794,0,0,1,399.59794,88h.00006a39.59793,39.59793,0,0,1,28,11.598L440,112l35.28428,11.76143A18.59641,18.59641,0,0,1,488,141.40354v0A18.59642,18.59642,0,0,1,469.40358,160H432v.00013A127.99987,127.99987,0,0,1,304.00013,288H114.81378A50.81377,50.81377,0,0,0,64,338.81378v.00009a50.81377,50.81377,0,0,0,44.87663,50.46573l79.99659,9.41137A12.59884,12.59884,0,0,1,200,411.20351v0A12.79646,12.79646,0,0,1,187.20354,424H104a80,80,0,0,1-80-80V323.9999A99.9999,99.9999,0,0,1,123.9999,224Z" style="fill:#b9cd2a"/><path d="M432,160A128.00321,128.00321,0,0,1,304,288H216V248h96.00009A87.99991,87.99991,0,0,0,400,160.00009V160Z" style="fill:#acc221"/><path d="M64,338.81006a50.94715,50.94715,0,0,0,1.62,12.79L25.92993,361.51A79.62878,79.62878,0,0,1,24,344V324c0-1.34009.03-2.66992.09009-4H67.6A50.66249,50.66249,0,0,0,64,338.81006Z" style="fill:#a2ba18"/><path d="M95.15991,385.68994,78.14,419.73a79.98368,79.98368,0,0,1-34.09-22.77L76.73,372.46A51.10649,51.10649,0,0,0,95.15991,385.68994Z" style="fill:#a2ba18"/><polygon points="160 395.29 160 424 120 424 120 390.59 160 395.29" style="fill:#a2ba18"/><polygon points="320 224 320 296 344 328 336 344 416 344 408 328 376 320 360 288 360 224 320 224" style="fill:#b9cd2a"/><path d="M192,248v32l-32,64h80l-8-16-24-8,0,0a63.63246,63.63246,0,0,0,40-59.08126V248Z" style="fill:#b9cd2a"/><path d="M478.86255,116.56836l.29272-.14648-9.3667-18.7334A31.82556,31.82556,0,0,0,441.167,80H399.59814A47.65208,47.65208,0,0,0,352,127.59766v3.916L213.749,216H124A108.12217,108.12217,0,0,0,16,324v20a88.09957,88.09957,0,0,0,88,88h83.20361A20.81989,20.81989,0,0,0,208,411.20312a20.60167,20.60167,0,0,0-18.19238-20.457L109.811,381.334A42.81362,42.81362,0,0,1,114.814,296h60.2417l-22.21093,44.42188A8,8,0,0,0,160,352h80a8,8,0,0,0,7.15527-11.57812l-8-16a8.00049,8.00049,0,0,0-4.62548-4.01172l-6.94776-2.31543A71.07341,71.07341,0,0,0,246.89282,296H304c2.66333,0,5.33508-.085,8-.23975V296a7.9984,7.9984,0,0,0,1.6001,4.7998l21.0332,28.04493-5.78857,11.57715A8,8,0,0,0,336,352h80a8,8,0,0,0,7.15527-11.57812l-8-16a7.99833,7.99833,0,0,0-5.21484-4.18262l-28.43066-7.1084L368,286.11133v-6.08887a136.17173,136.17173,0,0,0,28.65552-20.48193l9.97778,13.3042-5.78857,11.57715A8,8,0,0,0,408,296h80a8,8,0,0,0,7.15527-11.57812l-8-16a7.99833,7.99833,0,0,0-5.21484-4.18262l-28.43066-7.1084L440,230.11133V168h29.40381a26.58321,26.58321,0,0,0,9.45874-51.43164ZM455.478,104.84473l2.3291,4.6582-13.48535-4.49512L435.31445,96H441.167A15.91239,15.91239,0,0,1,455.478,104.84473ZM45.49036,385.88208a71.82855,71.82855,0,0,1-9.60779-18.60693l24.52978-6.13233a58.76972,58.76972,0,0,0,5.10425,9.71948Zm10.92077-40.23071-24.00049,6A72.4794,72.4794,0,0,1,32,344V328H57.01355a57.75255,57.75255,0,0,0-.60242,17.65137ZM128,416V399.58447l24,2.82373V416Zm64-4.79688A4.80188,4.80188,0,0,1,187.20361,416H168V404.29077l19.939,2.346A4.5991,4.5991,0,0,1,192,411.20312Zm-80-13.501V416h-8a72.05613,72.05613,0,0,1-14.33691-1.4375l9.52734-19.05469a59.02509,59.02509,0,0,0,8.75146,1.7168Zm-27.53662-8.51758L74.27905,409.55322a72.19807,72.19807,0,0,1-18.03637-11.7351l19.76684-14.825A58.84026,58.84026,0,0,0,84.46338,389.18457ZM440.84473,267.57812a7.99833,7.99833,0,0,0,5.21484,4.18262l28.43066,7.1084L475.05566,280H420.94434l2.21093-4.42188a7.99892,7.99892,0,0,0-.75537-8.37792l-14.54431-19.39234a136.74016,136.74016,0,0,0,10.8739-14.74927c1.88257-2.95068,3.62989-5.97192,5.27051-9.04223V232a7.99934,7.99934,0,0,0,.84473,3.57812ZM469.40381,152H400v16h23.72729A119.8869,119.8869,0,0,1,368,261.51929V240H352v48a7.99934,7.99934,0,0,0,.84473,3.57812l16,32a7.99833,7.99833,0,0,0,5.21484,4.18262l28.43066,7.1084L403.05566,336H348.94434l2.21093-4.42188a7.99892,7.99892,0,0,0-.75537-8.37792L328,293.333V256H312v23.73047c-2.6626.175-5.33569.26953-8,.26953H253.44678A72.26666,72.26666,0,0,0,256,260.919V256H240V260.919a55.36545,55.36545,0,0,1-34.97119,51.65332,8.0002,8.0002,0,0,0,.4414,15.01757l20.85645,6.95215.729,1.458H172.94434l26.21093-52.42188A7.99934,7.99934,0,0,0,200,280V256H184v22.11133L183.05566,280H114.814a58.86211,58.86211,0,0,0-52.31909,32H32.78247A92.13771,92.13771,0,0,1,124,232h92a7.99861,7.99861,0,0,0,4.17139-1.17383l144-88A7.99884,7.99884,0,0,0,368,136v-8.40234a31.59849,31.59849,0,0,1,53.94092-22.34375l12.40185,12.40332a8.01565,8.01565,0,0,0,3.12744,1.93261l35.28418,11.76172A10.596,10.596,0,0,1,469.40381,152Z"/><path d="M408,112h-8v8a8.00009,8.00009,0,0,0,8,8h8v-8A8.00009,8.00009,0,0,0,408,112Z"/></svg>
