<?xml version="1.0"?>
<svg xmlns="http://www.w3.org/2000/svg" id="filled_outline" data-name="filled outline" viewBox="0 0 512 512" width="512" height="512"><path d="M336,488H36.99314A12.99314,12.99314,0,0,1,24,475.00686v0a12.99313,12.99313,0,0,1,10.85708-12.81635L168,440H336Z" style="fill:#ffb401"/><path d="M473.45344,488A14.54656,14.54656,0,0,0,488,473.45344v0a14.54657,14.54657,0,0,0-8.63864-13.29282L416,432l0,0a81.94105,81.94105,0,0,0,24-57.94107V280H336V488Z" style="fill:#ffb401"/><path d="M360,237.7143,408,264v24l32,29.7143V260.9272a40,40,0,0,0-20.15444-34.72973L360,192Z" style="fill:#ffa100"/><path d="M424,474.52A13.4864,13.4864,0,0,1,410.52,488H312a63.995,63.995,0,0,1-64-64V349.25A109.25161,109.25161,0,0,1,280,272V120l-12.64014-16.85986a39.75434,39.75434,0,0,1-6.77-33.5A60.25708,60.25708,0,0,1,361.6499,41.6499L400,80V96l-24,16H360v48a80.022,80.022,0,0,1,32,64V396.95a54.10934,54.10934,0,0,1-21.64014,43.28L360,448l53.79,13.45A13.47623,13.47623,0,0,1,424,474.52Z" style="fill:#ffc431"/><path d="M392,224V392a44.79145,44.79145,0,0,0-19.96973-37.31006L344,336V176a16,16,0,0,1,16-16h0a80.022,80.022,0,0,1,32,64Z" style="fill:#ffd873"/><path d="M336,264l48,24v32l32,24V287.2129a40,40,0,0,0-20.15444-34.72973L336,218.2857Z" style="fill:#ffc431"/><path d="M304,71.63281A7.64115,7.64115,0,0,1,311.63281,64H320V48h-8.36719a23.63275,23.63275,0,0,0-13.1084,43.29688l17.03809,11.35937,8.875-13.3125L307.39941,77.98438A7.61814,7.61814,0,0,1,304,71.63281Z"/><path d="M344,80h8V72a7.99993,7.99993,0,0,0-8-8h-8v8A7.99993,7.99993,0,0,0,344,80Z"/><path d="M482.61035,452.84961,429.2002,429.1123A89.26341,89.26341,0,0,0,448,374.05859V261.40723a47.90372,47.90372,0,0,0-21.374-39.93848L397.11572,201.7959A88.53118,88.53118,0,0,0,368,156.12012V120h8a8.00221,8.00221,0,0,0,4.4375-1.34375l24-16A7.99943,7.99943,0,0,0,408,96V80a8.00235,8.00235,0,0,0-2.34277-5.65723L367.30469,35.99023a68.25147,68.25147,0,0,0-114.47461,31.708,47.56921,47.56921,0,0,0,8.126,40.24317L272,122.667V268.75293a116.4286,116.4286,0,0,0-32,80.502V424a72.38965,72.38965,0,0,0,.45508,8H168a8.02249,8.02249,0,0,0-1.31543.1084L33.543,454.29883A20.99333,20.99333,0,0,0,36.99316,496h436.46a22.54685,22.54685,0,0,0,9.15723-43.15039ZM417.751,234.78125A31.93768,31.93768,0,0,1,432,261.40723v39.27929l-8-8.00073v-5.4729a48.10025,48.10025,0,0,0-24-41.56128V224c0-.35449-.01074-.70825-.01514-1.0625ZM36.99316,480a4.99289,4.99289,0,0,1-.82031-9.918L168.66211,448h75.46631a72.271,72.271,0,0,0,22.68652,32ZM408,480H312a56.0629,56.0629,0,0,1-56-56V349.25488a100.58915,100.58915,0,0,1,29.65723-71.59765A8.00235,8.00235,0,0,0,288,272V120a8.0033,8.0033,0,0,0-1.59961-4.7998L273.75684,98.3418a31.63624,31.63624,0,0,1-5.40528-26.7627,52.25082,52.25082,0,0,1,87.63867-24.27441L392,83.31348v8.40527L373.57812,104H336v16h16v40a7.99952,7.99952,0,0,0,3.2002,6.40039A72.34353,72.34353,0,0,1,384,224v12.50024l-20.03125-11.44653-7.9375,13.89258,35.8457,20.4834A32.06722,32.06722,0,0,1,408,287.21289V328l-16-12V288a8.00022,8.00022,0,0,0-4.42188-7.15527l-48-24-7.15624,14.31054L376,292.94434V320a7.99952,7.99952,0,0,0,3.2002,6.40039L384,330.00024v25.33081a62.27151,62.27151,0,0,0-11.65137-10.04687L352,331.71875V296H336v40a7.99943,7.99943,0,0,0,3.5625,6.65625l23.91113,15.94043a46.09743,46.09743,0,0,1,2.08789,75.23242l-10.36132,7.77149a7.999,7.999,0,0,0,2.85937,14.16015l53.791,13.44824A5.4772,5.4772,0,0,1,410.52246,480Zm65.45312,0h-42.188a21.37422,21.37422,0,0,0-15.53369-26.3125l-37.63086-9.4082A62.42292,62.42292,0,0,0,400,396.95117V342.00024l11.2002,8.40015A8.00013,8.00013,0,0,0,424,344V315.31445l8,8v50.74414a73.45409,73.45409,0,0,1-21.65723,52.28418,8.00094,8.00094,0,0,0,2.40821,12.96778L476.1123,467.4707A6.54683,6.54683,0,0,1,473.45312,480Z"/></svg>
