<?xml version="1.0"?>
<svg xmlns="http://www.w3.org/2000/svg" id="filled_outline" data-name="filled outline" viewBox="0 0 512 512" width="512" height="512"><polygon points="376 288 384 392 368 408 344 408 344 392 352 376 320 264 320 208 376 208 376 288" style="fill:#d6bfae"/><polygon points="256 272 272 288 272 360 312 392 312 408 288 408 272 400 264 408 248 408 232 384 232 312 180.729 291.491 180.729 272 256 272" style="fill:#d6bfae"/><path d="M416,264l64,104v24l-32,24H424V400l16-24-64-88-16.6001-62.27A66.74318,66.74318,0,0,1,356.77,232a70.15754,70.15754,0,0,1-63.37012,40H210l-42,56L72,368l16,16,32,16v16H96l-16-8-8,8H64L30.10986,375.33A26.33,26.33,0,0,1,36.2,336.24L112,288V258.90991A103.989,103.989,0,0,1,192.83008,157.53L392,112l10.17993-6.77A55.15294,55.15294,0,0,1,432.72,96h.63013a54.05031,54.05031,0,0,1,39.47,17.11,52.79218,52.79218,0,0,1,6.91992,9.14l.34009.57007A33.357,33.357,0,0,1,483.14014,150.58L480,160l8,16-16,16H416Z" style="fill:#e9d5c6"/><path d="M356.77,232a70.15754,70.15754,0,0,1-63.37012,40H210l30-40Z" style="fill:#e3cdbc"/><path d="M488,176l-16,16H432V160H416l-8-24,24-16,16,8,24.82007-14.89a52.79218,52.79218,0,0,1,6.91992,9.14l.34009.57007A33.357,33.357,0,0,1,483.14014,150.58L480,160Z" style="fill:#ffd9c7"/><path d="M488.6377,159.38623l2.09277-6.27881a41.35233,41.35233,0,0,0-3.794-34.41943l-.33789-.56055A62.44171,62.44171,0,0,0,433.34863,88h-.624A62.96359,62.96359,0,0,0,397.751,98.56738l-8.96192,5.96L191.044,149.72656a112.42219,112.42219,0,0,0-62.62012,39.36719c-.77075.9668-1.5105,1.95544-2.24707,2.9458a45.376,45.376,0,0,0-39.3916,26.49854L73.26855,248.2749A54.23254,54.23254,0,0,1,24,280a8,8,0,0,0,0,16,70.2683,70.2683,0,0,0,63.835-41.104l13.5166-29.73633a29.278,29.278,0,0,1,13.35718-13.93628A112.33128,112.33128,0,0,0,104,258.91064V283.6084L31.90625,329.48633a34.34386,34.34386,0,0,0-7.94531,50.9624l33.89355,40.67285A7.99975,7.99975,0,0,0,64,424h8a8.00076,8.00076,0,0,0,5.65723-2.34326l3.92285-3.92285,10.8418,5.42138A7.99934,7.99934,0,0,0,96,424h24a8.00008,8.00008,0,0,0,8-8V400a7.99967,7.99967,0,0,0-4.42188-7.15527L92.73926,377.42529,86.10352,370.79l84.97363-35.40527a8.00168,8.00168,0,0,0,3.32324-2.585l20.32129-27.095L224,317.4165V384a7.99983,7.99983,0,0,0,1.34375,4.4375l16,24A7.99943,7.99943,0,0,0,248,416h16a8.00076,8.00076,0,0,0,5.65723-2.34326l3.92285-3.92285,10.8418,5.42138A7.99934,7.99934,0,0,0,288,416h24a8.00008,8.00008,0,0,0,8-8V392a8.00055,8.00055,0,0,0-3.002-6.24707L280,356.15479V288a8.00035,8.00035,0,0,0-2.34277-5.65674L275.314,280h18.08936a78.31627,78.31627,0,0,0,21.95166-3.13647l28.09814,98.342-6.60839,13.21679A7.99583,7.99583,0,0,0,336,392v16a8.00008,8.00008,0,0,0,8,8h24a8.00076,8.00076,0,0,0,5.65723-2.34326l16-16a8.00133,8.00133,0,0,0,2.31933-6.27051l-5.83374-75.83862,44.11011,60.65112L417.34375,395.5625A7.99983,7.99983,0,0,0,416,400v16a8.00008,8.00008,0,0,0,8,8h24a7.9984,7.9984,0,0,0,4.7998-1.6001l32-24A7.99927,7.99927,0,0,0,488,392V368a8.00463,8.00463,0,0,0-1.18652-4.19287L424,261.73584V200h48a8.00076,8.00076,0,0,0,5.65723-2.34326l16-16a7.99983,7.99983,0,0,0,1.498-9.23438ZM264,291.31348V360a8.00055,8.00055,0,0,0,3.002,6.24707L304,395.84521V400H289.88867l-14.31055-7.15527a8.00245,8.00245,0,0,0-9.23535,1.49853L260.68652,400h-8.40527L240,381.57764V312a7.99873,7.99873,0,0,0-5.0293-7.42773l-30.30737-12.123L214.00024,280H252.686ZM364.68652,400H352v-6.11133l7.15527-14.311a7.99811,7.99811,0,0,0,.53711-5.77539l-29.43481-103.022a78.08552,78.08552,0,0,0,26.6477-23.33789l11.17456,41.90393,7.66138,99.59851Zm104-216H416a8.00008,8.00008,0,0,0-8,8v72a8.00463,8.00463,0,0,0,1.18652,4.19287L472,370.26416V388l-26.667,20H432v-5.57764l14.65625-21.98486a8.00023,8.00023,0,0,0-.18652-9.14307L383.3457,284.499,351.72949,165.93848l-15.459,4.123,14.72265,55.21A62.10417,62.10417,0,0,1,293.40332,264H226.00024l20.40015-27.2002-12.80078-9.5996-70.69043,94.25439L68.92285,360.61523a8.00072,8.00072,0,0,0-2.58008,13.04151l16,16a8.011,8.011,0,0,0,2.07911,1.49853L112,404.94434V408H97.88867l-14.31055-7.15527a8.0022,8.0022,0,0,0-9.23535,1.49853L68.68652,408h-.93945L36.252,370.20557a18.344,18.344,0,0,1,4.24414-27.22022l75.79883-48.23584A8.00055,8.00055,0,0,0,120,288V258.91064a95.99958,95.99958,0,0,1,74.6084-93.58642l199.17383-45.52539a7.99874,7.99874,0,0,0,2.64843-1.1377l10.18067-6.771A47.01645,47.01645,0,0,1,432.72461,104h.624a46.36357,46.36357,0,0,1,39.541,22.37744l.33789.56055a25.36232,25.36232,0,0,1,2.32324,21.10986l-3.14062,9.42236a7.99843,7.99843,0,0,0,.43457,6.10743l5.42089,10.84277Z"/><path d="M435.57812,112.84473a7.99858,7.99858,0,0,0-8.01562.499l-24,16a7.99989,7.99989,0,0,0-3.15234,9.186l8,24A8.00071,8.00071,0,0,0,416,168h16V152H421.76562l-4.24414-12.73291,15.05372-10.03564,11.84668,5.92382,7.15624-14.31054Z"/><path d="M456,144h-8v8a8.00009,8.00009,0,0,0,8,8h8v-8A8.00009,8.00009,0,0,0,456,144Z"/></svg>
