<?xml version="1.0"?>
<svg xmlns="http://www.w3.org/2000/svg" id="filled_outline" data-name="filled outline" viewBox="0 0 512 512" width="512" height="512"><path d="M424,216v24A120.00531,120.00531,0,0,1,304,360H232V328H168a72.90017,72.90017,0,0,1,3.86-16c.11-.32007.23-.62988.35-.95A72.92361,72.92361,0,0,1,180.06,296H144a55.99742,55.99742,0,0,1-56-56V224h16a80.02012,80.02012,0,0,1,64,32l30.63-26.8a118.02142,118.02142,0,0,1,154.52-.79L376,248h8V216Z" style="fill:#6e7e91"/><path d="M424,188.99V216H384V191.99a7.989,7.989,0,0,0-7.99-7.99,63.99951,63.99951,0,0,1-64-63.99C312,94.2,312,68.24,312,58.6001a34.613,34.613,0,0,1,65.57-15.47022L384.01,56l-32,32v29a27.00665,27.00665,0,0,0,27,27A44.98662,44.98662,0,0,1,424,188.99Z" style="fill:#ffceb6"/><polygon points="408.01 72 400 88 352.01 88 384.01 56 408.01 72" style="fill:#ffa100"/><path d="M200,328,144,456l24,32h32l-8-16-16-16,32-72,.65314-.10886A56.662,56.662,0,0,0,256,328.00005v0Z" style="fill:#ffceb6"/><polygon points="248 360 288 392 368 400 384 416 416 424 400 376 304 360 248 360" style="fill:#ffceb6"/><path d="M352,56a8,8,0,0,0-8-8h-8v8a8,8,0,0,0,8,8h8Z"/><path d="M358.35352,222.33789a126.01606,126.01606,0,0,0-164.99317.8418l-24.45849,21.40136A88.493,88.493,0,0,0,104,216H88a8.00008,8.00008,0,0,0-8,8v16a64.07239,64.07239,0,0,0,64,64h22.51123a80.64765,80.64765,0,0,0-6.44922,23.00781A8.00005,8.00005,0,0,0,168,336h19.76825L136.6709,452.794a7.99816,7.99816,0,0,0,.9292,8.00585l24,32A7.99927,7.99927,0,0,0,168,496h32a8,8,0,0,0,7.15527-11.57812l-8-16a8.011,8.011,0,0,0-1.49853-2.07911L185.542,454.22852l28.07031-63.15821a64.45075,64.45075,0,0,0,34.6073-20.64941l34.78284,27.82617A7.99441,7.99441,0,0,0,287.2041,399.96l77.1582,7.71582,13.981,13.98145a8.00451,8.00451,0,0,0,3.71631,2.10351l32,8a7.99983,7.99983,0,0,0,9.52979-10.291l-16-48a8.001,8.001,0,0,0-6.27393-5.36133l-51.51715-8.58618A128.20791,128.20791,0,0,0,432,240V188.99414A53.05432,53.05432,0,0,0,379.00586,136a19.02162,19.02162,0,0,1-19-19V96H400a7.99984,7.99984,0,0,0,7.1543-4.41992l8.00586-16a7.9999,7.9999,0,0,0-2.7168-10.23633L390.21094,50.52246l-5.48438-10.96973a42.61326,42.61326,0,0,0-80.72607,19.04786c-.00244,8.84082.00976,61.416.00976,61.416a72.06429,72.06429,0,0,0,71.97168,71.97363H376v45.47364ZM207.34375,375.999l-.65332.1084a8.00151,8.00151,0,0,0-6.001,4.64356l-32,72a8.00067,8.00067,0,0,0,1.65381,8.90625l15.082,15.082L187.05566,480H172l-18.80078-25.06738L205.23175,336h42.10712A48.47864,48.47864,0,0,1,207.34375,375.999Zm196.4585,36.70508-15.71241-3.92773-14.4331-14.4336A7.998,7.998,0,0,0,368.7959,392.04l-77.646-7.76465L270.806,368H303.335l90.59863,15.09961ZM397.69043,74.73828,395.05713,80H371.31982l13.70557-13.70557ZM320.01025,120.0127s-.0122-52.56836-.00976-61.40723A26.61319,26.61319,0,0,1,370.416,46.709l3.85565,7.71119-27.92255,27.9226.00018.00025A7.97477,7.97477,0,0,0,344.00586,88v29a35.03994,35.03994,0,0,0,35,35A37.03629,37.03629,0,0,1,416,188.99414V208H392V191.99023A16.0078,16.0078,0,0,0,376.01025,176,56.06492,56.06492,0,0,1,320.01025,120.0127ZM384,256a8.00008,8.00008,0,0,0,8-8V224h24v16A112.12706,112.12706,0,0,1,304,352H259.424a64.54969,64.54969,0,0,0,4.08112-16H264a72.08156,72.08156,0,0,0,72-72H320a56.06322,56.06322,0,0,1-56,56H177.71094a65.19419,65.19419,0,0,1,62.78711-48H248V256h-7.50195a81.09486,81.09486,0,0,0-64.46631,32H144a48.054,48.054,0,0,1-48-48v-8h8a72.34587,72.34587,0,0,1,57.6001,28.7998,7.99862,7.99862,0,0,0,11.668,1.22071l30.62841-26.79981a110.01588,110.01588,0,0,1,144.04444-.73437l22.853,19.58789A8.002,8.002,0,0,0,376,256Z"/></svg>
