<?xml version="1.0"?>
<svg xmlns="http://www.w3.org/2000/svg" id="filled_outline" data-name="filled outline" viewBox="0 0 512 512" width="512" height="512"><path d="M440,360v2.33441a60.94423,60.94423,0,0,0,33.68913,54.51016l.00005,0A25.88851,25.88851,0,0,1,488,440v0H432a48,48,0,0,1-48-48V360Z" style="fill:#78889c"/><path d="M488,256A144.01851,144.01851,0,0,1,360,399.10986l-.54.06006A48.00337,48.00337,0,0,1,312,440H256a25.89673,25.89673,0,0,1,14.31006-23.16016L304,400H96l26.28,15.77A28.27467,28.27467,0,0,1,136,440H85.59A61.59245,61.59245,0,0,1,24,378.41016,130.39466,130.39466,0,0,1,154.41,248H320V160l-67.6-40.56006A25.53963,25.53963,0,0,1,265.54,72H304A183.99223,183.99223,0,0,1,488,256Z" style="fill:#8f9fb3"/><path d="M96,400v0a40,40,0,0,1,40-40H264a40,40,0,0,1,40,40v0Z" style="fill:#8394a8"/><path d="M488,256A144.01851,144.01851,0,0,1,360,399.10986V368a40.00182,40.00182,0,0,0-40-40h.0001A95.9999,95.9999,0,0,0,416,232.0001V110.01A183.989,183.989,0,0,1,488,256Z" style="fill:#8394a8"/><path d="M496,256c0-105.86914-86.13086-192-192-192H265.53955a33.516,33.516,0,0,0-25.54608,55.23975l-7.8382,39.19091a8.00016,8.00016,0,1,0,15.68946,3.13868l6.34509-31.72559,2.29578,1.37744,7.66967,38.34815a8.00016,8.00016,0,0,0,15.68946-3.13868l-4.8169-24.08422L312,164.5293V240H154.40576A138.4072,138.4072,0,0,0,16,378.40625,69.67281,69.67281,0,0,0,85.59424,448H136a8.00008,8.00008,0,0,0,8-8,36.44219,36.44219,0,0,0-17.60352-31.0918L124.88275,408h145.2298l-3.37866,1.68945A33.70046,33.70046,0,0,0,248,440a8.00008,8.00008,0,0,0,8,8h56a56.09413,56.09413,0,0,0,54.11633-41.60791q5.71015-.82983,11.26673-2.06885A56.08559,56.08559,0,0,0,432,448h56a8.00008,8.00008,0,0,0,8-8,33.70088,33.70088,0,0,0-18.7334-30.31055,52.61538,52.61538,0,0,1-29.074-42.88086A151.77647,151.77647,0,0,0,496,256ZM352,368v24a40.04552,40.04552,0,0,1-40,40H265.87012a17.81857,17.81857,0,0,1,8.01855-8l33.689-16.84473A7.99979,7.99979,0,0,0,312,400V376H296v16H104V360H88v40a8.00167,8.00167,0,0,0,3.88379,6.86035l26.28076,15.76856A20.31226,20.31226,0,0,1,126.33887,432H85.59424A53.65478,53.65478,0,0,1,32,378.40625,122.4071,122.4071,0,0,1,154.40576,256H312v24h16V160a8.00153,8.00153,0,0,0-3.88379-6.86035L256.51514,112.5791A17.53938,17.53938,0,0,1,265.53955,80H304c97.04688,0,176,78.95312,176,176A135.75788,135.75788,0,0,1,368,389.88867V368a48.054,48.054,0,0,0-48-48v16A32.03635,32.03635,0,0,1,352,368Zm118.11182,56a17.827,17.827,0,0,1,8.01806,8H432a40.06851,40.06851,0,0,1-39.19067-31.9751,150.99608,150.99608,0,0,0,41.127-21.35791A68.51659,68.51659,0,0,0,470.11182,424Z"/><path d="M288,88h-8v8a8.00009,8.00009,0,0,0,8,8h8V96A8.00009,8.00009,0,0,0,288,88Z"/><path d="M333.26709,116.42285l3.57764,7.15527,14.31054-7.15624-3.57763-7.15528A23.86959,23.86959,0,0,0,326.11133,96H312v16h14.11133A7.95642,7.95642,0,0,1,333.26709,116.42285Z"/></svg>
