<?xml version="1.0"?>
<svg xmlns="http://www.w3.org/2000/svg" id="filled_outline" data-name="filled outline" viewBox="0 0 512 512" width="512" height="512"><path d="M128,304,72,352l8,32H56L33.05547,361.05547A30.91731,30.91731,0,0,1,24,339.19363v0a30.91733,30.91733,0,0,1,7.166-19.79278L64,280V207.196L128,208Z" style="fill:#5f6f82"/><path d="M192,296,64.32252,200a79.20432,79.20432,0,0,1,78.87336-72H312V296Z" style="fill:#f7efe9"/><path d="M360,320l-32,32,8,32H312l-21.19017-21.19017A36.907,36.907,0,0,1,280,336.7126v0a36.907,36.907,0,0,1,3.89638-16.50533L296,296h72Z" style="fill:#5f6f82"/><path d="M472,376v8H400l-23.27-32L336,296H264a106.59437,106.59437,0,0,0,40-83.22V128h18.18a71.98924,71.98924,0,0,1,50.91,21.09L392,168l20.8,88L448,352a24.002,24.002,0,0,1,24,24Z" style="fill:#6e7e91"/><path d="M412.2385,164.23856l-23.26794-23.268a16.97057,16.97057,0,0,0-12-4.97055h0A16.97054,16.97054,0,0,0,360,152.9706v0a16.97051,16.97051,0,0,0,4.97056,12l20.12126,20.12127Z" style="fill:#78889c"/><path d="M435.7615,164.23856l23.26794-23.268a16.97057,16.97057,0,0,1,12-4.97055h0A16.97054,16.97054,0,0,1,488,152.9706v0a16.97051,16.97051,0,0,1-4.97056,12l-20.12126,20.12127Z" style="fill:#78889c"/><rect x="368" y="152.00006" width="112" height="112" rx="55.99994" style="fill:#f7efe9"/><path d="M224,376v8H152l-11.64-32L120,296,87.2,263.2a79.1876,79.1876,0,0,1-23.2-56q0-3.6449.32-7.2H112a80.00361,80.00361,0,0,1,80,80v16l8,56a24.002,24.002,0,0,1,24,24Z" style="fill:#6e7e91"/><path d="M224,376v8H152l-11.64-32H200a24.002,24.002,0,0,1,24,24Z" style="fill:#8394a8"/><path d="M472,376v8H400l-23.27-32H448a24.002,24.002,0,0,1,24,24Z" style="fill:#8394a8"/><path d="M413.65674,194.34326a8,8,0,0,0-11.31348,0l-8,8a7.99984,7.99984,0,1,0,11.31348,11.31348l8-8A7.99915,7.99915,0,0,0,413.65674,194.34326Z"/><path d="M445.65674,194.34326a7.99984,7.99984,0,0,0-11.31348,11.31348l8,8a7.99984,7.99984,0,0,0,11.31348-11.31348Z"/><path d="M428,216h-8a4,4,0,0,0-4,4v4a8,8,0,0,0,16,0v-4A4,4,0,0,0,428,216Z"/><path d="M496,152.9707A24.9704,24.9704,0,0,0,453.37256,135.314l-11.3009,11.30091a63.75507,63.75507,0,0,0-36.14332,0L394.62744,135.314a24.94328,24.94328,0,0,0-30.75427-3.59179A79.45215,79.45215,0,0,0,322.17676,120H143.1958A87.29436,87.29436,0,0,0,56,207.1958v69.90772L25.02051,314.2793a38.91663,38.91663,0,0,0,2.37842,52.4331l22.94433,22.94434A7.99877,7.99877,0,0,0,56,392H80a8.0001,8.0001,0,0,0,7.76123-9.94043l-6.80078-27.20312,39.58984-33.93409,23.93116,65.81153A8.00021,8.00021,0,0,0,152,392h72a7.99977,7.99977,0,0,0,8-8v-8a32.05422,32.05422,0,0,0-24.94971-31.21729L201.22412,304h81.83179l-6.3147,12.62939A45.13672,45.13672,0,0,0,272,336.7124a44.61388,44.61388,0,0,0,13.15332,31.7544l21.18994,21.18994A7.99877,7.99877,0,0,0,312,392h24a8.0001,8.0001,0,0,0,7.76123-9.94043l-6.90137-27.60547,18.38739-18.38769,38.283,52.63916A7.99971,7.99971,0,0,0,400,392h72a7.99977,7.99977,0,0,0,8-8v-8a32.05474,32.05474,0,0,0-26.20557-31.47461l-26.40582-72.61645A63.95279,63.95279,0,0,0,480.783,178.53052l7.90308-7.90308A24.80706,24.80706,0,0,0,496,152.9707ZM376.9707,144a8.9123,8.9123,0,0,1,6.34326,2.62744l6.99274,6.99268a64.47062,64.47062,0,0,0-13.81964,11.55346l-5.85962-5.85962A8.97072,8.97072,0,0,1,376.9707,144ZM66.79346,345.92578a8.00132,8.00132,0,0,0-2.55469,8.01465L69.75391,376H59.31348L38.7124,355.39893A22.917,22.917,0,0,1,37.312,324.52246l32.834-39.40088A8.00237,8.00237,0,0,0,72,280V257.53052a88.19941,88.19941,0,0,0,9.53906,11.322l31.54932,31.54932,1.61969,4.45422ZM216,376H157.60352l-30.085-82.73389a8.00535,8.00535,0,0,0-1.86181-2.92285l-32.8042-32.8042A70.709,70.709,0,0,1,72.01959,208H112a72.08124,72.08124,0,0,1,72,72v16h.01a7.972,7.972,0,0,0,.07056,1.13135L190.77606,344H176v16h24A16.01833,16.01833,0,0,1,216,376Zm-16-88v-8a88.09957,88.09957,0,0,0-88-88H73.64929a71.3079,71.3079,0,0,1,69.54651-56H296v76.7749A98.069,98.069,0,0,1,261.13177,288Zm122.34326,58.34326a7.99893,7.99893,0,0,0-2.10449,7.59717L325.75391,376H315.31348L296.4668,357.15332A28.7183,28.7183,0,0,1,288,336.7124a29.054,29.054,0,0,1,3.05176-12.92773L300.94409,304h30.98218L345.72,322.96655ZM464,376H404.07373l-61.604-84.70557A7.99971,7.99971,0,0,0,336,288H283.86847A113.93723,113.93723,0,0,0,312,212.7749V136h10.17676a63.55919,63.55919,0,0,1,31.40429,8.23328,24.95868,24.95868,0,0,0,5.73291,26.39416l7.90308,7.90308a63.9355,63.9355,0,0,0,42.59589,91.865L436.57819,344H416v16h32A16.01833,16.01833,0,0,1,464,376ZM424,256a48,48,0,1,1,48-48A48.05436,48.05436,0,0,1,424,256Zm33.6933-102.37988,6.99274-6.99268A8.97072,8.97072,0,0,1,477.37256,159.314l-5.85962,5.85962A64.47062,64.47062,0,0,0,457.6933,153.62012Z"/></svg>
