<?xml version="1.0"?>
<svg xmlns="http://www.w3.org/2000/svg" id="filled_outline" data-name="filled outline" viewBox="0 0 512 512" width="512" height="512"><polygon points="160 408 376 408 400 424 400 488 448 488 448 408 488 312 488 272 448 272 448 312 416 392 392 376 160 376 160 408" style="fill:#b1712c"/><polygon points="236.213 360.284 272 408 328 408 352 384 352 368 328 368 312 384 296 384 280 360 236.213 360.284" style="fill:#8f9fb3"/><polygon points="272 408 232 408 196 360 236.213 360.284 272 408" style="fill:#78889c"/><path d="M184,376h36A180,180,0,0,0,400,196V83.99994A59.99994,59.99994,0,0,0,340.00006,24h-.00012A59.99994,59.99994,0,0,0,280,83.99994V192Z" style="fill:#ef5e3b"/><path d="M304,160v33.12012A240.06132,240.06132,0,0,1,188.79,398.12988L120,440V296A159.85618,159.85618,0,0,1,280,136,24.00619,24.00619,0,0,1,304,160Z" style="fill:#b9cd2a"/><path d="M376,72,359.735,61.15667A30.70362,30.70362,0,0,0,342.70368,56h0A30.70364,30.70364,0,0,0,312,86.70364V104l32,32h48Z" style="fill:#f0dfd3"/><path d="M376,72l-16,40,40,48,2.68721-4.03081A79.26656,79.26656,0,0,0,416,112V112a40,40,0,0,0-40-40Z" style="fill:#e3cdbc"/><path d="M120,336,24,488H53.771a56,56,0,0,0,43.02039-20.14967L120,440Z" style="fill:#ef5e3b"/><path d="M256,137.79V337.10986a239.51068,239.51068,0,0,1-67.21,61.02L120,440V336l5.72-2.29A118.15714,118.15714,0,0,0,200,224V157.40991A158.85138,158.85138,0,0,1,256,137.79Z" style="fill:#a2ba18"/><path d="M304,160v33.12012A240.01291,240.01291,0,0,1,188.79,398.12988L120,440V392l2.85-1.16992A215.01547,215.01547,0,0,0,256,192V137.79A160.913,160.913,0,0,1,280,136,24.00619,24.00619,0,0,1,304,160Z" style="fill:#ffc431"/><circle cx="344" cy="88" r="8"/><path d="M488,264H448a8.00008,8.00008,0,0,0-8,8v38.459l-27.76611,69.415L396.4375,369.34375A7.99983,7.99983,0,0,0,392,368H360a8.00008,8.00008,0,0,0-8-8H328a8.00035,8.00035,0,0,0-5.65674,2.34277L308.686,376h-8.40479l-5.12878-7.69312C361.51379,339.25049,408,272.957,408,196V162.42188l1.34326-2.01563A86.98886,86.98886,0,0,0,424,112a47.89113,47.89113,0,0,0-16.4939-36.1665A67.99908,67.99908,0,0,0,272,84v44.18848C183.062,132.375,112,206.04492,112,296v37.6853L17.23584,483.72852A8,8,0,0,0,24,496H53.771a63.8296,63.8296,0,0,0,49.16648-23.02832L125.294,446.14355,174.81586,416H373.57764L392,428.28125V488a8.00008,8.00008,0,0,0,8,8h48a8.00008,8.00008,0,0,0,8-8V409.59961l39.38477-94.52246A8.0014,8.0014,0,0,0,496,312V272A8.00008,8.00008,0,0,0,488,264ZM399.12256,146.4502,369.19922,110.543l12.04541-30.11328A32.05177,32.05177,0,0,1,408,112,71.00547,71.00547,0,0,1,399.12256,146.4502ZM353.854,117.12109,362.91968,128h-15.6062L320,100.68652V86.7041a22.7043,22.7043,0,0,1,35.29736-18.8916l10.86438,7.24316L352.57227,109.0293A7.99916,7.99916,0,0,0,353.854,117.12109ZM288,84A52.00128,52.00128,0,0,1,388.68042,65.71265a47.731,47.731,0,0,0-10.1582-1.64576L364.17236,54.5A38.70379,38.70379,0,0,0,304,86.7041V104a8.00076,8.00076,0,0,0,2.34326,5.65723l32,32A8.00035,8.00035,0,0,0,344,144h32v-.30371l16,19.2V196c0,87.71045-65.99512,160.28955-150.936,170.70874A247.60918,247.60918,0,0,0,312,193.12207V160a32.05589,32.05589,0,0,0-24-30.9873ZM210.75177,393.002,216.00024,400H200.73505Q205.8359,396.62683,210.75177,393.002ZM90.64551,462.72949A47.8713,47.8713,0,0,1,53.771,480H38.51465L112,363.648v73.45581ZM128,397.335A222.9948,222.9948,0,0,0,264,192H248A207.008,207.008,0,0,1,128,379.8396V341.416l.69336-.27735A126.16147,126.16147,0,0,0,208,224H192a110.10689,110.10689,0,0,1-64,100.0061V296c0-72.83813,51.50214-133.86353,120-148.59961V176h16V144.84131A153.02814,153.02814,0,0,1,280,144a16.01833,16.01833,0,0,1,16,16v33.12207A231.99959,231.99959,0,0,1,184.62744,391.2959L128,425.76465Zm95.96216-13.38525a188.7443,188.7443,0,0,0,18.986-1.35254L256.00024,400H236ZM276,400l-15.33252-20.44312a186.36447,186.36447,0,0,0,19.20081-5.33251l9.47546,14.21313A7.99943,7.99943,0,0,0,296,392h16a8.00035,8.00035,0,0,0,5.65674-2.34277L331.314,376H344v4.68652L324.686,400Zm204-89.59961-39.38477,94.52246A8.0014,8.0014,0,0,0,440,408v72H408V424a7.99943,7.99943,0,0,0-3.5625-6.65625l-24-16A7.99983,7.99983,0,0,0,376,400H347.314l10.34278-10.34277A8.00076,8.00076,0,0,0,360,384h29.57764l21.98486,14.65625a7.9999,7.9999,0,0,0,11.86523-3.68555l32-80A7.99723,7.99723,0,0,0,456,312V280h24Z"/></svg>
