<?xml version="1.0"?>
<svg xmlns="http://www.w3.org/2000/svg" id="filled_outline" data-name="filled outline" viewBox="0 0 512 512" width="512" height="512"><path d="M352,163.08V368l-24,40v32H296l-8-16a102.058,102.058,0,0,1-62.63-4.25L216,416l-16,24H176V408l-16-40V178.96a56.00282,56.00282,0,0,1,11.52-34.02L250.78,41.29A44.02953,44.02953,0,0,1,316.9,36.9L336,56,304,88h24v24l9.6,16,8.7,14.5A40.00779,40.00779,0,0,1,352,163.08Z" style="fill:#78889c"/><path d="M352,184h.00008A79.99991,79.99991,0,0,1,432,263.99992V312H418.57032a32,32,0,0,1-27.78378-16.12355l-14.84832-25.98457A27.57086,27.57086,0,0,0,352,256h0Z" style="fill:#657587"/><path d="M160,184h-.00008A79.99991,79.99991,0,0,0,80,263.99992V312H93.42968a32,32,0,0,0,27.78378-16.12355l14.84832-25.98457A27.57086,27.57086,0,0,1,160,256h0Z" style="fill:#657587"/><path d="M384,488v0a32,32,0,0,0-32-32H336l-8-16H296v16h0a28.94425,28.94425,0,0,0-16,25.88852V488Z" style="fill:#ffc431"/><path d="M256,488v0a32,32,0,0,0-32-32H208l-8-16H176v16h0a28.94425,28.94425,0,0,0-16,25.88852V488Z" style="fill:#ffc431"/><path d="M352,163.08V368l-24,40v32H296l-8-16a102.058,102.058,0,0,1-62.63-4.25L216,416a54.64154,54.64154,0,0,1-16-38.63V208a80.00357,80.00357,0,0,1,80-80h57.6l8.7,14.5A40.00779,40.00779,0,0,1,352,163.08Z" style="fill:#f7efe9"/><polygon points="336 56 376 56 400 72 376 88 304 88 336 56" style="fill:#ffc431"/><path d="M80,320H93.42969a40.0862,40.0862,0,0,0,34.72949-20.1543l14.84912-25.98486A19.57966,19.57966,0,0,1,152,265.72717V368a8.00164,8.00164,0,0,0,.57227,2.97119L168,409.54053V451.4458a36.709,36.709,0,0,0-16,30.44287V488a7.99977,7.99977,0,0,0,8,8h96a7.99977,7.99977,0,0,0,8-8,40.04521,40.04521,0,0,0-40-40H212.94434l-3.71283-7.42535,9.82422-14.73639,3.34759,1.339a109.24655,109.24655,0,0,0,61.22607,5.96972L288,441.88818v9.55762a36.709,36.709,0,0,0-16,30.44287V488a7.99977,7.99977,0,0,0,8,8H384a7.99977,7.99977,0,0,0,8-8,40.04521,40.04521,0,0,0-40-40H340.94434L336,438.11176V410.21582l22.85986-38.09961A8.00144,8.00144,0,0,0,360,368V265.72717a19.582,19.582,0,0,1,8.99219,8.13416l14.84863,25.98437A40.0862,40.0862,0,0,0,418.57031,320H432a7.99977,7.99977,0,0,0,8-8V264a88.11705,88.11705,0,0,0-80-87.63251v-13.2879a48.01141,48.01141,0,0,0-6.84033-24.69629L336,109.78418V96h40a7.99593,7.99593,0,0,0,4.43749-1.34375l24-16a7.99958,7.99958,0,0,0,0-13.3125l-24-16A7.99593,7.99593,0,0,0,376,48H339.31348L322.5542,31.24072A51.69379,51.69379,0,0,0,285.76025,16a52.33851,52.33851,0,0,0-41.33349,20.42627L165.16113,140.08105a64.38558,64.38558,0,0,0-13.107,36.28162A88.11681,88.11681,0,0,0,72,264v48A7.99977,7.99977,0,0,0,80,320ZM224,464a24.04118,24.04118,0,0,1,22.62891,16H168.0835a20.81533,20.81533,0,0,1,11.49414-16.84473A7.99924,7.99924,0,0,0,184,456v-8h11.05566l5.78907,11.57764A7.99924,7.99924,0,0,0,208,464Zm128,0a24.04118,24.04118,0,0,1,22.62891,16H288.0835a20.81463,20.81463,0,0,1,11.49414-16.84473A7.99924,7.99924,0,0,0,304,456v-8h19.05566l5.78907,11.57764A7.99924,7.99924,0,0,0,336,464Zm72-200v40h-5.42969a24.05258,24.05258,0,0,1-20.83789-12.09277l-14.84814-25.98389A35.64588,35.64588,0,0,0,360,248.93518v-56.48A72.09489,72.09489,0,0,1,424,264ZM339.43994,146.61523A32.008,32.008,0,0,1,344,163.07959V365.78418l-22.85986,38.09961A8.00144,8.00144,0,0,0,320,408v24H300.94409l-5.78882-11.57764a7.99832,7.99832,0,0,0-9.0957-4.18359,93.45734,93.45734,0,0,1-57.71436-3.917l-7.78808-3.11524A46.29836,46.29836,0,0,1,208,377.37256V208a72.08124,72.08124,0,0,1,72-72h53.07068ZM385.57764,72l-12,8H323.31348l16-16h34.26416ZM168,178.958a48.26092,48.26092,0,0,1,9.87109-29.15772L257.13672,46.145A36.246,36.246,0,0,1,285.76025,32a35.799,35.799,0,0,1,25.48047,10.5542L324.68652,56,298.34326,82.34326A7.99981,7.99981,0,0,0,304,96h16v16a8.00144,8.00144,0,0,0,1.14014,4.11621L323.47046,120H280a88.09957,88.09957,0,0,0-88,88V377.37256a62.1481,62.1481,0,0,0,13.90564,39.34711L195.71875,432H184V408a8.00164,8.00164,0,0,0-.57227-2.97119L168,366.45947ZM88,264a72.09489,72.09489,0,0,1,64-71.54486v56.48a35.6445,35.6445,0,0,0-22.88379,16.98767l-14.84863,25.98438A24.05258,24.05258,0,0,1,93.42969,304H88Z"/><circle cx="288" cy="56" r="8"/></svg>
