<?xml version="1.0"?>
<svg xmlns="http://www.w3.org/2000/svg" id="filled_outline" data-name="filled outline" viewBox="0 0 512 512" width="512" height="512"><polygon points="320 360 336 384 408 384 408 368 384 344 384 232 296 232 320 360" style="fill:#e3cdbc"/><polygon points="104 312 72 352 88 384 48 384 24 360 24 336 64 232 104 232 104 312" style="fill:#e3cdbc"/><path d="M254.88441,280H168v64l24,24v16H128l-24-32V280L77.53908,253.53908A73.539,73.539,0,0,1,56,201.53914V201.539A73.539,73.539,0,0,1,129.539,128H404a72,72,0,0,1,57.6,28.8L482,184a30,30,0,0,1,6,18v0a30,30,0,0,1-30,30H376l-56,64,18.25551,24.34068A28.72246,28.72246,0,0,1,344,337.57415v0a28.72246,28.72246,0,0,1-21.75624,27.86488L280,376l-16-16,24-24-27.16233-38.02727A31.96333,31.96333,0,0,1,254.88328,280Z" style="fill:#f0dfd3"/><path d="M254.88328,280a31.96455,31.96455,0,0,1,5.36825-18.37731L280,232H184l-16,24v24Z" style="fill:#e3cdbc"/><path d="M468,152a80.38209,80.38209,0,0,0-64-32H129.53906A81.58673,81.58673,0,0,0,54.68555,233.93188l-38.15235,99.196A8.00385,8.00385,0,0,0,16,336v24a8.00235,8.00235,0,0,0,2.34277,5.65723l24,24A8.00235,8.00235,0,0,0,48,392H88a7.99951,7.99951,0,0,0,7.15527-11.57812L81.44434,353.001,96,334.80664V352a8.0033,8.0033,0,0,0,1.59961,4.7998l24,32A8.00091,8.00091,0,0,0,128,392h64a8.00039,8.00039,0,0,0,8-8V368a8.00235,8.00235,0,0,0-2.34277-5.65723L176,340.68652V288h71.87744a39.676,39.676,0,0,0,6.45068,14.62207l23.22266,32.5127-19.208,19.208a8.00122,8.00122,0,0,0,0,11.31446l16,16a8.00031,8.00031,0,0,0,7.59766,2.10351l37.95923-9.48926,9.44409,14.166A7.99943,7.99943,0,0,0,336,392h72a8.00039,8.00039,0,0,0,8-8V368a8.00235,8.00235,0,0,0-2.34277-5.65723L392,340.68652V240h66a38.00024,38.00024,0,0,0,30.40039-60.7998ZM65.75293,347.002a8.00178,8.00178,0,0,0-.9082,8.57617L75.05566,376H51.31348L32,356.68652V337.48535l33.08521-86.02148a82.75844,82.75844,0,0,0,6.79663,7.73242L96,283.31348v25.87964ZM400,371.31348V376H340.28125l-5.05664-7.58521a36.73228,36.73228,0,0,0,9.43164-52.87377L330.291,296.3877,376,244.14844V344a8.00235,8.00235,0,0,0,2.34277,5.65723ZM458,224H376a8.00149,8.00149,0,0,0-6.02051,2.73145l-56,64a8.00121,8.00121,0,0,0-.37988,10.06835l18.25586,24.34082a20.72325,20.72325,0,0,1-11.55176,32.53809l-37.84961,9.46191L275.31348,360l18.34375-18.34277a8.0002,8.0002,0,0,0,.85254-10.30664l-27.16211-38.02832a24.12465,24.12465,0,0,1-.43946-27.26172l19.748-29.623-13.3125-8.875-19.74805,29.623A39.67775,39.67775,0,0,0,247.62109,272H176V258.42188l14.65625-21.98438-13.3125-8.875-16,24A8.00221,8.00221,0,0,0,160,256v88a8.00235,8.00235,0,0,0,2.34277,5.65723L184,371.31348V376H132l-20-26.667V280a8.00235,8.00235,0,0,0-2.34277-5.65723L83.19629,247.88184A65.53858,65.53858,0,0,1,129.53906,136H404a64.30354,64.30354,0,0,1,51.19922,25.59961l20.40039,27.20019A21.99976,21.99976,0,0,1,458,224Z"/><path d="M392,175.63281A7.64115,7.64115,0,0,1,399.63281,168H408V152h-8.36719a23.63275,23.63275,0,0,0-13.1084,43.29688l17.03809,11.35937,8.875-13.3125-17.03809-11.35937A7.61814,7.61814,0,0,1,392,175.63281Z"/><path d="M440,168h-8v8a8.00009,8.00009,0,0,0,8,8h8v-8A8.00009,8.00009,0,0,0,440,168Z"/></svg>
