<?xml version="1.0"?>
<svg xmlns="http://www.w3.org/2000/svg" id="filled_outline" data-name="filled outline" viewBox="0 0 512 512" width="512" height="512"><polygon points="224 400 224 384 200 368 200 352 248 296 144 296 144 400 224 400" style="fill:#78889c"/><path d="M416,168v48a102.42955,102.42955,0,0,1-18.21,58.31006L344,352v16l24,16v16H280l-16-16V296H209.22L160,352v16l24,16v16H136l-16-16V320a81.9343,81.9343,0,0,1-24-57.93994V248a28.96144,28.96144,0,0,0-15.93994,24c-.04.62012-.06006,1.26-.06006,1.89014V364a28,28,0,0,1-56,0V296A127.88367,127.88367,0,0,1,152,168Z" style="fill:#8394a8"/><path d="M416,184v32a102.42955,102.42955,0,0,1-18.21,58.31006L344,352v16l24,16v16H328V384l-24-16V352Z" style="fill:#78889c"/><path d="M80,352v12a28,28,0,0,1-56,0V352Z" style="fill:#e9d5c6"/><path d="M80.06006,272c-.04.62012-.06006,1.26-.06006,1.89014V312H24V296a128.31367,128.31367,0,0,1,2.25-24Z" style="fill:#e9d5c6"/><path d="M432,144h8a20.4924,20.4924,0,0,0,19.88055-15.52226L464,112H432l-16,16Z" style="fill:#78889c"/><path d="M352,144H328a20.4924,20.4924,0,0,1-19.88055-15.52226L304,112h32l16,16Z" style="fill:#78889c"/><path d="M423.78423,131.10022,456,168l-8,33.021-24,8-12.68635,12.68633A38.62734,38.62734,0,0,1,384,233.021h0a38.62734,38.62734,0,0,1-27.31363-11.31367L344,209.021l-24-8L312,168l32.21577-36.89978A52.81321,52.81321,0,0,1,384,113.021h0A52.81321,52.81321,0,0,1,423.78423,131.10022Z" style="fill:#8f9fb3"/><path d="M52,400a36.04061,36.04061,0,0,0,36-36V273.88867a21.24257,21.24257,0,0,1,.34766-3.83789A89.18064,89.18064,0,0,0,112,323.22656V384a8.00235,8.00235,0,0,0,2.34277,5.65723l16,16A8.00235,8.00235,0,0,0,136,408h88a8.00039,8.00039,0,0,0,8-8V384a7.99943,7.99943,0,0,0-3.5625-6.65625L208,363.71875V354.959L251.67944,304H256v80a8.00235,8.00235,0,0,0,2.34277,5.65723l16,16A8.00235,8.00235,0,0,0,280,408h88a8.00039,8.00039,0,0,0,8-8V384a7.99943,7.99943,0,0,0-3.5625-6.65625L352,363.71875V354.499l52.3623-75.63476a109.89019,109.89019,0,0,0,19.54688-58.43872l2.84961-2.84937,5.65137,16.9541a8.0005,8.0005,0,1,0,15.17968-5.06054l-5.96338-17.89063,6.21338-2.071,19.72266,13.14819a7.99982,7.99982,0,1,0,8.875-13.3125l-19.13184-12.75464.91748-3.78735,27.83643,6.959a7.99965,7.99965,0,0,0,3.88086-15.52148l-27.9502-6.98755,1.78516-7.36792a8.00263,8.00263,0,0,0-1.749-7.14551l-11.23926-12.87305A28.43067,28.43067,0,0,0,467.6416,130.418l4.11914-16.47754A7.999,7.999,0,0,0,464,104H432a8.00235,8.00235,0,0,0-5.65723,2.34277l-8.77978,8.77979a60.81207,60.81207,0,0,0-67.12647-.00025l-8.77929-8.77954A8.00235,8.00235,0,0,0,336,104H304a7.999,7.999,0,0,0-7.76074,9.94043L300.3584,130.418a28.43116,28.43116,0,0,0,16.85449,19.44726L308.36426,160H152C77.00977,160,16,221.00977,16,296v68A36.04061,36.04061,0,0,0,52,400Zm0-16a20.02229,20.02229,0,0,1-20-20v-4H72v4A20.02229,20.02229,0,0,1,52,384ZM33.06934,280H72v24H32v-8A120.56189,120.56189,0,0,1,33.06934,280ZM72,320v24H32V320ZM193.92578,346.794A8,8,0,0,0,192,352v16a7.99943,7.99943,0,0,0,3.5625,6.65625L216,388.28125V392H192v-8a7.99943,7.99943,0,0,0-3.5625-6.65625L168,363.71875v-8.70313L212.83984,304h17.76661ZM435.31348,120h18.44043l-1.63379,6.53711A12.476,12.476,0,0,1,440,136h-1.31885l-8.8706-10.16016c-.05225-.06-.10889-.11523-.16114-.175Zm-17.55567,16.36133v.001L447.25,170.1416,441.26758,194.833l-19.79785,6.59863a8.01037,8.01037,0,0,0-3.126,1.93262l-12.6875,12.68554a30.62444,30.62444,0,0,1-43.31348,0l-12.68652-12.68554a8.01037,8.01037,0,0,0-3.126-1.93262L326.73242,194.833,320.75,170.1416l29.49219-33.78027a44.81467,44.81467,0,0,1,67.51562,0ZM328,136a12.476,12.476,0,0,1-12.12012-9.46289L314.24609,120h18.44043l5.66407,5.66431c-.05274.05957-.10889.11474-.16114.17456L329.31787,136ZM152,176H305.70654l.30323,1.25171-27.9502,6.98755a7.99965,7.99965,0,1,0,3.88086,15.52148l27.83643-6.959.91748,3.78735L291.5625,209.34375a7.99982,7.99982,0,1,0,8.875,13.3125l19.72266-13.14819,6.21338,2.071-5.96338,17.89063a8.0005,8.0005,0,1,0,15.17968,5.06054l5.65137-16.9541,9.78809,9.78809a46.69715,46.69715,0,0,0,54.92382,8.19067A94.07581,94.07581,0,0,1,391.208,269.75684l-53.78516,77.68945A7.99721,7.99721,0,0,0,336,352v16a7.99943,7.99943,0,0,0,3.5625,6.65625L360,388.28125V392H336v-8a7.99943,7.99943,0,0,0-3.5625-6.65625L312,363.71875v-9.29687l46.65625-69.98438-13.3125-8.875-48,72A8.00221,8.00221,0,0,0,296,352v16a7.99943,7.99943,0,0,0,3.5625,6.65625L320,388.28125V392H283.31348L272,380.68652V296a8.00039,8.00039,0,0,0-8-8H209.2207a7.99778,7.99778,0,0,0-6.00879,2.71875l-49.2207,56A7.99923,7.99923,0,0,0,152,352v16a7.99943,7.99943,0,0,0,3.5625,6.65625L176,388.28125V392H139.31348L128,380.68652V320a8.00235,8.00235,0,0,0-2.34277-5.65723A73.45409,73.45409,0,0,1,104,262.05859V248a7.99951,7.99951,0,0,0-11.57812-7.15527A36.71712,36.71712,0,0,0,73.33789,264H36.33936A120.21159,120.21159,0,0,1,152,176Z"/><path d="M384.50439,209.021a7.99977,7.99977,0,0,0,8-8v-4a4.00019,4.00019,0,0,0-4-4h-8a4.0002,4.0002,0,0,0-4,4v4A7.99978,7.99978,0,0,0,384.50439,209.021Z"/><path d="M360,177.021h8v-8a7.99992,7.99992,0,0,0-8-8h-8v8A7.99977,7.99977,0,0,0,360,177.021Z"/><path d="M416,169.021v-8h-8a7.99992,7.99992,0,0,0-8,8v8h8A7.99977,7.99977,0,0,0,416,169.021Z"/></svg>
