<?xml version="1.0"?>
<svg xmlns="http://www.w3.org/2000/svg" id="filled_outline" data-name="filled outline" viewBox="0 0 512 512" width="512" height="512"><path d="M416,216h64l-5.26689,10.53377A38.83278,38.83278,0,0,1,440,248H416Z" style="fill:#6e7e91"/><polygon points="144 352 168 368 168 384 120 384 80 296 80 264 144 264 144 352" style="fill:#657587"/><path d="M440,336.51a23.48673,23.48673,0,0,1-38.53,18.04L360,320V264l-24,40v48l24,16v16H304l-24-72H172.38a58.84781,58.84781,0,0,1-52.65-32.54l-.13.14A55.82443,55.82443,0,0,1,80,296L64,352l16,16v16H24V200a71.44025,71.44025,0,0,1,71.43994-71.44H169.37a54.63521,54.63521,0,0,1,38.63,16h64l6.08008-4.06A71.14078,71.14078,0,0,1,373.36,155.61l59.75,75.67A31.99689,31.99689,0,0,1,440,251.11Z" style="fill:#78889c"/><path d="M488,264v16a47.86681,47.86681,0,0,1-44.33008,47.73L440,328V280h24Z" style="fill:#8f9fb3"/><path d="M376,200h56l-5.26688,10.53377A38.83281,38.83281,0,0,1,392,232H376Z" style="fill:#8394a8"/><polygon points="272 312 256 352 272 368 272 384 232 384 208 360 224 312 272 312" style="fill:#657587"/><path d="M491.7749,256.94678a7.99977,7.99977,0,0,0-8.2124.397L461.57764,272H448V255.32172a46.53315,46.53315,0,0,0,33.88818-25.21039l5.26709-10.53369A8,8,0,0,0,480,208H436.944l2.2113-4.42236A8,8,0,0,0,432,192H412.29077l-32.654-41.353a79.12812,79.12812,0,0,0-105.99317-16.80029l-4.06591,2.71045H211.186a62.17013,62.17013,0,0,0-41.81348-16H95.44287A79.53255,79.53255,0,0,0,16,200V384a7.99977,7.99977,0,0,0,8,8H80a7.99977,7.99977,0,0,0,8-8V368a7.99877,7.99877,0,0,0-2.34326-5.65674L72.98535,349.67188l8.73181-30.56165,31.00013,68.20032A7.99917,7.99917,0,0,0,120,392h48a7.99977,7.99977,0,0,0,8-8V368a7.99943,7.99943,0,0,0-3.5625-6.65625L152,347.71875V316.99719A66.359,66.359,0,0,0,171.77686,320h41.12377l-12.49,37.47021a7.99941,7.99941,0,0,0,1.93262,8.18653l24,24A7.99877,7.99877,0,0,0,232,392h40a7.99977,7.99977,0,0,0,8-8V368a7.99877,7.99877,0,0,0-2.34326-5.65674l-12.26953-12.27,10.29321-25.73364,20.73022,62.19019A8.00011,8.00011,0,0,0,304,392h56a7.99977,7.99977,0,0,0,8-8V368a7.99943,7.99943,0,0,0-3.5625-6.65625L344,347.71875V306.21582l8-13.3335V320a8.00149,8.00149,0,0,0,2.87842,6.146l41.46533,34.5542A31.49407,31.49407,0,0,0,448,336.50586v-1.08643A56.07967,56.07967,0,0,0,496,280V264A8.00016,8.00016,0,0,0,491.7749,256.94678Zm-45.54883-17.57117a40.07058,40.07058,0,0,0-6.833-13.05334L437.55933,224h29.47143A30.614,30.614,0,0,1,446.22607,239.37561ZM139.5625,358.65625,160,372.28125V376H125.15137L91.91626,302.88306a63.684,63.684,0,0,0,25.73486-11.17884A65.49225,65.49225,0,0,0,136,309.50513V352A7.99943,7.99943,0,0,0,139.5625,358.65625ZM264,376H235.31348l-18.16065-18.16064L229.76587,320h30.418l-11.61157,29.02881a7.99949,7.99949,0,0,0,1.771,8.62793L264,371.31348Zm216-96a40.06761,40.06761,0,0,1-32,39.19507V304H432v32.50586a15.49437,15.49437,0,0,1-25.41309,11.90332L368,316.25293V264a8,8,0,0,0-14.85986-4.11572l-24,40A7.9984,7.9984,0,0,0,328,304v48a7.99943,7.99943,0,0,0,3.5625,6.65625L352,372.28125V376H309.76611l-20.20044-60.60083A36.69806,36.69806,0,0,0,304,286.11133V256H288v30.11133A20.812,20.812,0,0,1,277.93872,304H171.77686a49.57461,49.57461,0,0,1-42.3075-23.4541A63.69231,63.69231,0,0,0,144,240H128a48.05436,48.05436,0,0,1-48,48,8.00027,8.00027,0,0,0-7.69238,5.80225l-16,56a7.99986,7.99986,0,0,0,2.03564,7.85449L72,371.31348V376H32V200a63.51485,63.51485,0,0,1,63.44287-63.44287h73.92969a46.32275,46.32275,0,0,1,32.9707,13.65674A7.99877,7.99877,0,0,0,208,152.55713h64a7.99983,7.99983,0,0,0,4.4375-1.34375l6.08105-4.0542A63.12913,63.12913,0,0,1,367.08008,160.563L391.90405,192H376v16h43.03076A30.651,30.651,0,0,1,392,224v16a46.6316,46.6316,0,0,0,29.55151-10.45453l5.28443,6.69232A24.099,24.099,0,0,1,432,251.11084V280a7.99977,7.99977,0,0,0,8,8h24a7.996,7.996,0,0,0,4.4375-1.34375L480,278.94824Z"/><path d="M408,288h-8v8a8.00009,8.00009,0,0,0,8,8h8v-8A8.00009,8.00009,0,0,0,408,288Z"/></svg>
