<?xml version="1.0"?>
<svg xmlns="http://www.w3.org/2000/svg" id="filled_outline" data-name="filled outline" viewBox="0 0 512 512" width="512" height="512"><polygon points="350 336 368 408 424 440 320 440 288 344 350 336" style="fill:#e9d5c6"/><polygon points="274.844 373.688 296 416 280 440 376 440 336 416 314.221 350.662 274.844 373.688" style="fill:#f0dfd3"/><path d="M440,128V240.0001a104.00158,104.00158,0,0,1-100.62013,103.946l-.00112.00295A143.64184,143.64184,0,0,1,232.00014,392H24L167.63735,209.69105A214.34036,214.34036,0,0,1,335.9999,128H440" style="fill:#b1712c"/><path d="M339.38,343.9502A143.42593,143.42593,0,0,0,376,248a56.0217,56.0217,0,0,0-39.34655-53.48252A24.01,24.01,0,0,1,320,171.5027V128.6001q7.95-.60022,16-.6001H440V240A104.00924,104.00924,0,0,1,339.38,343.9502" style="fill:#a36522"/><path d="M416,216l51.40883-45.69674A61.34968,61.34968,0,0,0,488,124.44994v-.00005a61.34963,61.34963,0,0,0-12.26994-36.8098l-1.22924-1.639A35.00273,35.00273,0,0,0,446.49864,72h0a35.00272,35.00272,0,0,0-24.75066,10.25206L416,88l-5.74794-5.74794A35.00272,35.00272,0,0,0,385.5014,72h0a35.00273,35.00273,0,0,0-28.00218,14.00109l-1.22924,1.639A61.34963,61.34963,0,0,0,344,124.44989v.00005a61.34968,61.34968,0,0,0,20.59117,45.85332Z" style="fill:#f0dfd3"/><path d="M480.90088,81.20117A43.2097,43.2097,0,0,0,446.49854,64a42.718,42.718,0,0,0-30.40723,12.59473L416,76.68652l-.09082-.09082A42.71683,42.71683,0,0,0,385.50146,64a43.2097,43.2097,0,0,0-34.40234,17.20117l-1.229,1.63867A69.8321,69.8321,0,0,0,336.15961,120H336a222.34012,222.34012,0,0,0-174.647,84.74023L17.71582,387.04883A8.00047,8.00047,0,0,0,24,400H232a151.49868,151.49868,0,0,0,43.83-6.45166l10.93853,21.87646-13.4248,20.1377A8.00016,8.00016,0,0,0,280,448H424a8.00023,8.00023,0,0,0,3.96924-14.94629l-53.03613-30.30566-13.42035-53.68213A112.19656,112.19656,0,0,0,448,240V198.25952l24.72363-21.97632a69.35046,69.35046,0,0,0,9.40625-93.44336ZM294.94824,432l7.708-11.5625a7.999,7.999,0,0,0,.499-8.01562l-12.168-24.33594a151.81468,151.81468,0,0,0,23.18616-12.26709l14.23718,42.71142a8.00495,8.00495,0,0,0,3.47315,4.33008L347.11768,432Zm65.29053-22.05957a8.00087,8.00087,0,0,0,3.792,5.00586L393.87549,432H378.21674l-35.56293-21.33691-14.90247-44.70752a153.37835,153.37835,0,0,0,15.19733-14.17725q1.35424-.08349,2.7-.19873ZM432,240a96.16894,96.16894,0,0,1-74.43188,93.55615A151.13173,151.13173,0,0,0,384,248a64.07239,64.07239,0,0,0-64-64h-8v16h8a48.054,48.054,0,0,1,48,48c0,74.99023-61.00928,136-136,136H40.48779l25.2121-32H229.11621a112.56461,112.56461,0,0,0,96.03906-54.376l17.70459-29.50781-13.71972-8.23242L311.43555,289.3916A96.48411,96.48411,0,0,1,229.11621,336H78.306L104,303.38818V304H218.94775a80.15626,80.15626,0,0,0,65.09815-33.501l18.46387-25.84961-13.01954-9.29882-18.46386,25.84863A64.12425,64.12425,0,0,1,218.94775,288H116.12415L144,252.61914V256h56V240H153.94232l19.97858-25.35742A206.34421,206.34421,0,0,1,336,136h.98285a69.409,69.409,0,0,0,22.29352,40.2832l51.40869,45.69629a8.00071,8.00071,0,0,0,10.62988,0L432,212.48169Zm30.09375-75.67578L416,205.2959l-46.09375-40.97168a53.35068,53.35068,0,0,1-7.23633-71.88477l1.229-1.63867A27.13439,27.13439,0,0,1,385.50146,80a26.82377,26.82377,0,0,1,19.09375,7.90918l5.748,5.748a8.00182,8.00182,0,0,0,11.31348,0l5.74853-5.749A26.825,26.825,0,0,1,446.49854,80a27.13439,27.13439,0,0,1,21.60253,10.80078l1.229,1.63867a53.35068,53.35068,0,0,1-7.23633,71.88477Z"/><path d="M416,156.68652l-10.34326-10.34375-11.31348,11.31446,16,16a8.00063,8.00063,0,0,0,11.31348,0l16-16-11.31348-11.31446Z"/><path d="M400,128a8,8,0,0,0-8-8h-8v8a8,8,0,0,0,8,8h8Z"/><path d="M432,128v8h8a8,8,0,0,0,8-8v-8h-8A8,8,0,0,0,432,128Z"/><rect x="216" y="240" width="16" height="16"/></svg>
