<?xml version="1.0"?>
<svg xmlns="http://www.w3.org/2000/svg" id="filled_outline" data-name="filled outline" viewBox="0 0 512 512" width="512" height="512"><polygon points="393.186 245.778 432 304 432 328 408 328 352 272 352 248 393.186 245.778" style="fill:#91591c"/><rect x="424" y="288" width="64" height="80" rx="31.99997" style="fill:#ffc431"/><polygon points="368 384 368 368 320 344 368 320 368 288 248 288 248 384 368 384" style="fill:#91591c"/><path d="M488,200v24l-24,16H416l-40,40,32,32,24,8v24l-8,8H408l-16-16-68.32007-34.16016a33.69333,33.69333,0,0,1-11.51,12.0503L264,344l48,24v16H232V352a24.00619,24.00619,0,0,0-24-24h-.07007a88.02068,88.02068,0,0,1-66.23-30.05L115.29,267.76A11.00272,11.00272,0,0,0,96,275.01V360L74.6001,348.10986A98.37539,98.37539,0,0,1,24,262.12012,86.11594,86.11594,0,0,1,195.23,249.02L200,280a96.75238,96.75238,0,0,1,96.35986-88H368l23.03-23.03A23.97457,23.97457,0,0,1,384,152V136h16a24.00619,24.00619,0,0,1,24,24,66.56891,66.56891,0,0,1,51.99,24.99Z" style="fill:#b1712c"/><path d="M416,240l-12.68629-12.68629a16,16,0,0,0-22.62742,0L376,232a33.9411,33.9411,0,0,0,0,48l0,0Z" style="fill:#a36522"/><path d="M408,176l-16,16H368l23.03-23.03A23.97339,23.97339,0,0,0,408,176Z" style="fill:#a36522"/><path d="M482.2373,179.98926a74.16579,74.16579,0,0,0-51.166-27.65918A32.05773,32.05773,0,0,0,400,128H384a8.00039,8.00039,0,0,0-8,8v16a31.79408,31.79408,0,0,0,4.44434,16.24146L364.68652,184H296.36328a104.84247,104.84247,0,0,0-94.13965,58.76074A94.11786,94.11786,0,0,0,16,262.11816a106.429,106.429,0,0,0,54.71289,92.98536l21.40234,11.88964A8.00032,8.00032,0,0,0,104,360V275.00586a3.00573,3.00573,0,0,1,5.26855-1.97852l26.416,30.18848A96.02833,96.02833,0,0,0,208,336a16.01833,16.01833,0,0,1,16,16v32a8.00039,8.00039,0,0,0,8,8H368a8.00039,8.00039,0,0,0,8-8V368a8.00022,8.00022,0,0,0-4.42188-7.15527L337.88867,344l26.11109-13.05542,23.261,11.63062,15.082,15.082A8.00235,8.00235,0,0,0,408,360h16l.01562-.00073A39.98922,39.98922,0,0,0,496,336V320a39.904,39.904,0,0,0-64.65161-31.39917l-21.054-31.581,9.02-9.01978H464a8.00221,8.00221,0,0,0,4.4375-1.34375l24-16A7.99943,7.99943,0,0,0,496,224V200a7.998,7.998,0,0,0-1.75293-4.99707ZM316.42188,336.84473a8.00009,8.00009,0,0,0,0,14.31054L360,372.94434V376H320v-8a8.00022,8.00022,0,0,0-4.42188-7.15527l-35.24218-17.6211,36.07519-22.5459a41.922,41.922,0,0,0,9.89038-8.58252L346.11108,322ZM480,320v16a24.0384,24.0384,0,0,1-16,22.62378V297.37622A24.0384,24.0384,0,0,1,480,320Zm-32-22.584v61.19433a24.13981,24.13981,0,0,1-11.14673-8.14917l.804-.80395A8.00235,8.00235,0,0,0,440,344V320a8.00026,8.00026,0,0,0-5.46973-7.58984l-1.14209-.38062A24.24067,24.24067,0,0,1,448,297.416Zm-27.35693,3.9707a39.63745,39.63745,0,0,0-2.44263,5.58057l-5.87915-1.95948L387.31348,280l11.44336-11.44287ZM480,219.71875,461.57812,232H419.31348l-21.65625-21.65723-11.31446,11.31446L404.68555,240l-34.34278,34.34277a8.00122,8.00122,0,0,0,0,11.31446l32,32a8.02088,8.02088,0,0,0,3.127,1.93261L424,325.76562v14.9209L420.68652,344h-9.373l-13.65625-13.65723a8.03215,8.03215,0,0,0-2.07911-1.498l-61.55468-30.77735A41.91662,41.91662,0,0,0,336,285.333,45.38389,45.38389,0,0,0,290.667,240H272v16h18.667A29.36681,29.36681,0,0,1,320,285.333a25.53341,25.53341,0,0,1-12.06934,21.77637l-48.17089,30.10644a8.00011,8.00011,0,0,0,.66211,13.93945L304,372.94434V376H240V352a32.05126,32.05126,0,0,0-32.06836-32,79.99758,79.99758,0,0,1-60.206-27.31934l-26.416-30.18945A19.00562,19.00562,0,0,0,88,275.00586V346.4043l-9.51758-5.28711A90.42107,90.42107,0,0,1,32,262.11816a78.11772,78.11772,0,0,1,155.32715-11.8789l4.76562,30.97754a8,8,0,0,0,15.874-.49219A88.7617,88.7617,0,0,1,296.36328,200H368a8.00235,8.00235,0,0,0,5.65723-2.34277l18.10156-18.10157A31.79317,31.79317,0,0,0,408,184V168a16.01833,16.01833,0,0,1-16-16v-8h8a16.01833,16.01833,0,0,1,16,16,8.00039,8.00039,0,0,0,8,8,58.29654,58.29654,0,0,1,45.74316,21.98438L480,202.80664Z"/><path d="M440,184h-8v8a8.00009,8.00009,0,0,0,8,8h8v-8A8.00009,8.00009,0,0,0,440,184Z"/></svg>
