<?xml version="1.0"?>
<svg xmlns="http://www.w3.org/2000/svg" id="filled_outline" data-name="filled outline" viewBox="0 0 512 512" width="512" height="512"><path d="M288,376h32a80,80,0,0,0,80-80V240H288Z" style="fill:#c1d439"/><path d="M488,237.61V256H444.43994a64.6271,64.6271,0,0,1-23.99-4.62L392,240H344v56a95.99912,95.99912,0,0,1-96,96H200a55.51209,55.51209,0,0,1,37.95-52.65c.83008-.27991,1.64014-.57,2.44019-.89A49.46707,49.46707,0,0,0,254.45,330.05005a46.71661,46.71661,0,0,0,4.19019-4.01c1-1.06006,1.93994-2.17,2.83984-3.32007a49.67643,49.67643,0,0,0,6.04-9.99c.12012-.24.22-.48.33008-.73a49.473,49.473,0,0,0,4-16H152a80.01574,80.01574,0,0,1-64-32v72a73.054,73.054,0,0,1-64-72.5V208H168l56-32H426.39014A61.60667,61.60667,0,0,1,488,237.61Z" style="fill:#d9eb5e"/><path d="M400,176H296a214.70838,214.70838,0,0,1-124.82007,40H24V192a141.33657,141.33657,0,0,1,10.37012-16,140.06715,140.06715,0,0,1,111.98974-56H344A55.99742,55.99742,0,0,1,400,176Z" style="fill:#b9cd2a"/><path d="M272,248v44.11c0,1.29992-.05,2.6-.1499,3.89H152a80.01574,80.01574,0,0,1-64-32V248Z" style="fill:#c1d439"/><path d="M344,240V216h24a24,24,0,0,1,24,24v0Z" style="fill:#cde046"/><path d="M296,176a214.70838,214.70838,0,0,1-124.82007,40H24V192a141.33657,141.33657,0,0,1,10.37012-16Z" style="fill:#c1d439"/><polygon points="296 120 264 176 232 176 200 120 296 120" style="fill:#cde046"/><path d="M400,176H360l-32-56h16A55.99742,55.99742,0,0,1,400,176Z" style="fill:#cde046"/><path d="M160,120l-32,56H96L75.12988,139.49a139.77575,139.77575,0,0,1,71.23-19.49Z" style="fill:#cde046"/><path d="M448,224h8v-8a8,8,0,0,0-8-8h-8v8A8,8,0,0,0,448,224Z"/><path d="M87.00781,343.938A8.00005,8.00005,0,0,0,96,336V283.84082A88.44733,88.44733,0,0,0,152,304H262.27441A41.7418,41.7418,0,0,1,235.418,331.76172,63.41457,63.41457,0,0,0,192,392a8.00008,8.00008,0,0,0,8,8h48a103.375,103.375,0,0,0,55.36279-16H320a88.09957,88.09957,0,0,0,88-88V255.01624l9.47754,3.79089A72.27942,72.27942,0,0,0,444.44043,264H488a8.00008,8.00008,0,0,0,8-8V237.6123A69.61191,69.61191,0,0,0,426.3877,168H407.48218A64.08155,64.08155,0,0,0,344,112H146.36523A148.06075,148.06075,0,0,0,17.00684,188.11475,8.00209,8.00209,0,0,0,16,192v71.502A81.18925,81.18925,0,0,0,87.00781,343.938ZM392,296a72.07937,72.07937,0,0,1-68.95068,71.92261A103.76978,103.76978,0,0,0,350.769,312H376V296H352V280h24V264H352V248h38.459l1.541.61639Zm-.667-128H364.64307l-22.85718-40H344A48.07781,48.07781,0,0,1,391.333,168Zm-290.68994,0L86.11914,142.58344a131.8368,131.8368,0,0,1,60.09351-14.58088L123.35693,168Zm64-40h30.71386l22.85718,40H141.78589Zm72,40-22.85718-40h68.42822l-22.85718,40Zm41.14282,0,22.85718-40h22.71386l22.85718,40H277.78589ZM72.34766,150.734,82.21411,168H51.74365A132.04215,132.04215,0,0,1,72.34766,150.734ZM32,194.10547c2.0083-3.48706,4.17407-6.85138,6.46558-10.10547H267.91113a205.456,205.456,0,0,1-96.72949,24H32ZM32,224H171.18164a221.44309,221.44309,0,0,0,127.35645-40H426.3877A53.6118,53.6118,0,0,1,480,237.6123V248H444.44043a56.34808,56.34808,0,0,1-21.02051-4.04834L394.9707,232.57227A7.99723,7.99723,0,0,0,392,232H352V216H336v80a88.09957,88.09957,0,0,1-88,88H208.67285a47.43356,47.43356,0,0,1,31.80469-37.05957c.82471-.2749,1.63745-.57105,2.44287-.87988l5.48975,16.46924,15.17968-5.05958-6.44043-19.32141a57.668,57.668,0,0,0,8.23389-7.61206l18.1792,12.11951,8.875-13.3125-18.17578-12.11719c.8208-1.70154,1.56543-3.44323,2.21826-5.22656H304V296H279.86011c.08618-1.28992.13989-2.58716.13989-3.89453V280h24V264H280V248H264v40H152a72.36584,72.36584,0,0,1-56-26.75537V240H80v16H64v16H80v16H64v16H80v22.28906A65.19419,65.19419,0,0,1,32,263.502Z"/></svg>
