<?xml version="1.0"?>
<svg xmlns="http://www.w3.org/2000/svg" id="filled_outline" data-name="filled outline" viewBox="0 0 512 512" width="512" height="512"><path d="M488,432H24V413.62A125.61747,125.61747,0,0,1,149.62012,288h.00976A147.44682,147.44682,0,0,0,294.5498,167.72l.98047-5.2-.01025.01a35.21825,35.21825,0,0,1,.6499-44.33l16.47022-19.76A51.19765,51.19765,0,0,1,352,80,120.00937,120.00937,0,0,1,472,200V400l4.68994,4.69A38.63232,38.63232,0,0,1,488,432Z" style="fill:#78889c"/><path d="M360,176v16a48,48,0,0,0,48,48h0l0,0a54.62737,54.62737,0,0,1-16-38.62737V176Z" style="fill:#f0dfd3"/><path d="M296,168v24a48,48,0,0,0,48,48h0l0,0a54.62737,54.62737,0,0,1-16-38.62737V176Z" style="fill:#f0dfd3"/><path d="M432,432V414.37949a17.6205,17.6205,0,0,0-4.084-11.28035L392,360V344a48,48,0,0,0-48-48H328V280h64a40,40,0,0,0,40-40v-.00008A39.99991,39.99991,0,0,1,471.99992,200h0V400h0a16,16,0,0,1,16,16v16Z" style="fill:#6e7e91"/><circle cx="360" cy="112" r="8"/><path d="M24,440H488a8.00008,8.00008,0,0,0,8-8,46.31863,46.31863,0,0,0-13.65625-32.97021L480,396.68652V200A128.14509,128.14509,0,0,0,352,72a59.08194,59.08194,0,0,0-45.50977,21.31543l-16.46875,19.76172a43.17808,43.17808,0,0,0-2.98,51.29089l-.352,1.87708A139.52761,139.52761,0,0,1,149.62305,280C75.94336,280,16,339.94336,16,413.62354V432A8.00008,8.00008,0,0,0,24,440ZM389.70312,227.56494A40.04135,40.04135,0,0,1,368,192v-8h16v17.37256A62.44462,62.44462,0,0,0,389.70312,227.56494Zm-64,0A40.04135,40.04135,0,0,1,304,192V179.46759a42.90334,42.90334,0,0,0,16,4.39825v17.50672A62.44462,62.44462,0,0,0,325.70312,227.56494ZM32,413.62354A117.75675,117.75675,0,0,1,149.624,296,155.58345,155.58345,0,0,0,290.0957,207.13763,56.08861,56.08861,0,0,0,344,248a8.0001,8.0001,0,0,0,5.65625-13.65723A46.31947,46.31947,0,0,1,336,201.37256V184h16v8a56.06322,56.06322,0,0,0,56,56,8.0001,8.0001,0,0,0,5.65625-13.65723A46.31947,46.31947,0,0,1,400,201.37256V184h16V168H360a24.02718,24.02718,0,0,1-24-24H320a39.79015,39.79015,0,0,0,8.022,24h-4.78076a27.24129,27.24129,0,0,1-20.92773-44.68018l16.46777-19.76123A43.12636,43.12636,0,0,1,352,88,112.12706,112.12706,0,0,1,464,200V400a8.00035,8.00035,0,0,0,2.34277,5.65674l4.6875,4.687A30.44063,30.44063,0,0,1,478.9502,424H438.11865a25.59152,25.59152,0,0,0-4.05713-26.02246L400,357.10352V344a56.06322,56.06322,0,0,0-56-56H328v16h16a40.04552,40.04552,0,0,1,40,40v16a8.00012,8.00012,0,0,0,1.85449,5.12158l35.916,43.09912A9.62073,9.62073,0,0,1,414.37988,424H337.1748a27.30629,27.30629,0,0,1,16.07911-17.48584l17.71679-7.08643-5.9414-14.85546-17.71778,7.08642A43.20733,43.20733,0,0,0,320.73291,424H320a78.01807,78.01807,0,0,1-74.72754-55.59961l-5.60937-18.69922-15.32618,4.59766,5.61036,18.69922a93.34958,93.34958,0,0,0,33.93066,48.41406c1.13086.84131,2.2793,1.6488,3.439,2.435a77.98276,77.98276,0,0,1-70.04443-55.44672l-5.60937-18.69922-15.32618,4.59766,5.61036,18.69922a93.34958,93.34958,0,0,0,33.93066,48.41406c1.20605.89728,2.43359,1.7533,3.67212,2.58789H176a43.70712,43.70712,0,0,0-38.9209-43.48486l-8.39062-.93262A27.72309,27.72309,0,0,1,104,352H88a43.70712,43.70712,0,0,0,38.9209,43.48486l8.39062.93262A27.72309,27.72309,0,0,1,160,424H32Z"/></svg>
