<?xml version="1.0"?>
<svg xmlns="http://www.w3.org/2000/svg" id="filled_outline" data-name="filled outline" viewBox="0 0 512 512" width="512" height="512"><path d="M200,336l0,0a144.04391,144.04391,0,0,1-45.113,52.795L128,408l8,32H104L88,392l48-40V240.00006h64Z" style="fill:#e9d5c6"/><path d="M488,152v80l-28.68994,28.69A40.12306,40.12306,0,0,1,456,263.64V264a63.99827,63.99827,0,0,1-25.6001,51.2L424,320V440H408l-16-24V369.62a34.66757,34.66757,0,0,1-10.16992,24.55L352,424l-16-24,16-24-56-48H264v56l40,56H264l-40-48-8-48-22.76-11.38A103.5555,103.5555,0,0,1,136,240a48.00395,48.00395,0,0,0-48,48v11.65A98.63222,98.63222,0,0,1,24,392V288A120.00531,120.00531,0,0,1,144,168H376V152a32.004,32.004,0,0,1,32-32l16,40h16l16-40a31.99139,31.99139,0,0,1,32,32Z" style="fill:#f2e7df"/><path d="M456,263.64V264a63.99827,63.99827,0,0,1-25.6001,51.2L424,320V440H408l-16-24V369.62a34.71437,34.71437,0,0,0-4.95-17.87L368,320V224l36.68994,36.69A38.624,38.624,0,0,0,456,263.64Z" style="fill:#e9d5c6"/><polygon points="296 328 264 328 264 300.57 296 328" style="fill:#e9d5c6"/><path d="M408,200h-8v8a8,8,0,0,0,8,8h8v-8A8,8,0,0,0,408,200Z"/><path d="M448,208v8h8a8,8,0,0,0,8-8v-8h-8A8,8,0,0,0,448,208Z"/><path d="M436,232h-8a3.99992,3.99992,0,0,0-4,4v4a8,8,0,0,0,16,0v-4A3.99992,3.99992,0,0,0,436,232Z"/><path d="M456,112a7.99975,7.99975,0,0,0-7.42773,5.02881L434.584,152h-5.16772l-13.98853-34.97119A7.99975,7.99975,0,0,0,408,112a40.04552,40.04552,0,0,0-40,40v8H144A128.14509,128.14509,0,0,0,16,288V392a8.00024,8.00024,0,0,0,10.80859,7.49072,106.15574,106.15574,0,0,0,50.20313-39.10547A106.15808,106.15808,0,0,0,96,299.648V288a40.06455,40.06455,0,0,1,32-39.19025v99.44318L82.87891,385.854a8.00078,8.00078,0,0,0-2.46875,8.67579l16,48A8.00071,8.00071,0,0,0,104,448h32a7.99948,7.99948,0,0,0,7.76074-9.94043L137.082,411.34375l22.4541-16.03906a152.66465,152.66465,0,0,0,43.83838-48.6731l5.40381,2.70191,7.33008,43.98193a8.0031,8.0031,0,0,0,1.74609,3.80615l40,48A7.99975,7.99975,0,0,0,264,448h40a8,8,0,0,0,6.50977-12.6499L272,381.43652V336h21.041l48.37011,41.46045L329.34375,395.5625a7.99771,7.99771,0,0,0,0,8.875l16,24a7.99743,7.99743,0,0,0,5.86816,3.52344q.39552.03954.78809.03906a8.00056,8.00056,0,0,0,5.65723-2.34326L384,403.314V416a7.99983,7.99983,0,0,0,1.34375,4.4375l16,24A7.99943,7.99943,0,0,0,408,448h16a8.00008,8.00008,0,0,0,8-8V324.00049l3.2002-2.40039a72.37243,72.37243,0,0,0,28.71289-54.2497c.35449-.33325.71215-.66168,1.05761-1.00714l28.68653-28.68652A8.00035,8.00035,0,0,0,496,232V152A40.04552,40.04552,0,0,0,456,112ZM150.23633,382.28516l-26.88672,19.20507a7.99907,7.99907,0,0,0-3.11035,8.4502L125.75391,432H109.76562L97.31641,394.65039,141.12109,358.146A8.00036,8.00036,0,0,0,144,352V297.54279c.22144.36755.43433.73938.66016,1.10467a111.46661,111.46661,0,0,0,44.396,40.81165A136.61,136.61,0,0,1,150.23633,382.28516ZM480,228.68652,453.65723,255.0293a30.6274,30.6274,0,0,1-43.31348.00049l-28.68652-28.68653-11.31446,11.31348,28.6875,28.687a46.69116,46.69116,0,0,0,47.208,11.44086,56.26443,56.26443,0,0,1-20.63769,31.01519l-6.40039,4.79981A8.0002,8.0002,0,0,0,416,320V432h-3.71875L400,413.57764v-43.96a42.73448,42.73448,0,0,0-6.08789-21.981L376,317.78418V280H360v40a8.006,8.006,0,0,0,1.13965,4.11572l19.05273,31.75342a26.723,26.723,0,0,1-4.01953,32.644l-22.92969,22.92969L345.61523,400l13.041-19.5625a8,8,0,0,0-1.4502-10.51172l-56-48A7.99748,7.99748,0,0,0,296,320H272V280H256V384a8.003,8.003,0,0,0,1.49023,4.6499L288.4541,432h-20.707l-36.21289-43.45508-7.64258-45.86035a8.00049,8.00049,0,0,0-4.31348-5.83984l-22.75683-11.37842A95.03375,95.03375,0,0,1,144,240a8.00008,8.00008,0,0,0-8-8,56.06322,56.06322,0,0,0-56,56V299.648a91.13052,91.13052,0,0,1-48,79.96826V288A112.12706,112.12706,0,0,1,144,176H368v16h16V152a24.04386,24.04386,0,0,1,18.80957-23.43506L412.18359,152H400v16h40a7.99975,7.99975,0,0,0,7.42773-5.02881l13.7627-34.40625A24.04386,24.04386,0,0,1,480,152Z"/></svg>
