<svg width="1080" height="1920" viewBox="0 0 1080 1920" fill="none" xmlns="http://www.w3.org/2000/svg">
<g clip-path="url(#clip0_210_86)">
<rect width="1080" height="1920" fill="white"/>
<rect width="1080" height="1920" fill="url(#paint0_linear_210_86)"/>
<g filter="url(#filter0_b_210_86)">
<path d="M607.496 1423.44C617.827 1425.02 621.341 1438.14 613.184 1444.67L62.5927 1885.69C55.8339 1891.1 45.7409 1887.79 43.4996 1879.43L-103.245 1331.77C-105.487 1323.41 -98.4005 1315.49 -89.8403 1316.8L607.496 1423.44Z" fill="#746CAB" fill-opacity="0.5"/>
</g>
<path d="M403.817 1171.34C393.429 1172.48 386.641 1160.73 392.829 1152.3L870.127 502.671C875.254 495.693 885.86 496.277 890.19 503.777L1214.14 1064.87C1218.47 1072.37 1213.67 1081.85 1205.06 1082.8L403.817 1171.34Z" fill="#746CAB" fill-opacity="0.3"/>
<path d="M387.912 -47.3016C394.656 -55.285 407.674 -51.4294 408.984 -41.0605L491.483 612.336C492.568 620.927 484.473 627.804 476.17 625.345L-31.3549 475.026C-39.658 472.567 -42.7022 462.391 -37.1135 455.776L387.912 -47.3016Z" fill="#746CAB" fill-opacity="0.4"/>
<g filter="url(#filter1_d_210_86)">
<path d="M50 81C50 74.3726 55.3726 69 62 69H1017C1023.63 69 1029 74.3726 1029 81V379C1029 385.627 1023.63 391 1017 391H62C55.3726 391 50 385.627 50 379V81Z" fill="white"/>
</g>
<path d="M427 364.5C425.762 364.5 424.703 364.059 423.822 363.178C422.941 362.297 422.5 361.237 422.5 360V335.25C422.5 334.012 422.941 332.953 423.822 332.072C424.703 331.191 425.762 330.75 427 330.75H438.25V324C438.25 322.762 438.691 321.703 439.572 320.822C440.453 319.941 441.512 319.5 442.75 319.5H447.25C448.487 319.5 449.547 319.941 450.428 320.822C451.309 321.703 451.75 322.762 451.75 324V330.75H463C464.237 330.75 465.297 331.191 466.178 332.072C467.059 332.953 467.5 334.012 467.5 335.25V360C467.5 361.237 467.059 362.297 466.178 363.178C465.297 364.059 464.237 364.5 463 364.5H427ZM427 360H463V335.25H451.75C451.75 336.487 451.309 337.547 450.428 338.428C449.547 339.309 448.487 339.75 447.25 339.75H442.75C441.512 339.75 440.453 339.309 439.572 338.428C438.691 337.547 438.25 336.487 438.25 335.25H427V360ZM431.5 355.5H445V354.487C445 353.85 444.822 353.259 444.466 352.716C444.109 352.172 443.612 351.75 442.975 351.45C442.225 351.112 441.466 350.859 440.697 350.691C439.928 350.522 439.112 350.437 438.25 350.437C437.387 350.437 436.572 350.522 435.803 350.691C435.034 350.859 434.275 351.112 433.525 351.45C432.887 351.75 432.391 352.172 432.034 352.716C431.678 353.259 431.5 353.85 431.5 354.487V355.5ZM449.5 352.125H458.5V348.75H449.5V352.125ZM438.25 348.75C439.187 348.75 439.984 348.422 440.641 347.766C441.297 347.109 441.625 346.312 441.625 345.375C441.625 344.437 441.297 343.641 440.641 342.984C439.984 342.328 439.187 342 438.25 342C437.312 342 436.516 342.328 435.859 342.984C435.203 343.641 434.875 344.437 434.875 345.375C434.875 346.312 435.203 347.109 435.859 347.766C436.516 348.422 437.312 348.75 438.25 348.75ZM449.5 345.375H458.5V342H449.5V345.375ZM442.75 335.25H447.25V324H442.75V335.25Z" fill="#8F8F8F"/>
<path d="M462.887 214.25C458.2 214.25 453.569 213.228 448.994 211.184C444.419 209.141 440.256 206.244 436.506 202.494C432.756 198.744 429.859 194.581 427.816 190.006C425.772 185.431 424.75 180.8 424.75 176.112C424.75 175.437 424.975 174.875 425.425 174.425C425.875 173.975 426.437 173.75 427.112 173.75H436.225C436.75 173.75 437.219 173.928 437.631 174.284C438.044 174.641 438.287 175.062 438.362 175.55L439.825 183.425C439.9 184.025 439.881 184.531 439.769 184.944C439.656 185.356 439.45 185.712 439.15 186.012L433.694 191.525C434.444 192.912 435.334 194.253 436.366 195.547C437.397 196.841 438.531 198.087 439.769 199.287C440.931 200.45 442.15 201.528 443.425 202.522C444.7 203.516 446.05 204.425 447.475 205.25L452.762 199.962C453.1 199.625 453.541 199.372 454.084 199.203C454.628 199.034 455.162 198.987 455.687 199.062L463.45 200.637C463.975 200.787 464.406 201.059 464.744 201.453C465.081 201.847 465.25 202.287 465.25 202.775V211.887C465.25 212.562 465.025 213.125 464.575 213.575C464.125 214.025 463.562 214.25 462.887 214.25ZM431.556 187.25L435.269 183.537L434.312 178.25H429.306C429.494 179.787 429.756 181.306 430.094 182.806C430.431 184.306 430.919 185.787 431.556 187.25ZM451.694 207.387C453.156 208.025 454.647 208.531 456.166 208.906C457.684 209.281 459.212 209.525 460.75 209.637V204.687L455.462 203.619L451.694 207.387Z" fill="#8F8F8F"/>
<path d="M427 286C425.762 286 424.703 285.559 423.822 284.678C422.941 283.797 422.5 282.737 422.5 281.5V254.5C422.5 253.262 422.941 252.203 423.822 251.322C424.703 250.441 425.762 250 427 250H463C464.237 250 465.297 250.441 466.178 251.322C467.059 252.203 467.5 253.262 467.5 254.5V281.5C467.5 282.737 467.059 283.797 466.178 284.678C465.297 285.559 464.237 286 463 286H427ZM445 270.25L427 259V281.5H463V259L445 270.25ZM445 265.75L463 254.5H427L445 265.75ZM427 259V254.5V281.5V259Z" fill="#8F8F8F"/>
<path d="M445 120C442.525 120 440.406 119.119 438.644 117.356C436.881 115.594 436 113.475 436 111C436 108.525 436.881 106.406 438.644 104.644C440.406 102.881 442.525 102 445 102C447.475 102 449.594 102.881 451.356 104.644C453.119 106.406 454 108.525 454 111C454 113.475 453.119 115.594 451.356 117.356C449.594 119.119 447.475 120 445 120ZM427 138V131.7C427 130.425 427.328 129.253 427.984 128.184C428.641 127.116 429.512 126.3 430.6 125.737C432.925 124.575 435.287 123.703 437.687 123.122C440.087 122.541 442.525 122.25 445 122.25C447.475 122.25 449.912 122.541 452.312 123.122C454.712 123.703 457.075 124.575 459.4 125.737C460.487 126.3 461.359 127.116 462.016 128.184C462.672 129.253 463 130.425 463 131.7V138H427ZM431.5 133.5H458.5V131.7C458.5 131.287 458.397 130.912 458.191 130.575C457.984 130.237 457.712 129.975 457.375 129.787C455.35 128.775 453.306 128.016 451.244 127.509C449.181 127.003 447.1 126.75 445 126.75C442.9 126.75 440.819 127.003 438.756 127.509C436.694 128.016 434.65 128.775 432.625 129.787C432.287 129.975 432.016 130.237 431.809 130.575C431.603 130.912 431.5 131.287 431.5 131.7V133.5ZM445 115.5C446.237 115.5 447.297 115.059 448.178 114.178C449.059 113.297 449.5 112.237 449.5 111C449.5 109.762 449.059 108.703 448.178 107.822C447.297 106.941 446.237 106.5 445 106.5C443.762 106.5 442.703 106.941 441.822 107.822C440.941 108.703 440.5 109.762 440.5 111C440.5 112.237 440.941 113.297 441.822 114.178C442.703 115.059 443.762 115.5 445 115.5Z" fill="#8F8F8F"/>
<g filter="url(#filter2_d_210_86)">
<path d="M50 470C50 463.373 55.3726 458 62 458H1017C1023.63 458 1029 463.373 1029 470V768C1029 774.627 1023.63 780 1017 780H62C55.3726 780 50 774.627 50 768V470Z" fill="white"/>
</g>
<path d="M427 753.5C425.762 753.5 424.703 753.059 423.822 752.178C422.941 751.297 422.5 750.237 422.5 749V724.25C422.5 723.012 422.941 721.953 423.822 721.072C424.703 720.191 425.762 719.75 427 719.75H438.25V713C438.25 711.762 438.691 710.703 439.572 709.822C440.453 708.941 441.512 708.5 442.75 708.5H447.25C448.487 708.5 449.547 708.941 450.428 709.822C451.309 710.703 451.75 711.762 451.75 713V719.75H463C464.237 719.75 465.297 720.191 466.178 721.072C467.059 721.953 467.5 723.012 467.5 724.25V749C467.5 750.237 467.059 751.297 466.178 752.178C465.297 753.059 464.237 753.5 463 753.5H427ZM427 749H463V724.25H451.75C451.75 725.487 451.309 726.547 450.428 727.428C449.547 728.309 448.487 728.75 447.25 728.75H442.75C441.512 728.75 440.453 728.309 439.572 727.428C438.691 726.547 438.25 725.487 438.25 724.25H427V749ZM431.5 744.5H445V743.487C445 742.85 444.822 742.259 444.466 741.716C444.109 741.172 443.612 740.75 442.975 740.45C442.225 740.112 441.466 739.859 440.697 739.691C439.928 739.522 439.112 739.437 438.25 739.437C437.387 739.437 436.572 739.522 435.803 739.691C435.034 739.859 434.275 740.112 433.525 740.45C432.887 740.75 432.391 741.172 432.034 741.716C431.678 742.259 431.5 742.85 431.5 743.487V744.5ZM449.5 741.125H458.5V737.75H449.5V741.125ZM438.25 737.75C439.187 737.75 439.984 737.422 440.641 736.766C441.297 736.109 441.625 735.312 441.625 734.375C441.625 733.437 441.297 732.641 440.641 731.984C439.984 731.328 439.187 731 438.25 731C437.312 731 436.516 731.328 435.859 731.984C435.203 732.641 434.875 733.437 434.875 734.375C434.875 735.312 435.203 736.109 435.859 736.766C436.516 737.422 437.312 737.75 438.25 737.75ZM449.5 734.375H458.5V731H449.5V734.375ZM442.75 724.25H447.25V713H442.75V724.25Z" fill="#8F8F8F"/>
<path d="M462.887 603.25C458.2 603.25 453.569 602.228 448.994 600.184C444.419 598.141 440.256 595.244 436.506 591.494C432.756 587.744 429.859 583.581 427.816 579.006C425.772 574.431 424.75 569.8 424.75 565.112C424.75 564.437 424.975 563.875 425.425 563.425C425.875 562.975 426.437 562.75 427.112 562.75H436.225C436.75 562.75 437.219 562.928 437.631 563.284C438.044 563.641 438.287 564.062 438.362 564.55L439.825 572.425C439.9 573.025 439.881 573.531 439.769 573.944C439.656 574.356 439.45 574.712 439.15 575.012L433.694 580.525C434.444 581.912 435.334 583.253 436.366 584.547C437.397 585.841 438.531 587.087 439.769 588.287C440.931 589.45 442.15 590.528 443.425 591.522C444.7 592.516 446.05 593.425 447.475 594.25L452.762 588.962C453.1 588.625 453.541 588.372 454.084 588.203C454.628 588.034 455.162 587.987 455.687 588.062L463.45 589.637C463.975 589.787 464.406 590.059 464.744 590.453C465.081 590.847 465.25 591.287 465.25 591.775V600.887C465.25 601.562 465.025 602.125 464.575 602.575C464.125 603.025 463.562 603.25 462.887 603.25ZM431.556 576.25L435.269 572.537L434.312 567.25H429.306C429.494 568.787 429.756 570.306 430.094 571.806C430.431 573.306 430.919 574.787 431.556 576.25ZM451.694 596.387C453.156 597.025 454.647 597.531 456.166 597.906C457.684 598.281 459.212 598.525 460.75 598.637V593.687L455.462 592.619L451.694 596.387Z" fill="#8F8F8F"/>
<path d="M427 675C425.762 675 424.703 674.559 423.822 673.678C422.941 672.797 422.5 671.737 422.5 670.5V643.5C422.5 642.262 422.941 641.203 423.822 640.322C424.703 639.441 425.762 639 427 639H463C464.237 639 465.297 639.441 466.178 640.322C467.059 641.203 467.5 642.262 467.5 643.5V670.5C467.5 671.737 467.059 672.797 466.178 673.678C465.297 674.559 464.237 675 463 675H427ZM445 659.25L427 648V670.5H463V648L445 659.25ZM445 654.75L463 643.5H427L445 654.75ZM427 648V643.5V670.5V648Z" fill="#8F8F8F"/>
<path d="M445 509C442.525 509 440.406 508.119 438.644 506.356C436.881 504.594 436 502.475 436 500C436 497.525 436.881 495.406 438.644 493.644C440.406 491.881 442.525 491 445 491C447.475 491 449.594 491.881 451.356 493.644C453.119 495.406 454 497.525 454 500C454 502.475 453.119 504.594 451.356 506.356C449.594 508.119 447.475 509 445 509ZM427 527V520.7C427 519.425 427.328 518.253 427.984 517.184C428.641 516.116 429.512 515.3 430.6 514.737C432.925 513.575 435.287 512.703 437.687 512.122C440.087 511.541 442.525 511.25 445 511.25C447.475 511.25 449.912 511.541 452.312 512.122C454.712 512.703 457.075 513.575 459.4 514.737C460.487 515.3 461.359 516.116 462.016 517.184C462.672 518.253 463 519.425 463 520.7V527H427ZM431.5 522.5H458.5V520.7C458.5 520.287 458.397 519.912 458.191 519.575C457.984 519.237 457.712 518.975 457.375 518.787C455.35 517.775 453.306 517.016 451.244 516.509C449.181 516.003 447.1 515.75 445 515.75C442.9 515.75 440.819 516.003 438.756 516.509C436.694 517.016 434.65 517.775 432.625 518.787C432.287 518.975 432.016 519.237 431.809 519.575C431.603 519.912 431.5 520.287 431.5 520.7V522.5ZM445 504.5C446.237 504.5 447.297 504.059 448.178 503.178C449.059 502.297 449.5 501.237 449.5 500C449.5 498.762 449.059 497.703 448.178 496.822C447.297 495.941 446.237 495.5 445 495.5C443.762 495.5 442.703 495.941 441.822 496.822C440.941 497.703 440.5 498.762 440.5 500C440.5 501.237 440.941 502.297 441.822 503.178C442.703 504.059 443.762 504.5 445 504.5Z" fill="#8F8F8F"/>
<g filter="url(#filter3_d_210_86)">
<path d="M50 859C50 852.373 55.3726 847 62 847H1017C1023.63 847 1029 852.373 1029 859V1157C1029 1163.63 1023.63 1169 1017 1169H62C55.3726 1169 50 1163.63 50 1157V859Z" fill="white"/>
</g>
<path d="M427 1142.5C425.762 1142.5 424.703 1142.06 423.822 1141.18C422.941 1140.3 422.5 1139.24 422.5 1138V1113.25C422.5 1112.01 422.941 1110.95 423.822 1110.07C424.703 1109.19 425.762 1108.75 427 1108.75H438.25V1102C438.25 1100.76 438.691 1099.7 439.572 1098.82C440.453 1097.94 441.512 1097.5 442.75 1097.5H447.25C448.487 1097.5 449.547 1097.94 450.428 1098.82C451.309 1099.7 451.75 1100.76 451.75 1102V1108.75H463C464.237 1108.75 465.297 1109.19 466.178 1110.07C467.059 1110.95 467.5 1112.01 467.5 1113.25V1138C467.5 1139.24 467.059 1140.3 466.178 1141.18C465.297 1142.06 464.237 1142.5 463 1142.5H427ZM427 1138H463V1113.25H451.75C451.75 1114.49 451.309 1115.55 450.428 1116.43C449.547 1117.31 448.487 1117.75 447.25 1117.75H442.75C441.512 1117.75 440.453 1117.31 439.572 1116.43C438.691 1115.55 438.25 1114.49 438.25 1113.25H427V1138ZM431.5 1133.5H445V1132.49C445 1131.85 444.822 1131.26 444.466 1130.72C444.109 1130.17 443.612 1129.75 442.975 1129.45C442.225 1129.11 441.466 1128.86 440.697 1128.69C439.928 1128.52 439.112 1128.44 438.25 1128.44C437.387 1128.44 436.572 1128.52 435.803 1128.69C435.034 1128.86 434.275 1129.11 433.525 1129.45C432.887 1129.75 432.391 1130.17 432.034 1130.72C431.678 1131.26 431.5 1131.85 431.5 1132.49V1133.5ZM449.5 1130.12H458.5V1126.75H449.5V1130.12ZM438.25 1126.75C439.187 1126.75 439.984 1126.42 440.641 1125.77C441.297 1125.11 441.625 1124.31 441.625 1123.37C441.625 1122.44 441.297 1121.64 440.641 1120.98C439.984 1120.33 439.187 1120 438.25 1120C437.312 1120 436.516 1120.33 435.859 1120.98C435.203 1121.64 434.875 1122.44 434.875 1123.37C434.875 1124.31 435.203 1125.11 435.859 1125.77C436.516 1126.42 437.312 1126.75 438.25 1126.75ZM449.5 1123.37H458.5V1120H449.5V1123.37ZM442.75 1113.25H447.25V1102H442.75V1113.25Z" fill="#8F8F8F"/>
<path d="M462.887 992.25C458.2 992.25 453.569 991.228 448.994 989.184C444.419 987.141 440.256 984.244 436.506 980.494C432.756 976.744 429.859 972.581 427.816 968.006C425.772 963.431 424.75 958.8 424.75 954.112C424.75 953.437 424.975 952.875 425.425 952.425C425.875 951.975 426.437 951.75 427.112 951.75H436.225C436.75 951.75 437.219 951.928 437.631 952.284C438.044 952.641 438.287 953.062 438.362 953.55L439.825 961.425C439.9 962.025 439.881 962.531 439.769 962.944C439.656 963.356 439.45 963.712 439.15 964.012L433.694 969.525C434.444 970.912 435.334 972.253 436.366 973.547C437.397 974.841 438.531 976.087 439.769 977.287C440.931 978.45 442.15 979.528 443.425 980.522C444.7 981.516 446.05 982.425 447.475 983.25L452.762 977.962C453.1 977.625 453.541 977.372 454.084 977.203C454.628 977.034 455.162 976.987 455.687 977.062L463.45 978.637C463.975 978.787 464.406 979.059 464.744 979.453C465.081 979.847 465.25 980.287 465.25 980.775V989.887C465.25 990.562 465.025 991.125 464.575 991.575C464.125 992.025 463.562 992.25 462.887 992.25ZM431.556 965.25L435.269 961.537L434.312 956.25H429.306C429.494 957.787 429.756 959.306 430.094 960.806C430.431 962.306 430.919 963.787 431.556 965.25ZM451.694 985.387C453.156 986.025 454.647 986.531 456.166 986.906C457.684 987.281 459.212 987.525 460.75 987.637V982.687L455.462 981.619L451.694 985.387Z" fill="#8F8F8F"/>
<path d="M427 1064C425.762 1064 424.703 1063.56 423.822 1062.68C422.941 1061.8 422.5 1060.74 422.5 1059.5V1032.5C422.5 1031.26 422.941 1030.2 423.822 1029.32C424.703 1028.44 425.762 1028 427 1028H463C464.237 1028 465.297 1028.44 466.178 1029.32C467.059 1030.2 467.5 1031.26 467.5 1032.5V1059.5C467.5 1060.74 467.059 1061.8 466.178 1062.68C465.297 1063.56 464.237 1064 463 1064H427ZM445 1048.25L427 1037V1059.5H463V1037L445 1048.25ZM445 1043.75L463 1032.5H427L445 1043.75ZM427 1037V1032.5V1059.5V1037Z" fill="#8F8F8F"/>
<path d="M445 898C442.525 898 440.406 897.119 438.644 895.356C436.881 893.594 436 891.475 436 889C436 886.525 436.881 884.406 438.644 882.644C440.406 880.881 442.525 880 445 880C447.475 880 449.594 880.881 451.356 882.644C453.119 884.406 454 886.525 454 889C454 891.475 453.119 893.594 451.356 895.356C449.594 897.119 447.475 898 445 898ZM427 916V909.7C427 908.425 427.328 907.253 427.984 906.184C428.641 905.116 429.512 904.3 430.6 903.737C432.925 902.575 435.287 901.703 437.687 901.122C440.087 900.541 442.525 900.25 445 900.25C447.475 900.25 449.912 900.541 452.312 901.122C454.712 901.703 457.075 902.575 459.4 903.737C460.487 904.3 461.359 905.116 462.016 906.184C462.672 907.253 463 908.425 463 909.7V916H427ZM431.5 911.5H458.5V909.7C458.5 909.287 458.397 908.912 458.191 908.575C457.984 908.237 457.712 907.975 457.375 907.787C455.35 906.775 453.306 906.016 451.244 905.509C449.181 905.003 447.1 904.75 445 904.75C442.9 904.75 440.819 905.003 438.756 905.509C436.694 906.016 434.65 906.775 432.625 907.787C432.287 907.975 432.016 908.237 431.809 908.575C431.603 908.912 431.5 909.287 431.5 909.7V911.5ZM445 893.5C446.237 893.5 447.297 893.059 448.178 892.178C449.059 891.297 449.5 890.237 449.5 889C449.5 887.762 449.059 886.703 448.178 885.822C447.297 884.941 446.237 884.5 445 884.5C443.762 884.5 442.703 884.941 441.822 885.822C440.941 886.703 440.5 887.762 440.5 889C440.5 890.237 440.941 891.297 441.822 892.178C442.703 893.059 443.762 893.5 445 893.5Z" fill="#8F8F8F"/>
<g filter="url(#filter4_d_210_86)">
<path d="M50 1248C50 1241.37 55.3726 1236 62 1236H1017C1023.63 1236 1029 1241.37 1029 1248V1546C1029 1552.63 1023.63 1558 1017 1558H62C55.3726 1558 50 1552.63 50 1546V1248Z" fill="white"/>
</g>
<path d="M427 1531.5C425.762 1531.5 424.703 1531.06 423.822 1530.18C422.941 1529.3 422.5 1528.24 422.5 1527V1502.25C422.5 1501.01 422.941 1499.95 423.822 1499.07C424.703 1498.19 425.762 1497.75 427 1497.75H438.25V1491C438.25 1489.76 438.691 1488.7 439.572 1487.82C440.453 1486.94 441.512 1486.5 442.75 1486.5H447.25C448.487 1486.5 449.547 1486.94 450.428 1487.82C451.309 1488.7 451.75 1489.76 451.75 1491V1497.75H463C464.237 1497.75 465.297 1498.19 466.178 1499.07C467.059 1499.95 467.5 1501.01 467.5 1502.25V1527C467.5 1528.24 467.059 1529.3 466.178 1530.18C465.297 1531.06 464.237 1531.5 463 1531.5H427ZM427 1527H463V1502.25H451.75C451.75 1503.49 451.309 1504.55 450.428 1505.43C449.547 1506.31 448.487 1506.75 447.25 1506.75H442.75C441.512 1506.75 440.453 1506.31 439.572 1505.43C438.691 1504.55 438.25 1503.49 438.25 1502.25H427V1527ZM431.5 1522.5H445V1521.49C445 1520.85 444.822 1520.26 444.466 1519.72C444.109 1519.17 443.612 1518.75 442.975 1518.45C442.225 1518.11 441.466 1517.86 440.697 1517.69C439.928 1517.52 439.112 1517.44 438.25 1517.44C437.387 1517.44 436.572 1517.52 435.803 1517.69C435.034 1517.86 434.275 1518.11 433.525 1518.45C432.887 1518.75 432.391 1519.17 432.034 1519.72C431.678 1520.26 431.5 1520.85 431.5 1521.49V1522.5ZM449.5 1519.12H458.5V1515.75H449.5V1519.12ZM438.25 1515.75C439.187 1515.75 439.984 1515.42 440.641 1514.77C441.297 1514.11 441.625 1513.31 441.625 1512.37C441.625 1511.44 441.297 1510.64 440.641 1509.98C439.984 1509.33 439.187 1509 438.25 1509C437.312 1509 436.516 1509.33 435.859 1509.98C435.203 1510.64 434.875 1511.44 434.875 1512.37C434.875 1513.31 435.203 1514.11 435.859 1514.77C436.516 1515.42 437.312 1515.75 438.25 1515.75ZM449.5 1512.37H458.5V1509H449.5V1512.37ZM442.75 1502.25H447.25V1491H442.75V1502.25Z" fill="#8F8F8F"/>
<path d="M462.887 1381.25C458.2 1381.25 453.569 1380.23 448.994 1378.18C444.419 1376.14 440.256 1373.24 436.506 1369.49C432.756 1365.74 429.859 1361.58 427.816 1357.01C425.772 1352.43 424.75 1347.8 424.75 1343.11C424.75 1342.44 424.975 1341.87 425.425 1341.42C425.875 1340.97 426.437 1340.75 427.112 1340.75H436.225C436.75 1340.75 437.219 1340.93 437.631 1341.28C438.044 1341.64 438.287 1342.06 438.362 1342.55L439.825 1350.42C439.9 1351.02 439.881 1351.53 439.769 1351.94C439.656 1352.36 439.45 1352.71 439.15 1353.01L433.694 1358.52C434.444 1359.91 435.334 1361.25 436.366 1362.55C437.397 1363.84 438.531 1365.09 439.769 1366.29C440.931 1367.45 442.15 1368.53 443.425 1369.52C444.7 1370.52 446.05 1371.42 447.475 1372.25L452.762 1366.96C453.1 1366.62 453.541 1366.37 454.084 1366.2C454.628 1366.03 455.162 1365.99 455.687 1366.06L463.45 1367.64C463.975 1367.79 464.406 1368.06 464.744 1368.45C465.081 1368.85 465.25 1369.29 465.25 1369.77V1378.89C465.25 1379.56 465.025 1380.12 464.575 1380.57C464.125 1381.02 463.562 1381.25 462.887 1381.25ZM431.556 1354.25L435.269 1350.54L434.312 1345.25H429.306C429.494 1346.79 429.756 1348.31 430.094 1349.81C430.431 1351.31 430.919 1352.79 431.556 1354.25ZM451.694 1374.39C453.156 1375.02 454.647 1375.53 456.166 1375.91C457.684 1376.28 459.212 1376.52 460.75 1376.64V1371.69L455.462 1370.62L451.694 1374.39Z" fill="#8F8F8F"/>
<path d="M427 1453C425.762 1453 424.703 1452.56 423.822 1451.68C422.941 1450.8 422.5 1449.74 422.5 1448.5V1421.5C422.5 1420.26 422.941 1419.2 423.822 1418.32C424.703 1417.44 425.762 1417 427 1417H463C464.237 1417 465.297 1417.44 466.178 1418.32C467.059 1419.2 467.5 1420.26 467.5 1421.5V1448.5C467.5 1449.74 467.059 1450.8 466.178 1451.68C465.297 1452.56 464.237 1453 463 1453H427ZM445 1437.25L427 1426V1448.5H463V1426L445 1437.25ZM445 1432.75L463 1421.5H427L445 1432.75ZM427 1426V1421.5V1448.5V1426Z" fill="#8F8F8F"/>
<path d="M445 1287C442.525 1287 440.406 1286.12 438.644 1284.36C436.881 1282.59 436 1280.47 436 1278C436 1275.52 436.881 1273.41 438.644 1271.64C440.406 1269.88 442.525 1269 445 1269C447.475 1269 449.594 1269.88 451.356 1271.64C453.119 1273.41 454 1275.52 454 1278C454 1280.47 453.119 1282.59 451.356 1284.36C449.594 1286.12 447.475 1287 445 1287ZM427 1305V1298.7C427 1297.42 427.328 1296.25 427.984 1295.18C428.641 1294.12 429.512 1293.3 430.6 1292.74C432.925 1291.57 435.287 1290.7 437.687 1290.12C440.087 1289.54 442.525 1289.25 445 1289.25C447.475 1289.25 449.912 1289.54 452.312 1290.12C454.712 1290.7 457.075 1291.57 459.4 1292.74C460.487 1293.3 461.359 1294.12 462.016 1295.18C462.672 1296.25 463 1297.42 463 1298.7V1305H427ZM431.5 1300.5H458.5V1298.7C458.5 1298.29 458.397 1297.91 458.191 1297.57C457.984 1297.24 457.712 1296.97 457.375 1296.79C455.35 1295.77 453.306 1295.02 451.244 1294.51C449.181 1294 447.1 1293.75 445 1293.75C442.9 1293.75 440.819 1294 438.756 1294.51C436.694 1295.02 434.65 1295.77 432.625 1296.79C432.287 1296.97 432.016 1297.24 431.809 1297.57C431.603 1297.91 431.5 1298.29 431.5 1298.7V1300.5ZM445 1282.5C446.237 1282.5 447.297 1282.06 448.178 1281.18C449.059 1280.3 449.5 1279.24 449.5 1278C449.5 1276.76 449.059 1275.7 448.178 1274.82C447.297 1273.94 446.237 1273.5 445 1273.5C443.762 1273.5 442.703 1273.94 441.822 1274.82C440.941 1275.7 440.5 1276.76 440.5 1278C440.5 1279.24 440.941 1280.3 441.822 1281.18C442.703 1282.06 443.762 1282.5 445 1282.5Z" fill="#8F8F8F"/>
</g>
<defs>
<filter id="filter0_b_210_86" x="-107.664" y="1312.66" width="729.359" height="579.672" filterUnits="userSpaceOnUse" color-interpolation-filters="sRGB">
<feFlood flood-opacity="0" result="BackgroundImageFix"/>
<feGaussianBlur in="BackgroundImageFix" stdDeviation="2"/>
<feComposite in2="SourceAlpha" operator="in" result="effect1_backgroundBlur_210_86"/>
<feBlend mode="normal" in="SourceGraphic" in2="effect1_backgroundBlur_210_86" result="shape"/>
</filter>
<filter id="filter1_d_210_86" x="46" y="69" width="987" height="330" filterUnits="userSpaceOnUse" color-interpolation-filters="sRGB">
<feFlood flood-opacity="0" result="BackgroundImageFix"/>
<feColorMatrix in="SourceAlpha" type="matrix" values="0 0 0 0 0 0 0 0 0 0 0 0 0 0 0 0 0 0 127 0" result="hardAlpha"/>
<feOffset dy="4"/>
<feGaussianBlur stdDeviation="2"/>
<feComposite in2="hardAlpha" operator="out"/>
<feColorMatrix type="matrix" values="0 0 0 0 0 0 0 0 0 0 0 0 0 0 0 0 0 0 0.25 0"/>
<feBlend mode="normal" in2="BackgroundImageFix" result="effect1_dropShadow_210_86"/>
<feBlend mode="normal" in="SourceGraphic" in2="effect1_dropShadow_210_86" result="shape"/>
</filter>
<filter id="filter2_d_210_86" x="46" y="458" width="987" height="330" filterUnits="userSpaceOnUse" color-interpolation-filters="sRGB">
<feFlood flood-opacity="0" result="BackgroundImageFix"/>
<feColorMatrix in="SourceAlpha" type="matrix" values="0 0 0 0 0 0 0 0 0 0 0 0 0 0 0 0 0 0 127 0" result="hardAlpha"/>
<feOffset dy="4"/>
<feGaussianBlur stdDeviation="2"/>
<feComposite in2="hardAlpha" operator="out"/>
<feColorMatrix type="matrix" values="0 0 0 0 0 0 0 0 0 0 0 0 0 0 0 0 0 0 0.25 0"/>
<feBlend mode="normal" in2="BackgroundImageFix" result="effect1_dropShadow_210_86"/>
<feBlend mode="normal" in="SourceGraphic" in2="effect1_dropShadow_210_86" result="shape"/>
</filter>
<filter id="filter3_d_210_86" x="46" y="847" width="987" height="330" filterUnits="userSpaceOnUse" color-interpolation-filters="sRGB">
<feFlood flood-opacity="0" result="BackgroundImageFix"/>
<feColorMatrix in="SourceAlpha" type="matrix" values="0 0 0 0 0 0 0 0 0 0 0 0 0 0 0 0 0 0 127 0" result="hardAlpha"/>
<feOffset dy="4"/>
<feGaussianBlur stdDeviation="2"/>
<feComposite in2="hardAlpha" operator="out"/>
<feColorMatrix type="matrix" values="0 0 0 0 0 0 0 0 0 0 0 0 0 0 0 0 0 0 0.25 0"/>
<feBlend mode="normal" in2="BackgroundImageFix" result="effect1_dropShadow_210_86"/>
<feBlend mode="normal" in="SourceGraphic" in2="effect1_dropShadow_210_86" result="shape"/>
</filter>
<filter id="filter4_d_210_86" x="46" y="1236" width="987" height="330" filterUnits="userSpaceOnUse" color-interpolation-filters="sRGB">
<feFlood flood-opacity="0" result="BackgroundImageFix"/>
<feColorMatrix in="SourceAlpha" type="matrix" values="0 0 0 0 0 0 0 0 0 0 0 0 0 0 0 0 0 0 127 0" result="hardAlpha"/>
<feOffset dy="4"/>
<feGaussianBlur stdDeviation="2"/>
<feComposite in2="hardAlpha" operator="out"/>
<feColorMatrix type="matrix" values="0 0 0 0 0 0 0 0 0 0 0 0 0 0 0 0 0 0 0.25 0"/>
<feBlend mode="normal" in2="BackgroundImageFix" result="effect1_dropShadow_210_86"/>
<feBlend mode="normal" in="SourceGraphic" in2="effect1_dropShadow_210_86" result="shape"/>
</filter>
<linearGradient id="paint0_linear_210_86" x1="540" y1="0" x2="540" y2="1920" gradientUnits="userSpaceOnUse">
<stop stop-color="#535A99"/>
<stop offset="1" stop-color="#884B90"/>
</linearGradient>
<clipPath id="clip0_210_86">
<rect width="1080" height="1920" fill="white"/>
</clipPath>
</defs>
</svg>
