<svg width="1080" height="1920" viewBox="0 0 1080 1920" fill="none" xmlns="http://www.w3.org/2000/svg">
<g id="people-contanct" clip-path="url(#clip0_1_30)">
<g id="bg">
<rect id="bg_2" width="1080" height="1920" fill="url(#paint0_linear_1_30)"/>
<g id="Polygon 4" filter="url(#filter0_b_1_30)">
<path d="M607.496 1423.44C617.827 1425.02 621.341 1438.14 613.184 1444.67L62.5927 1885.69C55.8339 1891.1 45.7409 1887.79 43.4996 1879.43L-103.245 1331.77C-105.487 1323.41 -98.4005 1315.49 -89.8403 1316.8L607.496 1423.44Z" fill="#746CAB" fill-opacity="0.5"/>
</g>
<path id="Polygon 4_2" d="M403.817 1171.34C393.429 1172.48 386.641 1160.73 392.829 1152.3L870.127 502.671C875.254 495.693 885.86 496.277 890.19 503.777L1214.14 1064.87C1218.47 1072.37 1213.67 1081.85 1205.06 1082.8L403.817 1171.34Z" fill="#746CAB" fill-opacity="0.3"/>
<path id="Polygon 4_3" d="M387.912 -47.3016C394.656 -55.285 407.674 -51.4294 408.984 -41.0605L491.483 612.336C492.568 620.927 484.473 627.804 476.17 625.345L-31.3549 475.026C-39.658 472.567 -42.7022 462.391 -37.1135 455.776L387.912 -47.3016Z" fill="#746CAB" fill-opacity="0.4"/>
<g id="Group 206">
<g id="Rectangle 79" filter="url(#filter1_d_1_30)">
<path d="M50 53C50 46.3726 55.3726 41 62 41H1017C1023.63 41 1029 46.3726 1029 53V351C1029 357.627 1023.63 363 1017 363H62C55.3726 363 50 357.627 50 351V53Z" fill="white"/>
</g>
<g id="Group 200">
<g id="badge_FILL0_wght400_GRAD0_opsz24 2">
<path id="Vector" d="M427 336.5C425.762 336.5 424.703 336.059 423.822 335.178C422.941 334.297 422.5 333.237 422.5 332V307.25C422.5 306.012 422.941 304.953 423.822 304.072C424.703 303.191 425.762 302.75 427 302.75H438.25V296C438.25 294.762 438.691 293.703 439.572 292.822C440.453 291.941 441.512 291.5 442.75 291.5H447.25C448.487 291.5 449.547 291.941 450.428 292.822C451.309 293.703 451.75 294.762 451.75 296V302.75H463C464.237 302.75 465.297 303.191 466.178 304.072C467.059 304.953 467.5 306.012 467.5 307.25V332C467.5 333.237 467.059 334.297 466.178 335.178C465.297 336.059 464.237 336.5 463 336.5H427ZM427 332H463V307.25H451.75C451.75 308.487 451.309 309.547 450.428 310.428C449.547 311.309 448.487 311.75 447.25 311.75H442.75C441.512 311.75 440.453 311.309 439.572 310.428C438.691 309.547 438.25 308.487 438.25 307.25H427V332ZM431.5 327.5H445V326.487C445 325.85 444.822 325.259 444.466 324.716C444.109 324.172 443.612 323.75 442.975 323.45C442.225 323.112 441.466 322.859 440.697 322.691C439.928 322.522 439.112 322.437 438.25 322.437C437.387 322.437 436.572 322.522 435.803 322.691C435.034 322.859 434.275 323.112 433.525 323.45C432.887 323.75 432.391 324.172 432.034 324.716C431.678 325.259 431.5 325.85 431.5 326.487V327.5ZM449.5 324.125H458.5V320.75H449.5V324.125ZM438.25 320.75C439.187 320.75 439.984 320.422 440.641 319.766C441.297 319.109 441.625 318.312 441.625 317.375C441.625 316.437 441.297 315.641 440.641 314.984C439.984 314.328 439.187 314 438.25 314C437.312 314 436.516 314.328 435.859 314.984C435.203 315.641 434.875 316.437 434.875 317.375C434.875 318.312 435.203 319.109 435.859 319.766C436.516 320.422 437.312 320.75 438.25 320.75ZM449.5 317.375H458.5V314H449.5V317.375ZM442.75 307.25H447.25V296H442.75V307.25Z" fill="#8F8F8F"/>
</g>
<g id="call_FILL0_wght400_GRAD0_opsz24 2">
<path id="Vector_2" d="M462.887 186.25C458.2 186.25 453.569 185.228 448.994 183.184C444.419 181.141 440.256 178.244 436.506 174.494C432.756 170.744 429.859 166.581 427.816 162.006C425.772 157.431 424.75 152.8 424.75 148.112C424.75 147.437 424.975 146.875 425.425 146.425C425.875 145.975 426.437 145.75 427.112 145.75H436.225C436.75 145.75 437.219 145.928 437.631 146.284C438.044 146.641 438.287 147.062 438.362 147.55L439.825 155.425C439.9 156.025 439.881 156.531 439.769 156.944C439.656 157.356 439.45 157.712 439.15 158.012L433.694 163.525C434.444 164.912 435.334 166.253 436.366 167.547C437.397 168.841 438.531 170.087 439.769 171.287C440.931 172.45 442.15 173.528 443.425 174.522C444.7 175.516 446.05 176.425 447.475 177.25L452.762 171.962C453.1 171.625 453.541 171.372 454.084 171.203C454.628 171.034 455.162 170.987 455.687 171.062L463.45 172.637C463.975 172.787 464.406 173.059 464.744 173.453C465.081 173.847 465.25 174.287 465.25 174.775V183.887C465.25 184.562 465.025 185.125 464.575 185.575C464.125 186.025 463.562 186.25 462.887 186.25ZM431.556 159.25L435.269 155.537L434.312 150.25H429.306C429.494 151.787 429.756 153.306 430.094 154.806C430.431 156.306 430.919 157.787 431.556 159.25ZM451.694 179.387C453.156 180.025 454.647 180.531 456.166 180.906C457.684 181.281 459.212 181.525 460.75 181.637V176.687L455.462 175.619L451.694 179.387Z" fill="#8F8F8F"/>
</g>
<g id="mail_FILL0_wght400_GRAD0_opsz24 2">
<path id="Vector_3" d="M427 258C425.762 258 424.703 257.559 423.822 256.678C422.941 255.797 422.5 254.737 422.5 253.5V226.5C422.5 225.262 422.941 224.203 423.822 223.322C424.703 222.441 425.762 222 427 222H463C464.237 222 465.297 222.441 466.178 223.322C467.059 224.203 467.5 225.262 467.5 226.5V253.5C467.5 254.737 467.059 255.797 466.178 256.678C465.297 257.559 464.237 258 463 258H427ZM445 242.25L427 231V253.5H463V231L445 242.25ZM445 237.75L463 226.5H427L445 237.75ZM427 231V226.5V253.5V231Z" fill="#8F8F8F"/>
</g>
<g id="person_FILL0_wght400_GRAD0_opsz24 2">
<path id="Vector_4" d="M445 92C442.525 92 440.406 91.1187 438.644 89.3562C436.881 87.5937 436 85.475 436 83C436 80.525 436.881 78.4062 438.644 76.6437C440.406 74.8812 442.525 74 445 74C447.475 74 449.594 74.8812 451.356 76.6437C453.119 78.4062 454 80.525 454 83C454 85.475 453.119 87.5937 451.356 89.3562C449.594 91.1187 447.475 92 445 92ZM427 110V103.7C427 102.425 427.328 101.253 427.984 100.184C428.641 99.1156 429.512 98.3 430.6 97.7375C432.925 96.575 435.287 95.7031 437.687 95.1219C440.087 94.5406 442.525 94.25 445 94.25C447.475 94.25 449.912 94.5406 452.312 95.1219C454.712 95.7031 457.075 96.575 459.4 97.7375C460.487 98.3 461.359 99.1156 462.016 100.184C462.672 101.253 463 102.425 463 103.7V110H427ZM431.5 105.5H458.5V103.7C458.5 103.287 458.397 102.912 458.191 102.575C457.984 102.237 457.712 101.975 457.375 101.787C455.35 100.775 453.306 100.016 451.244 99.5094C449.181 99.0031 447.1 98.75 445 98.75C442.9 98.75 440.819 99.0031 438.756 99.5094C436.694 100.016 434.65 100.775 432.625 101.787C432.287 101.975 432.016 102.237 431.809 102.575C431.603 102.912 431.5 103.287 431.5 103.7V105.5ZM445 87.5C446.237 87.5 447.297 87.0594 448.178 86.1781C449.059 85.2969 449.5 84.2375 449.5 83C449.5 81.7625 449.059 80.7031 448.178 79.8219C447.297 78.9406 446.237 78.5 445 78.5C443.762 78.5 442.703 78.9406 441.822 79.8219C440.941 80.7031 440.5 81.7625 440.5 83C440.5 84.2375 440.941 85.2969 441.822 86.1781C442.703 87.0594 443.762 87.5 445 87.5Z" fill="#8F8F8F"/>
</g>
</g>
</g>
<g id="Group 207">
<g id="Rectangle 79_2" filter="url(#filter2_d_1_30)">
<path d="M50 424C50 417.373 55.3726 412 62 412H1017C1023.63 412 1029 417.373 1029 424V722C1029 728.627 1023.63 734 1017 734H62C55.3726 734 50 728.627 50 722V424Z" fill="white"/>
</g>
<g id="Group 200_2">
<g id="badge_FILL0_wght400_GRAD0_opsz24 2_2">
<path id="Vector_5" d="M427 707.5C425.762 707.5 424.703 707.059 423.822 706.178C422.941 705.297 422.5 704.237 422.5 703V678.25C422.5 677.012 422.941 675.953 423.822 675.072C424.703 674.191 425.762 673.75 427 673.75H438.25V667C438.25 665.762 438.691 664.703 439.572 663.822C440.453 662.941 441.512 662.5 442.75 662.5H447.25C448.487 662.5 449.547 662.941 450.428 663.822C451.309 664.703 451.75 665.762 451.75 667V673.75H463C464.237 673.75 465.297 674.191 466.178 675.072C467.059 675.953 467.5 677.012 467.5 678.25V703C467.5 704.237 467.059 705.297 466.178 706.178C465.297 707.059 464.237 707.5 463 707.5H427ZM427 703H463V678.25H451.75C451.75 679.487 451.309 680.547 450.428 681.428C449.547 682.309 448.487 682.75 447.25 682.75H442.75C441.512 682.75 440.453 682.309 439.572 681.428C438.691 680.547 438.25 679.487 438.25 678.25H427V703ZM431.5 698.5H445V697.487C445 696.85 444.822 696.259 444.466 695.716C444.109 695.172 443.612 694.75 442.975 694.45C442.225 694.112 441.466 693.859 440.697 693.691C439.928 693.522 439.112 693.437 438.25 693.437C437.387 693.437 436.572 693.522 435.803 693.691C435.034 693.859 434.275 694.112 433.525 694.45C432.887 694.75 432.391 695.172 432.034 695.716C431.678 696.259 431.5 696.85 431.5 697.487V698.5ZM449.5 695.125H458.5V691.75H449.5V695.125ZM438.25 691.75C439.187 691.75 439.984 691.422 440.641 690.766C441.297 690.109 441.625 689.312 441.625 688.375C441.625 687.437 441.297 686.641 440.641 685.984C439.984 685.328 439.187 685 438.25 685C437.312 685 436.516 685.328 435.859 685.984C435.203 686.641 434.875 687.437 434.875 688.375C434.875 689.312 435.203 690.109 435.859 690.766C436.516 691.422 437.312 691.75 438.25 691.75ZM449.5 688.375H458.5V685H449.5V688.375ZM442.75 678.25H447.25V667H442.75V678.25Z" fill="#8F8F8F"/>
</g>
<g id="call_FILL0_wght400_GRAD0_opsz24 2_2">
<path id="Vector_6" d="M462.887 557.25C458.2 557.25 453.569 556.228 448.994 554.184C444.419 552.141 440.256 549.244 436.506 545.494C432.756 541.744 429.859 537.581 427.816 533.006C425.772 528.431 424.75 523.8 424.75 519.112C424.75 518.437 424.975 517.875 425.425 517.425C425.875 516.975 426.437 516.75 427.112 516.75H436.225C436.75 516.75 437.219 516.928 437.631 517.284C438.044 517.641 438.287 518.062 438.362 518.55L439.825 526.425C439.9 527.025 439.881 527.531 439.769 527.944C439.656 528.356 439.45 528.712 439.15 529.012L433.694 534.525C434.444 535.912 435.334 537.253 436.366 538.547C437.397 539.841 438.531 541.087 439.769 542.287C440.931 543.45 442.15 544.528 443.425 545.522C444.7 546.516 446.05 547.425 447.475 548.25L452.762 542.962C453.1 542.625 453.541 542.372 454.084 542.203C454.628 542.034 455.162 541.987 455.687 542.062L463.45 543.637C463.975 543.787 464.406 544.059 464.744 544.453C465.081 544.847 465.25 545.287 465.25 545.775V554.887C465.25 555.562 465.025 556.125 464.575 556.575C464.125 557.025 463.562 557.25 462.887 557.25ZM431.556 530.25L435.269 526.537L434.312 521.25H429.306C429.494 522.787 429.756 524.306 430.094 525.806C430.431 527.306 430.919 528.787 431.556 530.25ZM451.694 550.387C453.156 551.025 454.647 551.531 456.166 551.906C457.684 552.281 459.212 552.525 460.75 552.637V547.687L455.462 546.619L451.694 550.387Z" fill="#8F8F8F"/>
</g>
<g id="mail_FILL0_wght400_GRAD0_opsz24 2_2">
<path id="Vector_7" d="M427 629C425.762 629 424.703 628.559 423.822 627.678C422.941 626.797 422.5 625.737 422.5 624.5V597.5C422.5 596.262 422.941 595.203 423.822 594.322C424.703 593.441 425.762 593 427 593H463C464.237 593 465.297 593.441 466.178 594.322C467.059 595.203 467.5 596.262 467.5 597.5V624.5C467.5 625.737 467.059 626.797 466.178 627.678C465.297 628.559 464.237 629 463 629H427ZM445 613.25L427 602V624.5H463V602L445 613.25ZM445 608.75L463 597.5H427L445 608.75ZM427 602V597.5V624.5V602Z" fill="#8F8F8F"/>
</g>
<g id="person_FILL0_wght400_GRAD0_opsz24 2_2">
<path id="Vector_8" d="M445 463C442.525 463 440.406 462.119 438.644 460.356C436.881 458.594 436 456.475 436 454C436 451.525 436.881 449.406 438.644 447.644C440.406 445.881 442.525 445 445 445C447.475 445 449.594 445.881 451.356 447.644C453.119 449.406 454 451.525 454 454C454 456.475 453.119 458.594 451.356 460.356C449.594 462.119 447.475 463 445 463ZM427 481V474.7C427 473.425 427.328 472.253 427.984 471.184C428.641 470.116 429.512 469.3 430.6 468.737C432.925 467.575 435.287 466.703 437.687 466.122C440.087 465.541 442.525 465.25 445 465.25C447.475 465.25 449.912 465.541 452.312 466.122C454.712 466.703 457.075 467.575 459.4 468.737C460.487 469.3 461.359 470.116 462.016 471.184C462.672 472.253 463 473.425 463 474.7V481H427ZM431.5 476.5H458.5V474.7C458.5 474.287 458.397 473.912 458.191 473.575C457.984 473.237 457.712 472.975 457.375 472.787C455.35 471.775 453.306 471.016 451.244 470.509C449.181 470.003 447.1 469.75 445 469.75C442.9 469.75 440.819 470.003 438.756 470.509C436.694 471.016 434.65 471.775 432.625 472.787C432.287 472.975 432.016 473.237 431.809 473.575C431.603 473.912 431.5 474.287 431.5 474.7V476.5ZM445 458.5C446.237 458.5 447.297 458.059 448.178 457.178C449.059 456.297 449.5 455.237 449.5 454C449.5 452.762 449.059 451.703 448.178 450.822C447.297 449.941 446.237 449.5 445 449.5C443.762 449.5 442.703 449.941 441.822 450.822C440.941 451.703 440.5 452.762 440.5 454C440.5 455.237 440.941 456.297 441.822 457.178C442.703 458.059 443.762 458.5 445 458.5Z" fill="#8F8F8F"/>
</g>
</g>
</g>
<g id="Group 208">
<g id="Rectangle 79_3" filter="url(#filter3_d_1_30)">
<path d="M50 795C50 788.373 55.3726 783 62 783H1017C1023.63 783 1029 788.373 1029 795V1093C1029 1099.63 1023.63 1105 1017 1105H62C55.3726 1105 50 1099.63 50 1093V795Z" fill="white"/>
</g>
<g id="Group 200_3">
<g id="badge_FILL0_wght400_GRAD0_opsz24 2_3">
<path id="Vector_9" d="M427 1078.5C425.762 1078.5 424.703 1078.06 423.822 1077.18C422.941 1076.3 422.5 1075.24 422.5 1074V1049.25C422.5 1048.01 422.941 1046.95 423.822 1046.07C424.703 1045.19 425.762 1044.75 427 1044.75H438.25V1038C438.25 1036.76 438.691 1035.7 439.572 1034.82C440.453 1033.94 441.512 1033.5 442.75 1033.5H447.25C448.487 1033.5 449.547 1033.94 450.428 1034.82C451.309 1035.7 451.75 1036.76 451.75 1038V1044.75H463C464.237 1044.75 465.297 1045.19 466.178 1046.07C467.059 1046.95 467.5 1048.01 467.5 1049.25V1074C467.5 1075.24 467.059 1076.3 466.178 1077.18C465.297 1078.06 464.237 1078.5 463 1078.5H427ZM427 1074H463V1049.25H451.75C451.75 1050.49 451.309 1051.55 450.428 1052.43C449.547 1053.31 448.487 1053.75 447.25 1053.75H442.75C441.512 1053.75 440.453 1053.31 439.572 1052.43C438.691 1051.55 438.25 1050.49 438.25 1049.25H427V1074ZM431.5 1069.5H445V1068.49C445 1067.85 444.822 1067.26 444.466 1066.72C444.109 1066.17 443.612 1065.75 442.975 1065.45C442.225 1065.11 441.466 1064.86 440.697 1064.69C439.928 1064.52 439.112 1064.44 438.25 1064.44C437.387 1064.44 436.572 1064.52 435.803 1064.69C435.034 1064.86 434.275 1065.11 433.525 1065.45C432.887 1065.75 432.391 1066.17 432.034 1066.72C431.678 1067.26 431.5 1067.85 431.5 1068.49V1069.5ZM449.5 1066.12H458.5V1062.75H449.5V1066.12ZM438.25 1062.75C439.187 1062.75 439.984 1062.42 440.641 1061.77C441.297 1061.11 441.625 1060.31 441.625 1059.37C441.625 1058.44 441.297 1057.64 440.641 1056.98C439.984 1056.33 439.187 1056 438.25 1056C437.312 1056 436.516 1056.33 435.859 1056.98C435.203 1057.64 434.875 1058.44 434.875 1059.37C434.875 1060.31 435.203 1061.11 435.859 1061.77C436.516 1062.42 437.312 1062.75 438.25 1062.75ZM449.5 1059.37H458.5V1056H449.5V1059.37ZM442.75 1049.25H447.25V1038H442.75V1049.25Z" fill="#8F8F8F"/>
</g>
<g id="call_FILL0_wght400_GRAD0_opsz24 2_3">
<path id="Vector_10" d="M462.887 928.25C458.2 928.25 453.569 927.228 448.994 925.184C444.419 923.141 440.256 920.244 436.506 916.494C432.756 912.744 429.859 908.581 427.816 904.006C425.772 899.431 424.75 894.8 424.75 890.112C424.75 889.437 424.975 888.875 425.425 888.425C425.875 887.975 426.437 887.75 427.112 887.75H436.225C436.75 887.75 437.219 887.928 437.631 888.284C438.044 888.641 438.287 889.062 438.362 889.55L439.825 897.425C439.9 898.025 439.881 898.531 439.769 898.944C439.656 899.356 439.45 899.712 439.15 900.012L433.694 905.525C434.444 906.912 435.334 908.253 436.366 909.547C437.397 910.841 438.531 912.087 439.769 913.287C440.931 914.45 442.15 915.528 443.425 916.522C444.7 917.516 446.05 918.425 447.475 919.25L452.762 913.962C453.1 913.625 453.541 913.372 454.084 913.203C454.628 913.034 455.162 912.987 455.687 913.062L463.45 914.637C463.975 914.787 464.406 915.059 464.744 915.453C465.081 915.847 465.25 916.287 465.25 916.775V925.887C465.25 926.562 465.025 927.125 464.575 927.575C464.125 928.025 463.562 928.25 462.887 928.25ZM431.556 901.25L435.269 897.537L434.312 892.25H429.306C429.494 893.787 429.756 895.306 430.094 896.806C430.431 898.306 430.919 899.787 431.556 901.25ZM451.694 921.387C453.156 922.025 454.647 922.531 456.166 922.906C457.684 923.281 459.212 923.525 460.75 923.637V918.687L455.462 917.619L451.694 921.387Z" fill="#8F8F8F"/>
</g>
<g id="mail_FILL0_wght400_GRAD0_opsz24 2_3">
<path id="Vector_11" d="M427 1000C425.762 1000 424.703 999.559 423.822 998.678C422.941 997.797 422.5 996.737 422.5 995.5V968.5C422.5 967.262 422.941 966.203 423.822 965.322C424.703 964.441 425.762 964 427 964H463C464.237 964 465.297 964.441 466.178 965.322C467.059 966.203 467.5 967.262 467.5 968.5V995.5C467.5 996.737 467.059 997.797 466.178 998.678C465.297 999.559 464.237 1000 463 1000H427ZM445 984.25L427 973V995.5H463V973L445 984.25ZM445 979.75L463 968.5H427L445 979.75ZM427 973V968.5V995.5V973Z" fill="#8F8F8F"/>
</g>
<g id="person_FILL0_wght400_GRAD0_opsz24 2_3">
<path id="Vector_12" d="M445 834C442.525 834 440.406 833.119 438.644 831.356C436.881 829.594 436 827.475 436 825C436 822.525 436.881 820.406 438.644 818.644C440.406 816.881 442.525 816 445 816C447.475 816 449.594 816.881 451.356 818.644C453.119 820.406 454 822.525 454 825C454 827.475 453.119 829.594 451.356 831.356C449.594 833.119 447.475 834 445 834ZM427 852V845.7C427 844.425 427.328 843.253 427.984 842.184C428.641 841.116 429.512 840.3 430.6 839.737C432.925 838.575 435.287 837.703 437.687 837.122C440.087 836.541 442.525 836.25 445 836.25C447.475 836.25 449.912 836.541 452.312 837.122C454.712 837.703 457.075 838.575 459.4 839.737C460.487 840.3 461.359 841.116 462.016 842.184C462.672 843.253 463 844.425 463 845.7V852H427ZM431.5 847.5H458.5V845.7C458.5 845.287 458.397 844.912 458.191 844.575C457.984 844.237 457.712 843.975 457.375 843.787C455.35 842.775 453.306 842.016 451.244 841.509C449.181 841.003 447.1 840.75 445 840.75C442.9 840.75 440.819 841.003 438.756 841.509C436.694 842.016 434.65 842.775 432.625 843.787C432.287 843.975 432.016 844.237 431.809 844.575C431.603 844.912 431.5 845.287 431.5 845.7V847.5ZM445 829.5C446.237 829.5 447.297 829.059 448.178 828.178C449.059 827.297 449.5 826.237 449.5 825C449.5 823.762 449.059 822.703 448.178 821.822C447.297 820.941 446.237 820.5 445 820.5C443.762 820.5 442.703 820.941 441.822 821.822C440.941 822.703 440.5 823.762 440.5 825C440.5 826.237 440.941 827.297 441.822 828.178C442.703 829.059 443.762 829.5 445 829.5Z" fill="#8F8F8F"/>
</g>
</g>
</g>
<g id="Group 209">
<g id="Rectangle 79_4" filter="url(#filter4_d_1_30)">
<path d="M50 1166C50 1159.37 55.3726 1154 62 1154H1017C1023.63 1154 1029 1159.37 1029 1166V1464C1029 1470.63 1023.63 1476 1017 1476H62C55.3726 1476 50 1470.63 50 1464V1166Z" fill="white"/>
</g>
<g id="Group 200_4">
<g id="badge_FILL0_wght400_GRAD0_opsz24 2_4">
<path id="Vector_13" d="M427 1449.5C425.762 1449.5 424.703 1449.06 423.822 1448.18C422.941 1447.3 422.5 1446.24 422.5 1445V1420.25C422.5 1419.01 422.941 1417.95 423.822 1417.07C424.703 1416.19 425.762 1415.75 427 1415.75H438.25V1409C438.25 1407.76 438.691 1406.7 439.572 1405.82C440.453 1404.94 441.512 1404.5 442.75 1404.5H447.25C448.487 1404.5 449.547 1404.94 450.428 1405.82C451.309 1406.7 451.75 1407.76 451.75 1409V1415.75H463C464.237 1415.75 465.297 1416.19 466.178 1417.07C467.059 1417.95 467.5 1419.01 467.5 1420.25V1445C467.5 1446.24 467.059 1447.3 466.178 1448.18C465.297 1449.06 464.237 1449.5 463 1449.5H427ZM427 1445H463V1420.25H451.75C451.75 1421.49 451.309 1422.55 450.428 1423.43C449.547 1424.31 448.487 1424.75 447.25 1424.75H442.75C441.512 1424.75 440.453 1424.31 439.572 1423.43C438.691 1422.55 438.25 1421.49 438.25 1420.25H427V1445ZM431.5 1440.5H445V1439.49C445 1438.85 444.822 1438.26 444.466 1437.72C444.109 1437.17 443.612 1436.75 442.975 1436.45C442.225 1436.11 441.466 1435.86 440.697 1435.69C439.928 1435.52 439.112 1435.44 438.25 1435.44C437.387 1435.44 436.572 1435.52 435.803 1435.69C435.034 1435.86 434.275 1436.11 433.525 1436.45C432.887 1436.75 432.391 1437.17 432.034 1437.72C431.678 1438.26 431.5 1438.85 431.5 1439.49V1440.5ZM449.5 1437.12H458.5V1433.75H449.5V1437.12ZM438.25 1433.75C439.187 1433.75 439.984 1433.42 440.641 1432.77C441.297 1432.11 441.625 1431.31 441.625 1430.37C441.625 1429.44 441.297 1428.64 440.641 1427.98C439.984 1427.33 439.187 1427 438.25 1427C437.312 1427 436.516 1427.33 435.859 1427.98C435.203 1428.64 434.875 1429.44 434.875 1430.37C434.875 1431.31 435.203 1432.11 435.859 1432.77C436.516 1433.42 437.312 1433.75 438.25 1433.75ZM449.5 1430.37H458.5V1427H449.5V1430.37ZM442.75 1420.25H447.25V1409H442.75V1420.25Z" fill="#8F8F8F"/>
</g>
<g id="call_FILL0_wght400_GRAD0_opsz24 2_4">
<path id="Vector_14" d="M462.887 1299.25C458.2 1299.25 453.569 1298.23 448.994 1296.18C444.419 1294.14 440.256 1291.24 436.506 1287.49C432.756 1283.74 429.859 1279.58 427.816 1275.01C425.772 1270.43 424.75 1265.8 424.75 1261.11C424.75 1260.44 424.975 1259.87 425.425 1259.42C425.875 1258.97 426.437 1258.75 427.112 1258.75H436.225C436.75 1258.75 437.219 1258.93 437.631 1259.28C438.044 1259.64 438.287 1260.06 438.362 1260.55L439.825 1268.42C439.9 1269.02 439.881 1269.53 439.769 1269.94C439.656 1270.36 439.45 1270.71 439.15 1271.01L433.694 1276.52C434.444 1277.91 435.334 1279.25 436.366 1280.55C437.397 1281.84 438.531 1283.09 439.769 1284.29C440.931 1285.45 442.15 1286.53 443.425 1287.52C444.7 1288.52 446.05 1289.42 447.475 1290.25L452.762 1284.96C453.1 1284.62 453.541 1284.37 454.084 1284.2C454.628 1284.03 455.162 1283.99 455.687 1284.06L463.45 1285.64C463.975 1285.79 464.406 1286.06 464.744 1286.45C465.081 1286.85 465.25 1287.29 465.25 1287.77V1296.89C465.25 1297.56 465.025 1298.12 464.575 1298.57C464.125 1299.02 463.562 1299.25 462.887 1299.25ZM431.556 1272.25L435.269 1268.54L434.312 1263.25H429.306C429.494 1264.79 429.756 1266.31 430.094 1267.81C430.431 1269.31 430.919 1270.79 431.556 1272.25ZM451.694 1292.39C453.156 1293.02 454.647 1293.53 456.166 1293.91C457.684 1294.28 459.212 1294.52 460.75 1294.64V1289.69L455.462 1288.62L451.694 1292.39Z" fill="#8F8F8F"/>
</g>
<g id="mail_FILL0_wght400_GRAD0_opsz24 2_4">
<path id="Vector_15" d="M427 1371C425.762 1371 424.703 1370.56 423.822 1369.68C422.941 1368.8 422.5 1367.74 422.5 1366.5V1339.5C422.5 1338.26 422.941 1337.2 423.822 1336.32C424.703 1335.44 425.762 1335 427 1335H463C464.237 1335 465.297 1335.44 466.178 1336.32C467.059 1337.2 467.5 1338.26 467.5 1339.5V1366.5C467.5 1367.74 467.059 1368.8 466.178 1369.68C465.297 1370.56 464.237 1371 463 1371H427ZM445 1355.25L427 1344V1366.5H463V1344L445 1355.25ZM445 1350.75L463 1339.5H427L445 1350.75ZM427 1344V1339.5V1366.5V1344Z" fill="#8F8F8F"/>
</g>
<g id="person_FILL0_wght400_GRAD0_opsz24 2_4">
<path id="Vector_16" d="M445 1205C442.525 1205 440.406 1204.12 438.644 1202.36C436.881 1200.59 436 1198.47 436 1196C436 1193.52 436.881 1191.41 438.644 1189.64C440.406 1187.88 442.525 1187 445 1187C447.475 1187 449.594 1187.88 451.356 1189.64C453.119 1191.41 454 1193.52 454 1196C454 1198.47 453.119 1200.59 451.356 1202.36C449.594 1204.12 447.475 1205 445 1205ZM427 1223V1216.7C427 1215.42 427.328 1214.25 427.984 1213.18C428.641 1212.12 429.512 1211.3 430.6 1210.74C432.925 1209.57 435.287 1208.7 437.687 1208.12C440.087 1207.54 442.525 1207.25 445 1207.25C447.475 1207.25 449.912 1207.54 452.312 1208.12C454.712 1208.7 457.075 1209.57 459.4 1210.74C460.487 1211.3 461.359 1212.12 462.016 1213.18C462.672 1214.25 463 1215.42 463 1216.7V1223H427ZM431.5 1218.5H458.5V1216.7C458.5 1216.29 458.397 1215.91 458.191 1215.57C457.984 1215.24 457.712 1214.97 457.375 1214.79C455.35 1213.77 453.306 1213.02 451.244 1212.51C449.181 1212 447.1 1211.75 445 1211.75C442.9 1211.75 440.819 1212 438.756 1212.51C436.694 1213.02 434.65 1213.77 432.625 1214.79C432.287 1214.97 432.016 1215.24 431.809 1215.57C431.603 1215.91 431.5 1216.29 431.5 1216.7V1218.5ZM445 1200.5C446.237 1200.5 447.297 1200.06 448.178 1199.18C449.059 1198.3 449.5 1197.24 449.5 1196C449.5 1194.76 449.059 1193.7 448.178 1192.82C447.297 1191.94 446.237 1191.5 445 1191.5C443.762 1191.5 442.703 1191.94 441.822 1192.82C440.941 1193.7 440.5 1194.76 440.5 1196C440.5 1197.24 440.941 1198.3 441.822 1199.18C442.703 1200.06 443.762 1200.5 445 1200.5Z" fill="#8F8F8F"/>
</g>
</g>
</g>
</g>
</g>
<defs>
<filter id="filter0_b_1_30" x="-107.664" y="1312.66" width="729.358" height="579.672" filterUnits="userSpaceOnUse" color-interpolation-filters="sRGB">
<feFlood flood-opacity="0" result="BackgroundImageFix"/>
<feGaussianBlur in="BackgroundImageFix" stdDeviation="2"/>
<feComposite in2="SourceAlpha" operator="in" result="effect1_backgroundBlur_1_30"/>
<feBlend mode="normal" in="SourceGraphic" in2="effect1_backgroundBlur_1_30" result="shape"/>
</filter>
<filter id="filter1_d_1_30" x="46" y="41" width="987" height="330" filterUnits="userSpaceOnUse" color-interpolation-filters="sRGB">
<feFlood flood-opacity="0" result="BackgroundImageFix"/>
<feColorMatrix in="SourceAlpha" type="matrix" values="0 0 0 0 0 0 0 0 0 0 0 0 0 0 0 0 0 0 127 0" result="hardAlpha"/>
<feOffset dy="4"/>
<feGaussianBlur stdDeviation="2"/>
<feComposite in2="hardAlpha" operator="out"/>
<feColorMatrix type="matrix" values="0 0 0 0 0 0 0 0 0 0 0 0 0 0 0 0 0 0 0.25 0"/>
<feBlend mode="normal" in2="BackgroundImageFix" result="effect1_dropShadow_1_30"/>
<feBlend mode="normal" in="SourceGraphic" in2="effect1_dropShadow_1_30" result="shape"/>
</filter>
<filter id="filter2_d_1_30" x="46" y="412" width="987" height="330" filterUnits="userSpaceOnUse" color-interpolation-filters="sRGB">
<feFlood flood-opacity="0" result="BackgroundImageFix"/>
<feColorMatrix in="SourceAlpha" type="matrix" values="0 0 0 0 0 0 0 0 0 0 0 0 0 0 0 0 0 0 127 0" result="hardAlpha"/>
<feOffset dy="4"/>
<feGaussianBlur stdDeviation="2"/>
<feComposite in2="hardAlpha" operator="out"/>
<feColorMatrix type="matrix" values="0 0 0 0 0 0 0 0 0 0 0 0 0 0 0 0 0 0 0.25 0"/>
<feBlend mode="normal" in2="BackgroundImageFix" result="effect1_dropShadow_1_30"/>
<feBlend mode="normal" in="SourceGraphic" in2="effect1_dropShadow_1_30" result="shape"/>
</filter>
<filter id="filter3_d_1_30" x="46" y="783" width="987" height="330" filterUnits="userSpaceOnUse" color-interpolation-filters="sRGB">
<feFlood flood-opacity="0" result="BackgroundImageFix"/>
<feColorMatrix in="SourceAlpha" type="matrix" values="0 0 0 0 0 0 0 0 0 0 0 0 0 0 0 0 0 0 127 0" result="hardAlpha"/>
<feOffset dy="4"/>
<feGaussianBlur stdDeviation="2"/>
<feComposite in2="hardAlpha" operator="out"/>
<feColorMatrix type="matrix" values="0 0 0 0 0 0 0 0 0 0 0 0 0 0 0 0 0 0 0.25 0"/>
<feBlend mode="normal" in2="BackgroundImageFix" result="effect1_dropShadow_1_30"/>
<feBlend mode="normal" in="SourceGraphic" in2="effect1_dropShadow_1_30" result="shape"/>
</filter>
<filter id="filter4_d_1_30" x="46" y="1154" width="987" height="330" filterUnits="userSpaceOnUse" color-interpolation-filters="sRGB">
<feFlood flood-opacity="0" result="BackgroundImageFix"/>
<feColorMatrix in="SourceAlpha" type="matrix" values="0 0 0 0 0 0 0 0 0 0 0 0 0 0 0 0 0 0 127 0" result="hardAlpha"/>
<feOffset dy="4"/>
<feGaussianBlur stdDeviation="2"/>
<feComposite in2="hardAlpha" operator="out"/>
<feColorMatrix type="matrix" values="0 0 0 0 0 0 0 0 0 0 0 0 0 0 0 0 0 0 0.25 0"/>
<feBlend mode="normal" in2="BackgroundImageFix" result="effect1_dropShadow_1_30"/>
<feBlend mode="normal" in="SourceGraphic" in2="effect1_dropShadow_1_30" result="shape"/>
</filter>
<linearGradient id="paint0_linear_1_30" x1="540" y1="0" x2="540" y2="1920" gradientUnits="userSpaceOnUse">
<stop stop-color="#535A99"/>
<stop offset="1" stop-color="#884B90"/>
</linearGradient>
<clipPath id="clip0_1_30">
<rect width="1080" height="1920" fill="white"/>
</clipPath>
</defs>
</svg>
