<svg width="1080" height="1920" viewBox="0 0 1080 1920" fill="none" xmlns="http://www.w3.org/2000/svg">
<g id="Frame 9">
<g id="textboxes">
<rect id="textbox-16" x="526" y="1486" width="454" height="50" fill="#EEEEEE"/>
<rect id="textbox-15" x="526" y="1408" width="454" height="50" fill="#EEEEEE"/>
<rect id="textbox-14" x="526" y="1334" width="454" height="50" fill="#EEEEEE"/>
<rect id="textbox-13" x="526" y="1264" width="454" height="50" fill="#EEEEEE"/>
<rect id="textbox-12" x="526" y="1097" width="454" height="50" fill="#EEEEEE"/>
<rect id="textbox-11" x="526" y="1021" width="454" height="50" fill="#EEEEEE"/>
<rect id="textbox-10" x="526" y="942" width="454" height="50" fill="#EEEEEE"/>
<rect id="textbox-9" x="526" y="872" width="454" height="50" fill="#EEEEEE"/>
<rect id="textbox-8" x="526" y="708" width="454" height="50" fill="#EEEEEE"/>
<rect id="textbox-7" x="526" y="630" width="454" height="50" fill="#EEEEEE"/>
<rect id="textbox-6" x="526" y="558" width="454" height="50" fill="#EEEEEE"/>
<rect id="textbox-5" x="526" y="486" width="454" height="50" fill="#EEEEEE"/>
<rect id="textbox-4" x="526" y="319" width="454" height="50" fill="#EEEEEE"/>
<rect id="textbox-3" x="526" y="241" width="454" height="50" fill="#EEEEEE"/>
<rect id="textbox-2" x="526" y="167" width="454" height="50" fill="#EEEEEE"/>
<rect id="textbox-1" x="526" y="96" width="454" height="50" fill="#EEEEEE"/>
</g>
</g>
</svg>
