<svg width="1080" height="1920" viewBox="0 0 1080 1920" fill="none" xmlns="http://www.w3.org/2000/svg">
<g id="people-contanct">
<g id="textboxes">
<rect id="textbox-16" x="540" y="1404" width="454" height="50" fill="#EEEEEE"/>
<rect id="textbox-15" x="540" y="1326" width="454" height="50" fill="#EEEEEE"/>
<rect id="textbox-14" x="540" y="1252" width="454" height="50" fill="#EEEEEE"/>
<rect id="textbox-13" x="540" y="1182" width="454" height="50" fill="#EEEEEE"/>
<rect id="textbox-12" x="540" y="1034" width="454" height="50" fill="#EEEEEE"/>
<rect id="textbox-11" x="540" y="958" width="454" height="50" fill="#EEEEEE"/>
<rect id="textbox-10" x="540" y="879" width="454" height="50" fill="#EEEEEE"/>
<rect id="textbox-9" x="540" y="809" width="454" height="50" fill="#EEEEEE"/>
<rect id="textbox-8" x="540" y="657" width="454" height="50" fill="#EEEEEE"/>
<rect id="textbox-7" x="540" y="579" width="454" height="50" fill="#EEEEEE"/>
<rect id="textbox-6" x="540" y="507" width="454" height="50" fill="#EEEEEE"/>
<rect id="textbox-5" x="540" y="435" width="454" height="50" fill="#EEEEEE"/>
<rect id="textbox-4" x="540" y="286" width="454" height="50" fill="#EEEEEE"/>
<rect id="textbox-3" x="540" y="208" width="454" height="50" fill="#EEEEEE"/>
<rect id="textbox-2" x="540" y="134" width="454" height="50" fill="#EEEEEE"/>
<rect id="textbox-1" x="540" y="63" width="454" height="50" fill="#EEEEEE"/>
</g>
</g>
</svg>
