<svg width="1080" height="1920" viewBox="0 0 1080 1920" fill="none" xmlns="http://www.w3.org/2000/svg">
<g id="Zoo" clip-path="url(#clip0_2_717)">
<rect width="1080" height="1920" fill="white"/>
<g id="background">
<g id="background-color">
<rect id="background-green" y="116.167" width="1083" height="1803.83" fill="#147D49"/>
</g>
<g id="roads">
<path id="Vector 28" d="M232.141 1438V1289C232.154 1144.79 232.141 1000.86 232.141 856.5C232.141 806 316.046 810.6 317.971 669C319.896 527.4 232.141 537.5 232.141 473L232.146 190C232.146 188.343 233.489 187 235.146 187H787.5C789.157 187 790.5 188.343 790.5 190V488.5C790.5 490.157 791.843 491.5 793.5 491.5H1045C1046.66 491.5 1048 492.843 1048 494.5V1093.06C1048 1093.67 1047.84 1094.24 1047.49 1094.74C972.607 1201.82 669.849 1379 563.028 1379H485.011C483.354 1379 482.011 1380.34 482.011 1382V1438" stroke="white" stroke-width="15"/>
<path id="Vector 31" d="M524 192L524 666" stroke="white" stroke-width="15"/>
<path id="Vector 29" d="M1048 823H673" stroke="white" stroke-width="15"/>
<circle id="Ellipse 125" cx="536" cy="811" r="146.5" fill="#04793F" stroke="white" stroke-width="15"/>
</g>
<path id="Vector 34" d="M297.961 1159.2C280.105 1211.14 402.213 1257.08 465.499 1273.56C473.499 1232.42 492.378 1137.41 503.896 1086.55C518.293 1022.98 398.965 990.886 330.393 946.844C265.262 917.423 320.282 1094.28 297.961 1159.2Z" fill="#71CEEC" stroke="#71CEEC"/>
<path id="Vector 43" d="M604.525 561.004C563.04 480.182 654.734 511.975 705.766 537.974C722.957 555.249 757.872 592.14 760.009 601.508C762.68 613.217 755.341 683.369 727.557 711.859C699.774 740.35 656.382 662.031 604.525 561.004Z" fill="#71CEEC" stroke="#71CEEC" stroke-width="15"/>
<g id="004-gate 1">
<path id="Vector" d="M426.464 1337.18H412.607V1413.54H426.464V1337.18Z" fill="#E3E8F5"/>
<path id="Vector_2" d="M412.606 1337.18V1346.35C417.791 1346.35 421.994 1350.12 421.994 1354.78V1413.54H426.463V1337.18H412.606Z" fill="#D7DDEB"/>
<path id="Vector_3" d="M434.782 1437.41H400.556V1423.04C400.556 1414.74 408.051 1408.01 417.296 1408.01H418.042C427.287 1408.01 434.782 1414.74 434.782 1423.04V1437.41Z" fill="#24C143"/>
<path id="Vector_4" d="M418.042 1408.01H417.296C415.457 1408.01 413.689 1408.28 412.034 1408.77C418.7 1410.75 423.512 1416.39 423.512 1423.04V1437.41H434.782V1423.04C434.782 1414.74 427.288 1408.01 418.042 1408.01Z" fill="#1DB52F"/>
<path id="Vector_5" d="M314.378 1337.18H300.521V1413.54H314.378V1337.18Z" fill="#E3E8F5"/>
<path id="Vector_6" d="M300.522 1337.18V1347.04C305.549 1347.04 309.625 1350.7 309.625 1355.21V1413.54H314.379V1337.18H300.522Z" fill="#D7DDEB"/>
<path id="SVGCleanerId_0" d="M289.948 1313.14V1345.87C289.948 1347.22 291.505 1348.1 292.862 1347.53C314.393 1338.49 338.42 1333.43 363.762 1333.43C389.105 1333.43 413.131 1338.49 434.662 1347.53C436.019 1348.1 437.576 1347.22 437.576 1345.87V1313.14C437.576 1312.38 437.053 1311.69 436.259 1311.42C413.718 1303.78 389.285 1299.59 363.762 1299.59C338.239 1299.59 313.807 1303.78 291.265 1311.42C290.471 1311.69 289.948 1312.38 289.948 1313.14Z" fill="#24C143"/>
<g id="Group">
<path id="SVGCleanerId_0_1_" d="M289.948 1313.14V1345.87C289.948 1347.22 291.505 1348.1 292.862 1347.53C314.393 1338.49 338.42 1333.43 363.762 1333.43C389.105 1333.43 413.131 1338.49 434.662 1347.53C436.019 1348.1 437.576 1347.22 437.576 1345.87V1313.14C437.576 1312.38 437.053 1311.69 436.259 1311.42C413.718 1303.78 389.285 1299.59 363.762 1299.59C338.239 1299.59 313.807 1303.78 291.265 1311.42C290.471 1311.69 289.948 1312.38 289.948 1313.14Z" fill="#24C143"/>
</g>
<path id="Vector_7" d="M436.258 1311.42C428.641 1308.84 420.808 1306.65 412.79 1304.89C411.229 1316.7 406.289 1327.59 398.858 1336.74C411.366 1339.14 423.358 1342.78 434.662 1347.53C436.019 1348.1 437.575 1347.22 437.575 1345.87V1313.14C437.575 1312.38 437.052 1311.69 436.258 1311.42Z" fill="#1FA335"/>
<path id="Vector_8" d="M294.865 1315.66C294.865 1315.22 295.173 1314.83 295.636 1314.68C317.44 1307.6 340.345 1304.01 363.761 1304.01C387.178 1304.01 410.083 1307.6 431.887 1314.68C432.35 1314.83 432.658 1315.22 432.658 1315.66V1341.18C432.658 1341.51 432.284 1341.73 431.948 1341.59C410.404 1333.25 387.491 1329.02 363.762 1329.02C340.032 1329.02 317.119 1333.25 295.575 1341.59C295.239 1341.72 294.866 1341.51 294.866 1341.18V1315.66H294.865Z" fill="#9FD961"/>
<path id="Vector_9" d="M431.887 1314.68C425.368 1312.56 418.75 1310.76 412.05 1309.27C410.293 1317.77 406.768 1325.72 401.833 1332.79C412.119 1334.87 422.175 1337.81 431.949 1341.59C432.285 1341.72 432.658 1341.51 432.658 1341.18V1315.66C432.658 1315.22 432.35 1314.83 431.887 1314.68Z" fill="#83D156"/>
<path id="Vector_10" d="M326.429 1437.41H289.948V1423.52C289.948 1414.96 297.686 1408.01 307.231 1408.01H309.147C318.692 1408.01 326.43 1414.96 326.43 1423.52L326.429 1437.41Z" fill="#24C143"/>
<path id="Vector_11" d="M309.146 1408.01H307.231C305.911 1408.01 304.628 1408.15 303.393 1408.4C311.09 1409.97 316.837 1416.14 316.837 1423.52V1437.41H326.429V1423.52C326.429 1414.96 318.691 1408.01 309.146 1408.01Z" fill="#1DB52F"/>
<g id="Group_2">
<path id="Vector_12" d="M296.977 1437.41H281.459V1424.24C281.459 1423.4 282.224 1422.71 283.168 1422.71H295.268C296.212 1422.71 296.977 1423.4 296.977 1424.24V1437.41Z" fill="#FFCE7F"/>
<path id="Vector_13" d="M442.541 1437.41H427.022V1424.24C427.022 1423.4 427.788 1422.71 428.731 1422.71H440.832C441.776 1422.71 442.541 1423.4 442.541 1424.24V1437.41Z" fill="#FFCE7F"/>
</g>
<path id="Vector_14" d="M335.79 1326.36C335.79 1327.06 336.214 1327.41 337.062 1327.41H350.595C350.986 1327.41 351.307 1327.24 351.557 1326.9C351.807 1326.56 351.932 1326.18 351.932 1325.75C351.932 1325.32 351.806 1324.93 351.557 1324.59C351.307 1324.25 350.986 1324.08 350.595 1324.08H341.204L350.856 1308.42C351.182 1307.93 351.345 1307.47 351.345 1307.04C351.345 1306.36 350.921 1306.02 350.073 1306.02H337.682C337.246 1306.02 336.92 1306.18 336.703 1306.52C336.486 1306.85 336.377 1307.24 336.377 1307.69C336.377 1308.15 336.491 1308.55 336.72 1308.87C336.948 1309.19 337.268 1309.35 337.682 1309.35H345.932L336.247 1325.04C335.942 1325.49 335.79 1325.93 335.79 1326.36Z" fill="black"/>
<path id="Vector_15" d="M361.455 1306.02C359.128 1306.02 357.275 1306.55 355.895 1307.63C354.514 1308.7 353.824 1310.4 353.824 1312.72V1320.89C353.824 1323.21 354.514 1324.91 355.895 1325.98C357.276 1327.05 359.129 1327.59 361.455 1327.59C363.781 1327.59 365.64 1327.05 367.031 1325.98C368.422 1324.91 369.118 1323.21 369.118 1320.89V1312.72C369.118 1310.4 368.422 1308.7 367.031 1307.63C365.64 1306.55 363.781 1306.02 361.455 1306.02ZM364.879 1320.89C364.879 1323.13 363.738 1324.25 361.455 1324.25C359.194 1324.25 358.064 1323.13 358.064 1320.89V1312.72C358.064 1310.48 359.194 1309.35 361.455 1309.35C363.738 1309.35 364.879 1310.48 364.879 1312.72V1320.89Z" fill="black"/>
<path id="Vector_16" d="M380.107 1306.02C377.781 1306.02 375.928 1306.55 374.547 1307.63C373.167 1308.7 372.477 1310.4 372.477 1312.72V1320.89C372.477 1323.21 373.167 1324.91 374.547 1325.98C375.928 1327.05 377.781 1327.59 380.107 1327.59C382.433 1327.59 384.292 1327.05 385.684 1325.98C387.075 1324.91 387.771 1323.21 387.771 1320.89V1312.72C387.771 1310.4 387.075 1308.7 385.684 1307.63C384.292 1306.55 382.433 1306.02 380.107 1306.02ZM383.531 1320.89C383.531 1323.13 382.39 1324.25 380.107 1324.25C377.846 1324.25 376.716 1323.13 376.716 1320.89V1312.72C376.716 1310.48 377.846 1309.35 380.107 1309.35C382.39 1309.35 383.531 1310.48 383.531 1312.72V1320.89Z" fill="black"/>
<path id="Vector_17" d="M440.832 1420.5H437.029C436.42 1416.78 434.483 1413.36 431.437 1410.69C430.651 1410.01 429.807 1409.39 428.921 1408.84V1364.09C428.921 1362.87 427.82 1361.88 426.462 1361.88C425.104 1361.88 424.003 1362.87 424.003 1364.09V1406.65C422.101 1406.1 420.095 1405.8 418.042 1405.8H417.296C416.541 1405.8 415.797 1405.85 415.065 1405.92V1342.93C418.069 1343.81 421.049 1344.78 424.003 1345.82V1355.11C424.003 1356.33 425.104 1357.32 426.462 1357.32C427.82 1357.32 428.921 1356.33 428.921 1355.11V1347.64C430.494 1348.25 432.061 1348.87 433.619 1349.53C435.024 1350.12 436.643 1350.02 437.951 1349.28C439.255 1348.53 440.034 1347.26 440.034 1345.87V1313.14C440.034 1311.47 438.866 1309.95 437.127 1309.36C426.521 1305.76 415.503 1302.93 404.379 1300.95C403.048 1300.71 401.753 1301.49 401.489 1302.69C401.224 1303.88 402.09 1305.04 403.422 1305.28C414.185 1307.2 424.847 1309.93 435.116 1313.39V1345.29C412.684 1335.96 388.68 1331.22 363.761 1331.22C341.479 1331.22 319.929 1335.01 299.579 1342.48C299.572 1342.48 299.564 1342.49 299.557 1342.49C297.157 1343.37 294.772 1344.3 292.406 1345.29V1313.39C315.194 1305.7 339.2 1301.8 363.761 1301.8C373.583 1301.8 383.455 1302.44 393.104 1303.69C394.448 1303.87 395.695 1303.03 395.89 1301.82C396.085 1300.62 395.154 1299.5 393.81 1299.32C383.928 1298.04 373.818 1297.38 363.761 1297.38C338.506 1297.38 313.822 1301.41 290.395 1309.36C288.657 1309.95 287.489 1311.47 287.489 1313.14V1345.87C287.489 1347.26 288.268 1348.53 289.572 1349.28C290.31 1349.7 291.146 1349.91 291.988 1349.91C292.638 1349.91 293.292 1349.79 293.904 1349.53C295.284 1348.95 296.671 1348.39 298.063 1347.84V1407.82C292.736 1410.33 288.837 1414.96 287.78 1420.5H283.168C280.869 1420.5 279 1422.18 279 1424.24V1437.41C279 1438.63 280.101 1439.62 281.459 1439.62H442.541C443.899 1439.62 445 1438.63 445 1437.41V1424.24C445 1422.18 443.131 1420.5 440.832 1420.5ZM403.014 1411.54V1374.1C405.4 1374.91 407.779 1375.8 410.147 1376.77V1407.05C407.399 1408.04 404.964 1409.59 403.014 1411.54ZM398.097 1435.2H390.964V1370.68C393.346 1371.22 395.725 1371.84 398.097 1372.54V1423.04V1435.2ZM386.046 1369.68V1435.2H378.488V1368.58C381.01 1368.86 383.53 1369.23 386.046 1369.68ZM410.147 1341.56V1371.94C407.249 1370.81 404.337 1369.79 401.413 1368.88C401.362 1368.87 401.312 1368.85 401.26 1368.84C390.162 1365.41 378.908 1363.62 367.664 1363.49C366.281 1363.48 360.703 1363.48 359.321 1363.49C348.076 1363.62 336.823 1365.41 325.725 1368.84C325.672 1368.85 325.621 1368.87 325.57 1368.88C322.647 1369.79 319.735 1370.81 316.837 1371.94V1341.7C331.959 1337.67 347.663 1335.64 363.761 1335.64C379.669 1335.64 395.191 1337.62 410.147 1341.56ZM328.888 1372.54C331.26 1371.84 333.638 1371.22 336.021 1370.68V1435.2H328.888V1423.52V1372.54ZM340.938 1369.68C343.455 1369.23 345.975 1368.86 348.496 1368.58V1435.2H340.938V1369.68ZM302.981 1346.01C305.936 1344.96 308.916 1343.98 311.92 1343.09V1399.11C311.92 1400.32 313.021 1401.31 314.379 1401.31C315.737 1401.31 316.838 1400.32 316.838 1399.11V1376.77C319.206 1375.8 321.585 1374.91 323.97 1374.1V1411.84C320.35 1408.14 315.048 1405.8 309.147 1405.8H307.231C305.772 1405.8 304.352 1405.95 302.981 1406.22V1346.01ZM289.948 1435.2H283.918V1424.92H294.518V1435.2H289.948ZM299.436 1435.2V1424.24C299.436 1422.18 297.567 1420.5 295.268 1420.5H292.793C294.319 1414.58 300.225 1410.22 307.231 1410.22H309.147C317.32 1410.22 323.97 1416.19 323.97 1423.52V1435.2H314.379L299.436 1435.2ZM363.492 1383.22C362.135 1383.22 361.034 1384.2 361.034 1385.42V1435.2H353.414V1368.14C355.404 1368.01 357.394 1367.93 359.383 1367.91C359.93 1367.9 360.482 1367.9 361.034 1367.9V1375.36C361.034 1376.58 362.134 1377.57 363.492 1377.57C364.851 1377.57 365.951 1376.58 365.951 1375.36V1367.9C366.503 1367.9 367.055 1367.9 367.603 1367.91C369.592 1367.93 371.581 1368.01 373.571 1368.14V1435.2H365.951V1385.42C365.951 1384.2 364.85 1383.22 363.492 1383.22ZM403.014 1435.2V1423.04C403.014 1415.97 409.421 1410.22 417.296 1410.22H418.042C420.568 1410.22 422.931 1410.8 424.983 1411.81C425.147 1411.92 425.325 1412.02 425.517 1412.09C428.845 1413.91 431.259 1416.92 432.045 1420.5H428.731C426.433 1420.5 424.564 1422.18 424.564 1424.24V1435.2H412.606L403.014 1435.2ZM440.082 1435.2H434.782H429.482V1424.92H440.082V1435.2Z" fill="black"/>
</g>
<g id="title">
<rect id="Rectangle 263" width="1083" height="118" fill="#2374AB"/>
<path id="World Zoo Map" d="M237.646 63.9307L228.769 95H205.17L189.877 40.5518H182.67V24.9951H221.825V40.5518H215.146L222.177 65.4688L233.603 24.9951H251.62L262.694 64.1504L269.506 40.5518H263.397V24.9951H292.401V40.5518H285.019L269.989 95H246.127L237.646 63.9307ZM319.032 95.791C313.7 95.791 309.057 94.8096 305.102 92.8467C301.088 90.9131 297.968 88.0713 295.741 84.3213C293.515 80.5713 292.401 76.1182 292.401 70.9619C292.401 65.835 293.515 61.4844 295.741 57.9102C297.968 54.3066 301.088 51.5967 305.102 49.7803C309.115 47.9346 313.759 47.0117 319.032 47.0117C324.452 47.0117 329.154 47.9492 333.139 49.8242C337.152 51.6992 340.258 54.4238 342.455 57.998C344.652 61.543 345.751 65.8643 345.751 70.9619C345.751 76.1182 344.652 80.5713 342.455 84.3213C340.229 88.0713 337.094 90.9277 333.051 92.8906C329.037 94.8242 324.364 95.791 319.032 95.791ZM319.032 82.959C320.966 82.959 322.401 82.0068 323.339 80.1025C324.247 78.2568 324.701 75.21 324.701 70.9619C324.701 67.0654 324.247 64.2529 323.339 62.5244C322.46 60.7666 321.024 59.8877 319.032 59.8877C317.128 59.8877 315.722 60.7666 314.813 62.5244C313.905 64.2529 313.451 67.0654 313.451 70.9619C313.451 75.1221 313.92 78.1689 314.857 80.1025C315.795 82.0068 317.187 82.959 319.032 82.959ZM385.653 95H351.903V81.7725H357.572V61.5137H351.903V49.6484L378.622 47.0117V54.6582C379.56 53.1934 380.937 51.8896 382.753 50.7471C384.569 49.5752 386.503 48.667 388.554 48.0225C390.634 47.3486 392.494 47.0117 394.135 47.0117V65.6445C390.707 64.502 387.88 63.9307 385.653 63.9307C382.841 63.9307 380.966 64.751 380.028 66.3916C379.091 68.0029 378.622 70.127 378.622 72.7637V81.7725H385.653V95ZM435.839 81.7725V95H400.287V81.7725H408.021V41.2549H400.287V29.3018L429.071 26.4014V81.7725H435.839ZM462.777 95.791C458.529 95.791 454.853 94.6631 451.747 92.4072C448.671 90.1514 446.327 87.1338 444.716 83.3545C443.134 79.5459 442.343 75.3564 442.343 70.7861C442.343 66.6553 443.163 62.7441 444.804 59.0527C446.444 55.4199 448.759 52.5049 451.747 50.3076C454.765 48.1104 458.324 47.0117 462.426 47.0117C465.414 47.0117 467.978 47.4951 470.116 48.4619C472.255 49.4287 474.247 50.8643 476.093 52.7686V41.2549H469.062V29.3018L497.23 26.4014V81.7725H502.812V95H475.741V89.3311C474.306 91.2646 472.475 92.8174 470.248 93.9893C468.021 95.1318 465.531 95.7324 462.777 95.791ZM469.809 82.959C471.186 82.959 472.431 82.6367 473.544 81.9922C474.657 81.3184 475.507 80.5273 476.093 79.6191V62.9639C475.419 62.1729 474.511 61.4697 473.368 60.8545C472.255 60.21 471.068 59.8877 469.809 59.8877C467.523 59.8877 465.663 60.8252 464.228 62.7002C462.792 64.5459 462.074 67.2412 462.074 70.7861C462.074 74.3896 462.733 77.3193 464.052 79.5752C465.37 81.8311 467.289 82.959 469.809 82.959ZM595.185 64.502V95H533.266V79.6191L563.061 40.5518H549.218L545.702 54.2188H533.002V25.083H594.306V39.4531L564.599 79.2676H578.09L582.88 64.502H595.185ZM628.847 95.791C623.515 95.791 618.871 94.8096 614.916 92.8467C610.902 90.9131 607.782 88.0713 605.556 84.3213C603.329 80.5713 602.216 76.1182 602.216 70.9619C602.216 65.835 603.329 61.4844 605.556 57.9102C607.782 54.3066 610.902 51.5967 614.916 49.7803C618.93 47.9346 623.573 47.0117 628.847 47.0117C634.267 47.0117 638.969 47.9492 642.953 49.8242C646.967 51.6992 650.072 54.4238 652.27 57.998C654.467 61.543 655.565 65.8643 655.565 70.9619C655.565 76.1182 654.467 80.5713 652.27 84.3213C650.043 88.0713 646.908 90.9277 642.865 92.8906C638.852 94.8242 634.179 95.791 628.847 95.791ZM628.847 82.959C630.78 82.959 632.216 82.0068 633.153 80.1025C634.062 78.2568 634.516 75.21 634.516 70.9619C634.516 67.0654 634.062 64.2529 633.153 62.5244C632.274 60.7666 630.839 59.8877 628.847 59.8877C626.942 59.8877 625.536 60.7666 624.628 62.5244C623.72 64.2529 623.266 67.0654 623.266 70.9619C623.266 75.1221 623.734 78.1689 624.672 80.1025C625.609 82.0068 627.001 82.959 628.847 82.959ZM688.876 95.791C683.544 95.791 678.9 94.8096 674.945 92.8467C670.932 90.9131 667.812 88.0713 665.585 84.3213C663.358 80.5713 662.245 76.1182 662.245 70.9619C662.245 65.835 663.358 61.4844 665.585 57.9102C667.812 54.3066 670.932 51.5967 674.945 49.7803C678.959 47.9346 683.603 47.0117 688.876 47.0117C694.296 47.0117 698.998 47.9492 702.982 49.8242C706.996 51.6992 710.102 54.4238 712.299 57.998C714.496 61.543 715.595 65.8643 715.595 70.9619C715.595 76.1182 714.496 80.5713 712.299 84.3213C710.072 88.0713 706.938 90.9277 702.895 92.8906C698.881 94.8242 694.208 95.791 688.876 95.791ZM688.876 82.959C690.81 82.959 692.245 82.0068 693.183 80.1025C694.091 78.2568 694.545 75.21 694.545 70.9619C694.545 67.0654 694.091 64.2529 693.183 62.5244C692.304 60.7666 690.868 59.8877 688.876 59.8877C686.972 59.8877 685.565 60.7666 684.657 62.5244C683.749 64.2529 683.295 67.0654 683.295 70.9619C683.295 75.1221 683.764 78.1689 684.701 80.1025C685.639 82.0068 687.03 82.959 688.876 82.959ZM774.657 79.5312V95H745.126V79.5312H753.607V40.5518H745.126V25.083H782.831L796.41 58.7451L809.857 25.083H845.014V40.5518H836.576V79.5312H845.014V95H808.407V79.5312H814.076V53.4277L798.607 95H785.907L767.626 52.417V79.5312H774.657ZM866.195 95.791C863.207 95.791 860.497 95.2051 858.065 94.0332C855.604 92.8906 853.642 91.2354 852.177 89.0674C850.712 86.8994 849.979 84.3799 849.979 81.5088C849.979 78.4033 850.844 75.7666 852.572 73.5986C854.301 71.4893 856.557 69.9072 859.34 68.8525C862.152 67.7979 865.185 67.2705 868.437 67.2705C872.274 67.2705 875.966 67.8418 879.511 68.9844V67.0068C879.511 64.6631 878.515 62.876 876.522 61.6455C874.56 60.415 871.894 59.7998 868.524 59.7998C867.089 59.7998 865.478 59.9756 863.69 60.3271C861.903 60.6787 860.16 61.1621 858.461 61.7773C856.762 62.3926 855.282 63.0811 854.022 63.8428L852.748 63.3154V50.5273C856.293 49.2676 859.911 48.374 863.603 47.8467C867.294 47.29 870.736 47.0117 873.93 47.0117C891.742 47.0117 900.648 52.0215 900.648 62.041V81.7725H904.779V95H882.279L880.302 87.793C879.042 90.2539 877.079 92.2021 874.413 93.6377C871.747 95.0732 869.008 95.791 866.195 95.791ZM874.457 84.541C875.424 84.541 876.405 84.3799 877.401 84.0576C878.427 83.7354 879.13 83.3984 879.511 83.0469V75.6641C879.071 75.6055 878.368 75.4297 877.401 75.1367C876.405 74.873 875.541 74.7412 874.809 74.7412C873.256 74.7412 872.011 75.2246 871.073 76.1914C870.165 77.1582 869.711 78.4473 869.711 80.0586C869.711 81.2598 870.136 82.3145 870.985 83.2227C871.864 84.1016 873.021 84.541 874.457 84.541ZM943.1 112.446H910.712V99.1309H916.381V61.5137H910.712V49.7363L937.431 47.0117V54.4824C938.925 52.4023 940.858 50.6445 943.231 49.209C945.604 47.7441 948.388 47.0117 951.581 47.0117C955.771 47.0117 959.345 48.0957 962.304 50.2637C965.263 52.4316 967.475 55.3467 968.939 59.0088C970.434 62.6709 971.181 66.7432 971.181 71.2256C971.181 75.6787 970.448 79.7949 968.983 83.5742C967.519 87.2949 965.292 90.2686 962.304 92.4951C959.345 94.6924 955.741 95.791 951.493 95.791C948.534 95.791 945.839 95.2197 943.407 94.0771C941.005 92.9053 939.013 91.4697 937.431 89.7705V99.2188H943.1V112.446ZM943.759 82.959C946.396 82.959 948.344 81.9043 949.604 79.7949C950.863 77.6855 951.493 74.917 951.493 71.4893C951.493 67.9736 950.805 65.1611 949.428 63.0518C948.051 60.9424 946.249 59.8877 944.022 59.8877C942.528 59.8877 941.181 60.2686 939.979 61.0303C938.778 61.7627 937.929 62.7295 937.431 63.9307V79.1797C938.749 81.6992 940.858 82.959 943.759 82.959Z" fill="#FDFDFD"/>
</g>
<path id="Vector 35" d="M233 865L406 865" stroke="white" stroke-width="15"/>
</g>
</g>
<defs>
<clipPath id="clip0_2_717">
<rect width="1080" height="1920" fill="white"/>
</clipPath>
</defs>
</svg>
