<svg width="1080" height="1920" viewBox="0 0 1080 1920" fill="none" xmlns="http://www.w3.org/2000/svg">
<g id="Zoo">
<rect width="1080" height="1920" fill="white"/>
<g id="dropzones">
<rect id="dz-1" x="36" y="1209" width="170" height="170" rx="16" fill="#FAD49A"/>
<rect id="dz-2" x="36" y="944" width="170" height="170" rx="16" fill="#FAD49A"/>
<rect id="dz-3" x="82" y="582" width="170" height="170" rx="16" fill="#FAD49A"/>
<rect id="dz-4" x="31" y="252" width="170" height="170" rx="16" fill="#FAD49A"/>
<path id="dz-5" d="M303 272C303 263.163 310.163 256 319 256H457C465.837 256 473 263.163 473 272V410C473 418.837 465.837 426 457 426H319C310.163 426 303 418.837 303 410V272Z" fill="#FAD49A"/>
<path id="dz-6" d="M578 272C578 263.163 585.163 256 594 256H732C740.837 256 748 263.163 748 272V410C748 418.837 740.837 426 732 426H594C585.163 426 578 418.837 578 410V272Z" fill="#FAD49A"/>
<rect id="dz-7" x="833" y="287" width="170" height="170" rx="16" fill="#FAD49A"/>
<path id="dz-8" d="M833 588C833 579.163 840.163 572 849 572H987C995.837 572 1003 579.163 1003 588V726C1003 734.837 995.837 742 987 742H849C840.163 742 833 734.837 833 726V588Z" fill="#FAD49A"/>
<path id="dz-9" d="M450 742C450 733.163 457.163 726 466 726H604C612.837 726 620 733.163 620 742V880C620 888.837 612.837 896 604 896H466C457.163 896 450 888.837 450 880V742Z" fill="#FAD49A"/>
<path id="dz-10" d="M833 896C833 887.163 840.163 880 849 880H987C995.837 880 1003 887.163 1003 896V1034C1003 1042.84 995.837 1050 987 1050H849C840.163 1050 833 1042.84 833 1034V896Z" fill="#FAD49A"/>
<path id="dz-11" d="M893 1288C893 1279.16 900.163 1272 909 1272H1047C1055.84 1272 1063 1279.16 1063 1288V1426C1063 1434.84 1055.84 1442 1047 1442H909C900.163 1442 893 1434.84 893 1426V1288Z" fill="#FAD49A"/>
<path id="dz-12" d="M543 1138C543 1129.16 550.163 1122 559 1122H697C705.837 1122 713 1129.16 713 1138V1276C713 1284.84 705.837 1292 697 1292H559C550.163 1292 543 1284.84 543 1276V1138Z" fill="#FAD49A"/>
</g>
</g>
</svg>
