<svg width="1080" height="1920" viewBox="0 0 1080 1920" fill="none" xmlns="http://www.w3.org/2000/svg">
<g clip-path="url(#clip0_2_717)">
<rect width="1080" height="1920" fill="white"/>
<rect y="116.167" width="1083" height="1323.67" fill="#147D49"/>
<path d="M271.252 1226.24C241.97 1272.77 350.304 1345.57 408.131 1376.16C425.345 1337.88 465.489 1249.61 488.352 1202.68C516.932 1144.01 408.131 1085.35 351.473 1026.69C294.816 983.069 307.853 1168.08 271.252 1226.24Z" fill="#71CEEC" stroke="#71CEEC"/>
<path d="M603.156 542.242C561.671 461.308 653.365 493.145 704.397 519.18C721.588 536.479 756.503 573.422 758.64 582.802C761.311 594.528 753.972 664.777 726.188 693.306C698.405 721.836 655.013 643.409 603.156 542.242Z" fill="#71CEEC" stroke="#71CEEC" stroke-width="15"/>
<path d="M232.141 1438V1289C232.154 1144.79 232.141 1000.86 232.141 856.5C298.185 853.667 316.046 810.6 317.971 669C319.896 527.4 299.789 479.5 232.141 473L232.146 187H790.5V491.5H1048V1094C974.001 1201 670.095 1379 563.028 1379H482.011V1438" stroke="white" stroke-width="25"/>
<path d="M524 202L524 666" stroke="white" stroke-width="20"/>
<path d="M1037 823L673 823" stroke="white" stroke-width="30"/>
<circle cx="536" cy="811" r="139" fill="#04793F" stroke="white" stroke-width="30"/>
<rect width="1083" height="118" fill="#2374AB"/>
<path d="M237.646 63.9307L228.769 95H205.17L189.877 40.5518H182.67V24.9951H221.825V40.5518H215.146L222.177 65.4688L233.603 24.9951H251.62L262.694 64.1504L269.506 40.5518H263.397V24.9951H292.401V40.5518H285.019L269.989 95H246.127L237.646 63.9307ZM319.032 95.791C313.7 95.791 309.057 94.8096 305.102 92.8467C301.088 90.9131 297.968 88.0713 295.741 84.3213C293.515 80.5713 292.401 76.1182 292.401 70.9619C292.401 65.835 293.515 61.4844 295.741 57.9102C297.968 54.3066 301.088 51.5967 305.102 49.7803C309.115 47.9346 313.759 47.0117 319.032 47.0117C324.452 47.0117 329.154 47.9492 333.139 49.8242C337.152 51.6992 340.258 54.4238 342.455 57.998C344.652 61.543 345.751 65.8643 345.751 70.9619C345.751 76.1182 344.652 80.5713 342.455 84.3213C340.229 88.0713 337.094 90.9277 333.051 92.8906C329.037 94.8242 324.364 95.791 319.032 95.791ZM319.032 82.959C320.966 82.959 322.401 82.0068 323.339 80.1025C324.247 78.2568 324.701 75.21 324.701 70.9619C324.701 67.0654 324.247 64.2529 323.339 62.5244C322.46 60.7666 321.024 59.8877 319.032 59.8877C317.128 59.8877 315.722 60.7666 314.813 62.5244C313.905 64.2529 313.451 67.0654 313.451 70.9619C313.451 75.1221 313.92 78.1689 314.857 80.1025C315.795 82.0068 317.187 82.959 319.032 82.959ZM385.653 95H351.903V81.7725H357.572V61.5137H351.903V49.6484L378.622 47.0117V54.6582C379.56 53.1934 380.937 51.8896 382.753 50.7471C384.569 49.5752 386.503 48.667 388.554 48.0225C390.634 47.3486 392.494 47.0117 394.135 47.0117V65.6445C390.707 64.502 387.88 63.9307 385.653 63.9307C382.841 63.9307 380.966 64.751 380.028 66.3916C379.091 68.0029 378.622 70.127 378.622 72.7637V81.7725H385.653V95ZM435.839 81.7725V95H400.287V81.7725H408.021V41.2549H400.287V29.3018L429.071 26.4014V81.7725H435.839ZM462.777 95.791C458.529 95.791 454.853 94.6631 451.747 92.4072C448.671 90.1514 446.327 87.1338 444.716 83.3545C443.134 79.5459 442.343 75.3564 442.343 70.7861C442.343 66.6553 443.163 62.7441 444.804 59.0527C446.444 55.4199 448.759 52.5049 451.747 50.3076C454.765 48.1104 458.324 47.0117 462.426 47.0117C465.414 47.0117 467.978 47.4951 470.116 48.4619C472.255 49.4287 474.247 50.8643 476.093 52.7686V41.2549H469.062V29.3018L497.23 26.4014V81.7725H502.812V95H475.741V89.3311C474.306 91.2646 472.475 92.8174 470.248 93.9893C468.021 95.1318 465.531 95.7324 462.777 95.791ZM469.809 82.959C471.186 82.959 472.431 82.6367 473.544 81.9922C474.657 81.3184 475.507 80.5273 476.093 79.6191V62.9639C475.419 62.1729 474.511 61.4697 473.368 60.8545C472.255 60.21 471.068 59.8877 469.809 59.8877C467.523 59.8877 465.663 60.8252 464.228 62.7002C462.792 64.5459 462.074 67.2412 462.074 70.7861C462.074 74.3896 462.733 77.3193 464.052 79.5752C465.37 81.8311 467.289 82.959 469.809 82.959ZM595.185 64.502V95H533.266V79.6191L563.061 40.5518H549.218L545.702 54.2188H533.002V25.083H594.306V39.4531L564.599 79.2676H578.09L582.88 64.502H595.185ZM628.847 95.791C623.515 95.791 618.871 94.8096 614.916 92.8467C610.902 90.9131 607.782 88.0713 605.556 84.3213C603.329 80.5713 602.216 76.1182 602.216 70.9619C602.216 65.835 603.329 61.4844 605.556 57.9102C607.782 54.3066 610.902 51.5967 614.916 49.7803C618.93 47.9346 623.573 47.0117 628.847 47.0117C634.267 47.0117 638.969 47.9492 642.953 49.8242C646.967 51.6992 650.072 54.4238 652.27 57.998C654.467 61.543 655.565 65.8643 655.565 70.9619C655.565 76.1182 654.467 80.5713 652.27 84.3213C650.043 88.0713 646.908 90.9277 642.865 92.8906C638.852 94.8242 634.179 95.791 628.847 95.791ZM628.847 82.959C630.78 82.959 632.216 82.0068 633.153 80.1025C634.062 78.2568 634.516 75.21 634.516 70.9619C634.516 67.0654 634.062 64.2529 633.153 62.5244C632.274 60.7666 630.839 59.8877 628.847 59.8877C626.942 59.8877 625.536 60.7666 624.628 62.5244C623.72 64.2529 623.266 67.0654 623.266 70.9619C623.266 75.1221 623.734 78.1689 624.672 80.1025C625.609 82.0068 627.001 82.959 628.847 82.959ZM688.876 95.791C683.544 95.791 678.9 94.8096 674.945 92.8467C670.932 90.9131 667.812 88.0713 665.585 84.3213C663.358 80.5713 662.245 76.1182 662.245 70.9619C662.245 65.835 663.358 61.4844 665.585 57.9102C667.812 54.3066 670.932 51.5967 674.945 49.7803C678.959 47.9346 683.603 47.0117 688.876 47.0117C694.296 47.0117 698.998 47.9492 702.982 49.8242C706.996 51.6992 710.102 54.4238 712.299 57.998C714.496 61.543 715.595 65.8643 715.595 70.9619C715.595 76.1182 714.496 80.5713 712.299 84.3213C710.072 88.0713 706.938 90.9277 702.895 92.8906C698.881 94.8242 694.208 95.791 688.876 95.791ZM688.876 82.959C690.81 82.959 692.245 82.0068 693.183 80.1025C694.091 78.2568 694.545 75.21 694.545 70.9619C694.545 67.0654 694.091 64.2529 693.183 62.5244C692.304 60.7666 690.868 59.8877 688.876 59.8877C686.972 59.8877 685.565 60.7666 684.657 62.5244C683.749 64.2529 683.295 67.0654 683.295 70.9619C683.295 75.1221 683.764 78.1689 684.701 80.1025C685.639 82.0068 687.03 82.959 688.876 82.959ZM774.657 79.5312V95H745.126V79.5312H753.607V40.5518H745.126V25.083H782.831L796.41 58.7451L809.857 25.083H845.014V40.5518H836.576V79.5312H845.014V95H808.407V79.5312H814.076V53.4277L798.607 95H785.907L767.626 52.417V79.5312H774.657ZM866.195 95.791C863.207 95.791 860.497 95.2051 858.065 94.0332C855.604 92.8906 853.642 91.2354 852.177 89.0674C850.712 86.8994 849.979 84.3799 849.979 81.5088C849.979 78.4033 850.844 75.7666 852.572 73.5986C854.301 71.4893 856.557 69.9072 859.34 68.8525C862.152 67.7979 865.185 67.2705 868.437 67.2705C872.274 67.2705 875.966 67.8418 879.511 68.9844V67.0068C879.511 64.6631 878.515 62.876 876.522 61.6455C874.56 60.415 871.894 59.7998 868.524 59.7998C867.089 59.7998 865.478 59.9756 863.69 60.3271C861.903 60.6787 860.16 61.1621 858.461 61.7773C856.762 62.3926 855.282 63.0811 854.022 63.8428L852.748 63.3154V50.5273C856.293 49.2676 859.911 48.374 863.603 47.8467C867.294 47.29 870.736 47.0117 873.93 47.0117C891.742 47.0117 900.648 52.0215 900.648 62.041V81.7725H904.779V95H882.279L880.302 87.793C879.042 90.2539 877.079 92.2021 874.413 93.6377C871.747 95.0732 869.008 95.791 866.195 95.791ZM874.457 84.541C875.424 84.541 876.405 84.3799 877.401 84.0576C878.427 83.7354 879.13 83.3984 879.511 83.0469V75.6641C879.071 75.6055 878.368 75.4297 877.401 75.1367C876.405 74.873 875.541 74.7412 874.809 74.7412C873.256 74.7412 872.011 75.2246 871.073 76.1914C870.165 77.1582 869.711 78.4473 869.711 80.0586C869.711 81.2598 870.136 82.3145 870.985 83.2227C871.864 84.1016 873.021 84.541 874.457 84.541ZM943.1 112.446H910.712V99.1309H916.381V61.5137H910.712V49.7363L937.431 47.0117V54.4824C938.925 52.4023 940.858 50.6445 943.231 49.209C945.604 47.7441 948.388 47.0117 951.581 47.0117C955.771 47.0117 959.345 48.0957 962.304 50.2637C965.263 52.4316 967.475 55.3467 968.939 59.0088C970.434 62.6709 971.181 66.7432 971.181 71.2256C971.181 75.6787 970.448 79.7949 968.983 83.5742C967.519 87.2949 965.292 90.2686 962.304 92.4951C959.345 94.6924 955.741 95.791 951.493 95.791C948.534 95.791 945.839 95.2197 943.407 94.0771C941.005 92.9053 939.013 91.4697 937.431 89.7705V99.2188H943.1V112.446ZM943.759 82.959C946.396 82.959 948.344 81.9043 949.604 79.7949C950.863 77.6855 951.493 74.917 951.493 71.4893C951.493 67.9736 950.805 65.1611 949.428 63.0518C948.051 60.9424 946.249 59.8877 944.022 59.8877C942.528 59.8877 941.181 60.2686 939.979 61.0303C938.778 61.7627 937.929 62.7295 937.431 63.9307V79.1797C938.749 81.6992 940.858 82.959 943.759 82.959Z" fill="#FDFDFD"/>
<path d="M242.5 865H405.5" stroke="white" stroke-width="15"/>
</g>
<defs>
<clipPath id="clip0_2_717">
<rect width="1080" height="1920" fill="white"/>
</clipPath>
</defs>
</svg>
