<svg width="1080" height="1920" viewBox="0 0 1080 1920" fill="none" xmlns="http://www.w3.org/2000/svg">
<g id="Zoo" clip-path="url(#clip0_2_717)">
<rect width="1080" height="1920" fill="white"/>
<g id="background">
<g id="background-color">
<rect id="background-green" y="116.167" width="1083" height="1803.83" fill="#147D49"/>
</g>
<g id="roads">
<path id="Vector 28" d="M232.141 1438V1289C232.154 1144.79 232.141 1000.86 232.141 856.5C298.185 853.667 316.046 810.6 317.971 669C319.896 527.4 299.789 479.5 232.141 473L232.146 187H790.5V491.5H1048V1094C974.001 1201 670.095 1379 563.028 1379H482.011V1438" stroke="white" stroke-width="25"/>
<path id="Vector 31" d="M524 202L524 666" stroke="white" stroke-width="20"/>
<path id="Vector 29" d="M1037 823L673 823" stroke="white" stroke-width="30"/>
<circle id="Ellipse 125" cx="536" cy="811" r="139" fill="#04793F" stroke="white" stroke-width="30"/>
</g>
<path id="Vector 34" d="M297.961 1159.2C280.105 1211.14 402.213 1257.08 465.499 1273.56C473.499 1232.42 492.378 1137.41 503.896 1086.55C518.293 1022.98 398.965 990.886 330.393 946.844C265.262 917.423 320.282 1094.28 297.961 1159.2Z" fill="#71CEEC" stroke="#71CEEC"/>
<path id="Vector 43" d="M604.525 561.004C563.04 480.182 654.734 511.975 705.766 537.974C722.957 555.249 757.872 592.14 760.009 601.508C762.68 613.217 755.341 683.369 727.557 711.859C699.774 740.35 656.382 662.031 604.525 561.004Z" fill="#71CEEC" stroke="#71CEEC" stroke-width="15"/>
<g id="004-gate 1">
<path id="Vector" d="M423.464 1332.18H409.607V1408.54H423.464V1332.18Z" fill="#E3E8F5"/>
<path id="Vector_2" d="M409.606 1332.18V1341.35C414.791 1341.35 418.994 1345.12 418.994 1349.78V1408.54H423.463V1332.18H409.606Z" fill="#D7DDEB"/>
<path id="Vector_3" d="M431.782 1432.41H397.556V1418.04C397.556 1409.74 405.051 1403.01 414.296 1403.01H415.042C424.287 1403.01 431.782 1409.74 431.782 1418.04V1432.41Z" fill="#24C143"/>
<path id="Vector_4" d="M415.042 1403.01H414.296C412.457 1403.01 410.689 1403.28 409.034 1403.77C415.7 1405.75 420.512 1411.39 420.512 1418.04V1432.41H431.782V1418.04C431.782 1409.74 424.288 1403.01 415.042 1403.01Z" fill="#1DB52F"/>
<path id="Vector_5" d="M311.378 1332.18H297.521V1408.54H311.378V1332.18Z" fill="#E3E8F5"/>
<path id="Vector_6" d="M297.522 1332.18V1342.04C302.549 1342.04 306.625 1345.7 306.625 1350.21V1408.54H311.379V1332.18H297.522Z" fill="#D7DDEB"/>
<path id="SVGCleanerId_0" d="M286.948 1308.14V1340.87C286.948 1342.22 288.505 1343.1 289.862 1342.53C311.393 1333.49 335.42 1328.43 360.762 1328.43C386.105 1328.43 410.131 1333.49 431.662 1342.53C433.019 1343.1 434.576 1342.22 434.576 1340.87V1308.14C434.576 1307.38 434.053 1306.69 433.259 1306.42C410.718 1298.78 386.285 1294.59 360.762 1294.59C335.239 1294.59 310.807 1298.78 288.265 1306.42C287.471 1306.69 286.948 1307.38 286.948 1308.14Z" fill="#24C143"/>
<g id="Group">
<path id="SVGCleanerId_0_1_" d="M286.948 1308.14V1340.87C286.948 1342.22 288.505 1343.1 289.862 1342.53C311.393 1333.49 335.42 1328.43 360.762 1328.43C386.105 1328.43 410.131 1333.49 431.662 1342.53C433.019 1343.1 434.576 1342.22 434.576 1340.87V1308.14C434.576 1307.38 434.053 1306.69 433.259 1306.42C410.718 1298.78 386.285 1294.59 360.762 1294.59C335.239 1294.59 310.807 1298.78 288.265 1306.42C287.471 1306.69 286.948 1307.38 286.948 1308.14Z" fill="#24C143"/>
</g>
<path id="Vector_7" d="M433.258 1306.42C425.641 1303.84 417.808 1301.65 409.79 1299.89C408.229 1311.7 403.289 1322.59 395.858 1331.74C408.366 1334.14 420.358 1337.78 431.662 1342.53C433.019 1343.1 434.575 1342.22 434.575 1340.87V1308.14C434.575 1307.38 434.052 1306.69 433.258 1306.42Z" fill="#1FA335"/>
<path id="Vector_8" d="M291.865 1310.66C291.865 1310.22 292.173 1309.83 292.636 1309.68C314.44 1302.6 337.345 1299.01 360.761 1299.01C384.178 1299.01 407.083 1302.6 428.887 1309.68C429.35 1309.83 429.658 1310.22 429.658 1310.66V1336.18C429.658 1336.51 429.284 1336.73 428.948 1336.59C407.404 1328.25 384.491 1324.02 360.762 1324.02C337.032 1324.02 314.119 1328.25 292.575 1336.59C292.239 1336.72 291.866 1336.51 291.866 1336.18V1310.66H291.865Z" fill="#9FD961"/>
<path id="Vector_9" d="M428.887 1309.68C422.368 1307.56 415.75 1305.76 409.05 1304.27C407.293 1312.77 403.768 1320.72 398.833 1327.79C409.119 1329.87 419.175 1332.81 428.949 1336.59C429.285 1336.72 429.658 1336.51 429.658 1336.18V1310.66C429.658 1310.22 429.35 1309.83 428.887 1309.68Z" fill="#83D156"/>
<path id="Vector_10" d="M323.429 1432.41H286.948V1418.52C286.948 1409.96 294.686 1403.01 304.231 1403.01H306.147C315.692 1403.01 323.43 1409.96 323.43 1418.52L323.429 1432.41Z" fill="#24C143"/>
<path id="Vector_11" d="M306.146 1403.01H304.231C302.911 1403.01 301.628 1403.15 300.393 1403.4C308.09 1404.97 313.837 1411.14 313.837 1418.52V1432.41H323.429V1418.52C323.429 1409.96 315.691 1403.01 306.146 1403.01Z" fill="#1DB52F"/>
<g id="Group_2">
<path id="Vector_12" d="M293.977 1432.41H278.459V1419.24C278.459 1418.4 279.224 1417.71 280.168 1417.71H292.268C293.212 1417.71 293.977 1418.4 293.977 1419.24V1432.41Z" fill="#FFCE7F"/>
<path id="Vector_13" d="M439.541 1432.41H424.022V1419.24C424.022 1418.4 424.788 1417.71 425.731 1417.71H437.832C438.776 1417.71 439.541 1418.4 439.541 1419.24V1432.41Z" fill="#FFCE7F"/>
</g>
<path id="Vector_14" d="M332.79 1321.36C332.79 1322.06 333.214 1322.41 334.062 1322.41H347.595C347.986 1322.41 348.307 1322.24 348.557 1321.9C348.807 1321.56 348.932 1321.18 348.932 1320.75C348.932 1320.32 348.806 1319.93 348.557 1319.59C348.307 1319.25 347.986 1319.08 347.595 1319.08H338.204L347.856 1303.42C348.182 1302.93 348.345 1302.47 348.345 1302.04C348.345 1301.36 347.921 1301.02 347.073 1301.02H334.682C334.246 1301.02 333.92 1301.18 333.703 1301.52C333.486 1301.85 333.377 1302.24 333.377 1302.69C333.377 1303.15 333.491 1303.55 333.72 1303.87C333.948 1304.19 334.268 1304.35 334.682 1304.35H342.932L333.247 1320.04C332.942 1320.49 332.79 1320.93 332.79 1321.36Z" fill="black"/>
<path id="Vector_15" d="M358.455 1301.02C356.128 1301.02 354.275 1301.55 352.895 1302.63C351.514 1303.7 350.824 1305.4 350.824 1307.72V1315.89C350.824 1318.21 351.514 1319.91 352.895 1320.98C354.276 1322.05 356.129 1322.59 358.455 1322.59C360.781 1322.59 362.64 1322.05 364.031 1320.98C365.422 1319.91 366.118 1318.21 366.118 1315.89V1307.72C366.118 1305.4 365.422 1303.7 364.031 1302.63C362.64 1301.55 360.781 1301.02 358.455 1301.02ZM361.879 1315.89C361.879 1318.13 360.738 1319.25 358.455 1319.25C356.194 1319.25 355.064 1318.13 355.064 1315.89V1307.72C355.064 1305.48 356.194 1304.35 358.455 1304.35C360.738 1304.35 361.879 1305.48 361.879 1307.72V1315.89Z" fill="black"/>
<path id="Vector_16" d="M377.107 1301.02C374.781 1301.02 372.928 1301.55 371.547 1302.63C370.167 1303.7 369.477 1305.4 369.477 1307.72V1315.89C369.477 1318.21 370.167 1319.91 371.547 1320.98C372.928 1322.05 374.781 1322.59 377.107 1322.59C379.433 1322.59 381.292 1322.05 382.684 1320.98C384.075 1319.91 384.771 1318.21 384.771 1315.89V1307.72C384.771 1305.4 384.075 1303.7 382.684 1302.63C381.292 1301.55 379.433 1301.02 377.107 1301.02ZM380.531 1315.89C380.531 1318.13 379.39 1319.25 377.107 1319.25C374.846 1319.25 373.716 1318.13 373.716 1315.89V1307.72C373.716 1305.48 374.846 1304.35 377.107 1304.35C379.39 1304.35 380.531 1305.48 380.531 1307.72V1315.89Z" fill="black"/>
<path id="Vector_17" d="M437.832 1415.5H434.029C433.42 1411.78 431.483 1408.36 428.437 1405.69C427.651 1405.01 426.807 1404.39 425.921 1403.84V1359.09C425.921 1357.87 424.82 1356.88 423.462 1356.88C422.104 1356.88 421.003 1357.87 421.003 1359.09V1401.65C419.101 1401.1 417.095 1400.8 415.042 1400.8H414.296C413.541 1400.8 412.797 1400.85 412.065 1400.92V1337.93C415.069 1338.81 418.049 1339.78 421.003 1340.82V1350.11C421.003 1351.33 422.104 1352.32 423.462 1352.32C424.82 1352.32 425.921 1351.33 425.921 1350.11V1342.64C427.494 1343.25 429.061 1343.87 430.619 1344.53C432.024 1345.12 433.643 1345.02 434.951 1344.28C436.255 1343.53 437.034 1342.26 437.034 1340.87V1308.14C437.034 1306.47 435.866 1304.95 434.127 1304.36C423.521 1300.76 412.503 1297.93 401.379 1295.95C400.048 1295.71 398.753 1296.49 398.489 1297.69C398.224 1298.88 399.09 1300.04 400.422 1300.28C411.185 1302.2 421.847 1304.93 432.116 1308.39V1340.29C409.684 1330.96 385.68 1326.22 360.761 1326.22C338.479 1326.22 316.929 1330.01 296.579 1337.48C296.572 1337.48 296.564 1337.49 296.557 1337.49C294.157 1338.37 291.772 1339.3 289.406 1340.29V1308.39C312.194 1300.7 336.2 1296.8 360.761 1296.8C370.583 1296.8 380.455 1297.44 390.104 1298.69C391.448 1298.87 392.695 1298.03 392.89 1296.82C393.085 1295.62 392.154 1294.5 390.81 1294.32C380.928 1293.04 370.818 1292.38 360.761 1292.38C335.506 1292.38 310.822 1296.41 287.395 1304.36C285.657 1304.95 284.489 1306.47 284.489 1308.14V1340.87C284.489 1342.26 285.268 1343.53 286.572 1344.28C287.31 1344.7 288.146 1344.91 288.988 1344.91C289.638 1344.91 290.292 1344.79 290.904 1344.53C292.284 1343.95 293.671 1343.39 295.063 1342.84V1402.82C289.736 1405.33 285.837 1409.96 284.78 1415.5H280.168C277.869 1415.5 276 1417.18 276 1419.24V1432.41C276 1433.63 277.101 1434.62 278.459 1434.62H439.541C440.899 1434.62 442 1433.63 442 1432.41V1419.24C442 1417.18 440.131 1415.5 437.832 1415.5ZM400.014 1406.54V1369.1C402.4 1369.91 404.779 1370.8 407.147 1371.77V1402.05C404.399 1403.04 401.964 1404.59 400.014 1406.54ZM395.097 1430.2H387.964V1365.68C390.346 1366.22 392.725 1366.84 395.097 1367.54V1418.04V1430.2ZM383.046 1364.68V1430.2H375.488V1363.58C378.01 1363.86 380.53 1364.23 383.046 1364.68ZM407.147 1336.56V1366.94C404.249 1365.81 401.337 1364.79 398.413 1363.88C398.362 1363.87 398.312 1363.85 398.26 1363.84C387.162 1360.41 375.908 1358.62 364.664 1358.49C363.281 1358.48 357.703 1358.48 356.321 1358.49C345.076 1358.62 333.823 1360.41 322.725 1363.84C322.672 1363.85 322.621 1363.87 322.57 1363.88C319.647 1364.79 316.735 1365.81 313.837 1366.94V1336.7C328.959 1332.67 344.663 1330.64 360.761 1330.64C376.669 1330.64 392.191 1332.62 407.147 1336.56ZM325.888 1367.54C328.26 1366.84 330.638 1366.22 333.021 1365.68V1430.2H325.888V1418.52V1367.54ZM337.938 1364.68C340.455 1364.23 342.975 1363.86 345.496 1363.58V1430.2H337.938V1364.68ZM299.981 1341.01C302.936 1339.96 305.916 1338.98 308.92 1338.09V1394.11C308.92 1395.32 310.021 1396.31 311.379 1396.31C312.737 1396.31 313.838 1395.32 313.838 1394.11V1371.77C316.206 1370.8 318.585 1369.91 320.97 1369.1V1406.84C317.35 1403.14 312.048 1400.8 306.147 1400.8H304.231C302.772 1400.8 301.352 1400.95 299.981 1401.22C299.981 1401.22 299.981 1341.01 299.981 1341.01ZM286.948 1430.2H280.918V1419.92H291.518V1430.2H286.948ZM296.436 1430.2V1419.24C296.436 1417.18 294.567 1415.5 292.268 1415.5H289.793C291.319 1409.58 297.225 1405.22 304.231 1405.22H306.147C314.32 1405.22 320.97 1411.19 320.97 1418.52V1430.2H311.379L296.436 1430.2ZM360.492 1378.22C359.135 1378.22 358.034 1379.2 358.034 1380.42V1430.2H350.414V1363.14C352.404 1363.01 354.394 1362.93 356.383 1362.91C356.93 1362.9 357.482 1362.9 358.034 1362.9V1370.36C358.034 1371.58 359.134 1372.57 360.492 1372.57C361.851 1372.57 362.951 1371.58 362.951 1370.36V1362.9C363.503 1362.9 364.055 1362.9 364.602 1362.91C366.592 1362.93 368.581 1363.01 370.571 1363.14V1430.2H362.951V1380.42C362.951 1379.2 361.85 1378.22 360.492 1378.22ZM400.014 1430.2V1418.04C400.014 1410.97 406.421 1405.22 414.296 1405.22H415.042C417.568 1405.22 419.931 1405.8 421.983 1406.81C422.147 1406.92 422.325 1407.02 422.517 1407.09C425.845 1408.91 428.259 1411.92 429.045 1415.5H425.731C423.433 1415.5 421.564 1417.18 421.564 1419.24V1430.2H409.606L400.014 1430.2ZM437.082 1430.2H431.782H426.482V1419.92H437.082V1430.2Z" fill="black"/>
</g>
<line id="Line 28" x1="220" y1="1439" x2="494" y2="1439" stroke="white" stroke-width="10"/>
<g id="title">
<rect id="Rectangle 263" width="1083" height="118" fill="#2374AB"/>
<path id="World Zoo Map" d="M237.646 63.9307L228.769 95H205.17L189.877 40.5518H182.67V24.9951H221.825V40.5518H215.146L222.177 65.4688L233.603 24.9951H251.62L262.694 64.1504L269.506 40.5518H263.397V24.9951H292.401V40.5518H285.019L269.989 95H246.127L237.646 63.9307ZM319.032 95.791C313.7 95.791 309.057 94.8096 305.102 92.8467C301.088 90.9131 297.968 88.0713 295.741 84.3213C293.515 80.5713 292.401 76.1182 292.401 70.9619C292.401 65.835 293.515 61.4844 295.741 57.9102C297.968 54.3066 301.088 51.5967 305.102 49.7803C309.115 47.9346 313.759 47.0117 319.032 47.0117C324.452 47.0117 329.154 47.9492 333.139 49.8242C337.152 51.6992 340.258 54.4238 342.455 57.998C344.652 61.543 345.751 65.8643 345.751 70.9619C345.751 76.1182 344.652 80.5713 342.455 84.3213C340.229 88.0713 337.094 90.9277 333.051 92.8906C329.037 94.8242 324.364 95.791 319.032 95.791ZM319.032 82.959C320.966 82.959 322.401 82.0068 323.339 80.1025C324.247 78.2568 324.701 75.21 324.701 70.9619C324.701 67.0654 324.247 64.2529 323.339 62.5244C322.46 60.7666 321.024 59.8877 319.032 59.8877C317.128 59.8877 315.722 60.7666 314.813 62.5244C313.905 64.2529 313.451 67.0654 313.451 70.9619C313.451 75.1221 313.92 78.1689 314.857 80.1025C315.795 82.0068 317.187 82.959 319.032 82.959ZM385.653 95H351.903V81.7725H357.572V61.5137H351.903V49.6484L378.622 47.0117V54.6582C379.56 53.1934 380.937 51.8896 382.753 50.7471C384.569 49.5752 386.503 48.667 388.554 48.0225C390.634 47.3486 392.494 47.0117 394.135 47.0117V65.6445C390.707 64.502 387.88 63.9307 385.653 63.9307C382.841 63.9307 380.966 64.751 380.028 66.3916C379.091 68.0029 378.622 70.127 378.622 72.7637V81.7725H385.653V95ZM435.839 81.7725V95H400.287V81.7725H408.021V41.2549H400.287V29.3018L429.071 26.4014V81.7725H435.839ZM462.777 95.791C458.529 95.791 454.853 94.6631 451.747 92.4072C448.671 90.1514 446.327 87.1338 444.716 83.3545C443.134 79.5459 442.343 75.3564 442.343 70.7861C442.343 66.6553 443.163 62.7441 444.804 59.0527C446.444 55.4199 448.759 52.5049 451.747 50.3076C454.765 48.1104 458.324 47.0117 462.426 47.0117C465.414 47.0117 467.978 47.4951 470.116 48.4619C472.255 49.4287 474.247 50.8643 476.093 52.7686V41.2549H469.062V29.3018L497.23 26.4014V81.7725H502.812V95H475.741V89.3311C474.306 91.2646 472.475 92.8174 470.248 93.9893C468.021 95.1318 465.531 95.7324 462.777 95.791ZM469.809 82.959C471.186 82.959 472.431 82.6367 473.544 81.9922C474.657 81.3184 475.507 80.5273 476.093 79.6191V62.9639C475.419 62.1729 474.511 61.4697 473.368 60.8545C472.255 60.21 471.068 59.8877 469.809 59.8877C467.523 59.8877 465.663 60.8252 464.228 62.7002C462.792 64.5459 462.074 67.2412 462.074 70.7861C462.074 74.3896 462.733 77.3193 464.052 79.5752C465.37 81.8311 467.289 82.959 469.809 82.959ZM595.185 64.502V95H533.266V79.6191L563.061 40.5518H549.218L545.702 54.2188H533.002V25.083H594.306V39.4531L564.599 79.2676H578.09L582.88 64.502H595.185ZM628.847 95.791C623.515 95.791 618.871 94.8096 614.916 92.8467C610.902 90.9131 607.782 88.0713 605.556 84.3213C603.329 80.5713 602.216 76.1182 602.216 70.9619C602.216 65.835 603.329 61.4844 605.556 57.9102C607.782 54.3066 610.902 51.5967 614.916 49.7803C618.93 47.9346 623.573 47.0117 628.847 47.0117C634.267 47.0117 638.969 47.9492 642.953 49.8242C646.967 51.6992 650.072 54.4238 652.27 57.998C654.467 61.543 655.565 65.8643 655.565 70.9619C655.565 76.1182 654.467 80.5713 652.27 84.3213C650.043 88.0713 646.908 90.9277 642.865 92.8906C638.852 94.8242 634.179 95.791 628.847 95.791ZM628.847 82.959C630.78 82.959 632.216 82.0068 633.153 80.1025C634.062 78.2568 634.516 75.21 634.516 70.9619C634.516 67.0654 634.062 64.2529 633.153 62.5244C632.274 60.7666 630.839 59.8877 628.847 59.8877C626.942 59.8877 625.536 60.7666 624.628 62.5244C623.72 64.2529 623.266 67.0654 623.266 70.9619C623.266 75.1221 623.734 78.1689 624.672 80.1025C625.609 82.0068 627.001 82.959 628.847 82.959ZM688.876 95.791C683.544 95.791 678.9 94.8096 674.945 92.8467C670.932 90.9131 667.812 88.0713 665.585 84.3213C663.358 80.5713 662.245 76.1182 662.245 70.9619C662.245 65.835 663.358 61.4844 665.585 57.9102C667.812 54.3066 670.932 51.5967 674.945 49.7803C678.959 47.9346 683.603 47.0117 688.876 47.0117C694.296 47.0117 698.998 47.9492 702.982 49.8242C706.996 51.6992 710.102 54.4238 712.299 57.998C714.496 61.543 715.595 65.8643 715.595 70.9619C715.595 76.1182 714.496 80.5713 712.299 84.3213C710.072 88.0713 706.938 90.9277 702.895 92.8906C698.881 94.8242 694.208 95.791 688.876 95.791ZM688.876 82.959C690.81 82.959 692.245 82.0068 693.183 80.1025C694.091 78.2568 694.545 75.21 694.545 70.9619C694.545 67.0654 694.091 64.2529 693.183 62.5244C692.304 60.7666 690.868 59.8877 688.876 59.8877C686.972 59.8877 685.565 60.7666 684.657 62.5244C683.749 64.2529 683.295 67.0654 683.295 70.9619C683.295 75.1221 683.764 78.1689 684.701 80.1025C685.639 82.0068 687.03 82.959 688.876 82.959ZM774.657 79.5312V95H745.126V79.5312H753.607V40.5518H745.126V25.083H782.831L796.41 58.7451L809.857 25.083H845.014V40.5518H836.576V79.5312H845.014V95H808.407V79.5312H814.076V53.4277L798.607 95H785.907L767.626 52.417V79.5312H774.657ZM866.195 95.791C863.207 95.791 860.497 95.2051 858.065 94.0332C855.604 92.8906 853.642 91.2354 852.177 89.0674C850.712 86.8994 849.979 84.3799 849.979 81.5088C849.979 78.4033 850.844 75.7666 852.572 73.5986C854.301 71.4893 856.557 69.9072 859.34 68.8525C862.152 67.7979 865.185 67.2705 868.437 67.2705C872.274 67.2705 875.966 67.8418 879.511 68.9844V67.0068C879.511 64.6631 878.515 62.876 876.522 61.6455C874.56 60.415 871.894 59.7998 868.524 59.7998C867.089 59.7998 865.478 59.9756 863.69 60.3271C861.903 60.6787 860.16 61.1621 858.461 61.7773C856.762 62.3926 855.282 63.0811 854.022 63.8428L852.748 63.3154V50.5273C856.293 49.2676 859.911 48.374 863.603 47.8467C867.294 47.29 870.736 47.0117 873.93 47.0117C891.742 47.0117 900.648 52.0215 900.648 62.041V81.7725H904.779V95H882.279L880.302 87.793C879.042 90.2539 877.079 92.2021 874.413 93.6377C871.747 95.0732 869.008 95.791 866.195 95.791ZM874.457 84.541C875.424 84.541 876.405 84.3799 877.401 84.0576C878.427 83.7354 879.13 83.3984 879.511 83.0469V75.6641C879.071 75.6055 878.368 75.4297 877.401 75.1367C876.405 74.873 875.541 74.7412 874.809 74.7412C873.256 74.7412 872.011 75.2246 871.073 76.1914C870.165 77.1582 869.711 78.4473 869.711 80.0586C869.711 81.2598 870.136 82.3145 870.985 83.2227C871.864 84.1016 873.021 84.541 874.457 84.541ZM943.1 112.446H910.712V99.1309H916.381V61.5137H910.712V49.7363L937.431 47.0117V54.4824C938.925 52.4023 940.858 50.6445 943.231 49.209C945.604 47.7441 948.388 47.0117 951.581 47.0117C955.771 47.0117 959.345 48.0957 962.304 50.2637C965.263 52.4316 967.475 55.3467 968.939 59.0088C970.434 62.6709 971.181 66.7432 971.181 71.2256C971.181 75.6787 970.448 79.7949 968.983 83.5742C967.519 87.2949 965.292 90.2686 962.304 92.4951C959.345 94.6924 955.741 95.791 951.493 95.791C948.534 95.791 945.839 95.2197 943.407 94.0771C941.005 92.9053 939.013 91.4697 937.431 89.7705V99.2188H943.1V112.446ZM943.759 82.959C946.396 82.959 948.344 81.9043 949.604 79.7949C950.863 77.6855 951.493 74.917 951.493 71.4893C951.493 67.9736 950.805 65.1611 949.428 63.0518C948.051 60.9424 946.249 59.8877 944.022 59.8877C942.528 59.8877 941.181 60.2686 939.979 61.0303C938.778 61.7627 937.929 62.7295 937.431 63.9307V79.1797C938.749 81.6992 940.858 82.959 943.759 82.959Z" fill="#FDFDFD"/>
</g>
<path id="Vector 35" d="M242.5 865H405.5" stroke="white" stroke-width="15"/>
</g>
</g>
<defs>
<clipPath id="clip0_2_717">
<rect width="1080" height="1920" fill="white"/>
</clipPath>
</defs>
</svg>
