<svg height="512" viewBox="0 0 512 512" width="512" xmlns="http://www.w3.org/2000/svg"><g id="Flat"><path d="m448 417.97v78.03h-384v-78.03a64 64 0 0 1 48.48-62.09l79.52-19.88 16-8v-72h96v72l16 8 79.52 19.88a64 64 0 0 1 48.48 62.09z" fill="#fdc8a2"/><path d="m304 256v27.2l-.95 1.52a24 24 0 0 1 -20.35 11.28h-53.4a24 24 0 0 1 -20.35-11.28l-.95-1.52v-27.2z" fill="#fdbf92"/><path d="m399.522 355.881-79.522-19.881c-23.109 57.773-104.891 57.773-128 0l-79.522 19.881a64 64 0 0 0 -48.478 62.089v78.03h384v-78.03a64 64 0 0 0 -48.478-62.089z" fill="#dfdfdd"/><path d="m256 416a93.928 93.928 0 0 1 -26.235-3.575l4.47-15.363a77.943 77.943 0 0 0 21.765 2.938c34.825 0 48.8-19.654 49.38-20.491l13.276 8.929c-.75 1.125-18.878 27.562-62.656 27.562z" fill="#d5d5d3"/><path d="m282.7 272h-53.4a24 24 0 0 1 -20.352-11.28l-26.87-42.992a40 40 0 0 1 -6.08-21.2v-76.528a80 80 0 0 1 80-80 80 80 0 0 1 80 80v76.528a40 40 0 0 1 -6.08 21.2l-26.868 42.992a24 24 0 0 1 -20.35 11.28z" fill="#fdc8a2"/><path d="m172 184h4v-56h-4a28 28 0 0 0 -28 28 28 28 0 0 0 28 28z" fill="#fdb683"/><path d="m340 128h-4v56h4a28 28 0 0 0 28-28 28 28 0 0 0 -28-28z" fill="#fdb683"/><path d="m240 152h16v40h-16z" fill="#fcb079"/><path d="m240.764 227.716c-3.034 0-6.116-.075-9.207-.247l.886-15.975c22.647 1.257 45.756-3.292 45.987-3.339l3.143 15.689a230.934 230.934 0 0 1 -40.809 3.872z" fill="#fcb079"/><path d="m304 64 32 64v-56a32 32 0 0 0 -32-32z" fill="#804a32"/><path d="m176 128v-64h32z" fill="#804a32"/><path d="m304 40v24h-128a39.875 39.875 0 0 1 11.72-28.28 41.01 41.01 0 0 1 6.11-5.02 39.923 39.923 0 0 1 14.83-6.02 39.452 39.452 0 0 1 7.34-.68h62.11a28.939 28.939 0 0 1 25.89 16z" fill="#91563a"/><path d="m288.78 64h-17.23l-16.04-40h17.23z" fill="#804a32"/><path d="m256.29 64h-17.16l-15.51-40h17.16z" fill="#804a32"/><path d="m224.57 64h-17.27l-13.47-33.3a39.923 39.923 0 0 1 14.83-6.02z" fill="#804a32"/><path d="m208 304v192h-144v-78.03a64 64 0 0 1 48.48-62.09l79.52-19.88z" fill="#2f486e"/><path d="m448 417.97v78.03h-144v-192l16 32 79.52 19.88a64.018 64.018 0 0 1 48.48 62.09z" fill="#2f486e"/><path d="m208 304-56 72 32 16-16 32 40 64z" fill="#415e89"/><path d="m304 304 56 72-32 16 16 32-40 64z" fill="#415e89"/><g fill="#26395a"><path d="m125.66 402.34-11.32 11.32-36.03-36.03a64.227 64.227 0 0 1 11.57-11.07z"/><path d="m120 424h16v72h-16z"/><path d="m124.422 487.155c-18.049-9.024-33.164-52.085-36.012-60.625l15.179-5.061c6.219 18.632 19.015 46.888 27.989 51.376z"/><path d="m376 424h16v72h-16z"/><path d="m387.578 487.155-7.156-14.31c8.992-4.5 21.78-32.749 27.988-51.375l15.18 5.06c-2.848 8.54-17.963 51.601-36.012 60.625z"/><path d="m433.97 377.99-36.36 35.72-11.22-11.42 36.1-35.45a63.485 63.485 0 0 1 11.48 11.15z"/></g><path d="m232 93.578h16v28.844h-16z" fill="#fcb079" transform="matrix(.832 -.555 .555 .832 -19.6 151.267)"/><path d="m192 128h40a16 16 0 0 1 16 16v8a32 32 0 0 1 -32 32h-8a32 32 0 0 1 -32-32v-8a16 16 0 0 1 16-16z" fill="#dfdfdd"/><path d="m280 128h40a16 16 0 0 1 16 16v8a32 32 0 0 1 -32 32h-8a32 32 0 0 1 -32-32v-8a16 16 0 0 1 16-16z" fill="#dfdfdd"/><path d="m320 120h-40a23.943 23.943 0 0 0 -17.869 8h-12.262a23.943 23.943 0 0 0 -17.869-8h-40a24.028 24.028 0 0 0 -24 24v8a40.045 40.045 0 0 0 40 40h8a40.045 40.045 0 0 0 40-40 40.045 40.045 0 0 0 40 40h8a40.045 40.045 0 0 0 40-40v-8a24.028 24.028 0 0 0 -24-24zm-80 32a24.028 24.028 0 0 1 -24 24h-8a24.028 24.028 0 0 1 -24-24v-8a8.009 8.009 0 0 1 8-8h40a8.009 8.009 0 0 1 8 8zm88 0a24.028 24.028 0 0 1 -24 24h-8a24.028 24.028 0 0 1 -24-24v-8a8.009 8.009 0 0 1 8-8h40a8.009 8.009 0 0 1 8 8z" fill="#34507b"/></g></svg>