<svg height="512" viewBox="0 0 512 512" width="512" xmlns="http://www.w3.org/2000/svg"><g id="Flat"><path d="m432 373.27v122.73h-352v-122.73a56.018 56.018 0 0 1 44.27-54.76l66.12-14.16a21.98 21.98 0 0 0 3.16-.93 22.287 22.287 0 0 0 14.45-20.86v-42.56h96v42.56a22.287 22.287 0 0 0 14.45 20.86l1.55.58 67.73 14.51a56.018 56.018 0 0 1 44.27 54.76z" fill="#fdc8a2"/><path d="m304 240v37.28a70.9 70.9 0 0 1 -96 0v-37.28z" fill="#fdbf92"/><path d="m80 496v-122.729a56 56 0 0 1 44.266-54.757l67.734-14.514 4.358 17.433a61.477 61.477 0 0 0 59.642 46.567 61.477 61.477 0 0 0 59.642-46.567l4.358-17.433 67.734 14.514a56 56 0 0 1 44.266 54.757v122.729" fill="#d65246"/><path d="m256 408c-52.342 0-70.412-34.935-71.155-36.422l7.155-3.578 7.13-3.628c.584 1.128 14.796 27.628 56.87 27.628s56.286-26.5 56.87-27.628l14.285 7.206c-.743 1.487-18.813 36.422-71.155 36.422z" fill="#c94c41"/><path d="m232 472v24h-152v-122.73a56.011 56.011 0 0 1 44.27-54.76l67.73-14.51z" fill="#91563a"/><path d="m432 373.27v122.73h-152v-24l40-168 67.73 14.51a55.981 55.981 0 0 1 44.27 54.76z" fill="#91563a"/><g fill="#804c33"><path d="m128 408h16v88h-16z"/><path d="m130.343 469.657c-25.276-25.277-33.756-58.323-34.1-59.717l15.519-3.892c.076.3 7.844 30.241 29.9 52.3z"/><path d="m127.485 338.833h52.363v16h-52.363z" transform="matrix(.98 -.197 .197 .98 -65.417 37.142)"/><path d="m368 408h16v88h-16z"/><path d="m134.14 386.88-12.28 10.24-37.66-45.14a55.976 55.976 0 0 1 8.74-14.51z"/><path d="m427.85 352.1-37.72 45.04-12.26-10.28 41.28-49.28a56.067 56.067 0 0 1 8.7 14.52z"/><path d="m381.657 469.657-11.314-11.314c22.055-22.054 29.823-51.994 29.9-52.3l15.519 3.892c-.349 1.399-8.829 34.445-34.105 59.722z"/><path d="m349.5 319.635h16v54.063h-16z" transform="matrix(.197 -.98 .98 .197 -52.887 628.743)"/></g><path d="m144 464h64v16h-64z" fill="#a7684a"/><path d="m304 464h64v16h-64z" fill="#a7684a"/><path d="m192 304-32 64 32 24-16 32 56 48z" fill="#a7684a"/><path d="m320 304 32 64-32 24 16 32-56 48z" fill="#a7684a"/><path d="m256 272a70.9 70.9 0 0 1 -65.827-44.567l-5.26-13.15a124.622 124.622 0 0 1 -8.913-46.283v-64a80 80 0 0 1 80-80 80 80 0 0 1 80 80v64a124.622 124.622 0 0 1 -8.913 46.283l-5.26 13.15a70.9 70.9 0 0 1 -65.827 44.567z" fill="#fdc8a2"/><path d="m172 168h4v-56h-4a28 28 0 0 0 -28 28 28 28 0 0 0 28 28z" fill="#fdb683"/><path d="m340 112h-4v56h4a28 28 0 0 0 28-28 28 28 0 0 0 -28-28z" fill="#fdb683"/><path d="m336 112-40-48c-10.245 10.245-69.755 10.245-80 0l-40 48v-8a80 80 0 0 1 80-80 80 80 0 0 1 80 80z" fill="#91563a"/><path d="m240 144h16v40h-16z" fill="#fcb079"/><path d="m240.766 216c-3.034 0-6.117-.075-9.21-.247l.888-15.975c22.72 1.266 45.753-3.291 45.983-3.337l3.146 15.687a230.708 230.708 0 0 1 -40.807 3.872z" fill="#fcb079"/><path d="m304 200h-16c0-6.695-1.651-8.339-1.667-8.354.093.083 1.667-15.646 1.667-15.646.653 0 16 .273 16 24z" fill="#fcb079"/><path d="m214 160a14 14 0 1 1 14-14 14.015 14.015 0 0 1 -14 14z" fill="#91563a"/><path d="m298 160a14 14 0 1 1 14-14 14.015 14.015 0 0 1 -14 14z" fill="#91563a"/></g></svg>