<svg height="512" viewBox="0 0 512 512" width="512" xmlns="http://www.w3.org/2000/svg"><g id="Flat"><path d="m416 373.48v122.52h-320v-122.52a48 48 0 0 1 36.36-46.57l51.64-14.91 24-24v-32h96v32l24 24 51.64 14.91a48 48 0 0 1 36.36 46.57z" fill="#fdc8a2"/><path d="m304 256v25.43a31.965 31.965 0 0 1 -26.83 14.57h-42.34a31.965 31.965 0 0 1 -26.83-14.57v-25.43z" fill="#fdbf92"/><path d="m379.642 326.91-51.642-14.91-24-24-32 48-16 72-16-72-32-48-24 24-51.642 14.91a48 48 0 0 0 -36.358 46.567v122.523h320v-122.523a48 48 0 0 0 -36.358-46.567z" fill="#dfdfdd"/><path d="m240 336-32 24v-72z" fill="#eaeae8"/><path d="m272 336 32 24v-72z" fill="#eaeae8"/><path d="m248 408h16v88h-16z" fill="#d5d5d3"/><path d="m216 376h16v16h-16z" fill="#d5d5d3"/><path d="m216 440h16v16h-16z" fill="#d5d5d3"/><path d="m208 288v208h-112v-122.52a47.986 47.986 0 0 1 36.36-46.57l51.64-14.91z" fill="#2f486e"/><path d="m416 373.48v122.52h-112v-208l24 24 51.64 14.91a47.979 47.979 0 0 1 36.36 46.57z" fill="#2f486e"/><path d="m184 312-24 32 32 24-16 24 32 80v-184z" fill="#415e89"/><path d="m328 312 24 32-32 24 16 24-32 80v-184z" fill="#415e89"/><g fill="#26395a"><path d="m136 416h16v80h-16z"/><path d="m360 416h16v80h-16z"/><path d="m150.49 395.32-12.98 9.36-37.07-51.35a47.9 47.9 0 0 1 9.71-13.89z"/><path d="m411.47 353.11-36.97 51.55-13-9.32 40.19-56.05a48.054 48.054 0 0 1 9.78 13.82z"/><path d="m328 464h32v16h-32z"/><path d="m168 480h16v16h-16z"/></g><path d="m160 128v56a16 16 0 0 1 -16 16l9.6 12.8a48 48 0 0 0 38.4 19.2h128a48 48 0 0 0 38.4-19.2l9.6-12.8a16 16 0 0 1 -16-16v-56z" fill="#2f486e"/><path d="m277.171 280h-42.342a32 32 0 0 1 -27.973-16.46l-24.816-44.667a48.008 48.008 0 0 1 -6.04-23.311v-75.562a80 80 0 0 1 80-80 80 80 0 0 1 80 80v75.562a48.008 48.008 0 0 1 -6.04 23.311l-24.816 44.667a32 32 0 0 1 -27.973 16.46z" fill="#fdc8a2"/><path d="m214 168a14 14 0 1 1 14-14 14.015 14.015 0 0 1 -14 14z" fill="#91563a"/><path d="m298 168a14 14 0 1 1 14-14 14.015 14.015 0 0 1 -14 14z" fill="#91563a"/><path d="m172 184h4v-56h-4a28 28 0 0 0 -28 28 28 28 0 0 0 28 28z" fill="#fcb079"/><path d="m340 128h-4v56h4a28 28 0 0 0 28-28 28 28 0 0 0 -28-28z" fill="#fcb079"/><path d="m248.732 224c-3.117 0-6.287-.128-9.467-.422l1.47-15.932c21.955 2.027 44.518-5.335 44.743-5.41l5.052 15.181a146.9 146.9 0 0 1 -41.798 6.583z" fill="#fcb079"/><path d="m248 160h16v32h-16z" fill="#fcb079"/><path d="m352 88v40h-16l-18.63-43.48-5.37-12.52v-24a40 40 0 0 1 39.99 39.04c.01.32.01.64.01.96z" fill="#2f486e"/><path d="m200 48v24l-5.44 12.69-18.56 43.31h-16v-40c0-.48.01-.96.03-1.43a40 40 0 0 1 39.97-38.57z" fill="#2f486e"/><path d="m200 62.87v9.13l-5.44 12.69-34.56 20.49v-17.18c0-.48.01-.96.03-1.43z" fill="#283f61"/><path d="m352 88v17.83l-34.63-21.31-5.37-12.52v-9.56l39.99 24.6c.01.32.01.64.01.96z" fill="#283f61"/><path d="m308 84.5c-7.87 10.5-32.78 12.97-32.78 12.97a21.609 21.609 0 0 0 15.86-16.33 21.328 21.328 0 0 0 .46-5.83c0-.13-.01-.25-.02-.38l-7.49 1.07-7.56 1.08-20.47 2.92-7-1-9-1.28-7-1-10.28-1.47-15.86-2.27-6.86-.98v-24a35.1 35.1 0 0 1 33.3-24h45.4q.705 0 1.41.03a35.106 35.106 0 0 1 31.89 23.97s6 23.17-4 36.5z" fill="#34507b"/><path d="m280.11 24.03h-10.38c-46.06 0-46.59 44.69-46.59 46.6 0 .26-.02.53-.04.79l-.38 3.83-15.86-2.27.28-2.82a76.81 76.81 0 0 1 7.67-30.41 58.8 58.8 0 0 1 10.42-14.81 34.866 34.866 0 0 1 8.07-.94h45.4q.705 0 1.41.03z" fill="#283f61"/><path d="m291.52 74.93-7.49 1.07-7.56 1.08c-.24-1.7-.69-4.9-.72-5.08a13.2 13.2 0 0 0 -13.14-11.29 13.633 13.633 0 0 0 -13.61 13.62v4.67l-9-1.28-7-1v-2.39a29.648 29.648 0 0 1 29.61-29.62 30.911 30.911 0 0 1 20.77 8.29c6.64 5.91 7.29 13.31 8.14 21.93z" fill="#283f61"/><path d="m291.56 75.31h-.02c0-.13-.01-.25-.02-.38.01.12.03.25.04.38z" fill="#283f61"/></g></svg>