<svg height="512" viewBox="0 0 512 512" width="512" xmlns="http://www.w3.org/2000/svg"><g id="Flat"><path d="m172 168h12v-56h-12a28 28 0 0 0 -28 28 28 28 0 0 0 28 28z" fill="#fdb683"/><path d="m340 112h-12v56h12a28 28 0 0 0 28-28 28 28 0 0 0 -28-28z" fill="#fdb683"/><path d="m432 381.27v114.73h-352v-114.73a56.018 56.018 0 0 1 44.27-54.76l66.12-14.16a21.98 21.98 0 0 0 3.16-.93 22.287 22.287 0 0 0 14.45-20.86v-42.56h96v42.56a22.287 22.287 0 0 0 14.45 20.86l1.55.58 67.73 14.51a56.018 56.018 0 0 1 44.27 54.76z" fill="#fdc8a2"/><path d="m304 248v40.56a39.914 39.914 0 0 1 -23.23 7.44h-49.54a39.914 39.914 0 0 1 -23.23-7.44v-40.56z" fill="#fdbf92"/><path d="m432 381.27v74.73h-64v40h-224v-40h-64v-74.73a56.014 56.014 0 0 1 44.27-54.76l67.73-14.51 4.36 17.43a61.475 61.475 0 0 0 119.28 0l4.36-17.43 67.73 14.51a56.029 56.029 0 0 1 44.27 54.76z" fill="#dfdfdd"/><path d="m336 104v56a195.4 195.4 0 0 1 -1.46 23.82 192.921 192.921 0 0 1 -4.36 23.46l-10.61 42.42a40 40 0 0 1 -38.8 30.3h-49.54a40 40 0 0 1 -38.8-30.3l-10.61-42.42a194.7 194.7 0 0 1 -5.82-47.28v-56a80 80 0 1 1 160 0z" fill="#fdc8a2"/><path d="m304 208v64.56a39.914 39.914 0 0 1 -23.23 7.44h-49.54a39.914 39.914 0 0 1 -23.23-7.44v-64.56a24.006 24.006 0 0 1 24-24h48a24.006 24.006 0 0 1 24 24z" fill="#91563a"/><g fill="#d5d5d3"><path d="m256 416c-52.343 0-70.412-34.935-71.155-36.422l7.155-3.578 7.13-3.628c.585 1.128 14.796 27.628 56.87 27.628s56.285-26.5 56.87-27.628l14.285 7.206c-.743 1.487-18.812 36.422-71.155 36.422z"/><path d="m141.62 378.31-11.24 11.38-40.57-40.08a56.353 56.353 0 0 1 10.84-11.77z"/><path d="m421.99 349.33-40.33 40.33-11.32-11.32 40.73-40.73a55.967 55.967 0 0 1 10.92 11.72z"/><path d="m146.343 461.657c-16.966-16.966-33.093-56.99-33.771-58.686l14.856-5.943c.153.385 15.585 38.671 30.229 53.315z"/><path d="m144 408h16v48h-16z"/><path d="m352.572 408h16v48h-16z"/><path d="m366.229 461.657-11.314-11.314c12.174-12.173 25.949-42.613 30.23-53.314l14.855 5.942c-.678 1.696-16.8 41.72-33.771 58.686z"/></g><path d="m144 456h16v40h-16z" fill="#fdbf92"/><path d="m352.572 456h16v40h-16z" fill="#fdbf92"/><path d="m240 136h16v40h-16z" fill="#fcb079"/><path d="m208 96h96v16h-96z" fill="#fcb079"/><path d="m232 208h48v16h-48z" fill="#fcb079"/><path d="m214 152a14 14 0 1 1 14-14 14.015 14.015 0 0 1 -14 14z" fill="#91563a"/><path d="m298 152a14 14 0 1 1 14-14 14.015 14.015 0 0 1 -14 14z" fill="#91563a"/><path d="m248 240h16v40h-16z" fill="#804c33"/><path d="m80 456h64v40h-64z" fill="#fdc8a2"/><path d="m368 456h64v40h-64z" fill="#fdc8a2"/></g></svg>