<svg height="512" viewBox="0 0 512 512" width="512" xmlns="http://www.w3.org/2000/svg"><g id="Flat"><path d="m416 373.48v122.52h-320v-122.52a48 48 0 0 1 36.36-46.57l59.64-14.91 24-24v-32h80v32l24 24 59.64 14.91a48 48 0 0 1 36.36 46.57z" fill="#fdc8a2"/><path d="m301.16 293.16a31.955 31.955 0 0 1 -23.99 10.84h-42.34a31.955 31.955 0 0 1 -23.99-10.84l5.16-5.16v-32h80v32z" fill="#fdbf92"/><path d="m416 496v-122.523a48 48 0 0 0 -36.358-46.567l-59.642-14.91c-25.484 54.153-102.516 54.153-128 0l-59.642 14.91a48 48 0 0 0 -36.358 46.567v122.523" fill="#dfdfdd"/><path d="m258.046 390.094a89.335 89.335 0 0 1 -19.82-2.291l3.548-15.6c23.692 5.391 44.7-.636 60.745-17.425l11.566 11.055c-15.252 15.956-34.685 24.261-56.039 24.261z" fill="#d5d5d3"/><path d="m96 496v-122.52a47.986 47.986 0 0 1 36.36-46.57l59.64-14.91 24-24v208" fill="#7a432a"/><path d="m296 496v-208l24 24 59.64 14.91a47.994 47.994 0 0 1 36.36 46.57v122.52" fill="#7a432a"/><path d="m192 312-32 40 32 16-16 24 40 80v-184z" fill="#895036"/><path d="m320 312 32 40-32 16 16 24-40 80v-184z" fill="#895036"/><g fill="#663723"><path d="m150.48 395.31-12.96 9.38-37.1-51.32a47.917 47.917 0 0 1 9.7-13.9z"/><path d="m411.31 352.78-36.78 51.85-13.06-9.26 39.96-56.34a48.249 48.249 0 0 1 9.88 13.75z"/><path d="m144 416h16v80h-16z"/><path d="m352 416h16v80h-16z"/><path d="m176 480h16v16h-16z"/></g><path d="m277.171 280h-42.342a32 32 0 0 1 -27.973-16.46l-24.816-44.667a48.008 48.008 0 0 1 -6.04-23.311v-75.562a80 80 0 0 1 80-80 80 80 0 0 1 80 80v75.562a48.008 48.008 0 0 1 -6.04 23.311l-24.816 44.667a32 32 0 0 1 -27.973 16.46z" fill="#fdc8a2"/><path d="m172 184h4v-56h-4a28 28 0 0 0 -28 28 28 28 0 0 0 28 28z" fill="#fdb683"/><path d="m340 128h-4v56h4a28 28 0 0 0 28-28 28 28 0 0 0 -28-28z" fill="#fdb683"/><path d="m214 140a14 14 0 1 0 14 14 14.015 14.015 0 0 0 -14-14z" fill="#91563a"/><path d="m298 140a14 14 0 1 0 14 14 14.015 14.015 0 0 0 -14-14z" fill="#91563a"/><path d="m240.735 199.646-1.47 15.932c3.18.294 6.35.423 9.467.423a146.9 146.9 0 0 0 41.8-6.583l-5.052-15.182c-.227.075-22.79 7.438-44.745 5.41z" fill="#fcb079"/><path d="m248 160h16v32h-16z" fill="#fcb079"/><path d="m272 232h-32v16h8v32h16v-32h8z" fill="#91563a"/><path d="m336 72v48l-11.15-33.46a44.864 44.864 0 0 0 -6.88-12.99 45.646 45.646 0 0 0 -10.72-10.05 44.712 44.712 0 0 0 -18.45-7.05 44.354 44.354 0 0 0 -6.32-.45h-52.96a44.915 44.915 0 0 0 -6.36.45 46.014 46.014 0 0 0 -6.58 1.47c-.75.23-1.49.47-2.23.75a44.679 44.679 0 0 0 -27.2 27.87l-11.15 33.46v-48a47.966 47.966 0 0 1 48-48h64a48.092 48.092 0 0 1 42.44 25.54v.01a47.807 47.807 0 0 1 5.56 22.45z" fill="#91563a"/><path d="m248 24h16v32h-16z" fill="#804a32"/><path d="m240.8 56h-11.28a44.915 44.915 0 0 0 -6.36.45l-14.83-29.83a47.8 47.8 0 0 1 15.67-2.62h.89z" fill="#804a32"/><path d="m214.35 58.67a44 44 0 0 0 -14.28 8.43l-18.34-17.87a48.039 48.039 0 0 1 9.92-12.68z" fill="#804a32"/><path d="m303.58 26.58-14.78 29.87a44.354 44.354 0 0 0 -6.32-.45h-11.3l15.83-32h.99a48.12 48.12 0 0 1 15.58 2.58z" fill="#804a32"/><path d="m330.44 49.54v.01l-18.01 18a43.189 43.189 0 0 0 -5.18-4.05 44.853 44.853 0 0 0 -8.84-4.56l22.18-22.18a48.375 48.375 0 0 1 9.85 12.78z" fill="#804a32"/><path d="m200 112h40v16h-40z" fill="#91563a"/><path d="m280 112h40v16h-40z" fill="#91563a"/></g></svg>