<svg height="512" viewBox="0 0 512 512" width="512" xmlns="http://www.w3.org/2000/svg"><g id="Flat"><path d="m172 168h12v-56h-12a28 28 0 0 0 -28 28 28 28 0 0 0 28 28z" fill="#fdb683"/><path d="m340 112h-12v56h12a28 28 0 0 0 28-28 28 28 0 0 0 -28-28z" fill="#fdb683"/><path d="m432 381.27v114.73h-352v-114.73a56.018 56.018 0 0 1 44.27-54.76l67.73-14.51 16-16v-48h96v48l16 16 67.73 14.51a56.018 56.018 0 0 1 44.27 54.76z" fill="#fdc8a2"/><path d="m304 248v48.56a39.914 39.914 0 0 1 -23.23 7.44h-49.54a39.914 39.914 0 0 1 -23.23-7.44v-48.56z" fill="#fdbf92"/><path d="m280.769 280h-49.538a40 40 0 0 1 -38.806-30.3l-10.6-42.418a194.95 194.95 0 0 1 -5.825-47.282v-56a80 80 0 0 1 80-80 80 80 0 0 1 80 80v56a194.95 194.95 0 0 1 -5.821 47.283l-10.6 42.418a40 40 0 0 1 -38.81 30.299z" fill="#fdc8a2"/><path d="m214 152a14 14 0 1 1 14-14 14.015 14.015 0 0 1 -14 14z" fill="#91563a"/><path d="m298 152a14 14 0 1 1 14-14 14.015 14.015 0 0 1 -14 14z" fill="#91563a"/><path d="m425.06 354.26a56.523 56.523 0 0 0 -9.76-12.88 55.908 55.908 0 0 0 -27.57-14.87l-67.73-14.51-16-16-32 64-16 40-16-40-32-64-16 16-67.73 14.51a56.009 56.009 0 0 0 -44.27 54.76v114.73h352v-114.73a55.873 55.873 0 0 0 -6.94-27.01z" fill="#2f486e"/><path d="m240 136h16v40h-16z" fill="#fcb079"/><path d="m208 96h96v16h-96z" fill="#fcb079"/><path d="m240 224h32v16h-32z" fill="#fcb079"/><g fill="#26395a"><path d="m134.07 378.79-12.14 10.42-32.92-38.4a56.449 56.449 0 0 1 10.66-12.16z"/><path d="m425.06 354.26-35.4 35.4-11.32-11.32 36.96-36.96a56.523 56.523 0 0 1 9.76 12.88z"/><path d="m248 400h16v96h-16z"/><path d="m216 408h16v16h-16z"/><path d="m128 400h16v96h-16z"/><path d="m368 400h16v96h-16z"/><path d="m130.343 469.657c-25.276-25.277-33.756-58.323-34.1-59.717l15.519-3.892c.076.3 7.844 30.241 29.9 52.3z"/><path d="m381.657 469.657-11.314-11.314c22.055-22.054 29.823-51.994 29.9-52.3l15.519 3.892c-.349 1.399-8.829 34.445-34.105 59.722z"/></g><path d="m240 360-32-64-16 16 8 80z" fill="#415e89"/><path d="m320 312-16-16-32 64 40 32z" fill="#415e89"/><path d="m144 456h80v24h-80z" fill="#415e89"/><path d="m288 456h80v24h-80z" fill="#415e89"/><path d="m305.2 186.9a49.814 49.814 0 0 0 -2.08 4.79l-5.52 14.71-10.078-2.519a129.93 129.93 0 0 0 -31.522-3.881 129.93 129.93 0 0 0 -31.522 3.881l-11.318 2.829-6.95-16.22q-.51-1.185-1.08-2.34l1.738-1.856a57.809 57.809 0 0 1 42.195-18.294h13.382a57.809 57.809 0 0 1 42.755 18.9z" fill="#91563a"/></g></svg>