<svg height="512" viewBox="0 0 512 512" width="512" xmlns="http://www.w3.org/2000/svg"><g id="Flat"><path d="m432 397.27v98.73h-352v-98.73a56.018 56.018 0 0 1 44.27-54.76l67.73-14.51 16-16v-48h96v48l16 16 67.73 14.51a56.018 56.018 0 0 1 44.27 54.76z" fill="#fdc8a2"/><path d="m304 264v40.56a39.914 39.914 0 0 1 -23.23 7.44h-49.54a39.914 39.914 0 0 1 -23.23-7.44v-40.56z" fill="#fdbf92"/><path d="m387.734 342.514-67.734-14.514-16-16-40 72-8 32-8-32-40-72-16 16-67.734 14.514a56 56 0 0 0 -44.266 54.757v98.729h352v-98.729a56 56 0 0 0 -44.266-54.757z" fill="#e9d6bb"/><path d="m248 384-40-72-16 16 24 96z" fill="#f9e4c8"/><path d="m320 328-16-16-40 72 32 40z" fill="#f9e4c8"/><path d="m248 416h16v80h-16z" fill="#deccb2"/><path d="m232 488v8h-152v-98.73a55.86 55.86 0 0 1 4.13-21.12v-.01a56.122 56.122 0 0 1 40.14-33.63l67.73-14.51z" fill="#91563a"/><path d="m432 397.27v98.73h-152v-8l40-160 67.73 14.51a56 56 0 0 1 44.27 54.76z" fill="#91563a"/><g fill="#804c33"><path d="m427.8 375.99-37.66 45.14-12.28-10.26 41.21-49.38a56.052 56.052 0 0 1 8.73 14.5z"/><path d="m345.5 338.915h16v62.169h-16z" transform="matrix(.193 -.981 .981 .193 -77.775 645.434)"/><path d="m134.13 410.86-12.26 10.28-37.74-44.99v-.01a56.124 56.124 0 0 1 8.7-14.53z"/><path d="m127.376 361.75h63.248v16h-63.248z" transform="matrix(.98 -.198 .198 .98 -69.938 38.716)"/><path d="m368 432h16v64h-16z"/><path d="m381.657 493.657-11.314-11.314c22.054-22.054 29.823-51.994 29.9-52.3l15.52 3.892c-.351 1.399-8.83 34.445-34.106 59.722z"/><path d="m128 432h16v64h-16z"/><path d="m130.343 493.657c-25.276-25.277-33.755-58.323-34.1-59.717l15.52-3.892c.075.3 7.844 30.241 29.9 52.3z"/><path d="m184 480h16v16h-16z"/></g><path d="m320 328 32 64-32 24 16 32-56 40 16-64z" fill="#a7684a"/><path d="m192 328-32 64 32 24-16 32 56 40-16-64z" fill="#a7684a"/><path d="m172 184h12v-56h-12a28 28 0 0 0 -28 28 28 28 0 0 0 28 28z" fill="#fdb683"/><path d="m340 128h-12v56h12a28 28 0 0 0 28-28 28 28 0 0 0 -28-28z" fill="#fdb683"/><path d="m280.769 296h-49.538a40 40 0 0 1 -38.806-30.3l-10.6-42.418a194.95 194.95 0 0 1 -5.825-47.282v-56a80 80 0 0 1 80-80 80 80 0 0 1 80 80v56a194.95 194.95 0 0 1 -5.821 47.283l-10.6 42.418a40 40 0 0 1 -38.81 30.299z" fill="#fdc8a2"/><path d="m214 168a14 14 0 1 1 14-14 14.015 14.015 0 0 1 -14 14z" fill="#91563a"/><path d="m298 168a14 14 0 1 1 14-14 14.015 14.015 0 0 1 -14 14z" fill="#91563a"/><path d="m336 176a53.032 53.032 0 0 0 -32.883 31.687l-15.117 40.313h-16l-8-32h-16l-8 32h-16l-17.79-41.511a53.034 53.034 0 0 0 -19.326-23.233l-10.884-7.256a194.95 194.95 0 0 0 5.821 47.283l10.6 42.418a40 40 0 0 0 38.81 30.299h49.538a40 40 0 0 0 38.806-30.3l10.6-42.418a194.95 194.95 0 0 0 5.825-47.282z" fill="#dfdfdd"/><path d="m240 152h16v40h-16z" fill="#fcb079"/><path d="m208 112h96v16h-96z" fill="#fcb079"/><path d="m305.2 202.9a49.814 49.814 0 0 0 -2.08 4.79l-5.52 14.71-25.6-6.4h-32l-26.84 6.71-6.95-16.22q-.51-1.185-1.08-2.34l26.87-20.15h48z" fill="#dfdfdd"/><path d="m304 72a64 64 0 0 0 25.6 51.2l6.4 4.8v-48a32 32 0 0 0 -32-32z" fill="#dfdfdd"/><path d="m208 72a64 64 0 0 1 -25.6 51.2l-6.4 4.8v-48a32 32 0 0 1 32-32z" fill="#dfdfdd"/><path d="m326.35 57.1-22.35 14.9h-96v-24a35.1 35.1 0 0 1 33.3-24h22.7a72.371 72.371 0 0 1 26.87 5.19 76.141 76.141 0 0 1 14.21 7.53 87.761 87.761 0 0 1 21.27 20.38z" fill="#eaeae8"/><path d="m273.18 24.59-31.26 47.41h-19.17l31.65-48h9.6a71.371 71.371 0 0 1 9.18.59z" fill="#f1f1f1"/><path d="m305.08 36.72-23.63 35.28h-19.26l28.68-42.81a76.141 76.141 0 0 1 14.21 7.53z" fill="#f1f1f1"/></g></svg>