<svg height="512" viewBox="0 0 512 512" width="512" xmlns="http://www.w3.org/2000/svg"><g id="Flat"><path d="m448 401.97v94.03h-384v-94.03a64 64 0 0 1 48.48-62.09l79.52-19.88a28.939 28.939 0 0 0 16-25.89v-70.11h96v70.11a28.939 28.939 0 0 0 16 25.89l79.52 19.88a64 64 0 0 1 48.48 62.09z" fill="#fdc8a2"/><path d="m304 224v43.57a66.6 66.6 0 0 1 -96 0v-43.57z" fill="#fdbf92"/><path d="m437.09 366.23a64.047 64.047 0 0 0 -37.57-26.35l-79.52-19.88c-11.56 28.88-37.78 43.33-64 43.33s-52.44-14.45-64-43.33l-79.52 19.88a64 64 0 0 0 -48.48 62.09v94.03h384v-94.03a63.876 63.876 0 0 0 -10.91-35.74z" fill="#ffb431"/><g fill="#f9a40f"><path d="m256 408c-43.778 0-61.906-26.437-62.656-27.562l6.656-4.438 6.62-4.491c.58.837 14.555 20.491 49.38 20.491 35.311 0 49.207-20.233 49.344-20.438l13.312 8.876c-.75 1.125-18.878 27.562-62.656 27.562z"/><path d="m117.66 386.34-11.32 11.32-31.43-31.43a63.909 63.909 0 0 1 10.56-12.08z"/><path d="m437.09 366.23-31.43 31.43-11.32-11.32 32.19-32.19a63.909 63.909 0 0 1 10.56 12.08z"/><path d="m120 408h16v88h-16z"/><path d="m376 408h16v88h-16z"/><path d="m125.613 471.636c-29.984-9.37-37.219-52.536-37.513-54.372l15.8-2.539c1.595 9.777 9.462 36.318 26.49 41.639z"/><path d="m386.387 471.636-4.774-15.272c17.028-5.321 24.895-31.862 26.49-41.639l15.8 2.539c-.297 1.836-7.532 45.002-37.516 54.372z"/></g><path d="m172 168h12v-56h-12a28 28 0 0 0 -28 28 28 28 0 0 0 28 28z" fill="#fdb683"/><path d="m340 112h-12v56h12a28 28 0 0 0 28-28 28 28 0 0 0 -28-28z" fill="#fdb683"/><path d="m256 264a66.6 66.6 0 0 1 -63.179-45.537l-9.232-27.695a147.912 147.912 0 0 1 -7.589-46.768v-40a80 80 0 0 1 80-80 80 80 0 0 1 80 80v40a147.912 147.912 0 0 1 -7.589 46.768l-9.232 27.695a66.6 66.6 0 0 1 -63.179 45.537z" fill="#fdc8a2"/><path d="m214 124a14 14 0 1 0 14 14 14.015 14.015 0 0 0 -14-14z" fill="#804c33"/><path d="m298 124a14 14 0 1 0 14 14 14.015 14.015 0 0 0 -14-14z" fill="#804c33"/><path d="m240 136h16v40h-16z" fill="#fcb079"/><path d="m240.764 208c-3.034 0-6.116-.075-9.207-.247l.886-15.975c22.644 1.255 45.755-3.292 45.987-3.339l3.143 15.689a230.825 230.825 0 0 1 -40.809 3.872z" fill="#fcb079"/><path d="m243.508 80h32.985v15.999h-32.985z" fill="#fcb079" transform="matrix(.243 -.97 .97 .243 111.561 318.89)"/></g></svg>