<svg height="512" viewBox="0 0 512 512" width="512" xmlns="http://www.w3.org/2000/svg"><g id="Flat"><path d="m379.642 342.91-59.642-14.91-24-24v-32h-80v32l-24 24-59.642 14.91a48 48 0 0 0 -36.358 46.567v106.523h320v-106.523a48 48 0 0 0 -36.358-46.567z" fill="#fdc8a2"/><path d="m296 272v22.5l-.91 1.36-.59.89a32.02 32.02 0 0 1 -26.63 14.25h-29.74a32.022 32.022 0 0 1 -22.13-8.88v-30.12z" fill="#fdbf92"/><path d="m416 496v-106.523a48 48 0 0 0 -36.358-46.567l-51.642-14.91c-27.129 63.3-116.871 63.3-144 0l-51.642 14.91a48 48 0 0 0 -36.358 46.567v106.523" fill="#dfdfdd"/><path d="m258.977 416.007a93.47 93.47 0 0 1 -20.917-2.246l3.864-15.526c.284.07 28.583 6.8 49.22-6.615l15.588-13.641 10.536 12.042-16 14a7.991 7.991 0 0 1 -.83.635c-13.624 9.083-29.251 11.351-41.461 11.351z" fill="#d5d5d3"/><path d="m216 304v192h-120v-106.52a48 48 0 0 1 36.36-46.57l40.16-11.59 11.48-3.32v-24z" fill="#2f486e"/><path d="m416 389.48v106.52h-120v-192h32v24l11.94 3.45 39.7 11.46a47.992 47.992 0 0 1 36.36 46.57z" fill="#2f486e"/><g fill="#26395a"><path d="m149.66 394.34-11.32 11.32-37.39-37.4a47.907 47.907 0 0 1 9.51-13.12z"/><path d="m411.2 368.55-37.58 37.14-11.24-11.38 39.39-38.94a48.128 48.128 0 0 1 9.43 13.18z"/><path d="m216 335.01v17.85l-43.48-21.54 11.48-3.32v-8.84z"/><path d="m339.94 331.45-43.94 22.78v-18.02l32-16.59v8.38z"/><path d="m144 416h16v80h-16z"/><path d="m352 416h16v80h-16z"/><path d="m148.422 471.155c-34.567-17.283-43.642-43.517-44.012-44.625l7.59-2.53 7.572-2.582a50.266 50.266 0 0 0 7.278 12.375c7.178 9.354 16.843 17.109 28.728 23.052z"/><path d="m362.53 471.589-5.06-15.178c9.958-3.32 16.664-12.326 20.537-19.3a71.352 71.352 0 0 0 6.232-15.055l15.522 3.88c-.37 1.485-9.385 36.372-37.231 45.653z"/></g><path d="m160 448h56v24h-56z" fill="#415e89"/><path d="m296 448h56v24h-56z" fill="#415e89"/><path d="m336 136v78.31a32.008 32.008 0 0 1 -5.37 17.75l-20.87 31.3-11.67 17.5-.59.89a32.02 32.02 0 0 1 -26.63 14.25h-29.74a32.02 32.02 0 0 1 -26.63-14.25l-.59-.89-11.67-17.49-20.87-31.31a32.008 32.008 0 0 1 -5.37-17.75v-78.31a80 80 0 1 1 160 0z" fill="#fdc8a2"/><path d="m214 184a14 14 0 1 1 14-14 14.015 14.015 0 0 1 -14 14z" fill="#91563a"/><path d="m298 184a14 14 0 1 1 14-14 14.015 14.015 0 0 1 -14 14z" fill="#91563a"/><path d="m172 200h4v-56h-4a28 28 0 0 0 -28 28 28 28 0 0 0 28 28z" fill="#fdb683"/><path d="m340 144h-4v56h4a28 28 0 0 0 28-28 28 28 0 0 0 -28-28z" fill="#fdb683"/><path d="m312 88 24 56v-56a24 24 0 0 0 -24-24z" fill="#804a32"/><path d="m200 88-24 56v-56a24 24 0 0 1 24-24z" fill="#804a32"/><path d="m248 176h16v32h-16z" fill="#fcb079"/><path d="m309.76 263.36-11.67 17.5-16.13-56.88-51.93.02-16.12 56.86-11.67-17.49 12.41-43.75a16.059 16.059 0 0 1 15.38-11.62h51.94a16.065 16.065 0 0 1 15.38 11.6z" fill="#91563a"/><path d="m240 240h40v16h-40z" fill="#fcb079"/><path d="m200 88 56 24 56-24v-24a32 32 0 0 0 -12.8-25.6l-6.4-4.8a48 48 0 0 0 -28.8-9.6l8 24-19.2-14.4a48 48 0 0 0 -28.8-9.6l8 24-19.2-14.4a48 48 0 0 0 -28.8-9.6z" fill="#91563a"/></g></svg>