<svg height="512" viewBox="0 0 512 512" width="512" xmlns="http://www.w3.org/2000/svg"><g id="Flat"><path d="m432 402.24v93.76h-352v-93.76a55.981 55.981 0 0 1 40.62-53.84l71.38-20.4 16-24v-56h96v56l16 24 71.38 20.4a55.981 55.981 0 0 1 40.62 53.84z" fill="#fdc8a2"/><path d="m304 248v40.22a71.521 71.521 0 0 1 -44.82 15.78h-6.36a71.527 71.527 0 0 1 -44.82-15.78v-40.22z" fill="#fdbf92"/><path d="m432 402.24v93.76h-352v-93.76a55.98 55.98 0 0 1 40.62-53.84l71.38-20.4 16-24 32 64 16 48 16-48 32-64 16 24 71.38 20.4a55.964 55.964 0 0 1 40.62 53.84z" fill="#f49797"/><path d="m240 368-32-64-16 24 8 80z" fill="#fdb1b1"/><path d="m320 328-16-24-32 64 40 40z" fill="#fdb1b1"/><path d="m248 416h16v80h-16z" fill="#ea8383"/><path d="m259.181 280h-6.362a71.547 71.547 0 0 1 -58.219-29.96 99.851 99.851 0 0 1 -18.6-58.04v-64a80 80 0 0 1 80-80 80 80 0 0 1 80 80v64a99.851 99.851 0 0 1 -18.6 58.039 71.547 71.547 0 0 1 -58.219 29.961z" fill="#fdc8a2"/><path d="m214 172a14 14 0 1 1 14-14 14.015 14.015 0 0 1 -14 14z" fill="#91563a"/><path d="m298 172a14 14 0 1 1 14-14 14.015 14.015 0 0 1 -14 14z" fill="#91563a"/><path d="m172 184h4v-56h-4a28 28 0 0 0 -28 28 28 28 0 0 0 28 28z" fill="#fdb683"/><path d="m340 128h-4v56h4a28 28 0 0 0 28-28 28 28 0 0 0 -28-28z" fill="#fdb683"/><path d="m256 24a88 88 0 0 0 -88 88v24a158.669 158.669 0 0 0 119.412-54.185l8.588-9.815.821 1.642a209.168 209.168 0 0 0 39.179 54.358h8v-16a88 88 0 0 0 -88-88z" fill="#91563a"/><path d="m198.237 109.009-12.484-10.009c1.388-1.734 34.651-42.569 93.115-50.921l2.264 15.838c-51.997 7.431-82.592 44.717-82.895 45.092z" fill="#804a32"/><g fill="#ea8383"><path d="m133.66 394.34-11.32 11.32-33.55-33.55a56.092 56.092 0 0 1 10.49-12.15z"/><path d="m423.21 372.11-33.55 33.55-11.32-11.32 34.38-34.38a56.092 56.092 0 0 1 10.49 12.15z"/><path d="m216 432h16v16h-16z"/><path d="m216 480h16v16h-16z"/><path d="m136 416h16v80h-16z"/><path d="m360 416h16v80h-16z"/><path d="m141.613 479.636c-29.984-9.371-37.219-52.539-37.512-54.372l15.8-2.54c1.595 9.778 9.462 36.319 26.49 41.64z"/><path d="m370.387 479.636-4.774-15.272c17.028-5.321 24.895-31.862 26.49-41.64l15.8 2.54c-.297 1.836-7.532 45.001-37.516 54.372z"/></g><path d="m256 218.231a134.326 134.326 0 0 1 -25.535-2.38l3.07-15.7a123.377 123.377 0 0 0 44.93 0l3.07 15.7a134.326 134.326 0 0 1 -25.535 2.38z" fill="#fcb079"/></g></svg>