<svg height="512" viewBox="0 0 512 512" width="512" xmlns="http://www.w3.org/2000/svg"><g id="Flat"><path d="m432 402.24v93.76h-352v-93.76a55.981 55.981 0 0 1 40.62-53.84l71.38-20.4a28.939 28.939 0 0 0 16-25.89v-54.11h96v54.11a28.939 28.939 0 0 0 16 25.89l71.38 20.4a55.981 55.981 0 0 1 40.62 53.84z" fill="#fdc8a2"/><path d="m304 248v40.22a71.521 71.521 0 0 1 -44.82 15.78h-6.36a71.527 71.527 0 0 1 -44.82-15.78v-40.22z" fill="#fdbf92"/><path d="m423.21 372.11a56.017 56.017 0 0 0 -31.83-23.71l-71.38-20.4c-11.56 28.88-37.78 43.33-64 43.33s-52.44-14.45-64-43.33l-71.38 20.4a55.964 55.964 0 0 0 -40.62 53.84v93.76h352v-93.76a55.94 55.94 0 0 0 -8.79-30.13z" fill="#dfdfdd"/><g fill="#d5d5d3"><path d="m133.66 394.34-11.32 11.32-33.55-33.55a56.092 56.092 0 0 1 10.49-12.15z"/><path d="m423.21 372.11-33.55 33.55-11.32-11.32 34.38-34.38a56.092 56.092 0 0 1 10.49 12.15z"/><path d="m256 416c-43.778 0-61.906-26.437-62.656-27.562l6.656-4.438 6.621-4.491c.579.837 14.554 20.491 49.379 20.491 35.31 0 49.208-20.233 49.344-20.438l13.312 8.876c-.75 1.125-18.878 27.562-62.656 27.562z"/><path d="m136 416h16v80h-16z"/><path d="m360 416h16v80h-16z"/><path d="m141.614 479.636c-29.986-9.37-37.22-52.539-37.513-54.372l15.8-2.539c1.595 9.777 9.462 36.318 26.489 41.639z"/><path d="m370.386 479.636-4.772-15.272c17.027-5.321 24.894-31.862 26.489-41.639l15.8 2.539c-.297 1.836-7.531 45.002-37.517 54.372z"/></g><path d="m259.181 280h-6.362a71.547 71.547 0 0 1 -58.219-29.96 99.851 99.851 0 0 1 -18.6-58.04v-72a80 80 0 0 1 80-80 80 80 0 0 1 80 80v72a99.851 99.851 0 0 1 -18.6 58.039 71.547 71.547 0 0 1 -58.219 29.961z" fill="#fdc8a2"/><path d="m256 226.231a134.416 134.416 0 0 1 -25.535-2.379l3.07-15.7a123.377 123.377 0 0 0 44.93 0l3.07 15.7a134.416 134.416 0 0 1 -25.535 2.379z" fill="#fcb079"/><path d="m172 184h4v-56h-4a28 28 0 0 0 -28 28 28 28 0 0 0 28 28z" fill="#fdb683"/><path d="m340 128h-4v56h4a28 28 0 0 0 28-28 28 28 0 0 0 -28-28z" fill="#fdb683"/><path d="m216 72-40 48v-48z" fill="#fade53"/><path d="m296 72 40 48v-40a40 40 0 0 0 -40-40z" fill="#fade53"/><path d="m296 72h-120a48 48 0 0 1 48-48h33.373a54.626 54.626 0 0 1 38.627 16z" fill="#fde87e"/><path d="m192 128h40a16 16 0 0 1 16 16v8a32 32 0 0 1 -32 32h-8a32 32 0 0 1 -32-32v-8a16 16 0 0 1 16-16z" fill="#dfdfdd"/><path d="m280 128h40a16 16 0 0 1 16 16v8a32 32 0 0 1 -32 32h-8a32 32 0 0 1 -32-32v-8a16 16 0 0 1 16-16z" fill="#dfdfdd"/><path d="m320 120h-40a23.941 23.941 0 0 0 -17.869 8h-12.262a23.943 23.943 0 0 0 -17.869-8h-40a24.027 24.027 0 0 0 -24 24v8a40.045 40.045 0 0 0 40 40h8a40.045 40.045 0 0 0 40-40 40.045 40.045 0 0 0 40 40h8a40.045 40.045 0 0 0 40-40v-8a24.027 24.027 0 0 0 -24-24zm-80 32a24.027 24.027 0 0 1 -24 24h-8a24.027 24.027 0 0 1 -24-24v-8a8.009 8.009 0 0 1 8-8h40a8.009 8.009 0 0 1 8 8zm88 0a24.027 24.027 0 0 1 -24 24h-8a24.027 24.027 0 0 1 -24-24v-8a8.009 8.009 0 0 1 8-8h40a8.009 8.009 0 0 1 8 8z" fill="#804c33"/></g></svg>