<svg height="512" viewBox="0 0 512 512" width="512" xmlns="http://www.w3.org/2000/svg"><g id="Flat"><path d="m416 381.48v114.52h-320v-114.52a48 48 0 0 1 36.36-46.57l59.64-14.91 8.6-2.58a16.009 16.009 0 0 0 11.4-15.33v-46.09h88v46.09a16.009 16.009 0 0 0 11.4 15.33l8.6 2.58 59.64 14.91a48 48 0 0 1 36.36 46.57z" fill="#fdc8a2"/><path d="m300 256v42.68a31.944 31.944 0 0 1 -17.67 5.32h-52.66a31.944 31.944 0 0 1 -17.67-5.32v-42.68z" fill="#fdbf92"/><path d="m416 381.48v74.52h-64v40h-192v-40h-64v-74.52a48 48 0 0 1 36.36-46.57l59.64-14.91.82 2.46a66.6 66.6 0 0 0 126.36 0l.82-2.46 59.64 14.91a47.99 47.99 0 0 1 36.36 46.57z" fill="#dfdfdd"/><path d="m144 456h16v40h-16z" fill="#fdbf92"/><path d="m352 456h16v40h-16z" fill="#fdbf92"/><path d="m282.335 288h-52.67a32 32 0 0 1 -29.711-20.115l-21.093-52.733a40 40 0 0 1 -2.861-14.852v-88.3a80 80 0 0 1 80-80 80 80 0 0 1 80 80v88.3a40 40 0 0 1 -2.861 14.855l-21.093 52.733a32 32 0 0 1 -29.711 20.112z" fill="#fdc8a2"/><path d="m214 164a14 14 0 1 1 14-14 14.015 14.015 0 0 1 -14 14z" fill="#91563a"/><path d="m298 164a14 14 0 1 1 14-14 14.015 14.015 0 0 1 -14 14z" fill="#91563a"/><path d="m172 184h4v-56h-4a28 28 0 0 0 -28 28 28 28 0 0 0 28 28z" fill="#fdb683"/><path d="m340 128h-4v56h4a28 28 0 0 0 28-28 28 28 0 0 0 -28-28z" fill="#fdb683"/><path d="m240 152h16v32h-16z" fill="#fcb079"/><path d="m176 128 32 80 8.875-13.313a24 24 0 0 1 19.969-10.687h38.312a24 24 0 0 1 19.969 10.687l8.875 13.313 32-80v72.3a40 40 0 0 1 -2.861 14.855l-21.093 52.733a32 32 0 0 1 -29.711 20.112h-52.67a32 32 0 0 1 -29.711-20.115l-21.093-52.733a40 40 0 0 1 -2.861-14.852z" fill="#ffb431"/><path d="m240.766 227.716c-3.034 0-6.117-.075-9.209-.247l.886-15.976c22.724 1.265 45.754-3.291 45.984-3.337l3.146 15.688a230.8 230.8 0 0 1 -40.807 3.872z" fill="#fdc8a2"/><g fill="#d5d5d3"><path d="m144 424h16v32h-16z"/><path d="m352 424h16v32h-16z"/><path d="m142.66 395.56-13.32 8.88-28.84-43.26a47.9 47.9 0 0 1 9.91-13.99z"/><path d="m411.5 361.18-28.84 43.26-13.32-8.88 32.25-48.37a47.9 47.9 0 0 1 9.91 13.99z"/><path d="m256 408c-43.683 0-54.11-18.332-55.155-20.422l14.31-7.156a2.11 2.11 0 0 0 -.156-.291c.073.119 7.677 11.869 41 11.869s40.928-11.75 41-11.869a2.11 2.11 0 0 0 -.156.291l14.31 7.156c-1.043 2.09-11.47 20.422-55.153 20.422z"/></g><path d="m312 72 24 56v-56a24 24 0 0 0 -24-24z" fill="#fbab1f"/><path d="m200 72-24 56v-56a24 24 0 0 1 24-24z" fill="#fbab1f"/><path d="m312 48v24h-112a54.636 54.636 0 0 1 -16-38.63v-9.37h83.16a53.9 53.9 0 0 1 44.84 24z" fill="#ffb431"/><path d="m288.95 72h-17.9l-24-48h17.9z" fill="#fbab1f"/><path d="m248.95 72h-17.9l-24-48h17.9z" fill="#fbab1f"/></g></svg>