<svg height="512" viewBox="0 0 512 512" width="512" xmlns="http://www.w3.org/2000/svg"><g id="Flat"><path d="m416 496v-122.523a48 48 0 0 0 -36.358-46.567l-59.642-14.91-24-24v-32h-80v32l-24 24-59.642 14.91a48 48 0 0 0 -36.358 46.567v122.523" fill="#fdc8a2"/><path d="m296 256v45.4q-2.01 1.215-4.08 2.28c-22.961 11.82-53.767 11.032-75.92-2.28v-45.4z" fill="#fdbf92"/><path d="m416 373.48v122.52h-320v-122.52a48.006 48.006 0 0 1 36.36-46.57l59.64-14.91 24-24 16 56 24 56 24-56 16-56 24 24 59.64 14.91a47.993 47.993 0 0 1 36.36 46.57z" fill="#ccad80"/><g fill="#bf9d71"><path d="m248 400h16v96h-16z"/><path d="m216 400h16v16h-16z"/><path d="m150.51 395.35-13.02 9.3-36.92-51.61a47.88 47.88 0 0 1 9.8-13.81z"/><path d="m411.41 352.99-36.9 51.66-13.02-9.3 40.11-56.15a48.012 48.012 0 0 1 9.81 13.79z"/><path d="m123.578 375.155-7.156-14.31 16-8c16.766-8.383 56.333-16.354 58.009-16.69l14.448-2.989 3.242 15.668-14.5 3c-.441.088-39.188 7.894-54.043 15.321z"/><path d="m386.343 373.657c-3.141-3.142-12.275-9.38-38.151-15.863-14.731-3.69-27.937-5.67-29.223-5.86l-17.377-1.986 1.816-15.9 17.5 2c.075.008.149.018.223.029 6 .857 59.142 8.878 76.526 26.262z"/><path d="m144 416h16v80h-16z"/><path d="m352 416h16v80h-16z"/><path d="m148.422 471.155c-18.195-9.1-34.1-47.8-35.85-52.184l14.855-5.944c5.762 14.381 18.5 38.991 28.15 43.816z"/><path d="m364.116 470.86-8.232-13.72c9.989-5.993 22.925-30.3 28.732-44.219l14.769 6.156c-1.741 4.179-17.525 41.136-35.269 51.783z"/></g><path d="m216 288-24 24v64l40-32z" fill="#d9bc8f"/><path d="m296 288-16 56 40 32v-64z" fill="#d9bc8f"/><path d="m160 448h64v24h-64z" fill="#d9bc8f"/><path d="m288 448h64v24h-64z" fill="#d9bc8f"/><path d="m256 280a72.171 72.171 0 0 1 -61.2-33.92l-1.84-2.944a111.579 111.579 0 0 1 -16.96-59.136v-56a80 80 0 0 1 80-80 80 80 0 0 1 80 80v56a111.579 111.579 0 0 1 -16.96 59.136l-1.84 2.944a72.171 72.171 0 0 1 -61.2 33.92z" fill="#fdc8a2"/><path d="m214 140a14 14 0 1 0 14 14 14.015 14.015 0 0 0 -14-14z" fill="#91563a"/><path d="m298 140a14 14 0 1 0 14 14 14.015 14.015 0 0 0 -14-14z" fill="#91563a"/><path d="m172 184h4v-56h-4a28 28 0 0 0 -28 28 28 28 0 0 0 28 28z" fill="#fdb683"/><path d="m340 128h-4v56h4a28 28 0 0 0 28-28 28 28 0 0 0 -28-28z" fill="#fdb683"/><path d="m304 72a64 64 0 0 0 25.6 51.2l6.4 4.8v-48a32 32 0 0 0 -32-32z" fill="#804a32"/><path d="m208 72a64 64 0 0 1 -25.6 51.2l-6.4 4.8v-48a32 32 0 0 1 32-32z" fill="#804a32"/><path d="m326.35 57.1-22.35 14.9h-96v-24a35.1 35.1 0 0 1 33.3-24h22.7a70.2 70.2 0 0 1 9.56.64 71.557 71.557 0 0 1 17.27 4.53 76.689 76.689 0 0 1 14.21 7.52 87.684 87.684 0 0 1 21.31 20.41z" fill="#91563a"/><path d="m273.56 24.64-31.46 47.36h-19.2l31.87-48h9.23a70.2 70.2 0 0 1 9.56.64z" fill="#804a32"/><path d="m305.04 36.69-23.54 35.31h-19.22l28.55-42.83a76.689 76.689 0 0 1 14.21 7.52z" fill="#804a32"/><path d="m304 200h-96l-32-48v64a80.06 80.06 0 0 0 40 69.29 79.782 79.782 0 0 0 32 10.32q3.945.39 8 .39t8-.39a79.943 79.943 0 0 0 48-22.48c.19-.18.38-.37.57-.56a79.789 79.789 0 0 0 23.43-56.57v-64z" fill="#91563a"/><path d="m280 256v36.33a79.139 79.139 0 0 1 -16 3.28v-39.61z" fill="#804a32"/><path d="m248 256v39.61a79.139 79.139 0 0 1 -16-3.28v-36.33z" fill="#804a32"/><path d="m216 240v45.29a79.866 79.866 0 0 1 -16-12.16v-33.13z" fill="#804a32"/><path d="m312 240v33.13a79.866 79.866 0 0 1 -16 12.16v-45.29z" fill="#804a32"/><path d="m240 160h16v40h-16z" fill="#fcb079"/><path d="m248.732 238.173c-3.117 0-6.287-.129-9.467-.423l1.47-15.932c21.955 2.029 44.518-5.336 44.743-5.41l5.052 15.181a146.88 146.88 0 0 1 -41.798 6.584z" fill="#fdc8a2"/></g></svg>