<svg height="512" viewBox="0 0 512 512" width="512" xmlns="http://www.w3.org/2000/svg"><g id="Flat"><path d="m432 381.27v114.73h-352v-114.73a56.018 56.018 0 0 1 44.27-54.76l67.73-14.51a28.939 28.939 0 0 0 16-25.89v-46.11h96v46.11a28.939 28.939 0 0 0 16 25.89l67.73 14.51a56.018 56.018 0 0 1 44.27 54.76z" fill="#fdc8a2"/><path d="m304 240v39.01a40.01 40.01 0 0 1 -32.72 16.99h-30.56a40.01 40.01 0 0 1 -32.72-16.99v-39.01z" fill="#fdbf92"/><path d="m144 496v-56h-64v-58.729a56 56 0 0 1 44.266-54.757l67.734-14.514 51.969 89.09a13.928 13.928 0 0 0 12.031 6.91 13.928 13.928 0 0 0 12.031-6.91l51.969-89.09 67.734 14.514a56 56 0 0 1 44.266 54.757v58.729h-64v56" fill="#dfdfdd"/><path d="m256 448c-18.453 0-35.666-11.982-51.159-35.614l13.381-8.772c8.49 12.949 21.936 28.386 37.778 28.386 22.565 0 36.742-26.928 43.186-42.98l14.847 5.96c-13.722 34.19-34.333 53.02-58.033 53.02z" fill="#d5d5d3"/><path d="m136 376h16v64h-16z" fill="#d5d5d3"/><path d="m271.279 272h-30.558a40 40 0 0 1 -35.777-22.111l-18.211-36.423a101.671 101.671 0 0 1 -10.733-45.466v-56a80 80 0 0 1 80-80 80 80 0 0 1 80 80v56a101.671 101.671 0 0 1 -10.733 45.466l-18.211 36.423a40 40 0 0 1 -35.777 22.111z" fill="#fdc8a2"/><path d="m214 160a14 14 0 1 1 14-14 14.015 14.015 0 0 1 -14 14z" fill="#91563a"/><path d="m298 160a14 14 0 1 1 14-14 14.015 14.015 0 0 1 -14 14z" fill="#91563a"/><path d="m172 168h4v-56h-4a28 28 0 0 0 -28 28 28 28 0 0 0 28 28z" fill="#fdb683"/><path d="m340 112h-4v56h4a28 28 0 0 0 28-28 28 28 0 0 0 -28-28z" fill="#fdb683"/><g fill="#fcb079"><path d="m240 144h16v40h-16z"/><path d="m240.766 216c-3.034 0-6.117-.075-9.209-.247l.886-15.975c22.72 1.265 45.753-3.291 45.984-3.337l3.146 15.687a230.694 230.694 0 0 1 -40.807 3.872z"/><path d="m304 200h-16c0-6.695-1.65-8.339-1.667-8.354.094.083 1.667-15.646 1.667-15.646.653 0 16 .273 16 24z"/><path d="m208 104h96v16h-96z"/></g><path d="m140.422 447.155c-18.194-9.1-34.1-47.8-35.85-52.184l14.855-5.944c5.762 14.381 18.5 38.991 28.15 43.816z" fill="#d5d5d3"/><path d="m360 376h16v64h-16z" fill="#d5d5d3"/><path d="m371.578 447.155-7.156-14.31c9.16-4.58 21.975-28.38 28.15-43.816l14.856 5.942c-1.753 4.383-17.656 43.087-35.85 52.184z" fill="#d5d5d3"/><path d="m80 440h56v56h-56z" fill="#fdc8a2"/><path d="m368 440h64v56h-64z" fill="#fdc8a2"/><path d="m136 440h16v56h-16z" fill="#fdbf92"/><path d="m360 440h16v56h-16z" fill="#fdbf92"/><path d="m336 72.97v39.03l-10.53-31.59a23.98 23.98 0 0 0 -22.77-16.41h-93.4a24.005 24.005 0 0 0 -22.77 16.41l-10.53 31.59v-39.03c0-.33 0-.67.01-1a40.975 40.975 0 0 1 40.96-39.97h78.06a40.517 40.517 0 0 1 5.41.36 40.968 40.968 0 0 1 35.56 40.61z" fill="#804a32"/><path d="m312 64v1.87a24.055 24.055 0 0 0 -9.3-1.87h-86.7c-8-15.99-31.98-16-39.99 7.97 0 .01-.01.02-.01.03v-16a32 32 0 0 1 32-32h72a33.331 33.331 0 0 1 16 5 31.819 31.819 0 0 1 4.44 3.36c6.27 5.73 11.56 15.38 11.56 31.64z" fill="#91563a"/><path d="m251.978 64h-17.3c0-35.07-22.84-39.41-28.87-39.93.69-.05 1.39-.07 2.09-.07h25.248c13.754 7 18.832 20.29 18.832 40z" fill="#a7684a"/><path d="m288 64h-17.3c0-35.07-22.84-39.41-28.87-39.93.69-.05 1.39-.07 2.09-.07h25.248c13.752 7 18.832 20.29 18.832 40z" fill="#a7684a"/></g></svg>