<svg height="512" viewBox="0 0 512 512" width="512" xmlns="http://www.w3.org/2000/svg"><g id="Flat"><path d="m172 184h12v-56h-12a28 28 0 0 0 -28 28 28 28 0 0 0 28 28z" fill="#fdb683"/><path d="m340 128h-12v56h12a28 28 0 0 0 28-28 28 28 0 0 0 -28-28z" fill="#fdb683"/><path d="m432 389.27v106.73h-352v-106.73a56.018 56.018 0 0 1 44.27-54.76l67.73-14.51a28.939 28.939 0 0 0 16-25.89v-30.11h96v30.11a28.939 28.939 0 0 0 16 25.89l67.73 14.51a56.018 56.018 0 0 1 44.27 54.76z" fill="#fdc8a2"/><path d="m387.733 334.514-67.733-14.514-52.207 96.956a13.394 13.394 0 0 1 -23.586 0l-52.207-96.956-67.734 14.514a56 56 0 0 0 -44.266 54.757v106.729h352v-106.729a56 56 0 0 0 -44.267-54.757z" fill="#348ed8"/><path d="m256 464v-16c23.915 0 34.148-21.1 44.982-43.432l1.495-3.075 14.38 7.014-1.478 3.043c-11.335 23.368-25.441 52.45-59.379 52.45z" fill="#2d7dbe"/><path d="m232 488v8h-152v-106.73a56.007 56.007 0 0 1 44.27-54.76l67.73-14.51z" fill="#2f486e"/><path d="m432 389.27v106.73h-152v-8l40-168 67.73 14.51a56 56 0 0 1 44.27 54.76z" fill="#2f486e"/><path d="m304 264v19.32a47.952 47.952 0 0 1 -32.5 12.68h-31a47.952 47.952 0 0 1 -32.5-12.68v-19.32z" fill="#fdbf92"/><path d="m271.5 280h-31a48 48 0 0 1 -44.567-30.173l-11.018-27.544a124.622 124.622 0 0 1 -8.915-46.283v-56a80 80 0 0 1 80-80 80 80 0 0 1 80 80v56a124.622 124.622 0 0 1 -8.913 46.283l-11.018 27.544a48 48 0 0 1 -44.569 30.173z" fill="#fdc8a2"/><path d="m214 168a14 14 0 1 1 14-14 14.015 14.015 0 0 1 -14 14z" fill="#91563a"/><path d="m298 168a14 14 0 1 1 14-14 14.015 14.015 0 0 1 -14 14z" fill="#91563a"/><path d="m240 152h16v40h-16z" fill="#fcb079"/><path d="m312 64 24 64v-56a24 24 0 0 0 -24-24z" fill="#fbab1f"/><path d="m200 64-24 64v-56a24 24 0 0 1 24-24z" fill="#fbab1f"/><path d="m312 48v16h-112v-16a35.14 35.14 0 0 1 33.3-24h45.4a35.161 35.161 0 0 1 33.3 24z" fill="#ffb431"/><path d="m248 24h16v40h-16z" fill="#fbab1f"/><path d="m240.95 64h-17.9l-14.76-29.51a34.912 34.912 0 0 1 13.61-8.58z" fill="#fbab1f"/><path d="m303.71 34.49-14.76 29.51h-17.9l19.05-38.09a34.772 34.772 0 0 1 13.61 8.58z" fill="#fbab1f"/><g fill="#26395a"><path d="m134.15 402.88-12.3 10.24-37.62-45.2a56.119 56.119 0 0 1 8.75-14.5z"/><path d="m427.84 368.09-37.71 45.05-12.26-10.28 41.26-49.3a56.157 56.157 0 0 1 8.71 14.53z"/><path d="m128 424h16v72h-16z"/><path d="m130.343 485.657c-25.276-25.277-33.755-58.323-34.1-59.717l15.52-3.892c.075.3 7.844 30.241 29.9 52.3z"/><path d="m127.45 354.5h55.599v16h-55.599z" transform="matrix(.98 -.198 .198 .98 -68.66 37.888)"/><path d="m368 424h16v72h-16z"/><path d="m381.657 485.657-11.314-11.314c22.054-22.054 29.823-51.994 29.9-52.3l15.52 3.892c-.351 1.399-8.83 34.445-34.106 59.722z"/><path d="m348.75 334.7h16v55.599h-16z" transform="matrix(.198 -.98 .98 .198 -69.166 640.479)"/></g><path d="m260.687 224h-28.687v-16h28.687a19.185 19.185 0 0 0 13.656-5.657l11.314 11.314a35.08 35.08 0 0 1 -24.97 10.343z" fill="#fcb079"/><path d="m208 104h96v16h-96z" fill="#fcb079"/><path d="m192 320-32 64 32 24-16 32 56 48z" fill="#415e89"/><path d="m320 320 32 64-32 24 16 32-56 48z" fill="#415e89"/></g></svg>