<svg height="512" viewBox="0 0 512 512" width="512" xmlns="http://www.w3.org/2000/svg"><g id="Flat"><path d="m172 184h12v-56h-12a28 28 0 0 0 -28 28 28 28 0 0 0 28 28z" fill="#fdb683"/><path d="m340 128h-12v56h12a28 28 0 0 0 28-28 28 28 0 0 0 -28-28z" fill="#fdb683"/><path d="m432 402.24v93.76h-352v-93.76a55.981 55.981 0 0 1 40.62-53.84l71.38-20.4 12.3-18.44 3.7-5.56v-56h96v56l3.7 5.56 12.3 18.44 71.38 20.4a55.981 55.981 0 0 1 40.62 53.84z" fill="#fdc8a2"/><path d="m307.7 309.56a39.9 39.9 0 0 1 -26.93 10.44h-49.54a39.9 39.9 0 0 1 -26.93-10.44l3.7-5.56v-56h96v56z" fill="#fdbf92"/><path d="m80 496v-93.76a55.951 55.951 0 0 1 40.62-53.84l71.38-20.4 16-24 32 64 16 48 16-48 32-64 16 24 71.38 20.4a56.012 56.012 0 0 1 40.62 53.84v93.76" fill="#d65246"/><path d="m240 368-32-64-16 24 8 80z" fill="#df6257"/><path d="m320 328-16-24-32 64 40 40z" fill="#df6257"/><g fill="#c14135"><path d="m422.99 371.79-33.29 33.82-11.4-11.22 34.14-34.68a55.966 55.966 0 0 1 10.55 12.08z"/><path d="m248 416h16v80h-16z"/><path d="m133.61 394.29-11.22 11.42-33.83-33.23a56.308 56.308 0 0 1 10.39-12.24z"/><path d="m216 432h16v16h-16z"/><path d="m216 480h16v16h-16z"/><path d="m136 416h16v80h-16z"/><path d="m360 416h16v80h-16z"/><path d="m141.614 479.636c-29.986-9.37-37.22-52.539-37.513-54.372l15.8-2.539c1.595 9.777 9.462 36.318 26.489 41.639z"/><path d="m370.386 479.636-4.772-15.272c17.027-5.321 24.894-31.862 26.489-41.639l15.8 2.539c-.297 1.836-7.531 45.002-37.517 54.372z"/></g><path d="m280.769 296h-49.538a40 40 0 0 1 -38.806-30.3l-10.6-42.418a194.95 194.95 0 0 1 -5.825-47.282v-56a80 80 0 0 1 80-80 80 80 0 0 1 80 80v56a194.95 194.95 0 0 1 -5.821 47.283l-10.6 42.418a40 40 0 0 1 -38.81 30.299z" fill="#fdc8a2"/><path d="m214 168a14 14 0 1 1 14-14 14.015 14.015 0 0 1 -14 14z" fill="#34507b"/><path d="m298 168a14 14 0 1 1 14-14 14.015 14.015 0 0 1 -14 14z" fill="#34507b"/><path d="m304 72a64 64 0 0 0 25.6 51.2l6.4 4.8v-56l-32-24z" fill="#fbab1f"/><path d="m208 72a64 64 0 0 1 -25.6 51.2l-6.4 4.8v-56l32-24z" fill="#fbab1f"/><path d="m336 72h-160a47.813 47.813 0 0 1 14.06-33.94c.83-.83 1.69-1.63 2.58-2.39a47.806 47.806 0 0 1 31.12-11.67h64.24c.3 0 .61 0 .91.01a48.022 48.022 0 0 1 47.09 47.99z" fill="#ffb431"/><path d="m252.25 72h-16.49l-12-48h16.49z" fill="#fbab1f"/><path d="m288.91 24.01-12.49 47.99h-16.52l12.48-48h15.62c.3 0 .61 0 .91.01z" fill="#fbab1f"/><path d="m224.62 72h-17.27l-14.71-36.33a47.643 47.643 0 0 1 13.87-8.38z" fill="#fbab1f"/><path d="m324.43 40.76-18.66 31.24h-18.64l24.85-41.59a47.737 47.737 0 0 1 12.45 10.35z" fill="#fbab1f"/><path d="m240 152h16v40h-16z" fill="#fcb079"/><path d="m208 112h96v16h-96z" fill="#fcb079"/><path d="m240 248h40v16h-40z" fill="#fcb079"/><path d="m232 192h48a16 16 0 0 1 16 16v16a0 0 0 0 1 0 0h-80a0 0 0 0 1 0 0v-16a16 16 0 0 1 16-16z" fill="#ffb431"/></g></svg>