<svg height="512" viewBox="0 0 512 512" width="512" xmlns="http://www.w3.org/2000/svg"><g id="Flat"><path d="m440 409.9v86.1h-368v-86.1a56 56 0 0 1 40.2-53.72l95.8-28.18v-72h96v72l95.8 28.18a56 56 0 0 1 40.2 53.72z" fill="#fdc8a2"/><path d="m304 256v66.07a32.046 32.046 0 0 1 -18.57 5.93h-58.86a32.046 32.046 0 0 1 -18.57-5.93v-66.07z" fill="#fdbf92"/><path d="m399.8 356.177-95.8-28.177v-16l-32 56-16 64-16-64-32-56v16l-95.8 28.177a56 56 0 0 0 -40.2 53.723v86.1h368v-86.1a56 56 0 0 0 -40.2-53.723z" fill="#e9d6bb"/><path d="m208 312v80l32-24z" fill="#f1ddc1"/><path d="m304 312v80l-32-24z" fill="#f1ddc1"/><path d="m248 432h16v64h-16z" fill="#deccb2"/><path d="m216 416h16v16h-16z" fill="#deccb2"/><path d="m216 480h16v16h-16z" fill="#deccb2"/><path d="m172 184h12v-56h-12a28 28 0 0 0 -28 28 28 28 0 0 0 28 28z" fill="#fdb683"/><path d="m340 128h-12v56h12a28 28 0 0 0 28-28 28 28 0 0 0 -28-28z" fill="#fdb683"/><path d="m336 136v40a195.4 195.4 0 0 1 -1.46 23.82 192.921 192.921 0 0 1 -4.36 23.46l-10.61 42.42a40 40 0 0 1 -38.8 30.3h-49.54a40 40 0 0 1 -38.8-30.3l-10.61-42.42a194.7 194.7 0 0 1 -5.82-47.28v-40a80 80 0 1 1 160 0z" fill="#fdc8a2"/><path d="m214 168a14 14 0 1 1 14-14 14.015 14.015 0 0 1 -14 14z" fill="#91563a"/><path d="m298 168a14 14 0 1 1 14-14 14.015 14.015 0 0 1 -14 14z" fill="#91563a"/><path d="m208 72-32 56v-56a24 24 0 0 1 24-24z" fill="#f9a40f"/><path d="m304 72 32 56v-56a24 24 0 0 0 -24-24z" fill="#f9a40f"/><path d="m312 48-8 24h-96l-8-24a53.783 53.783 0 0 1 19.41-17.62c1.33-.71 2.7-1.37 4.09-1.96a53.759 53.759 0 0 1 21.34-4.42h22.32a52.354 52.354 0 0 1 6.52.4 53.893 53.893 0 0 1 38.32 23.6z" fill="#ffb431"/><path d="m248.71 72-9.72-47.68a53.557 53.557 0 0 0 -15.49 4.1l8.87 43.58z" fill="#f9a40f"/><path d="m289.14 28.69-8.79 43.31h-16.33l9.66-47.6a53.575 53.575 0 0 1 15.46 4.29z" fill="#f9a40f"/><path d="m176 160 40 64h80l40-72v88a32 32 0 0 1 -4.216 15.876l-18.571 32.5a32 32 0 0 1 -27.783 16.124h-58.86a32 32 0 0 1 -27.783-16.123l-18.571-32.5a32 32 0 0 1 -4.216-15.877z" fill="#f9a40f"/><path d="m320 248-14.883-34.727a35.1 35.1 0 0 0 -32.261-21.273h-41.712a35.1 35.1 0 0 0 -32.261 21.273l-14.883 34.727h14.7a35.1 35.1 0 0 0 33.3-24h40a35.1 35.1 0 0 0 33.3 24z" fill="#ffb431"/><path d="m240 152h16v40h-16z" fill="#fcb079"/><path d="m208 112h88v16h-88z" fill="#fcb079"/><path d="m208 328v168h-136v-86.1a56.013 56.013 0 0 1 40.2-53.72z" fill="#ccad80"/><path d="m440 409.9v86.1h-136v-168l95.8 28.18a55.975 55.975 0 0 1 40.2 53.72z" fill="#ccad80"/><path d="m208 312-56 64 32 16-16 32 40 64z" fill="#d9bc8f"/><path d="m304 312 56 64-32 16 16 32-40 64z" fill="#d9bc8f"/><g fill="#bf9d71"><path d="m128 424h16v72h-16z"/><path d="m368 424h16v72h-16z"/><path d="m125 401.75-10 12.5-36.99-29.59a55.87 55.87 0 0 1 9.21-13.13z"/><path d="m430.95 379.37-33.21 34.2-11.48-11.14 34.1-35.12a56.32 56.32 0 0 1 10.59 12.06z"/></g><path d="m232 256h40v16h-40z" fill="#f4970c"/></g></svg>