<svg height="512" viewBox="0 0 512 512" width="512" xmlns="http://www.w3.org/2000/svg"><g id="Flat"><path d="m448 401.97v94.03h-384v-94.03a64 64 0 0 1 48.48-62.09l79.52-19.88a28.939 28.939 0 0 0 16-25.89v-70.11h96v70.11a28.939 28.939 0 0 0 16 25.89l79.52 19.88a64 64 0 0 1 48.48 62.09z" fill="#fdc8a2"/><path d="m304 224v66.67l-6.4 8.53c-.51.68-1.04 1.33-1.6 1.96a32.03 32.03 0 0 1 -24 10.84h-32a32.03 32.03 0 0 1 -24-10.84c-.56-.63-1.09-1.28-1.6-1.96l-6.4-8.53v-66.67z" fill="#fdbf92"/><path d="m437.09 366.23a64.047 64.047 0 0 0 -37.57-26.35l-79.52-19.88c-11.56 28.88-37.78 43.33-64 43.33s-52.44-14.45-64-43.33l-79.52 19.88a64 64 0 0 0 -48.48 62.09v94.03h384v-94.03a63.876 63.876 0 0 0 -10.91-35.74z" fill="#348ed8"/><g fill="#2d7dbe"><path d="m256 408c-43.778 0-61.906-26.437-62.656-27.562l6.656-4.438 6.62-4.491c.58.837 14.555 20.491 49.38 20.491 35.311 0 49.207-20.233 49.344-20.438l13.312 8.876c-.75 1.125-18.878 27.562-62.656 27.562z"/><path d="m117.66 386.34-11.32 11.32-31.43-31.43a63.909 63.909 0 0 1 10.56-12.08z"/><path d="m437.09 366.23-31.43 31.43-11.32-11.32 32.19-32.19a63.909 63.909 0 0 1 10.56 12.08z"/><path d="m120 408h16v88h-16z"/><path d="m376 408h16v88h-16z"/><path d="m125.613 471.636c-29.984-9.37-37.219-52.536-37.513-54.372l15.8-2.539c1.595 9.777 9.462 36.318 26.49 41.639z"/><path d="m386.387 471.636-4.774-15.272c17.028-5.321 24.895-31.862 26.49-41.639l15.8 2.539c-.297 1.836-7.532 45.002-37.516 54.372z"/></g><path d="m336 120v93.33a32.017 32.017 0 0 1 -6.4 19.2l-32 42.67c-.51.68-1.04 1.33-1.6 1.96a32.03 32.03 0 0 1 -24 10.84h-32a32.03 32.03 0 0 1 -24-10.84c-.56-.63-1.09-1.28-1.6-1.96l-32-42.67a32.017 32.017 0 0 1 -6.4-19.2v-93.33c0-44.18 35.82-72 80-72 22.09 0 42.09 6.96 56.57 19.43s23.43 30.48 23.43 52.57z" fill="#fdc8a2"/><path d="m172 184h4v-56h-4a28 28 0 0 0 -28 28 28 28 0 0 0 28 28z" fill="#fdb683"/><path d="m340 128h-4v56h4a28 28 0 0 0 28-28 28 28 0 0 0 -28-28z" fill="#fdb683"/><path d="m296 24v24l40-24v96l-40-40h-80l-40 48v-72l40-32v24l40-24v24z" fill="#7a432a"/><path d="m214 168a14 14 0 1 1 14-14 14.015 14.015 0 0 1 -14 14z" fill="#7a432a"/><path d="m298 168a14 14 0 1 1 14-14 14.015 14.015 0 0 1 -14 14z" fill="#7a432a"/><path d="m248.732 224c-3.118 0-6.288-.129-9.467-.423l1.47-15.932c21.961 2.029 44.517-5.335 44.743-5.41l5.052 15.182a146.9 146.9 0 0 1 -41.798 6.583z" fill="#fcb079"/><path d="m248 160h16v32h-16z" fill="#fcb079"/><path d="m215.508 196h32.985v15.999h-32.985z" fill="#7a432a" transform="matrix(.97 -.243 .243 .97 -42.555 62.367)"/><path d="m280 187.508h15.999v32.985h-15.999z" fill="#7a432a" transform="matrix(.243 -.97 .97 .243 20.241 433.924)"/><path d="m248 248h16v40h-16z" fill="#7a432a"/><path d="m232 248v38.98a31.945 31.945 0 0 1 -16-9.82v-29.16z" fill="#7a432a"/><path d="m296 248v29.16a31.945 31.945 0 0 1 -16 9.82v-38.98z" fill="#7a432a"/></g></svg>