<svg height="512" viewBox="0 0 512 512" width="512" xmlns="http://www.w3.org/2000/svg"><g id="Flat"><path d="m432 397.27v98.73h-352v-98.73a56.018 56.018 0 0 1 44.27-54.76l67.73-14.51 16-16v-48h96v48l16 16 67.73 14.51a56.018 56.018 0 0 1 44.27 54.76z" fill="#fdc8a2"/><path d="m387.734 342.514-67.734-14.514-16-16-40 72-8 32-8-32-40-72-16 16-67.734 14.514a56 56 0 0 0 -44.266 54.757v98.729h352v-98.729a56 56 0 0 0 -44.266-54.757z" fill="#e9d6bb"/><path d="m248 384-40-72-16 16 24 96z" fill="#f9e4c8"/><path d="m320 328-16-16-40 72 32 40z" fill="#f9e4c8"/><path d="m248 416h16v80h-16z" fill="#deccb2"/><path d="m208 264v47.55a32.011 32.011 0 0 0 21.67 8.45h52.66a32.011 32.011 0 0 0 21.67-8.45v-47.55z" fill="#fdbf92"/><path d="m282.335 296h-52.67a32 32 0 0 1 -29.711-20.115l-18.232-45.58a80 80 0 0 1 -5.722-29.712v-80.593a80 80 0 0 1 80-80 80 80 0 0 1 80 80v80.593a80 80 0 0 1 -5.722 29.712l-18.232 45.58a32 32 0 0 1 -29.711 20.115z" fill="#fdc8a2"/><path d="m172 184h4v-56h-4a28 28 0 0 0 -28 28 28 28 0 0 0 28 28z" fill="#fdb683"/><path d="m340 128h-4v56h4a28 28 0 0 0 28-28 28 28 0 0 0 -28-28z" fill="#fdb683"/><path d="m214 168a14 14 0 1 1 14-14 14.015 14.015 0 0 1 -14 14z" fill="#91563a"/><path d="m298 168a14 14 0 1 1 14-14 14.015 14.015 0 0 1 -14 14z" fill="#91563a"/><path d="m240 152h16v40h-16z" fill="#fcb079"/><path d="m208 112h96v16h-96z" fill="#fcb079"/><path d="m304 48h-96a32 32 0 0 0 -32 32v48l6.4-4.8a64 64 0 0 0 25.6-51.2v-8h96v8a64 64 0 0 0 25.6 51.2l6.4 4.8v-48a32 32 0 0 0 -32-32z" fill="#f88400"/><path d="m304 48v16h-88c-2.88-4.98-10.52-8.27-16.76-7.98a16 16 0 0 0 .76 31.98 32 32 0 0 1 -2.09-63.93c.69-.05 72.79-.07 72.79-.07a35.1 35.1 0 0 1 33.3 24z" fill="#ff9721"/><path d="m304 208-16.971-16.971a24 24 0 0 0 -16.97-7.029h-28.118a24 24 0 0 0 -16.97 7.029l-16.971 16.971c.185.374-1.695-3.385-3.678-7.353a107.284 107.284 0 0 0 -10.122-16.385l-18.2-24.262v40.593a80 80 0 0 0 5.722 29.712l18.232 45.58a32 32 0 0 0 29.711 20.115h52.67a32 32 0 0 0 29.711-20.115l18.232-45.58a80 80 0 0 0 5.722-29.712v-40.593l-6.111 6.111a107.168 107.168 0 0 0 -25.889 41.889z" fill="#f88400"/><path d="m240.766 227.716c-3.034 0-6.117-.075-9.21-.247l.888-15.976c22.719 1.263 45.753-3.29 45.983-3.337l3.146 15.688a230.817 230.817 0 0 1 -40.807 3.872z" fill="#fcb079"/><path d="m247.082 64h-17.3c0-35.07-22.84-39.41-28.87-39.93.69-.05 1.39-.07 2.09-.07h25.247c13.751 7 18.833 20.29 18.833 40z" fill="#ffa136"/><path d="m283.1 64h-17.3c0-35.07-22.84-39.41-28.87-39.93.69-.05 1.39-.07 2.09-.07h25.248c13.755 7 18.832 20.29 18.832 40z" fill="#ffa136"/><path d="m232 488v8h-152v-98.73a56.022 56.022 0 0 1 44.27-54.76l67.73-14.51z" fill="#7a432a"/><path d="m432 397.27v98.73h-152v-8l40-160 67.73 14.51a55.99 55.99 0 0 1 44.27 54.76z" fill="#7a432a"/><g fill="#663723"><path d="m134.1 410.82-12.2 10.36-37.91-44.68a56.085 56.085 0 0 1 8.6-14.6z"/><path d="m427.86 376.13-37.73 45.01-12.26-10.28 41.29-49.26a56.124 56.124 0 0 1 8.7 14.53z"/><path d="m128 432h16v64h-16z"/><path d="m130.343 493.657c-25.276-25.277-33.756-58.323-34.1-59.717l15.519-3.892c.076.3 7.844 30.241 29.9 52.3z"/><path d="m127.455 362.5h56.089v16h-56.089z" transform="matrix(.981 -.196 .196 .981 -69.637 37.688)"/><path d="m368 432h16v64h-16z"/><path d="m381.657 493.657-11.314-11.314c22.055-22.054 29.823-51.994 29.9-52.3l15.519 3.892c-.349 1.399-8.829 34.445-34.105 59.722z"/><path d="m350.5 345.014h16v51.971h-16z" transform="matrix(.192 -.981 .981 .192 -74.548 651.415)"/><path d="m184 480h16v16h-16z"/></g><path d="m192 328-32 64 32 24-16 32 56 40-16-64z" fill="#895036"/><path d="m320 328 32 64-32 24 16 32-56 40 16-64z" fill="#895036"/></g></svg>