<svg height="512" viewBox="0 0 512 512" width="512" xmlns="http://www.w3.org/2000/svg"><g id="Flat"><path d="m416 389.48v106.52h-320v-106.52a48 48 0 0 1 36.36-46.57l59.64-14.91 24-24v-32h80v32l24 24 59.64 14.91a48 48 0 0 1 36.36 46.57z" fill="#fdc8a2"/><path d="m301.16 309.16a31.955 31.955 0 0 1 -23.99 10.84h-42.34a31.955 31.955 0 0 1 -23.99-10.84l5.16-5.16v-32h80v32z" fill="#fdbf92"/><path d="m379.642 342.91-59.642-14.91c-25.484 54.153-102.516 54.153-128 0l-59.642 14.91a48 48 0 0 0 -36.358 46.567v106.523h320v-106.523a48 48 0 0 0 -36.358-46.567z" fill="#dfdfdd"/><path d="m258.977 406.01a93.538 93.538 0 0 1 -20.917-2.246l3.863-15.527c.287.071 28.777 6.845 49.432-6.754l16.785-12.837 9.72 12.708-17 13q-.206.157-.422.3c-13.624 9.087-29.251 11.356-41.461 11.356z" fill="#d5d5d3"/><path d="m132.36 342.91a48.01 48.01 0 0 0 -36.36 46.57v106.52h120v-192l-24 24z" fill="#91563a"/><path d="m411.67 369.56a47.95 47.95 0 0 0 -32.03-26.65l-59.64-14.91-24-24v192h120v-106.52a47.883 47.883 0 0 0 -4.33-19.92z" fill="#91563a"/><path d="m150.47 411.29-12.94 9.42-37.2-51.15a47.99 47.99 0 0 1 9.65-13.95z" fill="#804c33"/><path d="m411.67 369.56-37.2 51.15-12.94-9.42 40.49-55.68a47.99 47.99 0 0 1 9.65 13.95z" fill="#804c33"/><path d="m192 328-32 40 32 16-16 24 40 80v-184z" fill="#a7684a"/><path d="m320 328 32 40-32 16 16 24-40 80v-184z" fill="#a7684a"/><path d="m144 432h16v64h-16z" fill="#804c33"/><path d="m352 432h16v64h-16z" fill="#804c33"/><path d="m277.171 296h-42.342a32 32 0 0 1 -27.973-16.46l-24.816-44.667a48.008 48.008 0 0 1 -6.04-23.311v-75.562a80 80 0 0 1 80-80 80 80 0 0 1 80 80v75.562a48.008 48.008 0 0 1 -6.04 23.311l-24.816 44.667a32 32 0 0 1 -27.973 16.46z" fill="#fdc8a2"/><path d="m172 200h4v-56h-4a28 28 0 0 0 -28 28 28 28 0 0 0 28 28z" fill="#fdb683"/><path d="m340 144h-4v56h4a28 28 0 0 0 28-28 28 28 0 0 0 -28-28z" fill="#fdb683"/><path d="m214 184a14 14 0 1 1 14-14 14.015 14.015 0 0 1 -14 14z" fill="#91563a"/><path d="m298 184a14 14 0 1 1 14-14 14.015 14.015 0 0 1 -14 14z" fill="#91563a"/><g fill="#fcb079"><path d="m248.732 232c-3.117 0-6.287-.129-9.467-.422l1.47-15.933c21.955 2.026 44.518-5.335 44.743-5.41l5.052 15.181a146.88 146.88 0 0 1 -41.798 6.584z"/><path d="m248 176h16v32h-16z"/><path d="m242.459 108h43.081v16h-43.081z" transform="matrix(.371 -.928 .928 .371 58.247 318.034)"/><path d="m200 128h40v16h-40z"/><path d="m280 128h40v16h-40z"/></g><path d="m296 72a84.064 84.064 0 0 1 33.121 43.364l6.879 20.636v-48a40 40 0 0 0 -40-40z" fill="#ef7800"/><path d="m216 72a84.064 84.064 0 0 0 -33.121 43.364l-6.879 20.636v-48a40 40 0 0 1 40-40z" fill="#ef7800"/><path d="m296 72h-80l-7.029-7.029a57.94 57.94 0 0 1 -16.971-40.971 38.628 38.628 0 0 1 27.314 11.314l4.686 4.686v-16a38.628 38.628 0 0 1 27.314 11.314l4.686 4.686v-16a44.846 44.846 0 0 1 37.313 19.969l2.687 4.031z" fill="#f88400"/></g></svg>