<svg height="512" viewBox="0 0 512 512" width="512" xmlns="http://www.w3.org/2000/svg"><g id="Flat"><path d="m448 404.48v91.52h-384v-91.52a47.994 47.994 0 0 1 35.15-46.24l108.85-30.24v-72h96v72l108.85 30.24a47.994 47.994 0 0 1 35.15 46.24z" fill="#fdc8a2"/><path d="m304 256v55.87a31.933 31.933 0 0 1 -8 9.27c-11.1 8.731-26.577 7.176-39.914 7.837-13.456.667-28.919.951-40.086-7.837a31.933 31.933 0 0 1 -8-9.27v-55.87z" fill="#fdbf92"/><path d="m448 496v-91.516a48 48 0 0 0 -35.153-46.249l-108.847-30.235v-16l-32 56-16 64-16-64-32-56v16l-108.847 30.235a48 48 0 0 0 -35.153 46.249v91.516" fill="#e9d6bb"/><path d="m208 312v80l32-24z" fill="#f9e4c8"/><path d="m304 312v80l-32-24z" fill="#f9e4c8"/><path d="m336 57.6-2.92-4.088a70.482 70.482 0 0 0 -57.351-29.512h-47.458a70.482 70.482 0 0 0 -57.353 29.515 70.48 70.48 0 0 0 -11.024 58.061l8.106 32.424h176l4.586-36.688a70.484 70.484 0 0 0 -12.586-49.712z" fill="#a7684a"/><path d="m172 192h12v-56h-12a28 28 0 0 0 -28 28 28 28 0 0 0 28 28z" fill="#fdb683"/><path d="m340 136h-12v56h12a28 28 0 0 0 28-28 28 28 0 0 0 -28-28z" fill="#fdb683"/><path d="m336 128v56q0 7.125-.6 14.2v.01a169 169 0 0 1 -17.29 61.57l-13.27 26.53a32.086 32.086 0 0 1 -28.62 17.69h-40.44a32.061 32.061 0 0 1 -28.62-17.69l-13.27-26.53a169.143 169.143 0 0 1 -15.92-50.02c-.02-.11-.03-.23-.05-.34v-.01a168.337 168.337 0 0 1 -1.92-25.41v-56a79.789 79.789 0 0 1 23.43-56.57c1.8-1.8 3.69-3.51 5.65-5.14a80.007 80.007 0 0 1 130.92 61.71z" fill="#fdc8a2"/><path d="m240 248h32v16h-32z" fill="#a7684a"/><path d="m240 160h16v40h-16z" fill="#fcb079"/><path d="m240.764 235.716c-3.033 0-6.116-.075-9.208-.247l.888-15.975c22.639 1.252 45.755-3.292 45.986-3.339l3.143 15.689a230.948 230.948 0 0 1 -40.809 3.872z" fill="#fcb079"/><path d="m248 256h16v48h-16z" fill="#a7684a"/><path d="m232 272v31.77a31.781 31.781 0 0 1 -16-6.63v-25.14z" fill="#a7684a"/><path d="m296 272v25.14a31.781 31.781 0 0 1 -16 6.63v-31.77z" fill="#a7684a"/><path d="m214.656 244.438-13.312-8.876 16-24a8 8 0 0 1 6.656-3.562h24v16h-19.719z" fill="#a7684a"/><path d="m297.344 244.438-13.625-20.438h-19.719v-16h24a8 8 0 0 1 6.656 3.562l16 24z" fill="#a7684a"/><path d="m240 248h32v16h-32z" fill="#a7684a"/><path d="m336 170.81v13.19q0 7.125-.6 14.2v.01l-17.01 22.6-12.78-9.62z" fill="#fcb079"/><path d="m198.59 211.46-13.18 9.08-7.44-10.78c-.02-.11-.03-.23-.05-.34v-.01a168.337 168.337 0 0 1 -1.92-25.41v-5.3z" fill="#fcb079"/><path d="m214 148a14 14 0 1 0 14 14 14.015 14.015 0 0 0 -14-14z" fill="#804c33"/><path d="m298 148a14 14 0 1 0 14 14 14.015 14.015 0 0 0 -14-14z" fill="#804c33"/><path d="m312 40h-112l-32 32v64h8l6.065-18.2c10.155 18.614 26.97 34.2 41.935 34.2-11.034-16.551-33.152-75.711-1.363-83.659a19.325 19.325 0 0 1 23.022 12.637l2.341 7.022 5.679-8.519a21.077 21.077 0 0 1 26.64-7.318 21.462 21.462 0 0 1 11.133 24.926l-1.892 7.111c-4.757 23.784 12.556 46.783 36.791 47.766q.821.033 1.649.033l-.411-1.232a147.9 147.9 0 0 1 -6.6-29.779l15.011 15.012h8v-56z" fill="#a7684a"/><path d="m240 24h16v32h-16z" fill="#91563a"/><path d="m328 88h-16c0-31.637-23.02-32-24-32v-16c.4 0 40 .549 40 48z" fill="#91563a"/><path d="m208 328v168h-144v-91.52a48.021 48.021 0 0 1 22.9-40.9 47.366 47.366 0 0 1 12.25-5.34l90.35-25.1z" fill="#868444"/><path d="m208 312-56 64 32 16-16 32 40 64z" fill="#939250"/><path d="m448 404.48v91.52h-144v-168l108.85 30.24a48.046 48.046 0 0 1 24.33 15.9 47.849 47.849 0 0 1 10.82 30.34z" fill="#868444"/><path d="m304 312 56 64-32 16 16 32-40 64z" fill="#939250"/><path d="m248 432h16v64h-16z" fill="#deccb2"/><path d="m216 416h16v16h-16z" fill="#deccb2"/><path d="m216 480h16v16h-16z" fill="#deccb2"/><g fill="#797639"><path d="m125.66 402.34-11.32 11.32-39.52-39.52a47.605 47.605 0 0 1 12.08-10.56z"/><path d="m437.18 374.14-39.52 39.52-11.32-11.32 38.76-38.76a47.605 47.605 0 0 1 12.08 10.56z"/><path d="m120 424h16v72h-16z"/><path d="m124.422 487.155c-18.049-9.024-33.165-52.085-36.011-60.625l15.178-5.061c6.219 18.632 19.014 46.888 27.989 51.376z"/><path d="m128 480h48v16h-48z"/><path d="m376 424h16v72h-16z"/><path d="m387.578 487.155-7.156-14.31c8.992-4.5 21.78-32.749 27.989-51.375l15.178 5.06c-2.846 8.54-17.962 51.601-36.011 60.625z"/><path d="m336 480h48v16h-48z"/></g></g></svg>