<svg height="512" viewBox="0 0 512 512" width="512" xmlns="http://www.w3.org/2000/svg"><g id="Flat"><path d="m448 401.97v94.03h-384v-94.03a64 64 0 0 1 48.48-62.09l79.52-19.88a28.939 28.939 0 0 0 16-25.89v-54.11h96v54.11a28.939 28.939 0 0 0 16 25.89l79.52 19.88a64 64 0 0 1 48.48 62.09z" fill="#fdc8a2"/><path d="m304 240v50.67l-6.4 8.53c-.51.68-1.04 1.33-1.6 1.96a31.992 31.992 0 0 1 -24 10.84h-32a31.992 31.992 0 0 1 -24-10.84c-.56-.63-1.09-1.28-1.6-1.96l-6.4-8.53v-50.67z" fill="#fdbf92"/><path d="m436.86 365.89a64.1 64.1 0 0 0 -37.34-26.01l-79.52-19.88c-11.56 28.88-37.78 43.33-64 43.33s-52.44-14.45-64-43.33l-79.52 19.88a64 64 0 0 0 -48.48 62.09v94.03h384v-94.03a63.812 63.812 0 0 0 -11.14-36.08z" fill="#e9d6bb"/><g fill="#deccb2"><path d="m256 408c-43.778 0-61.906-26.437-62.656-27.562l6.656-4.438 6.62-4.491c.58.837 14.555 20.491 49.38 20.491 35.311 0 49.207-20.233 49.344-20.438l13.312 8.876c-.75 1.125-18.878 27.562-62.656 27.562z"/><path d="m120 408h16v88h-16z"/><path d="m376 408h16v88h-16z"/><path d="m117.56 386.25-11.12 11.5-31.93-30.92a64.09 64.09 0 0 1 10.41-12.19z"/><path d="m436.86 365.89-31.15 31.72-11.42-11.22 31.93-32.51a63.61 63.61 0 0 1 10.64 12.01z"/><path d="m125.613 471.636c-29.984-9.37-37.219-52.536-37.513-54.372l15.8-2.539c1.595 9.777 9.462 36.318 26.49 41.639z"/><path d="m386.387 471.636-4.774-15.272c17.028-5.321 24.895-31.862 26.49-41.639l15.8 2.539c-.297 1.836-7.532 45.002-37.516 54.372z"/></g><path d="m336 120v93.33a32.017 32.017 0 0 1 -6.4 19.2l-32 42.67c-.51.68-1.04 1.33-1.6 1.96a31.992 31.992 0 0 1 -24 10.84h-32a31.992 31.992 0 0 1 -24-10.84c-.56-.63-1.09-1.28-1.6-1.96l-32-42.67a32.017 32.017 0 0 1 -6.4-19.2v-93.33c0-44.18 35.82-72 80-72 22.09 0 42.09 6.96 56.57 19.43s23.43 30.48 23.43 52.57z" fill="#fdc8a2"/><path d="m214 168a14 14 0 1 1 14-14 14.015 14.015 0 0 1 -14 14z" fill="#91563a"/><path d="m298 168a14 14 0 1 1 14-14 14.015 14.015 0 0 1 -14 14z" fill="#91563a"/><path d="m172 184h4v-56h-4a28 28 0 0 0 -28 28 28 28 0 0 0 28 28z" fill="#fdb683"/><path d="m340 128h-4v56h4a28 28 0 0 0 28-28 28 28 0 0 0 -28-28z" fill="#fdb683"/><path d="m248 160h16v32h-16z" fill="#fcb079"/><path d="m247.25 229.929a76.468 76.468 0 0 1 -8.1-.417l1.694-15.91c17.882 1.9 36.1-5 36.284-5.07l5.738 14.936a110.331 110.331 0 0 1 -35.616 6.461z" fill="#fcb079"/><path d="m304 64 32 64v-56a32 32 0 0 0 -32-32z" fill="#2b4266"/><path d="m176 128v-64h32z" fill="#2b4266"/><path d="m304 40v24h-128a39.875 39.875 0 0 1 11.72-28.28 40.63 40.63 0 0 1 6.04-4.97 39.662 39.662 0 0 1 14.81-6.06 40.424 40.424 0 0 1 7.43-.69h62.11a28.939 28.939 0 0 1 25.89 16z" fill="#34507b"/><path d="m288.6 64h-17.24l-16.05-40h17.23z" fill="#2b4266"/><path d="m256.28 64h-17.2l-15.79-40h17.21z" fill="#2b4266"/><path d="m224.23 64h-17.22l-13.25-33.25a39.662 39.662 0 0 1 14.81-6.06z" fill="#2b4266"/></g></svg>