<svg height="512" viewBox="0 0 512 512" width="512" xmlns="http://www.w3.org/2000/svg"><g id="Flat"><path d="m440 409.9v86.1h-368v-86.1a56 56 0 0 1 40.2-53.72l87.58-25.76 8.22-2.42v-72h96v72l8.22 2.42 87.58 25.76a56 56 0 0 1 40.2 53.72z" fill="#fdc8a2"/><path d="m312.22 330.42a36 36 0 0 1 -28.17 13.58h-56.1a36 36 0 0 1 -28.17-13.58l8.22-2.42v-72h96v72z" fill="#fdbf92"/><path d="m399.8 356.177-95.8-28.177v-16l-32 56-16 64-16-64-32-56v16l-95.8 28.177a56 56 0 0 0 -40.2 53.723v86.1h368v-86.1a56 56 0 0 0 -40.2-53.723z" fill="#868444"/><path d="m208 312v80l32-24z" fill="#939250"/><path d="m304 312v80l-32-24z" fill="#939250"/><path d="m248 432h16v64h-16z" fill="#797639"/><path d="m216 416h16v16h-16z" fill="#797639"/><path d="m216 480h16v16h-16z" fill="#797639"/><path d="m208 328v168h-136v-86.1a56.013 56.013 0 0 1 40.2-53.72z" fill="#7a432a"/><path d="m440 409.9v86.1h-136v-168l95.8 28.18a55.979 55.979 0 0 1 40.2 53.72z" fill="#7a432a"/><path d="m208 312-56 64 32 16-16 32 40 64z" fill="#895036"/><path d="m304 312 56 64-32 16 16 32-40 64z" fill="#895036"/><g fill="#663723"><path d="m128 424h16v72h-16z"/><path d="m368 424h16v72h-16z"/><path d="m125 401.75-10 12.5-36.99-29.59a55.87 55.87 0 0 1 9.21-13.13z"/><path d="m431.34 379.98-33.68 33.68-11.32-11.32 34.56-34.56a56.089 56.089 0 0 1 10.44 12.2z"/></g><path d="m164 192h12v-56h-12a28 28 0 0 0 -28 28 28 28 0 0 0 28 28z" fill="#fdb683"/><path d="m348 136h-12v56h12a28 28 0 0 0 28-28 28 28 0 0 0 -28-28z" fill="#fdb683"/><path d="m276.105 288h-40.205a60.9 60.9 0 0 1 -57.776-41.642 197.2 197.2 0 0 1 -10.124-62.358v-52c0-40.5 26.754-74.613 64-84.857a92.669 92.669 0 0 1 24-3.143 88 88 0 0 1 88 88v52a197.2 197.2 0 0 1 -10.119 62.358 60.9 60.9 0 0 1 -57.776 41.642z" fill="#fdc8a2"/><path d="m344 88v48s-46.11-12.22-64-48c-24-48-48-40.859-48-40.859l2.53-6.731a24.005 24.005 0 0 1 22.77-16.41h22.7a64 64 0 0 1 64 64z" fill="#7a432a"/><path d="m232 47.141-2.98 12.8a116.7 116.7 0 0 1 -61.02 76.059v-48.96a50.234 50.234 0 0 1 27.76-44.92 31.37 31.37 0 0 1 14.04-3.32c8.14 0 16.17 2.311 22.2 8.341z" fill="#7a432a"/><path d="m344 93.28v20.5l-4.6-3.24a6.674 6.674 0 0 1 -.67-.52c-39.31-34.4-49.66-57.89-50.08-58.87l7.35-3.15 7.33-3.19.02.04c.46 1 9.5 20.03 40.65 48.43z" fill="#663723"/><path d="m207.12 67.64c-11.16 21.83-23.49 36.34-39.12 45.79v-19.66c9.31-7.81 17.32-18.64 24.88-33.41z" fill="#663723"/><path d="m168 136 27.777 62.5a16 16 0 0 0 14.623 9.5h77.039a16 16 0 0 0 13.313-7.125l43.248-64.875v101.645a64 64 0 0 1 -9.728 33.92l-19.7 31.515a36 36 0 0 1 -30.525 16.92h-56.094a36 36 0 0 1 -30.528-16.92l-19.7-31.515a64 64 0 0 1 -9.725-33.92z" fill="#7a432a"/><path d="m214 176a14 14 0 1 1 14-14 14.015 14.015 0 0 1 -14 14z" fill="#91563a"/><path d="m298 176a14 14 0 1 1 14-14 14.015 14.015 0 0 1 -14 14z" fill="#91563a"/><path d="m240 160h16v40h-16z" fill="#fcb079"/><path d="m240.764 248c-3.034 0-6.116-.075-9.207-.247l.886-15.975c22.647 1.253 45.756-3.292 45.987-3.339l3.143 15.689a230.825 230.825 0 0 1 -40.809 3.872z" fill="#fcb079"/><path d="m308.92 254.3-14.311-7.154c4.143-8.287-2.158-16.443-3.463-17.994l12.242-10.3c7.052 8.377 12.212 22.091 5.532 35.448z" fill="#663723"/><path d="m208 120h88v16h-88z" fill="#fcb079"/></g></svg>