<svg height="512" viewBox="0 0 512 512" width="512" xmlns="http://www.w3.org/2000/svg"><g id="Flat"><path d="m172 176h12v-56h-12a28 28 0 0 0 -28 28 28 28 0 0 0 28 28z" fill="#fdbf92"/><path d="m340 120h-12v56h12a28 28 0 0 0 28-28 28 28 0 0 0 -28-28z" fill="#fdbf92"/><path d="m416 397.48v98.52h-320v-98.52a48 48 0 0 1 36.36-46.57l59.64-14.91 24-24v-32h80v32l24 24 59.64 14.91a48 48 0 0 1 36.36 46.57z" fill="#fdc8a2"/><path d="m300.32 316.32a31.923 31.923 0 0 1 -14.89 3.68h-58.86a31.923 31.923 0 0 1 -14.89-3.68l4.32-4.32v-32h80v32z" fill="#fdbf92"/><path d="m416 397.48v98.52h-320v-98.52a47.982 47.982 0 0 1 36.36-46.57l59.64-14.91 24-24 16 56 24 56 24-56 16-56 24 24 59.64 14.91a48.009 48.009 0 0 1 36.36 46.57z" fill="#2f486e"/><path d="m216 312-24 24v64l40-32z" fill="#415e89"/><path d="m296 312-16 56 40 32v-64z" fill="#415e89"/><g fill="#26395a"><path d="m150.5 419.33-13 9.34-36.99-51.52a48.251 48.251 0 0 1 9.77-13.84z"/><path d="m411.33 376.83-36.81 51.8-13.04-9.26 40-56.29a47.958 47.958 0 0 1 9.85 13.75z"/><path d="m144 440h16v56h-16z"/><path d="m352 440h16v56h-16z"/><path d="m248 424h16v72h-16z"/><path d="m216 432h16v16h-16z"/><path d="m148.422 495.155c-18.195-9.1-34.1-47.8-35.85-52.184l14.855-5.945c5.762 14.38 18.5 38.991 28.15 43.816z"/><path d="m364.116 494.86-8.232-13.72c10.012-6.007 22.937-30.31 28.731-44.217l14.77 6.154c-1.741 4.179-17.525 41.137-35.269 51.783z"/></g><path d="m336 120v48a195.4 195.4 0 0 1 -1.46 23.82 192.921 192.921 0 0 1 -4.36 23.46l-10.61 42.42a40 40 0 0 1 -38.8 30.3h-49.54a40 40 0 0 1 -38.8-30.3l-10.61-42.42a194.7 194.7 0 0 1 -5.82-47.28v-48a80 80 0 1 1 160 0z" fill="#fdc8a2"/><path d="m176 152 40 48h80l40-56v88a32 32 0 0 1 -4.216 15.876l-18.571 32.5a32 32 0 0 1 -27.783 16.124h-58.86a32 32 0 0 1 -27.783-16.123l-18.571-32.5a32 32 0 0 1 -4.216-15.877z" fill="#f88400"/><path d="m214 160a14 14 0 1 1 14-14 14.015 14.015 0 0 1 -14 14z" fill="#91563a"/><path d="m298 160a14 14 0 1 1 14-14 14.015 14.015 0 0 1 -14 14z" fill="#91563a"/><path d="m240 152.498h16v47.502h-16z" fill="#fcb079"/><path d="m240.732 240c-3.117 0-6.287-.129-9.467-.423l1.47-15.932c21.956 2.032 44.518-5.335 44.743-5.41l5.052 15.182a146.9 146.9 0 0 1 -41.798 6.583z" fill="#fcb079"/><path d="m312 72 24 56v-56a24 24 0 0 0 -24-24z" fill="#ef7800"/><path d="m200 72-24 56v-56a24 24 0 0 1 24-24z" fill="#ef7800"/><path d="m312 48v24h-112a54.636 54.636 0 0 1 -16-38.63v-9.37h83.16a53.9 53.9 0 0 1 44.84 24z" fill="#f88400"/><path d="m288.95 72h-17.9l-24-48h17.9z" fill="#ef7800"/><path d="m248.8 72h-17.96l-24.55-48h17.96z" fill="#ef7800"/></g></svg>