<svg height="512" viewBox="0 0 512 512" width="512" xmlns="http://www.w3.org/2000/svg"><g id="Flat"><path d="m387.734 326.514-67.734-14.514-1.545-.58a22.283 22.283 0 0 1 -14.455-20.862v-42.558h-96v42.558a22.283 22.283 0 0 1 -14.455 20.862 22.2 22.2 0 0 1 -3.159.926l-66.12 14.168a56 56 0 0 0 -44.266 54.757v114.729h352v-114.729a56 56 0 0 0 -44.266-54.757z" fill="#fdc8a2"/><path d="m304 256v40.56a39.914 39.914 0 0 1 -23.23 7.44h-49.54a39.914 39.914 0 0 1 -23.23-7.44v-40.56z" fill="#fdbf92"/><path d="m432 381.27v74.73h-64v40h-224v-40h-64v-74.73a55.811 55.811 0 0 1 9.81-31.66 56.654 56.654 0 0 1 10.84-11.78 55.963 55.963 0 0 1 23.62-11.32l67.73-14.51 4.36 17.43a61.475 61.475 0 0 0 119.28 0l4.36-17.43 67.73 14.51a56.008 56.008 0 0 1 44.27 54.76z" fill="#2f486e"/><path d="m172 168h12v-56h-12a28 28 0 0 0 -28 28 28 28 0 0 0 28 28z" fill="#fdb683"/><path d="m340 112h-12v56h12a28 28 0 0 0 28-28 28 28 0 0 0 -28-28z" fill="#fdb683"/><path d="m280.769 280h-49.538a40 40 0 0 1 -38.806-30.3l-10.6-42.418a194.95 194.95 0 0 1 -5.825-47.282v-56a80 80 0 0 1 80-80 80 80 0 0 1 80 80v56a194.95 194.95 0 0 1 -5.821 47.283l-10.6 42.418a40 40 0 0 1 -38.81 30.299z" fill="#fdc8a2"/><path d="m214 152a14 14 0 1 1 14-14 14.015 14.015 0 0 1 -14 14z" fill="#91563a"/><path d="m298 152a14 14 0 1 1 14-14 14.015 14.015 0 0 1 -14 14z" fill="#91563a"/><path d="m240 136h16v40h-16z" fill="#fcb079"/><path d="m336 160a53.032 53.032 0 0 0 -32.883 31.687l-15.117 40.313h-16l-8-32h-16l-8 32h-16l-17.79-41.511a53.034 53.034 0 0 0 -19.326-23.233l-10.884-7.256a194.95 194.95 0 0 0 5.821 47.283l10.6 42.418a40 40 0 0 0 38.81 30.299h49.538a40 40 0 0 0 38.806-30.3l10.6-42.418a194.95 194.95 0 0 0 5.825-47.282z" fill="#91563a"/><path d="m232 192h48v16h-48z" fill="#fcb079"/><path d="m242.674 66.282-5.348-15.082a55.711 55.711 0 0 1 18.674-3.2v16a39.762 39.762 0 0 0 -13.326 2.282z" fill="#fdd8be"/><path d="m216 104h-16a55.912 55.912 0 0 1 19.973-42.845l10.3 12.239a39.946 39.946 0 0 0 -14.273 30.606z" fill="#fdd8be"/><g fill="#26395a"><path d="m256 416c-52.342 0-70.412-34.935-71.155-36.422l7.155-3.578 7.13-3.628c.584 1.128 14.796 27.628 56.87 27.628s56.286-26.5 56.87-27.628l14.285 7.206c-.743 1.487-18.813 36.422-71.155 36.422z"/><path d="m141.62 378.31-11.24 11.38-40.57-40.08a56.654 56.654 0 0 1 10.84-11.78z"/><path d="m421.99 349.32-40.33 40.34-11.32-11.32 40.74-40.73a56.382 56.382 0 0 1 10.91 11.71z"/><path d="m143.428 408h16v88h-16z"/><path d="m145.771 461.657c-16.966-16.966-33.093-56.99-33.771-58.686l14.855-5.943c.154.385 15.585 38.671 30.229 53.315z"/><path d="m352.572 408h16v88h-16z"/><path d="m366.229 461.657-11.313-11.314c12.172-12.173 25.948-42.613 30.229-53.314l14.855 5.942c-.678 1.696-16.8 41.72-33.771 58.686z"/></g></g></svg>