<svg height="512" viewBox="0 0 512 512" width="512" xmlns="http://www.w3.org/2000/svg"><g id="Flat"><path d="m432 389.27v98.73h-352v-98.73a56.018 56.018 0 0 1 44.27-54.76l67.73-14.51 16-16v-48h96v48l16 16 67.73 14.51a56.018 56.018 0 0 1 44.27 54.76z" fill="#fdc8a2"/><path d="m387.734 334.514-67.734-14.514-16-16-40 72-8 32-8-32-40-72-16 16-67.734 14.514a56 56 0 0 0 -44.266 54.757v98.729h352v-98.729a56 56 0 0 0 -44.266-54.757z" fill="#dfdfdd"/><path d="m248 376-40-72-16 16 24 96z" fill="#eaeae8"/><path d="m320 320-16-16-40 72 32 40z" fill="#eaeae8"/><path d="m248 408h16v80h-16z" fill="#d5d5d3"/><path d="m304 256v32.22a71.521 71.521 0 0 1 -44.82 15.78h-6.36a71.527 71.527 0 0 1 -44.82-15.78v-32.22z" fill="#fdbf92"/><path d="m259.181 280h-6.362a71.547 71.547 0 0 1 -58.219-29.96 99.851 99.851 0 0 1 -18.6-58.04v-56a80 80 0 0 1 80-80 80 80 0 0 1 80 80v56a99.851 99.851 0 0 1 -18.6 58.039 71.547 71.547 0 0 1 -58.219 29.961z" fill="#fdc8a2"/><path d="m214 144a14 14 0 1 0 14 14 14.015 14.015 0 0 0 -14-14z" fill="#91563a"/><path d="m298 144a14 14 0 1 0 14 14 14.015 14.015 0 0 0 -14-14z" fill="#91563a"/><path d="m172 184h4v-56h-4a28 28 0 0 0 -28 28 28 28 0 0 0 28 28z" fill="#fdb683"/><path d="m340 128h-4v56h4a28 28 0 0 0 28-28 28 28 0 0 0 -28-28z" fill="#fdb683"/><path d="m216 80-40 56v-48a40 40 0 0 1 40-40z" fill="#f9a40f"/><path d="m296 80 40 56v-48a40 40 0 0 0 -40-40z" fill="#f9a40f"/><path d="m296 48v32h-80a40 40 0 0 1 -40-40v-16h75.16a53.9 53.9 0 0 1 44.84 24z" fill="#ffb431"/><path d="m244.183 80h-23.483s-5.47-6.53-7.341-10.94a56.682 56.682 0 0 1 -4.359-20.91l16-.3c1.167 20.567 19.183 32.15 19.183 32.15z" fill="#fbab1f"/><path d="m282.854 80h-23.483s-5.47-6.53-7.34-10.94a56.7 56.7 0 0 1 -4.36-20.91l16-.3c1.167 20.567 19.183 32.15 19.183 32.15z" fill="#fbab1f"/><path d="m233.535 200.149-3.07 15.7a138.172 138.172 0 0 0 51.07 0l-3.07-15.7a123.377 123.377 0 0 1 -44.93 0z" fill="#fcb079"/><path d="m232 480v8h-152v-98.73a56.015 56.015 0 0 1 44.27-54.76l67.73-14.51z" fill="#2f486e"/><path d="m432 389.27v98.73h-152v-8l40-160 67.73 14.51a55.976 55.976 0 0 1 44.27 54.76z" fill="#2f486e"/><g fill="#26395a"><path d="m134.13 402.86-12.26 10.28-37.72-45.04a56.067 56.067 0 0 1 8.7-14.52z"/><path d="m427.9 368.22-37.78 44.93-12.24-10.3 41.34-49.18a56.173 56.173 0 0 1 8.68 14.55z"/><path d="m127.469 354.667h54.063v16h-54.063z" transform="matrix(.98 -.197 .197 .98 -68.506 37.604)"/><path d="m348.5 334.455h16v56.089h-16z" transform="matrix(.196 -.981 .981 .196 -68.889 640.965)"/><path d="m128 424h16v64h-16z"/><path d="m130.343 485.657c-25.276-25.277-33.755-58.323-34.1-59.717l15.52-3.892c.075.3 7.844 30.241 29.9 52.3z"/><path d="m368 424h16v64h-16z"/><path d="m381.657 485.657-11.314-11.314c22.054-22.054 29.823-51.994 29.9-52.3l15.52 3.892c-.351 1.399-8.83 34.445-34.106 59.722z"/><path d="m184 472h16v16h-16z"/></g><path d="m192 320-32 64 32 24-16 32 56 40-16-64z" fill="#415e89"/><path d="m320 320 32 64-32 24 16 32-56 40 16-64z" fill="#415e89"/></g></svg>