<svg height="512" viewBox="0 0 512 512" width="512" xmlns="http://www.w3.org/2000/svg"><g id="Flat"><path d="m416 496v-122.523a48 48 0 0 0 -36.358-46.567l-59.642-14.91-24-24v-32h-80v32l-24 24-59.642 14.91a48 48 0 0 0 -36.358 46.567v122.523" fill="#fdc8a2"/><path d="m296 256v37.79q-2.01 1.215-4.08 2.28c-22.961 11.814-53.767 11.028-75.92-2.28v-37.79z" fill="#fdbf92"/><path d="m416 373.48v122.52h-320v-122.52a47.833 47.833 0 0 1 4.29-19.84v-.01a47.992 47.992 0 0 1 32.07-26.72l59.64-14.91 24-24 16 56 24 56 24-56 16-56 24 24 59.64 14.91a47.989 47.989 0 0 1 36.36 46.57z" fill="#dfdfdd"/><path d="m256 280a72.171 72.171 0 0 1 -61.2-33.92l-1.84-2.944a111.579 111.579 0 0 1 -16.96-59.136v-48a80 80 0 0 1 80-80 80 80 0 0 1 80 80v48a111.579 111.579 0 0 1 -16.96 59.136l-1.84 2.944a72.171 72.171 0 0 1 -61.2 33.92z" fill="#fdc8a2"/><path d="m214 144a14 14 0 1 0 14 14 14.015 14.015 0 0 0 -14-14z" fill="#91563a"/><path d="m298 144a14 14 0 1 0 14 14 14.015 14.015 0 0 0 -14-14z" fill="#91563a"/><path d="m233.535 205.933-3.07 15.7a138.115 138.115 0 0 0 51.07 0l-3.07-15.7a123.377 123.377 0 0 1 -44.93 0z" fill="#fcb079"/><path d="m172 184h4v-56h-4a28 28 0 0 0 -28 28 28 28 0 0 0 28 28z" fill="#fcb079"/><path d="m340 128h-4v56h4a28 28 0 0 0 28-28 28 28 0 0 0 -28-28z" fill="#fcb079"/><g fill="#d5d5d3"><path d="m144 424h16v72h-16z"/><path d="m352 424h16v72h-16z"/><path d="m411.57 353.33-36.78 58.91-13.58-8.48 20.86-33.4c-5.28-3.35-15.23-7.89-33.88-12.57-15.43-3.86-29.19-5.85-29.32-5.87l-.36-.06a145.534 145.534 0 0 0 -23.51-2.19v-16a160.19 160.19 0 0 1 26.31 2.44c6.03.86 47.8 7.27 69.22 20.71l11.03-17.66a48.027 48.027 0 0 1 10.01 14.17z"/><path d="m248 400h16v96h-16z"/><path d="m216 480h16v16h-16z"/><path d="m216 400h16v16h-16z"/><path d="m139.58 367.16-9.02 4.5 20.21 32.08-13.54 8.52-36.94-58.62v-.01a48.127 48.127 0 0 1 9.93-14.26l11.77 18.69 10.43-5.22c16.77-8.38 56.33-16.35 58.01-16.68.07-.02.15-.03.22-.05l13.67-2.33 2.69 15.77-13.55 2.32c-2.26.45-39.41 8.05-53.88 15.29z"/></g><path d="m296 72a84.064 84.064 0 0 1 33.121 43.364l6.879 20.636v-48a40 40 0 0 0 -40-40z" fill="#f9a40f"/><path d="m216 72a84.064 84.064 0 0 0 -33.121 43.364l-6.879 20.636v-48a40 40 0 0 1 40-40z" fill="#f9a40f"/><path d="m320 24a57.924 57.924 0 0 1 -16.97 40.97l-7.03 7.03h-80v-24a35.08 35.08 0 0 1 32-23.97c.43-.02.86-.03 1.3-.03z" fill="#ffb431"/><path d="m296 24v.11c-.27 19.75-13.74 38.75-21.31 47.89h-22.24l5.91-5.68c1.22-1.26 21.22-22.37 21.64-42.22v-.1z" fill="#fbab1f"/><path d="m264 24v.11c-.27 19.75-13.74 38.75-21.31 47.89h-22.01l5.66-5.66c.17-.17 21.28-21.91 21.66-42.31.43-.02.86-.03 1.3-.03z" fill="#fbab1f"/><path d="m216 288-24 24v64l40-32z" fill="#eaeae8"/><path d="m296 288-16 56 40 32v-64z" fill="#eaeae8"/></g></svg>