<svg id="Layer_1" height="512" viewBox="0 0 512 512" width="512" xmlns="http://www.w3.org/2000/svg" data-name="Layer 1"><path d="m477.07 125.08c-63.35 3.01-128.61 34.02-150.7 45.57-25.01 13.08-73.21 12.89-73.21 12.89v.01c-15.55-8.34-27.92-7.05-28.5-6.98a50.658 50.658 0 0 0 -17.69-12.66v-.01c-11.1-4.69-25.56-5.99-45.33-2-40.63 8.2-20.22 27.29-46.37 43.31-15.04 9.21-19.27 24.51-20.15 35.84a80.833 80.833 0 0 1 -13.17 38.05c-8.23 12.55-19.1 26.49-29.58 31.86-16.62 8.54-38.16 22.74-36.25 48.04a31.273 31.273 0 0 0 6.17 16.33 32.712 32.712 0 0 0 12.71 10.19c8.02 3.63 17.34 8.74 19.38 13.62 1.16 2.76 5.27 5.98 10.59 7.88 9.39 3.35 22.56 2.6 29.96-12.02 0 0 26.94-9.82 63.91-14.47 44.31-5.58 98.03-34.62 103.11-53.58l.2-.33c11.03 6.79 25.44 12.12 44.27 14.25 23.82 2.7 10.71 42.48 48.65 54.13.2 19.71 10.86 37.51 21.68 50.51 9.19 11.04 26.99 7.32 31.13-6.43l87.34-290.76a18.057 18.057 0 0 0 -18.15-23.24z" fill="#5e5e5e"/><path d="m64.97 407.02c-39.37 9.25-42.68-31.69-42.68-31.69a32.712 32.712 0 0 0 12.71 10.19c8.02 3.63 17.34 8.74 19.38 13.62 1.16 2.76 5.27 5.98 10.59 7.88z" fill="#cea5a5"/><path d="m487.75 188.64a1.639 1.639 0 0 1 2.8 1.56c-7.11 23.23-15.8 42.3-25.68 57.84-52.41 82.54-138.05 65.63-195.83 44.92-16.3-5.84-103.18-40.62-63.3-74.27 14.19-11.98 35.55-16.45 35.55-16.45 116.26 101.71 208.24 26.94 239.75-6.18v-.01c2.69-2.82 4.93-5.33 6.71-7.41z" fill="#99b7c9"/><path d="m288.69 60.06a2.318 2.318 0 0 1 1.57 4.29c-26.46 15.08-88.31 55.32-83.29 99.55-11.1-4.69-25.56-5.99-45.33-2 0 0 12.7-81.61 127.05-101.84z" fill="#99b7c9"/><path d="m175.41 263.39a1.727 1.727 0 0 1 .36 2.64c-16.98 18.27-29.07 8.28-33.62 2.91a4.235 4.235 0 0 1 .13-5.59c4.09-4.52 14.36-11.6 33.13.04z" fill="#2d2d2d"/><path d="m281 185.55v-.01s48.28.19 73.29-12.89c20.166-10.544 76.352-37.3 134.178-44.174a17.8 17.8 0 0 0 -11.418-3.4c-63.35 3.01-128.6 34.02-150.69 45.57-14.113 7.381-35.685 10.536-51.739 11.884a46.354 46.354 0 0 1 6.379 3.02z" fill="#3c3f3f"/><path d="m82.38 401.14c-2.04-4.88-11.36-9.99-19.38-13.62a32.712 32.712 0 0 1 -12.71-10.19 31.273 31.273 0 0 1 -6.17-16.33c-1.91-25.3 19.63-39.5 36.25-48.04 10.48-5.37 21.35-19.31 29.58-31.86a80.833 80.833 0 0 0 13.17-38.05c.88-11.33 5.11-26.63 20.15-35.84 26.15-16.02 5.74-35.11 46.37-43.31 4.29-.866 8.315-1.468 12.124-1.855-10.334-3.095-23.3-3.54-40.124-.145-40.63 8.2-20.22 27.29-46.37 43.31-15.04 9.21-19.27 24.51-20.15 35.84a80.833 80.833 0 0 1 -13.17 38.05c-8.23 12.55-19.1 26.49-29.58 31.86-16.62 8.54-38.16 22.74-36.25 48.04a31.273 31.273 0 0 0 6.17 16.33 32.712 32.712 0 0 0 12.71 10.19c8.02 3.63 17.34 8.74 19.38 13.62 1.16 2.76 5.27 5.98 10.59 7.88 6.275 2.239 14.238 2.639 21.039-1.7a11.288 11.288 0 0 1 -3.629-4.18z" fill="#3c3f3f"/><g fill="#203a59"><path d="m49.755 339.413a6 6 0 1 0 0 12c.224 0 22.513.237 29.959 20.733a6 6 0 0 0 11.279-4.1c-10.285-28.308-39.979-28.633-41.238-28.633z"/><path d="m71.5 365.775c-5.978-2.895-9.9-1.517-12.144.151-5.24 3.9-4.275 11.731-4.028 13.262a5.976 5.976 0 0 0 5.906 5.025 6.113 6.113 0 0 0 .929-.071 6.019 6.019 0 0 0 5.018-6.826c-.019-.126-.034-.261-.046-.4a6 6 0 0 0 4.365-11.141z"/><path d="m178.574 258.291c-23-14.261-36.154-4.031-40.738 1.031a10.269 10.269 0 0 0 -.267 13.5c5.174 6.1 11.8 9.552 18.654 9.709.171 0 .34.006.511.006 7.887 0 15.767-4.177 23.431-12.42a7.724 7.724 0 0 0 -1.591-11.823zm-22.074 12.24c-3.718-.085-6.747-2.341-8.657-4.256 4.7-4.17 11.348-4.324 19.49-.482-3.863 3.189-7.554 4.82-10.833 4.738z"/><path d="m287.061 248.365c-.577.615-14.06 15.267-6.761 33.012a6 6 0 1 0 11.1-4.565c-4.317-10.5 4.025-19.809 4.432-20.253a6 6 0 0 0 -8.768-8.194z"/><path d="m329.757 282.844c-2.235-4.352-1.959-7.277-1.206-9.065a6.1 6.1 0 0 0 -.234-5.4 5.943 5.943 0 0 0 -10.575.445c-2.25 4.968-2.765 11.62 1.435 19.683a6 6 0 0 0 8.288 2.443 6.141 6.141 0 0 0 2.292-8.106z"/><path d="m357.316 274.116a6 6 0 0 0 -9.849-6.855c-2.966 4.21-6.548 14.563 1.121 23.611a6 6 0 0 0 9.154-7.758 7.4 7.4 0 0 1 -.426-8.998z"/><path d="m496.883 128.3a24.073 24.073 0 0 0 -20.1-9.22c-66.082 3.148-133.959 36.2-153.189 46.25-21.034 11-60.764 12.1-68.918 12.2-12.275-6.253-22.715-7.111-27.691-7.082a56.721 56.721 0 0 0 -14.285-10.441c-.5-16.282 8.993-33.921 28.271-52.489 18.078-17.413 40.5-31.254 52.258-37.953a8.315 8.315 0 0 0 -5.58-15.41c-60.977 10.785-93.549 39-110.136 60.774-13.715 18-19.063 34.529-20.924 41.951-23.247 5.647-27.149 16.065-30.6 25.315-2.442 6.549-4.552 12.2-13.85 17.9-17.23 10.553-22.015 27.845-23 40.492a75.079 75.079 0 0 1 -12.2 35.227c-10.225 15.582-19.667 25.892-27.3 29.812-10.373 5.325-41.94 21.53-39.5 53.823a37.135 37.135 0 0 0 6.385 18.117c.758 5.306 4.018 21.216 16.556 30.35a34.673 34.673 0 0 0 20.94 6.48 52.83 52.83 0 0 0 10.648-1.177 33.359 33.359 0 0 0 9.55 1.446 29.827 29.827 0 0 0 3.514-.205c5.93-.7 14.98-3.7 21.356-14.545a330.453 330.453 0 0 1 60.5-13.436c21.512-2.709 46.412-10.879 68.312-22.415 11.208-5.9 29.292-16.8 36.9-29.008q17.546 9.1 40.949 11.777c6.468.732 8.653 5.092 12.822 16.446 4.4 11.966 10.427 28.1 30.715 36.036 1.319 16.368 9.113 33.508 22.86 50.035a23.542 23.542 0 0 0 18.243 8.64 24.817 24.817 0 0 0 4.958-.5 24.076 24.076 0 0 0 18.278-16.69l56.815-190.416q15.505-24.684 25.85-58.426a7.586 7.586 0 0 0 -3.629-8.939 7.819 7.819 0 0 0 -1.319-.572l9.627-32.4a24.1 24.1 0 0 0 -4.086-21.747zm-309.416-6.641c18.323-23.771 45.989-41.118 80.77-50.827a252.92 252.92 0 0 0 -35.6 28.04c-20.079 19.34-30.756 38.369-31.863 56.7-8.608-2.157-18.777-2.71-30.972-1.123a111.8 111.8 0 0 1 17.665-32.787zm-147.267 276.596a24.284 24.284 0 0 1 -6.068-6.531c13.083 6.122 14.656 9.574 14.718 9.723.07.168.168.335.248.5a21.39 21.39 0 0 1 -8.898-3.692zm361.934 39.1a11.935 11.935 0 0 1 -9.182 8.373 11.786 11.786 0 0 1 -11.58-4.051c-17.664-21.236-20.762-38.658-20.251-49.534 1.367-29.052-9.688-45.327-10.16-46.006a6 6 0 0 0 -9.856 6.845c.085.123 7.869 11.614 8.121 33.112-11.735-6.356-15.664-16.8-19.39-26.95-3.89-10.592-8.3-22.6-22.737-24.234-27.288-3.092-47.838-13.411-61.079-30.673a6 6 0 0 0 -9.521 7.305 82.49 82.49 0 0 0 18.067 17.294c-9.531 15.113-54.554 40.458-96.473 45.738a350.583 350.583 0 0 0 -53.6 11.079c.325-1.437.62-2.938.874-4.519a6 6 0 1 0 -11.847-1.908c-1.562 9.7-5.725 21.607-16.687 23.25-8.342 1.255-16.016-3.829-16.913-5.651-1.464-3.506-5.383-9.058-22.451-16.773a25.9 25.9 0 0 1 -15.369-21.507c-1.272-16.845 8.909-29.869 33.013-42.245 9.615-4.936 20.334-16.343 31.857-33.906a87.1 87.1 0 0 0 14.13-40.879c.765-9.862 4.387-23.278 17.3-31.188 12.827-7.856 16.153-16.773 18.825-23.937 3.148-8.44 5.423-14.536 25.6-18.612 29.5-5.958 45.761.272 57.286 12.683.011.013.024.025.036.037a89.675 89.675 0 0 1 12.329 17.909c-8 2.476-20.754 7.386-30.6 15.7-9.818 8.284-13.889 17.516-12.1 27.441 5.39 29.9 65.288 52.779 77.24 57.063 61.118 21.906 109.744 23.065 148.657 3.548a126.714 126.714 0 0 0 34.42-25.533zm8.16-145.924c-35.824 17.966-81.367 16.619-139.229-4.119-26.147-9.371-66.227-29.859-69.479-47.9-.986-5.47 1.64-10.749 8.028-16.14 9.945-8.391 24.139-12.859 30.1-14.461 42.8 36.679 86.68 53.671 130.481 50.534 49.023-3.52 86.584-31.3 108.151-52.053-15.798 41.124-38.638 69.383-68.057 84.138zm79.182-144.819-13.776 46.361c-18.892 19.651-56.335 50.813-106.363 54.4-41.009 2.945-82.461-13.508-123.234-48.9a164.863 164.863 0 0 0 -8.406-14.657c10.2 2.572 25.182 9.765 39.094 29.42a6 6 0 1 0 9.794-6.933 101.662 101.662 0 0 0 -15.466-17.463c16.832-1.18 41.731-4.351 58.037-12.876 18.679-9.767 84.571-41.866 148.2-44.9a12.066 12.066 0 0 1 12.119 15.542z"/></g></svg>