<svg id="Layer_1" height="512" viewBox="0 0 512 512" width="512" xmlns="http://www.w3.org/2000/svg" data-name="Layer 1"><path d="m54.77 413.71c28 5.42 19.42-.45 42.56 6.61-28.01 27.03-44.62-7.1-44.62-7.1.66.19 1.35.35 2.06.49z" fill="#4a5160"/><path d="m493 164.47a46.6 46.6 0 0 1 -20.69-15.56h-.01c3.44-32.31-.1-62.35-13.65-79.29-37.56-46.95-86.53-53.69-132.81-41.21-50.83 13.71-74.26 45.15-81.52 56.99a33.779 33.779 0 0 1 -45.12 11.98c-42.4-23.13-59.68-4.76-66.69 12.51a67.813 67.813 0 0 0 -3.43 11.42 26.521 26.521 0 0 1 -10.07 15.83l-3.14 2.36-10.81 8.1-15.68 30.53s-8.2 24.96-.71 46.48c0 0-9.52 17.96-15.84 45.28s-1.96 42.15-32.97 79.24c-9.19 11-12.9 56.76 12.85 64.09.66.19 1.35.35 2.06.49 28 5.42 19.42-.45 42.56 6.61 12.25 3.73 27.35-1.05 28.93-9.76h.01s32.8-28.52 87.92-5.25c0 0 22.42 10.56 46.62-11.33a161.086 161.086 0 0 0 51.13 36.75c47.2 21.71 73.06 41.19 87.21 56.24a6.7 6.7 0 0 0 11.4-2.99l85.23-312.36c.67-2.73-.16-6.15-2.78-7.15z" fill="#ea9357"/><path d="m143.87 216.77a4.277 4.277 0 0 1 .01 6.48c-12.87 11.32-27.2 7.13-34.31 3.84a4.253 4.253 0 0 1 -1.46-6.61c5.66-6.69 18.81-17.8 35.76-3.71z" fill="#9b5729"/><path d="m132.51 109.89a67.813 67.813 0 0 0 -3.43 11.42 26.521 26.521 0 0 1 -10.07 15.83l-3.14 2.36s-49.18-22.45-53.71-76.48c0 0 33.44 44.16 70.35 46.87z" fill="#7c4e2e"/><path d="m206.23 197.09c6.04 30.85-33.9 55.31-33.9 55.31s-10.2-5.61-3.14-29.15a74.715 74.715 0 0 0 0-43.06 67.8 67.8 0 0 0 17.98-12.03l.01-.01c.41-.22 12.15-6.31 19.05 28.94z" fill="#9b5729"/><path d="m59.86 369.13c31.01-37.09 26.65-51.93 32.97-79.24s15.84-45.28 15.84-45.28c-7.49-21.52.71-46.48.71-46.48l15.68-30.53 10.81-8.1 3.14-2.36a26.521 26.521 0 0 0 10.07-15.83 67.813 67.813 0 0 1 3.43-11.42c7.01-17.27 24.29-35.64 66.69-12.51a33.779 33.779 0 0 0 45.12-11.98c7.26-11.84 30.69-43.28 81.52-56.99 37.993-10.245 77.8-7.531 111.614 19.742-37.4-45.616-85.823-52.09-131.614-39.742-50.83 13.71-74.26 45.15-81.52 56.99a33.779 33.779 0 0 1 -45.12 11.98c-42.4-23.13-59.68-4.76-66.69 12.51a67.813 67.813 0 0 0 -3.43 11.42 26.521 26.521 0 0 1 -10.07 15.83l-3.14 2.36-10.81 8.1-15.68 30.53s-8.2 24.96-.71 46.48c0 0-9.52 17.96-15.84 45.28s-1.96 42.15-32.97 79.24c-9.19 11-12.9 56.76 12.85 64.09.66.19 1.35.35 2.06.49.171.033.323.06.491.093-4.91-16.334-1.287-37.628 4.599-44.673z" fill="#bf7847"/><path d="m160.51 143.83s-2.55-37.17 32.53-20.3c14.77 7.11 12.49 19.31 5.23 31.08a65.656 65.656 0 0 1 -11.09 13.54l-.01.01a67.8 67.8 0 0 1 -17.98 12.03 69.654 69.654 0 0 1 -26.1 6.23c-20.99.86-38.75-2.47-53.71-8.29-56.89-22.12-73.38-80.16-73.38-80.16 35.85 30.27 65.53 44.29 89.06 49.63 25.93 5.9 44.4 1.26 55.45-3.77z" fill="#7c4e2e"/><g fill="#203a59"><path d="m64.308 371.586a6 6 0 0 0 -4.711 7.058 1.843 1.843 0 0 1 -.188 1.361 6 6 0 0 0 -8.957 7.587 9.488 9.488 0 0 0 8.51 5.008 11.271 11.271 0 0 0 3.81-.68 13.573 13.573 0 0 0 8.592-15.62 6 6 0 0 0 -7.056-4.714z"/><path d="m78.312 350.037a6 6 0 0 0 -6.582 10.033c.925.607 22.534 15.12 11.291 37.083a6 6 0 1 0 10.679 5.468c12.881-25.159-4.432-45.398-15.388-52.584z"/><path d="m107.044 232.533a41.872 41.872 0 0 0 17.605 4.106 34.624 34.624 0 0 0 23.2-8.881 10.336 10.336 0 0 0 3.515-7.911 10.161 10.161 0 0 0 -3.656-7.685c-14.848-12.353-31.363-10.692-44.179 4.44a10.261 10.261 0 0 0 3.517 15.931zm31.275-12.479c-8.347 6.286-17.279 5.153-24.032 2.528 7.523-7.801 15.594-8.65 24.032-2.528z"/><path d="m150.371 265.612a13.467 13.467 0 0 1 -10.164 4.291c-9.151-.272-19.187-9.247-22.282-12.682a6 6 0 0 0 -8.938 8.008c.59.659 14.627 16.155 30.813 16.667.287.009.572.014.857.014a25.2 25.2 0 0 0 18.136-7.75 6 6 0 0 0 -8.422-8.548z"/><path d="m114.321 309.2c-13.975 4.631-26.516 16.517-27.043 17.021a6 6 0 1 0 8.291 8.674c.11-.1 11.087-10.514 22.528-14.305a6 6 0 0 0 -3.776-11.39z"/><path d="m495.132 158.864a41.957 41.957 0 0 1 -16.582-11.711c3.5-35.559-1.769-64.475-15.21-81.276-43.931-54.91-99.87-53.834-139.062-43.263-52.472 14.154-76.973 46.431-85.072 59.653a27.772 27.772 0 0 1 -6.267 7.137l-.027.023a27.811 27.811 0 0 1 -30.844 2.685c-21.873-11.93-40.11-14.677-54.209-8.159-9.194 4.25-15.136 11.822-18.965 19.463-32.194-5.271-61.649-43.622-61.954-44.022a6 6 0 0 0 -10.761 4.123c3.635 43.3 33.637 67.3 48.7 76.721l-1.121.84c-22.188-5.552-50.118-19.178-83.887-47.69a6 6 0 0 0 -9.642 6.224c.283 1 7.158 24.666 26.945 48.019a125.642 125.642 0 0 0 45.054 33.949h-.006c-2.039 8.563-4.948 26.033-.026 42.567a219.243 219.243 0 0 0 -15.211 44.387c-1.4 6.038-2.272 11.382-3.119 16.551-2.957 18.049-5.292 32.306-28.606 60.2-7.69 9.2-11.547 34.182-4.995 52.6 3.61 10.152 9.9 17.06 18.331 20.275 2.929 4.9 10.815 15.966 23.339 18.182a25.761 25.761 0 0 0 4.491.4c7.5 0 15.074-3.308 22.6-9.85a37.2 37.2 0 0 0 7.115.7c9.783 0 19.2-3.758 23.573-10.1a15.73 15.73 0 0 0 1.788-3.4c6.291-4.549 35.157-22.3 80.283-3.282 2.213.993 24.253 10.091 48.648-8.71a167.377 167.377 0 0 0 49 34.085c39.438 18.143 68.153 36.614 85.345 54.9a12.7 12.7 0 0 0 21.574-5.59l85.216-312.295c.015-.054.029-.107.042-.161 1.49-6.107-1.299-12.202-6.478-14.175zm-422.41-75.223c2.095 2.044 4.375 4.168 6.812 6.306 15.488 13.585 30.58 21.9 44.979 24.85-.546 1.912-.972 3.7-1.3 5.29a20.548 20.548 0 0 1 -7.794 12.254l-.119.089c-8.469-4.738-32.246-20.167-42.578-48.789zm-26.1 56.58a134.666 134.666 0 0 1 -15.59-22.715c37.379 27.507 71.95 40.515 103.032 38.7 21.964-1.282 35.526-9.9 41.61-14.805a4.12 4.12 0 0 0 .36-6.068l-2.51-2.6a4.116 4.116 0 0 0 -5.566-.317l-.014.011a11.472 11.472 0 0 1 4.017-5.892c4.624-3.133 12.6-.421 18.472 2.406 4.025 1.935 6.372 4.211 7.175 6.955 1.087 3.708-.45 9.092-4.444 15.57a61.77 61.77 0 0 1 -50.319 28.96c-39.671 1.636-72.056-11.894-96.22-40.205zm129.678 43.129a73.157 73.157 0 0 0 13.689-9.63c.049.017.085.03.063.02 1.008.459 6.242 3.8 10.293 24.5s-17.235 38.986-26.745 46c-1.059-3.092-1.741-8.992 1.341-19.268a82.468 82.468 0 0 0 1.359-41.622zm-102.23 241.184a16.211 16.211 0 0 1 -6.339-2.69 88.926 88.926 0 0 0 9.065.538 38.586 38.586 0 0 1 6.8.565 15.819 15.819 0 0 1 -9.526 1.587zm415.892-254.384-85.205 312.25c-.015.054-.028.107-.042.161a.629.629 0 0 1 -.492.508.661.661 0 0 1 -.7-.207c-18.256-19.416-48.224-38.789-89.073-57.581-43.113-19.833-72.677-54.954-87.872-104.386a232.876 232.876 0 0 1 -10.03-63.8 6.01 6.01 0 0 0 -12.02.081 242.323 242.323 0 0 0 10.459 66.853c8.189 26.814 20.775 50.064 37.263 69.207-18.819 13.879-34.814 6.956-35.5 6.647q-.11-.051-.222-.1c-42.823-18.076-73.027-6.691-86.445.978a23.732 23.732 0 0 0 -1.626-2.514 6.224 6.224 0 0 0 -8.358-1.729 6 6 0 0 0 -1.432 8.677c2.619 3.383 1.605 4.854 1.171 5.483-2.695 3.906-12.347 6.463-20.755 3.9-12.628-3.848-16.435-4.093-22.074-4.193-3.86-.068-8.661-.153-21.1-2.561-6.677-1.292-11.5-5.989-14.336-13.958-2.369-6.66-3.179-15.466-2.224-24.159.925-8.427 3.239-14.473 5.121-16.725 25.419-30.414 28.117-46.886 31.241-65.959.815-4.979 1.659-10.126 2.969-15.783a220.094 220.094 0 0 1 10.31-32.718 45.984 45.984 0 0 0 3.917 4.919 6 6 0 0 0 8.5.356 6.132 6.132 0 0 0 .256-8.563c-13.431-14.81-10.453-38.369-8.1-49.3a137.131 137.131 0 0 0 43.084 6.623c2.192 0 4.428-.045 6.693-.138a75.911 75.911 0 0 0 21.723-4.107 70.956 70.956 0 0 1 -1.62 33.219c-8.215 27.4 4.516 35.319 6 36.132a6 6 0 0 0 6.024-.141c1.775-1.088 43.416-27.034 36.657-61.581-3.12-15.946-7.649-26.15-13.77-31.035a71.717 71.717 0 0 0 5.031-7.14c5.91-9.587 7.844-18.079 5.746-25.241-1.789-6.107-6.327-10.95-13.488-14.4-12.672-6.1-22.9-6.609-30.406-1.528-8.6 5.828-10.42 16.945-10.724 23.218-8.043 3.046-19.533 5.473-34.492 4.08l2.595-1.953a32.543 32.543 0 0 0 12.344-19.406c1.672-8.018 6.225-22.277 17.938-27.691 10.46-4.836 25.071-2.21 43.427 7.8a39.814 39.814 0 0 0 35.5 1.392c1.972 7.453 7.087 17.5 20.065 25.731a6 6 0 0 0 8.469-2.178 6.219 6.219 0 0 0 -2.316-8.131c-12.818-8.244-15.037-18.312-15.367-22.635a39.774 39.774 0 0 0 6.767-8.291c7.348-12 29.655-41.3 77.964-54.335 23.924-6.454 46.325-7.015 66.579-1.671 22.97 6.06 43.153 19.8 59.987 40.844 30.872 38.588 4.856 154.065-34.465 192.206a6 6 0 1 0 8.355 8.613c20.761-20.138 38.837-59.606 47.173-103q.9-4.7 1.62-9.276a53.175 53.175 0 0 0 13.344 7.828 1.969 1.969 0 0 1 -.038.408z"/></g></svg>