<svg id="Layer_1" enable-background="new 0 0 512 512" height="512" viewBox="0 0 512 512" width="512" xmlns="http://www.w3.org/2000/svg"><path d="m463.1 365.6c-15.7-22.3-30-62.6-30-62.6h-.1c3.1-98-55.4-130-55.4-130h-.1c-.8-30.4-10.8-59.7-28.7-84.3-36.7-50.3-83.1-69.2-83.1-69.2-3.9-2.7-7.4-3.9-10.5-3.3-19.7 4.3-18.4 71.1-16.4 106.3.7 12.7 1.6 21.2 1.6 21.2-21.3 0-42.4 4.7-61.6 13.8-7 3.2-13.7 6.9-20.1 11.1-15.2 9.9-29 21.8-41.1 35.3-11.9 13.1-18.5 14.5-21.6 47.2-3.5 37.3-19.5 63.7-39.7 82.1-6.4 5.8-9.3 11.5-9.9 16.8-.1 1-.2 2-.1 3l7.8 16.8 2.2 19.6c1.5 13 9.7 24.1 21.7 29.3 6.7 2.9 13.6 5.1 20.7 6.6 0 0 14.1 46.7 80.4 32.6 16.5-3.5 30.7-5.9 42.7-7.5 0 0 22.8 13.6 33.3 37 3.3 7.3 11.9 10.6 19.3 7.2.5-.2.9-.5 1.4-.7l182.8-107.4c6.9-4.1 9.3-13 5.2-19.9-.3-.3-.5-.7-.7-1z" fill="#616669"/><path d="m240.4 143.7c-21.3 0-42.4 4.7-61.6 13.8 9.4-20.1 15-70.5-45.3-123.2 0 0 61.7-5.6 105.3 88.2.8 12.6 1.6 21.2 1.6 21.2z" fill="#616669"/><circle cx="168.5" cy="275.2" fill="#3c4042" r="20.4"/><path d="m133.5 34.3c60.3 52.7 54.6 103.2 45.3 123.2-7 3.2-13.7 6.9-20.1 11.1-.1 0-.1-61.1-25.2-134.3z" fill="#efada3"/><path d="m71.5 349.4c2.2.2 4.2 1.2 5.8 2.8 19.7-18.4 35.2-44.5 38.7-81.2 3.1-32.7 9.7-34 21.6-47.1 12.1-13.5 25.9-25.4 41.1-35.3 6.5-4.2 13.2-7.9 20.1-11.1 19.3-9.1 40.3-13.8 61.7-13.8 0 0-.8-8.6-1.6-21.2-2-35.1-3.3-101.9 16.4-106.3 3.1-.7 6.6.5 10.5 3.3 0 0 23.4 9.5 50.1 33.1-33.8-38.3-70.1-53.1-70.1-53.1-3.9-2.7-7.4-3.9-10.5-3.3-19.7 4.3-18.4 71.1-16.4 106.3.7 12.7 1.6 21.2 1.6 21.2-21.3 0-42.4 4.7-61.6 13.8-7 3.2-13.7 6.9-20.1 11.1-15.2 9.9-29 21.8-41.1 35.3-12 13.1-18.6 14.5-21.7 47.2-3.5 37.3-19.5 63.7-39.7 82.1-6.4 5.8-9.3 11.5-9.9 16.8-.1 1-.2 2-.1 3 0 0 12.1-5 25.2-3.6z" fill="#838a8e"/><path d="m71.5 349.4c5.2.6 8.9 5.2 8.4 10.4-.1 1.1-.4 2.2-.9 3.2l-9.5 19.2c-5.8-3.3-11-7.5-15.4-12.4-4.1-4.7-7.5-10.4-7.8-16.8 0 0 12.1-5 25.2-3.6z" fill="#3c4042"/><g fill="#203a59"><path d="m50.3 390.1c1.7 15.1 11.4 28.1 25.3 34.1 6 2.6 12.3 4.7 18.6 6.2 3.6 8.1 9.1 15.3 15.9 21 13.6 11.4 30.1 15 45.6 15 8.3-.1 16.5-1 24.6-2.7 15.3-3.3 28.7-5.5 40.1-7.1 5.2 3.6 21.2 15.5 29.2 33.2 4.7 10.3 16.9 14.9 27.2 10.2.7-.3 1.3-.6 1.9-1l182.8-107.4c9.8-5.8 13.1-18.4 7.3-28.2-.3-.5-.6-1-.9-1.4-14-19.8-27.1-55.2-29-60.5.3-9 0-17.9-.9-26.8-2.2-23.4-8.3-44.5-18.1-62.8-13.4-25.2-30-38-36.7-42.5-1.5-30.4-11.8-59.8-29.8-84.4-35.1-48.1-78.2-68-84.8-70.9-5.4-3.7-10.2-4.9-14.8-3.9-14.6 3.2-21.6 26-22.2 71.8-.1 4.8 0 9.7.1 14.4-20.3-33.8-42.7-50.4-59.2-58.6-22.1-10.9-38.8-9.6-39.5-9.5-3.3.3-5.7 3.2-5.4 6.5 0 .5.1 1 .3 1.4 21.2 61.9 24.3 115.7 24.7 129.2-14.5 9.8-27.8 21.4-39.5 34.5-1.8 2-3.4 3.6-5 5.3-10 10.3-15.4 17-18.1 45.3-3 31.8-15.7 58.1-37.8 78.2-7 6.4-11 13.3-11.8 20.5-.9 7.7 1.8 15.6 7.9 23zm117.6-341.1c32.1 16.2 53 49.5 65 75 .3 5.6.7 10.4 1 13.9-15.5.7-30.8 3.7-45.3 9.1 2.2-9.7 3.3-23.3-.5-40.1-5.1-22.4-17.6-44-37.3-64.4 5.9 1.5 11.7 3.7 17.1 6.5zm-21.5 6.3c43 47.6 31.8 87.5 27.8 97.7-3.4 1.6-6.7 3.4-9.9 5.2-2.2-34.9-8.2-69.4-17.9-102.9zm-86.1 282.3c24.3-22.2 38.3-51.1 41.6-86 2.4-25.5 6.5-29.7 14.7-38.1 1.6-1.6 3.4-3.5 5.3-5.6 23.9-26.6 63.9-58.2 118.3-58.2h.1c3.3 0 6-2.7 6-6 0-.2 0-.4 0-.6 0-.3-3-30.5-2.6-61 .5-42.4 7.2-58.9 12.7-60.1.6-.1 15.3-2.3 59 81.3 15 28.6 16.7 62.2 4.8 92.1-1.2 3.1.3 6.6 3.4 7.8s6.6-.3 7.8-3.4c13.2-33.2 11.3-70.5-5.3-102.1-11.7-22.4-22.5-40.8-32-54.8 19.1 13.7 35.9 30.3 49.8 49.2 28.1 38.7 35.3 88.8 19.2 133.8l-.3.8c-1.1 3.1.5 6.6 3.6 7.7s6.6-.5 7.7-3.6l.3-.8c5.2-14.6 8.2-30 8.9-45.5 10.7 9.3 19.5 20.5 26.1 33 25.8 48.5 18.4 108.7 7.5 150.7-.8 3.2 1.1 6.5 4.3 7.3s6.5-1.1 7.3-4.3c3.6-14 6.4-28.2 8.2-42.5 5.6 13 13.2 28.8 21.3 40.3 2.7 3.9 1.8 9.2-2.1 11.9-.2.1-.4.3-.6.4l-182.6 107.5c-2.1 1.3-4.6 1.5-7 .8-2.3-.7-4.2-2.4-5.2-4.6-6-13.3-15.5-23.5-23.2-30.3 24.7-2.3 36.3-.8 36.5-.8 3.3.5 6.3-1.8 6.8-5.1s-1.8-6.3-5.1-6.8c-1.2-.2-31.2-4.2-97.8 10-41.4 8.8-60.4-7.4-68.3-18.8 5.1.6 10.3.9 15.5.9 15.4-.1 30.6-2.6 45.3-7.3 3.2-1 5-4.3 4-7.5s-4.3-5-7.5-4h-.1c-26.6 8.4-48.9 7.9-66.1 4.2-.4-.1-.7-.2-1.1-.2-6.5-1.5-12.9-3.5-19.1-6.2-10-4.3-16.9-13.6-18.1-24.4l-.5-4.3c2.8 1.9 4.7 3 4.9 3.1 2.9 1.6 6.6.5 8.1-2.4 0-.1.1-.2.1-.2l9.5-19.2c3.8-7.6.6-16.9-7-20.7-1.6-.8-3.4-1.3-5.2-1.5-5.9-.5-11.8-.2-17.6 1 1.6-2.6 3.6-4.9 5.8-6.9zm10.6 17.8c1.1.1 2.1.8 2.6 1.7.5 1 .6 2.2.1 3.2l-6.5 13.2c-3.1-2.2-5.9-4.7-8.4-7.5-.1-.1-.2-.2-.3-.3-2.3-2.5-4.1-5.4-5.3-8.6 5.8-1.6 11.8-2.2 17.8-1.7z"/><path d="m98.7 392c3.3 0 6-2.7 6-6s-2.7-6-6-6-6 2.7-6 6c0 1.6.6 3.1 1.8 4.2 1.1 1.2 2.6 1.8 4.2 1.8z"/><path d="m81.5 392.9c-3.3 0-6 2.7-6 6s2.7 6 6 6 6-2.7 6-6c0-1.6-.6-3.1-1.8-4.2-1.1-1.1-2.6-1.8-4.2-1.8z"/><path d="m98.9 402.5c-2.4 2.3-2.4 6.1 0 8.5 2.3 2.4 6.1 2.4 8.5 0s2.4-6.1 0-8.5c-1.1-1.1-2.7-1.8-4.3-1.8-1.5.1-3 .7-4.2 1.8z"/><path d="m168.5 301.7c14.6 0 26.4-11.8 26.4-26.4s-11.8-26.4-26.4-26.4-26.4 11.8-26.4 26.4c-.1 14.5 11.8 26.3 26.4 26.4zm0-40.9c8 0 14.4 6.5 14.4 14.4 0 8-6.5 14.4-14.4 14.4-8 0-14.4-6.5-14.4-14.4-.1-7.9 6.4-14.4 14.4-14.4z"/></g></svg>