<svg id="Layer_1" height="512" viewBox="0 0 512 512" width="512" xmlns="http://www.w3.org/2000/svg" data-name="Layer 1"><path d="m54.03 302.05c-20.85-3.24-22.54-26.32-22.54-26.32 15.28-6.21 19.01-20.21 19.84-28.47a3.2 3.2 0 0 0 -4.69-3.12c-11.98 5.97-29.61 2.36-30.6 2.15a16.773 16.773 0 0 1 2.51-7.87c9.29-15.01 51.67-39.4 60.03-75.04a41.53 41.53 0 0 1 11.51-20.56c21.66-20.86 110.14-61.8 199.43-38.39v.01a87.671 87.671 0 0 1 15.69-7.47c16.8-5.8 26.88 2.01 31.1 15.89 1.04.57 71.22 39.48 146.85 35.39a12.142 12.142 0 0 1 11.94 16.67l-99 244.47a12.148 12.148 0 0 1 -13.04 7.45c-70.58-10.44-73.65-20.66-128.4-61.92-21.28-16.04-54.9-22.53-78.61-25.16a153.158 153.158 0 0 0 -60.8 5.54c-9.51 2.85-18.83 5.46-29.43 5.63-30.73.5-31.79-38.88-31.79-38.88z" fill="#f4dd7d"/><path d="m129.31 188.27a11.879 11.879 0 1 1 -9.22-4.39 11.784 11.784 0 0 1 9.22 4.39z" fill="#d38a59"/><path d="m46.64 244.14a3.242 3.242 0 0 1 4.531 1.749c15.042-13.705 32.38-31.068 37.409-52.509a41.939 41.939 0 0 1 11.75-20.56c21.66-20.86 109.67-61.8 199.67-38.39v.01c4-2.89 9.9-5.55 15.45-7.47 16.8-5.8 26.76 2.01 30.98 15.89 1.024.561 69 38.279 143.267 35.55l5.433-13.49a12.15 12.15 0 0 0 -11.955-16.67c-75.63 4.09-145.817-34.82-146.857-35.39-4.221-13.88-14.064-21.69-30.864-15.89-5.554 1.92-11.454 4.58-15.454 7.47v-.01c-90-23.41-178.01 17.53-199.67 38.39a41.733 41.733 0 0 0 -11.63 20.56c-8.36 35.64-50.8 60.03-60.09 75.04a16.821 16.821 0 0 0 -2.54 7.87c.99.21 18.59 3.82 30.57-2.15z" fill="#c4b262"/><path d="m46.64 244.14a3.2 3.2 0 0 1 4.69 3.12c-.83 8.26-4.56 22.26-19.84 28.47 0 0-16.39-14.99-15.45-29.44.99.21 18.62 3.82 30.6-2.15z" fill="#686249"/><g fill="#203a59"><path d="m48.367 306.879c1.816 16.067 11.072 40.057 36.873 40.056h.678c11.184-.18 20.681-2.77 31.055-5.881a146.185 146.185 0 0 1 58.411-5.322c23.448 2.6 55.609 8.871 75.665 23.986 8.145 6.139 15.192 11.627 21.409 16.469 36 28.037 48.131 37.482 109.727 46.59a18.459 18.459 0 0 0 2.692.2 18.091 18.091 0 0 0 16.789-11.333l98.994-244.47a18.139 18.139 0 0 0 -17.822-24.911c-66.508 3.592-129.672-27.363-141.605-33.574-.377-1.028-.781-2.03-1.221-3-6.787-14.874-20.189-20.12-36.764-14.391a89.33 89.33 0 0 0 -14.627 6.728c-49.363-12.324-95.533-5.113-125.768 3.217-37 10.194-65.293 26.057-76.924 37.258a47.541 47.541 0 0 0 -13.19 23.512c-5.191 22.139-24.93 39.873-40.791 54.122-8.383 7.533-15.006 13.483-18.5 19.128-10.821 17.48 6.637 37.477 12.334 43.277 1.396 9.179 7.426 23.633 22.585 28.339zm-8.4-81.819c16.206-14.561 38.4-34.5 44.454-60.309a35.562 35.562 0 0 1 9.83-17.608c10.2-9.819 37.011-24.751 71.787-34.333 26.455-7.289 65.651-13.7 108.107-5.685-5.687 3.785-11.056 7.351-15.185 8.821-9.625 3.428-16.044 3.211-19.547 2.542a6.035 6.035 0 1 0 -2.236 11.861c5.824 1 14.272 1.01 25.808-3.1 5.547-1.975 11.278-5.789 17.912-10.2 7.812-5.2 16.665-11.09 26.267-14.408 10.618-3.667 17.789-1.04 21.929 8.03 9.381 20.559-.409 68.264-26.617 88.275-11.145-18.953-29.137-33.924-30.261-34.848a6 6 0 0 0 -7.626 9.265 153.639 153.639 0 0 1 18.435 18.758c11.262 13.707 16.836 26.115 16.12 35.883-.95 12.94-5.557 22.161-10.013 31.079-4.666 9.338-9.073 18.158-8.314 29.472a6 6 0 0 0 5.981 5.6c.135 0 .271 0 .408-.014a6 6 0 0 0 5.584-6.388c-.541-8.062 2.82-14.788 7.075-23.305 4.745-9.5 10.124-20.259 11.247-35.565a43.988 43.988 0 0 0 -3.283-19.016c25.269-17.92 39.082-57.187 36.559-86.179 23.061 10.97 78.985 33.811 139.1 30.557a6.086 6.086 0 0 1 5.364 2.572 6.012 6.012 0 0 1 .688 5.853l-98.997 244.464a6.137 6.137 0 0 1 -6.6 3.767c-58.47-8.646-69.051-16.885-104.108-44.187-6.253-4.869-13.339-10.388-21.56-16.584-22.229-16.753-56.625-23.565-81.566-26.33a158.08 158.08 0 0 0 -63.181 5.755c-9.5 2.85-18.154 5.221-27.8 5.377h-.442c-17.106 0-22.635-16.169-24.415-25.9a201.248 201.248 0 0 0 23.749 1.45c25.1 0 39.668-5.085 40.486-5.378a6 6 0 1 0 -4.051-11.295 57.7 57.7 0 0 1 -5.757 1.555c2.253-9.159 2.9-23.471-5.148-42.178a44.992 44.992 0 0 1 2.471-41.263 17.824 17.824 0 0 0 24.442-21.761c3.888-2.341 9.152-4.593 12.929-3.617.9.232 3.645.938 5.822 6.522 3.609 9.251-12.446 24.534-20.783 30.483a6 6 0 1 0 6.955 9.779c3.4-2.417 32.973-24.2 25.008-44.622-3.645-9.349-9.631-12.656-14.01-13.783-8.882-2.289-18.133 2.347-23.364 5.733a17.822 17.822 0 0 0 -25.717 22.6c-5.349 8.118-15.863 28.907-4.777 54.677 8.981 20.875 5.229 34.319 2.881 39.613a179.185 179.185 0 0 1 -47.053-1.426c-6.488-1.007-11.356-4.632-14.468-10.775a30.315 30.315 0 0 1 -2.288-6.185c14.58-8.151 18.252-22.807 19.109-31.29a9.146 9.146 0 0 0 -3.9-8.445 9.312 9.312 0 0 0 -9.446-.654c-5.829 2.907-14.071 3.064-20.143 2.561 2.682-4.166 8.928-9.784 16.151-16.273zm74.244-29.33a5.875 5.875 0 1 1 5.875 5.848 5.868 5.868 0 0 1 -5.873-5.848zm-69.619 55.67c-1.415 6.16-4.689 12.811-11.829 17.025-3.011-3.323-7.65-9.108-9.712-15.129 5.921.488 14.098.476 21.541-1.896z"/><path d="m55.3 267.85a5.992 5.992 0 1 0 1.76-4.25 6.047 6.047 0 0 0 -1.76 4.25z"/><path d="m84.44 273.84a5.992 5.992 0 1 0 -4.24-1.75 6.088 6.088 0 0 0 4.24 1.75z"/><path d="m77.46 294.15a6.009 6.009 0 1 0 -4.24-1.76 6.029 6.029 0 0 0 4.24 1.76z"/></g></svg>