<svg id="Layer_1" height="512" viewBox="0 0 512 512" width="512" xmlns="http://www.w3.org/2000/svg" data-name="Layer 1"><path d="m464.25 437.27c-21.61-7.33-51.97-26.86-68.67-78.62-13.68-42.39-62.49-93.3-42.53-97.24a9.226 9.226 0 0 1 4.6.33c45.79 14.42 65.57-34.1 72.83-52.64-82.3-30.61-112.76 31.7-129.52 20.11l-24.05-18.77c-8.12-.95-17.26-.14-26.48 1.6a233.731 233.731 0 0 0 -31.88 8.83c-5.02 1.72-9.64 3.42-13.61 4.89-6.48 2.4-16.22 11.19-20.6 16.52-27.61 33.62-75.55 46.37-130.64 68.52-.34.19-.67.38-.99.58l.02.03c7.24 2.84 3.8 7.81 10.4 14.34 7.36 7.96-3.98 17.85-9.31 23.41a37.364 37.364 0 0 0 12.52 9.49c21.36 54.93 105.74-20.62 156.44 34.61a33.067 33.067 0 0 1 8.17 16.48c5.28 29.23.66 67.86 11.93 84.02a5.266 5.266 0 0 0 5.47 2.11l215.37-48.49a5.259 5.259 0 0 0 .53-10.11z" fill="#eab47f"/><path d="m186.08 284.42c-.15 10.38 16.11 10.38 15.96 0 .15-10.38-16.11-10.38-15.96 0z" fill="#9b7553"/><path d="m245.28 157.17c13.92 19.86-10.87 33.04 5.15 54.87a233.731 233.731 0 0 0 -31.88 8.83c1.34-33.87-25.19-75.3-63.68-88.86-47.19-12.02-29.4-58.97-14.31-65.57 0 0-6.19 37.64 19.34 49.28 0 0-9.29-59.95 20.88-99.72 1.54-.44-17.32 125.58 20.5 113.11 6.64-19.99-4.64-75.28 28.24-87.69 0 0-16.64 87.3-9.67 105.15s13.59 30.99 13.59 30.99 9.54-2.71 11.84-20.39z" fill="#754522"/><path d="m63.13 325.75a8.617 8.617 0 0 1 2.277 4.37c54.371-21.731 101.609-34.569 128.933-67.84 4.38-5.33 14.12-14.12 20.6-16.52 3.97-1.47 8.59-3.17 13.61-4.89a233.731 233.731 0 0 1 31.88-8.83c9.22-1.74 18.36-2.55 26.48-1.6l24.05 18.77c15.594 10.784 43.059-42.4 113.1-25.19 2.785-5.728 4.886-11 6.422-14.92-82.3-30.61-112.76 31.7-129.52 20.11l-24.05-18.77c-8.12-.95-17.26-.14-26.48 1.6a233.731 233.731 0 0 0 -31.88 8.83c-5.02 1.72-9.64 3.42-13.61 4.89-6.48 2.4-16.22 11.19-20.6 16.52-27.612 33.62-75.552 46.37-130.642 68.52-.34.19-.67.38-.99.58l.02.03c7.24 2.84 3.8 7.81 10.4 14.34z" fill="#c4966c"/><path d="m300.96 229.21c-7.01 6.75-12.95 12.08-17.03 15.45a21.1 21.1 0 0 1 -17.66-22.47l.04-.55c4.14-2.58 7.4-6.76 10.6-11.2h.01c4.68-6.49 9.23-13.54 16.23-16.94 76.15-44.76-9.01-30.8-50.83-95.55 70.17 41.38 117.21 64.31 73.53-65.73 0 0 50.36 13.19 29.86 103.95l8.02 7.16s25.41-18.33 23.18-69.3c46.32 23.99-34.07 114.85-75.95 155.18z" fill="#754522"/><path d="m63.13 325.75c7.36 7.96-3.98 17.85-9.31 23.41-10.38-11.76-14.66-29.41-1.11-37.78l.02.03c7.24 2.84 3.8 7.81 10.4 14.34z" fill="#754522"/><g fill="#203a59"><path d="m48.405 352.047a5.9 5.9 0 0 0 1.16 1.582 5.96 5.96 0 0 0 .761.6 43.857 43.857 0 0 0 11.357 8.825c12.777 28.938 42.323 23.916 70.931 19.038 22.911-3.906 46.407-7.912 66.725 1.265a6.136 6.136 0 0 0 .611.294 58.19 58.19 0 0 1 18.412 13.665 27.028 27.028 0 0 1 6.68 13.492c1.933 10.69 2.5 22.932 3.057 34.771.965 20.653 1.875 40.159 9.865 51.613a11.207 11.207 0 0 0 9.209 4.808 11.423 11.423 0 0 0 2.5-.278l215.363-48.5a11.252 11.252 0 0 0 1.142-21.637c-20.881-7.089-49.089-25.817-64.888-74.781-6.119-18.967-18.566-38.867-29.548-56.425-7.434-11.888-17.5-27.983-17.464-33.106a3.593 3.593 0 0 1 1.567.182c21.729 6.844 41.47 1.438 57.095-15.629 12.678-13.849 19.734-31.878 23.125-40.543a6 6 0 0 0 -3.5-7.811c-55.782-20.752-89.562-.492-110.038 12.5 33.842-35.247 77.737-88.9 74.113-122.924-1.148-10.774-7.018-19.2-16.978-24.353a6 6 0 0 0 -8.753 5.591c1.568 35.855-10.958 54.1-17.253 60.933l-1.339-1.194c7.954-37.663 4.964-67.008-8.9-87.255-11.164-16.3-25.445-20.2-26.048-20.354a6 6 0 0 0 -7.208 7.715c21.38 63.649 18.3 83.145 11.944 88.293-11.153 9.028-50.623-14.245-76.744-29.65a6 6 0 0 0 -8.088 8.424c18.039 27.927 43.19 41.574 61.554 51.539 8.38 4.547 18.81 10.206 18.863 13.322.032 1.8-2.582 7.546-27.39 22.153-7.2 3.583-12.047 10.046-16.279 15.959a96.932 96.932 0 0 0 -20.712 1.292c-4.1-7.415-2.373-13.4-.248-20.734 2.459-8.48 5.519-19.035-2.87-31.009a6 6 0 0 0 -10.864 2.669c-.74 5.7-2.273 9.354-3.784 11.672-2.55-5.488-6.293-13.891-10.11-23.677-4.613-11.827 3.67-68.748 9.974-101.848a6 6 0 0 0 -8.007-6.736c-26.812 10.126-28.255 43.536-29.309 67.931-.331 7.675-.648 15-1.676 20.241a5.136 5.136 0 0 1 -3.525-1.2c-3.271-2.6-8.842-11.575-9.418-42.5-.383-20.5 1.624-42.6 2.7-54.478.259-2.851.468-5.155.586-6.768.208-2.857.405-5.555-2.127-7.646a6.016 6.016 0 0 0 -8.627.994c-22.43 29.568-24.245 68.9-23.317 89.815-9.487-13.346-6.249-34.516-6.206-34.773a6 6 0 0 0 -8.326-6.472c-10.5 4.594-21.167 22.49-19.672 40.827.843 10.326 6.469 28.7 34.64 35.987 16.906 6.016 32.4 18.278 43.644 34.551 9.726 14.073 15.348 29.974 15.79 44.294-3.567 1.267-6.838 2.475-9.7 3.533-7.93 2.932-18.5 12.675-23.156 18.338-21.347 26-56.676 39.389-97.583 54.9l-31.309 12.174a23.356 23.356 0 0 0 -12.6 22.415c.345 8.193 4.276 16.96 10.196 24.084zm234.719-139.968c3.954-5.54 7.688-10.772 12.65-13.183q.214-.1.419-.224c24.582-14.451 33.662-23.345 33.5-32.815-.173-10.118-10.645-15.8-25.138-23.665-9.687-5.256-21.387-11.605-32.686-20.663 26.189 13.671 45.947 19.823 57.8 10.22 13.037-10.564 12.167-36.719-3.246-86.372a46.148 46.148 0 0 1 7.577 8.895c11.724 17.775 13.749 45.638 5.856 80.579a6 6 0 0 0 1.86 5.8l8.022 7.154a6 6 0 0 0 7.5.387c1.04-.75 23.3-17.337 25.609-60.543a19.4 19.4 0 0 1 1.858 6.673c1.791 16.812-12.889 45.28-41.334 80.158-22.762 27.911-48.349 52.778-60.986 63.631a15.257 15.257 0 0 1 -10.157-13.343c4.333-3.493 7.661-8.155 10.896-12.689zm-126.26-85.725q-.252-.088-.51-.154c-15.927-4.059-24.888-12.844-25.912-25.4a36.088 36.088 0 0 1 3.692-18.356c.13 1.669.32 3.4.588 5.173 2.468 16.317 10.313 27.924 22.685 33.565a6 6 0 0 0 8.419-6.373c-.07-.46-5.47-37.3 6.847-71.078-2.739 39.2-2.084 76.655 12.747 88.44 3.445 2.737 9.317 5.416 17.738 2.642a6 6 0 0 0 3.816-3.813c2.237-6.736 2.638-16.011 3.1-26.751.742-17.181 1.623-37.607 10.945-49.384-1.45 8.489-3.284 19.824-4.895 31.618-6.786 49.656-3.085 59.144-1.869 62.262 6.984 17.91 13.553 30.97 13.83 31.518a6 6 0 0 0 7 3.067 17.742 17.742 0 0 0 7.218-4.62c-.239.867-.5 1.757-.764 2.677-2.144 7.392-4.7 16.226-.37 26.519-5.793 1.383-11.468 3.018-16.805 4.712-2.772-36.136-31.448-73.572-67.5-86.264zm-89.329 195.325c-.059-.064-.12-.127-.181-.188a12.493 12.493 0 0 1 -3.281-5.6c-.261-.743-.547-1.551-.911-2.384 7.9-3.105 15.657-6.048 23.209-8.912 42.512-16.116 79.226-30.035 102.6-58.5 4.378-5.331 13.212-12.913 18.043-14.7 13.543-5.008 36.612-13.534 56.484-15.1-.121.08-.237.177-.359.253a6 6 0 0 0 -2.814 4.629l-.043.552a27.272 27.272 0 0 0 22.678 28.863 6 6 0 0 0 4.782-1.3c2.947-2.433 8.019-6.953 14.4-13.012 7.71 1.966 16.068-3.34 25.488-9.327 18.318-11.646 45.376-28.838 90.646-15.588-32.2-.655-72.482 10.357-97.192 37.863a6 6 0 0 0 8.928 8.02c22.081-24.58 58.386-34.443 87.62-33.9-11.159 22-28.665 41.973-58.185 32.672a15.178 15.178 0 0 0 -7.563-.5c-5.505 1.087-7.747 4.532-8.594 6.489-3.793 8.764 3.658 21.368 18.276 44.74 10.612 16.966 22.639 36.2 28.3 53.747 16.736 51.869 46.813 73.024 70.009 81.594l-212.35 47.818c-5.754-8.785-6.61-27.135-7.439-44.891-.571-12.23-1.161-24.876-3.235-36.348a39.014 39.014 0 0 0 -9.651-19.469c-.6-.653-1.208-1.265-1.816-1.883 4.971.374 9.747.549 14.3.549 37.748 0 60.684-11.52 61.921-12.156a6 6 0 0 0 -5.5-10.668c-.358.183-36.283 18.211-92.256 7.259-23.8-10.459-50.588-5.9-73.258-2.039-27.917 4.761-45.543 6.921-55.062-6.832l61.127-8.517a6 6 0 0 0 -1.656-11.885l-67.7 9.433a29.4 29.4 0 0 1 -5.016-3.391 43.456 43.456 0 0 0 6.916-9.058c4.888-9.112 1.054-15.396-1.665-18.333zm-14.964-2.323c.058.162.113.316.18.508a24.337 24.337 0 0 0 6.04 10.035c1.4 1.586 1.034 3.969-4.395 9.988a26.965 26.965 0 0 1 -4.2-12.436 11.687 11.687 0 0 1 2.375-8.095z"/><path d="m186.621 296.236a14.967 14.967 0 0 0 14.874 0 13.946 13.946 0 0 0 0-23.633 14.964 14.964 0 0 0 -14.874 0 13.946 13.946 0 0 0 0 23.633zm5.46-11.9c-.015-1.012.335-1.216.591-1.366a3.037 3.037 0 0 1 2.773 0c.256.15.606.354.591 1.367v.175c.015 1.013-.336 1.217-.591 1.366a3.035 3.035 0 0 1 -2.773 0c-.256-.148-.606-.352-.591-1.366.001-.063.001-.121 0-.18z"/><path d="m82.23 329.78a6.009 6.009 0 1 0 -4.24-1.76 6.013 6.013 0 0 0 4.24 1.76z"/><path d="m83.59 339.58a6.009 6.009 0 1 0 1.76-4.24 6.029 6.029 0 0 0 -1.76 4.24z"/><path d="m97.79 331.89a6.009 6.009 0 1 0 -4.24-1.76 6.007 6.007 0 0 0 4.24 1.76z"/></g></svg>