<svg id="Layer_1" height="512" viewBox="0 0 512 512" width="512" xmlns="http://www.w3.org/2000/svg" data-name="Layer 1"><path d="m488.09 292.87c-30.94-23.18-49.37-62.54-50.54-65.05.01-.01.01-.01 0-.01-17.55-50.09-47.2-73.32-47.2-73.32l-140.28-31.58-1.08-.98c-26.05 7.08-62.88 15.6-82.67 47.69-18.99 30.79-51.41 33.57-91.29 40.28-8.63 1.45-16.06 2.99-22.43 4.53.92 2.31 14.28 37.99-30.06 52.38a133.968 133.968 0 0 0 8.48 17.19 67.922 67.922 0 0 0 50.49 33.18l-.01.09s.64 17.73 21.37 22.21c16.86 3.64 50.78-5.43 77.82-7.98 49.72-4.7 101.06 18.79 108.98 57.97 2.49 12.36 16.09 18.98 27.55 13.73l167.35-76.74a19.635 19.635 0 0 0 3.52-33.59z" fill="#f98321"/><ellipse cx="202.43" cy="188.31" fill="#a33e3e" rx="12.6" ry="12.59"/><path d="m52.6 214.43c.92 2.31 14.28 37.99-30.06 52.38-4.03-10.02-6.69-20.75-6.53-31.51a12.064 12.064 0 0 1 6.53-10.59c5.25-2.71 14.53-6.51 30.06-10.28z" fill="#775e4d"/><path d="m21.01 259.3a12.064 12.064 0 0 1 6.53-10.59c4.8-2.477 12.979-5.864 26.2-9.306 3.623-12.355-.637-23.7-1.143-24.974-15.527 3.77-24.807 7.57-30.057 10.28a12.064 12.064 0 0 0 -6.53 10.59 78.844 78.844 0 0 0 5.056 27.636c-.051-1.211-.074-2.423-.056-3.636z" fill="#5e483a"/><path d="m250.07 122.91-1.08-.98c-26.05 7.08-62.88 15.6-82.67 47.69-18.99 30.79-51.41 33.57-91.29 40.28-8.63 1.45-16.06 2.99-22.43 4.53.506 1.269 4.766 12.619 1.143 24.973 1.246-.324 2.52-.648 3.857-.973.086.216.282.726.529 1.485-.247-.759-.443-1.269-.529-1.485 6.37-1.54 13.8-3.08 22.43-4.53 39.88-6.71 72.3-9.49 91.29-40.28 17.424-28.254 48.055-38.235 72.91-45.05-.108-3.222-.075-15.325 5.84-25.66z" fill="#d3722a"/><path d="m488.09 292.87c-30.94-23.18-49.37-62.54-50.54-65.05.01-.01.01-.01 0-.01-17.55-50.09-47.2-73.32-47.2-73.32 1.312 6.74.544 13.166-3.748 22.031l8.748 1.969s29.65 23.23 47.2 73.32c.01 0 .01 0 0 .01 1.17 2.51 19.6 41.87 50.54 65.05.278.208.541.427.805.645a19.669 19.669 0 0 0 -5.805-24.645z" fill="#d3722a"/><path d="m390.35 154.49c1.95 10.02-.66 19.32-12.68 37.02-15.8 23.24-14.84 129.44-73.28 143.42-60.48 14.47-31.16-63.6-45.2-104.39s-16.34-66.02-14.92-81.14c0 0-1.09-14.45 5.8-26.49 6.21-10.83 18.88-19.7 44.66-14.3 54.41 11.41 86.88 21.06 92.59 35.97a60.211 60.211 0 0 1 3.03 9.91z" fill="#ffab6c"/><g fill="#203a59"><path d="m76.313 322.426a30.919 30.919 0 0 0 2.844 7.161c3.112 5.646 9.533 12.963 22.445 15.755 12.036 2.6 30.469-.432 49.985-3.643 10.005-1.647 20.351-3.349 29.663-4.228 49.669-4.692 95.662 19.171 102.537 53.192a25.18 25.18 0 0 0 13.37 17.522 25.788 25.788 0 0 0 22.568.468l167.345-76.736a25.637 25.637 0 0 0 4.613-43.851c-30.31-22.7-48.533-62.445-48.713-62.844l-.02.009a202.637 202.637 0 0 0 -18.25-38.524c-12.362-20.13-24.577-31.7-28.966-35.522a73.013 73.013 0 0 0 -2.815-8.75c-3.42-8.939-13.453-16.181-31.576-22.791-14.452-5.272-34.006-10.327-65.383-16.9-18.561-3.889-33.141-1.327-43.341 7.617a36.118 36.118 0 0 0 -5.3 5.806q-1.879.51-3.83 1.034c-26.259 7.066-62.222 16.743-82.283 49.267-15.983 25.915-43.095 30.327-77.419 35.912-3.2.521-6.456 1.05-9.762 1.606-29.939 5.041-46.021 11.153-54.24 15.393a18.065 18.065 0 0 0 -9.786 15.839c-.223 15.915 5.1 33.344 15.828 51.8a73.962 73.962 0 0 0 50.486 35.408zm184.267-203.085c4.855-4.234 11.46-6.358 19.726-6.358a64.737 64.737 0 0 1 13.2 1.5c42.847 8.98 83.188 19.1 88.213 32.236 4.653 12.165 6.215 19.007-9.012 41.414-5.471 8.05-8.724 22.841-12.844 41.567-8.407 38.214-19.921 90.55-56.869 99.392-11.085 2.653-18.87 2.05-23.8-1.844-9.548-7.545-9.515-28.855-9.482-49.462.027-17.187.055-34.958-4.847-49.2-14.295-41.527-15.84-65.677-14.618-78.624a6.313 6.313 0 0 0 .01-1c-.015-.191-1.236-19.539 10.323-29.621zm-200.469 99.531c4.754-1.037 10.036-2.066 15.913-3.055q4.927-.829 9.7-1.6c35.868-5.836 66.845-10.876 85.706-41.456 16.193-26.253 44.617-35.607 69.077-42.322a61.594 61.594 0 0 0 -2.248 18.861c-1.818 20.5 3.315 48.489 15.262 83.194 4.245 12.331 4.218 29.077 4.193 45.272-.039 24.551-.075 47.741 14.041 58.9 5.1 4.033 11.478 6.04 19.292 6.039a63.787 63.787 0 0 0 14.739-1.939c44.259-10.592 56.707-67.172 65.8-108.484 3.536-16.077 6.877-31.261 11.049-37.4 7.49-11.023 11.62-19.314 13.327-26.624a162.474 162.474 0 0 1 18.828 25.242c12.907 21.175 28.477 57.015 29.347 107.5a6 6 0 0 0 6 5.9h.106a6 6 0 0 0 5.895-6.1 252.776 252.776 0 0 0 -3.116-35.709c8.261 11.191 18.826 23.12 31.469 32.59a13.635 13.635 0 0 1 -2.42 23.338l-167.348 76.726a13.856 13.856 0 0 1 -12.124-.255 13.244 13.244 0 0 1 -7.05-9.2c-4.107-20.32-19.014-37.936-41.977-49.6-21.193-10.769-47.967-15.564-73.45-13.159-9.724.919-20.277 2.656-30.483 4.335-17.549 2.888-35.694 5.873-45.5 3.755-8.357-1.807-12.517-6.133-14.591-9.927.138 0 .275.007.413.007a75.108 75.108 0 0 0 7.693-.4 537.833 537.833 0 0 0 72.692-13.036 6 6 0 0 0 -3.047-11.606 535.953 535.953 0 0 1 -70.878 12.701 62.227 62.227 0 0 1 -60.211-30.37q-3.174-5.465-5.631-10.746c13.124-5.432 22.174-13.423 26.934-23.819 4.813-10.513 3.987-20.963 2.598-27.553zm-34.819 11.169c3.817-1.969 10.993-5.065 23.138-8.339.963 4.816 1.532 12.389-1.828 19.727-3.441 7.516-10.338 13.445-20.517 17.682a71.442 71.442 0 0 1 -4.08-23.727 6.086 6.086 0 0 1 3.287-5.343z"/><path d="m202.431 206.905a18.594 18.594 0 1 0 -18.6-18.594 18.618 18.618 0 0 0 18.6 18.594zm0-25.188a6.594 6.594 0 1 1 -6.6 6.594 6.6 6.6 0 0 1 6.6-6.594z"/></g></svg>