<svg id="Layer_1" height="512" viewBox="0 0 512 512" width="512" xmlns="http://www.w3.org/2000/svg" data-name="Layer 1"><path d="m474.4 221.52-129.52-69.66c-30.86-16.6-67.22-26.42-102.18-28.82-14.38-86.14-90.86-106.75-91.96-107.03a87.107 87.107 0 0 1 7.28 44.99c-1.31 11.46.98 23.02 3.84 32.18l.01.01a105.658 105.658 0 0 0 7.6 18.35l-8 1.4a28.423 28.423 0 0 0 -19.43 13.24l-5.36 11.16-7.98 16.63-7.4 15.41c-19.52 40.69-22.18 32.47-22.34 110.63-.02 11.84-2.46 43.93-4.67 55.71-1.46 7.8-3.14 16.02-4.95 24.86l92.17 42.73c17.52 18.76 30.5 10.18 31.3 9.62l.01.01a102.075 102.075 0 0 0 24.33-36.01 31.99 31.99 0 0 1 8.65-12.16 110.242 110.242 0 0 0 16.23-17.61s38.73 38.33 70.34 53.3c34.19 16.18 50.62 30.07 67.2 51.2a14.1 14.1 0 0 0 24.72-4.95l57.03-209.07a14.105 14.105 0 0 0 -6.92-16.12z" fill="#b0bdc6"/><path d="m212.81 412.93.01.01a85.057 85.057 0 0 1 -18.6 13.7c-11.62 6.06-9.09 34.88-24.75 57.12s-32.79 4.69-32.79 4.69c9.94-13.42 29.72-44.82 44.83-85.14 17.52 18.76 30.5 10.18 31.3 9.62z" fill="#4e585e"/><path d="m173.02 241.29a12.5 12.5 0 1 1 -12.49 12.5 12.492 12.492 0 0 1 12.49-12.5z" fill="#676a6d"/><path d="m169.47 111.54-8 1.4a28.423 28.423 0 0 0 -19.43 13.24l-5.36 11.16c-9.28-45.07-92.92-88.31-92.92-88.31-4.72-6.93-9.32-12.98-12.93-17.53a2.892 2.892 0 0 1 3.27-4.51c6.62 2.42 16.57 5.74 30.43 9.56 23.39 6.44 67.51 31.47 97.33 56.63l.01.01a105.658 105.658 0 0 0 7.6 18.35z" fill="#758189"/><path d="m136.68 137.34-7.98 16.63s-53.71-38.81-65.4-69.24c-4.79-12.45-12.32-25.1-19.54-35.7 0 0 83.64 43.24 92.92 88.31z" fill="#4e585e"/><path d="m114.29 345.72c2.21-11.78 4.65-43.87 4.67-55.71.16-78.16 2.82-69.94 22.34-110.63l7.4-15.41 7.98-16.63 5.36-11.16a28.423 28.423 0 0 1 19.43-13.24l8-1.4a105.658 105.658 0 0 1 -7.6-18.35l-.01-.01c-2.86-9.16-5.15-20.72-3.84-32.18a87.107 87.107 0 0 0 -7.28-44.99 83.2 83.2 0 0 1 8.786 3.041c-15.8-9.546-28.345-12.929-28.786-13.041a87.107 87.107 0 0 1 7.28 44.99c-1.31 11.46.98 23.02 3.84 32.18l.01.01a105.658 105.658 0 0 0 7.6 18.35l-8 1.4a28.423 28.423 0 0 0 -19.43 13.24l-5.36 11.16-7.98 16.63-7.4 15.41c-19.52 40.69-22.18 32.47-22.34 110.63-.02 11.84-2.46 43.93-4.67 55.71-1.46 7.8-3.14 16.02-4.95 24.86l20.136 9.335c1.758-8.586 3.391-16.592 4.814-24.195z" fill="#889399"/><path d="m170.99 389.27a90.273 90.273 0 0 0 10.52 14.04c-15.11 40.32-34.89 71.72-44.83 85.14a18.725 18.725 0 0 1 -21.93 6.24c-17.61-6.92-44.96-25.17-37.43-70.78 4.11-24.85 8.34-45.38 12.02-63.33 0 0 58.42-8.67 81.65 28.69z" fill="#758189"/><path d="m97.32 433.91c4.11-24.85 8.34-45.38 12.02-63.33.748-3.654 1.472-7.2 2.17-10.652a119.9 119.9 0 0 0 -22.17.652c-3.68 17.95-7.91 38.48-12.02 63.33-7.53 45.61 19.82 63.86 37.43 70.78a18.946 18.946 0 0 0 3.7 1.02c-14.009-10.483-26.526-29.11-21.13-61.8z" fill="#525d63"/><g fill="#203a59"><path d="m57.7 86.885c10.394 27.041 50.453 59.068 63.455 68.948l-5.255 10.951c-2.847 5.932-5.329 10.807-7.517 15.108-12.954 25.444-15.283 30.028-15.418 98.108-.024 12.059-2.481 43.452-4.572 54.611-1.526 8.136-3.31 16.844-5.2 26.064-3.639 17.759-7.764 37.888-11.79 62.259-3.588 21.725-.1 40.028 10.356 54.4 9.122 12.536 21.784 19.391 30.8 22.935a24.8 24.8 0 0 0 24.689-3.805 27.031 27.031 0 0 0 14.436 4.564q.882 0 1.789-.072c7.9-.632 14.929-5.255 20.9-13.742 8.432-11.976 11.943-25.555 14.766-36.466 2.258-8.735 4.392-16.985 7.858-18.794 15.035-7.85 34.941-25.843 45.723-52.8a26.124 26.124 0 0 1 7.031-9.876 117.378 117.378 0 0 0 12.891-13.219c11.494 10.819 41.276 37.566 67.16 49.822 35.059 16.6 49.91 30.2 65.049 49.485a20.041 20.041 0 0 0 15.805 7.725 20.336 20.336 0 0 0 4.038-.406 19.962 19.962 0 0 0 15.376-14.392l57.032-209.078a20 20 0 0 0 -9.867-22.982l-129.511-69.657c-29.425-15.825-64.76-26.092-99.991-29.145-7.818-39.378-28.233-64.621-45.967-79.737-24.338-20.743-48.5-27.233-49.519-27.5a6 6 0 0 0 -6.867 8.527 80.994 80.994 0 0 1 6.68 41.6 72.98 72.98 0 0 0 .271 17.665c-28.415-21.264-64.4-41.215-86.21-47.223-11.447-3.153-21.526-6.318-29.955-9.41a8.9 8.9 0 0 0 -10.035 13.881c8.478 10.677 23.853 31.585 31.569 51.651zm46.718 39.434c-18.792-17.046-31.074-32.171-35.518-43.74a144.7 144.7 0 0 0 -7.645-16.424c6.62 4.157 14.272 9.252 22.032 15.04 26.575 19.822 42.791 38.945 47.072 55.457l-3.9 8.116c-5.22-4.041-13.402-10.608-22.045-18.449zm27.442 358.568a12.75 12.75 0 0 1 -14.909 4.215c-18.981-7.46-40.238-24.657-33.7-64.211 3.763-22.784 7.626-41.883 11.09-58.8a122.4 122.4 0 0 1 26.563.806c21.247 3.1 36.387 11.692 45 25.543a103.363 103.363 0 0 0 8.714 12.113c-17.269 44.76-38.578 74.679-42.762 80.334zm59.59-63.569c-8.194 4.278-10.848 14.542-13.923 26.427-2.712 10.487-5.786 22.374-12.959 32.563-3.8 5.4-7.833 8.323-11.98 8.683a13.539 13.539 0 0 1 -7.6-1.851 383.877 383.877 0 0 0 38.935-73.459 38.39 38.39 0 0 0 10.491 5.952c-1.307.79-2.328 1.351-2.968 1.685zm2.921-374.158c29.629 25.453 44.65 60.74 44.65 104.89a6 6 0 0 0 12 0 184.869 184.869 0 0 0 -1.338-22.4c32.635 3.22 65.17 12.872 92.357 27.494l129.515 69.656a8.054 8.054 0 0 1 3.973 9.255l-57.028 209.08a7.924 7.924 0 0 1 -6.179 5.788 8.011 8.011 0 0 1 -8.025-2.966c-15.891-20.244-32.333-35.392-69.353-52.922-24.853-11.768-54.864-39.034-65.075-48.679 11.82-17.808 18.355-38.75 19.128-61.835.853-25.442-5.506-44.381-5.777-45.175a6 6 0 0 0 -11.359 3.871 128.393 128.393 0 0 1 5.128 41.316c-1.132 30.788-12.957 56.265-35.143 75.724a38.179 38.179 0 0 0 -10.265 14.443 95.341 95.341 0 0 1 -22.45 33.472 11.948 11.948 0 0 1 -7.946.934c-3.73-.716-8.93-3.123-15.126-9.7-.061-.071-.128-.138-.193-.206a84.73 84.73 0 0 1 -9.778-13.089c-10.466-16.83-29.065-27.594-53.786-31.128a133.38 133.38 0 0 0 -25.476-1.083c1.2-5.911 2.34-11.616 3.363-17.071 2.384-12.724 4.753-45.177 4.777-56.8.125-65.214 1.718-68.343 14.108-92.69 2.219-4.359 4.734-9.3 7.641-15.358l20.6-42.918a22.462 22.462 0 0 1 15.186-10.217l8-1.392a6 6 0 0 0 4.206-8.843c-.134-.239-13.321-24.171-10.722-46.929a86.109 86.109 0 0 0 .516-11.867c17.626 13.761 52.768 46.689 47.733 87.318a6 6 0 0 0 5.215 6.692 6.084 6.084 0 0 0 .746.046 6 6 0 0 0 5.947-5.262c3.162-25.514-6.822-51.989-28.871-76.566a180.258 180.258 0 0 0 -32.589-28.4c-.549-2.732-1.175-5.253-1.821-7.518a135.029 135.029 0 0 1 33.511 21.035zm-131.436-4.828c20.747 5.713 63.039 28.793 93.742 54.344 1.315 3.988 2.7 7.5 3.93 10.319l-.167.029a34.454 34.454 0 0 0 -22.877 15.026c-19.286-38.918-79.637-72.276-89.72-77.645-2.065-3-4.088-5.819-5.99-8.387 6.399 2.1 13.453 4.212 21.082 6.314z"/><path d="m118.311 412.493a6 6 0 0 0 -6.115 10.325c.806.477 19.619 11.962 9.835 36.031a6 6 0 1 0 11.117 4.519c10.908-26.832-4.935-45.012-14.837-50.875z"/><path d="m113.658 446.057c-5.089-2.12-4.427-5.974-3.575-8.09a6 6 0 0 0 -11.023-4.74c-.319.729-3.028 7.314-.289 14.125 1.212 3.015 3.978 7.16 10.272 9.782a6 6 0 0 0 4.615-11.077z"/><path d="m173.024 235.285a18.5 18.5 0 1 0 18.5 18.5 18.52 18.52 0 0 0 -18.5-18.5zm0 25.007a6.5 6.5 0 1 1 6.5-6.5 6.506 6.506 0 0 1 -6.5 6.5z"/></g></svg>