<svg id="Layer_1" height="512" viewBox="0 0 512 512" width="512" xmlns="http://www.w3.org/2000/svg" data-name="Layer 1"><path d="m488.72 232.86c-36.13-37.51-79.92-1.99-107.93-41.91-43.84-57.67-101.77-33.64-149.11-1.46-48.79 19.22-87.03 68.69-140.2 68.81-35.55-4.52-37.76-43.87-27.14-69.1 16.57-39.41 78.79-41.88 99.09-57.95 27.26-21.59 11.37-69.49-20.12-47.44-10.84 7.6-11.35 15.24-4.74 17.96v.01c-1.96 24.96-115.17 22.1-122.26 111.05-5.84 73.2 71.88 127.78 144.97 115.71h.01c1.16-1.79 2.03-3.3 2.65-4.43l43.15 7.72a246.579 246.579 0 0 1 -32.69 26.76c-7.06 28.09-10.65 61.85-1.34 56.74 13.07-6.55 9.53-22.95 18.03-25.5a26.919 26.919 0 0 0 4.39-1.7c40.83-20.62 26.32 16.82 94.68-17.31a47.314 47.314 0 0 0 35.82 18.13s27.48 10.38 47.89 35.38a25.978 25.978 0 0 0 43.49-5.14l76.04-156.94a26.021 26.021 0 0 0 -4.68-29.39z" fill="#768489"/><path d="m219.17 247.51c.17 11.94-18.61 11.94-18.43 0-.17-11.95 18.61-11.95 18.43 0z" fill="#2c3f44"/><path d="m82.1 256.05c4.447 11.411 13.642 20.248 29.385 22.25 53.17-.12 91.41-49.59 140.2-68.81 40.3-27.391 88.262-48.865 128.683-19.087-43.789-56.958-101.5-32.989-148.683-.913-48.79 19.22-87.03 68.69-140.2 68.81a42.609 42.609 0 0 1 -9.385-2.25z" fill="#596366"/><path d="m36.525 232.83c7.09-88.95 120.475-86.09 122.475-111.05v-.01c-7-2.72-6.315-10.36 4.525-17.96 5.04-3.529 9.57-5.259 13.7-5.6-2-16-15.006-27.451-33.643-14.4-10.843 7.6-11.582 15.24-4.582 17.96v.01c-2 24.96-115.385 22.1-122.475 111.05-2.863 35.892 14.37 67.3 41.29 88.577-14.952-19.107-23.357-42.675-21.29-68.577z" fill="#596366"/><path d="m168.01 320.38c7.85-3.38 29.66-10.34 39.08 11.45a246.579 246.579 0 0 1 -32.69 26.76c-56.45 38.14-93.03 20.92-93.03 20.92 48.64-10.46 71.6-38.08 79.91-50.97h.01c1.16-1.79 2.03-3.3 2.65-4.43a8.385 8.385 0 0 1 4.07-3.73z" fill="#cadeea"/><path d="m337.17 197.58c-6.85 43.15 74.49 38.37 26.08 132.12 28.62-74.86-30.08-83.46-50.58-106.53a30.642 30.642 0 0 1 -3.76-5.19c-3.66-6.49-4.28-14.3.23-24.74z" fill="#53777f"/><path d="m312.67 223.17c20.5 23.07 79.2 31.67 50.58 106.53-26.39-4.07-31.29 17.19-50.53 8.2-26.26-12.27-38.1 21.67-38.1 21.67-18.04-42.23 8.76-84.37 8.76-84.37l25.53-57.22a30.642 30.642 0 0 0 3.76 5.19z" fill="#2c3f44"/><g fill="#203a59"><path d="m46.494 299.827c25.307 23.262 60.053 36.361 94.433 36.359 2.409 0 4.816-.089 7.219-.219-11.488 13.075-32.47 29.982-67.842 37.631a6.18 6.18 0 0 0 -4.585 3.879 6.005 6.005 0 0 0 3.095 7.458c.9.423 10.045 4.525 25.631 4.525 14.936 0 35.792-3.782 60.96-18.166-1.6 8.08-2.795 15.952-3.428 22.743-1.742 18.711 1.2 23.688 4.316 26.089a8.125 8.125 0 0 0 5.012 1.713 9.6 9.6 0 0 0 4.528-1.191c9.239-4.674 12.048-12.954 14.1-19 .829-2.443 1.964-5.79 2.876-6.063a32.493 32.493 0 0 0 5.374-2.1c15.745-7.95 21.306-6.366 29-4.175 11.334 3.228 24.129 6.868 61.42-11.045a54.09 54.09 0 0 0 36.147 16.656c4.712 1.969 27.3 12.17 44.471 33.2a31.753 31.753 0 0 0 24.679 11.741 32.476 32.476 0 0 0 3.777-.221 31.872 31.872 0 0 0 25.085-17.835l76.038-156.944a32.127 32.127 0 0 0 -5.755-36.16c-19.4-20.144-40.986-21.047-60.033-21.843-18.645-.779-34.748-1.452-47.313-19.357-.043-.062-.088-.123-.134-.184-21.113-27.778-47.579-40.141-78.664-36.756-21.74 2.371-45.97 12.476-73.941 30.857a56.28 56.28 0 0 1 -8.343 4.513c-17.6 7.71-33.856 18.944-49.621 29.839-27.016 18.669-52.541 36.307-83.138 36.526-10.085-1.374-17.5-6.055-22.03-13.919-5.661-9.817-7.844-28.112.039-46.854 9.8-23.291 38.089-32.552 63.05-40.724 14.164-4.636 26.4-8.641 34.238-14.851 18.653-14.77 20.165-40.479 9.856-54.314a22.534 22.534 0 0 0 -15.985-9.373c-6.753-.7-13.871 1.53-21.156 6.634-9.731 6.815-13.7 15.006-10.621 21.909a11.824 11.824 0 0 0 1.937 3.006c-4.2 4.322-17.079 9.2-27.781 13.249-35.1 13.284-88.135 33.359-93.074 95.292-2.6 32.584 10.244 63.648 36.163 87.475zm69.944 76.659c-2.525.365-4.921.6-7.183.741 38.339-15.633 55.162-41.482 59.948-50.243a2.452 2.452 0 0 1 1.182-1.1 38.654 38.654 0 0 1 14.406-3.3 18.284 18.284 0 0 1 8.532 1.907 16.794 16.794 0 0 1 6.36 6.092c-20.393 18.983-50.452 41.165-83.245 45.903zm-94.147-163.181c4.335-54.354 51.166-72.079 85.36-85.022 16.882-6.39 29.968-11.345 34.86-19.6a36.327 36.327 0 0 0 10.6-.88 6.142 6.142 0 0 0 4.859-6.565 6 6 0 0 0 -7.323-5.181c-6.621 1.538-9.723.374-10.4-.143.1-.8 1.3-3.544 6.5-7.188 5.049-3.537 14.443-8.229 20.634.08s6.268 26.69-7.682 37.737c-6.162 4.879-18 8.753-30.522 12.854-26.044 8.526-58.457 19.136-70.378 47.475-10.127 24.077-5.992 46.024.626 57.5 6.473 11.224 17.292 18.1 31.29 19.878.255.032.5.026.77.048 34.5-.078 62.88-19.69 90.326-38.656 15.108-10.44 30.682-21.2 47.035-28.463a83.2 83.2 0 0 0 11.694-6.385c25.908-16.9 48.087-26.17 67.655-28.3 26.947-2.945 49.11 7.528 67.743 32 15.959 22.659 36.6 23.52 56.566 24.355 18.425.77 35.828 1.5 51.891 18.177a20.084 20.084 0 0 1 3.6 22.6l-76.032 156.947a19.98 19.98 0 0 1 -33.442 3.966 129.8 129.8 0 0 0 -32.43-27.993c1.537-.412 3.095-.864 4.691-1.391a6.112 6.112 0 0 0 4.139-6.931 6 6 0 0 0 -7.778-4.5c-34.852 11.609-51.363-11.329-52.049-12.312a6 6 0 0 0 -7.613-1.953c-36.415 18.179-47.355 15.066-57.009 12.317-8.734-2.487-17.767-5.059-37.7 5a20.775 20.775 0 0 1 -3.411 1.312c-6.841 2.051-9.032 8.512-10.794 13.7-1.262 3.721-2.473 7.289-5.034 9.883-.567-7.628 1.148-24.856 6.136-45.405a246.075 246.075 0 0 0 24.483-19.5 6 6 0 0 0 7.644 4.173 6.14 6.14 0 0 0 3.993-7.113c-2.637-12.744-8.325-21.481-16.908-25.969-12.136-6.346-26.035-2.093-33.241 1.006a14.544 14.544 0 0 0 -6.971 6.367c-.284.52-.624 1.118-1.006 1.766a119.9 119.9 0 0 1 -16.83 1.2c-31.382 0-63.114-11.963-86.222-33.2-23.139-21.276-34.618-48.866-32.32-77.691z"/><path d="m201.818 260.315a16.378 16.378 0 0 0 16.271 0 15.128 15.128 0 0 0 0-25.619 16.371 16.371 0 0 0 -16.271 0 15.129 15.129 0 0 0 0 25.619zm4.922-12.9a2.307 2.307 0 0 1 1.131-2.357 4.5 4.5 0 0 1 4.169 0 2.309 2.309 0 0 1 1.13 2.358v.176a2.312 2.312 0 0 1 -1.131 2.359 4.5 4.5 0 0 1 -4.169 0 2.312 2.312 0 0 1 -1.13-2.359z"/><path d="m274.617 365.566q.1 0 .2 0a6 6 0 0 0 5.462-4.02c.051-.147 5.423-14.843 15.643-19.15 4.331-1.828 8.992-1.518 14.253.941 12.474 5.831 20.857 1.374 28.252-2.559 6.622-3.522 12.879-6.846 23.9-5.147a6 6 0 0 0 6.271-3.223c32.358-62.7 9.193-85.183-9.421-103.248-11.254-10.923-18.052-18.246-16.083-30.639a6 6 0 0 0 -5.008-6.87l-28.031-4.342a6 6 0 0 0 -6.428 3.553c-4.381 10.157-4.84 19.152-1.345 27.236l-24.222 54.287c-2.953 4.813-27.283 46.655-8.966 89.541a6 6 0 0 0 5.523 3.64zm38.448-165.651 17.686 2.738c-.036 15.6 10.169 25.5 20.075 35.115 8.846 8.585 17.845 17.318 20.838 31.031-7.858-16.868-23.106-26.892-35.838-35.26-7.316-4.809-14.226-9.351-18.669-14.351-5.067-5.705-6.379-11.638-4.092-19.273zm-24.624 78.506a5.831 5.831 0 0 0 .416-.775l21.506-48.2c5.235 5.158 11.884 9.528 18.872 14.121 23.111 15.191 46.988 30.883 29.986 79.677-12.1-.686-19.961 3.5-26.426 6.938-6.761 3.6-10.486 5.577-17.535 2.282-8.392-3.922-16.464-4.3-24-1.129-6.608 2.786-11.628 7.939-15.217 12.95-7.264-34.15 12.18-65.518 12.398-65.864z"/></g></svg>