<svg id="Layer_1" height="512" viewBox="0 0 512 512" width="512" xmlns="http://www.w3.org/2000/svg" data-name="Layer 1"><path d="m63.89 402.83c-3.43.93-6.41 1.26-8.65.7-13.87-3.47-33.32-50.6-9.36-62.2 0 0 75.22-68.63 117.75-124.02s104.27-41.44 104.27-41.44l48.88 11.52a153.006 153.006 0 0 1 26.88-55.07c9.31-11.89 20.56-25.78 32.01-38.78 29.39-33.36 60.08-60.88 62.59-33.72 4.92 53.1.61 116.04-39.33 145.54-13.33 9.84-41.35 17.64-61.53 22.28 15.26 15.29 12.61 24.45 28.56 55.16 35.66 68.64 79.01 88.11 105.41 91.14a6.9 6.9 0 0 1 2.64 12.81l-185.33 108.3a6.9 6.9 0 0 1 -10.18-4.31c-12.41-49.82-52.71-110.69-52.71-110.69a188.625 188.625 0 0 1 -22.71 1.64s-52.77 3.69-77.56 21.27-40.88 19.3-61.62-.08z" fill="#f4996c"/><path d="m351.4 16.7c21.03 11.1 24.27 76.84 24.27 76.84-11.45 13-22.7 26.89-32.01 38.78a153.006 153.006 0 0 0 -26.88 55.07l-48.88-11.52c-4.09-79.33 65.45-168.7 83.5-159.17z" fill="#a5644e"/><circle cx="194.82" cy="268.77" fill="#7f5141" r="11.46"/><path d="m65.88 351.33s75.22-68.63 117.75-124.02 104.27-41.44 104.27-41.44l48.88 11.52a153.006 153.006 0 0 1 26.88-55.07c9.31-11.89 20.56-25.78 32.01-38.78 15.332-17.4 31.014-33.211 42.869-40.5-.091-1.075-.18-2.152-.279-3.219-2.51-27.16-33.2.36-62.59 33.72-11.45 13-22.7 26.89-32.01 38.78a153.006 153.006 0 0 0 -26.88 55.07l-48.88-11.521s-61.75-13.96-104.27 41.44-117.75 124.02-117.75 124.02c-23.96 11.6-4.51 58.73 9.36 62.2 2.226.556 5.183.233 8.585-.684-9.764-15.508-15.481-43.026 2.055-51.516z" fill="#c47d5f"/><g fill="#203a59"><path d="m194.817 251.307a17.46 17.46 0 1 0 17.459 17.459 17.479 17.479 0 0 0 -17.459-17.459zm0 22.919a5.46 5.46 0 1 1 5.459-5.46 5.467 5.467 0 0 1 -5.459 5.46z"/><path d="m472.054 367.981c-17.612-2.02-62.685-14.636-100.769-87.949a249.142 249.142 0 0 1 -12.238-27.573c-3.109-8.051-5.6-14.47-10.65-21.289 19.266-4.876 42.012-12.058 54.1-20.984 19.359-14.3 32.411-37.013 38.8-67.514 4.909-23.447 5.9-51.508 2.948-83.4-1.014-10.95-6.184-14.705-10.343-15.928-9.9-2.914-24.1 5.769-46.026 28.161-2.443 2.5-4.916 5.105-7.4 7.78-.665-6.011-1.669-13.421-3.158-21.137-5-25.888-12.555-41.18-23.11-46.751-4.989-2.633-11.267-1.57-18.664 3.153-26.976 17.228-73.708 87.634-73.837 154.341a117.213 117.213 0 0 0 -30.975 1.007c-20 3.31-48.7 13.588-71.864 43.757-39.725 51.745-109.268 116.1-116.44 122.693-10.3 5.428-15.12 16.507-13.59 31.32a69.249 69.249 0 0 0 8.468 25.969c2.856 5.044 8.8 13.791 16.474 15.712a16.048 16.048 0 0 0 3.958.469 24.784 24.784 0 0 0 4.412-.442c10.85 9.478 20.765 13.465 30.521 13.464 11.878 0 23.52-5.9 36.319-14.981 22.478-15.938 71.2-19.931 74.352-20.174a194 194 0 0 0 19.431-1.237c8.195 12.892 39.448 63.778 49.9 105.742a12.873 12.873 0 0 0 19.028 8.043l185.331-108.3a12.9 12.9 0 0 0 -4.98-23.947zm-133.348-340.981c6.066-4.7 9.291-5.178 9.9-4.992 6.718 3.546 12.879 17.5 16.9 38.288a274.41 274.41 0 0 1 4.022 31.166c-11.385 13.035-22.283 26.547-30.59 37.155a159.408 159.408 0 0 0 -26.378 51.62l-38.8-9.148c-.86-60.755 41.24-125.713 64.946-144.089zm132.274 354.566-185.332 108.307a.846.846 0 0 1 -.792.053.887.887 0 0 1 -.537-.636c-10.034-40.281-37.308-86.692-48.59-104.812 31.725-6.06 53.416-19.6 67-31.354 19.488-16.863 26.965-33.611 27.273-34.316a6 6 0 0 0 -10.985-4.83c-.068.152-6.959 15.369-24.616 30.48-23.65 20.242-54.401 30.747-91.401 31.232-.114 0-.228 0-.341.013-2.224.155-54.742 4.025-80.61 22.367-20.179 14.31-32.331 16.525-46.366 6.741a167.437 167.437 0 0 0 15.731-8.236c12.35-7.214 22.8-14.733 23.235-15.05a6 6 0 1 0 -7.021-9.73c-19.209 13.862-44.261 27.595-50.938 25.911-4.342-1.085-14.272-15.367-15.916-31.271-.716-6.94.041-15.992 7.716-19.707a6.034 6.034 0 0 0 1.43-.968c.756-.69 76.106-69.621 118.465-124.8 16.571-21.586 38.046-34.757 63.827-39.145 19.451-3.313 34.227-.123 34.309-.1l43.045 10.149c-.27 1.257-.531 2.513-.764 3.767a6 6 0 0 0 11.8 2.195 147.11 147.11 0 0 1 27.789-61.805c12.556-16.036 31.087-38.787 48.056-56.118 25.91-26.462 33.306-25.263 34.067-25.044.338.1 1.39 1.328 1.779 5.522 8.085 87.328-15.617 124.42-36.925 140.158-8.424 6.222-25.209 12.669-48.541 18.645-18 4.609-33.55 7.284-33.7 7.31a6 6 0 1 0 2.019 11.828c.915-.156 9.074-1.567 20.275-4.063 6.48 7.129 8.713 12.876 12.44 22.528a259.439 259.439 0 0 0 12.784 28.782c16.376 31.525 35.863 55.826 57.922 72.227 21.2 15.765 40.048 20.727 52.126 22.112a.735.735 0 0 1 .723.674.817.817 0 0 1 -.436.984z"/><path d="m342.641 206.086a5.988 5.988 0 0 0 1.626-.226c30.877-8.675 52.851-29.74 63.549-60.917a127.6 127.6 0 0 0 6.812-44.5 6 6 0 0 0 -11.98.7 117.532 117.532 0 0 1 -6.308 40.268c-9.537 27.463-28.15 45.259-55.319 52.894a6 6 0 0 0 1.62 11.778z"/></g></svg>