<svg id="Layer_1" height="512" viewBox="0 0 512 512" width="512" xmlns="http://www.w3.org/2000/svg" data-name="Layer 1"><path d="m234.84 270.5a191.912 191.912 0 0 0 -27.35-14.44l-19.74-8.56q-6.555-2.85-13.29-5.23c-63.48-22.36-128.43-30.7-133.3-63.04l-24.32 45.71s-4.3 14.84 16.64 24.81l4.05 18.22a42.26 42.26 0 0 0 26.78 30.57c56.62 20.71 151.45 50.77 176.9 58.79a9.472 9.472 0 0 1 6.63 8.79l2.45 90.07a9.3 9.3 0 0 0 6.29 8.68 9.188 9.188 0 0 0 6.84-.49l39-18.87c8.44-72.43-25.89-148.23-67.58-175.01z" fill="#ef683f"/><path d="m458.32 51.43c.86 1.39 37.64 62.15 10.79 140.43 0 0 39.17 70.88 22.96 157.67a9.3 9.3 0 0 1 -5.08 6.67l-184.57 89.31c8.44-72.43-25.89-148.23-67.58-175.01a191.912 191.912 0 0 0 -27.35-14.44l-19.74-8.56q-6.555-2.85-13.29-5.23c-63.48-22.36-128.43-30.7-133.3-63.04l107.92-2.61a55.536 55.536 0 0 0 26.98-7.75c9.2-5.45 37.17-20.09 60.85-31.99a200.579 200.579 0 0 1 67.19-20.03l91.36-10.46.02.01c13.2-26.36 31.73-53.32 54.22-59.45a7.084 7.084 0 0 1 8.61 4.46.035.035 0 0 1 .01.02z" fill="#f79c5e"/><path d="m42.89 194.7a24.3 24.3 0 0 1 -14.08 24.79l-11.97 5.45-.84-31.21a13.862 13.862 0 0 1 13.52-14.22l11.64-.28z" fill="#3f4554"/><path d="m246.78 192.18a12.536 12.536 0 1 1 -16.78 5.77 12.543 12.543 0 0 1 16.78-5.77z" fill="#3f4554"/><path d="m166.08 200.62a55.536 55.536 0 0 0 26.98-7.75c9.2-5.45 37.17-20.09 60.85-31.99a200.579 200.579 0 0 1 67.19-20.03l91.36-10.46.02.01c13.2-26.36 31.73-53.32 54.22-59.45.222-.061.444-.11.666-.15a124.562 124.562 0 0 0 -9.046-19.37.035.035 0 0 0 -.01-.02 7.084 7.084 0 0 0 -8.61-4.46c-22.49 6.13-41.02 33.09-54.22 59.45l-.02-.01-91.36 10.46a200.579 200.579 0 0 0 -67.19 20.03c-23.68 11.9-51.65 26.54-60.85 31.99a55.536 55.536 0 0 1 -26.98 7.75l-107.92 2.61c1.483 9.849 8.546 17.47 19.436 23.941z" fill="#d18959"/><g fill="#203a59"><path d="m475.555 191.232a184.019 184.019 0 0 0 7.858-80.722c-4.5-35.088-17.636-58.292-19.737-61.824a13.124 13.124 0 0 0 -15.554-7.527c-23.63 6.446-42.807 33.089-56.534 59.638l-88.167 10.091a205.811 205.811 0 0 0 -69.206 20.635c-22.315 11.211-51.315 26.316-61.215 32.186a49.638 49.638 0 0 1 -24.07 6.911l-119.55 2.889a19.86 19.86 0 0 0 -19.373 20.384l.814 30.482a23.633 23.633 0 0 0 1.789 13.752c2.806 6.335 8.053 11.577 15.631 15.685l3.429 15.459a48.105 48.105 0 0 0 30.576 34.909c56.354 20.609 149.847 50.269 177.154 58.868a3.489 3.489 0 0 1 2.436 3.236l2.453 90.072a15.114 15.114 0 0 0 21.742 13.423l223.569-108.179a15.361 15.361 0 0 0 8.365-10.971c8.58-45.947 1.739-87.383-5.51-114.053a246.533 246.533 0 0 0 -16.9-45.344zm-451.393-3.284a7.811 7.811 0 0 1 5.508-2.443l6.14-.149 1.112 10a18.254 18.254 0 0 1 -10.6 18.667l-3.729 1.7-.593-22.151a7.812 7.812 0 0 1 2.162-5.624zm272.615 253.625-35.968 17.4a3.2 3.2 0 0 1 -2.413.177 3.314 3.314 0 0 1 -2.108-3.124l-2.452-90.072a15.5 15.5 0 0 0 -10.828-14.354c-27.25-8.58-120.522-38.17-176.64-58.692a36.156 36.156 0 0 1 -22.983-26.239l-1.65-7.438.113.035c9.511 2.775 14.616 7.037 21.079 12.432 13.942 11.637 31.293 26.121 98.38 33.69a6.255 6.255 0 0 0 .68.038 6 6 0 0 0 .665-11.963c-63.507-7.163-79.325-20.363-92.035-30.976-6.938-5.791-13.491-11.262-25.408-14.739-19.281-5.625-22.4-14.508-22.707-18.795l8.8-4.008a30.2 30.2 0 0 0 17.334-22.74c15.713 13.023 43.448 21.174 75.832 30.681 15.632 4.59 31.8 9.335 48 15.043 4.264 1.5 8.6 3.208 12.9 5.072l19.736 8.563a186.346 186.346 0 0 1 26.5 13.983c19.613 12.6 37.936 37.241 50.272 67.6 12.812 31.543 18.052 66.353 14.901 98.426zm189.4-93.148a3.314 3.314 0 0 1 -1.8 2.371l-175.083 84.72c1.938-31.927-3.724-65.923-16.307-96.888-13.245-32.6-33.256-59.268-54.9-73.177a198.508 198.508 0 0 0 -28.209-14.9l-19.736-8.563c-4.553-1.975-9.158-3.786-13.687-5.381-16.506-5.814-32.825-10.6-48.608-15.239-36.834-10.814-69.214-20.33-78.365-36.346l99.741-2.41a61.647 61.647 0 0 0 29.9-8.586c8.521-5.053 35.652-19.312 60.479-31.784a193.876 193.876 0 0 1 65.184-19.436l80.572-9.222a371.919 371.919 0 0 0 -17.932 47.435 6 6 0 0 0 11.529 3.328 371.816 371.816 0 0 1 20.413-52.272c16.575-34.08 34.527-54.6 51.912-59.343a1.1 1.1 0 0 1 1.357.623c14.622 42.462 10.838 81.653-11.249 116.484-16.643 26.246-38.018 40.115-38.232 40.252a6 6 0 0 0 6.451 10.118c.953-.607 23.537-15.178 41.638-43.509a138.418 138.418 0 0 0 20.976-58.059c4.024 44.505-9.127 87.486-39.169 127.852a6 6 0 1 0 9.626 7.165 224.836 224.836 0 0 0 26.937-46.548c9.965 23.634 28.285 78.49 16.558 141.315z"/><path d="m249.408 186.789a18.53 18.53 0 1 0 8.56 24.789 18.541 18.541 0 0 0 -8.56-24.788zm-2.227 19.532a6.554 6.554 0 1 1 -8.037-9.053 6.567 6.567 0 0 1 8.337 4.062 6.485 6.485 0 0 1 -.3 4.991z"/><path d="m85.65 238.21a5.987 5.987 0 1 0 -4.24 1.76 6.012 6.012 0 0 0 4.24-1.76z"/><path d="m117.83 254.28a5.992 5.992 0 1 0 -1.75 4.24 6.086 6.086 0 0 0 1.75-4.24z"/><path d="m117.89 272.15a5.975 5.975 0 1 0 4.25 1.75 6.062 6.062 0 0 0 -4.25-1.75z"/><path d="m61.44 232.57a5.992 5.992 0 1 0 4.25 1.76 6.029 6.029 0 0 0 -4.25-1.76z"/><path d="m86.47 252.87a6.009 6.009 0 1 0 4.24 1.76 6.052 6.052 0 0 0 -4.24-1.76z"/></g></svg>