<svg id="Layer_1" height="512" viewBox="0 0 512 512" width="512" xmlns="http://www.w3.org/2000/svg" data-name="Layer 1"><path d="m311.51 486.23c-13.58-23.32-54.13-70.15-44.45-106.2 18.4-68.57.71-97.67.71-97.67 11.49-16.69 20.41-41.58 8.23-73.21 0 0-24.89 10.58-39.59 44.2 0 0-12.51-9.01-19.72-9.9l-11.54-44.55c1.68-1.65 3.35-3.25 5-4.82l-15.93-16.83a251.752 251.752 0 0 0 -17.16 21.37v.01a177.568 177.568 0 0 0 -13.24 21.24 17.833 17.833 0 0 1 -4.66 5.73c-3.27 2.65-8.89 7.24-15.34 12.76v.01c-9.98 8.55-21.96 19.35-30.41 28.66-12.37 13.63-49.89 14-70.45 30.48-9.18 7.37-13.54 13.76-16.95 16.82a6.811 6.811 0 0 0 -.2 10.06s-14.03 16.63 2.75 25.64c0 0-6.12 25.41 29.16 24.57a136.245 136.245 0 0 1 49.44 7.99 37.272 37.272 0 0 1 24.35 35.28 347.86 347.86 0 0 1 -4.41 50.79 6.514 6.514 0 0 0 6.17 7.51l172.37 19.82a6.5 6.5 0 0 0 5.87-9.76z" fill="#e59e7f"/><path d="m167.58 301.11a6.727 6.727 0 1 0 -8.59 4.1 6.748 6.748 0 0 0 8.59-4.1z" fill="#e59e7f"/><path d="m428.31 86.35a558.54 558.54 0 0 0 63.37-36.84c-4.04 18.42-25.68 37.65-52.43 54.81z" fill="#87685c"/><path d="m428.31 86.35 10.94 17.97c-10.35 6.63-21.46 12.96-32.61 18.81l-.01-.01-12.8-21.43c11.97-4.66 23.63-9.95 34.48-15.34z" fill="#59372e"/><path d="m406.63 123.12.01.01c-10.93 5.72-21.89 10.99-32.22 15.64l-.02-.05-14.98-25.69q4.575-1.365 9.32-2.75c8.4-2.44 16.82-5.36 25.09-8.59z" fill="#87685c"/><path d="m365.89 62.35c34.38-23.41 61.83-46.35 61.83-46.35-5.71 22.28-26.14 46.03-47.04 65.51z" fill="#87685c"/><path d="m365.89 62.35 14.79 19.16c-8.55 7.97-17.18 15.23-24.91 21.37l-16.49-23.33c9.09-5.53 18.07-11.38 26.61-17.2z" fill="#59372e"/><path d="m374.4 138.72.02.05c-12.31 5.55-23.71 10.22-33.04 13.74v-.01l-13.35-29.17s.22-.14.64-.43c9.57-3.33 19.77-6.58 30.75-9.87z" fill="#59372e"/><path d="m339.28 79.55 16.49 23.33c-13.61 10.84-24.43 18.23-27.1 20.02-.25.09-.5.18-.75.26l-18.14-27.18v-.01c9.7-4.8 19.66-10.42 29.5-16.42z" fill="#87685c"/><path d="m341.38 152.5v.01c-3.01 1.14-5.81 2.15-8.35 3.04a181.421 181.421 0 0 0 -23.43 10.17l-.06-.1-13.84-29.81v-.01c10.02-4.46 20.67-8.61 32.22-12.64l.11.17z" fill="#87685c"/><path d="m309.78 95.98 18.14 27.18c-11.55 4.03-22.2 8.18-32.22 12.64l-14.67-25.71q10.035-5.385 21.12-10.47c2.52-1.15 5.06-2.37 7.63-3.64z" fill="#59372e"/><path d="m309.6 165.72v.01a239.055 239.055 0 0 0 -29.59 18.26l-.23-.32-17.77-30.2c1.63-1.01 3.28-2 4.93-2.97a288.19 288.19 0 0 1 28.76-14.69l13.84 29.81z" fill="#59372e"/><path d="m295.7 135.8v.01a288.19 288.19 0 0 0 -28.76 14.69l-15.88-22.38v-.01a348.094 348.094 0 0 1 29.97-18.02z" fill="#87685c"/><path d="m279.78 183.67.23.32a312.385 312.385 0 0 0 -25.99 20.92l-.35-.4-21.75-29.62c1.58-1.28 3.17-2.54 4.75-3.77a274.709 274.709 0 0 1 25.34-17.65z" fill="#87685c"/><path d="m262.01 153.47a274.709 274.709 0 0 0 -25.34 17.65l-15.54-20.21a317.728 317.728 0 0 1 29.93-22.79l15.88 22.38c-1.65.97-3.3 1.96-4.93 2.97z" fill="#59372e"/><path d="m221.13 150.91 15.54 20.21c-1.58 1.23-3.17 2.49-4.75 3.77-7.17 5.82-14.37 12.18-21.77 19.19l-15.93-16.83a286.586 286.586 0 0 1 26.91-26.34z" fill="#87685c"/><path d="m177.06 198.62v.01a177.568 177.568 0 0 0 -13.24 21.24 17.833 17.833 0 0 1 -4.66 5.73c-3.27 2.65-8.89 7.24-15.34 12.76 11.85-16.71 9.72-59.57 8.62-73.95a2.172 2.172 0 0 1 3.59-1.81c12.86 11.29 20.83 35.41 21.03 36.02z" fill="#d3876c"/><path d="m194.175 177.25c-6.97 7.8-12.175 15.04-17.175 21.37v.01a166.089 166.089 0 0 0 -13.21 21.24 17.521 17.521 0 0 1 -4.555 5.73c-3.27 2.65-9.235 7.24-15.235 12.76v.01c-10 8.55-22.05 19.35-30.5 28.66-12.37 13.63-49.935 14-70.495 30.48-9.18 7.37-13.563 13.76-16.972 16.82a6.81 6.81 0 0 0 -.212 10.06s-14.035 16.63 2.745 25.64c0 0-5.282 21.943 22.291 24.369l-3.542-36.587a29.994 29.994 0 0 1 8.885-24.3 90.331 90.331 0 0 1 6.76-6c20.56-16.48 58.17-16.85 70.54-30.48 8.45-9.31 20.5-20.11 30.5-28.66v-.01c6-5.52 11.98-10.11 15.25-12.76a17.609 17.609 0 0 0 4.585-5.73 164.219 164.219 0 0 1 13.165-21.242v-.01c3-4.729 7.427-9.966 12.149-15.565z" fill="#b57761"/><path d="m210.15 194.08c7.4-7.01 14.6-13.37 21.77-19.19l21.75 29.62.35.4c-9.53 8.52-17.89 16.93-24.83 24.4l-.3-.27-23.74-30.14c1.68-1.65 3.35-3.25 5-4.82z" fill="#59372e"/><path d="m216.69 243.45c-6.49 7.72-10.05 12.63-10.05 12.63l-10.66-2.05a23.735 23.735 0 0 1 -19.11-25.66c9.95-10.94 19.28-20.7 28.28-29.47l23.74 30.14.3.27c-4.91 5.29-9.11 10.1-12.5 14.14z" fill="#87685c"/><path d="m154.9 296.605a6.728 6.728 0 1 0 8.586-4.1 6.745 6.745 0 0 0 -8.586 4.1z" fill="#59372e"/><g fill="#203a59"><path d="m165.494 286.847a12.725 12.725 0 0 0 -16.251 7.758 12.728 12.728 0 1 0 16.251-7.759zm-3.57 12.259a.713.713 0 0 1 -.377.421.691.691 0 0 1 -.546.028.744.744 0 0 1 -.444-.951.717.717 0 0 1 .377-.42.687.687 0 0 1 .546-.028.743.743 0 0 1 .444.95z"/><path d="m495.017 44.528a6 6 0 0 0 -6.76.059c-.611.425-61.831 42.676-121.193 59.932-1.952.567-3.871 1.131-5.776 1.694 27.1-21.75 63.933-56.266 72.241-88.725a6 6 0 0 0 -9.659-6.088c-.687.573-69.359 57.691-124.218 82.762-62.393 28.516-99.989 65.347-120.967 92.179-3.824-8.693-10.214-20.795-18.693-28.243a8.171 8.171 0 0 0 -13.533 6.772c1.95 25.563 1.061 57.02-7.172 69.485-10.059 8.643-21.853 19.315-30.321 28.646-4.957 5.463-16.566 8.78-28.856 12.293-13.852 3.958-29.551 8.445-40.9 17.543a107.135 107.135 0 0 0 -13.728 13.331c-1.378 1.546-2.568 2.88-3.475 3.691a12.988 12.988 0 0 0 -4.317 9.593 12.682 12.682 0 0 0 .921 4.774c-2.691 4.408-6.039 12.065-3.25 19.893a19.143 19.143 0 0 0 6.836 8.966 25.261 25.261 0 0 0 5.263 16.9c5.962 7.386 16.2 10.963 30.4 10.619a131.339 131.339 0 0 1 47.233 7.623 31.326 31.326 0 0 1 20.423 29.6 342.454 342.454 0 0 1 -4.342 49.9 12.507 12.507 0 0 0 11.6 14.42l172.184 19.807c.151.018.3.028.455.034s.32.01.481.01a12.5 12.5 0 0 0 10.8-18.79c-2.878-4.942-6.762-10.666-11.26-17.294-16.7-24.605-39.571-58.3-32.582-84.333 15.488-57.693 6.089-88.79 1.808-98.766 10.452-16.47 19.718-42.645 6.945-75.827a6 6 0 0 0 -7.948-3.366c-1.223.52-24.175 10.638-39.715 40.905-2.06-1.262-4.451-2.625-6.928-3.819 20.894-23.648 60.925-63.03 108-79.5a593.354 593.354 0 0 0 92.242-42.58c42.11-24.354 65.759-47.175 70.288-67.832a6 6 0 0 0 -2.527-6.268zm-82.912-8.381c-7.86 12.571-19.018 25.092-30.741 36.433l-6.832-8.852c14.573-10.099 27.634-19.885 37.573-27.581zm-47.505 34.353 7.958 10.311c-5.3 4.785-10.577 9.277-15.587 13.373l-9.09-12.861c5.671-3.548 11.267-7.181 16.719-10.823zm-59.96 34.572c1.011-.462 2.027-.939 3.045-1.42l10.948 16.406c-7.1 2.588-13.885 5.25-20.425 8.039l-8.894-15.584q7.515-3.859 15.326-7.441zm-25.907 13.111 8.468 14.839c-6.363 2.992-12.517 6.151-18.54 9.531l-9.117-12.853q9.305-6.01 19.189-11.517zm-29.157 18.207 8.717 12.288c-6.917 4.3-13.714 8.944-20.51 14.047l-8.4-10.929q9.684-8.034 20.193-15.406zm-44.5 37.969q7.279-7.595 15.2-14.715l8.051 10.473c-5.9 4.788-11.836 9.941-17.9 15.53l-8.015-8.472c.873-.933 1.754-1.87 2.661-2.816zm16.158 54.659c-8.223 9.115-14.1 16.5-17.141 20.464l-6.969-1.345a17.637 17.637 0 0 1 -14.369-17.309c7.6-8.312 14.841-15.914 21.856-22.912zm-62.254-28.165c.51-9.193.4-18.258.1-25.589 5.532 8.046 9.5 17.717 11.263 22.406a182.771 182.771 0 0 0 -11.843 19.443 12.137 12.137 0 0 1 -1.609 2.359 150.677 150.677 0 0 0 2.086-18.619zm70.004 54.747a128.094 128.094 0 0 0 -5.459 18.134 6 6 0 0 0 11.71 2.622c7.92-35.387 27.6-52.128 37.413-58.487 6.251 20.957 3.371 40.867-8.6 59.27a91.05 91.05 0 0 1 -23.348 24.277 6 6 0 0 0 6.528 10.069 97.378 97.378 0 0 0 18.808-17.075c3.565 12.73 7.157 39.6-4.778 84.062-8.413 31.337 16.241 67.661 34.243 94.183 4.373 6.444 8.15 12.008 10.819 16.592a.514.514 0 0 1 -.33.749l-172.037-19.79c-.151-.017-.3-.028-.455-.034a.469.469 0 0 1 -.36-.182.493.493 0 0 1 -.112-.409 354.509 354.509 0 0 0 4.486-51.667 43.359 43.359 0 0 0 -7.8-25.112c1.686.1 3.346.159 4.954.159a73.066 73.066 0 0 0 35.388-8.672c14-7.648 20.68-17.68 20.958-18.1a6 6 0 0 0 -10.035-6.581c-.214.326-21.991 32.473-71.989 17.267a143.347 143.347 0 0 0 -51.416-8.275c-10.078.245-17.242-1.862-20.713-6.081a11.3 11.3 0 0 1 -2.005-3.708q2.327.625 4.907 1.112c9.09 1.705 16.607 2.861 22.343 3.435a5.88 5.88 0 0 0 .605.031 6 6 0 0 0 .591-11.97c-5.4-.541-12.571-1.649-21.326-3.291-8.581-1.609-14.016-4.457-15.3-8.018-.825-2.283-.059-5.092 1.04-7.459a17.779 17.779 0 0 0 6.861 1.378 21.6 21.6 0 0 0 10.738-3.072 6 6 0 1 0 -5.968-10.41c-3.806 2.181-6.64 2-9.481-.591a.542.542 0 0 1 -.173-.449.968.968 0 0 1 .321-.711 59.171 59.171 0 0 0 4.428-4.649 95.488 95.488 0 0 1 12.271-11.947c9.467-7.587 23.31-11.543 36.7-15.368 13.983-4 27.189-7.77 34.445-15.767 13.826-15.234 38-35.073 45.077-40.789a23.825 23.825 0 0 0 6.219-7.636c3-5.784 10.8-19.456 25.259-36.468l7.312 7.729c-9.313 9.037-18.984 19.111-29.285 30.438a6 6 0 0 0 -1.532 3.44 29.59 29.59 0 0 0 23.943 32.144l10.653 2.058a6.008 6.008 0 0 0 6-2.369c.115-.159 2.709-3.694 7.389-9.377a63.756 63.756 0 0 1 10.093 5.365zm.523-35.466-16.258-20.637c6-5.7 11.859-10.967 17.655-15.849l14.996 20.417c-6 5.524-11.482 10.952-16.393 16.065zm25.393-24.082-14.671-19.984c6.586-5.143 13.147-9.827 19.8-14.15l12 20.4c-6.023 4.482-11.741 9.104-17.129 13.734zm26.931-20.724-11.6-19.723c7.289-4.28 14.753-8.195 22.538-11.854l8.974 19.327c-6.893 3.785-13.543 7.914-19.912 12.25zm49.217-25.442a185.059 185.059 0 0 0 -18.615 7.711l-8.7-18.744c6.719-2.859 13.705-5.58 21.041-8.227l8.46 18.487c-.747.266-1.476.524-2.186.773zm-1.407-34.951-11.131-16.68c6.337-3.311 12.735-6.906 19.1-10.679l9.959 14.094c-7.507 5.83-13.843 10.397-17.928 13.265zm14.853 29.953-8.339-18.221c6.523-2.19 13.329-4.353 20.465-6.525l9.26 15.873c-7.649 3.348-14.874 6.329-21.386 8.873zm32.392-13.821-8.431-14.453c.652-.19 1.3-.381 1.958-.572 6.985-2.03 13.962-4.381 20.851-6.946l6.949 11.632c-7.201 3.672-14.372 7.133-21.327 10.339zm44.359-22.824c-4.081 2.361-8.222 4.666-12.385 6.908l-6.268-10.493c8.064-3.312 15.935-6.858 23.461-10.482l5 8.21q-4.721 2.914-9.808 5.857zm19.906-12.343-4.311-7.085c15.117-7.729 28.394-15.437 38.444-21.594-7.612 8.991-19.084 18.628-34.133 28.679z"/><path d="m245.3 288.744a5.976 5.976 0 0 0 4.054-1.578 61.239 61.239 0 0 0 19.154-39.352 6 6 0 1 0 -11.989-.516 49.2 49.2 0 0 1 -15.275 31.024 6 6 0 0 0 4.056 10.422z"/></g></svg>