<svg id="Layer_1" height="512" viewBox="0 0 512 512" width="512" xmlns="http://www.w3.org/2000/svg" data-name="Layer 1"><path d="m493.21 350.14c-8.31-12.53-25.88-39.94-38.1-65.53.01-57.17-33.67-84.92-33.67-84.92 8.14-6.71 18.02-10.82 31.4-18.37 61.89-34.91 31.94-77.75 31.94-77.75-52.16-9.95-79.36 14.92-93.83 39.85s-26.2 15.09-26.2 15.09 17.13-85.24 26.99-99.52c10.98-15.91-3.86-33.9-19.87-26.71a20.181 20.181 0 0 0 -11.56 15.62c-5.79 40.3-49.72 98.48-70.93 91.16-22.36-7.72-47.96 1.22-60.15 28.83s-107.69 111.26-146.7 112.88a71.93 71.93 0 0 0 -8.23.81l-39.87 26.14a32.772 32.772 0 0 0 -2.33 4.58s-36.22 60.56 0 53.33c0 0 5.92 29.26 25.91 21.5l.08.18s17.15 24.77 51.08 5.91a62.557 62.557 0 0 1 18.17-6.59c22.94-4.55 76.77-12.52 136.66-2.49 37.75 6.32 66.99-.66 87.29-9.75 0 0 36.29 47.95 63.88 98.21 6.95 12.65 25.52 11.31 30.46-2.25l49.36-105.23a16.726 16.726 0 0 0 -1.78-14.98z" fill="#ead181"/><path d="m292.76 215.85a11.945 11.945 0 1 0 -11.95 11.94 11.939 11.939 0 0 0 11.95-11.94z" fill="#515047"/><path d="m52.1 332.3a32.772 32.772 0 0 1 2.33-4.58c4.48-7.61 16.08-22.41 39.87-26.14a71.93 71.93 0 0 1 8.23-.81c39.01-1.62 134.51-85.27 146.7-112.88s37.79-36.55 60.15-28.83c21.21 7.32 65.14-50.86 70.93-91.16a20.181 20.181 0 0 1 11.56-15.62 18.977 18.977 0 0 1 3.279-1.124c2.686-13.275-9.881-24.893-23.279-18.876a20.181 20.181 0 0 0 -11.56 15.62c-5.79 40.3-49.72 98.48-70.93 91.16-22.36-7.72-47.96 1.22-60.15 28.83s-107.69 111.26-146.7 112.88a71.93 71.93 0 0 0 -8.23.81l-39.87 26.14a32.772 32.772 0 0 0 -2.33 4.58s-36.22 60.56 0 53.33a48.061 48.061 0 0 0 3.969 11.026c-1.228-15.495 16.031-44.356 16.031-44.356z" fill="#b7a46c"/><path d="m74.3 281.58s0 35.14-39.87 26.14c4.48-7.61 16.08-22.41 39.87-26.14z" fill="#6d6754"/><g fill="#203a59"><path d="m280.814 233.787a17.934 17.934 0 1 0 -17.944-17.933 17.958 17.958 0 0 0 17.944 17.933zm0-23.867a5.934 5.934 0 1 1 -5.944 5.934 5.945 5.945 0 0 1 5.944-5.934z"/><path d="m26.727 372.216c.311 0 .639-.015.963-.026 2.186 6.576 7.069 17.105 16.665 20.889a19.538 19.538 0 0 0 7.229 1.38 21.534 21.534 0 0 0 4.325-.459 40.5 40.5 0 0 0 12.534 8.812 39.952 39.952 0 0 0 16.489 3.479c7.592 0 16.7-2.011 27.156-7.82a56.258 56.258 0 0 1 16.416-5.956c20.538-4.072 74.758-12.46 134.5-2.456 37.362 6.257 66.59-.321 86.287-8.293 8.985 12.2 37.94 52.413 60.619 93.722a22.568 22.568 0 0 0 19.942 11.867q.9 0 1.812-.069a22.456 22.456 0 0 0 19.5-14.61l49.255-105q.114-.241.206-.494a22.828 22.828 0 0 0 -2.414-20.354c-8.845-13.331-25.3-39.145-37.126-63.634-.412-44.8-20.441-72.029-30.386-82.81 3.851-2.476 8.228-4.787 13.4-7.511 3.491-1.84 7.447-3.925 11.689-6.317 23.1-13.03 36.892-28.778 40.99-46.806 4.982-21.912-6.5-38.769-7.069-39.594a6.022 6.022 0 0 0 -3.856-2.478c-44.347-8.444-78.958 6.334-100.091 42.738-6.3 10.854-11.268 13.354-13.67 13.878l-.3-.283c6.8-32.862 18.589-82.485 24.884-91.6 6.675-9.668 6.479-21.33-.5-29.712-6.588-7.915-17.1-10.226-26.768-5.887a26.371 26.371 0 0 0 -15.046 20.242c-4.383 30.518-32.082 71.278-51.682 83.239-4.743 2.892-8.775 3.994-11.351 3.105-27.3-9.424-55.091 3.768-67.59 32.077-5.572 12.621-31.472 39.516-61.584 63.95-33.681 27.33-64.289 44.711-79.878 45.36-22.075.919-36.015 10.356-43.823 18.111a55.73 55.73 0 0 0 -11.735 16.714 187.779 187.779 0 0 0 -10.458 20.917c-7.071 16.908-8.126 28.506-3.225 35.456 2.145 3.041 6.185 6.233 13.691 6.233zm40.073-82.732a20.378 20.378 0 0 1 -6.325 9.516c-3.774 3.016-8.907 4.409-15.318 4.174a48.7 48.7 0 0 1 21.643-13.69zm-29.55 25.893a6.475 6.475 0 0 0 .444-.909l.013-.03a56.819 56.819 0 0 0 8.86.758c8.545 0 15.713-2.281 21.4-6.828 7.991-6.389 10.8-15.616 11.794-21.41.986-.084 1.99-.151 3.019-.193 26.4-1.1 69.592-33.956 86.939-48.032 26.111-21.187 57.59-51.636 65-68.422 11.585-26.239 34.816-31.751 52.695-25.581 6.2 2.143 13.44.726 21.517-4.2 24.862-15.172 52.714-59.773 57.311-91.776a14.272 14.272 0 0 1 8.079-11 10.316 10.316 0 0 1 12.632 2.615c2.735 3.287 4.131 9.011-.155 15.218-10.264 14.866-26.155 92.9-27.934 101.748a6 6 0 0 0 2.026 5.777 16.389 16.389 0 0 0 13 3.052c7.976-1.4 15.462-8.033 22.25-19.726 13.162-22.677 31.752-35.53 55.471-38.448-23.511 10.557-38 24.876-46.605 36.578-13.152 17.876-15.873 33.622-15.983 34.284a6 6 0 1 0 11.84 1.957c.089-.541 9.609-53.192 80.907-70.387a40.727 40.727 0 0 1 3.305 26.665c-3.316 14.59-15.154 27.716-35.182 39.014-4.094 2.308-7.8 4.263-11.389 6.152-13.607 7.171-24.368 12.842-33.363 27.187a6.151 6.151 0 0 0 1.355 8.147 6 6 0 0 0 8.713-1.615 49.063 49.063 0 0 1 6.132-8 93.667 93.667 0 0 1 12.074 16.3c7.164 12.129 15.7 32.445 15.7 60.344l.586 2.587c12.176 25.491 29.358 52.454 38.515 66.257a10.785 10.785 0 0 1 1.218 9.388l-49.234 104.952c-.076.161-.144.326-.206.494a10.458 10.458 0 0 1 -9.237 7.022 10.6 10.6 0 0 1 -10.318-5.608c-21.877-39.848-49.466-78.634-60-93.049 18.976-9.742 28.845-20.407 29.279-20.881a6 6 0 0 0 -8.851-8.1c-.1.109-10.24 10.965-29.52 20.094-17.729 8.4-47.107 17.023-86.352 10.451-61.7-10.333-117.635-1.68-138.82 2.52a68.2 68.2 0 0 0 -19.91 7.237c-19.354 10.752-32.078 5.4-38.452.592.215-.149.429-.28.646-.435a59.492 59.492 0 0 1 10.741-5.819 6.182 6.182 0 0 0 3.468-7.794 6 6 0 0 0 -7.963-3.336 71.9 71.9 0 0 0 -13.219 7.18c-5.124 3.656-9.4 4.852-12.711 3.554-4.325-1.7-7.39-7.419-9.159-12.094a66.371 66.371 0 0 0 10.974-5.1c7.6-4.152 15.459-8.446 38.381-10.1 16.472-1.187 26.822-7.306 32.844-13.48a6.028 6.028 0 0 0 -2.443-9.969 5.965 5.965 0 0 0 -6.229 1.62c-3.146 3.442-10.325 8.8-25.035 9.861-25.527 1.84-35.368 7.219-43.275 11.54-4.472 2.444-8 4.374-13.906 5.55-4.174.832-7.2.577-8.084-.682-3.788-5.368 4.39-26.925 14.407-43.691z"/></g></svg>