<svg id="Layer_1" enable-background="new 0 0 512 512" height="512" viewBox="0 0 512 512" width="512" xmlns="http://www.w3.org/2000/svg"><g id="XMLID_43_"><path id="XMLID_44_" d="m425.9 74.2c.6.3 24.4 10.3 33.8 32-41.9-24.3-112.2-13.3-112.2-13.3 20.9-9.5 47.1-17.3 78.4-18.7z" fill="#694a49"/></g><path d="m173.8 366.1-9 .9c-8.9.9-17.7 2.7-26.3 5.3-1.6.5-3.3 1-5 1.4 6.5 22.9 6.1 14.7 10.5 57.5l14.8-22.8 5.9 41c0 .1 29.9-48.2 9.1-83.3z" fill="#8d857e"/><path d="m495.2 77.7c.8.7 1 1.9.3 2.7-.5.6-1.2.9-2 .7-22.1-5.5-44.9-7.8-67.6-6.9-27.1 1.1-53.7 7.5-78.5 18.7-38.1 17.3-58.3 40.3-58.3 40.3l-13.8-1.5c-7.2-.9-14.3-2.6-21.1-5.1-6.4-2.2-14.3-2.4-21.5-1.7v-.4c11.3-19 49.5-55.2 99.8-73.5 47.7-17.3 106.1-18.4 162.7 26.7z" fill="#7c5c5b"/><path d="m461.2 342.9-95.2-97.9c-4.2-85.4-76.8-111.8-76.8-111.8l-13.8-1.5c-7.2-.9-14.3-2.6-21.1-5.1-6.4-2.2-14.3-2.4-21.5-1.7-5.3.5-10.5 1.6-15.5 3.2-4.6 1.6-9.3 2.7-14.1 3.3-3.6.5-7.1 1.3-10.5 2.4-25.9 8.3-42.7 32.1-54.8 50.6-7.1 10.8-15.1 21-24.1 30.4l-85 89.7c-2.3 2.5-4.4 5.2-6.2 8l-.9 40c1 1.1 2.1 2.2 3.3 3.1.1 1 3.1 38.8 59.3 29.2 16.6-2.6 33-6 49.2-10.3 1.7-.5 3.4-1 5-1.4 8.6-2.6 17.4-4.3 26.3-5.3l9-.9 56.1-5.7 1.6-.4c.5 2.1 1.1 4.2 1.9 6.2 6.8 19.1 2.5 32.6-2.8 40.9-2.5 4.1-1.3 9.5 2.8 12 1.1.7 2.4 1.1 3.8 1.3 7.9.8 15.8.6 23.6-.7l7 24.5c6.2 20.1 27.6 31.4 47.7 25.1 1.9-.6 3.8-1.4 5.7-2.3l129.7-64.4c18.9-9.4 26.6-32.2 17.2-51.1-1.8-3.3-4.1-6.6-6.9-9.4z" fill="#b9afa5"/><path d="m332.5 51c-50.3 18.2-88.5 54.5-99.8 73.5v.4c-5.3.5-10.5 1.6-15.5 3.2-4.6 1.6-9.3 2.7-14.1 3.3-3.6.5-7.1 1.3-10.5 2.4 0 0 29.2-80.4 139.9-82.8z" fill="#694a49"/><path d="m200.7 218.2c5.3 0 9.6 4.3 9.6 9.6s-4.3 9.6-9.6 9.6-9.6-4.3-9.6-9.6 4.3-9.6 9.6-9.6z" fill="#694a49"/><path d="m289.2 133.2-13.8-1.5c-7.2-.9-14.3-2.6-21.1-5.1-6.4-2.2-14.3-2.4-21.5-1.7-5.3.5-10.5 1.6-15.5 3.2-4.6 1.6-9.3 2.7-14.1 3.3-3.6.5-7.1 1.3-10.5 2.4-25.9 8.3-42.7 32.1-54.8 50.6-7.1 10.8-15.1 21-24.1 30.4l-85 89.7c-2.3 2.5-4.4 5.3-6.2 8.2l-.9 40.3c1 1.1 2.1 2.1 3.3 3 0 .7 1.6 19.5 21.7 27.3-3.3-6.8-4.9-14.2-4.7-21.7l.5-21.5c.1-5.8 2.4-11.2 6.3-15.4l85-89.8c8.9-9.4 17-19.6 24.1-30.5 12.1-18.6 28.9-42.3 54.8-50.6 3.4-1.1 6.9-1.9 10.5-2.4 4.8-.6 9.5-1.8 14.1-3.3 5-1.6 10.3-2.7 15.5-3.2 7.2-.7 15.1-.5 21.5 1.7 6.8 2.5 13.9 4.2 21.1 5.1l13.8 1.5s13.8 5 29.7 17.8c-22.1-27.7-49.7-37.8-49.7-37.8z" fill="#cbc3bb"/><path d="m45.5 316c2.8 4.9 1 11.1-3.9 13.9-.4.2-.7.4-1.1.5-13.3 5.4-18.8 22.3-18.8 22.3-4.6-5.4-6.5-13-5.4-22.2.8-6.3 2.9-12.4 6.3-17.9 11.9-9.4 18.9-3.7 22.9 3.4z" fill="#7c5c5b"/><g fill="#203a59"><path d="m499 73c-41.5-33-87.7-45.2-137.1-36.1-10.4 1.9-20.6 4.7-30.5 8.3-58.5 1.5-94.5 24.7-114.5 43.9-17.6 17-26 33.7-28.8 40.1-27.9 10.2-45.3 36.8-55.3 52.1-6.9 10.5-14.7 20.4-23.4 29.6l-85 89.7c-7.7 8-12.6 18.3-14.1 29.3-1.4 11.2 1.2 20.8 7.5 27.6l1.5 1.5c1.7 9.3 6.7 17.7 14.1 23.6 8.5 6.7 19.8 10.1 33.7 10.1 6.1 0 12.1-.6 18.1-1.7 1.7-.3 22.8-3.5 44.1-8.9.6 2 1.1 3.6 1.5 5.1 3.3 10.7 3.7 12 7.1 45.7.3 3 2.9 5.4 5.9 5.4 2.1 0 4.1-1.1 5.2-2.9l6-9.3 3.6 25.3c.5 3.3 3.5 5.6 6.8 5.1 1.8-.3 3.3-1.3 4.2-2.8 5.5-9.4 9.9-19.5 13-30 5.7-19.4 5.7-37 .1-51.5l44.3-4.5c.2.5.3 1 .5 1.5 6.1 17.1 2.2 28.8-2.2 35.6-2.7 4.3-3 9.6-.8 14.2s6.7 7.8 11.8 8.3c6.6.7 13.3.7 19.9 0l5.6 19.6v.1c7.2 23.3 31.9 36.3 55.2 29.1 2.3-.7 4.5-1.6 6.6-2.6l130-64.5c21.8-10.8 30.7-37.3 19.9-59.2-2-4.1-4.7-7.9-7.9-11.1l-93.7-96.3c-2.9-44.8-24.2-73.5-41.7-89.7-9.1-8.5-19.4-15.6-30.5-21.3 13.7-12.4 29.2-22.8 45.9-30.9 1.2-.6 2.5-1.2 3.7-1.8 12.9-1.7 25.8-2.4 38.8-2.3 28.7.4 52.5 5.6 68.7 15 2.5 1.5 5.7.9 7.6-1.3 1.5-1.9 1.8-4.4.8-6.6-4.4-10-11.3-17.6-18.1-23.2 15.1.8 30.1 2.9 44.8 6.5 3.7 1 7.5-.7 9.3-4 1.7-3.4.8-7.5-2.2-9.8zm-273.3 24.2c19.2-18.3 43-30.5 71.1-36.3-7.4 4.2-14.7 8.8-21.6 13.7-23.5 16.7-39 33.6-46.2 44.7-4.6.6-9.2 1.7-13.6 3.1-3.8 1.3-7.7 2.3-11.7 2.9 5.8-10.3 13.3-19.8 22-28.1zm-203.5 241.5c-.3-2.5-.2-5 .1-7.4.7-5.1 2.3-10.1 4.9-14.5 3.1-2.3 5.8-3.3 7.7-2.9 2.3.5 4.2 3.1 5.3 5.1.6 1.1.7 2.4.3 3.5s-1.2 2-2.3 2.4c-7.2 2.9-12.4 8.5-16 13.8zm145.7 91.4-3.1-21.6c-.5-3.3-3.5-5.6-6.8-5.1-1.7.2-3.2 1.2-4.2 2.7l-5.6 8.6c-2.1-19.1-3-22-5.8-31.2-.4-1.4-.9-3-1.5-4.8 8-2.4 16.2-4 24.4-4.9l5-.5c9.1 18.9 3.5 41.6-2.4 56.8zm154-268.6c23.6 21.8 36.4 50 38.1 83.8.8 17.1 9 31 17.6 45.7 7 12 15 25.6 20.3 43 .8 2.5 3.1 4.3 5.7 4.3.9 0 1.7-.2 2.5-.5 2.8-1.3 4.2-4.5 3.2-7.5-5.7-18.6-14-32.8-21.3-45.4-3.9-6.4-7.5-13-10.6-19.7l79.2 81.4c7.2 7.3 10.6 17.4 9.2 27.6-1.5 10.4-8 19.4-17.5 24l-129.7 64.4c-15.9 7.9-35.2 1.4-43.1-14.5-.8-1.5-1.4-3.1-1.9-4.7l-5.2-18.3c18.4-4.4 39.7-15.4 58.4-40.2 12-16 17.4-36 14.9-55.9-1.9-15.6-2.8-37.9 3.5-56.2 12.8-36.8-4.1-57.7-4.8-58.6-2.1-2.6-5.9-2.9-8.4-.8-2.6 2.1-2.9 5.9-.8 8.4.5.7 13.1 17 2.7 47.1-7.1 20.4-6.1 44.7-4.1 61.5 2.1 16.8-2.4 33.7-12.6 47.2-27.8 36.9-61.7 39.4-79.4 37.5-1-.1-1.8-.7-2.3-1.6-.4-.8-.4-1.7.1-2.5 5.8-9.1 11.1-24.5 3.3-46.1-11.7-32.7 2.8-94.1 12.1-111.2 11.9-22 23.6-30.8 23.7-30.9 2.7-1.9 3.4-5.6 1.5-8.4-1.9-2.7-5.6-3.4-8.4-1.5 0 0-.1.1-.1.1-.6.4-13.9 10.2-27.2 34.9-8.7 16.2-22.8 69.4-16.2 107.6l-60.1 6.1c-9.3 1-18.4 2.8-27.4 5.5-23.8 7.1-53 11.5-53.3 11.6h-.1c-18.8 3.2-33 1.3-42.2-5.9-2.4-1.8-4.4-4.1-6-6.6 2.8.5 5.6.8 8.4.8h2.1c7.1-.3 25.9-7 31.1-9.6 15.5-7.6 25.1-7.8 29.7-7.2 3.3.4 6.3-1.9 6.7-5.2s-1.9-6.3-5.2-6.7c-7.5-.9-19.4-.1-36.5 8.4-5.1 2.5-21.9 8.2-26.3 8.4-6.8.3-12.4-1.2-16.3-4.2 2.1-4.5 6.6-12.3 13.9-15.2 4.2-1.7 7.5-5.2 9.1-9.5 1.6-4.4 1.1-9.3-1.1-13.4-3.7-6.6-8.1-9.5-11.7-10.6l79.1-83.5c9.2-9.7 17.4-20.1 24.7-31.3 14.6-22.3 32.6-46.4 61.1-50.3 5.2-.7 10.3-1.9 15.2-3.6 7.6-2.6 23.3-5 33.1-1.5 7.3 2.7 14.8 4.5 22.5 5.4l13 1.4c12.5 5.7 24.1 13.3 34.1 22.7zm70.6-77c10.7-2.2 21.6-3.6 32.5-4.2 6.3 3.1 12.2 7.1 17.3 11.8-16.4-5.1-34.1-7.1-49.8-7.6zm-52.8 5.4c-29 14.2-46.9 30.9-52.8 37l-10.8-1.2c-6.8-.8-13.4-2.4-19.8-4.8-3.9-1.3-7.9-2.1-12-2.3 19.1-23.5 64.7-60 119.8-70.1 40-7.3 77.7.4 112.4 22.8-60.4-9.9-107.2 4.1-136.8 18.6z"/><path d="m200.7 212.2c-8.6 0-15.6 7-15.6 15.6s7 15.6 15.6 15.6 15.6-7 15.6-15.6-7-15.5-15.6-15.6zm0 19.2c-2 0-3.6-1.6-3.6-3.6s1.6-3.6 3.6-3.6 3.6 1.6 3.6 3.6-1.6 3.6-3.6 3.6z"/></g></svg>