<svg id="Layer_1" enable-background="new 0 0 512 512" height="512" viewBox="0 0 512 512" width="512" xmlns="http://www.w3.org/2000/svg"><path d="m228.3 317.6c-23.9 24.2-50.6 39.3-68.2 41.4-28 3.3-36.6-9.1-80.2-2-40.6 6.6-41.8-41.4-41.8-42.2-.9 0-1.7 0-2.6 0-31.7.4-15.3-38.4-15.3-38.4-13.4-30.2 11.4-36.4 11.4-36.4 63.9-40.7 28.4-81 28.4-81s-21.6-17.1 0-35.5 125.4-116.2 194.8-104.2c46.3 8 88.4 46.7 111.3 71.6 12.4 13.6 28.4 23.4 46.1 28.5 21.4 6.1 50.9 16 72.9 29.4 10.6 6.5 14.1 20.3 7.8 31l-176.8 302.6c-6.3 10.9-20.2 14.6-31.1 8.3-.3-.2-.6-.4-.9-.6-33.8-22.2-41-59.9-37.9-91.2 3.7-37.1-17.9-81.3-17.9-81.3z" fill="#666a6d"/><path d="m93.9 158.4c4.6 0 8.3 3.7 8.3 8.3s-3.7 8.3-8.3 8.3-8.3-3.7-8.3-8.3c.1-4.6 3.8-8.3 8.3-8.3z" fill="#2c292c"/><path d="m58.2 314.9c-.9 0-1.7 0-2.6 0-31.7.4-15.3-38.4-15.3-38.4-13.4-30.2 11.4-36.4 11.4-36.4 63.9-40.7 28.4-81 28.4-81s-21.6-17.1 0-35.5c19.3-16.5 104.7-96.8 172.2-104.7-69.5-9.2-170.9 86.5-192.3 104.7-21.6 18.4 0 35.5 0 35.5s35.5 40.3-28.4 81c0 0-24.9 6.2-11.4 36.4 0 0-16.4 38.9 15.3 38.4h2.6c0 .9 1.2 48.8 41.8 42.2 1.2-.2 2.4-.4 3.6-.5-24.5-6.8-25.3-41-25.3-41.7z" fill="#808284"/><g fill="#203a59"><path d="m28.9 250.6c-2.5 2.1-2.9 5.9-.8 8.5.2.3.3.6.4.9-.2.2-.4.4-.7.6-2.7 1.9-3.3 5.7-1.4 8.4s5.7 3.3 8.4 1.4c3-2 5.1-5.2 5.6-8.8.4-3.7-.7-7.3-3.1-10.2-2.1-2.6-5.8-3-8.4-.8z"/><path d="m114.9 219.2c1.8-2.8 1-6.5-1.8-8.3-2.7-1.7-6.4-1-8.2 1.7-3.4 5.5-6 11.6-7.7 17.9-3.7 14.1-1.4 26.7 6.4 36.5 9.6 11.9 13 23.1 10.2 33.3-1.2 4.6-3.7 8.8-7.1 12.2-2.5 2.2-2.8 5.9-.7 8.5 2.2 2.5 5.9 2.8 8.5.7.3-.2 28.3-25-1.6-62.1-13.2-16.6 1.8-40.2 2-40.4z"/><path d="m108.2 166.6c0-7.9-6.4-14.3-14.3-14.3s-14.3 6.4-14.3 14.3 6.4 14.3 14.3 14.3 14.3-6.4 14.3-14.3zm-14.3 2.3c-1.3 0-2.3-1-2.3-2.3s1-2.3 2.3-2.3 2.3 1 2.3 2.3-1 2.3-2.3 2.3z"/><path d="m488.2 143.7c-22.7-13.9-53-24.1-74.4-30.1-16.6-4.7-31.7-14-43.3-26.7-21.9-23.8-65.9-65-114.7-73.4-28.7-5-65.9 7-110.4 35.5-35.4 22.7-67.2 50.7-82.5 64.1-2.7 2.4-5.1 4.4-6.8 5.9-7.9 6.8-11.8 14.3-11.7 22.4.2 11.5 9 19.9 11.3 21.9 1.5 1.9 10 13.4 7.8 28.6-2.2 15-13.8 29.3-34.4 42.6-3.1 1-11.8 4.6-16.2 13.7-3.8 7.8-3.5 17.3.9 28.3-2.4 6.5-7.3 23.6.3 34.8 2.7 4.1 8.1 8.8 18.6 9.4 1.1 8.7 4.7 24.9 16.5 34.8 8.3 7 19 9.5 31.8 7.4 24-3.9 36.6-1.7 48.7.4 6.7 1.2 13.2 2.3 21 2.3 3.4 0 6.9-.2 10.3-.6 18.1-2.2 42.7-15.9 65.4-37.1 5.7 13.9 16.5 44.3 13.9 70.3-1.8 18.4 0 36.2 5.4 51.6 6.3 18.6 18.7 34.5 35.2 45.2 4.6 3 10 4.7 15.5 4.7 10.3 0 19.8-5.5 25-14.3l176.8-302.6c7.7-13.6 3.3-30.9-10-39.1zm-.5 33-176.8 302.6c-2.3 4-6.2 6.9-10.7 7.9-4.4 1.1-9 .3-12.8-2.2-15.3-10.1-40.3-34.5-35.2-85.6 3.2-32.3-11.5-68.9-16.7-80.6 14.1-14.7 26-31.5 35.3-49.7 1.5-3 .3-6.6-2.7-8-3-1.5-6.6-.3-8 2.7-26.5 53-76.3 86.5-100.5 89.4-11.1 1.3-18.8 0-27.8-1.6-12.5-2.2-26.7-4.6-52.7-.4-9.3 1.5-16.5 0-22.1-4.7-8.2-6.8-11.1-18.8-12.1-25.9 10-.7 19.9-2.3 29.6-4.7 6.9-1.6 11.9-2.7 15.4-1.8 3.2.8 6.5-1.2 7.3-4.4s-1.2-6.5-4.4-7.3c-6.2-1.6-12.7-.1-20.9 1.8-8.9 2-20.1 4.5-36.2 4.8-8.5.1-10.7-3.1-11.5-4.2-4.6-6.8-.1-21.3 1.8-25.9.6-1.5.6-3.3 0-4.8-3.8-8.5-4.5-15.4-2.1-20.4 2.8-5.9 9.5-7.8 9.5-7.8.6-.2 1.2-.4 1.8-.8 24.2-15.4 37.9-32.8 40.5-51.7 3.1-22.1-10.3-37.7-10.9-38.3-.2-.3-.5-.5-.8-.7-.1-.1-7.2-5.9-7.3-13.2-.1-4.3 2.4-8.7 7.5-13 1.8-1.5 4.1-3.5 6.9-6 30.2-26.6 122-107.4 182.9-96.9 19.4 3.4 59.3 16.9 107.9 69.7 13.2 14.4 30.1 24.8 48.9 30.2 20.7 5.8 49.8 15.6 71.4 28.8 7.5 4.7 10.1 14.8 5.5 22.7z"/><path d="m289.3 102.5c-9.7.5-19.4 7-28.9 19.5-4.2 5.5-7.8 11.3-11 17.5-1.5 3-.3 6.6 2.7 8.1s6.6.3 8.1-2.7c0 0 0-.1.1-.1 3.7-7.6 17.2-29.6 29.7-30.2 5.4-.2 10.8 3.9 15.9 12.3 15.4 25.1 18.6 56 7.8 75.3-6.6 11.8-18 18-33.1 18-8.2 0-15.4-5.9-21.4-17.6-3.1-6.3-5.5-12.9-7.1-19.8-.7-3.2-3.9-5.3-7.1-4.6s-5.3 3.8-4.6 7c.4 1.9 10 47 40.2 47 19.4 0 34.9-8.6 43.6-24.1 12.8-22.8 9.5-58.8-8-87.4-7.8-12.6-16.8-18.7-26.9-18.2z"/><path d="m280.4 191.6c-3-1.4-6.6-.2-8 2.8s-.2 6.6 2.8 8c3.8 2 8 3 12.3 3.1 9.3 0 14.9-6.1 17.2-9.5 10.8-15.7 8.2-47.7-5-60.2-2.8-2.8-6.8-4.1-10.7-3.6-11.1 1.3-21.5 16.2-23.4 19.1-1.8 2.8-.9 6.5 1.8 8.3 2.7 1.7 6.3 1 8.2-1.7 3.6-5.5 10.8-13.4 14.8-13.8.4-.1.8.1 1.1.4 8.9 8.4 10.8 33.9 3.4 44.6-2.3 3.4-6 6.6-14.5 2.5z"/></g></svg>