<svg id="Layer_1" enable-background="new 0 0 512 512" height="512" viewBox="0 0 512 512" width="512" xmlns="http://www.w3.org/2000/svg"><path d="m84.1 429.7c-50.4 6.8-71.5-45.1-67.7-66.9s79.8-88 79-109-8.4-58.4 28.4-66.7c2.6-5.2 5.8-10.1 9.5-14.7 6.4-7.9 13.7-15 21.9-21.1 19.2-14.6 48.7-29.6 93.7-39.9 0 0 17.3-31.3 46.8-7.8 0 0 6.6-14.4 23.5-1.2 0 0 19.9-17.5 65.7-14.5 0 0 3.6-15.7 22.3-7.8 0 0 42.2-16.1 74.1-23.1 6.5-1.4 12.9 2.6 14.3 9.1.3 1.1.3 2.3.3 3.5l-26 358.4c-.4 4.7-3.4 8.8-7.9 10.4-28.8 10.7-76.2-5.6-86.6-16-18.7 11.2-49.3-9.6-49.3-9.6-31 22.7-47.3-2-47.3-2-12.5 6.1-24.2-3.6-24.2-3.6-19.5 4-32.5-4.5-32.5-4.5-8.1 4.2-19.3-.3-19.3-.3-16.8 29.2-49.9 47.3-69.1 52.1-9 2.3-18.6.6-26.3-4.6-16.1-10.8-23.3-20.2-23.3-20.2z" fill="#717d82"/><path d="m141.4 218.9c5.7 0 10.3 4.6 10.3 10.3s-4.6 10.3-10.3 10.3-10.3-4.6-10.3-10.3 4.6-10.3 10.3-10.3z" fill="#424547"/><path d="m136.6 146.6c11.8-6.2 18.6 4.8 18.6 4.8-8.1 6.1-15.5 13.2-21.9 21.1 0-.1-6.7-20.7 3.3-25.9z" fill="#717d82"/><path d="m36.4 382.8c3.8-21.8 79.8-88 79-109s-8.4-58.4 28.4-66.7c2.6-5.2 5.8-10.1 9.5-14.7 6.4-7.9 13.7-15 21.9-21.1 19.2-14.6 48.7-29.6 93.7-39.9 0 0 17.3-31.3 46.8-7.8 0 0 6.6-14.4 23.5-1.2 0 0 19.9-17.5 65.7-14.5 0 0 3.6-15.7 22.3-7.8 0 0 37.1-14.1 68.1-21.7l.6-8.8c.5-6.6-4.5-12.4-11.1-12.8-1.2-.1-2.3 0-3.5.3-31.9 7.1-74.1 23.1-74.1 23.1-18.7-7.8-22.3 7.8-22.3 7.8-45.8-3-65.7 14.5-65.7 14.5-16.9-13.2-23.5 1.2-23.5 1.2-29.5-23.5-46.8 7.8-46.8 7.8-45 10.4-74.5 25.3-93.7 39.9-8.1 6.1-15.5 13.2-21.9 21.1-3.7 4.6-6.8 9.5-9.5 14.7-36.9 8.3-29.2 45.6-28.4 66.7s-75.2 87.2-79 109c-2.7 15.4 7 45.6 30.5 59.8-8.8-14.1-12.2-30.1-10.5-39.9z" fill="#939fa3"/><g fill="#203a59"><path d="m495.8 55c-4.3-3.7-10.1-5.2-15.7-4-28.2 6.2-63.7 19.2-72.8 22.6-7-2.5-13.2-2.4-18.3.3-3.3 1.7-6.1 4.5-7.9 7.8-34.1-1.4-54 8.3-61.8 13.3-6-3.8-11.7-5-17-3.8-2.8.7-5.5 2.1-7.6 4.1-8.8-5.6-17.5-7.6-26-5.9-12.3 2.5-20.3 12.2-23.4 16.7-41.3 9.8-69.7 23.4-89.2 37.2-5.1-4.2-13.1-6.8-22.1-2-11.6 6-8.9 22.6-7.1 29.8-2.6 3.5-4.9 7.1-7 10.9-34.5 9.5-32.2 43.5-30.8 64 .2 2.9.4 5.6.5 8 .3 8.7-22.7 34.7-39.5 53.7-23.2 26.2-37.5 42.9-39.4 54.1-2.4 14.1 3.9 38.4 20.4 55.6 11.5 12.2 27.6 19.1 44.3 19 2.1 0 4.2-.1 6.4-.3 6.7 7.2 14.2 13.5 22.4 18.8 9.1 6.1 20.4 8.1 31.1 5.4 12.2-3 31.4-11.6 48.9-26.6 8.3-7 15.5-15.2 21.4-24.3 2.8.7 5.6 1 8.4 1 2.6 0 5.2-.4 7.7-1.1 7 3.3 14.7 5 22.5 5 3 0 6-.2 8.9-.7 5 3.4 10.9 5.2 17 5.3 2.3 0 4.6-.3 6.8-.9 5 5.2 11.4 8.7 18.5 10 2 .3 3.9.5 5.9.5 8 0 16.4-2.8 25-8.4 6.7 3.9 21.6 11.7 36.2 11.7 4.2.1 8.3-.7 12.2-2.2 11.8 8.4 39.7 18.5 65.2 18.5 8.3.1 16.5-1.2 24.3-3.9 6.6-2.5 11.2-8.5 11.7-15.6l26.1-358.7c.4-5.6-1.9-11.2-6.2-14.9zm-356.4 96.9c1.9-1.2 4.3-1.5 6.4-.8-3.2 2.7-6.1 5.4-8.7 8 0-3.5.6-6.3 2.3-7.2zm350.6-82.8-26.1 358.5c-.2 2.4-1.7 4.4-4 5.2-22.8 8.5-60.2-2.3-75.3-11 7-9.7 7.9-26.3 9-45 1.1-17.8 2.2-38 9.2-51.9 1.5-3 .3-6.6-2.7-8.1s-6.6-.3-8.1 2.7c-8.1 16.1-9.3 37.6-10.4 56.6-1.1 18.1-2.2 36.9-9.4 41.2-10 6-26.4-.2-36.6-5.6 15-19.3 10.9-57.7 7.2-92-2.2-20.6-4.3-40.1-1.3-48.9 1.1-3.1-.5-6.6-3.6-7.7s-6.6.5-7.7 3.6c0 0 0 .1-.1.1-3.9 11.4-1.7 31.2.7 54.1 3.6 33.4 8.1 75-8.5 87.1-9.1 6.7-17.5 9.4-24.9 8.1-3.5-.6-6.8-2.1-9.6-4.4 14.3-12.2 20.7-33.2 21-34.2.9-3.2-.9-6.5-4-7.5-3.2-.9-6.5.8-7.4 4-.1.2-6.1 19.8-18.4 29.4-1 .8-2 1.4-3.1 2-3 1.4-6.4 1.7-9.6.9 3.7-4 7.2-9.6 10.7-17 2.9-6.2 5.4-12.6 7.4-19.1 1-3.2-.7-6.5-3.9-7.5s-6.5.7-7.5 3.9v.2c-5.9 19.5-14.9 33.6-19.6 34.6-7 1.5-14.2 1.3-21.1-.7 2.4-5 5-14.8 7.3-36.4 1.7-16 2.5-31.2 2.5-31.3.2-3.3-2.4-6.1-5.7-6.3s-6.1 2.4-6.3 5.7c-1.3 27.2-5.3 59.4-9 63.9-2.2 2.2-6 2.5-9.4 2.2 3.5-7.4 5.8-15.3 6.8-23.4.4-3.3-1.9-6.3-5.2-6.7s-6.3 1.9-6.7 5.2c-1.2 9.1-4.2 17.8-8.8 25.8-.1.2-.2.4-.3.6-16.3 28.1-48.9 44.9-65.2 49-7.4 1.8-15.2.5-21.5-3.7-5.3-3.5-10.3-7.4-14.9-11.7 9.6-3 18-8.9 24-16.9 16.3-21.8 11.9-53.1 11.7-54.4-.5-3.3-3.5-5.5-6.8-5s-5.5 3.5-5 6.8c0 .3 4 27.6-9.4 45.4-6.1 8.2-15.2 13.1-26.8 14.7-21.6 2.9-35.8-6.4-43.8-14.7-13.1-13.6-19.1-34.1-17.2-45.2 1.5-8.6 20.9-30.6 36.6-48.2 26.8-30.2 43-49.4 42.5-62-.1-2.6-.3-5.4-.5-8.4-1.5-21.3-1.3-38.9 12.7-47.7 0 .2-.1.4-.1.5-.5 3.3 1.7 6.4 5 6.9s6.4-1.7 6.9-5c.8-3.3 2-6.6 3.6-9.6.2-.3.3-.6.5-1 8.9-17.4 36.3-51.9 117.9-71.3 21.9 19.3 22.3 54.1 22.3 54.5 0 3.3 2.7 6 6 6s6-2.7 6-6c0-1.7-.3-38.9-24.7-62 2.8-3.4 7.7-8 14.1-9.3 6.1-1.2 12.8.9 19.9 6.3 12.9 27.7 9 52.9 8.9 53.2-.5 3.3 1.7 6.4 5 6.9 3.2.5 6.3-1.7 6.9-4.9.2-1.2 4.5-27.9-9-58.3.7-.7 1.5-1.1 2.4-1.3 2.4-.5 5.8.8 9.7 3.6 9 14.6 8.8 33.1 8.8 33.4-.1 3.3 2.6 6 5.9 6.1h.1c3.3 0 5.9-2.6 6-5.9 0-.9.3-19.2-8.4-36 7.2-4.2 24.4-11.8 53.9-10.5 2 6 1.5 16.4.5 22.4-.5 3.3 1.7 6.3 5 6.9.3.1.6.1 1 .1 2.9 0 5.4-2.1 5.9-5 .3-2.1 3-19.5-2-30.5.6-1.2 1.6-2.3 2.9-2.9 2.4-1.2 5.7-.7 8.5.2 5.4 12.5 3.4 41.2 2.1 51.7-.4 3.3 1.9 6.3 5.2 6.7h.7c3 0 5.6-2.3 5.9-5.3.5-4 4.2-35.7-1.7-54.5 12.6-4.6 43.3-15.4 67.5-20.7 3.2-.7 6.4 1.3 7.2 4.5-.2 0-.2.6-.2 1.2z"/><path d="m306.9 203.4c.8-3.2-1.2-6.5-4.4-7.3-3.1-.8-6.3 1.1-7.2 4.2-.3 1.2-7.8 30.4-.1 69.6 7.8 39.4-4.4 59.1-4.5 59.3-1.8 2.8-1.1 6.5 1.7 8.3s6.5 1.1 8.3-1.7c.6-.9 15.1-23.5 6.2-68.2-7.1-36.4-.1-64 0-64.2z"/><path d="m141.4 212.9c-9 0-16.3 7.3-16.3 16.3s7.3 16.3 16.3 16.3 16.3-7.3 16.3-16.3c0-9.1-7.3-16.3-16.3-16.3zm0 20.5c-2.4 0-4.3-1.9-4.3-4.3s1.9-4.3 4.3-4.3 4.3 1.9 4.3 4.3-2 4.3-4.3 4.3z"/><path d="m56.1 378.2c-3.6-1.5-4.7-4-3.3-7.5 1.3-3-.1-6.6-3.1-7.9s-6.6.1-7.9 3.1c-.3.7-2.9 7.1-.3 13.8 1.2 2.9 3.9 7 10 9.5 3.1 1.3 6.6-.2 7.8-3.2 1.3-3-.1-6.5-3.2-7.8z"/><path d="m227.8 177.3c.1-12.5.1-26.6-15.8-31.8-5.6-2-11.9-1.3-17 1.9-14.2 9.1-17.8 35.9-18.1 38.9-.4 3.3 2 6.3 5.2 6.7 3.3.4 6.3-2 6.7-5.2.7-6.2 4.7-25.1 12.7-30.3 2-1.3 4.5-1.5 6.8-.6 7 2.3 7.5 6.8 7.5 20.3 0 6.2-.1 13.2 1.3 20.6-8.2-2.5-16.9-2.6-25.2-.4-3.2 1-5 4.3-4 7.5s4.3 5 7.5 4c.8-.2 18.6-5.2 29.7 8.3 2.1 2.6 5.9 2.9 8.4.8 2.4-1.9 2.9-5.4 1.2-7.9-7-10.8-6.9-22.5-6.9-32.8z"/><path d="m210.4 173.1c2.4-2.2 2.6-6 .4-8.5s-6-2.6-8.5-.4c-.8.7-8 7.6-7.4 18.1.2 3.2 2.8 5.6 6 5.6h.4c3.3-.2 5.8-3.1 5.6-6.4-.3-4.7 3.4-8.3 3.5-8.4z"/></g></svg>