<svg id="Layer_1" height="512" viewBox="0 0 512 512" width="512" xmlns="http://www.w3.org/2000/svg" data-name="Layer 1"><path d="m487.34 177.407c-47.78-3.57-92.68-34.58-92.68-34.58-6.48-51.66-35.85-72.05-51.37-79.32a5.343 5.343 0 0 0 -7.55 5.72 81.057 81.057 0 0 1 .63 23.18 55.127 55.127 0 0 1 -4.49 16.14 236.728 236.728 0 0 0 -41.65 12.05c-45.15 17.61-87.04 48.96-133.55 91.49-22.8 20.85-17.07 29.16-45.88 40.3 0 0-69.58 32.74-77.39 39.12a63.146 63.146 0 0 0 -12.44 13.11l.01.01 15.15 39.9-.03.13s14.32 38.71 50.29 40.76c0 0 34.48 29.55 66.41 24.73l129.85-24.73s121.94 42.6 162.77 79.06a9.324 9.324 0 0 0 15.5-5.69l35-270.89a9.324 9.324 0 0 0 -8.58-10.49z" fill="#bc936f"/><circle cx="185.64" cy="255.937" fill="#54483f" r="7.2"/><path d="m336.37 92.72a55.127 55.127 0 0 1 -4.49 16.14 236.728 236.728 0 0 0 -41.65 12.05 74.827 74.827 0 0 1 .79-31.52c4.19-16.86-8.58-31.45-7.67-42.39s43.13 21.24 53.02 45.72z" fill="#d1ab8f"/><path d="m343.29 63.507a5.343 5.343 0 0 0 -7.55 5.72 81.057 81.057 0 0 1 .63 23.18 55.127 55.127 0 0 1 -4.49 16.14 236.728 236.728 0 0 0 -41.65 12.05c-45.15 17.61-87.04 48.96-133.55 91.49-22.8 20.85-17.07 29.16-45.88 40.3 0 0-69.58 32.74-77.39 39.12a63.146 63.146 0 0 0 -12.44 13.11l.01.01.151.4c2.246 1.273 8.869 5.373 20.319-3.467 2.392-1.847 6.51 1.421 10.1 6.38 21.843-11.657 66.252-32.553 66.252-32.553 28.81-11.14 23.08-19.45 45.88-40.3 46.51-42.53 88.4-73.88 133.55-91.49a236.728 236.728 0 0 1 41.65-12.05 55.127 55.127 0 0 0 4.49-16.14 81.057 81.057 0 0 0 -.63-23.18 5.343 5.343 0 0 1 7.55-5.72c11.595 5.432 30.918 18.193 42.653 45.84-8.861-43.981-35.232-62.084-49.655-68.84z" fill="#a07f67"/><path d="m57.26 318.84c3.55 10.47-1.86 22.13-12.37 25.58a15.647 15.647 0 0 1 -8.76.42c-5-1.22-10.37-5.15-16.07-13.36-6.51-9.36-4.44-18.57.91-26.55l.01.01c2.09 1.16 8.76 5.66 20.47-3.38 3.95-3.05 12.61 7.84 15.81 17.28z" fill="#54483f"/><g fill="#203a59"><path d="m360.185 104.653a6 6 0 1 0 -8.548 8.422c.3.309 30.155 31.544 8.162 90.22a6 6 0 1 0 11.236 4.211c24.655-65.773-9.388-101.369-10.85-102.853z"/><path d="m185.643 243.051a13.2 13.2 0 1 0 13.2 13.2 13.215 13.215 0 0 0 -13.2-13.2zm0 14.4a1.2 1.2 0 1 1 1.2-1.2 1.2 1.2 0 0 1 -1.2 1.201z"/><path d="m487.792 171.735c-39.742-2.97-78.114-26.062-87.532-32.094a128.239 128.239 0 0 0 -9.667-34.341c-12.8-28.566-33.537-41.654-44.759-46.915a11.345 11.345 0 0 0 -16.012 12.146c.05.3.1.608.148.922a146.876 146.876 0 0 0 -15.24-15.734c-7.688-6.829-21.843-18.1-30.343-16.808a8.107 8.107 0 0 0 -7.012 7.59c-.484 5.817 1.7 11.617 4.008 17.757 2.872 7.635 5.842 15.529 3.818 23.692a82.171 82.171 0 0 0 -1.664 29.13c-40.074 16.5-80.824 45.1-130.91 90.9a129.8 129.8 0 0 0 -17.533 19.6c-6.181 8.19-9.911 13.133-26.46 19.529-.133.051-.264.107-.392.168-11.731 5.521-70.652 33.392-78.626 39.9-26.451 21.6-20.43 39.179-14.485 47.732q7.784 11.2 16.427 14.757c4.063 9.156 19.7 38.9 52.487 41.9 6.7 5.378 33.573 25.429 61.508 25.429a54.611 54.611 0 0 0 8.145-.6c.075-.012.152-.025.227-.04l128.256-24.429c14.043 5.008 122.181 44.239 159.244 77.336a15.36 15.36 0 0 0 15.635 2.962 15.231 15.231 0 0 0 9.807-12.359l35-270.887a15.33 15.33 0 0 0 -14.08-17.244zm-179.98-106.1c10.394 9.426 18.629 19.723 22.369 27.9a50.541 50.541 0 0 1 -2.621 10.083 241.512 241.512 0 0 0 -32.414 9.025 69.514 69.514 0 0 1 1.7-21.8c2.922-11.784-1.046-22.331-4.234-30.806-1.008-2.677-1.983-5.272-2.611-7.586 4.005 2.125 10.318 6.388 17.811 13.184zm-282.828 262.423q-5-7.2-1.377-15.576c6.226 1.568 12.836-.053 19.721-4.856 2.3 1.946 6.276 7.32 8.253 13.145a14.6 14.6 0 0 1 -.758 11.141 13.342 13.342 0 0 1 -7.8 6.8c-2.365.78-8.658 2.843-18.039-10.654zm464.988-140.616-35 270.886a3.152 3.152 0 0 1 -2.1 2.652 3.32 3.32 0 0 1 -3.453-.668c-31.384-28.024-107.495-58.842-144.319-72.752l30.823-5.87a82.83 82.83 0 0 0 17.838-5.523 213.923 213.923 0 0 0 45.917-27.356 6 6 0 0 0 -7.459-9.4 205.282 205.282 0 0 1 -43.292 25.773 70.706 70.706 0 0 1 -15.249 4.716l-181.878 34.647c-16.436 2.432-34.059-5.461-46.212-12.725 41.936-1.578 89.4-13.269 91.7-13.843a6 6 0 0 0 -2.9-11.645c-.638.159-64.365 15.859-107.66 13.4-22.183-1.261-35.358-18.821-41.268-29.242.433-.117.865-.231 1.3-.374a25.261 25.261 0 0 0 14.794-12.841 26.669 26.669 0 0 0 1.387-20.362c-2.554-7.531-9.556-19.166-17.123-21.45a8.7 8.7 0 0 0 -8.036 1.345 28.145 28.145 0 0 1 -4.077 2.674q1.635-1.5 3.5-3.017c5.257-4.294 49.292-25.7 75.955-38.252 19.574-7.6 24.845-14.582 31.512-23.415a117.876 117.876 0 0 1 16.052-17.971c62.118-56.8 109.188-86.377 158.476-98.98-15.89 25.381-6.774 60.445-6.356 62a6 6 0 0 0 11.591-3.1c-.091-.345-8.967-34.688 6.955-55.476 13.17-17.2 12.351-39.157 10.464-51.486 22.58 11.076 68.6 48.641 37.873 164.611a6 6 0 1 0 11.6 3.075c8.191-30.91 11.644-58.6 10.374-82.861 16.359 9.557 49.737 26.441 85.2 29.092a3.339 3.339 0 0 1 2.358 1.226 3.287 3.287 0 0 1 .713 2.512z"/></g></svg>