<svg id="Layer_1" enable-background="new 0 0 512 512" height="512" viewBox="0 0 512 512" width="512" xmlns="http://www.w3.org/2000/svg"><path d="m443.5 347.6c-18.2-7.1-43.9-17.4-70-28.7-41.6-18.1-51.9-36.5-71.1-80.8-18-41.6-60.3-75.9-60.3-75.9s11.5-14.3 28.7-36.7 9.8-48 13.7-70.8c2-12-.1-20.7-2.6-26.3-2.3-5-8.2-7.2-13.2-4.9-48.8 22.1-56.8 78.6-56.5 99.8v.7c0 14.2-10.2 26.4-24.3 28.7-8.5 1.4-16.7 4.6-23.8 9.6-7 4.9-12.8 11.2-17.1 18.6-6.4 10.7-10.2 12.5-28.7 37.1-6.4 8.5-9.5 25.4-10.7 34.2-.8 5.6-2.4 11-4.7 16.2-9.2 20.8-29.9 55.5-38.7 68.9l2 22s-1.9 15.9 24.7 16.2c0 0 10.7 28.3 39 10.2 21.8-14 21.2-29.9 40.5-37.5 14.1-5.5 18.1-4.3 25.9-5.1.3 1.2 21.1 103 62.1 148.1 5 5.5 13.4 6.4 19.5 2.1l168.8-119.7c6.7-4.7 8.2-14 3.5-20.6-1.7-2.5-4-4.3-6.7-5.4z" fill="#c98d70"/><path d="m174.2 17.5c7.6 8.5 28.8 38 23.5 97.2-1.2 13.5 2.6 26.2 5.8 30-4.3 4.3-9.7 7.1-15.7 8.1-8.5 1.4-16.7 4.6-23.8 9.6 0 0 2.7-11.4-6.3-27.1-8.7-15.2-15.4-98.3 10.4-118.3 1.8-1.5 4.5-1.3 6.1.5z" fill="#a06d58"/><path d="m165.9 246.8c5 0 9 4 9 9s-4 9-9 9-9-4-9-9 4-9 9-9z" fill="#61412b"/><path d="m281.8 28.4c-2.3-5-8.2-7.2-13.2-4.9-48.8 22.1-56.8 78.6-56.5 99.8v.7c0 14.2-10.2 26.4-24.3 28.7-8.5 1.4-16.7 4.6-23.8 9.6-7 4.9-12.8 11.2-17.1 18.6-6.4 10.7-10.2 12.5-28.7 37.1-6.4 8.5-9.5 25.4-10.7 34.2-.8 5.6-2.4 11-4.7 16.2-9.2 20.8-29.9 55.5-38.7 68.9l2 22s-1.1 9.5 10.6 14c9.8-15.4 27.6-45.9 36-64.8 2.3-5.2 3.9-10.6 4.7-16.2 1.2-8.9 4.3-25.7 10.7-34.2 18.5-24.6 22.3-26.4 28.7-37.1 4.3-7.3 10.2-13.7 17.1-18.6 7.1-4.9 15.2-8.2 23.8-9.6 14-2.4 24.3-14.5 24.3-28.7 0-.2 0-.4 0-.7-.3-21.3 7.7-77.8 56.5-99.8 1.6-.7 3.3-1 5-.9.2-2.7.5-5.3.9-7.9 2.1-12.1 0-20.8-2.6-26.4z" fill="#e5a389"/><path d="m64.1 337.2s29.6 9.3 2 22c0 0-12-7.7-4.6-18.1.7-1 1.6-2.3 2.6-3.9z" fill="#61412b"/><g fill="#203a59"><path d="m445.6 342c-17.2-6.7-43.3-17.1-69.8-28.6-39-16.9-48.5-32.9-68-77.6-15.1-34.7-45.9-64.1-57.5-74.3 4.7-5.9 13.7-17.4 25.2-32.3 13-17 13.3-35.7 13.5-52.3.1-7.5.2-14.5 1.3-21.2 2.3-13.9-.4-23.9-3.1-29.8-3.7-8-13.2-11.5-21.2-7.9-48.2 21.8-60.4 76.5-60 105.4v.6c0 2.6-.4 5.3-1.3 7.8-1.2-5.4-1.6-11-1.1-16.6 5.4-60.4-15.6-91.2-25-101.7-3.7-4.1-9.9-4.6-14.2-1.3-8.9 6.9-19.7 23.9-20.5 65.6-.5 25.2 3.2 51.1 8.5 60.3 5.6 9.8 6.1 17.4 5.9 20.8-6.7 5.2-12.3 11.5-16.7 18.8-3.1 5.2-5.5 8-9.8 13.2-4.1 4.8-9.6 11.5-18.5 23.4-6.8 9.1-10.2 25.1-11.9 37-.7 5-2.1 10-4.2 14.6-10.3 23.3-34.8 63.6-40.7 71.7-2.9 3.8-4.1 8.6-3.3 13.3 1 5.2 4.4 9.1 6.8 11.3.5 3.7 2.1 7.2 4.6 10 4.6 5.3 12.1 8.4 22.2 9.1 2.5 4.6 7.9 12.1 17 15.1 2.7.9 5.4 1.3 8.2 1.3 6.5 0 13.5-2.3 20.8-7 11.4-7.3 17.1-14.9 22.1-21.7 5-6.7 8.9-11.9 17.4-15.2 9.9-3.9 14-4.1 19-4.3 4.9 21.7 25.4 105.1 62.5 145.8 7.1 7.8 18.8 9 27.4 2.9l168.8-119.7c9.4-6.7 11.6-19.6 4.9-29-2.2-3.4-5.5-6-9.3-7.5zm-289.6-264c.5-27.3 5.9-47.3 14.7-55.4 24.5 28.8 22.3 77.2 21 91.5-1 11.2 1 22.1 4.1 29.1-2.7 1.8-5.8 3-9 3.6-5.8 1-11.5 2.7-16.8 5.2-1.1-7-3.5-13.7-7.1-19.8-3.1-5.5-7.4-27.9-6.9-54.2zm-89 274c-.9-.9-1.5-2.1-1.8-3.3-.2-.8-.2-2.1 1.2-4.1 2.6 1.2 4.7 2.7 5.4 3.7-.4.5-1.5 1.8-4.8 3.7zm376.2 16.6-168.8 119.8c-3.6 2.6-8.6 2-11.6-1.2-34-37.3-54.1-116.5-59.3-139.1 1.6-.3 3.4-.8 5.5-1.3 25-6.7 30.6-30.9 30.1-42.7-.1-3.3-2.9-5.9-6.2-5.8s-5.9 2.9-5.8 6.2v.1c0 1 .8 24.6-21.2 30.6-3.3.9-6.7 1.6-10.1 1.9h-.1c-1.6.2-3 .2-4.5.3-5.5.3-11.1.5-23 5.2-11.7 4.6-17.2 12-22.6 19.2-4.6 6.2-9.4 12.7-18.9 18.8-7.2 4.6-13.5 6.1-18.7 4.4-2.4-.8-4.6-2.3-6.4-4.1 19-2.1 31.9-11.1 38.4-26.6 1.3-3.1-.2-6.6-3.2-7.9s-6.6.2-7.9 3.2c-5.8 13.8-17.8 20.1-37.9 19.8-10.3-.1-14.9-2.8-16.9-5-.5-.6-1-1.2-1.3-1.9 5-2.8 11.6-7.7 11.1-15-.3-4.9-3.7-9.2-10.1-12.7-.3-.1-.5-.3-.8-.4 10-16 27.1-45.1 35.3-63.7 2.5-5.7 4.2-11.7 5.1-17.8 2.1-14.6 5.6-26 9.6-31.4 8.7-11.6 14.1-18.1 18.1-22.8 4.4-5.3 7.4-8.8 10.9-14.8 7.9-13.5 21.3-22.7 36.7-25.3 17-2.8 29.4-17.5 29.3-34.7v-.7c-.2-11.5 2.2-29.9 9.4-47.2 7.7-18.6 19.2-32.7 34.2-42-1.9 20-5.1 39.8-9.5 59.4-6.5 28-30.3 53.7-30.6 53.9-2.3 2.4-2.2 6.2.2 8.5s6.2 2.2 8.5-.2c1.1-1.1 26.3-28.2 33.5-59.4 5-22.1 8.4-44.6 10.3-67.2 1 .4 1.7 1.1 2.2 2 2 4.4 4 12 2.2 22.8-1.3 7.6-1.4 15.5-1.5 23-.2 16.1-.4 31.3-11 45.1-16.9 22.1-28.5 36.5-28.6 36.6-2.1 2.6-1.7 6.3.9 8.4.4.3 41.3 33.9 58.6 73.7 20.1 46.2 31.6 65.4 74.2 83.9 26.7 11.6 52.9 22.1 70.2 28.8 4.5 1.8 6.8 6.9 5 11.4-.5 1.5-1.6 2.9-3 3.9z"/><path d="m165.9 240.8c-8.3 0-15 6.7-15 15s6.7 15 15 15 15-6.7 15-15c-.1-8.3-6.8-15-15-15zm0 18c-1.6 0-3-1.3-3-3 0-1.6 1.3-3 3-3 1.6 0 3 1.3 3 3-.1 1.6-1.4 3-3 3z"/></g></svg>