<svg id="Layer_1" height="512" viewBox="0 0 512 512" width="512" xmlns="http://www.w3.org/2000/svg" data-name="Layer 1"><path d="m389.2 179.36c.84.15 51.6 9.09 95.19 10.96a12.079 12.079 0 0 1 11.23 15.03l-65.07 256.9a12.058 12.058 0 0 1 -21.5 4.08c-28.44-40.23-84.67-35.25-84.67-35.25l-.31-.48c-41.54 27.19-89.47 24.42-122.66 16.45a79.48 79.48 0 0 0 -33.04-.84c-91.64 16.85-91.64-36.21-91.64-36.21a82.583 82.583 0 0 0 10.55-.6c10.84-38.83-18.92-27.95-10.55-56.24s-16.64-73.55-16.64-73.55a78.507 78.507 0 0 0 12.4-15.53c16.95-28.59 62.88-154.88 175.95-150.64-2.01-6.71-2.53-13.73-2.52-22.49.01-22.11 7.04-52.07 35.49-50.25 61.94 3.95 104.32 60.22 92.72 124.52a111.032 111.032 0 0 1 15.06 14.14z" fill="#b3c5c9"/><path d="m146.71 275.27a13.065 13.065 0 1 1 -13.07 13.07 13.068 13.068 0 0 1 13.07-13.07z" fill="#5e5e5e"/><path d="m80.09 301.6a78.542 78.542 0 0 0 12.4-15.535c16.95-28.59 62.88-154.892 175.95-150.652-2.01-6.709-2.53-13.752-2.52-22.512.01-22.11 7.04-52.115 35.49-50.295a99.853 99.853 0 0 1 56.869 21.859c-16.716-24.884-44.045-41.672-76.869-43.765-28.45-1.82-35.48 28.14-35.49 50.25-.01 8.76.51 15.78 2.52 22.49-113.07-4.24-159 122.05-175.95 150.64a78.507 78.507 0 0 1 -12.4 15.53 190.7 190.7 0 0 1 12.476 29.172c2.556-2.371 5.084-4.727 7.524-7.182z" fill="#8e9da0"/><path d="m76.73 353.16c-8.37 28.29 21.39 17.41 10.55 56.24a82.583 82.583 0 0 1 -10.55.6c-28.36-.11-64.7-13.5-60.38-53.82 5.02-46.82 26.56-59.31 43.74-76.57 0 0 25 45.26 16.64 73.55z" fill="#5e5e5e"/><path d="m36.35 378.177c4.307-40.171 20.774-55.072 36.216-69.4a190.7 190.7 0 0 0 -12.476-29.167c-17.18 17.26-38.72 29.75-43.74 76.57-2.424 22.62 7.95 36.765 22.537 44.844-2.468-6.41-3.487-13.976-2.537-22.847z" fill="#3d3f3f"/><g fill="#203a59"><path d="m59.042 372.132c-.666.376-6.558 3.874-8.126 10.629-.7 3.013-.751 7.75 2.982 13.2a6 6 0 0 0 9.9-6.777c-1.009-1.473-1.414-2.71-1.205-3.676a5.724 5.724 0 0 1 2.412-2.97 6 6 0 0 0 -5.966-10.411z"/><path d="m146.709 269.273a19.064 19.064 0 1 0 19.071 19.065 19.089 19.089 0 0 0 -19.071-19.065zm0 26.128a7.064 7.064 0 1 1 7.071-7.063 7.074 7.074 0 0 1 -7.071 7.062z"/><path d="m300.673 70.517c-12.313-3.358-21.442-1.871-27.136 4.418-11.437 12.63-1.816 39.024-.682 41.992a6 6 0 0 0 11.21-4.285c-2.759-7.217-6.789-23.959-1.633-29.653 3-3.32 9.862-2.318 15.085-.894 13.448 3.666 26.378 15.651 34.587 32.061a82.018 82.018 0 0 1 5.961 58.23 6 6 0 1 0 11.581 3.144c13.047-48.066-15.612-95.919-48.973-105.013z"/><path d="m484.653 184.322c-38.148-1.64-82.425-8.841-92.365-10.522a113.364 113.364 0 0 0 -11.667-11.037 126.456 126.456 0 0 0 1.3-13.188 114.638 114.638 0 0 0 -12.706-58.465c-17.293-32.928-49.974-54.014-87.42-56.4-10.448-.657-19.265 2.3-26.206 8.8-13.617 12.767-15.664 35.2-15.672 47.431a106.2 106.2 0 0 0 1.027 16.414c-40.967.559-77.736 17.9-109.371 51.661-27.505 29.356-45.472 65.2-56.207 86.617-3.18 6.342-5.925 11.819-8.037 15.383-5.138 8.664-12.024 15.05-19.316 21.812-15.527 14.4-33.125 30.716-37.627 72.713-2.49 23.231 7.429 41.687 27.93 51.965 10.1 5.063 21.89 7.716 33.128 8.393a44.407 44.407 0 0 0 15.278 25.279c17.063 14.212 44.9 17.886 82.733 10.929a73.263 73.263 0 0 1 30.556.772 200.183 200.183 0 0 0 46.34 5.652 159.148 159.148 0 0 0 42.594-5.589 136.793 136.793 0 0 0 36.254-15.91c4.218-.286 53.8-2.811 78.953 32.763a17.75 17.75 0 0 0 14.58 7.592 18.578 18.578 0 0 0 3.383-.314 17.93 17.93 0 0 0 14.255-13.349l65.071-256.907a18.084 18.084 0 0 0 -16.788-22.5zm-402.153 219.524c-1.707.114-3.476.175-5.292.179-.158-.012-.316-.024-.477-.024-.137 0-.271.012-.405.02-10.472-.086-22.363-2.1-32.627-7.242-16.158-8.1-23.35-21.545-21.376-39.958 4.023-37.531 19.188-51.593 33.854-65.193q1.116-1.033 2.236-2.079c7.364 15.545 17.882 43.927 12.564 61.91-4.823 16.313 1.385 23.145 6.374 28.635 4.488 4.944 8.411 9.276 5.149 23.752zm407.309-199.975-65.072 256.906a6.024 6.024 0 0 1 -4.813 4.5 5.889 5.889 0 0 1 -5.973-2.407c-20.2-28.574-52.794-35.9-72.771-37.564q20.985-17.846 36.292-45.008a6 6 0 1 0 -10.46-5.881c-45.8 81.449-122.532 76.81-164.2 66.8a85.172 85.172 0 0 0 -35.532-.906c-33.506 6.165-58.635 3.337-72.67-8.172a32.629 32.629 0 0 1 -10.866-16.292c11.65-.839 21.584-3.916 26.717-8.681 9.19-8.529 36.824-7.5 52.084-4.839a6 6 0 0 0 2.065-11.821c-4.638-.811-45.779-7.48-62.312 7.865-1.412 1.31-3.935 2.5-7.246 3.452 2.571-17.231-3.908-24.378-8.829-29.795-4.292-4.722-6.656-7.324-3.747-17.162 7.561-25.571-9.03-62.161-15.08-74.2a79.536 79.536 0 0 0 10.251-13.522c2.328-3.927 5.026-9.31 8.442-16.125 21.664-43.218 66.4-132.5 158.038-131.669 2.868 7.34 7.567 14.7 15.164 23.5a6 6 0 0 0 9.086-7.84c-13.99-16.216-16.476-25.64-16.464-44.055 0-8.288 1.174-28.648 11.879-38.685 4.49-4.21 10.125-6.045 17.235-5.581a93.548 93.548 0 0 1 77.56 50.006c10.719 20.41 13.922 43.453 9.8 66.8a5.979 5.979 0 0 0 -.245 1.351 134.521 134.521 0 0 1 -17.142 44.073 6 6 0 1 0 10.293 6.168 148.434 148.434 0 0 0 16.544-38.807c17.37 16.175 29.2 38.28 31.846 82.86a6 6 0 0 0 5.984 5.643c.12 0 .24 0 .361-.011a6 6 0 0 0 5.634-6.345c-1.979-33.3-9.22-55.137-18.916-70.8 18.557 2.847 51.748 7.4 81.4 8.678a6.111 6.111 0 0 1 4.659 2.461 5.96 5.96 0 0 1 1.004 5.105z"/></g></svg>