<svg id="Layer_1" enable-background="new 0 0 512 512" height="512" viewBox="0 0 512 512" width="512" xmlns="http://www.w3.org/2000/svg"><path d="m455.7 216.3c-21-4.6-56.2-18.8-70.4-62.1-5.7-17.5-12.4-33.6-20.4-47.6l-155.1 7.7c-1.2-7.3-3.4-14.5-6.4-21.2 33.6-10.8 20.2-39 0-46.8-22.3-8.5-19.1 30.2-19.1 30.2s-27.8-7.2-48.5 9.4c-6.7 5.5-11.9 12.6-15.1 20.6-14.2 33.5-52.6 52.1-67.3 58.1-3.8 1.5-6 5.5-5.3 9.5 1.1 6 7.3 17.5 16.2 17.5l.2.1c-4.2 7.6-4.7 19.1 10 35.2 0 0 2.7 22 8.9 29.3 11.4 13.3 35.4-6.7 40.3-11l149.3 141.1c-.9 6.1-2.3 12.1-4.1 18 0 0 22.9-5.8 36.7 22.3 2.5 5.1 8.7 7.3 13.9 4.8 1.6-.8 2.9-1.9 3.9-3.3l138.6-195.4c3.4-4.8 2.3-11.4-2.5-14.8-1.1-.7-2.4-1.3-3.8-1.6z" fill="#f2c27a"/><path d="m217.8 56.6c-3.8-4.6-8.8-8.2-14.4-10.4-16.5-6.3-19 13.2-19.2 23.8-.1 3-2.6 5.4-5.6 5.4-.2 0-.4 0-.6 0-9.4-1.1-27.6-1.3-42.2 10.5-6.7 5.5-11.9 12.6-15.1 20.6-14.2 33.5-52.6 52.1-67.3 58.1-3.8 1.5-6 5.5-5.3 9.5 1.1 6 7.3 17.5 16.2 17.5l.2.1c-.1.3-.3.5-.5.7 18.1-8.4 63.4-34.7 76.6-66 3.2-8 8.4-15.1 15.1-20.6 20.7-16.6 48.5-9.4 48.5-9.4s0-.2 0-.5c0-.7-.2-1.3-.5-1.9s-.5-1-.5-1c.3-.1.5-.2.8-.3-.1-7.6.7-24.7 10.5-27.4 3-.7 4.8-3.7 4.1-6.7 0-.6-.3-1.3-.8-2z" fill="#f9ca8c"/><path d="m147.2 127.3c0 2.8-2.3 5.1-5.1 5.1s-5.1-2.3-5.1-5.1 2.3-5.1 5.1-5.1c2.8-.1 5.1 2.2 5.1 5.1z" fill="#755144"/><path d="m123.8 245.2c3.1-11.9 6.9-23.6 11.4-35.1 7.3-18.6 18-35.6 31.7-50.1l43-45.7c-1.2-7.3-3.4-14.5-6.4-21.2 33.6-10.8 20.2-39 0-46.8-22.3-8.5-19.1 30.2-19.1 30.2s-27.8-7.2-48.5 9.4l-14.5-18.3c-6.5-8.2-5.1-20 3-26.5 1.1-.8 2.2-1.6 3.4-2.2 18.3-13.3 41.3-22.9 67.2-22.9 27.7 0 54.3 10.9 74 30.3 45.5 0 75.1 23.3 96 60.2v.1c2.1 4.2 61.5 129-41.7 240.5 3-13.7-3.2-36.8-12.4-71.8 5.5 56.5-16.3 87.8-37.9 111-.9 6.1-2.3 12.1-4.1 18-4.3 14.2-10.7 27.8-18.9 40.1-.5 35.5-23.2 51.6-23.2 51.6-4.8-28.1-24.6-46.5-67.7-99.5-7.5-9.2-13-20-16-31.5-31.9-32.2-29.3-80.4-19.3-119.8z" fill="#a06d57"/><g fill="#203a59"><path d="m246.4 84.4c1.2.9 29.7 23.6 22.4 70.4-.5 3.3 1.7 6.3 5 6.9 3.3.5 6.3-1.7 6.9-5 8.5-54.1-25.5-80.7-26.9-81.8-2.6-2-6.4-1.5-8.4 1.1-2.2 2.6-1.7 6.4 1 8.4z"/><path d="m199.8 81.4c2.9 1.7 6.5.7 8.2-2.2 2.9-4.9 2.6-9 1.8-11.6-1.2-3.5-3.7-6.4-7.1-8.1l-5.1 10.8-.1-.1c.4.2.7.5.9.9 0 .7-.2 1.4-.7 2-1.7 2.9-.7 6.6 2.1 8.3z"/><path d="m142 138.4c6.2 0 11.2-5 11.2-11.1 0-6.2-5-11.2-11.1-11.2-6.2 0-11.2 5-11.2 11.1 0 6.2 5 11.2 11.1 11.2zm0-12c.5 0 .9.4.8.9 0 .5-.4.9-.9.8-.5 0-.8-.4-.8-.9.1-.4.4-.8.9-.8z"/><path d="m78.6 193.7c-3.3 0-6 2.7-6 6s2.7 6 6 6 6-2.7 6-6c0-1.6-.6-3.1-1.8-4.2-1.1-1.2-2.6-1.8-4.2-1.8z"/><path d="m92.4 196.8c3.3 0 6-2.7 6-6s-2.7-6-6-6-6 2.7-6 6c0 1.6.6 3.1 1.8 4.3 1.1 1.1 2.6 1.7 4.2 1.7z"/><path d="m92.4 215.1c3.3 0 6-2.7 6-6s-2.7-6-6-6-6 2.7-6 6c0 1.6.6 3.1 1.8 4.3 1.1 1.1 2.6 1.7 4.2 1.7z"/><path d="m56.7 195.7c0 .1 0 .2-.1.3-2.2 10.4 1.9 21.6 12.3 33.5 2.9 21.3 8.9 29.2 10.1 30.6 3.4 4 8.2 6.3 13.4 6.5h1.2c7.1 0 14.7-3.4 21-7.2-6.8 36.8-5.3 78.8 23.3 108.6 3.3 11.7 8.9 22.7 16.6 32.1 8.3 10.2 15.7 19.1 22.3 27 27.8 33.4 40.5 48.6 44.2 69.7.6 3.3 3.7 5.5 6.9 4.9.9-.2 1.7-.5 2.5-1 .4-.3 10.8-7.7 18.2-23.2 4.6-9.8 7.2-20.5 7.5-31.3 7.4-11.4 13.4-23.6 17.6-36.5 2.4 0 4.7.3 7 .9 8.2 2.3 14.8 8.5 19.7 18.5 2.5 5.2 7.6 8.7 13.4 9.1.5 0 .9.1 1.4.1 5.3 0 10.3-2.6 13.3-6.9l138.6-195.3c5.3-7.5 3.6-17.8-3.9-23.1-1.8-1.3-3.8-2.2-6-2.7-18.9-4.2-52.6-17.3-66-58.1-15.6-47.6-45-110.7-119.6-112-14.8-13.9-33.1-23.5-52.9-27.8-32.1-6.8-65.4.7-93.8 21.3-12.2 6.3-17 21.3-10.6 33.5.7 1.4 1.6 2.8 2.6 4l11 13.9c-5.3 5.5-9.5 11.9-12.4 18.9-13.6 31.4-49.5 48.9-64.4 55-6.4 2.6-10.1 9.3-8.9 16.1 1.1 6.1 6.1 16.4 14.5 20.6zm332.7-11.8c-.1-2.5-.3-4.9-.5-7.3 18.1 30.5 47.7 41.6 65.5 45.5 1.5.3 2.7 1.4 3.3 2.8s.4 3.1-.5 4.3l-138.7 195.4c-1.4 2-4.1 2.4-6.1 1-.6-.4-1.1-1-1.4-1.6-9.3-19.1-23.5-25.2-34.1-26.1.7-2.9 1.3-5.9 1.8-8.9 15.8-17.2 31.2-38.6 36.8-70 2.3 11.6 3.3 20.6 1.9 26.8-.7 3.2 1.3 6.4 4.6 7.1 2.1.5 4.2-.2 5.7-1.8 24.5-26.5 42.1-56 52.1-87.7 8-25.7 11.3-52.6 9.6-79.5zm-263.4-120c-4.4-5.6-3.5-13.7 2.1-18.1.7-.6 1.5-1.1 2.3-1.5.3-.2.6-.3.9-.5 18.2-13.3 47.7-27.5 84.7-19.6 22 4.9 41.8 17 56.2 34.3l12.7 15.2c2.1 2.6 5.8 3 8.4.9s3-5.8.9-8.4c-.1-.1-.1-.1-.2-.2l-10.8-13c21.7 2.7 39.9 11.8 55.3 27.5 8.3 8.7 15.4 18.4 21.1 28.9 1.8 3.8 15.4 33.9 17.8 75.6 1.5 25.4-1.6 50.8-9.2 75-8 25.1-21 48.8-38.7 70.6-1.5-13.5-6.1-31.1-12-53.8-1.8-6.7-3.6-13.7-5.5-21.2-7.2-28.2-.2-52.1-.1-52.5 1-3.2-.8-6.5-4-7.5s-6.5.8-7.5 4c-.3 1.1-8.2 27.2-.1 59 1.6 6.2 3.1 12 4.5 17.5 4.1 43.3-8 70.6-24.3 91.9.1-3.2 0-6.5-.1-9.7-1.4-29.7-12.5-58.1-31.7-80.8-2.1-2.5-5.9-2.9-8.5-.7s-2.9 5.9-.7 8.5c17.5 20.7 27.7 46.6 28.9 73.6 1.1 22.9-3.8 45.6-14.2 66.1-1.1-6.1-2.7-12.2-4.7-18.1-1.1-3.1-4.5-4.8-7.6-3.8-3.1 1.1-4.8 4.5-3.8 7.6v.1c4.4 12.8 6 23.9 5.8 33.4v.2c-.3 19.7-8 32.8-13.9 39.9-6.2-19.3-20.1-35.9-44.2-64.8-6.6-7.9-14-16.8-22.2-26.9-47.2-58 14.3-154.5 14.9-155.5 1.8-2.8 1-6.5-1.8-8.3s-6.5-1-8.3 1.8c-11.5 18.6-20.5 38.6-26.9 59.5-5.7 18.7-8.2 36.3-7.7 52.3-21.8-41-6-97.4 6.8-130.2 7-17.9 17.3-34.2 30.5-48.2l33.9-36.1c.2 15.5-4.7 28.8-14.6 39.5-2.3 2.4-2.1 6.2.3 8.5s6.2 2.1 8.5-.3c26.5-28.7 17.2-65 11.9-79.3 15.6-7 18.4-17.8 18.6-24 .3-12.9-9.9-26.3-24.3-31.8-8.5-3.3-14.3-1-17.6 1.5-7.9 5.9-9.6 18.7-9.8 27.2-6.6-.7-13.3-.6-19.9.5-7.5 1.2-14.7 3.9-21.2 7.9zm-70.3 106.2c16.2-6.7 55.5-26 70.5-61.3 15.5-36.5 54.9-26.9 56.6-26.5 3.2.8 6.5-1.1 7.3-4.3.2-.7.2-1.3.2-2-.7-7.8.4-20.9 4.8-24.2.5-.4 2-1.5 6.1.1 9.5 3.6 16.8 12.5 16.6 20.3-.2 8.3-9 12.8-16.3 15.2-3.2 1-4.9 4.4-3.9 7.6.1.3.2.5.3.8 2.4 5.4 4.2 11 5.4 16.7l-40.9 43.5c-14.2 15.1-25.4 32.8-32.9 52.1-4.3 11.1-8 22.4-11.1 33.9-5.7 4.8-17.5 13.3-25.5 12.8-1.9 0-3.8-.9-5-2.4-2.4-2.8-4.6-10.2-6-17.2 10.7-.2 24.2-6.6 31.3-11.7 2.7-1.9 3.4-5.7 1.4-8.4-1.9-2.7-5.7-3.4-8.4-1.4 0 0-.1.1-.1.1-5 3.5-10.6 6.1-16.4 7.9-6.9 2.1-10.2 1.6-10.9 1.2-8.3-9.2-12-17.6-10.6-24.2 1.8-8.4 11-12.6 11.3-12.7 3-1.3 4.4-4.9 3.1-7.9s-4.9-4.4-7.9-3.1c-5 2.3-9.4 5.8-12.9 10.1-3.9-2-7.3-8.2-7.9-11.8-.1-1.5.6-2.7 1.8-3.2z"/></g></svg>