<svg id="Layer_1" height="512" viewBox="0 0 512 512" width="512" xmlns="http://www.w3.org/2000/svg" data-name="Layer 1"><path d="m439.2 355.73c-27.12 1.93-79.81-5.99-88.95-93.89-12.41-119.33-83.56-174-93.49-175.66l-.63.18-40.93-3.06-.01.01a97.5 97.5 0 0 0 -27.82 6.35 76.43 76.43 0 0 0 -33.75 25.67c-22.91 30.77-81.45 26.9-85.27 52.95 0 0-1.47 17 15.7 10.89-6.08 3.45-10.97 8.5-10.97 15.86 0 18.34 6.45 25.88 17.88 24.5 9.57 27.43 43.94-1.77 86.12 18.36a67.574 67.574 0 0 0 12.19 4.52c1.89 3.01 11.19 20.83 8.76 78.21-4.08 96.39 24.82 167.01 66.88 175.31a4.116 4.116 0 0 0 3.23-.78l173.89-131.97a4.155 4.155 0 0 0 -2.83-7.45z" fill="#f4e8cb"/><path d="m215.2 83.3-.01.01a97.5 97.5 0 0 0 -27.82 6.35v-.01c-27.56-8.12-30.64-22.42-50.33-40.04-14.35-12.86-11.72-24.83-9.23-30.38a2.467 2.467 0 0 1 4.08-.64c4.03 4.44 12.77 13.19 20.44 15.01 23.02 5.48 47.62 26.5 48.38 27.15l.02.02q2.13 3.375 3.93 6.93a86.434 86.434 0 0 0 10.54 15.6z" fill="#9b8c6d"/><path d="m196.61 138.44a8.7 8.7 0 1 1 -8.68 8.69 8.681 8.681 0 0 1 8.68-8.69z" fill="#9b8c6d"/><path d="m256.76 86.18-.63.18-40.93-3.06-.01.01a97.5 97.5 0 0 0 -27.82 6.35 76.43 76.43 0 0 0 -33.75 25.67c-22.91 30.77-81.45 26.9-85.27 52.95 0 0-1.353 15.737 13.852 11.473 14.113-17.1 61.386-17.518 81.418-44.423a76.43 76.43 0 0 1 33.75-25.67 97.5 97.5 0 0 1 27.82-6.35l.01-.01 12.812.888a92.623 92.623 0 0 1 64.818 33.068 230.219 230.219 0 0 1 24.089 35.359c-25.819-57.809-63.167-85.266-70.159-86.435z" fill="#c9bc9f"/><path d="m259.7 102.18-19.39-1.27a23.744 23.744 0 0 1 -15.01-6.69 138.116 138.116 0 0 1 -10.1-10.92 86.434 86.434 0 0 1 -10.54-15.6q-1.8-3.555-3.93-6.93l-.02-.02a82.4 82.4 0 0 0 -16.53-19.15c-11-9.31-18.4-21.47-12.84-24.53 8.01-4.4 15.76 5.43 47.8 16.82 21.1 7.5 32 34.74 36.99 52.47a143.2 143.2 0 0 1 3.57 15.82z" fill="#b5a788"/><g fill="#203a59"><path d="m438.772 349.744c-63.357 4.527-78.916-53.532-82.555-88.526-6.699-64.418-30.217-108.875-48.759-134.818-17.809-24.915-36.926-40.923-46.552-45.11-5.731-18.8-17.512-45.147-39.761-53.053a250.6 250.6 0 0 1 -28.675-12.3c-10.014-4.918-16.634-8.17-24.017-4.118a9.486 9.486 0 0 0 -4.95 7.593c-.411 4.094 1.531 8.8 4.573 13.367a82.5 82.5 0 0 0 -14.361-5c-4.3-1.023-10.8-5.962-17.39-13.215a8.468 8.468 0 0 0 -13.995 2.226c-2.662 5.949-6.949 21.489 10.708 37.3a159.574 159.574 0 0 1 14.405 15.01c7.128 8.171 13.534 15.5 25.022 21.212a81.43 81.43 0 0 0 -23.656 21.429c-10.126 13.6-29.132 20.083-45.9 25.8-19.552 6.668-38.018 12.966-40.494 29.866-.018.118-.031.235-.041.354-.093 1.074-.712 10.639 6.012 15.827a13.768 13.768 0 0 0 1.415.945 21.191 21.191 0 0 0 -2.717 10.491c0 14.1 3.5 23.175 10.692 27.748a18.9 18.9 0 0 0 9.3 2.86c7.412 14.321 22.511 12.953 37.158 11.616 14.051-1.283 31.539-2.882 50.268 6.054a77.26 77.26 0 0 0 10.738 4.206c3.643 7.741 8.6 30.065 6.794 72.852-4.134 97.688 25.357 172.3 71.714 181.449a9.837 9.837 0 0 0 1.9.185 10.142 10.142 0 0 0 6.117-2.075l173.887-131.96a10.154 10.154 0 0 0 -6.88-18.215zm-251.593-323.044a261.15 261.15 0 0 0 29.948 12.84c14.361 5.1 23.5 21.713 28.636 34.748a150.922 150.922 0 0 1 6.533 21.4l-11.6-.76a17.772 17.772 0 0 1 -11.219-5.007c-6.136-5.975-14.5-15.152-19.476-24.94a89.451 89.451 0 0 0 -21.946-27.959c-7.018-5.937-11.1-11.939-12.263-14.98 1.973.128 5.208 1.622 11.387 4.658zm-30.693 34.516a171.757 171.757 0 0 0 -15.444-16.08c-7.588-6.8-9.53-12.987-9.174-17.933 5.509 5.345 12.362 10.643 19.07 12.238 19.568 4.659 41.021 21.844 45.162 25.271 1.132 1.848 2.214 3.741 3.215 5.707a78.673 78.673 0 0 0 4.92 8.285 100.59 100.59 0 0 0 -17.065 4.6c-15.805-5.043-22.103-12.252-30.684-22.088zm108.7 428.639c-39.27-8.721-64.949-79.477-61.161-168.981 1.607-37.975-1.852-59.356-5.226-70.842q1.584.1 3.112.1c28.309 0 42.331-24.026 42.508-24.339a6 6 0 0 0 -10.431-5.935c-.712 1.234-17.871 30.008-54.317 12.623-21.707-10.357-41.833-8.516-56.527-7.174-12.382 1.132-19 1.478-22.955-1.951 1.708-.611 3.464-1.329 5.283-2.181a93.519 93.519 0 0 1 33.666-8.536 6 6 0 0 0 -.1-12h-.1a103.969 103.969 0 0 0 -38.555 9.669c-7.366 3.453-13.105 4.288-16.161 2.344-3.308-2.1-5.13-8.36-5.13-17.621 0-7.542 9.053-11.929 16.647-14.283a6 6 0 0 0 -3.552-11.463 57.463 57.463 0 0 0 -10.617 4.385c-3.253 1.084-5.157.954-5.845.43-1.048-.795-1.483-3.515-1.405-5.155 1.589-9.511 15.905-14.393 32.462-20.041 18.422-6.282 39.3-13.4 51.652-29.993 15.346-20.611 37.393-27.401 54.221-29.321 2.957 3.4 5.885 6.424 8.453 8.926a29.781 29.781 0 0 0 18.806 8.383l19.386 1.271c.131.009.262.013.392.013a6 6 0 0 0 5.934-6.889c-.045-.3-.218-1.417-.549-3.165 8.255 6.474 20.665 18.29 33.435 36.4 17.371 24.635 39.411 66.827 45.765 127.93 4.176 40.152 17.7 68.711 40.2 84.883 16.692 12 35.1 14.745 49.226 14.618z"/><path d="m196.612 132.442a14.692 14.692 0 1 0 14.68 14.692 14.7 14.7 0 0 0 -14.68-14.692zm0 17.383a2.692 2.692 0 1 1 2.68-2.691 2.688 2.688 0 0 1 -2.68 2.691z"/></g></svg>