<svg id="Layer_1" enable-background="new 0 0 512 512" height="512" viewBox="0 0 512 512" width="512" xmlns="http://www.w3.org/2000/svg"><path d="m315.6 17.2c153.8 10.9 176.5 158.7 153.6 284.2-24.3 133-154.6 219.3-286 188.1-8.9-2-17.7-4.6-26.3-7.6 13.4-20.3-15-54-6.3-89 7.7-5.9 13-17.4 16.7-30.3 9-32.4 4.6-67-12.3-96.1-8.8-15.3-17.4-33-19.1-46.1-3.2-25.1-45.9-84.6-73.7-72 .3-2 25.6-147.3 253.4-131.2z" fill="#bd8c6b"/><path d="m80 429.1c-5.8 2.5-11.9 4.2-18.2 5-2.5.3-5-.7-6.5-2.7-36.6-48.2-12.1-90.4-12.1-90.4 16.3-11.1 15.6-22.3 13.5-28.4-.4-1.2-1.8-1.8-3-1.4-.5.2-.9.5-1.2 1-4.9 7.9-15.9 8.6-16.4 8.6-5.6-39.5 31.1-79.4 31.1-79.4s21.1 43.6 32.9 70.6 59.1 45.9 50.4 80.9 19.7 68.7 6.3 89c-15.7 23.8-59.8 13.7-79.1-20l-7-3.3c-5.1-2.4-7.3-8.5-4.8-13.6.4-.9 1-1.7 1.7-2.5z" fill="#ffc9c0"/><path d="m56.7 312.7c2.1 6.1 2.8 17.2-13.5 28.4-3.7-6.2-6.1-13-7-20.1.5 0 11.5-.7 16.4-8.6.7-1.1 2.1-1.5 3.2-.8.4.2.7.6.9 1.1z" fill="#92614d"/><path d="m335.6 37.2c41.5 2.9 73.4 15.8 97.5 35.6-25.4-30.9-63.3-51.7-117.5-55.6-227.8-16.1-253.1 129.2-253.4 131.3 7.5-3.4 16.2-1.6 24.8 3.5 14.2-38.1 67.2-127.6 248.6-114.8z" fill="#e2a881"/><path d="m155 266.6c-8.8-15.3-17.4-33-19.1-46.1-3.2-25.1-45.9-84.6-73.7-72-3.8 1.8-7.1 4.6-9.5 8.1-19.2 26.3-5.2 38.9 6.6 48 2 1.7 3.6 3.8 4.7 6.2 0 0 11.1-16.3 27.6-5l-24.2 35.6s21.1 43.6 32.9 70.6 59.1 45.9 50.4 80.9c7.7-5.9 13-17.4 16.7-30.3 8.9-32.3 4.4-66.9-12.4-96z" fill="#efada3"/><path d="m100.4 212.7c3.9 3.4 4.3 9.2 1.1 13.2-6.2 7.6-18.3 18.7-34.2 15.6.5-13.5-.3-23.9-3.3-30.6 0 0 11.1-16.3 27.6-5 3 2.1 6 4.4 8.8 6.8z" fill="#92614d"/><path d="m324.7 138.3c-14.3-25.7-37.4-39.9-64.8-39.9h-.1c-23.7 0-40.1 7.2-48.8 21.3-18.3 29.9 6.5 79.3 7.5 81.4l44.6 63.6c-1.4 13.1-2 31.3 9.1 37.9 2.5 1.5 5.4 2.3 8.3 2.2 5.9 0 13-2.8 21.3-8.5 13.6-9.2 15.2-21.6 16.5-31.5.7-5.3 1.3-9.8 3.4-13.3 10.5-17.4 16.2-37.2 16.3-57.5.4-19.8-4.4-39.6-13.3-55.7z" fill="#efada3"/><g fill="#203a59"><path d="m61 440.2c.4 0 .7 0 1.1-.1-5.2 7.3-3.5 17.4 3.8 22.6.8.6 1.6 1 2.5 1.4l5.3 2.5c12.3 20.2 33.7 33.6 55.1 34.3h1.7c11.9 0 21.8-4.2 28.6-11.9 4.4 1.5 12.2 3.8 22.8 6.3 18.2 4.3 36.9 6.5 55.6 6.6 46.7 0 92.4-13.7 131.5-39.3 55.9-36.5 94.4-94.4 106.3-160.1 7.9-43.3 9.8-85.9 5.4-123-5.2-43.5-18.6-79.6-39.9-107.1-28.8-36.7-70.7-57.3-124.8-61.1-53.1-3.8-99.8.9-138.7 13.9-31.4 10.5-57.9 26.4-78.7 47.3-30.3 30.5-39.5 62.2-41.7 72-3.5 2.2-6.6 5.1-9 8.5-23.4 32-2.4 48.4 7.7 56.3 6 4.7 6 21.7 5.7 29.7-8.5 10-15.6 21-21.4 32.8-12.5 25.8-13.7 49.7-3.5 69.3-3.7 8.4-6.1 17.3-6.9 26.4-1.5 16.2.9 41 21 67.4 2.5 3.4 6.4 5.3 10.5 5.3zm46.1-359.2c19.5-19.6 44.4-34.5 74-44.4 37.4-12.5 82.5-17 134.1-13.4 50.5 3.6 89.5 22.6 115.9 56.6 20 25.8 32.6 59.8 37.5 101.1 4.3 36 2.5 77.3-5.2 119.4-11.3 62.5-47.8 117.5-101 152.2-53.1 34.7-116.2 45.7-177.7 31.2-8.4-2-15-3.9-19.4-5.3 3.5-11.1-.2-23.9-4-37.4-4.1-14.5-8.4-29.5-5.2-44.8 7.1-6.3 12.9-17.1 17.1-32 9.4-33.4 4.7-70.1-12.9-100.7-10.7-18.6-17-33.8-18.3-43.9-1.5-11.5-10.1-29-21.9-44.7-7.9-10.5-23.9-28.7-41.7-33.2-2.6-.7-5.3-1-8-1 3.8-12.4 13.7-36.5 36.7-59.7zm-49.5 79.2c4.8-6.5 10.4-8.7 17.7-6.8 23.1 6 52.2 48.4 54.7 67.8 1.5 11.8 8.2 28.1 19.8 48.4 16 27.9 20.3 61.2 11.7 91.5-1.3 4.8-3 9.4-5 13.9-3.9-15.5-16.8-27.8-28.6-39-9.3-8.9-18.2-17.3-22.1-26.3-8.6-19.4-22-47.7-28.8-61.9 10.5-1.3 20.6-7.5 29.2-18.1 5.3-6.5 4.6-16-1.8-21.5-3-2.6-6.2-5-9.5-7.3-6.2-4.3-12.6-5.9-19-4.7-4.1.8-7.9 2.6-11.1 5.2-.6-.6-1.1-1.1-1.8-1.6-12.5-9.5-20.8-18.6-5.4-39.6zm13.2 51.9c2-2 4.5-3.4 7.2-4 3.2-.6 6.5.3 10 2.8 2.9 2 5.7 4.1 8.4 6.4 1.4 1.3 1.6 3.4.4 4.9-8.7 10.6-17 13.7-23.5 13.9.2-10.3-.6-18-2.5-24zm-22.9 133c7.2-5.3 20.5-17.6 14.5-34.4-1-3-3.7-5.2-6.9-5.5-3.2-.4-6.3 1.2-8 3.9-1.4 2.1-3.5 3.6-5.9 4.4-.2-11 2.8-23.1 9.1-36.2 4.3-8.7 9.4-17 15.3-24.8 6.7 14 20.2 42.5 28.8 61.9 4.9 11.2 15.1 20.9 24.8 30.2 15.3 14.6 29.8 28.4 25.2 46.9-4.7 19 .4 36.9 4.9 52.8 4 14.2 7.5 26.4 2.2 34.3-4.6 7-12.7 10.6-22.8 10.3-14.7-.5-34.6-9.9-46-29.9-.6-1.1-1.5-1.9-2.6-2.4l-7-3.3c-2.1-1-3-3.5-2-5.6.2-.4.4-.7.7-1l11.6-12.8c14.3-6.5 31.5-19.7 41.6-46.2 1.2-3.1-.4-6.6-3.5-7.7s-6.5.4-7.7 3.5c-13.7 36.2-41.7 43.3-53 44.7-.4 0-.7-.1-1-.4-31-40.8-15.7-76-12.3-82.7zm-4.7-19.4c3-.8 5.8-2.1 8.3-3.8-.8 3.8-3.3 7.1-6.3 9.9-.7-2-1.4-4.1-2-6.1z"/><path d="m226.6 203.7c3-1.5 4.1-5.1 2.6-8.1-4.1-8.5-7.4-17.4-9.8-26.5-3.3-12.9-5.8-30.9 1.8-43.2 6.4-10.3 19.3-15.6 38.6-15.6 22.9 0 42.2 12 54.4 33.8 16.7 30.1 15.7 71.7-2.6 101.2-3.5 5.6-4.3 11.9-5.1 18-1.2 9.1-2.2 16.9-11.3 23.1-11.5 7.8-15.7 6.5-16.7 5.8-1.4-.8-5.6-5.1-3.4-26.4.4-3.3-2-6.3-5.3-6.6-3.3-.4-6.3 2-6.6 5.3-1.4 13.1-2 31.3 9.1 37.9 2.5 1.5 5.4 2.3 8.3 2.2 5.9 0 13-2.8 21.3-8.5 13.6-9.2 15.2-21.6 16.5-31.5.7-5.3 1.3-9.8 3.4-13.3 10.5-17.4 16.2-37.2 16.3-57.5.3-19.9-4.5-39.7-13.4-55.8-14.3-25.7-37.4-39.9-64.8-39.9h-.1c-23.7 0-40.1 7.2-48.8 21.3-18.3 29.9 6.5 79.3 7.5 81.4 1.5 3.2 5.1 4.4 8.1 2.9z"/><path d="m274.9 251.5c14-.5 20.4-16.2 23-25.5 6-21.6 4.4-39.3-4.7-52.6-12.5-18.2-34.5-20.7-35.4-20.8-3.3-.3-6.2 2.1-6.6 5.4-.3 3.3 2.1 6.2 5.4 6.6.2 0 17.3 1.9 26.7 15.6 7 10.2 8 24.5 3 42.6-2.9 10.4-7.2 16.5-11.8 16.7-5.4.2-12.1-6.8-15.3-16-1.1-3.1-4.5-4.8-7.6-3.8-3.1 1.1-4.8 4.5-3.8 7.6v.1c4.9 14.3 15.8 24.1 26.4 24.1z"/></g></svg>