<svg id="Layer_1" height="512" viewBox="0 0 512 512" width="512" xmlns="http://www.w3.org/2000/svg" data-name="Layer 1"><path d="m487.66 54.09a11.925 11.925 0 0 1 7.55 15.63l-141.35 370.97a11.937 11.937 0 0 1 -22.39-.24 126.817 126.817 0 0 0 -24.33-41.47s105.9-51.41 61.64-180.94c-50.17-146.83-55.83-195.59-55.83-195.59a156.591 156.591 0 0 1 81.16.78c16.07 4.47 67.18 22.55 93.55 30.86z" fill="#4f5356"/><path d="m368.78 218.04c-50.17-146.83-55.83-195.59-55.83-195.59a156.11 156.11 0 0 0 -37.49 15.06c-54.97 30.84-110.46 60.33-110.46 60.33-16.96-24.68-43.26-36.28-55.24-16.89a62.607 62.607 0 0 0 -9.03 25.5c-.79 6.23-.65 11.26-1.23 14.57-1.16 6.64-1.4 13.35-6.85 17.32a128.54 128.54 0 0 0 -23.91 22.62c-54.54 66.7-31.24 173.52-27.57 190.4 3.55 16.31-17.09 74.19-24.35 93.75a13.082 13.082 0 0 0 2.24 12.98h.01l36.13 19.35c1.19.11 2.41.18 3.66.2a42.351 42.351 0 0 0 11.67-1.74c.67.63 24.26 22.63 45.85 17.97 21.9-4.73 49.33-42.59 90.76-55.6 22.66-7.12 52.58-33.5 67.37-64.56 0 0 16.23 6.76 32.63 25.27 0 0 105.9-51.41 61.64-180.94z" fill="#c2ccd3"/><path d="m100.73 106.45c-.79 6.23-.65 11.26-1.23 14.57-1.16 6.64-1.4 13.35-6.85 17.32a128.54 128.54 0 0 0 -23.91 22.62l-.01-.01s-47.24-66.56-.28-86.44c23.19-9.81 32.16 31.37 32.28 31.94z" fill="#4f5356"/><path d="m195 97.84s55.49-29.49 110.46-60.33q4.546-2.554 9.229-4.784c-1.371-7.115-1.739-10.276-1.739-10.276a156.11 156.11 0 0 0 -37.49 15.06c-34.151 19.16-68.5 37.8-89.619 49.166a83.809 83.809 0 0 1 9.159 11.164z" fill="#8c9499"/><path d="m100.53 475.9a42.351 42.351 0 0 1 -11.67 1.74c-1.25-.02-2.47-.135-3.66-.245l-36.13-19.395h-.01c-3.04-3-3.87-8.515-2.24-12.935 7.26-19.56 27.9-77.418 24.35-93.728-3.67-16.879-26.97-123.688 27.57-190.388a128.517 128.517 0 0 1 23.91-22.615c5.45-3.97 5.69-10.677 6.85-17.317.58-3.31.44-8.339 1.23-14.568a62.607 62.607 0 0 1 9.03-25.5 23.3 23.3 0 0 1 3.487-4.4c-12.9-7.731-26-7.724-33.487 4.4a62.607 62.607 0 0 0 -9.03 25.5c-.79 6.23-.65 11.26-1.23 14.57-1.16 6.64-1.4 13.35-6.85 17.32a128.54 128.54 0 0 0 -23.91 22.62c-54.54 66.701-31.24 173.521-27.57 190.401 3.55 16.31-17.09 74.145-24.35 93.7-1.63 4.42-.8 9.935 2.24 12.935h.01l36.13 19.405c1.19.11 2.41.2 3.66.223a42.348 42.348 0 0 0 11.67-1.729c.67.63 24.26 22.635 45.85 17.975a33.545 33.545 0 0 0 7.706-2.83c-12.978-5.279-23.12-14.729-23.556-15.139z" fill="#8c9499"/><path d="m35.42 448.31c-9.06 8.2-16.35 9.78-16.35 9.78h-.01c6.04 7.12 17.96 17.78 36.14 19.35 11.56-13.56-10.72-37.32-19.78-29.13z" fill="#394851"/><path d="m103.35 331.33c6.28 25.9 42.31 37.7 12.71 48.46-28.18 10.24-77.52-35.08-47.65-74.65a9.949 9.949 0 0 1 12.68-2.79 44.368 44.368 0 0 1 22.26 28.98z" fill="#4f5356"/><g fill="#203a59"><path d="m489.46 48.369c-11.681-3.679-28.383-9.336-44.535-14.8-20.639-6.989-40.132-13.59-49.206-16.117a161.59 161.59 0 0 0 -123.2 14.83c-45.246 25.383-91.34 50.118-105.749 57.811-8.319-10.719-18.407-18.83-28.408-22.574-13.91-5.21-26.51-1.369-33.707 10.275a70.32 70.32 0 0 0 -4.606 8.771c-3.4-6.8-8.274-13.66-15.005-17.164-5.841-3.041-12.386-3.186-18.929-.416-12 5.08-19.695 13.321-22.866 24.492-7 24.665 11.107 56.27 18.047 67.122-19.64 25.577-30.914 58.953-33.6 99.711-1.322 20.07-1.076 52.37 7.611 92.325 2.114 9.724-7.35 45.2-24.111 90.392a19.072 19.072 0 0 0 3.288 18.943c6.716 7.925 21.4 21.278 44.271 21.674h.56a44.687 44.687 0 0 0 9.61-1.165c6.3 5.294 23.3 18.029 41.263 18.029a35.264 35.264 0 0 0 7.457-.779c11.088-2.4 22.459-11.466 35.624-21.967 15.789-12.6 33.686-26.871 55.67-33.776 18.734-5.884 41.2-23.574 57.233-45.069a139.92 139.92 0 0 0 10.964-17.083c10.559 6.127 35.426 23.845 48.692 60.647a17.812 17.812 0 0 0 16.735 11.88h.169a17.755 17.755 0 0 0 16.728-11.54l141.359-370.967a17.924 17.924 0 0 0 -11.359-23.485zm-434.667 48.385c2.159-7.606 7.392-13.075 16-16.718 3.266-1.384 6.03-1.383 8.7 0 8.294 4.306 13.549 19.971 15.17 26.754-.351 3.017-.508 5.708-.634 7.963a52.262 52.262 0 0 1 -.44 5.234c-.169.971-.319 1.943-.469 2.908-.829 5.36-1.466 8.739-4.007 10.592a136.248 136.248 0 0 0 -19.692 17.487c-8.037-13.358-19.381-37.474-14.628-54.22zm-2.743 374.24a46.678 46.678 0 0 1 -22.58-10.907 58.121 58.121 0 0 0 9.974-7.324c.514-.464 3.513.193 7 3.577 3.381 3.291 7.231 9.615 5.606 14.654zm230.285-100.05c6.884-16.6 8.967-33.048 5.854-48.058a6 6 0 1 0 -11.75 2.437c2.411 11.621 3.033 35.7-19.884 66.423-14.624 19.605-34.725 35.618-51.209 40.8-24.12 7.575-43.77 23.249-59.558 35.843-11.988 9.556-22.336 17.811-30.677 19.611-11.475 2.477-24.2-4.376-32.259-9.987 5.877-2.346 11.9-5.2 17.82-8.162a6 6 0 0 0 -5.363-10.735c-8.591 4.292-17.912 8.635-26.018 10.909-.08.017-.158.042-.237.063q-2.462.679-4.749 1.075c1.066-8.324-3.115-17.224-9.5-23.431-7.984-7.758-17.388-9.315-23.407-3.874a44.249 44.249 0 0 1 -9.341 6.591 7.153 7.153 0 0 1 .394-3.252c10.759-29.007 28.261-80.197 24.571-97.17-8.377-38.527-8.622-69.627-7.35-88.927 1.574-23.9 6.369-45.392 14.251-63.867 9.55-22.381 23.767-40.565 42.259-54.044 6.7-4.883 7.862-12.409 8.8-18.456.137-.89.275-1.787.431-2.683a59.006 59.006 0 0 0 .6-6.624c.439-7.885 1.041-18.685 8.851-31.323 4.188-6.772 10.676-8.572 19.292-5.346 20.171 7.554 45.6 42.034 39.545 78.87a6 6 0 0 0 11.842 1.947c3.154-19.176-.812-39.8-11.171-58.065-.272-.48-.56-.947-.84-1.421 15.592-8.335 60.631-32.527 104.864-57.345a151.818 151.818 0 0 1 29.67-12.725c3.168 17.856 14.9 72.506 55.038 189.962 9.73 28.478 12.707 55.292 8.846 79.7a124.638 124.638 0 0 1 -21.959 53.485 141.127 141.127 0 0 1 -41.591 38.269 113.123 113.123 0 0 0 -26.065-20.49zm207.271-303.363-141.357 370.972a5.749 5.749 0 0 1 -5.575 3.813 5.821 5.821 0 0 1 -5.555-3.95 134.612 134.612 0 0 0 -20.73-37.758 152.4 152.4 0 0 0 43.036-40.058c19.934-27.648 38.723-75.16 15.032-144.5-36.094-105.636-51.012-166.744-54.786-189.159a149.908 149.908 0 0 1 72.829 2.065c8.757 2.439 28.1 8.989 48.575 15.923 16.213 5.49 32.977 11.167 44.78 14.886a5.926 5.926 0 0 1 3.751 7.766z"/><path d="m109.181 329.917a50.717 50.717 0 0 0 -25.216-32.829 16.03 16.03 0 0 0 -20.348 4.433c-14.154 18.757-13.97 41.636.489 61.2 11.244 15.214 28.343 24.5 43.3 24.5a31.255 31.255 0 0 0 10.7-1.8c6.129-2.228 13.389-5.662 15.123-12.5 1.877-7.406-3.581-13.559-9.9-20.682-5.629-6.345-12.019-13.539-14.148-22.322zm4.826 44.231c-11.537 4.19-29.59-4.132-40.25-18.556-5.342-7.228-16.091-26.262-.562-46.841a3.962 3.962 0 0 1 5.018-1.131 38.264 38.264 0 0 1 19.306 25.126c2.833 11.68 10.6 20.43 16.834 27.462 2.836 3.2 7.1 8 7.228 9.775-.2.311-1.493 1.955-7.574 4.165z"/><path d="m81.3 323.21a10.411 10.411 0 1 0 10.413 10.411 10.424 10.424 0 0 0 -10.413-10.411zm0 12a1.59 1.59 0 1 1 1.586-1.589 1.59 1.59 0 0 1 -1.586 1.589z"/><path d="m134.95 111.709a6.035 6.035 0 0 0 -8.178 2.364 5.968 5.968 0 0 0 2.348 8.125 12.265 12.265 0 0 1 4.18 4.6c2.037 3.968 1.519 8.951-1.54 14.812a6 6 0 1 0 10.637 5.554c12.593-24.126-7.245-35.344-7.447-35.455z"/></g></svg>