<svg id="Layer_1" height="512" viewBox="0 0 512 512" width="512" xmlns="http://www.w3.org/2000/svg" data-name="Layer 1"><path d="m53.62 378.78c-4.58-.14-8.47-.43-11.49-.73 18.53-13.1 13.52-32.82 4.78-44.74-12.06-16.43-2.22-44.02-2.22-44.02a20.717 20.717 0 0 0 11.85-1.84l15.97-7.69h.01l25.36-12.2 52.52-25.27a38.711 38.711 0 0 0 10.41-7.34c51.05-50.39 96.47-68.54 126.9-74.67 24.64-4.99 39.44-2.1 39.44-2.1a164.467 164.467 0 0 1 38.65-44.38 194.426 194.426 0 0 1 37.5-23.72c40.42-19.65 63.24-42.58 74.95-57.61v-.01c7.62-9.76 10.53-16.19 10.53-16.19s10.25 33.97 2.84 90.8 28.1 80.44-42.31 132.32c-7.03 5.18-15.28 8.18-24.4 9.88.48.11 16.89 3.81 28.72 34.84a40.283 40.283 0 0 0 18.55 21.07l16.4 8.84a14.117 14.117 0 0 1 3.76 21.91l-140.79 155.17a14.116 14.116 0 0 1 -21.91-1.25c-21.21-29.48-50.91-39.66-50.91-39.66l.02-.33c-31.5-2.08-63.3-13.31-97.16-27.27-31.59-13.02-38.25-31.01-75.02-29.64-13.2.5-25.26 5.76-32.74 4.39-19.56-3.58-20.21-18.46-20.21-18.46z" fill="#f7c9c9"/><path d="m365.01 110.15.79 3.65a164.467 164.467 0 0 0 -38.65 44.38s-14.8-2.89-39.44 2.1l-.01-.03s-16.77-49.48 0-82.83 1.34-50.03 6.9-56.82 16.67 38.91 35.82 56.82c21.57 20.18 28.41 15.44 34.59 32.73z" fill="#e0b1b1"/><path d="m228.3 240.23a8.185 8.185 0 1 1 -8.19 8.18 8.177 8.177 0 0 1 8.19-8.18z" fill="#ef8181"/><path d="m48.97 308.615a21.207 21.207 0 0 1 4.31.465c.47.1.94.21 1.41.27a20.686 20.686 0 0 0 11.85-1.78l15.97-7.57h.01l25.358-12.32 52.522-25.39a38.691 38.691 0 0 0 10.406-7.34c51.05-50.39 96.462-68.54 126.892-74.67 24.64-4.99 39.425-2.1 39.425-2.1a164.246 164.246 0 0 1 38.619-44.38 193.821 193.821 0 0 1 37.437-23.72c40.421-19.65 63.821-42.58 74.821-57.61v-.01c2.2-2.685 3.984-5.106 5.432-7.223-1.559-18.683-4.777-28.967-4.777-28.967s-2.655 6.43-10.655 16.19v.01c-11 15.03-34.4 37.96-74.825 57.61a193.821 193.821 0 0 0 -37.437 23.72 164.246 164.246 0 0 0 -38.619 44.38s-14.785-2.89-39.425 2.1c-30.43 6.13-75.842 24.28-126.892 74.67a38.691 38.691 0 0 1 -10.406 7.34l-52.518 25.39-25.358 12.32h-.01l-15.97 7.57a20.686 20.686 0 0 1 -11.85 1.78 75.878 75.878 0 0 0 -3.759 20.94 20.7 20.7 0 0 1 8.039-1.675z" fill="#cea5a5"/><path d="m46.91 333.31c8.74 11.92 13.75 31.64-4.78 44.74a20.741 20.741 0 0 1 -13.63-6.99c-15.59-17.93-13.62-46.55-9.83-65.81a20.691 20.691 0 0 1 20.3-16.65 21.179 21.179 0 0 1 4.31.45q.7.15 1.41.24s-9.84 27.59 2.22 44.02z" fill="#ef8181"/><path d="m28.67 325.257a20.573 20.573 0 0 1 12.261-15 76.248 76.248 0 0 1 3.759-20.97q-.7-.09-1.41-.24a21.179 21.179 0 0 0 -4.31-.45 20.691 20.691 0 0 0 -20.3 16.65c-3.775 19.185-5.739 47.653 9.654 65.6-3.93-15.355-2.21-32.599.346-45.59z" fill="#c16b6b"/><g fill="#203a59"><path d="m491.425 308.737-16.4-8.836a34.274 34.274 0 0 1 -15.792-17.926c-5.1-13.367-11.636-23.669-19.445-30.665a55.937 55.937 0 0 0 13.08-7.087c52.1-38.387 49.091-64.171 45.612-94.026-1.492-12.805-3.036-26.048-.908-42.356 7.492-57.439-2.618-91.864-3.052-93.3a6 6 0 0 0 -11.209-.744c-.178.394-18.617 39.77-82.634 70.89a204.45 204.45 0 0 0 -31.777 19.104c-4.015-8.74-8.865-11.873-15.257-15.991a120.285 120.285 0 0 1 -19.123-14.762c-9.272-8.674-17.02-25.638-22.67-38.022-6.358-13.929-9.26-20.286-15.094-21.041a7.438 7.438 0 0 0 -6.8 2.822c-3.715 4.54-2.707 10.132-1.639 16.052 1.68 9.32 3.981 22.085-5.973 41.874-14.215 28.259-6.272 66.153-2.219 81.085q-1.482.358-3 .751c-28.118 7.3-71.853 26.077-120.532 74.122a32.613 32.613 0 0 1 -8.789 6.2l-93.861 45.156a14.833 14.833 0 0 1 -9.422 1.138 26.712 26.712 0 0 0 -31.737 20.917c-4.247 21.593-5.755 51.422 11.183 70.908a26.673 26.673 0 0 0 17.57 9.028c2.08.206 4.514.4 7.229.559a25.453 25.453 0 0 0 2.54 5.372c3.019 4.82 9.194 11.041 21.446 13.288 5.137.939 10.9-.306 17.565-1.749a94.554 94.554 0 0 1 16.477-2.548c21.919-.826 31.622 5.454 45.038 14.14 7.424 4.806 15.839 10.255 27.472 15.049 36.049 14.861 66.996 25.329 97.518 27.591l-.046.135c.28.1 28.236 10.035 48 37.494a20.027 20.027 0 0 0 15.191 8.335c.386.022.77.033 1.154.033a20.009 20.009 0 0 0 14.87-6.6l140.79-155.168a20.113 20.113 0 0 0 -5.356-31.222zm-198.362-228.621c8.167-16.236 9.242-29.055 8.549-38.633 6.006 13.139 14.109 30.4 24.71 40.318a132.487 132.487 0 0 0 20.821 16.086c6.532 4.209 9.094 5.877 11.963 13.608a169.659 169.659 0 0 0 -35.134 40.232c-5.7-.53-16.806-.894-32.043 1.665-3.529-12.921-11.349-48.46 1.134-73.276zm-244.589 278.615c-.8 4.943-3.462 9.293-7.9 12.963a14.6 14.6 0 0 1 -7.548-4.572c-13.755-15.82-12.2-41.749-8.464-60.714a14.5 14.5 0 0 1 6.278-9.353 14.718 14.718 0 0 1 6.111-2.3c-2.334 10.251-4.6 28.854 5.121 42.109 5.103 6.959 7.497 15.136 6.402 21.867zm439.42-26.831-140.794 155.168a8.11 8.11 0 0 1 -12.589-.718 122.477 122.477 0 0 0 -32.36-30.748c34.342-3.063 66.455-18.292 97.789-46.322a6 6 0 1 0 -8-8.944c-33.414 29.891-66.076 43.828-102.787 43.857h-.119c-32.6 0-65.617-10.854-105.158-27.149-10.611-4.373-18.192-9.281-25.523-14.027-13.521-8.753-26.3-17.022-52.009-16.059a105.47 105.47 0 0 0 -18.565 2.811c-5.188 1.122-10.086 2.184-12.866 1.674-6.66-1.22-10.422-3.934-12.549-6.57 24.628-.344 60.746-5.512 92.406-28.307a6 6 0 1 0 -7.012-9.738c-32.13 23.133-69.525 26.55-92.216 26.022a31.223 31.223 0 0 0 4.776-12.192c1.625-9.99-1.5-21.25-8.574-30.894-5.048-6.882-5.248-16.71-4.527-23.743a73.152 73.152 0 0 1 1.92-10.6 26.827 26.827 0 0 0 10-2.568l12.244-5.89c2.5 3.069 6.252 9.634 6.252 21.386a6 6 0 0 0 12 0c0-12.819-3.723-21.38-7.307-26.652l14.055-6.762a35.886 35.886 0 0 1 7.411 25.895 6 6 0 0 0 5.269 6.651 6.117 6.117 0 0 0 .7.041 6 6 0 0 0 5.953-5.31 47.472 47.472 0 0 0 -8.359-32.556l45.645-21.962a44.59 44.59 0 0 0 12.017-8.472c46.428-45.822 87.773-63.808 114.283-70.828 16.993-4.5 30.221-5.191 38.2-5a80.113 80.113 0 0 0 -3.887 9.1 6 6 0 1 0 11.387 3.791c.165-.5 17.232-49.843 80.929-80.808a251.424 251.424 0 0 0 46.101-28.589c-14.665 18.8-35.431 38.261-57.574 48.553-27.113 12.6-53.518 55.873-34.931 97.715a6 6 0 1 0 10.967-4.871c-9.142-20.58-4.682-39.014.67-50.854 6.231-13.788 17.36-26 28.352-31.108 41.08-19.094 76.7-65.953 84.145-90.98q1.2-1.568 2.25-3.021c2.2 14.706 4.169 40.2-.236 73.968-2.318 17.777-.614 32.4.888 45.3 3.419 29.339 5.678 48.721-40.81 82.975-12.166 8.964-28.71 10.8-49.809 10.8a6 6 0 1 0 0 12 170.252 170.252 0 0 0 28.532-1.94c3.008 1.213 14.563 7.264 23.547 30.828a46.279 46.279 0 0 0 21.313 24.215l16.4 8.836a8.115 8.115 0 0 1 2.161 12.6z"/><path d="m228.3 234.227a14.186 14.186 0 1 0 14.186 14.185 14.2 14.2 0 0 0 -14.186-14.185zm0 16.371a2.186 2.186 0 1 1 2.186-2.186 2.189 2.189 0 0 1 -2.186 2.188z"/><path d="m400.713 231.683a38.469 38.469 0 0 0 5.073.284 59.785 59.785 0 0 0 19.214-3.237c11.99-4.122 28.4-14.211 38.483-38.868a6 6 0 0 0 -11.108-4.542c-15.775 38.57-48.511 34.68-49.975 34.48a6 6 0 0 0 -1.69 11.88z"/></g></svg>