<svg id="Layer_1" height="512" viewBox="0 0 512 512" width="512" xmlns="http://www.w3.org/2000/svg" data-name="Layer 1"><path d="m487.87 134.41c-40.57-11.48-71.54-11.65-89.97-9.89-78.87-50.8-184.86-37.16-239.56-20.11-27.97 8.73-45.92 36.07-58.74 62.36-31.89 13.84-82.28 37.87-83.17 51.9l2.13 28.49c4.08 12.87 14.24 25.89 38.42 32.63 0 0 4.07 38.87 117.42 35.9v.16s167.64 64.81 222.18 105a11.133 11.133 0 0 0 17.27-5.67l81.66-266.84a11.1 11.1 0 0 0 -7.64-13.93z" fill="#e5f7f9"/><path d="m200.139 175.145a6.643 6.643 0 1 1 -6.643-6.626 6.634 6.634 0 0 1 6.643 6.626z" fill="#6b625b"/><path d="m487.87 134.41c-40.57-11.48-71.54-11.65-89.97-9.89-78.87-50.8-184.86-37.16-239.56-20.11-27.97 8.73-45.92 36.07-58.74 62.36-31.89 13.84-82.28 37.87-83.17 51.9s10.72 7.86 28.66-5.37c6.9-5.088 14.62-4.191 20.373-.119 16.857-9.669 37.894-19.362 54.137-26.411 12.82-26.29 30.77-53.63 58.74-62.36 54.7-17.05 160.69-30.69 239.56 20.11 16.38-1.564 42.672-1.6 76.8 6.473l.812-2.653a11.1 11.1 0 0 0 -7.642-13.93z" fill="#ccdcdd"/><path d="m45.09 213.3c15.22-11.22 34.44 6.61 27.71 23.59-14.13 35.61-53.52 10.73-54.24 10.27-3.47-10.92-2.55-21.73-2.13-28.49 0 0 10.72 7.86 28.66-5.37z" fill="#4c4842"/><g fill="#203a59"><path d="m370.97 135.5c-19.254-13.14-59.434 12.622-63.95 15.6a6 6 0 1 0 6.607 10.015c15.538-10.25 41.5-21.9 50.579-15.706a2.75 2.75 0 0 1 1.356 2.343c.638 8.356-14.524 26.537-25.494 36.776a6 6 0 0 0 8.185 8.777 179.236 179.236 0 0 0 14.669-15.761c10.431-12.727 15.209-22.769 14.606-30.7a14.666 14.666 0 0 0 -6.558-11.344z"/><path d="m350.655 162.826a6 6 0 0 0 0-12c-19.586 0-24.828 15.163-25.042 15.809a6 6 0 1 0 11.393 3.769c.025-.076 2.635-7.578 13.649-7.578z"/><path d="m193.5 162.52a12.626 12.626 0 1 0 12.643 12.625 12.647 12.647 0 0 0 -12.643-12.625zm0 13.251a.626.626 0 1 1 .643-.626.636.636 0 0 1 -.643.626z"/><path d="m489.5 128.637c-36-10.19-64.524-11.479-82.1-10.768-3.373.137-6.481.35-9.325.608a5.905 5.905 0 0 0 -2.156-2.26c-35.092-21.116-77.7-32.28-126.751-33.2a370.285 370.285 0 0 0 -112.609 15.671c-31.268 9.75-49.922 40.369-61.373 63.468-8.136 3.552-17.307 7.7-26.457 12.119-50.745 24.524-57.8 36.407-58.283 44.02l-.065 1.015c-.711 11-2.192 33.9 15.642 50.745q9.96 9.408 26.091 14.479c1.412 3.688 4.6 9.343 11.783 15.116 20.926 16.825 58.876 22.153 98.55 22.153q5.181 0 10.39-.122c11.024 4.291 168.523 65.933 220.18 104a17.137 17.137 0 0 0 26.571-8.74l81.662-266.841a17.111 17.111 0 0 0 -11.75-21.463zm-465.848 114.539a59.247 59.247 0 0 1 -1.63-16.367c6.744.809 16.007-.848 26.63-8.679 6.209-4.578 11.73-1.332 13.816.275a14.013 14.013 0 0 1 4.752 16.271c-3.052 7.7-7.454 12.381-13.459 14.324-11.24 3.635-25.161-3.093-30.109-5.824zm466.123-96.593-81.662 266.846a5.033 5.033 0 0 1 -3.274 3.344 5.127 5.127 0 0 1 -4.7-.753c-42.268-31.146-149.109-75.92-198.296-95.745 9.873-.719 19.534-1.647 28.736-2.685a6 6 0 1 0 -1.346-11.924c-109.39 12.342-147.033-5.242-159.833-17.197a187.534 187.534 0 0 0 28.395 1.975 325.132 325.132 0 0 0 39.032-2.584 6.13 6.13 0 0 0 5.461-5.938 6.007 6.007 0 0 0 -6.729-6c-50.439 6.163-84.522 1.25-101.294-14.594-.488-.461-.953-.929-1.4-1.4a50.87 50.87 0 0 0 13.884 2.1 34.724 34.724 0 0 0 10.651-1.594c9.517-3.061 16.573-10.239 20.972-21.334a26.2 26.2 0 0 0 -8.582-30.2 23.006 23.006 0 0 0 -28.261-.427c-7.269 5.36-12.818 6.583-16.484 6.515 4.452-4.817 16.459-14.224 48.847-29.88 26.53-12.825 53.294-23.308 53.56-23.413a6 6 0 0 0 -4.365-11.177c-.1.039-4.045 1.584-10.359 4.19 10.534-18.344 25.677-37.79 47.4-44.564 59.355-18.511 150.151-25.658 220.113 11.038-2.132.489-3.3.843-3.438.886a6 6 0 0 0 3.543 11.465c.394-.122 40.148-11.96 105.886 6.652a5.136 5.136 0 0 1 3.143 2.5 5.015 5.015 0 0 1 .4 3.898z"/></g></svg>