<svg id="Layer_1" height="512" viewBox="0 0 512 512" width="512" xmlns="http://www.w3.org/2000/svg" data-name="Layer 1"><path d="m468.11 92.4-74.35-.5v.01a110.85 110.85 0 0 0 -38.35-13.23h-.01c-7.22-22.59-17.85-42.85-33.28-48.72-15.23-5.78-26.24 6.07-34.04 22.88v.01a132.115 132.115 0 0 0 -5.3 13.43 443.022 443.022 0 0 0 -50.43 13.37c-24.33 7.94-53.43 19.69-77.72 35.97l-3.73 63.38c-35.94-29.05-60.49-28.29-58.44-28.89a185.575 185.575 0 0 1 -54.1 6.71l-14.81 26.69v.01a18.871 18.871 0 0 0 9.34 26.07c1.77.76 3.59 1.52 5.46 2.3a62.353 62.353 0 0 0 26.87 42.27c24.79 16.64 60.88 34.06 80.03 46.65 30.57 20.1 50.36 31.8 64.61 38.19h.01l70.13 58.3c15.74 14.19 25.07 33.26 35.83 51.51 34.21 58.04 99.39 45.48 99.39 45.48l80.13-367.85a28.073 28.073 0 0 0 -27.24-34.04z" fill="#8da3aa"/><path d="m288.08 52.84v.01a132.115 132.115 0 0 0 -5.3 13.43 443.022 443.022 0 0 0 -50.43 13.37c0-3.61 15.64-65.86 27.87-62.99 13.21 3.12 27.63 35.68 27.86 36.18z" fill="#cddbe0"/><path d="m182.2 148.98c13.9 52.95 61.67 128.7 41.76 137.13-28.96 12.26-39.23-52.68-83.76-88.67-35.94-29.05-49.79-46.73-47.74-47.33a138.8 138.8 0 0 0 49.44-25.15c4.05-3.27 8.31-6.38 12.73-9.34 0 0 19.6 3 27.57 33.36z" fill="#cddbe0"/><circle cx="150.9" cy="162.85" fill="#af4e4e" r="7.84"/><path d="m107.459 168.577a133.766 133.766 0 0 0 44.209-23.427c4.05-3.27 8.537-6.15 12.957-9.15q4.511-3.156 9.223-6.05c-8.747-12.713-19.213-14.33-19.213-14.33-4.42 2.96-8.68 6.07-12.73 9.34a138.8 138.8 0 0 1 -49.44 25.15c-1.241.362 3.314 6.94 14.994 18.467z" fill="#a4b7bc"/><path d="m92.36 150.145c-.033-.028 0-.03.1-.061a184.259 184.259 0 0 1 -53.875 6.723l-14.585 26.703v.01a18.676 18.676 0 0 0 8 25.523 16.8 16.8 0 0 1 2-5.523v-.01l5.791-10.757a31.074 31.074 0 0 1 25.38-16.272 168.379 168.379 0 0 0 36.829-6.323v-.158l5.459-1.526c-11.232-11.085-15.859-17.525-15.099-18.329z" fill="#667a7f"/><path d="m322.08 29.96c-15.23-5.78-26.08 6.07-34.08 22.88v.01a125.356 125.356 0 0 0 -5.26 13.43 446.745 446.745 0 0 0 -50.22 13.37c-24.33 7.94-53.52 19.69-77.52 35.97v.007l-.18-.007s10.371 1.617 19.118 14.33c22.2-13.676 47.121-23.153 68.44-30.11a473.209 473.209 0 0 1 50.386-13.56 125.286 125.286 0 0 1 5.236-13.43v-.01c8-16.81 18.85-28.5 34.08-22.72 7.57 2.88 13.992 9.168 19.425 17.538-6.997-17.907-16.562-32.805-29.425-37.698z" fill="#667a7f"/><path d="m38.36 156.82c.48.82 15.35 26.69-14.81 26.69v.01a20.216 20.216 0 0 1 -7.24-19.52 9.486 9.486 0 0 1 10.26-7.81c3.1.27 7.09.53 11.79.63z" fill="#414a4c"/><g fill="#203a59"><path d="m150.9 176.694a13.84 13.84 0 1 0 -13.839-13.84 13.856 13.856 0 0 0 13.839 13.84zm0-15.679a1.84 1.84 0 1 1 -1.839 1.839 1.841 1.841 0 0 1 1.839-1.839z"/><path d="m319.872 56.907a6 6 0 0 0 -6.975 9.766c12.662 9.043 15.579 28.2 15.8 42.68a152.159 152.159 0 0 1 -2.959 31.235 6 6 0 0 0 11.711 2.617c.576-2.597 13.851-63.847-17.577-86.298z"/><path d="m468.148 86.4-72.885-.488a116.234 116.234 0 0 0 -35.291-12.541c-9.172-27.016-21.141-43.471-35.726-49.018a25.2 25.2 0 0 0 -22.9 1.962q-7.012 4.308-12.972 13.519c-5.968-11.092-16-26.475-26.78-29.014-2.188-.515-5.579-.511-9.3 2.44-11.658 9.251-22.158 47.987-25.113 61.718-28.6 9.569-62.987 24.261-89.054 45.315a132.971 132.971 0 0 1 -47.339 24.107l-.623.171c-26.257 7.389-50.619 6.737-63.067 5.639a15.516 15.516 0 0 0 -16.712 12.84 26.139 26.139 0 0 0 6.124 21.916 24.864 24.864 0 0 0 14.014 30.14c.819.351 1.658.707 2.507 1.064a68.586 68.586 0 0 0 28.849 42.974c13.78 9.251 30.5 18.462 46.669 27.371 12.82 7.063 24.93 13.735 33.4 19.305 30.187 19.848 50.1 31.766 64.878 38.461l69.243 57.55c12.289 11.118 20.469 25.425 29.127 40.568 1.775 3.1 3.609 6.311 5.466 9.462 18.8 31.891 46.546 43.345 66.514 47.338a117.127 117.127 0 0 0 22.857 2.241 93.656 93.656 0 0 0 16.319-1.26 6 6 0 0 0 4.726-4.615l80.129-367.843a34.069 34.069 0 0 0 -33.06-41.32zm-221.621-36.248c7.01-20.891 11.735-26.2 13.115-27.394 6.118 2.451 15.621 16.752 21.856 30.11q-1.68 3.856-3.247 8.194c-6.252 1.29-20.242 4.4-37.811 9.7 1.443-5.597 3.551-13.05 6.087-20.61zm-100.861 79.477c3.2-2.584 6.546-5.069 10.007-7.461a25.054 25.054 0 0 1 6.677 3.961c6.36 5.171 11.218 13.6 14.047 24.378 5.461 20.8 15.688 44.242 25.577 66.913 11.066 25.37 23.609 54.125 20.316 62.38-.238.6-.447.687-.669.781-10.331 4.373-17.538-5.462-32.72-30.675-10.876-18.064-24.413-40.547-44.93-57.132-23.1-18.671-36.47-32.231-42.407-39.2a142.412 142.412 0 0 0 44.102-23.945zm-123.433 35.328a3.489 3.489 0 0 1 3.809-2.792c2.436.215 5.318.41 8.542.542 1.456 3.475 2.716 8.287 1.145 11.026-1.224 2.134-4.69 3.428-9.866 3.717a13.993 13.993 0 0 1 -3.63-12.493zm467.25-39.79-79.235 363.742c-13.9 1.444-62.178 2.781-89.247-43.141-1.817-3.083-3.632-6.256-5.386-9.325-8.766-15.332-17.832-31.186-31.6-43.6-.06-.055-.122-.108-.184-.159l-49.343-41.011c.26 0 .521.014.78.014 6.847 0 13.212-1.489 20.821-3.557 13.132-3.57 31.118-8.458 69.02-5.719 16.438 1.189 31.206-3.811 43.9-14.86 17.049-14.836 30.067-40.153 38.69-75.249a306.908 306.908 0 0 0 7.85-47.856 6 6 0 0 0 -11.973-.8c-.056.828-5.932 83.079-42.444 114.849-10.343 9-21.837 12.907-35.161 11.944-39.943-2.885-59.07 2.312-73.035 6.109-11.4 3.1-18.287 4.972-31.34.649-14.44-4.781-35.607-16.777-73.061-41.4-8.863-5.827-21.172-12.609-34.2-19.789-15.942-8.783-32.427-17.866-45.771-26.823a56.532 56.532 0 0 1 -21.446-27.3c42.372 16.636 103.49 36.545 107.509 36.545a6 6 0 0 0 .708-11.959c-6.422-1.382-78.116-24.4-120.086-42.394a12.871 12.871 0 0 1 -7.5-14.734c8.987-.747 15.173-3.993 18.413-9.683 3.125-5.488 2.56-11.8 1.157-16.842a189.536 189.536 0 0 0 41.864-5.583 105.046 105.046 0 0 0 9.76 11.269c6.578 6.824 18.419 18.192 37.484 33.6 18.872 15.256 31.262 35.834 42.193 53.99 7.109 11.808 13.25 22.007 20.093 28.814 5.829 5.8 11.967 8.708 18.332 8.708a23.624 23.624 0 0 0 9.253-1.986 13.065 13.065 0 0 0 7.137-7.386c4.9-12.284-4.583-35.22-20.463-71.624-9.706-22.252-19.744-45.263-24.968-65.162-4.79-18.244-13.589-27.747-20.826-32.661 38.744-23.091 86.578-35.812 106.868-40.5q-.767 2.739-1.5 5.617a309.03 309.03 0 0 0 -7.182 39.078 6 6 0 1 0 11.934 1.266c2.054-19.365 11.506-72.155 30.326-83.72 3.887-2.388 7.814-2.694 12.359-.968 29.585 11.244 41.617 90.575 43.755 120.194a6 6 0 0 0 5.979 5.568c.144 0 .291 0 .437-.016a6 6 0 0 0 5.553-6.415 410.388 410.388 0 0 0 -9.071-57.977q-1.276-5.414-2.659-10.431a100.121 100.121 0 0 1 55.087 34.7c12.447 15.219 17.1 29.469 17.145 29.6a6 6 0 1 0 11.441-3.619c-.207-.654-5.227-16.222-18.966-33.17a116.067 116.067 0 0 0 -15.734-15.971l55.117.369a22.07 22.07 0 0 1 21.415 26.765z"/></g></svg>