<svg id="Layer_1" enable-background="new 0 0 512 512" height="512" viewBox="0 0 512 512" width="512" xmlns="http://www.w3.org/2000/svg"><path d="m128.2 347.2c-12.4-2.4-24.4-4.7-35.2-6.9-21.7-4.4-38.2-8-42.8-9.8-17.3-6.8-17.7-22.3-17.7-22.3 15.6-9.9 11.7-24.5 3.5-31.5-7-6-17.6-5.2-17.6-5.2 4.1-9.4 14.4-20.1 34.9-31.7 69.3-38.9 71.2-58.6 132.6-95.1 11-6.6 21.2-12 30.7-16.5 16.6-7.9 31.2-12.8 44.6-15.6 19.8-4.2 36.9-3.7 54.2-1.4 8.6-8.7 19.2-14.4 32.5-14.4 7.7 0 12.6 10.8 14.5 25.8 0 0 53 9 77.1 9 11.4-.1 22.8-1.3 34-3.5 10.2-2 20.1 4.6 22.2 14.8.4 1.8.4 3.6.3 5.3l-27.2 300.5c-.2 2.4-2.3 4.1-4.7 3.9-1.4-.1-2.6-.9-3.3-2-5.9-9.7-16.9-23.1-37.5-37.2-69-47.5-155-52.1-155-52.1-20.5 3.8-41.6 3.9-62.2.1-22.7-3.9-51.3-9.1-77.9-14.2z" fill="#8e8888"/><path d="m249.4 75.8c11.4 13 11.8 36.8 11.8 36.8-13.4 2.8-27.9 7.7-44.6 15.6l-.1-.2s-5.3-45.8 23.5-68.6c.7-.5 1.6-.4 2.1.3.2.3.3.6.3 1-.3 3.2.9 8.2 7 15.1z" fill="#635c5c"/><path d="m192.1 205.5c6.4 0 11.7 5.2 11.6 11.7 0 6.4-5.2 11.7-11.7 11.6-6.4 0-11.6-5.2-11.6-11.7 0-6.4 5.2-11.6 11.7-11.6z" fill="#2f2b2b"/><path d="m36 276.7c8.2 7 12.1 21.6-3.5 31.5 0 0-24-14.6-14.1-36.7 0 0 10.6-.8 17.6 5.2z" fill="#4a5160"/><path d="m293.7 139.6c5.2-12 11.4-21.6 18.5-28.7-16.2-2-32.5-2.1-51.1 1.8-13.4 2.8-27.9 7.7-44.6 15.6-9.5 4.5-19.7 9.9-30.7 16.5-61.4 36.5-63.2 56.2-132.6 95.1-20.6 11.6-30.8 22.3-35 31.7 0 0 10.6-.8 17.6 5.2.9.8 1.8 1.6 2.5 2.6 4.7-3.4 9.7-6.6 14.8-9.4 69.3-38.9 71.2-58.6 132.6-95.1 11-6.6 21.2-12 30.7-16.5 16.7-7.9 31.2-12.8 44.6-15.6 11.7-2.6 22.4-3.4 32.7-3.2z" fill="#ada8a8"/><g fill="#203a59"><path d="m342.3 120.8c-1-3.2-4.4-4.9-7.6-3.8-3.2 1-4.9 4.4-3.8 7.6 8.3 25.6 7.2 56.7-11.4 64-3.1 1.2-4.6 4.7-3.4 7.8s4.7 4.6 7.8 3.4c22.7-9 30.4-42.1 18.4-79z"/><path d="m192.1 199.5c-9.8 0-17.7 7.9-17.6 17.7s7.9 17.7 17.7 17.6c9.7 0 17.6-7.9 17.6-17.7-.1-9.7-8-17.6-17.7-17.6zm0 23.3c-3.1 0-5.7-2.6-5.6-5.7 0-3.1 2.6-5.7 5.7-5.6 3.1 0 5.6 2.5 5.6 5.7 0 3.1-2.6 5.6-5.7 5.6z"/><path d="m493.8 128.2c-5.8-5.3-13.8-7.5-21.5-5.9-10.8 2.2-21.8 3.3-32.9 3.4-19.4 0-58.8-6.1-71.8-8.2-2.9-17.1-9.9-26.6-19.8-26.6h-.1c-12.8 0-24.4 4.8-34.4 14.1-15.5-2.1-31.2-1.9-46.7.6-1-8.7-4-23.8-12.8-33.7-5.3-6-5.6-9.4-5.5-10.6.3-4.1-2.8-7.7-6.9-8-1.9-.1-3.8.4-5.2 1.6-13 10.3-21.5 26.4-24.7 46.6-1.2 7.7-1.6 15.5-1.3 23.3-8.6 4.2-17.7 9.1-27.4 14.9-29.3 17.4-45.4 31.3-61.1 44.6-18.1 15.4-35.1 30-71.4 50.4-19.5 11-32 22.4-37.4 34.2-.1.1-.1.2-.2.4-1.8 3.9-2.7 8.1-2.8 12.4-.3 15.5 11.6 26.1 16.9 30 1.1 5.9 5.3 18.3 21.1 24.5 4.6 1.8 19.6 5.2 40 9.3 1.9 10.1 2.2 21.2-1.2 31.7-1.1 3.1.5 6.6 3.6 7.7s6.6-.5 7.7-3.6c0-.1.1-.2.1-.4 3.2-9.8 4-21 2.3-32.9 7.2 1.4 15 2.9 23 4.5 2.6 8.7 4.1 17.7 4.6 26.8.1 3.2 2.8 5.7 6 5.8h.3c3.3-.1 5.9-2.9 5.7-6.2-.4-8-1.5-16-3.5-23.8 22.3 4.2 46.2 8.6 68.4 12.6 10.6 1.9 21.3 2.9 32.1 2.9 10.6 0 21.2-1 31.7-2.9 8.9.6 87.8 7.4 151.1 51 20.2 13.9 30.6 26.9 35.7 35.4 3 4.9 9.3 6.4 14.2 3.4 2.8-1.7 4.6-4.6 4.9-7.9l27.2-300.5c.8-8-2.2-15.7-8-20.9zm-255.7-58.7c1.7 3.8 4 7.2 6.8 10.3 7 8 9.2 21.2 10 28.3-11.2 2.8-22.1 6.5-32.7 11.2 0-12 2.1-34.5 15.9-49.8zm-205.6 231.3c-4.1-3.4-10.6-10.2-10.5-18.9 0-1.4.2-2.8.6-4.2 3 .3 6.8 1.3 9.5 3.6 3.3 2.7 5.2 6.7 5.1 11-.3 3.1-1.8 5.9-4.7 8.5zm457.4-153-26.8 295.7c-6.4-9.3-17.5-21.8-36.5-34.9-45-30.9-96.3-44-128-49.4 11.1-4.2 21.6-9.5 31.6-15.9 31-19.9 46.8-44 47.1-71.7 0-3.3-2.6-6-5.9-6.1-3.3 0-6 2.7-6 6-.2 23.4-14.2 44.2-41.6 61.7-34.2 21.9-75.6 29.9-116.6 22.5-28.2-5.1-53.1-9.7-74.3-13.7-6.6-19-16.1-36.8-28.1-53-2.1-2.6-5.9-3-8.4-.9-2.5 2-2.9 5.7-1 8.3 9.7 13.2 17.7 27.6 23.7 42.9-7.6-1.5-14.7-2.8-21.1-4.1-.8-2.8-1.6-5.7-2.6-8.5-3.1-8.9-7.1-17.4-12-25.5-1.8-2.8-5.5-3.6-8.3-1.8s-3.6 5.5-1.8 8.3c4.7 7.8 8.5 16.1 11.4 24.8-17.8-3.7-28.9-6.3-32.2-7.6-2.5-.9-4.8-2.3-6.8-4 3.5.9 7.1 1.3 10.7 1.3 1.3 0 2.7-.1 4.1-.2 3.3-.3 5.7-3.2 5.4-6.5s-3.2-5.7-6.5-5.4c-5.6.5-11.2-.5-16.4-2.8 3.7-3.9 5.9-9 6.3-14.3.4-8-3-15.8-9.2-20.9-3.3-2.7-7.2-4.6-11.4-5.6 5.7-7.1 15-14.3 27.7-21.4 37.3-20.9 55.6-36.6 73.3-51.7 16-13.7 31-26.6 59.4-43.4 50.8-30.2 82.9-36.4 114.6-33.9-5.9 8.3-10.7 17.3-14.4 26.8-6.2 16-10.5 32.7-12.9 49.7-.4 3.3 2 6.3 5.3 6.7s6.3-2 6.7-5.3c.1-.7 6.6-53.1 31-78.1.3-.2.5-.5.8-.8 7.5-7.4 16.7-12.2 27.8-12.2 3.5 0 8.6 10.6 9.3 30.4 1.1 32.2-9.8 68.9-27.1 70.1-3.3.2-5.8 3.1-5.6 6.4.2 3.1 2.8 5.6 6 5.6h.4c13.1-.9 23.7-11.5 30.7-30.6 5.3-14.7 8.2-34.1 7.6-51.9 0-1-.1-2.1-.1-3.1 15.7 2.5 51.4 7.8 70.5 7.8 11.8-.1 23.6-1.3 35.2-3.6 4-.8 8.1.3 11.1 3.1 2.8 2.7 4.3 6.7 3.9 10.7z"/></g></svg>