<svg id="Layer_1" height="512" viewBox="0 0 512 512" width="512" xmlns="http://www.w3.org/2000/svg" data-name="Layer 1"><path d="m348.54 207.38c-7.84-18.39-19.21-33.57-33.56-42.16a54.97 54.97 0 0 0 -9.48-4.54c-11.35-4.13-20.85-8.14-28.81-11.96l-.01-.01c-42.38-20.36-40.94-35.51-40.94-35.51-23.17 0-42.94 3.8-59.83 10.2-64.69 24.5-87.17 87.1-96.68 120.39-.43 1.51-.89 2.97-1.38 4.37 10.06 1.98 17.38 28.43 18.53 33.34 1.3 5.6 2.17 20.26 37.8 24.25 25.31 2.84 44.23 40.46 36 67.88a163.107 163.107 0 0 1 45.39-5.99l26.04 2.4v.01c14.62 1.99 29.62 4.39 43.42 3.59 76.13-4.44 90.15-103.84 63.51-166.26z" fill="#d16756"/><path d="m487.74 151.31a9.07 9.07 0 0 1 7.65 12.29l-120.31 314.34c-3.27 8.55-15.7 7.44-17.41-1.56-20.83-109.77-212.5-77.35-212.5-77.35 13.79-4.74 21.65-14.23 25.01-25.4a163.107 163.107 0 0 1 45.39-5.99 215.923 215.923 0 0 1 26.04 2.41c14.62 1.99 29.62 4.39 43.42 3.59 76.13-4.44 90.15-103.84 63.51-166.26 32.21 4.71 59.97-35.81 59.97-35.81-24.64 11.71-56.72-12.33-56.72-12.33 20.29 3.7 38.85-16.02 38.85-16.02-35.73 0-38.85-24.24-38.85-24.24s39.59 0 90.05 21.08a154.569 154.569 0 0 0 45.9 11.25z" fill="#e26649"/><path d="m351.79 159.24c20.29 3.7 38.85-16.02 38.85-16.02-35.73 0-38.85-24.24-38.85-24.24-.64-33.86-29.37-88.81-64.14-90.73-16.29-.9-28.71 17.71-37.32 37.73-9.75 22.7-14.59 47.22-14.59 47.22s-1.44 15.15 40.94 35.51l38.3 16.51c14.35 8.59 25.72 23.77 33.56 42.16 32.21 4.71 59.97-35.81 59.97-35.81-24.64 11.71-56.72-12.33-56.72-12.33z" fill="#8e4436"/><path d="m250.33 65.98c-9.75 22.7-14.59 47.22-14.59 47.22-23.17 0-42.94 3.8-59.83 10.2 0 0 1.54-81.73 34.75-87.48s39.67 30.06 39.67 30.06z" fill="#aa4d41"/><path d="m134.18 305.75c-35.63-3.99-36.5-18.65-37.8-24.25-1.15-4.91-8.47-31.36-18.53-33.34-9.26 26.77-28.18 35.15-38.37 37.77l-13.55 46.9c.44.52.89 1.04 1.36 1.57 0 0 9.56 25.07 35.6 35.13 0 0 22.31 50.13 82.28 29.5 13.79-4.74 21.65-14.23 25.01-25.4 8.23-27.42-10.69-65.04-36-67.88z" fill="#ffbdb0"/><path d="m136.82 245.96a11.725 11.725 0 1 0 -11.72 11.73 11.726 11.726 0 0 0 11.72-11.73z" fill="#442624"/><g fill="#ffbdb0"><path d="m276.1 228.77s-18.56-6.76-23.77 15.93c0 0 20.13-1.14 27.6 10.91-31.57 10.91-26.79 42.07-22.62 70.48a48.367 48.367 0 0 1 -15.7 43.95v.01a215.923 215.923 0 0 0 -26.04-2.41s8-9.05-.35-38.63c-5.62-19.91-31.72-85.51-1.39-114.86 27.42-26.53 56.7-.69 62.27 14.62z"/><path d="m161.32 200.93c-11.24 17.15-45.7 22.03-44.9 3.87 1.09-24.65 44.9-3.87 44.9-3.87z"/><path d="m279.93 79.35c23.1-24.53 61.9 25.17 35.05 85.87a54.97 54.97 0 0 0 -9.48-4.54c-11.35-4.13-20.85-8.14-28.81-11.96l-.01-.01c-.26-.97-13.9-51.16 3.25-69.36z"/></g><path d="m235.74 113.2c-23.17 0-42.94 3.8-59.83 10.2-64.69 24.5-87.17 87.1-96.68 120.39-.43 1.51-.89 2.97-1.38 4.37 4.659.917 8.728 7.083 11.871 13.926 9.787-33.68 32.586-94.6 96.189-118.686 15.233-5.772 41.151-10.575 63.089-11.463-13.954-11.366-13.259-18.737-13.259-18.737z" fill="#994a42"/><path d="m77.85 248.16c-9.26 26.77-28.18 35.15-38.37 37.77s8.154 14.584 9.664 25.675a27.323 27.323 0 0 1 10.6-9.533c9.808-4.93 21.454-14.671 28.11-33.912.49-1.4.95-2.86 1.38-4.37q.24-.839.491-1.7c-3.147-6.847-7.216-13.013-11.875-13.93z" fill="#d1978f"/><path d="m39.48 285.93s21.03 37.61 1.8 37.97c-8.53.17-7.08 7.5-15.35 8.93-13.96-16.6-10.81-28.65-5-36.19a28.268 28.268 0 0 1 16.6-10.26q.915-.195 1.95-.45z" fill="#60312b"/><path d="m125.1 263.689a17.728 17.728 0 1 0 -17.722-17.728 17.745 17.745 0 0 0 17.722 17.728zm0-23.456a5.728 5.728 0 1 1 -5.722 5.728 5.732 5.732 0 0 1 5.722-5.728z" fill="#203a59"/><path d="m122.191 221.058a27.749 27.749 0 0 0 8.45 1.2c12.429 0 28.1-6.455 35.7-18.041a6 6 0 0 0 -2.447-8.71 117.48 117.48 0 0 0 -16.327-6.06c-12.864-3.673-22.631-3.583-29.026.267-3.5 2.1-7.739 6.385-8.111 14.821-.348 7.859 4.05 14.034 11.761 16.523zm.226-15.993c.166-3.775 1.669-4.68 2.311-5.067a12.132 12.132 0 0 1 6.147-1.287c5.7 0 13.39 1.974 20.193 4.455-7.549 5.852-18.757 8.548-25.191 6.471-3.006-.97-3.553-2.468-3.46-4.572z" fill="#203a59"/><path d="m488.277 145.335a148.787 148.787 0 0 1 -44.129-10.807c-40.439-16.9-73.794-20.547-86.685-21.333-1.625-17.236-8.985-37.687-19.886-54.783-14.239-22.333-31.852-35.17-49.6-36.148-13.754-.748-26.11 8.8-36.894 28.409a48.933 48.933 0 0 0 -3.226-5.319c-6.257-8.936-17.971-18.854-38.222-15.344-16.422 2.843-28.087 19.851-34.671 50.55a251.9 251.9 0 0 0 -4.9 38.688 143.093 143.093 0 0 0 -54.578 39.584c-27.243 31.574-38.364 70.514-42.018 83.31-2.788 9.762-11.991 33.047-37.175 38.372a34.223 34.223 0 0 0 -20.123 12.465c-5.781 7.52-12.606 23.25 5.955 44.639 2.2 5.1 12.615 26.406 36.418 36.613a72.422 72.422 0 0 0 19.363 22.562 64.586 64.586 0 0 0 39.838 13.2 89.814 89.814 0 0 0 28.827-5.108c4.725-.751 49.878-7.582 96.6-2.353 28.429 3.183 51.827 10.136 69.543 20.668 21.515 12.79 34.66 31.061 39.07 54.3a14.958 14.958 0 0 0 13.481 12.213q.7.063 1.389.062a14.936 14.936 0 0 0 14.036-9.695l120.31-314.333a15.075 15.075 0 0 0 -12.719-20.412zm-201.744-111.111c.261 0 .526.007.787.022 30.876 1.7 57.877 53.326 58.472 84.848a6.116 6.116 0 0 0 .05.653 31.158 31.158 0 0 0 7.442 15.279c4.046 4.672 10.919 9.993 22.222 12.591-6.2 3.846-14.382 7.227-22.637 5.723a6 6 0 0 0 -4.675 10.7c1.124.841 22.305 16.477 44.726 16.738-9.524 9.779-24.405 21.573-40.31 20.958-7.752-16.929-18.093-30.183-30.178-38.8 9.1-23.069 8.509-42.173 6.267-54.43-3.038-16.607-10.74-30.089-21.132-36.988-10.819-7.184-23.085-5.762-32.007 3.709-8.41 8.928-11.68 24.482-9.721 46.23.531 5.891 1.374 11.414 2.223 16.022-22.915-12.948-25.914-22.186-26.28-23.9 4.392-21.6 21.318-79.355 44.751-79.355zm25.315 122.587c-1.416-.645-2.847-1.239-4.3-1.767-10.039-3.653-18.548-7.184-25.76-10.544-3.727-15.016-9.07-48.75 2.5-61.037 4.992-5.3 10.589-5.955 16.636-1.941 20.722 13.757 19.717 50.457 10.924 75.289zm-100.166-114.977c11.322-1.958 19.875 1.352 26.154 10.127a42.861 42.861 0 0 1 6.208 13.489c-.319.766-.638 1.533-.953 2.319a277.139 277.139 0 0 0 -12.2 39.482 176.248 176.248 0 0 0 -48.572 7.6c1.718-24.368 9.02-69.495 29.363-73.017zm-87.115 124.837c26.244-30.417 62.022-46.351 106.392-47.414 3.75 9.56 18.346 27.367 72.487 47.064 17.356 6.314 32.109 23.458 41.541 48.273 9.11 23.966 12.169 52.5 8.393 78.29-9.432 64.416-51.187 73.742-68.7 74.762-9.734.566-20.411-.582-31.011-2a54.34 54.34 0 0 0 9.579-40.434l-.074-.506c-4.815-32.744-6.114-54.85 18.711-63.429a6 6 0 0 0 3.14-8.831c-5.684-9.176-16.522-12.282-24.239-13.3a10.986 10.986 0 0 1 4-4.069c4.211-2.346 9.251-.671 9.253-.67a6 6 0 0 0 7.691-7.687c-4.074-11.22-17.33-25.21-33.85-29.02-9.458-2.182-23.77-1.846-38.226 12.141-29.439 28.483-11.485 85.036-2.856 112.214 1.079 3.4 2.012 6.34 2.645 8.584 5.04 17.858 3.636 27.139 2.405 31.011a175.4 175.4 0 0 0 -33.978 3.873 62.233 62.233 0 0 0 -.132-12.774c-2.641-23.962-19.407-50.321-42.892-52.957-29.2-3.276-31.337-13.51-32.363-18.428-.091-.44-.177-.849-.264-1.222-1.154-4.944-6.731-26.713-17.152-34.929 3.533-12.383 14.133-49.141 39.5-78.542zm126.733 159.782.074.505a42.515 42.515 0 0 1 -11.718 36.77c-5.181-.688-10.385-1.3-15.491-1.686 1.416-6.857 1.574-17.841-3.174-34.664-.686-2.431-1.645-5.454-2.757-8.955-7.9-24.878-24.333-76.645-.237-99.959 8.5-8.22 17.646-11.272 27.186-9.071 8.38 1.931 15.409 7.408 20.019 12.9a21.7 21.7 0 0 0 -6.065 2.2c-6.31 3.431-10.567 9.778-12.652 18.863a6 6 0 0 0 6.185 7.332c.12 0 9.546-.392 16.511 3.164-26.365 14.901-21.698 46.639-17.881 72.601zm-222.587-2.184c-.372.436-.685.8-.979 1.114-6.905-9.649-7.58-17.9-2.05-25.089a21.9 21.9 0 0 1 10.688-7.386c4.85 9.834 8.432 21.32 6.583 24.542-.226.4-1.429.447-1.791.454-7.152.136-10.341 3.884-12.451 6.365zm114.5 69.091c-35.658 12.266-56.542-2.428-66.827-14.291 16.765 2.141 35.529-1.616 56.015-11.251a6 6 0 0 0 -5.107-10.859c-24.309 11.434-45.447 13.7-62.832 6.749-17.435-6.976-26.671-21.689-30.045-28.21a23.707 23.707 0 0 0 3.436-3.453c1.555-1.828 1.794-2.11 3.54-2.143 7.259-.138 10.616-4.119 11.97-6.48 3.214-5.6 2.587-14.071-1.919-25.893-1.138-2.987-2.37-5.779-3.467-8.106 10.2-4.1 23.751-12.911 32.5-31.746 3.571 5.286 7.791 15.491 10.052 25.188.068.289.133.607.2.947 1.476 7.081 4.934 23.659 42.772 27.9 15.428 1.731 29.92 20.727 32.3 42.345 1.016 9.137.829 31.249-22.588 39.303zm346.576-231.9-120.31 314.333a3.084 3.084 0 0 1 -5.911-.528c-9.057-47.734-50.309-77.017-119.3-84.685-29.088-3.232-57.046-2.038-76-.366a43.038 43.038 0 0 0 6.617-11.66 160.7 160.7 0 0 1 40.6-4.912c9.308.116 19.248 1.5 29.772 2.964 11.292 1.572 22.909 3.189 34.087 3.189q3.038 0 6.028-.169c22.862-1.332 41.68-10.561 55.932-27.435 12.279-14.537 20.559-34.444 23.945-57.568a174.225 174.225 0 0 0 -7.87-81.017c30.948-2.528 54.969-37.031 56.076-38.646a6 6 0 0 0 -7.525-8.81c-11.287 5.363-24.924 1.666-35.188-2.948 13.768-4.881 23.677-15.247 24.266-15.873a6 6 0 0 0 -4.369-10.112c-17.427 0-25.691-6.321-29.572-11.69 14.319 1.283 43.8 5.593 78.449 20.074a160.763 160.763 0 0 0 47.684 11.685 3.078 3.078 0 0 1 2.586 4.172z" fill="#203a59"/></svg>