<svg id="Layer_1" enable-background="new 0 0 512 512" height="512" viewBox="0 0 512 512" width="512" xmlns="http://www.w3.org/2000/svg"><path d="m482.6 111.7c-34.9-5.7-85.8 7.9-85.8 7.9-19.2-12.8-36.8-11.9-49.9-7.5-8.3 2.8-16 7.3-22.5 13.1-20-42.9-46.8-47.2-46.8-47.2-17.3 16.9 2.2 52.2 2.2 52.2-3.1.1-6.2.4-9.2.9-11.8 1.8-22.1 6.4-30.1 14.8-4.8 5.2-8.7 11.2-11.2 17.8-9.4 23.2-31.1 17.2-31.1 17.2.7.7 1 1.8.7 2.7l-54.7 20.4c-6.5.8-20.4 8-20.4 8l-52.8 48.7c.3 1.1.4 2.3.2 3.5-2.3 13.2-8.8 60.4 12.3 80.8 3.5 3.4 9.1 3.7 13 .8 1.4-1.1 3-2.3 4.9-3.6 0 0 39.7 19 69.3 18.8 64.9-.4 66.8 5.2 113.5-26.3 4.9-3.3 9.5-6.9 13.9-10.8 0 0 8.1 38.5 36.1 37.2 1.5-.1 3-.2 4.5-.5 0 0 9 21.9 28.9 25.8 3.1.6 6.3.7 9.4.3v.3s26.6 19.8 48.2 46.3c8.8 10.8 26.3 5.9 28.3-7.9l42.3-295.4c1.3-8.8-4.6-16.8-13.2-18.3z" fill="#6d7486"/><path d="m277.6 108s26.8 4.3 46.8 47.2c6.6-5.7 14.3-10.2 22.5-13.2 13.1-4 30.7-5.3 49.9 7.5 0 0 50.9-13.5 85.8-7.8 4.3.7 8.1 3.2 10.6 6.8l2.7-18.6c1.3-8.6-4.6-16.7-13.2-18.1-34.9-5.7-85.8 7.8-85.8 7.8-19.3-12.9-36.9-11.6-49.9-7.6-8.2 3-15.9 7.4-22.5 13.2-20.1-42.9-46.9-47.2-46.9-47.2-9.6 9.4-7.8 24.5-4.4 36.1 1.2-2.3 2.6-4.3 4.4-6.1z" fill="#4a5160"/><path d="m270.7 131.1c-11.8 1.8-22.1 6.4-30.1 14.8-4.8 5.2-8.7 11.2-11.2 17.8-9.4 23.2-31.1 17.2-31.1 17.2.7.7 1 1.8.7 2.7l-54.8 20.4c-6.5.8-20.4 8-20.4 8l-52.8 48.7c.3 1.1.4 2.3.2 3.5-1.7 9.5-2.6 19.1-2.8 28.7l47.5-43.7c6.4-6 14-10.6 22.2-13.6.9-.3 1.9-.6 2.8-.9 3.5-1 6.9-2.3 10.2-3.7l31.8-13.6c7.5-3.3 15.5-5.2 23.6-5.9 7.1-.5 17.1-4 22.7-17.9 2.6-6.6 6.4-12.6 11.2-17.8 8-8.3 18.3-13 30.1-14.8 3.1-.5 6.1-.7 9.2-.9.2.1-7.8-14.2-9-29z" fill="#4a5160"/><path d="m232.9 98.6c12.5 17.1 37.8 32.5 37.8 32.5-11.8 1.8-22.1 6.4-30.1 14.8l-19.7-31.8c-1.8-2.9-4.8-4.9-8.2-5.3-31.4-4.4-23.1-39.9-4.1-35.4 19.9 4.7 18 16.7 24.3 25.2z" fill="#6d7486"/><path d="m235.7 234.5c5.7 0 10.3 4.6 10.3 10.3s-4.6 10.3-10.3 10.3-10.3-4.6-10.3-10.3c0-5.7 4.6-10.3 10.3-10.3z" fill="#30353f"/><path d="m123.8 212s-5.9 35.7-52.8 48.7c-.3-1-.8-1.9-1.4-2.8-12.9-16.2-76.3-101.7-45-184.6 0 0 31.6 109.7 99.2 138.7z" fill="#b0b5ca"/><path d="m198.3 180.9c.7.7 1 1.8.7 2.7-6.8 26.6-54.8 20.4-54.8 20.4s-27.6-39.5-10.2-77.9c0 0 38.1 48.9 62.7 53.9.6.1 1.1.4 1.6.9z" fill="#b0b5ca"/><g fill="#203a59"><path d="m155.7 294.2c-7.4-2.2-9.1-4.7-11.5-8.5-2.5-3.9-5.7-8.7-14.2-12.5-10.2-4.6-19.2-5-26.6-1.2-10.8 5.5-13.6 17.9-13.7 18.4-.7 3.2 1.4 6.4 4.7 7.1 3.2.7 6.3-1.4 7.1-4.5 0-.1 1.8-7.4 7.5-10.3 4-2 9.5-1.5 16.2 1.5 5.3 2.4 7 4.9 9.1 8.2 2.9 4.5 6.5 10 18.2 13.4 3.2 1 6.5-.8 7.5-4s-.8-6.5-4-7.5c-.2-.1-.3-.1-.3-.1z"/><path d="m121.4 298.9c-2.9 1.2-4.6 1.2-5.2.8-.7-.4-1.2-2.1-1.3-3-.2-3.3-3.1-5.8-6.4-5.6s-5.8 3.1-5.6 6.4c0 .9.7 8.5 6.9 12.4 2.2 1.4 4.8 2.1 7.4 2.1 3-.1 6-.7 8.8-2 3.1-1.3 4.5-4.8 3.2-7.8-1.2-3.1-4.7-4.6-7.8-3.3z"/><path d="m235.7 228.5c-9 0-16.3 7.3-16.3 16.3s7.3 16.3 16.3 16.3 16.3-7.3 16.3-16.3-7.3-16.3-16.3-16.3zm0 20.6c-2.4 0-4.3-1.9-4.3-4.3s1.9-4.3 4.3-4.3 4.3 1.9 4.3 4.3-1.9 4.3-4.3 4.3z"/><path d="m483.6 105.8c-31.6-5.1-74.6 4.6-85.7 7.3-21.6-13.4-41.2-10.9-54.1-6.3-6.2 2.2-12 5.3-17.3 9.1-14-26.4-30.5-37.1-40-41.2-4.1-1.8-8.6-2.5-13-2-14.4 15-8.3 38.1-3.2 51-7.2-4.7-23.6-16.3-32.6-28.6-1.3-2-2.5-4.2-3.3-6.5-3.2-7.5-7.1-16.9-24.4-21.1-6.8-1.8-14 .5-18.6 5.8-5.6 6.6-7.2 15.8-4.2 23.9 3.5 9.4 12.4 15.7 24.6 17.4 1.6.2 3.1 1.2 4 2.6l17.4 28c-3.9 4.9-7 10.4-9.3 16.2-6.3 15.6-19 14.6-22.9 13.9-.9-.6-2-1-3-1.2-18.3-3.7-48.7-38.4-59-51.6-.9-1.2-2.2-2-3.6-2.3-2.8-.6-5.5.8-6.7 3.4-14.3 31.6-1 63.1 6.5 76.8-4.2 1.6-8.5 3.6-11.3 4.9-62.5-29.1-93-132.6-93.3-133.6-.9-3.2-4.2-5-7.4-4.1-1.8.5-3.3 1.9-3.9 3.6-32.4 85.8 32.6 173.7 46 190.4.3.4.5.9.4 1.4-2.6 14.6-9.1 63.8 14.1 86.2 5.7 5.5 14.5 6 20.8 1.2.6-.5 1.2-.9 1.9-1.4 10.3 4.6 42.3 17.9 68.2 17.9h.5c9.7-.1 18 0 25.3.1 4.4 0 8.4.1 12.1.1 31.7 0 42.6-2.6 79.5-27.5 2.6-1.7 5-3.5 7.4-5.4 1.5 4.1 3.3 8 5.5 11.7 8.1 13.9 19.3 21.1 32.4 21.1h1.6.7c4 7.3 14 21.8 31.2 25.2 2.2.4 4.5.7 6.7.7.6 0 1.2 0 1.8-.1 5.8 4.5 27.7 22 45.7 44.2 4.1 5.1 10.3 8.1 16.9 8.1 2 0 4.1-.3 6-.8 8.5-2.3 14.8-9.4 16-18.2l42.3-295.4c1.1-11.9-6.9-22.9-18.7-24.9zm-257.6 5.1c-2.7-4.4-7.3-7.4-12.5-8.1-7.8-1.1-13.1-4.5-15-9.7-1.5-4-.8-8.5 1.9-11.8 1.7-2 4.3-2.8 6.8-2.1 11.4 2.7 13.4 7.5 16.2 14 1.2 3.2 2.8 6.2 4.7 9 7.7 10.4 19.5 20.1 28.3 26.4-5.2 1.9-10.1 4.6-14.4 8zm-89.9 27.2c4 4.7 9.5 10.9 15.7 17.2 15.9 16.3 29.5 26.2 40.3 29.7-7 14.7-35.5 13.9-44.5 13.3-4.6-7.7-18.2-33.5-11.5-60.2zm-111.1-45c5.3 14.2 11.5 28 18.6 41.5 21.2 40.1 45.7 67.2 73.1 80.7-3 8.7-13.1 28.5-42.9 38.3-12.6-16.1-64.7-87.5-48.8-160.5zm464.9 35.9-42.3 295.4c-.5 4-3.4 7.3-7.3 8.3-3.8 1.1-7.9-.2-10.4-3.3-14.4-17.7-30.8-32.3-40.6-40.4 1.9-.9 3.7-2 5.4-3.2 13.3-9.2 23-26.1 26.5-46.4.6-3-1.2-6-4.1-7-3.2-1-6.5.8-7.5 4-.1.2-.1.5-.2.7-2.9 17-11 31.4-21.5 38.7-6.1 4.2-12.8 5.8-19.2 4.6-10.4-2-17.5-10.4-21.2-16.2 10.4-4.4 21-14.7 27-37 3-11.7 4.5-23.7 4.4-35.8-.1-3.3-2.8-5.9-6.2-5.8-3.3.1-5.9 2.8-5.8 6.2.1 10.9-1.3 21.8-4 32.3-5.4 19.9-15.1 30.4-29 31-.3 0-.7 0-1 0-17.6 0-25.6-21.1-28.1-29.3 16.4-15.5 28.5-34.9 35-56.5 1-3-.4-6.3-3.3-7.6-3.1-1.3-6.6.2-7.8 3.2-.1.2-.1.4-.2.5-7.9 26.3-24.7 49-47.6 64.2-38.1 25.7-44.4 25.7-84.8 25.3-7.3-.1-15.7-.1-25.5-.1h-.4c-19.2 0-43.1-8.5-56.4-13.9 15.5-9.6 38.4-20.1 60.1-16.5 3.3.6 6.4-1.6 6.9-4.9 0-.2.1-.5.1-.7.1-3.1-2.2-5.7-5.2-6.2-30.5-5-61.8 13.2-77.8 24.5-.1 0-.1.1-.2.1-1.9 1.3-3.5 2.6-4.9 3.6-1.6 1.2-3.7 1.1-5.1-.3-15.1-14.5-15.3-48.5-10.6-75.4v-.1c38.6-12.5 49.3-39.7 51.9-49 5.1-2.5 11.8-5.3 15.3-6 3.8.4 7.6.6 11.5.6 15.6 0 41.3-3.2 48.2-23h.4c10.1 0 23.5-4.6 30.5-21.8 7.7-19.1 22.4-28.8 44.9-29.7 1.6 0 3.1-.7 4.3-1.8 1.9-1.9 2.3-4.8 1-7.2-.2-.3-13.2-24.7-6.9-39.7 6.8 8.4 18.6 25.6 18.7 44.5.1 12.5 9.9 27.9 14.3 33 2.2 2.5 6 2.7 8.5.5 0 0 .1-.1.1-.1 2.4-2.3 2.5-6 .3-8.5-4.1-4.7-11.2-16.9-11.2-25-.1-12.2-4-23.6-8.8-32.9 6.1 6.3 12.8 15.5 18.9 28.6l1.4 3c7.6 16.4 11.8 25.4 24.1 30.9 3 1.4 6.6 0 7.9-3 0-.1.1-.2.1-.2 1.1-3.1-.3-6.5-3.4-7.8-7.4-3.4-10.1-8.3-17.3-23.7 4.4-3.3 9.2-6 14.3-8.1 16.2 11.1 27 26.6 32.1 46 2.5 9.1 3.5 18.6 2.9 28-.3 3.3 2 6.2 5.3 6.6h.6c3.1 0 5.6-2.3 6-5.4.2-2.1 4.5-47.5-31.9-78.8 11-.8 21.8 2.3 32.3 9.3 35.4 23.7 22 77.4 21.9 77.9-.9 3.2 1 6.5 4.2 7.4s6.5-1 7.4-4.2v-.1c2.6-11.2 3.6-22.7 2.8-34.2-1.3-20.1-8.1-36.7-19.8-48.6 16.7-3.5 48.3-8.9 71.7-5.1 5.4 1.2 9.1 6.2 8.3 11.6z"/></g></svg>