<svg id="Layer_1" height="512" viewBox="0 0 512 512" width="512" xmlns="http://www.w3.org/2000/svg" data-name="Layer 1"><path d="m493.85 292.37c-.03-.01-.05-.03-.08-.04-40.85-23.04-71.57-60.62-86.96-104.9-11.62-33.42-23.78-42.22-44.68-70.06-27.43-36.55-71.08-39.83-72.23-39.91l-24.06-3.08a132.535 132.535 0 0 0 -22.37 1.89c-62.33 12.62-114.93 84.39-127.59 91.47-15.85 8.87-41.54 30.43-51.06 41.84s-33.23 33.07-40.57 39.27-5.29 30.1-5.29 30.1a24.009 24.009 0 0 0 -2.96 12.34c0 9.53 4.94 17.59 10.77 23.79a29.027 29.027 0 0 0 21.32 9.13c-.07.54-2.65 20.62 17.05 17.33 19.97-3.33 51.25-19.84 90.29-17.34 15.43.99 29.57 2.13 42.32 2.86 0 0 44.6 56.11 24.61 106.07a4.284 4.284 0 0 0 5.94 5.43l265.39-138.68a4.28 4.28 0 0 0 .16-7.51z" fill="#e5e4ca"/><path d="m205.01 176.67a10.36 10.36 0 1 0 -10.36 10.35 10.362 10.362 0 0 0 10.36-10.35z" fill="#515047"/><path d="m265.84 74.38a132.535 132.535 0 0 0 -22.37 1.89c-62.33 12.62-114.93 84.39-127.59 91.47-15.85 8.87-41.54 30.43-51.06 41.84s-33.23 33.07-40.57 39.27-5.29 30.1-5.29 30.1a24.009 24.009 0 0 0 -2.96 12.34c0 9.53 4.94 17.59 10.77 23.79a28.921 28.921 0 0 0 3.254 2.967c-.006-.252-.024-.5-.024-.757a24.009 24.009 0 0 1 2.96-12.34s-2.05-23.9 5.29-30.1 31.06-27.86 40.57-39.27 35.21-32.97 51.06-41.84c11.857-6.631 58.748-70 115.853-88.384 2.744-14.319 8.739-26.838 20.107-30.976z" fill="#c1bfa8"/><path d="m362.13 117.37c-27.43-36.549-71.078-39.83-72.23-39.91 9.518 5.269 19.439 15.042 29.024 28.733 15.45 4.02 39.65 13.784 57.206 37.177 11.172 14.881 19.845 24.323 27.274 34.992-10.656-26.234-22.404-35.854-41.274-60.992z" fill="#c1bfa8"/><path d="m289.9 77.46c16.35 9.05 33.89 31.37 48.87 64.06 20.2 44.11 27.68 112.15-31.43 148.04s-61.35-41.87-62.86-56.07 16.47-49.35 3.98-73.21c-5.73-10.93-11.47-75.4 17.38-85.9a24.37 24.37 0 0 1 7.49-1.43c5.27-.2 10.84 1.34 16.57 4.51z" fill="#b5b39c"/><g fill="#203a59"><path d="m22.4 319.191a34.986 34.986 0 0 0 19.655 10.47c.375 4.105 1.722 9.379 5.753 13.311 2.448 2.387 6.619 4.923 13.3 4.923a30.577 30.577 0 0 0 5.022-.437c6.6-1.1 13.968-3.425 22.5-6.119 18.078-5.7 40.581-12.808 66.415-11.147 6.733.432 13.219.892 19.45 1.334 7.007.5 13.714.971 20.123 1.358 7.472 10.32 38.578 57 22.169 98.015a10.265 10.265 0 0 0 14.288 12.978l265.399-138.677a10.281 10.281 0 0 0 .385-18.018l-.137-.078c-39.237-22.128-69.157-58.226-84.25-101.644-9.106-26.2-18.6-37.921-31.735-54.148-4.1-5.06-8.739-10.8-13.809-17.548-26.8-35.694-67.546-41.4-75.39-42.186-6.253-3.253-12.447-4.849-18.439-4.62a30.621 30.621 0 0 0 -8.221 1.429 137.121 137.121 0 0 0 -22.6 2c-48.34 9.789-90.958 53.716-113.854 77.316-6.7 6.905-13.027 13.427-15.472 14.8-16.853 9.433-43.087 31.655-52.741 43.23-9.047 10.85-32.022 31.93-39.835 38.536-8.286 7.006-8.043 25.543-7.529 33.4a31.042 31.042 0 0 0 -2.847 13.623c0 9.766 4.173 19.153 12.4 27.899zm235.039-229.617c3.99-6.886 9.262-10.362 16.12-10.625 17.891-.7 41.336 24.854 59.75 65.067 6.53 14.259 16.969 42.827 13.521 73.948-3.2 28.885-17.535 51.249-42.605 66.471-13.819 8.392-24.9 10.578-32.924 6.5-16.63-8.453-19.46-41.835-20.526-54.4-.125-1.473-.231-2.716-.333-3.679-.407-3.829 1.327-11.006 3.163-18.6 4.2-17.4 9.432-39.057.168-56.749-3.54-6.772-8.173-47.496 3.666-67.933zm-218.387 173.205a33.864 33.864 0 0 0 -14.16 3.119c.442-5.953 1.544-11.039 3.233-12.467 7.415-6.27 31.344-28.07 41.3-40.013 8.828-10.585 33.849-31.749 49.386-40.444 3.8-2.126 8.862-7.261 18.224-16.911 21.994-22.663 62.928-64.863 107.625-73.91 1.085-.22 2.317-.421 3.638-.6-.426.65-.841 1.318-1.242 2.01-13.568 23.42-9.715 68.424-3.912 79.506 7.17 13.693 2.527 32.917-1.2 48.365-2.176 9.012-4.056 16.8-3.43 22.69.1.895.193 2.053.309 3.425 1.335 15.742 4.46 52.6 27.045 64.085a30.833 30.833 0 0 0 14.175 3.3c9 0 19.181-3.42 30.415-10.242 60.671-36.838 56.108-106.883 33.767-155.672-9.575-20.909-20.286-37.861-31.324-50.07 13.845 4.987 31.2 14.391 44.435 32.019 5.2 6.928 9.918 12.754 14.079 17.894 12.832 15.85 21.309 26.321 29.727 50.537a198.751 198.751 0 0 0 87.006 106.613l-258.694 135.172c7-21.072 4.82-45.915-6.384-72.177a176.923 176.923 0 0 0 -13.445-25.392c28.407.962 49.6-1.373 62.433-14.492a6 6 0 0 0 -8.58-8.39c-13.78 14.091-44.969 11.882-88.134 8.822-6.257-.444-12.769-.9-19.529-1.339-28.086-1.8-51.767 5.672-70.8 11.679-8.1 2.557-15.1 4.765-20.862 5.725-3.781.629-6.457.219-7.95-1.222a8.439 8.439 0 0 1 -2.059-4.759 34.857 34.857 0 0 0 9.766-3.255l27.09-13.765a6 6 0 0 0 -5.436-10.7l-27.085 13.766a23.255 23.255 0 0 1 -27.337-4.717c-6.067-6.448-9.142-13.069-9.142-19.677 0-5.272 1.359-9.168 4.155-11.911 4.749-4.658 12.345-4.617 12.548-4.607a6 6 0 0 0 .349-12z"/><path d="m194.647 193.02a16.353 16.353 0 1 0 -16.359-16.353 16.375 16.375 0 0 0 16.359 16.353zm0-20.706a4.353 4.353 0 1 1 -4.359 4.353 4.362 4.362 0 0 1 4.359-4.353z"/></g></svg>