<svg id="Layer_1" height="512" viewBox="0 0 512 512" width="512" xmlns="http://www.w3.org/2000/svg" data-name="Layer 1"><path d="m492.74 257.56a22.447 22.447 0 0 1 -3.22 27.42l-42.16 42.7c-41.32-165.9-113.17-191.17-114.29-191.55a167.783 167.783 0 0 0 6.93-40.46l2.73.11c66.13 31.62 127.65 124.98 150.01 161.78z" fill="#844e3c"/><path d="m200.79 350.85s-50.09-11.3-85.7-9.35a17.873 17.873 0 0 1 -17.56-11.26c-2.18-5.46-4.27-10.63-4.4-10.66l-.01-.36a84.548 84.548 0 0 1 -10.54-.29c-9.81-.89-19.42-3.69-27.06-9.79-5.83-4.65-10.51-11.22-13.25-20.33a65.368 65.368 0 0 1 -2.53-14.88l-.01-.01c5.49-10.17-16.56-23.44-16.56-23.44 10.98-13.4 37.84-66.03 37.84-66.03 54.76-108.7 187.27-110.29 187.27-110.29 10.45-29.15 29.4-45.06 42.1-52.89a84.558 84.558 0 0 1 8.27-4.5 8.062 8.062 0 0 1 8.54 1.05c26.53 21.79 33.81 50.69 32.81 77.85a167.783 167.783 0 0 1 -6.93 40.46c1.12.38 72.97 25.65 114.29 191.55v.01l-159.57 161.61c-13.72 13.9-37.38 4.81-38.33-14.71-4.76-98.7-48.67-123.74-48.67-123.74z" fill="#d37550"/><ellipse cx="150.16" cy="185.82" fill="#844e3c" rx="17.99" ry="18.01"/><path d="m37.73 263.123c12.474-18.908 33.28-59.675 33.28-59.675 54.76-108.7 187.27-110.29 187.27-110.29 10.45-29.15 29.4-45.06 42.1-52.89a84.558 84.558 0 0 1 8.27-4.5 8.062 8.062 0 0 1 8.54 1.05 90.1 90.1 0 0 1 16.742 17.95 86.588 86.588 0 0 0 -26.742-36.948 8.062 8.062 0 0 0 -8.54-1.05 84.558 84.558 0 0 0 -8.27 4.5c-12.7 7.83-31.65 23.74-42.1 52.89 0 0-132.51 1.59-187.27 110.29 0 0-26.86 52.63-37.84 66.03 0 0 9.609 5.786 14.56 12.643z" fill="#aa5639"/><path d="m23.17 250.48s22.05 13.27 16.56 23.44c-1.83 3.4-6.73 6.45-16.56 8.55l-.01.01c-10.09-7.78-8.98-21.02.01-32z" fill="#5e352a"/><g fill="#203a59"><path d="m84.041 255.065a6 6 0 0 0 .946 11.963c13.242-1.05 22.454.854 26.634 5.5 2.764 3.071 3.589 7.734 2.453 13.86a6 6 0 0 0 4.8 6.994 6.1 6.1 0 0 0 1.1.1 6 6 0 0 0 5.893-4.907c1.827-9.847-.018-18.174-5.335-24.079-6.862-7.63-19.142-10.802-36.491-9.431z"/><path d="m346.076 90.742c-.085-32.1-11.966-58.579-35.073-77.56a14.11 14.11 0 0 0 -14.9-1.839 102.688 102.688 0 0 0 -36.638 29.857 111.1 111.1 0 0 0 -15.4 27.12 268.06 268.06 0 0 0 -70.865 14.561c-53.8 18.819-94.449 53.012-117.537 98.846-.266.52-26.686 52.2-37.136 64.956-8.142 9.939-10.637 21.458-6.674 30.812 2.255 5.324 8.586 14.213 25.957 16.824a45.473 45.473 0 0 0 10.69 16.621c-4.72 12.86-10.838 26.286-17.259 32.56a6 6 0 0 0 8.386 8.584c7.5-7.323 14.016-20.961 18.933-33.8a57.536 57.536 0 0 0 18.11 5.937 197.1 197.1 0 0 1 -4.164 41.118 6 6 0 1 0 11.754 2.421 210.737 210.737 0 0 0 4.46-42.509h.335c.614 1.5 1.529 3.759 2.9 7.207a23.869 23.869 0 0 0 23.454 15.028c31.61-1.725 75.809 7.431 83.043 8.989 2.453 1.68 11.237 8.357 20.343 23.293 18.026 29.57 23.367 68.043 24.674 95.112a28.093 28.093 0 0 0 18.243 25.2 28.777 28.777 0 0 0 10.292 1.926 28.065 28.065 0 0 0 20.055-8.5l201.733-204.306a28.409 28.409 0 0 0 4.074-34.756c-23.381-38.478-84.852-131.219-151.79-163.702zm-311.476 179.951c-.172 1.024-2.491 3.282-9.72 5.205a11.335 11.335 0 0 1 -1.974-3.083c-1.685-3.979-.981-8.994 1.824-14.021 5.841 4.426 10.26 9.56 9.87 11.899zm248.923 214.391a15.988 15.988 0 0 1 -17.52 3.8 16.272 16.272 0 0 1 -10.545-14.575c-3.522-72.961-28.008-107.125-42-120.855 22.768-7.929 42.792-23.756 58.409-46.32a151.474 151.474 0 0 0 19.3-38.067 6 6 0 1 0 -11.478-3.5c-.2.654-20.485 65.106-78.953 79.127-8.5-1.842-52.817-10.991-85.971-9.184a11.864 11.864 0 0 1 -11.654-7.49c-.458-1.149-.911-2.282-1.345-3.361a145.907 145.907 0 0 0 32.488-7.274 6 6 0 0 0 -4.154-11.258c-.3.111-20.993 7.585-41.768 7.141-1.079-16.127-4-25.562-4.228-26.266a6 6 0 0 0 -11.433 3.644c.046.148 2.4 7.857 3.479 21.307a42.406 42.406 0 0 1 -13.5-5.141c3.391-10.229 5.4-18.146 5.595-18.932a6 6 0 1 0 -11.64-2.916c-.773 3.083-2.008 7.54-3.6 12.669-4.019-5.886-6.414-13.472-7.159-22.685a13.344 13.344 0 0 0 .594-2.27c1.041-6.211-2.312-12.846-9.967-19.72-1.648-1.48-3.311-2.8-4.807-3.924 12.469-18.379 33.7-59.9 34.709-61.879 21.925-43.539 59.077-74.767 110.425-92.82a263.006 263.006 0 0 1 63.117-13.665 150.657 150.657 0 0 0 -5.242 40.588 6 6 0 0 0 12 0c0-15.741 3.3-65.6 42.56-92.238a109.77 109.77 0 0 1 18.416 32.319c10.257 28.788 6.044 57.365-12.523 84.937a6 6 0 1 0 9.955 6.7c26.057-38.7 21.833-73.643 13.7-96.144a121.381 121.381 0 0 0 -19.028-33.922c.483-.238.963-.479 1.455-.711a2.058 2.058 0 0 1 2.176.256c26.331 21.63 35.821 53.324 28.2 94.2a204.92 204.92 0 0 1 -20.168 56.754 6 6 0 1 0 10.422 5.949 206.223 206.223 0 0 0 14.9-34.834c6.9 3.846 19.494 12.409 34.172 29.6 36.5 42.738 58.009 105.461 69.794 151.755zm201.73-204.316-34.73 35.175c-12.589-47.213-34.712-108.308-71.39-150.669-16.973-19.6-31.483-28.714-38.9-32.5 1.155-4.355 2.21-8.9 3.095-13.6q1.471-7.815 2.142-15.282c62.3 33.061 119.864 120.122 142.142 156.785a16.423 16.423 0 0 1 -2.359 20.091z"/><path d="m150.157 161.811a24.008 24.008 0 1 0 23.988 24.008 24.025 24.025 0 0 0 -23.988-24.008zm0 36.015a12.008 12.008 0 1 1 11.988-12.007 12.011 12.011 0 0 1 -11.988 12.007z"/><path d="m281.932 63.9c-1.031.738-25.149 18.5-16.529 57.62a6 6 0 0 0 11.719-2.582c-6.838-31.03 10.986-44.68 11.821-45.3a6 6 0 0 0 -7.011-9.74z"/></g></svg>