<svg id="Layer_1" height="512" viewBox="0 0 512 512" width="512" xmlns="http://www.w3.org/2000/svg" data-name="Layer 1"><path d="m480.93 73.78c-62.23 6.54-167.47-7.78-168.7-7.95-21.02-30.31-47.96-28.55-58.39-18.95-4.01 3.69-6.06 11.08-7.04 18.98l-.21-.03s-19.78 10.78-43.49 23.91c-15.58 8.62-32.86 18.26-47.36 26.52-12.12 6.9-22.29 12.84-27.89 16.42-13.33 8.52-23.17 31.57-28 45.08a56.445 56.445 0 0 1 -11.5 19.14c-17.2 18.77-71.22 55.39-72.28 70.02a29.4 29.4 0 0 0 .11 5.21l9.63 24.8c10.87 17.86 27.08 33.31 28.67 34.81a55.113 55.113 0 0 0 4.41 11.15c10.1 19.45 16.59 26.64 29.25 26.1l5.31 31.69a23.131 23.131 0 0 0 30.07 18.21c21.44-7.26 47.55-29.84 64.15-44.12a43.724 43.724 0 0 1 13.78-7.8 84.542 84.542 0 0 1 20.12-4.18c6.17-.62 21.87-.89 42.47 1.44a308.233 308.233 0 0 1 57.92 12.21 243.7 243.7 0 0 1 45.71 19.64c29 16.3 55.86 40.25 73.59 75.26 0 0 30.19-23.39 22.58-73.28a103.789 103.789 0 0 1 16.49-73.76 40.27 40.27 0 0 0 6.86-20.82l8.8-215.59a13.635 13.635 0 0 0 -15.06-14.11z" fill="#f47731"/><path d="m26.07 296.92c1.06-14.63 55.08-51.25 72.28-70.02a56.445 56.445 0 0 0 11.5-19.14c4.83-13.51 14.67-36.56 28-45.08 5.6-3.58 15.77-9.52 27.89-16.42 14.5-8.26 31.78-17.9 47.36-26.52 23.71-13.13 43.49-23.91 43.49-23.91l.21.03c.98-7.9 3.03-15.29 7.04-18.98 10.43-9.6 37.37-11.36 58.39 18.95 1.23.17 106.47 14.49 168.7 7.95a13.639 13.639 0 0 1 4.4.251l.659-16.141a13.635 13.635 0 0 0 -15.06-14.11c-62.229 6.54-167.469-7.78-168.699-7.95-21.02-30.31-47.96-28.55-58.39-18.95-4.01 3.69-6.06 11.08-7.04 18.98l-.21-.03s-19.78 10.78-43.49 23.91c-15.58 8.62-32.86 18.26-47.36 26.52-12.12 6.9-22.29 12.84-27.89 16.42-13.33 8.52-23.17 31.57-28 45.08a56.445 56.445 0 0 1 -11.5 19.14c-17.2 18.77-71.22 55.39-72.28 70.02a29.4 29.4 0 0 0 .11 5.21l9.63 24.8c.079.13.161.259.241.389.008-.133.01-.267.019-.399z" fill="#d1652f"/><ellipse cx="158.03" cy="190.14" fill="#60412c" rx="11.9" ry="11.87"/><path d="m36.09 261.76c-11.22 2.25-14.09 10.89-19.91 10.37.84 8.04 4.68 16.67 9.63 24.8 18.24-2.74 13.77-24.93 14.52-32.36.23-2.28-1.98-3.27-4.24-2.81z" fill="#37464f"/><g fill="#203a59"><path d="m428.982 99.9a6 6 0 0 0 -1.622 8.328c.156.231 15.47 23.467 9.942 59.882a6 6 0 1 0 11.863 1.8c6.225-40.994-11.112-67.291-11.854-68.39a6 6 0 0 0 -8.329-1.62z"/><path d="m158.03 172.272a17.871 17.871 0 1 0 17.9 17.871 17.908 17.908 0 0 0 -17.9-17.871zm0 23.742a5.871 5.871 0 1 1 5.9-5.871 5.894 5.894 0 0 1 -5.9 5.871z"/><path d="m235.765 203.087-.064-.108c.267.485 6.337 12.109-10.032 30.945a6 6 0 0 0 9.057 7.871c22.459-25.843 11.76-44.172 11.295-44.94z"/><path d="m495.8 73.025a19.634 19.634 0 0 0 -15.5-5.208c-55.881 5.874-148.41-5.487-164.756-7.6-7.724-10.38-20.294-22.627-37.736-25.126-10.845-1.554-21.329 1.2-28.037 7.378-4.581 4.217-7.121 11.516-8.475 19.411-15.373 8.4-95.993 52.52-116.685 65.742-14.159 9.046-24.358 31.16-30.42 48.118a50.185 50.185 0 0 1 -10.276 17.1c-6.013 6.565-17.025 15.649-28.683 25.267-27.56 22.736-44.352 37.337-45.153 48.376-1.97 27.161 31.719 61.352 39.084 68.478a62.372 62.372 0 0 0 4.395 10.689c8.928 17.192 16.081 26.9 28.288 28.964.383.065.779.095 1.168.145l4.509 26.911a29.265 29.265 0 0 0 13.875 20.3 28.774 28.774 0 0 0 24.045 2.6c22.33-7.57 48.4-30 65.657-44.849l.481-.413c6.721-5.783 16.438-9.137 30.583-10.556 5.905-.593 21.036-.845 40.958 1.4.1.016.2.023.3.033a302.768 302.768 0 0 1 53.856 11.078c25.072 7.662 47.291 18.386 66.039 31.874a168.288 168.288 0 0 1 52.589 60.905 6 6 0 0 0 9.028 2.031c1.346-1.043 32.882-26.157 24.83-78.923a97.851 97.851 0 0 1 15.532-69.5 46.194 46.194 0 0 0 7.882-23.928l8.8-215.588a19.606 19.606 0 0 0 -6.178-15.109zm-467.16 216.799a60.217 60.217 0 0 1 -5.6-13.514 32.248 32.248 0 0 0 4.34-3.236 25.045 25.045 0 0 1 6.871-4.538q.011.695.025 1.434c.205 10.697-.705 17.202-5.636 19.854zm452.553 13.413a34.193 34.193 0 0 1 -5.843 17.713 109.852 109.852 0 0 0 -17.444 78.016c5.083 33.307-7.565 53.618-15.146 62.457a180.8 180.8 0 0 0 -52.428-58.023q-6.549-4.711-13.623-8.982c16.338-23.47 7.685-54.031 7.276-55.426a6 6 0 0 0 -11.518 3.364c.082.288 7.626 27.234-6.236 46.093a249.6 249.6 0 0 0 -37.312-16.028c5.038-28.978-7.444-48.57-8.011-49.438a6 6 0 1 0 -10.049 6.558c.109.168 10.013 15.732 6.491 39.228a313.233 313.233 0 0 0 -45.851-9.633c10.3-48.362-18.589-93.509-19.881-95.492a6 6 0 0 0 -10.057 6.548c.292.446 27.9 43.563 17.95 87.562-18.645-1.8-32.754-1.518-38.537-.937-.558.056-1.136.119-1.719.184a34.9 34.9 0 0 0 3.636-11.181c3.973-26.453-20.959-55.379-22.023-56.6a6 6 0 0 0 -9.041 7.891 106.042 106.042 0 0 1 10.951 15.877c4.651 8.247 9.856 20.329 8.245 31.046-1.085 7.23-5.12 12.977-12.313 17.561a49.232 49.232 0 0 0 -14.948 8.618l-.482.414c-16.55 14.24-41.559 35.759-61.683 42.58a16.8 16.8 0 0 1 -14.032-1.533 17.278 17.278 0 0 1 -8.2-11.989l-4.271-25.485c8.593-1.576 19.257-5.325 34.167-10.572 8.186-2.88 17.465-6.145 28.355-9.739a6 6 0 1 0 -3.76-11.395c-11 3.631-20.339 6.916-28.578 9.815-20.93 7.364-33.57 11.809-41.424 10.48-6.451-1.091-11.407-6.81-19.641-22.663-15.684-30.2 9.331-47.162 10.507-47.936a6 6 0 0 0 -6.514-10.078 52.068 52.068 0 0 0 -15.184 16.531 44.62 44.62 0 0 0 -5.711 16.994 176.159 176.159 0 0 1 -12.26-15.537c11.669-6.653 11.379-22.189 11.221-30.359-.036-1.84-.069-3.577.031-4.562a8.409 8.409 0 0 0 -2.685-7.161 10.01 10.01 0 0 0 -8.706-2.142 28.888 28.888 0 0 0 -6.452 2.089c1.553-1.7 3.476-3.683 5.873-5.982 7.955-7.63 18.421-16.264 28.542-24.614 2.894-2.387 5.747-4.741 8.5-7.042 3.9 1.959 9.2 5.457 10.2 8.515a6 6 0 1 0 11.4-3.731c-.463-1.418-2.924-7.605-11.788-13.136a153.027 153.027 0 0 0 11.581-11.024 62.11 62.11 0 0 0 12.725-21.17c7.568-21.168 16.892-36.493 25.582-42.046 5.1-3.258 14.12-8.545 24.981-14.751 5 2.6 16.78 10.356 22.351 27.937a6 6 0 0 0 11.44-3.625c-5.121-16.158-14.612-25.731-21.959-31.029 8.85-4.995 18.323-10.289 27.57-15.428-.06 6.1 1.213 11.319 3.828 15.524 3.438 5.53 9.119 9.052 16.43 10.186 18.292 2.837 24.988 19.634 25.254 20.322a6 6 0 1 0 11.232-4.224c-.368-.979-9.311-24.026-34.646-27.956-3.847-.6-6.485-2.115-8.064-4.64-2.9-4.635-2.143-12.043-1.228-16.31 12.716-7.034 24.126-13.3 31.7-17.447a159.434 159.434 0 0 0 .652 19.183 6 6 0 0 0 11.945-1.177c-1.416-14.509-.7-37.444 5.344-43 3.154-2.9 9.6-5.56 18.208-4.328 12.681 1.817 24.841 11.41 34.24 27.012 15.042 24.97 16.12 43.114 10.326 62.52a95.2 95.2 0 0 0 -7.955-11.934 6 6 0 0 0 -9.285 7.6c.381.465 37.764 47.061 8.473 92.769a6 6 0 1 0 10.1 6.474c14.087-21.982 16.919-47.483 8.193-73.746-.687-2.068-1.421-4.058-2.182-5.973 11.7-29.379 10.615-51.394-4.189-78.342 10.272 1.238 26.056 3 44.41 4.57a75.551 75.551 0 0 0 -6.322 16.139c-3.568 13.653-4.437 34.262 11.679 54.905 25.943 33.235 12.19 79.174 12.05 79.626a6 6 0 1 0 11.457 3.569c.66-2.119 15.816-52.321-14.048-90.579-21.477-27.512-6.756-54.7-1.575-62.6 32.741 2.433 70.831 3.841 100.071.771a7.628 7.628 0 0 1 8.433 7.9z"/><path d="m91.67 294.23a5.992 5.992 0 1 0 -1.76 4.24 6.052 6.052 0 0 0 1.76-4.24z"/><path d="m92.85 334.95a6.009 6.009 0 1 0 4.24 1.76 6.016 6.016 0 0 0 -4.24-1.76z"/><path d="m106.31 309.35a5.992 5.992 0 1 0 4.24 1.75 6.065 6.065 0 0 0 -4.24-1.75z"/><path d="m74.64 313.22a6.009 6.009 0 1 0 4.24 1.76 6.052 6.052 0 0 0 -4.24-1.76z"/><path d="m307.032 82.5c-.314-.633-7.879-15.522-22.348-16.965a10.741 10.741 0 0 0 -9.354 3.555c-6.695 7.533-3.379 25.511-2.2 30.841a6 6 0 0 0 11.719-2.585c-1.74-7.885-2.082-17.015-.825-19.8 7.523 1.141 12.231 10.231 12.267 10.3a6 6 0 0 0 10.741-5.346z"/></g></svg>