<svg id="Layer_1" height="512" viewBox="0 0 512 512" width="512" xmlns="http://www.w3.org/2000/svg" data-name="Layer 1"><path d="m487.94 103-86.32 41.22c-11.81-27.67-28.82-53.27-51.54-73.5-69.04-61.47-116.93-13.77-138.74 18.68a91.766 91.766 0 0 0 -15.14 42.49l-3.17 33.05a92.328 92.328 0 0 1 -11.25 36.13l-15.04 23.92-17.59 18.36a49.873 49.873 0 0 0 -15.16 14.75c-8.84 13.18-10.97 28.95-10.75 39.09a37.762 37.762 0 0 1 -6.98 22.49c-7.21 10.18-12.68 16.79-17.48 21.56h-.01c-13.32 13.23-21.43 12.22-46.96 33.86-31.12 26.37-2.97 76.37 8 93.28a5.852 5.852 0 0 0 8.92 1.07l15.82-14.81s6.55 8.98 35.91 0c25.33-7.74 123.94-49.32 213.26-43.75a173.859 173.859 0 0 1 81.42 26.31c38.55 24.17 64.07 28.51 74.92 29.11a5.628 5.628 0 0 0 5.94-5.63v-352.6a5.634 5.634 0 0 0 -8.06-5.08z" fill="#acd367"/><path d="m101.89 228.46 47.26 14.89a49.873 49.873 0 0 0 -15.16 14.75l-.62-.42-103.81-31.89 72.31 2.67z" fill="#646d4a"/><path d="m71.81 394.98c25.53-21.64 33.64-20.98 46.96-33.98h.01a177.686 177.686 0 0 0 17.48-21.44 37.583 37.583 0 0 0 6.98-22.43c-.22-10.14 1.91-25.88 10.75-39.06a49.831 49.831 0 0 1 15.16-14.735l17.59-18.352 15.04-23.917a92.319 92.319 0 0 0 11.25-36.128l3.17-33.049a91.77 91.77 0 0 1 15.14-42.49c21.513-32.008 68.4-78.845 135.935-21.12a183.9 183.9 0 0 0 -17.195-17.559c-69.04-61.47-116.93-13.77-138.74 18.68a91.766 91.766 0 0 0 -15.14 42.49l-3.17 33.05a92.328 92.328 0 0 1 -11.25 36.13l-15.04 23.92-17.59 18.36a49.873 49.873 0 0 0 -15.16 14.75c-8.84 13.18-10.97 28.95-10.75 39.09a37.4 37.4 0 0 1 -6.98 22.37 177.686 177.686 0 0 1 -17.48 21.44h-.01c-13.32 13-21.43 12.34-46.96 33.98-31.12 26.37-2.97 76.43 8 93.34a5.856 5.856 0 0 0 8.92 1.1l.255-.284c-10.849-22.399-20.114-54.719 2.825-74.156z" fill="#89a352"/><path d="m98.77 341.24c-13.32 13.23-21.43 12.22-46.96 33.86 0 0-31.97-11.63-35.81-46.16 0 0 53.56 18.32 82.77 12.3z" fill="#839164"/><circle cx="190.134" cy="286.079" fill="#515047" r="7.514" transform="matrix(1 -.007 .007 1 -2.039 1.365)"/><path d="m166.74 224.99 19.24 2.23c16.86 1.96 14.83 27.25-2.11 26.27a27.746 27.746 0 0 1 -4.29-.56l-30.43-9.58-47.26-14.89h-.02l-55.12-17.36z" fill="#839164"/><g fill="#203a59"><path d="m76.621 393.905a6 6 0 0 0 -6 6v9.216a6 6 0 0 0 12 0v-9.216a6 6 0 0 0 -6-6z"/><path d="m235.391 188.875a6 6 0 0 0 8.151-2.358c.305-.554 30.785-55.548 56.844-77.082a6 6 0 1 0 -7.645-9.25c-27.823 22.993-58.42 78.2-59.709 80.54a6 6 0 0 0 2.359 8.15z"/><path d="m253.768 229.387a6 6 0 0 0 8.4 1.2c29.681-22.25 50.532-32.637 72.712-41.387a6 6 0 1 0 -4.4-11.162c-23.08 9.106-44.753 19.894-75.506 42.949a6 6 0 0 0 -1.206 8.4z"/><path d="m266.163 267.9a6 6 0 0 0 2.523 11.732c.458-.1 46.04-9.727 80.63-3.485a6 6 0 1 0 2.133-11.808c-36.963-6.67-83.329 3.144-85.286 3.561z"/><path d="m190.134 272.566a13.513 13.513 0 1 0 13.514 13.512 13.529 13.529 0 0 0 -13.514-13.512zm0 15.025a1.513 1.513 0 1 1 1.514-1.513 1.516 1.516 0 0 1 -1.514 1.513z"/><path d="m496.573 98.243a11.566 11.566 0 0 0 -11.217-.657l-80.762 38.562c-12.671-27.636-29.889-51.532-50.528-69.909-26.465-23.564-52.643-33.9-77.785-30.717-32.488 4.109-55.957 29.749-69.925 50.536a98.138 98.138 0 0 0 -16.131 45.256l-3.166 33.057a85.714 85.714 0 0 1 -10.45 33.641l-12.935 20.588-116.23-13.456a6 6 0 0 0 -2.492 11.682l12.694 4-27.863-1.031a6 6 0 0 0 -1.983 11.728l97.358 29.961a77.578 77.578 0 0 0 -7.922 35.832 31.822 31.822 0 0 1 -5.878 18.894 167.656 167.656 0 0 1 -15.518 19.468c-27.657 4.585-77.388-12.245-77.9-12.419a6 6 0 0 0 -7.9 6.34c2.98 26.809 20.979 41.038 31.714 47.238-10.06 12.493-12.68 29.558-7.543 49.919 4.735 18.768 14.917 36.178 20.564 44.886a11.86 11.86 0 0 0 18.054 2.193l12.371-11.581a24.379 24.379 0 0 0 5.053 1.624c8.05 1.7 18.8.524 31.958-3.5 4-1.224 9.629-3.212 16.749-5.73 38.94-13.767 119.96-42.413 194.385-37.769a168.237 168.237 0 0 1 78.608 25.4c39.142 24.542 65.528 29.342 77.775 30.019q.317.017.631.016a11.627 11.627 0 0 0 11.641-11.629v-352.605a11.569 11.569 0 0 0 -5.427-9.837zm-311.285 134.941c6.6.764 6.43 6.671 6.327 7.847-.1 1.146-.948 6.837-7.4 6.467a23.493 23.493 0 0 1 -3.1-.377l-72.428-22.806zm-110.278.291 25.85.956 35.7 11.243a56.449 56.449 0 0 0 -4.716 5.262zm-51.084 104.234c12.649 3.726 35.284 9.58 55.507 10.581l-1.633.974a192.789 192.789 0 0 0 -26.983 18.843c-6.447-3.169-21.196-12.181-26.891-30.398zm466.074 122.585c-26.729-1.639-59-20.233-71.672-28.18a180.268 180.268 0 0 0 -84.235-27.208c-76.863-4.8-159.445 24.4-199.133 38.433-6.983 2.469-12.5 4.419-16.255 5.566-11.328 3.462-18.61 4-23.127 3.637l17.9-16.748a6 6 0 0 0 -8.2-8.762l-40.53 37.932c-5.262-8.132-14.614-24.155-18.9-41.144-4.938-19.572-1.625-34.425 9.846-44.148a182.482 182.482 0 0 1 28.248-20.1c11.469-6.826 19.755-11.758 37.215-36.434a43.9 43.9 0 0 0 8.081-26.077c-.115-5.452.405-32.569 20.854-47.133l27.686 8.718c.137.044.276.082.416.116a33.167 33.167 0 0 0 5.333.713c.449.025.888.038 1.323.038 11.305 0 17.959-8.608 18.724-17.45.8-9.272-4.744-19.4-16.9-20.8l-9.784-1.133 9.971-15.87c.055-.089.109-.179.16-.271a97.65 97.65 0 0 0 11.979-38.474l3.166-33.057a86.1 86.1 0 0 1 14.147-39.707c12.579-18.721 33.454-41.78 61.47-45.324 21.557-2.726 44.538 6.618 68.3 27.775 24.167 21.518 43.409 51.19 55.648 85.81a264.111 264.111 0 0 1 14.594 98.352c-2.107 43.9-16.142 79.458-37.541 95.113a15.094 15.094 0 0 1 -16.067 1.167c-21.535-11.363-68.546-27.18-92.325-5.718a22.226 22.226 0 0 0 -7.8 17.145c.117 7.868 4.21 15.36 8.522 21.1-23.183-3.078-40.572-20.715-40.929-21.081a6 6 0 0 0 -8.66 8.307c1.063 1.108 24.582 25.237 56.268 25.237a61.663 61.663 0 0 0 7.83-.5 6 6 0 0 0 3.125-10.524c-3.632-3.085-14.026-13.881-14.158-22.717-.046-3.092 1.175-5.653 3.84-8.059 9.5-8.577 25.515-8.208 37.269-6.391a142.074 142.074 0 0 1 41.416 13.814 27.363 27.363 0 0 0 28.751-2.1c24.66-18.039 40.13-56.026 42.443-104.222a272.505 272.505 0 0 0 -15.265-102.928c-1.175-3.323-2.433-6.588-3.73-9.823l80.686-38.518z"/></g></svg>