<svg id="Layer_1" height="512" viewBox="0 0 512 512" width="512" xmlns="http://www.w3.org/2000/svg" data-name="Layer 1"><path d="m467.88 39.57c17.74-5.5 33.72 12.42 26.23 29.38l-55.67 126.09c-18.04-23.98-44.56-46.91-67.35-57.28-13.27-6.03-23.83-5.58-31.81-2.73 17.45-52.53 83.45-81.45 128.6-95.46z" fill="#8e4436"/><path d="m438.44 195.04-37.06 83.95c-21.92-88.76-75.69-118.46-75.69-118.46a77.485 77.485 0 0 0 -5.4-10.13 38.31 38.31 0 0 1 18.99-15.37c7.98-2.85 18.54-3.3 31.81 2.73 22.79 10.37 49.31 33.3 67.35 57.28z" fill="#677045"/><path d="m59.24 214.26c.2-.43 13.29-28.87 13.1-56.89-.04-5.83 1.98-11.68 5.82-17.3 14.74-21.58 56.28-39.61 110.37-39.2 49.63.38 106.74 10.07 131.76 49.53a77.485 77.485 0 0 1 5.4 10.13s53.77 29.7 75.69 118.46l-82.99 187.97a10.828 10.828 0 0 1 -18.71 1.96c-31.26-44.55-125.98-84.21-128.93-85.44-.05-.02-.07-.03-.07-.03-11.06-3.89-26.54-7.04-55.47-5.92-51 1.99-48.12-33.93-48.05-34.73-32.67 8.98-48.22-21.45-50.82-60-1.97-29.11 4.36-59.14 26.42-66.87a37.744 37.744 0 0 1 16.48-1.67z" fill="#98a568"/><path d="m78.16 140.07c-3.84 5.62-5.86 11.47-5.82 17.3.19 28.02-12.9 56.46-13.1 56.89a37.744 37.744 0 0 0 -16.48 1.67c-28.6-68.17 35.4-75.86 35.4-75.86z" fill="#677045"/><path d="m172.24 150.46a34.7 34.7 0 1 1 -.19.06c.07-.02.13-.04.19-.06z" fill="#d1835d"/><path d="m178.34 169.11a15.47 15.47 0 1 1 -15.51 15.47 15.481 15.481 0 0 1 15.51-15.47z" fill="#677045"/><path d="m36.34 302.8c-1.97-29.11 4.36-59.14 26.42-66.87a37.744 37.744 0 0 1 16.48-1.67c.2-.43 13.29-28.87 13.1-56.89-.04-5.83 1.98-11.68 5.82-17.3 14.74-21.58 56.28-39.61 110.37-39.2 38.252.293 80.933 6.133 109.954 26.855-25.871-37.212-81.472-46.484-129.954-46.855-54.09-.41-95.63 17.62-110.37 39.2-3.84 5.62-5.86 11.47-5.82 17.3.19 28.02-12.9 56.46-13.1 56.89a37.744 37.744 0 0 0 -16.48 1.67c-22.06 7.73-28.39 37.76-26.42 66.87 1.945 28.835 11.136 53.124 29.316 59.778-5.273-10.741-8.294-24.632-9.316-39.778z" fill="#737c4c"/><g fill="#203a59"><path d="m69.534 236.079c-16.844 8.9-13.28 28.686-13.12 29.524a6 6 0 0 0 11.794-2.215c-.087-.487-2.018-11.97 6.932-16.7a6 6 0 1 0 -5.606-10.611z"/><path d="m178.338 206.05a21.472 21.472 0 1 0 -21.506-21.472 21.513 21.513 0 0 0 21.506 21.472zm0-30.943a9.472 9.472 0 1 1 -9.506 9.471 9.5 9.5 0 0 1 9.506-9.471z"/><path d="m466.1 33.843c-29.666 9.2-55.283 20.625-76.14 33.956-28.151 17.994-46.785 39.067-55.44 62.674a41.557 41.557 0 0 0 -4.951 2.588 45.107 45.107 0 0 0 -9.026 7.333q-2.1-2.679-4.443-5.209c-24.35-26.285-67.257-39.852-127.529-40.314-45.8-.364-87.446 12.606-108.669 33.812a57.963 57.963 0 0 0 -5.148 5.876c-7.463 1.439-28.445 7-39.129 25.363-8.129 13.967-8.285 31.748-.521 52.9-.272.151-.546.295-.815.453-17.517 10.343-26.241 35.832-23.936 69.925 2.212 32.738 12.884 55.346 30.049 63.659a35.743 35.743 0 0 0 15.787 3.557 42.7 42.7 0 0 0 5.41-.366 36.808 36.808 0 0 0 9.494 19.653c9.4 9.951 24.319 14.61 44.353 13.821 27.866-1.082 42.565 1.849 53.161 5.557 4.972 2.087 96.435 40.924 126.166 83.283a16.45 16.45 0 0 0 13.587 7.076c.567 0 1.139-.028 1.713-.085a16.7 16.7 0 0 0 13.81-9.975l175.714-398a27.64 27.64 0 0 0 -33.5-37.535zm-420.143 132.181c5.226-9.024 14.186-14.106 21.443-16.883a31.918 31.918 0 0 0 -1.062 8.266c.144 20.774-7.566 42.183-10.972 50.61a44.1 44.1 0 0 0 -8.975.728c-6.491-17.617-6.65-31.979-.434-42.721zm266.943 298.512a4.836 4.836 0 0 1 -4.007 2.879 4.611 4.611 0 0 1 -4.3-1.943c-17.466-24.884-53.179-47.9-83.022-64.1 25.245-.25 56.078-6.756 73.01-24.809 16.22-17.294 13.175-38.492 7.765-53.23a6 6 0 1 0 -11.266 4.137c6.178 16.826 4.411 30.582-5.251 40.884-20.55 21.91-70.745 24.183-91.226 18.122a93.819 93.819 0 0 1 -10.975-4.261c-12.5-5.463-28.054-12.265-68.651-10.683-16.321.623-28.113-2.713-35.047-9.949a25 25 0 0 1 -6.654-14.437 94.827 94.827 0 0 0 21.16-11.24c24.129-16.553 40.566-11.863 57.968-6.9 16.206 4.626 32.962 9.406 54.618-2.415a6 6 0 1 0 -5.75-10.533c-17.34 9.465-30.424 5.732-45.576 1.409-18.4-5.253-39.264-11.205-68.05 8.543q-11.833 8.118-21.676 10.9a5.972 5.972 0 0 0 -.706.192c-7.468 1.993-14.038 1.665-19.634-1.046-12.93-6.256-21.422-25.818-23.305-53.662-1.959-28.974 4.8-50.951 18.067-58.79 16.312-9.639 41.168 2.114 59.145 13.668 21.422 13.767 53.144 28.024 82.6 17.779 18.153-6.316 26.669-18.987 27.022-19.524a6 6 0 0 0 -10-6.633c-1.112 1.644-27.817 39.555-91.926-.956a38.693 38.693 0 0 0 8.159-2.658c10.161-4.661 17.389-13.478 21.484-26.21a86.727 86.727 0 0 1 5.086-12.481 42.2 42.2 0 1 0 28.821-41.955c-1.857.515-32.059 9.5-45.331 50.762-3.013 9.368-8.061 15.744-15.005 18.95-13.288 6.134-29.806-.607-29.97-.675a87.974 87.974 0 0 0 -12.815-4.083c4.073-10.6 10.821-31.364 10.677-52.269-.046-6.57 3.429-13.539 10.048-20.153 14.734-14.724 48.21-30.308 98.234-30.308.615 0 1.24 0 1.861.008 56.83.436 96.805 12.706 118.817 36.47 14.815 15.994 21.393 37.646 19.553 64.354a6 6 0 1 0 11.97.826 118.7 118.7 0 0 0 -1.85-32.027c16.667 14.77 43.844 46.122 58.083 101.97zm-158.988-279.958a30.186 30.186 0 1 1 30.188 30.107 30.179 30.179 0 0 1 -30.188-30.107zm248.74 76.673c-22.015-70.353-63.112-99.2-72.291-104.915q-1.353-2.889-2.919-5.646a33.594 33.594 0 0 1 8.792-7.633c9.23-5.462 20.121-5.408 32.369.165 20.73 9.429 45.115 29.894 62.911 52.656zm85.966-194.72-51.655 117c-18.492-22.178-42.575-41.767-63.392-51.235-9.373-4.264-17.584-5.581-24.583-5.231 8.766-18.109 24.673-34.607 47.436-49.157 19.953-12.754 44.592-23.724 73.231-32.606a15.64 15.64 0 0 1 18.963 21.227z"/></g></svg>