<svg id="Layer_1" height="512" viewBox="0 0 512 512" width="512" xmlns="http://www.w3.org/2000/svg" data-name="Layer 1"><path d="m491.69 118.58c-18.13-4.81-82.15-19.86-127.57-5.65-3.79-19.7-12.72-42.01-29.61-66.65a16.828 16.828 0 0 0 -21.4-5.52c-12.75 6.4-32.17 18.78-46.99 39.94v.01c-13.99 19.98-23.87 47.78-20.11 85.74-.57.16-17.23 4.94-35.69 17.97-16.44 11.6-34.31 29.75-43.53 57-19.76 58.42-64.24 70.84-81.94 100.75s-33.93 35.87-33.93 35.87c-11.05 7.01-21.39 8.96-28.4 20.65l50.73 58.17c6.67 10.6 14.8 20.86 43.67 13.88 27.81-6.73 101.62-47.66 186.32-40.93a94.361 94.361 0 0 0 29.24-2.03c41.69-4.3 90.66 19.58 108.91 29.51a5.807 5.807 0 0 0 8.53-4.3l46.02-327.99a5.8 5.8 0 0 0 -4.25-6.42z" fill="#a39682"/><path d="m262.52 62.01a32.607 32.607 0 0 1 3.6 18.69v.01c-13.99 19.98-23.87 47.78-20.11 85.74-.57.16-17.23 4.94-35.69 17.97-12.54-51.36 21.44-108.17 36.95-124.45a9.488 9.488 0 0 1 15.25 2.04z" fill="#605549"/><path d="m216.07 234.75a6.447 6.447 0 1 1 -7.27 5.49 6.447 6.447 0 0 1 7.27-5.49z" fill="#676a6d"/><path d="m106.66 378.64c13.97 33.34 39.18 42.67 39.8 42.9-6.28 3.52-13.16 7.3-20.24 11.06-26.04-7.68-22.57-43.58-21.03-53.77a.769.769 0 0 1 1.47-.19z" fill="#d8cab8"/><path d="m70.92 398.04s16.24-5.96 33.93-35.87 62.18-42.33 81.94-100.75c9.22-27.25 27.09-45.4 43.53-57 18.46-13.03 35.06-17.81 35.63-17.97-3.76-37.96 6.05-65.76 20.05-85.74v-.01c15-21.16 34.3-33.54 47.05-39.94a16.831 16.831 0 0 1 9.646-1.633c-2.5-4.21-5.214-8.49-8.2-12.847a16.9 16.9 0 0 0 -21.453-5.52c-12.751 6.4-32.043 18.78-47.043 39.94v.01c-14 19.98-23.81 47.78-20.05 85.74-.57.16-17.2 4.94-35.66 17.97-16.44 11.6-34.295 29.75-43.515 57-19.76 58.42-64.233 70.84-81.932 100.75s-33.927 35.87-33.927 35.87c-11.05 7.01-21.388 8.96-28.4 20.65 15.7-1.839 27.047 1.122 35.251 6.493 4.141-2.213 8.587-4.246 13.153-7.143z" fill="#7a6f61"/><path d="m22.52 398.69c60.09-7.04 56.49 56.17 56.49 56.17q-3.015 1.125-5.76 2c-6.81 2.17-12.22 3.11-15.42 2.25-19.22-5.19-47.08-19.9-40.97-45.64a51.167 51.167 0 0 1 5.66-14.78z" fill="#6d5c46"/><g fill="#203a59"><path d="m53.707 418.565c-5.56-3.73-12.924-3.039-17.758-.7a8.295 8.295 0 0 0 .65 15.209 38.338 38.338 0 0 1 11.2 6.974c1.77 1.483 3.872 3.244 6.485 3.244a6.371 6.371 0 0 0 2.537-.549 6.621 6.621 0 0 0 3.96-5.986c.663-10.667-3.481-15.781-7.074-18.192z"/><path d="m216.907 228.812a12.446 12.446 0 0 0 -3.457 24.65 12.666 12.666 0 0 0 1.754.122 12.446 12.446 0 0 0 1.7-24.772zm-1.288 12.388a.445.445 0 0 1 -.5.379.448.448 0 0 1 -.38-.5.431.431 0 0 1 .173-.293.426.426 0 0 1 .261-.091.475.475 0 0 1 .068 0 .433.433 0 0 1 .295.174.417.417 0 0 1 .083.331z"/><path d="m493.234 112.783c-18.049-4.794-78.488-18.921-124.7-7.322-5.861-24.215-17.592-45.823-29.075-62.577a22.892 22.892 0 0 0 -29.042-7.484 137.12 137.12 0 0 0 -39.917 30.282 38.759 38.759 0 0 0 -2.663-6.453 15.176 15.176 0 0 0 -11.474-8.067 15.6 15.6 0 0 0 -13.435 4.67c-16.961 17.8-49.385 74.05-39.5 126.068-16.249 12.209-33.2 30.622-42.326 57.6-11.819 34.936-32.978 52.757-51.646 68.48-11.631 9.8-22.616 19.047-29.767 31.134-16.115 27.241-30.76 33.263-30.839 33.3a5.974 5.974 0 0 0 -1.15.569c-2.985 1.9-6.01 3.441-8.934 4.935-10.989 5.613-22.351 11.418-27.747 34.174-6.681 28.164 20.2 46.057 45.243 52.821a14.841 14.841 0 0 0 4.3.587 39.951 39.951 0 0 0 10.129-1.647c5.821 8.239 13.652 15.193 29.347 15.191a78.429 78.429 0 0 0 18.3-2.471c7.093-1.714 16.509-5.339 28.431-9.929 37.076-14.273 93.1-35.851 156.008-30.849a100.385 100.385 0 0 0 30.328-2.044c39.8-4.108 86.989 18.783 105.429 28.813a11.8 11.8 0 0 0 17.333-8.733l46.026-327.993a11.815 11.815 0 0 0 -8.659-13.055zm-241.62-48.674a3.556 3.556 0 0 1 3.078-1.063 3.284 3.284 0 0 1 2.508 1.744 27.591 27.591 0 0 1 3.088 13.91c-13.557 19.928-23.246 47.125-20.654 83.525a139.317 139.317 0 0 0 -25.24 12.225c-6.094-46.902 24.389-96.871 37.22-110.341zm-179.893 386.945a6.036 6.036 0 0 0 -.6.192c-8.128 2.583-10.954 2.282-11.73 2.076-4.408-1.19-42.884-12.383-36.7-38.467a51.794 51.794 0 0 1 3.547-10.5c13.941-1.079 24.939 2.059 32.709 9.355 11.758 11.034 13.758 29.048 14.053 36.921q-.661.222-1.279.423zm372.3.83c-15.321-8.313-48.981-24.712-83.472-29.36 12.324-7.578 23.312-18.261 32.7-31.95a159.4 159.4 0 0 0 22.428-49.745 6 6 0 0 0 -11.707-2.639 148.976 148.976 0 0 1 -20.617 45.6c-20 29.175-46.791 42.652-79.626 40.038-65.627-5.21-125.502 17.839-161.277 31.612-11.512 4.431-20.606 7.932-26.939 9.463-19.7 4.764-27.742.86-32.837-5.049 10.2-3.906 24.41-10.367 44.4-20.914 27.058-14.28 52.085-29.395 52.334-29.546a6 6 0 1 0 -6.211-10.268c-.167.1-11.493 6.942-27.061 15.717-6.234-3.059-23.416-13.415-33.934-38.52a6.774 6.774 0 0 0 -12.944 1.61c-.917 6.062-2.107 18.006.219 29.877 2.142 10.935 6.842 19.311 13.791 24.784-11.887 6.088-21.209 10.426-28.506 13.5-.9-10.77-4.448-28.753-17.533-41.082-7.876-7.422-17.933-11.634-29.989-12.63 2.13-1.3 4.455-2.494 6.991-3.789 3.039-1.552 6.176-3.156 9.478-5.221 3.588-1.585 19.606-9.911 36.314-38.154 6.112-10.331 15.87-18.55 27.169-28.066 18.885-15.906 42.39-35.7 55.282-73.812 14.64-43.28 52.954-62.535 68.484-68.735.128.913.253 1.825.4 2.749a6 6 0 0 0 11.857-1.839c-5.5-35.43.319-65.914 17.291-90.6 13.923-20.257 32.32-32.276 45.3-38.792a10.848 10.848 0 0 1 13.764 3.546c28.305 41.3 37.224 80.474 26.508 116.441-7.951 26.688-24.383 41.726-24.737 42.046a6 6 0 0 0 7.963 8.977c.771-.683 18.984-17.068 28.078-46.943a118.452 118.452 0 0 0 3.5-52.943c43.243-11.164 101.485 2.417 119.107 7.088zm-332.773-46.384a59.787 59.787 0 0 1 -.951-7.466 84.317 84.317 0 0 0 23.616 23.6c-2.676 1.465-5.414 2.948-8.187 4.431-7.626-3.088-12.375-9.832-14.478-20.565z"/><path d="m313.657 85.681a6 6 0 0 0 -5.657-10.581c-.554.294-13.695 7.405-24.659 24.167-9.974 15.247-20.069 41.8-11.525 81.741a6 6 0 0 0 11.735-2.51c-6.106-28.539-2.913-52.808 9.487-72.131 9.262-14.421 20.507-20.626 20.619-20.686z"/><path d="m321.015 127.341a6 6 0 0 0 -4.963 6.877c.231 1.441 5.351 35.39-21.076 42.371a6 6 0 1 0 3.064 11.6c29.6-7.817 32.471-39.988 29.856-55.906a5.991 5.991 0 0 0 -6.881-4.942z"/></g></svg>