<svg id="Layer_1" enable-background="new 0 0 512 512" height="512" viewBox="0 0 512 512" width="512" xmlns="http://www.w3.org/2000/svg"><path d="m282.6 435c-16 34.8-9.6 61-9.6 61-15.3-8.1-25.1-20.2-31.3-32.9-.1-.2-.2-.4-.3-.6-12.9-27-10.7-58.8 4.9-84.3l43.1-70.3c11.7-21.3 30.5-35.8 43.8-43.1 17.6-9.7 24.7-31.3 16.4-49.6-.1-.3-.2-.6-.4-.8-6.9-14.5-19.2-25.8-34.3-31.4 0 0 17.2-42.4 15-62.4-.5-4-1.2-8.7-2.2-13.7 0 0 29.6 18.2 45.5 35.1 48 50.7 78.1 45.7 78.1 45.7s.4 17.4-20.2 23.4c0 0 36.2 77.9-19.3 120.3-30 70.4-86.8 88-87.8 88.3-10.1 20.8-21.7 40.8-34.7 59.9-12.5-12.5-6.9-43.4-6.7-44.6z" fill="#635a63"/><path d="m95.6 238.8c-13.2-4.1-22.2-18.2-27.9-31.5 6.3 0 12.5-1.8 17.9-5.1 6.4-3.7 7.8-7.7.7-9.9-5.5-1.6-9.9-5.6-12.1-10.8l-1.3-3.3c25.9-4.4 80.1-14.9 87-25.7 9.1-14.3 8.4-31.8 24-39l34.6-10.7 39.6-12.2c4.2-1.3 7-5.1 7.1-9.4.3-12.1 2.4-37 13.6-54.8 23.1 53.4 22.2 88.8 19.5 105.2-.5 2.9-1.2 5.7-2.2 8.4s-2.3 5.3-3.8 7.8c-4.4 7.1-3.4 16.2 2.4 22.2 5.7 5.8 12.5 10.3 20.1 13.2 15.1 5.6 27.4 16.8 34.3 31.4.1.3.2.6.4.8 8.3 18.3 1.1 39.9-16.4 49.6-13.3 7.3-32.1 21.8-43.8 43.1l-43.1 70.3c-15.6 25.5-17.8 57.3-4.9 84.3l.3.6c-59.7-29.2-19.2-132-19.2-132 17.5-62.3-12.1-70-45.2-67.3-28.1 2.2-48.1 16.6-67.7 9.6s-13.9-34.8-13.9-34.8z" fill="#9f97a1"/><path d="m85.6 202.2c-5.1 2.9 68.6-9.1 76-19.8 10-14.3 9.2-31.8 26.3-39l37.9-10.7 43.4-12.2c.8-.2 1.7-.6 2.4-1 3.2-1.7 5.2-4.9 5.4-8.4.3-11.7 2.5-35.1 13.6-52.8-3.3-10.9-7.3-21.6-11.8-32-11.2 17.9-13.3 42.7-13.6 54.8-.1 4.4-3 8.2-7.1 9.4l-39.6 12.2-34.6 10.7c-15.6 7.1-14.9 24.7-24 39-6.9 10.8-61.1 21.3-87 25.7l1.3 3.3c2.2 5.3 6.6 9.2 12.1 10.8 7.1 2.3 5.7 6.3-.7 10z" fill="#bfb8c1"/><g fill="#4f474f"><path d="m329.9 120.6c2.3 20-15 62.4-15 62.4-7.6-2.9-14.5-7.3-20.1-13.2-5.8-6-6.8-15.1-2.4-22.2 1.5-2.5 2.8-5.1 3.8-7.8s1.8-5.5 2.2-8.4c2.6-16.4 3.6-51.8-19.5-105.2 2.3-3.8 5.2-7.3 8.5-10.3 0 0 5 2.2 14.5 17.2 9.2 14.6 16 30.6 20 47.4 2 8.1 4.1 17.7 5.8 26.3.9 5.1 1.7 9.9 2.2 13.8z"/><path d="m260.4 89.6c-.7.4-1.4.8-2.2 1l-39.6 12.2-.1-.4s-17.1-37 6.9-69.3c-.2-.1 27.1 27.9 35 56.5z"/><ellipse cx="197.8" cy="155.4" rx="8" ry="8"/></g><path d="m86.3 192.3c7.1 2.2 5.7 6.2-.7 9.9-5.4 3.3-11.6 5-17.9 5.1-2.8-6.5-5.1-13.2-6.9-20.1-.9-3.4 1.1-6.9 4.5-7.8.2-.1.4-.1.6-.1 2-.3 4.3-.7 6.9-1.1l1.3 3.3c2.3 5.3 6.7 9.2 12.2 10.8z" fill="#655e67"/><path d="m197.8 141.4c-7.7 0-14 6.3-14 14s6.3 14 14 14 14-6.3 14-14c-.1-7.7-6.3-14-14-14zm0 15.9c-1.1 0-2-.9-2-2s.9-2 2-2 2 .9 2 2c0 1.2-.9 2-2 2z" fill="#203a59"/><path d="m457.4 187.5c0-3.3-2.7-5.9-6-5.9-.3 0-.6 0-.9.1-.3 0-28.3 3.2-72.9-43.8-13.9-14.7-37.2-30-44.5-34.7-1.6-8.2-3.6-16.9-5.3-24-4.2-17.4-11.2-34.1-20.8-49.2-9.8-15.4-15.6-18.8-17.2-19.5-2.2-.9-4.7-.5-6.4 1.1-3.5 3.3-6.6 7-9.2 11.1-.3.3-.5.7-.6 1-6.1 9.8-11.9 25-13.7 47.8-11.2-22.9-29.4-41.7-30.3-42.6-2.3-2.4-6.1-2.4-8.5-.1-.2.2-.4.5-.6.7-20.2 27.2-13.8 57-9.7 69.5l-28.5 8.8c-.2.1-.5.2-.7.3-12.4 5.7-16.3 16.3-20 26.6-1.8 5-3.7 10.1-6.6 14.6-.4.6-4.6 5.9-38.1 14-19.5 4.7-40.7 8.4-51.6 10.2-6.7 1.1-11.3 7.4-10.2 14.2.1.4.1.8.2 1.2 9.3 35.4 23.9 48.8 34 53.9-.4 3.9-.3 7.7.2 11.6 1.6 12.5 7.9 21.1 18.2 24.7 13.5 4.8 26.7 1 40.7-3 9.2-2.6 18.7-5.4 29.5-6.2 19.7-1.6 31.9 1.3 38.2 9 7.4 9 7.7 26 .9 50.5-6.7 18.2-11.1 37.1-13.1 56.4-3.6 40.1 7.9 68.4 33.5 81.9 7.2 14.4 18.8 26.2 33 33.8.9.5 1.8.7 2.8.7 3.3 0 6-2.7 6-6 0-.5-.1-.9-.2-1.4 0-.2-1.9-8.6-.5-22.1 1.4 4.2 3.8 8.1 6.9 11.3 1.1 1.1 2.6 1.7 4.2 1.7h.5c1.8-.2 3.4-1.1 4.4-2.5 9.5-13.8 18.2-28.1 26.1-42.8 2.9-5.4 5.6-10.6 8-15.7 6.2-2.3 22.8-9.3 41.3-25 15.1-12.8 33.5-33.3 47.1-64.4 23.6-18.6 34.5-46.4 31.6-80.4-1.3-13.8-4.4-27.3-9.3-40.3 3-1.4 5.8-3.2 8.3-5.4 5.9-5.6 9.5-13.4 9.8-21.7zm-169.6-163.3c3.4 3.8 6.4 7.9 9 12.2 8.9 14 15.4 29.5 19.2 45.6 4.2 17.3 6.9 30.9 7.8 39.3 1.5 13.1-7 39.4-12.3 53.7-4.6-2.4-8.9-5.5-12.5-9.3-3.9-4-4.5-10.1-1.5-14.9 3.5-5.6 5.8-11.8 6.9-18.4 2.7-16.7 3.7-52.4-18.7-105.5.7-.9 1.4-1.8 2.1-2.7zm-61.8 18.7c7.3 8.5 20.6 25.4 26.9 43l-30.8 9.5c-3-9.2-8-31.4 3.9-52.5zm-159.3 142.8c0-.1 0-.2 0-.3.1-.1.1-.1.2-.2.7-.1 1.5-.2 2.2-.4 2.6 5.6 7.3 10.1 13 12.4-3.3 1.9-6.9 3.2-10.6 3.8-1.8-5-3.5-10.1-4.8-15.3zm162.6 260.6c-31.2-35.7-1.7-112.2-1.3-113.1.1-.2.1-.4.2-.6 8.2-29 7.2-49.2-3.1-61.6-11.9-14.5-33.3-14.5-48.4-13.3-12 1-22.6 4-31.9 6.7-13.1 3.8-23.5 6.8-33.3 3.2-9.7-3.5-10.9-14.6-10.6-21.6 7.8 1 15.7 1.5 23.6 1.5 23.3 0 53.2-3.7 70.6-16l.1-.1c2.7-1.9 3.4-5.6 1.5-8.4s-5.6-3.4-8.4-1.5l-.1.1c-24.4 17.2-80 14.8-90.8 11.5-7.4-2.3-14.3-9.1-20.3-20.1-.1-.2-.3-.5-.4-.7 4.2-1 8.2-2.7 11.9-4.8 7.6-4.3 8.7-8.9 8.4-12-.3-2.9-2.1-6.7-9-8.8-2.4-.7-4.5-2.1-6.1-3.9 11-2 24.6-4.7 37.6-7.8 34.8-8.4 42.6-14.7 45.5-19.2 3.6-5.6 5.7-11.3 7.7-16.9 3.3-9 5.9-16 13.4-19.7l73.9-22.8c6.6-2 11.2-8.1 11.4-15 .2-8.6 1.5-25.4 7.1-40.3 17.4 45.1 16.4 75.2 14.1 89.6-.8 4.9-2.6 9.7-5.2 13.9-5.9 9.4-4.6 21.6 3.2 29.5 6.2 6.4 13.8 11.4 22.1 14.5h.1c13.6 5 24.8 15.1 31 28.3l.4.8c6.9 15.4.9 33.6-13.8 41.9-7.1 3.9-33.6 20-48.1 49-.4.4-.8.8-1.1 1.3l-40 65.2c-13.3 21.2-17.5 46.8-11.9 71.2zm209.8-246c-6.8 6-18.9 8.1-35 6-3.3-.4-6.3 1.9-6.7 5.2v.8c.1 3.1 2.4 5.6 5.5 6 4.2.5 8.4.8 12.6.8 4.1 0 8.1-.3 12.1-1 4.6 12.1 7.6 24.8 8.8 37.7 1.6 19.2-1.5 35.7-9.2 49.4 1-3.7 1.9-7.5 2.8-11.5.8-3.2-1.2-6.5-4.4-7.4-3.2-.8-6.5 1.2-7.2 4.4v.2c-11 51.8-36.5 82.5-55.9 99-8.1 7-17 13-26.4 17.9 8.4-19.8 13.4-37.5 15-52.9.3-3.3-2.1-6.2-5.4-6.6-3.3-.3-6.2 2.1-6.5 5.3-4.3 42-36.7 95.2-49.4 114.7-3.6-10-2.3-24.9-1.2-31.7 1.7-3.7 3.7-7.5 6-11.4 1.7-2.8.9-6.5-1.8-8.3-2.8-1.8-6.5-1-8.3 1.8 0 .1-.1.1-.1.2-16.2 27.2-18.8 51-18.5 65-8.1-6.5-14.6-14.8-19-24.3-11.9-25-10.2-54.4 4.6-78.6l21.3-34.7c-.1 2.7 0 5.4.1 8.2.2 3.2 2.8 5.6 6 5.6h.4c3.3-.2 5.8-3 5.6-6.3-3-51.5 42.2-79 51.3-84 20.2-11.3 28.5-36.2 19-57.3-.1-.3-.3-.6-.4-.9-6.6-14.1-17.9-25.4-32-32.1 4.7-12.4 15.2-42.8 13.2-59.9 0-.2 0-.4-.1-.6 9.8 6.7 23.9 17.1 33.1 26.8 35.6 37.6 62.4 45.8 75.2 47.3-1.2 3-2.9 5.3-5.1 7.2z" fill="#203a59"/></svg>