<svg id="Capa_1" enable-background="new 0 0 512 512" height="512" viewBox="0 0 512 512" width="512" xmlns="http://www.w3.org/2000/svg"><g><path d="m41.175 235.901c-.874 0-1.762-.152-2.63-.471-22.335-8.229-38.545-29.825-38.545-51.352 0-12.628 4.609-24.786 12.976-34.234 8.373-9.455 19.883-15.495 32.412-17.003 22.235-2.68 54.042-7.82 79.298-17.08 18.06-6.622 39.589-17.965 39.589-34.397 0-12.231-17.017-15.936-27.161-17.055-4.177-.461-7.191-4.222-6.73-8.4.462-4.177 4.213-7.194 8.401-6.73 25.873 2.856 40.713 14.587 40.713 32.186 0 20.247-16.678 36.629-49.572 48.689-26.629 9.764-59.68 15.124-82.718 17.902-8.827 1.062-16.937 5.318-22.836 11.982-5.901 6.662-9.15 15.235-9.15 24.141 0 15.128 12.288 31.063 28.585 37.067 3.944 1.453 5.964 5.829 4.511 9.774-1.133 3.075-4.044 4.981-7.143 4.981z" fill="#9d6c6c"/><g><path d="m368.615 440.361 13.777 33.376c2.2 5.329-1.718 11.184-7.483 11.184h-26.505c-5.482 0-10.721-2.259-14.483-6.246l-18.526-19.63c-2.737-2.9-4.261-6.736-4.261-10.723v-50.103c-72.554 2.358-117.329-24.034-161.595-32.209-9.217 38.615-32.269 49.415-32.269 49.415l8.394 35.687 17.192 21.811c3.832 4.864.367 11.998-5.823 11.998h-37.582c-7.021 0-13.214-4.596-15.248-11.316l-56.463-186.556c-2.967-9.796-4.058-20.074-3.223-30.273 1.277-15.554 6.947-30.077 15.928-42.103 8.99-12.027 21.292-21.577 35.854-27.188 14.552-5.601 31.845-12.744 50.996-21.577 76.494-35.284 160.141-138.828 236.408-138.828 40.001 0 70.382 49.05 88.756 103.544l-83.843 169.465v140.272z" fill="#b79090"/><g fill="#aa7f7f"><path d="m368.615 440.361v-140.273l83.843-169.465c-18.374-54.493-48.755-103.544-88.756-103.544-4.351 0-8.727.353-13.124.995 35.204 7.188 62.153 52.576 79.003 102.549l-83.843 169.465v140.273l13.777 33.376c2.2 5.329-1.718 11.184-7.483 11.184h22.877c5.765 0 9.683-5.855 7.483-11.184z"/><path d="m311.134 368.79v29.428c-72.554 2.358-117.329-24.034-161.595-32.209 1.916-8.037 3.233-17.274 3.616-27.876 43.47 9.247 88.855 31.021 157.979 30.657z"/><path d="m125.665 451.112-8.394-35.687s51.284-24.026 31.45-128.574c-.959-5.055-5.575-8.585-10.705-8.194-5.955.453-10.233 5.951-9.187 11.832 15.239 85.688-18.534 110.972-29.091 116.657-1.78.959-2.715 2.967-2.324 4.951l7.697 39.018 17.189 21.808c3.831 4.861.369 11.999-5.82 11.999h20.553c6.189 0 9.655-7.137 5.823-11.998z"/></g><g><g fill="#ffeee8"><path d="m305.97 124.2c-18.667 0-36.247-16.906-40.394-40.18-.558-3.129-4.828-3.649-6.122-.746-29.206 65.519 23.781 79.137 46.516 79.137 10.552 0 19.106-8.554 19.106-19.106-.001-10.552-8.554-19.105-19.106-19.105z"/><path d="m456.915 124.2c18.667 0 36.246-16.906 40.394-40.18.558-3.129 4.828-3.649 6.122-.746 29.206 65.519-23.781 79.137-46.516 79.137-10.552 0-19.106-8.554-19.106-19.106.001-10.552 8.554-19.105 19.106-19.105z"/></g><path d="m418.645 97.001h-74.405c-23.65 0-66.631 50.678-66.631 121.866 0 46.173 60.877 69.957 92.344 109.066 5.879 7.306 17.101 7.306 22.98 0 31.467-39.109 92.344-62.893 92.344-109.066-.001-71.189-42.982-121.866-66.632-121.866z" fill="#9d6c6c"/><path d="m290.81 113.93v13.038c0 5.683 4.181 10.49 9.806 11.297 19.422 2.785 60.921 11.276 60.921 32.991v84.969h39.812s0-60.419 0-84.969c0-21.714 41.499-30.206 60.921-32.991 5.626-.807 9.806-5.614 9.806-11.297v-13.038c0-6.848-4.282-12.956-10.706-15.328-53.284-19.669-106.569-19.669-159.854 0-6.425 2.372-10.706 8.48-10.706 15.328z" fill="#664646"/><path d="m416.282 300.488h-69.679c-10.491 0-18.996-8.505-18.996-18.996v-18.217c0-21.78 17.656-39.436 39.436-39.436h28.798c21.78 0 39.436 17.656 39.436 39.436v18.217c0 10.491-8.504 18.996-18.995 18.996z" fill="#cdb1b1"/></g></g><path d="m142.074 52.274c-7.185-13.762-21.28-22.311-36.785-22.311-15.503 0-29.599 8.549-36.785 22.312-1.308 2.507-1.308 5.501 0 8.01 7.186 13.761 21.28 22.31 36.785 22.31s29.601-8.549 36.785-22.311c1.311-2.508 1.311-5.504 0-8.01z" fill="#664646"/><g fill="#664646"><path d="m327.606 196.081c-4.204 0-7.612-3.408-7.612-7.611v-7.115c0-4.204 3.407-7.611 7.612-7.611s7.611 3.408 7.611 7.611v7.115c0 4.203-3.407 7.611-7.611 7.611z"/><path d="m435.276 196.081c-4.204 0-7.611-3.408-7.611-7.611v-7.115c0-4.204 3.407-7.611 7.611-7.611s7.612 3.408 7.612 7.611v7.115c-.001 4.203-3.408 7.611-7.612 7.611z"/></g><g fill="#b79090"><path d="m364.828 279.831c-3.807 0-7.095-2.851-7.55-6.725-.403-3.441-1.242-6.198-2.492-8.194-2.231-3.562-1.152-8.259 2.411-10.491 3.562-2.23 8.259-1.152 10.491 2.411 2.491 3.977 4.032 8.72 4.71 14.499.49 4.175-2.499 7.957-6.673 8.447-.302.036-.601.053-.897.053z"/><path d="m398.054 279.831c-.296 0-.596-.017-.897-.053-4.174-.49-7.163-4.271-6.673-8.447.666-5.672 2.248-10.545 4.701-14.484 2.224-3.568 6.918-4.659 10.486-2.436s4.658 6.917 2.436 10.485c-1.259 2.02-2.101 4.781-2.502 8.209-.456 3.875-3.745 6.726-7.551 6.726z"/></g></g></svg>