<svg id="Capa_1" enable-background="new 0 0 512 512" height="512" viewBox="0 0 512 512" width="512" xmlns="http://www.w3.org/2000/svg"><g><path d="m7.62 297.684c-.59 0-1.188-.069-1.786-.213-4.087-.983-6.604-5.093-5.621-9.18l23.444-97.492c.983-4.088 5.096-6.604 9.18-5.621 4.087.983 6.604 5.093 5.621 9.18l-23.444 97.492c-.839 3.489-3.957 5.834-7.394 5.834z" fill="#c77e67"/><path d="m308.752 283.361v169.241l10.13 17.066c3.095 5.206-.658 11.795-6.717 11.795h-34.508c-5.034 0-9.103-4.07-9.103-9.103v-107.089c0-11.569-9.508-33.825-17.668-54.6-30.202 10.321-60.232 13.904-100.066 4.12-14.685 48.196-55.544 72.118-55.544 72.118l7.377 59.39 10.229 24.325c2.162 5.145-1.611 10.838-7.202 10.838h-31.828c-4.536 0-8.372-3.33-9.011-7.805l-13.965-97.121s38.324-34.85-14.206-102.958c-37.073-48.064-8.688-160.644 49.545-160.644 22.134 0 42.868 20.997 61.247 20.876 28.832-.173 51.778-20.926 64.789-20.926 24.357 0 57.817 56.447 86.558 78.753 38.179-29.431 59.593-60.191 76.074-114.639l33.917 74.735c-19.649 64.911-46.331 96.169-100.048 131.628z" fill="#d09180"/><path d="m408.799 151.733c-19.648 64.911-46.329 96.168-100.046 131.628v-24.113c48.896-33.034 74.553-63.348 93.439-122.078z" fill="#c77e67"/><path d="m243.498 290.546c2.03 6.221 4.628 13.081 7.388 20.125-30.202 10.321-60.232 13.904-100.066 4.12 1.817-5.988 3.248-12.361 4.131-19.1 34.394 7.013 61.521 3.715 88.547-5.145z" fill="#c77e67"/><g fill="#d09180"><path d="m319.926 33.947c-.724 5.912-.936 29.667 39.234 43.057l15.726-10.82c-.633-20.934-13.74-41.981-53.467-33.865-.796.163-1.394.822-1.493 1.628z"/><path d="m511.83 33.947c.724 5.912.936 29.667-39.234 43.057l-15.726-10.82c.633-20.934 13.74-41.981 53.467-33.865.796.163 1.394.822 1.493 1.628z"/></g><path d="m478.58 69.971c-11.98-23.127-29.539-41.443-60.598-28.792-1.345.548-2.862.548-4.208 0-31.058-12.651-48.618 5.665-60.598 28.792-16.828 7.403-27.287 18.847-27.287 34.755 0 31.23 40.289 59.725 89.988 59.725s89.988-28.495 89.988-59.725c.001-15.908-10.458-27.353-27.285-34.755z" fill="#d9a797"/><path d="m415.878 127.525c-25.815 0-46.742 20.927-46.742 46.742v28.34c0 6.477 5.251 11.728 11.728 11.728h70.029c6.477 0 11.728-5.251 11.728-11.728v-28.34c-.001-25.814-20.928-46.742-46.743-46.742z" fill="#eacfca"/><path d="m429.189 247.806h-26.621c-7.42 0-13.435-6.015-13.435-13.435v-20.035h53.491v20.035c0 7.42-6.015 13.435-13.435 13.435z" fill="#e4c2bb"/><path d="m318.882 469.668-10.13-17.066v-192.31c0-5.977-6.044-10.06-11.589-7.832-3.198 1.285-5.294 4.385-5.294 7.832v192.312l10.133 17.061c3.092 5.206-.66 11.797-6.715 11.797h16.878c6.056.001 9.809-6.588 6.717-11.794z" fill="#c77e67"/><path d="m141.817 255.225-.462.081c-5.926 1.035-9.991 6.461-9.452 12.452 5.929 65.92-40.481 100.305-56.023 109.889-3.009 1.856-4.65 5.293-4.214 8.801l7.434 59.854 10.229 24.324c2.165 5.148-1.615 10.837-7.199 10.837h23.551c5.584 0 9.367-5.691 7.202-10.838l-10.229-24.325-7.377-59.39s68.788-40.264 59.94-121.596c-.718-6.601-6.86-11.231-13.4-10.089z" fill="#c77e67"/><g fill="#855b51"><path d="m366.558 112.743h-6.476c-4.204 0-7.611-3.408-7.611-7.611s3.408-7.611 7.611-7.611h6.476c4.204 0 7.611 3.408 7.611 7.611s-3.407 7.611-7.611 7.611z"/><path d="m471.689 112.743h-6.476c-4.204 0-7.611-3.408-7.611-7.611s3.408-7.611 7.611-7.611h6.476c4.204 0 7.611 3.408 7.611 7.611s-3.407 7.611-7.611 7.611z"/></g><g fill="#a87c72"><path d="m401.046 185.506c-3.853 0-7.159-2.916-7.562-6.832-.374-3.633-1.153-6.546-2.315-8.658-2.026-3.683-.682-8.312 3.001-10.337 3.681-2.026 8.311-.682 10.337 3.001 2.179 3.963 3.527 8.684 4.118 14.435.431 4.182-2.611 7.921-6.792 8.351-.263.026-.526.04-.787.04z"/><path d="m430.725 185.506c-.261 0-.523-.013-.788-.041-4.182-.43-7.223-4.168-6.793-8.35.588-5.721 1.932-10.437 4.109-14.419 2.015-3.689 6.639-5.045 10.329-3.028 3.689 2.016 5.045 6.641 3.028 10.329-1.17 2.14-1.951 5.059-2.324 8.674-.401 3.918-3.707 6.835-7.561 6.835z"/></g></g></svg>