<svg id="Capa_1" enable-background="new 0 0 512 512" height="512" viewBox="0 0 512 512" width="512" xmlns="http://www.w3.org/2000/svg"><g><g><path d="m390.076 457.793c5.558 6.621.853 16.725-7.789 16.725h-52.192l-34.824-95.162c-44.129 7.032-115.196 27.802-164.41 12.348-12.401 14.654-25.792 22-25.792 22v24.595l13.937 27.202c2.105 4.126-.881 9.017-5.512 9.017h-46.754c-23.58-15.938-32.515-89.351-32.315-115.973-7.664-10.885-62.184-92.437-16.15-179.021s121.228-51.53 138.945-51.53h217.582l29.318 182.874c-8.822 16.77-42.403 55.15-44.803 65.951 4.8 28.781 11.16 57.667 11.16 57.667z" fill="#a29aa5"/><g fill="#8c818f"><path d="m370.477 434.484s-6.359-28.886-11.16-57.667c2.4-10.801 35.981-49.181 44.803-65.951l-29.318-182.874s-9.007 0-23.363 0l28.137 179.322c-8.822 17.134-42.403 56.348-44.803 67.383 4.8 29.405 11.159 58.918 11.159 58.918l19.601 23.813c5.558 6.765.853 17.089-7.79 17.089h24.543c8.643 0 13.348-10.103 7.789-16.725z"/><path d="m295.271 379.355c-44.129 7.032-115.196 27.802-164.41 12.348 4.453-5.263 8.78-11.464 12.317-18.612 45.034 8.59 103.175-5.485 145.019-13.074z"/><path d="m116.655 264.04c-8.217.52-13.071 9.54-8.872 16.623 45.343 76.487-10.442 115.119-25.5 123.771-2.197 1.262-3.55 3.593-3.55 6.126v25.297c0 1.605.382 3.187 1.113 4.616l12.822 25.029c2.11 4.119-.881 9.014-5.509 9.014h26.335c4.628 0 7.622-4.898 5.512-9.017l-13.937-27.202v-24.595s88.414-48.48 21.341-144.987c-2.197-3.161-5.913-4.918-9.755-4.675z"/></g><g fill="#a29aa5"><path d="m274.826 41.819c-15.018-18.48-42.556 26.493-11.193 52.444 25.991 21.507 63.048-.367 63.048-.367l12.031-19.79c-25.769 7.052-53.4-19.385-63.886-32.287z"/><path d="m486.432 41.819c15.018-18.48 42.556 26.493 11.193 52.444-25.991 21.507-63.048-.367-63.048-.367l-12.031-19.79c25.769 7.052 53.4-19.385 63.886-32.287z"/></g><path d="m426.819 62.578c-19.465-11.291-71.956-9.927-92.295 0-38.706 18.892-77.558 106.168-63.554 149.199h219.404c14.003-43.031-26.514-127.713-63.555-149.199z" fill="#b5adb7"/><ellipse cx="380.629" cy="287.331" fill="#b5adb7" rx="78.663" ry="41.998"/><g><g fill="#f7f3f1"><path d="m317.249 330.98h-20.123c-4.496 0-8.141-3.645-8.141-8.141v-53.957h36.405v53.957c0 4.497-3.645 8.141-8.141 8.141z"/><path d="m464.132 330.98h-20.123c-4.496 0-8.141-3.645-8.141-8.141v-53.957h36.405v53.957c0 4.497-3.645 8.141-8.141 8.141z"/></g></g><path d="m499.652 222.051v41.887c0 14.517-11.769 26.286-26.286 26.286h-41.879c-2.83 0-5.61-.815-7.953-2.401-11.362-7.691-26.406-12.378-42.91-12.378-16.503 0-31.545 4.686-42.899 12.376-2.345 1.588-5.125 2.404-7.957 2.404h-41.887c-14.517 0-26.275-11.769-26.275-26.275v-41.897c0-14.506 11.759-26.275 26.275-26.275h5.221c3.884 0 7.253-2.474 8.632-6.095 0-.021.011-.042.021-.063 5.8-15.148 24.602-22.033 42.003-15.369 7.737 2.958 13.885 8.106 17.822 14.243 2.926 4.537 7.948 7.285 13.348 7.285h11.39c5.4 0 10.432-2.748 13.348-7.285 3.937-6.137 10.085-11.285 17.833-14.243 17.391-6.664 36.202.221 41.992 15.369l.586 1.173c1.528 3.055 4.651 4.986 8.067 4.986h5.232c14.512-.003 26.276 11.76 26.276 26.272z" fill="#968d97"/></g><g fill="#544f56"><g><path d="m327.221 140.499c-4.267 0-7.726-3.459-7.726-7.726v-9.566c0-4.267 3.459-7.726 7.726-7.726s7.726 3.459 7.726 7.726v9.566c.001 4.266-3.459 7.726-7.726 7.726z"/><path d="m434.037 140.499c-4.267 0-7.726-3.459-7.726-7.726v-9.566c0-4.267 3.459-7.726 7.726-7.726s7.726 3.459 7.726 7.726v9.566c0 4.266-3.459 7.726-7.726 7.726z"/></g><g><path d="m331.604 215.422c-2.349 0-4.67-1.067-6.188-3.092l-3.005-4.007c-2.56-3.414-1.868-8.257 1.546-10.817 3.414-2.558 8.257-1.867 10.817 1.546l3.005 4.007c2.56 3.414 1.868 8.257-1.546 10.817-1.39 1.043-3.016 1.546-4.629 1.546z"/><path d="m429.646 215.422c-1.613 0-3.24-.504-4.63-1.546-3.414-2.56-4.106-7.403-1.545-10.817l3.005-4.007c2.561-3.413 7.403-4.105 10.817-1.545s4.106 7.403 1.545 10.817l-3.005 4.007c-1.518 2.024-3.838 3.091-6.187 3.091z"/></g></g></g></svg>