<svg id="Capa_1" enable-background="new 0 0 512 512" height="512" viewBox="0 0 512 512" width="512" xmlns="http://www.w3.org/2000/svg"><g><path d="m169.929 33.607h-116.132c-29.711 0-53.797 24.085-53.797 53.796v85.014c0 15.302 7.19 29.716 19.414 38.919l29.063 21.881 33.001-23.705-35.26-22.391c-6.858-4.355-11.012-11.914-11.012-20.038v-65.753c0-10.63 8.617-19.246 19.246-19.246h84.055c20.524 0 37.161-16.638 37.161-37.161v-5.576c.001-3.17-2.569-5.74-5.739-5.74z" fill="#f0e9e6"/><path d="m35.201 107.979v56.361l-33.996 18.852c-.793-3.502-1.205-7.107-1.205-10.774v-64.439z" fill="#8c818f"/><path d="m123.107 33.61v48.47h-60.472l-6.727-48.47z" fill="#8c818f"/><path d="m336.367 311.138c50.829-33.696 73.323-95.799 56.157-154.49-48.742 0-107.475 0-107.475 0s-23.793 19.082-54.468 10.211c-22.19-6.417-58.302-33.691-92.658-33.691-4.242 0-5.695 0-5.695 0-48.486 0-87.792 29.242-87.792 86.475v21.301c0 64.837 32.247 104.016 85.718 117.501 6.843 23.133-5.927 75.4-18.461 103.942-3.314 7.546 2.192 16.005 10.433 16.005h97.971c6.304 0 11.414-5.11 11.414-11.414 0-4.562-2.717-8.687-6.909-10.487l-42.544-18.274c-3.424-1.471-4.888-5.533-3.18-8.845 7.021-13.623 23.677-47.496 30.675-75.163 1.542-6.096 2.644-13.072 3.092-20.636 17.338 2.866 33.705 3.559 48.999 2.381l-6.724 19.552c-2.482 7.217-2.069 15.115 1.152 22.034l45.238 97.176c1.364 2.93 4.708 4.37 7.774 3.349l3.231-1.077c14.091-4.696 21.335-20.273 15.845-34.075l-26.759-67.269c-.895-2.251-.692-4.79.55-6.87z" fill="#a29aa5"/><path d="m392.525 156.649c-6.167 0-12.494 0-18.841 0 11.515 57.279-11.231 115.864-58.9 148.581l-34.417 59.673c-1.242 2.153-1.445 4.783-.55 7.113l26.759 69.645c4.138 10.769 1.04 22.58-6.769 29.828l1.503 3.228c1.364 2.93 4.708 4.37 7.774 3.349l3.231-1.077c14.091-4.696 21.335-20.273 15.845-34.075l-26.759-67.269c-.895-2.251-.692-4.79.55-6.87l34.417-57.638c50.828-33.695 73.322-95.798 56.157-154.488z" fill="#8c818f"/><path d="m270.258 310.888-8.614 25.068c-15.298 1.185-31.661.483-48.999-2.381.474-8.118.2-16.917-1.077-26.045 17.39 4.162 39.044 5.429 58.69 3.358z" fill="#8c818f"/><path d="m224.603 456.492-42.544-18.274c-3.424-1.471-4.887-5.533-3.18-8.845 7.021-13.623 23.678-47.496 30.675-75.163 8.838-34.942 3.184-98.782-56.877-136.72-1.875-1.184-4.146-1.579-6.303-1.06-6.379 1.534-8.435 9.622-3.526 13.975 44.064 39.071 47.788 94.69 39.87 126.638-6.998 28.232-23.654 62.798-30.675 76.7-1.707 3.38-.243 7.525 3.18 9.025l42.544 18.648c4.192 1.837 6.909 6.046 6.909 10.701 0 2.313-.669 4.464-1.809 6.276h17.231c6.304 0 11.414-5.11 11.414-11.414 0-4.562-2.717-8.686-6.909-10.487z" fill="#8c818f"/><g fill="#ebe1dc"><path d="m226.651 63.749c4.837 32.484 20.193 60.834 47.952 62.606l17.909-26.352c-4.324-29.757-35.261-42.16-65.861-36.254z"/><path d="m512 63.749c-4.837 32.484-20.193 60.834-47.952 62.606l-17.909-26.352c4.324-29.757 35.261-42.16 65.861-36.254z"/></g><path d="m443.028 92.855c-48.089-20.63-97.013-20.968-146.818.082-22.602 9.553-38.072 11.214-40.151 35.664-2.454 28.855-3.788 66.852 4.04 82.346 11.282 22.331 56.292 53.293 80.561 59.373 13.903 3.483 43.427 3.483 57.33 0 24.269-6.081 69.278-37.043 80.561-59.373 7.883-15.602 6.475-54.02 3.989-82.945-2.072-24.115-17.268-25.604-39.512-35.147z" fill="#f0e9e6"/><g fill="#8c818f"><path d="m446.56 143.21c-.449-.811-.931-1.585-1.442-2.324-12.21-17.677-39.408-14.261-47.713 5.553l-4.881 11.645c-4.512 10.765-1.754 23.204 6.886 31.053l4.266 3.876c14.404 13.086 37.563 7.565 44.333-10.68 4.782-12.884 4.363-28.634-1.449-39.123z"/><path d="m292.092 143.21c.449-.811.931-1.585 1.442-2.324 12.21-17.677 39.408-14.261 47.713 5.553l4.881 11.645c4.512 10.765 1.753 23.204-6.886 31.053l-4.266 3.876c-14.404 13.086-37.563 7.565-44.333-10.68-4.782-12.884-4.363-28.634 1.449-39.123z"/><path d="m482.655 129.371c-.038-.456-.076-.917-.115-1.369-2.073-24.115-17.268-45.178-39.512-54.72-48.089-20.63-97.013-20.968-146.818.082-22.602 9.553-38.072 30.787-40.151 55.237-.022.254-.042.514-.064.77 46.22-46.424 91.143-33.884 113.33-7.431 22.188-26.452 67.11-38.992 113.33 7.431z"/><ellipse cx="369.326" cy="230.217" rx="22.791" ry="19.269"/></g><path d="m421.775 176.214c-4.268 0-7.726-3.459-7.726-7.726v-3.257c0-4.267 3.459-7.726 7.726-7.726s7.726 3.459 7.726 7.726v3.257c0 4.267-3.459 7.726-7.726 7.726z" fill="#544f56"/><path d="m316.876 176.214c-4.268 0-7.726-3.459-7.726-7.726v-3.257c0-4.267 3.459-7.726 7.726-7.726s7.726 3.459 7.726 7.726v3.257c.001 4.267-3.458 7.726-7.726 7.726z" fill="#544f56"/></g></svg>