<svg id="Capa_1" enable-background="new 0 0 512 512" height="512" viewBox="0 0 512 512" width="512" xmlns="http://www.w3.org/2000/svg"><g><path d="m277.109 4.121v503.759c0 2.276 1.845 4.121 4.121 4.121h141.321c2.276 0 4.121-1.845 4.121-4.121v-503.759c0-2.276-1.845-4.121-4.121-4.121h-141.322c-2.275 0-4.12 1.845-4.12 4.121z" fill="#766d78"/><path d="m393.798 0v512h28.753c2.276 0 4.121-1.845 4.121-4.121v-503.758c0-2.276-1.845-4.121-4.121-4.121z" fill="#655e67"/><path d="m426.672 350.009c-3.827.237-7.996 1.985-12.451 5.795-21.017 17.976-43.089 33.727-78.456 41.991-2.791-13.743-6.407-28.42-9.362-43.694 33.971-9.296 70.506-28.069 100.27-61.849v-84.878c-21.775 1.322-46.841 40.315-102.889 68.632 3.042-15.431 8.859-30.886 18.754-46.073-11.033 0-36.193 0-65.427 0v268.382h8.342c13.25 0 97.839-3.294 141.221-47.49v-100.816z" fill="#655e67"/><path d="m410.099 335.2c-21.017 17.976-43.089 33.727-78.456 41.991-2.791-13.743-6.407-28.42-9.362-43.694 37.638-10.299 78.427-32.225 109.662-73.314 21.405-28.158 17.413-55.344 8.737-64.596-28.294-30.174-49.273 23.567-121.019 59.815 3.042-15.431 8.859-30.886 18.754-46.073-34.852 0-210.642 0-210.642 0-28.311 82.338-39.433 268.382 98.751 268.382h54.805c17.948 0 166.815-6.025 166.815-111.604.001-16.344-15.331-50.333-38.045-30.907z" fill="#e29576"/><path d="m430.486 331.167c1.56 4.819 2.392 9.579 2.392 13.383 0 105.579-148.866 111.604-166.815 111.604s-54.805 0-54.805 0c-35.681 0-61.405-12.405-79.451-32.225 17.611 31.979 47.415 53.783 94.718 53.783h54.805c17.948 0 166.815-6.025 166.815-111.604 0-10.758-6.643-29.157-17.659-34.941z" fill="#dc805a"/><path d="m444.212 200.945c-1.212 10.762-5.687 23.281-15.359 36.004-47.868 62.968-118.171 80.944-165.182 81.009-6.399.009-11.573 5.203-11.573 11.602 0 6.344 5.086 11.507 11.429 11.611 46.972.766 119.44-16.562 168.416-80.989 18.177-23.91 18.037-47.114 12.269-59.237z" fill="#dc805a"/><path d="m226.524 46.386c-38.172-27.894-162.668 6.334-162.668 148.116 0 38.595 29.761 83.492 65.093 101.053 2.126 1.057 4.666.875 6.621-.473 11.303-7.8 18.772-14.394 18.831-14.444 0 0 34.508 24.482 72.125 30.029 37.616-5.546 72.125-30.029 72.125-30.029.011.009 7.492 6.62 18.83 14.445 1.954 1.349 4.494 1.53 6.621.474 35.332-17.56 65.093-62.458 65.093-101.053-.002-141.784-124.498-176.012-162.671-148.118z" fill="#e29576"/><path d="m343.052 167.448c0 9.338 13.161 32.834 9.311 40.598-16.683 33.646-66.713 52.137-125.84 52.137-58.918 0-108.804-18.361-125.662-51.782-3.964-7.858-.803-19.043-.803-28.523 0-19.373 3.629-36.852 18.822-54.027 23.862-26.974 63.181-47.045 107.643-47.045s83.78 20.07 107.643 47.045c15.194 17.175 8.886 22.224 8.886 41.597z" fill="#ffdcce"/><g fill="#766d78"><path d="m334.165 125.853c-6.112-2.017-12.638-3.125-19.427-3.125h-16.914c-14.953 0-27.026 12.326-26.614 27.372.398 14.502 12.66 25.876 27.168 25.876h13.566c14.655 0 28.059 8.256 34.654 21.343l5.583 11.079c3.963-7.858 6.107-16.546 6.107-26.026 0-19.373-8.93-39.344-24.123-56.519z"/><path d="m118.884 125.853c6.112-2.017 12.638-3.125 19.427-3.125h16.914c14.953 0 27.026 12.326 26.614 27.372-.398 14.502-12.66 25.876-27.167 25.876h-13.566c-14.655 0-28.059 8.256-34.654 21.343l-5.583 11.079c-3.963-7.858-6.107-16.546-6.107-26.026-.001-19.373 8.929-39.344 24.122-56.519z"/><path d="m226.522 220.74c-14.611 0-29.222-2.889-43.732-8.667-3.965-1.578-5.898-6.072-4.32-10.036 1.578-3.965 6.072-5.9 10.036-4.32 25.582 10.186 50.452 10.186 76.032 0 3.964-1.577 8.458.355 10.036 4.32 1.578 3.964-.355 8.458-4.32 10.036-14.509 5.778-29.12 8.667-43.732 8.667z"/></g><path d="m226.522 146.172c-14.444 0-26.194 10.177-26.194 22.686s11.751 22.686 26.194 22.686 26.193-10.177 26.193-22.686-11.75-22.686-26.193-22.686z" fill="#e29576"/><path d="m312.869 157.079h-10.29c-4.268 0-7.726-3.459-7.726-7.726s3.459-7.726 7.726-7.726h10.29c4.268 0 7.726 3.459 7.726 7.726s-3.458 7.726-7.726 7.726z" fill="#444145"/><path d="m150.464 157.079h-10.29c-4.268 0-7.726-3.459-7.726-7.726s3.459-7.726 7.726-7.726h10.29c4.268 0 7.726 3.459 7.726 7.726s-3.459 7.726-7.726 7.726z" fill="#444145"/></g></svg>