<svg id="Capa_1" enable-background="new 0 0 512 512" height="512" viewBox="0 0 512 512" width="512" xmlns="http://www.w3.org/2000/svg"><g><path d="m333.258 512h-100.979c-10.379 0-18.792-8.413-18.792-18.792v-34.11h60.095l64.63 31.308c3.92 1.899 6.41 5.872 6.41 10.228.001 6.278-5.088 11.366-11.364 11.366z" fill="#e69642"/><path d="m318.827 169.908-110.514-48.29c-93.299 23.28-65.397 168.326-65.397 248.33 0 34.405-25.267 51.979-41.51 59.722-8.204 3.911-13.364 12.262-13.364 21.35v1.627c0 10.997 7.556 20.526 18.249 23.093 15.602 3.744 39.004 7.818 65.588 9.366 61.248 3.566 108.379-26.837 146.947-85.014 42.347-63.877 47.213-115.734 23.946-168.052-12.379-27.841-23.945-49.989-23.945-62.132z" fill="#766d78"/><path d="m274.484 439.311c-62.803 24.339-142.175 13.757-178.729 4.984-2.112-.507-4.095-1.294-5.928-2.302-1.153 2.819-1.786 5.876-1.786 9.027v1.627c0 10.997 7.556 20.526 18.249 23.093 15.602 3.744 39.004 7.818 65.588 9.366 33.921 1.975 73.023-10.163 107.715-22.347z" fill="#655e67"/><path d="m171.88 485.105c61.248 3.566 139.389-6.277 177.957-64.455 42.348-63.879 16.204-136.293-7.063-188.612-105.18 18.635 46.285 203.71-170.894 253.067z" fill="#f7f3f1"/><path d="m368.368 306.69c-3.37-16.575-8.619-32.907-14.648-48.499 11.589 41.782 13.893 88.308-14.419 131.014-19.008 28.672-47.628 45.604-79.101 54.977-18.937 17.172-46.924 31.511-88.307 40.918 27.029 1.572 55.298.432 81.778-5.161 23.374-4.93 46.078-13.503 65.228-27.302 28.56-20.57 45.997-51.213 51.481-83.919 3.456-20.638 2.144-41.522-2.012-62.028z" fill="#ebe1dc"/><path d="m423.957 133.265c0-66.689-57.766-133.265-129.022-133.265s-129.018 66.576-129.018 133.265 57.764 85.561 129.02 85.561 129.02-18.872 129.02-85.561z" fill="#f7f3f1"/><path d="m388.763 44.485c12.239 20.454 19.313 43.761 19.313 67.086 0 66.689-57.764 85.561-129.021 85.561-43.99 0-82.832-7.2-106.121-28.396 17.442 38.207 65.474 50.09 122.003 50.09 71.256 0 129.02-18.872 129.02-85.561 0-32.089-13.378-64.148-35.194-88.78z" fill="#ebe1dc"/><path d="m294.937 111.122c-13.194 0-23.89 4.44-23.89 18.922 0 12.761 18.549 24.202 22.958 26.742.58.334 1.284.334 1.864 0 4.409-2.539 22.958-13.981 22.958-26.742 0-14.481-10.696-18.922-23.89-18.922z" fill="#ecb880"/><path d="m376.388 32.119c-2.472-.334-4.995-.501-7.55-.501-29.603 0-53.938 14.272-56.768 42.132-.318 3.127-2.892 5.537-6.035 5.537h-22.194c-3.143 0-5.717-2.409-6.035-5.537-2.83-27.86-27.166-42.132-56.768-42.132-2.555 0-5.078.167-7.55.501 22.211-19.606 50.558-32.119 81.447-32.119s59.241 12.513 81.453 32.119z" fill="#766d78"/><g fill="#655e67"><path d="m272.129 275.778c.659 66.738-36.681 135.944-69.331 131.366-30.241-4.24-13.801-112.631-2.162-134.904 21.009-40.201 71.055-40.822 71.493 3.538z"/><g><path d="m365.106 106.822c-4.143 0-7.5-3.358-7.5-7.5v-6.452c0-4.142 3.357-7.5 7.5-7.5s7.5 3.358 7.5 7.5v6.452c0 4.142-3.357 7.5-7.5 7.5z"/><path d="m224.768 106.822c-4.143 0-7.5-3.358-7.5-7.5v-6.452c0-4.142 3.357-7.5 7.5-7.5s7.5 3.358 7.5 7.5v6.452c0 4.142-3.358 7.5-7.5 7.5z"/></g></g></g></svg>