<svg id="Capa_1" enable-background="new 0 0 512 512" height="512" viewBox="0 0 512 512" width="512" xmlns="http://www.w3.org/2000/svg"><g><g><path d="m375.357 264.674-97.754-184.347c-26.54 42.209-125.952 161.359-125.952 161.359s-125.062 11.072-132.878 86.63c-7.816 75.558 61.928 106.824 62.229 115.943.213 6.439-4.271 37.559-6.925 55.295-.981 6.556 4.099 12.446 10.728 12.446h73.825c4.278 0 7.747-3.468 7.747-7.747v-1.768c0-6.217-3.484-11.91-9.019-14.739l-14.912-7.622s42.337-19.876 38.488-59.625c176.088-29.542 179.381-109.332 194.423-155.825z" fill="#8c818f"/><path d="m375.357 264.674c-15.035 46.485-18.333 126.281-194.423 155.826-.705-7.281-2.955-15.233-7.321-23.861 135.96-23.863 172.649-99.661 189.2-155.615z" fill="#766d78"/><path d="m157.357 487.746-14.912-7.622s103.121-48.404-27.127-145.212c-1.378-1.024-3.035-1.615-4.75-1.706-8.306-.443-12.485 9.852-6.233 15.338 98.002 85.996 10.469 131.58 10.469 131.58l14.912 7.621c5.536 2.829 9.02 8.522 9.02 14.739v1.768c0 4.278-3.468 7.747-7.747 7.747h27.641c4.278 0 7.747-3.468 7.747-7.747v-1.768c0-6.216-3.484-11.909-9.02-14.738z" fill="#766d78"/><path d="m350.186 427.783-89.392-152.89h-52.261c-10.027 95.337 19.412 122.293 83.721 178.394-13.464-.727-12.93-.758-14.594-.758-16.298 0-29.703 13.236-29.703 29.734 0 16.424 13.31 29.734 29.734 29.734h9.617c12.373 0 24.242-4.892 33.017-13.604l23.705-23.547c12.543-12.447 15.079-31.807 6.156-47.063z" fill="#8c818f"/><path d="m350.186 427.783-86.214-147.454c-1.968-3.367-5.575-5.436-9.475-5.436-8.476 0-13.753 9.199-9.475 16.515l79.735 136.374c8.922 15.256 6.387 34.616-6.155 47.063l-23.705 23.548c-6.666 6.618-15.119 11.025-24.221 12.765 2.25.544 4.598.84 7.016.84h9.617c12.373 0 24.242-4.892 33.017-13.604l23.705-23.547c12.542-12.448 15.078-31.808 6.155-47.064z" fill="#766d78"/><path d="m482.216 78.581c-4.943-11.298-21.516-24.009-39.17-28.952-15.701-27.384-38.848-49.629-72.148-49.629s-56.448 22.245-72.148 49.629c-17.654 4.943-34.227 17.654-39.17 28.952s-14.829 76.264-10.592 103.097c4.237 26.834 30.994 85.444 95.291 93.211h53.238c64.298-7.768 91.055-66.378 95.291-93.211 4.237-26.833-5.649-91.798-10.592-103.097z" fill="#766d78"/><path d="m443.998 88.813c-14.994-7.689-52.057 25.492-73.101 25.492s-58.107-33.181-73.101-25.492c-16.57 8.497-22.942 64.579-19.119 73.926s17.844 23.367 45.807 32.289h92.825c27.963-8.922 41.983-22.942 45.807-32.289s-2.548-65.429-19.118-73.926z" fill="#c5bec6"/><path d="m325.494 177.342c-16.492 15.565-41.074 70.206-26.304 88.047 27.887 33.686 115.529 33.686 143.416 0 14.77-17.842-9.813-72.483-26.304-88.047-25.353-23.927-65.456-23.927-90.808 0z" fill="#d4cfd5"/></g><g fill="#766d78"><g><path d="m353.243 217.013c-.463 0-.933-.042-1.404-.128-4.035-.741-6.758-4.49-6.278-8.508-.155-.271-.486-.62-.726-.751-4.111-.84-6.812-4.82-6.05-8.966.771-4.197 4.8-6.969 8.996-6.202 7.488 1.377 14.66 9.462 13.052 18.223-.684 3.724-3.934 6.332-7.59 6.332zm-8.258-9.359c.001 0 .001.001.003.001-.002 0-.002-.001-.003-.001z"/><path d="m388.555 217.013c-3.657 0-6.906-2.607-7.591-6.333-1.608-8.761 5.565-16.846 13.053-18.223 4.192-.768 8.224 2.005 8.996 6.202.762 4.146-1.939 8.127-6.05 8.966-.24.131-.571.48-.726.752.479 4.017-2.243 7.767-6.278 8.508-.472.086-.941.128-1.404.128zm8.258-9.359s-.001.001-.002.001c0 0 .001-.001.002-.001z"/></g><path d="m417.399 255.553c-1.217 0-2.451-.288-3.601-.895-28.867-15.243-56.932-15.242-85.797 0-3.773 1.991-8.447.549-10.44-3.225-1.992-3.773-.549-8.447 3.225-10.44 33.252-17.559 66.975-17.559 100.228 0 3.774 1.993 5.217 6.667 3.225 10.44-1.386 2.623-4.067 4.12-6.84 4.12z"/><g><path d="m317.462 149.144c-4.267 0-7.726-3.459-7.726-7.726v-6.718c0-4.267 3.459-7.726 7.726-7.726s7.726 3.459 7.726 7.726v6.718c0 4.267-3.459 7.726-7.726 7.726z"/><path d="m424.337 149.144c-4.267 0-7.726-3.459-7.726-7.726v-6.718c0-4.267 3.459-7.726 7.726-7.726s7.726 3.459 7.726 7.726v6.718c0 4.267-3.459 7.726-7.726 7.726z"/></g></g></g></svg>