<svg id="Capa_1" enable-background="new 0 0 512 512" height="512" viewBox="0 0 512 512" width="512" xmlns="http://www.w3.org/2000/svg"><g><path d="m24.497 279.513c-2.452 0-4.861-1.17-6.351-3.346-15.882-23.204-21.26-42.058-16.444-57.64 7.011-22.679 32.821-32.72 60.146-43.35 19.259-7.492 39.174-15.239 51.202-27.355 2.992-3.015 7.859-3.032 10.873-.04 3.013 2.992 3.031 7.859.04 10.873-14.326 14.43-35.786 22.779-56.54 30.852-23.766 9.245-46.214 17.978-51.031 33.562-3.294 10.657 1.565 25.6 14.442 44.414 2.398 3.504 1.502 8.288-2.002 10.686-1.327.908-2.839 1.344-4.335 1.344z" fill="#e69642"/><path d="m354.969 448.557 19.293 26.78c3.792 5.264.031 12.609-6.457 12.609h-52.95c-7.121 0-13.144-5.266-14.096-12.323l-11.519-85.432c-40.012-.73-89.446-19.358-130.498-29.415-6.59 42.534-54.841 52.545-54.841 52.545v35.235l14.037 27.85c2.668 5.293-1.179 11.54-7.106 11.54h-42.556c-5.841 0-11.088-3.571-13.231-9.005l-25.005-63.408c-.522-1.324-.307-2.82.576-3.937 5.843-7.393 26.181-37.67.655-73.939-29.429-41.815-14.928-118.264 61.896-124.822 76.825-6.547 130.992-40.838 152.125-55.112l166.432 134.738c-16.818 33.636-56.755 82.49-56.755 82.49z" fill="#ecb880"/><g fill="#e69642"><path d="m411.724 292.461-16.736-13.549c-24.518 46.126-62.264 96.04-62.264 96.04v73.605l19.293 26.779c3.792 5.264.031 12.609-6.457 12.609h22.245c6.488 0 10.249-7.346 6.457-12.609l-19.293-26.78v-73.605s39.937-48.854 56.755-82.49z"/><path d="m285.384 361.548 3.857 28.643c-40.007-.728-89.446-19.359-130.498-29.415 1.046-6.683 1.053-14.163-.32-22.527 41.412 8.795 86.749 19.978 126.961 23.299z"/><path d="m139.428 308.424c-5.641 1.525-8.886 7.478-7.04 13.022 22.178 66.613-50.356 77.524-50.356 77.524v49.585l14.035 27.851c2.667 5.293-1.18 11.54-7.107 11.54h21.873c5.927 0 9.773-6.247 7.106-11.54l-14.037-27.85v-35.235s80.656-16.739 47.666-98.855c-1.927-4.796-7.151-7.39-12.14-6.042z"/></g><path d="m444.231 41.036c-42.89-22.642-116.764-22.642-159.654 0-26.726 14.109-67.769 79.422-67.769 109.788 0 85.357 119.316 181.167 147.596 181.167 28.279 0 147.596-95.811 147.596-181.167 0-30.367-41.043-95.679-67.769-109.788z" fill="#be694e"/><g fill="#ecb880"><path d="m490.711 120.589c-1.603 1.764-4.482 1.299-5.467-.871-4.795-10.565-11.833-23.437-22.026-39.302-1.866-2.907-3.975-5.602-6.292-8.062-1.778-1.888-.892-5.004 1.643-5.552 17.143-3.705 39.042-3.924 47.859 10.652 7.851 12.977-4.684 30.997-15.717 43.135z"/><path d="m270.239 66.799c2.534.549 3.42 3.664 1.642 5.552-2.318 2.461-4.427 5.156-6.294 8.064-10.193 15.864-17.23 28.735-22.026 39.3-.985 2.171-3.865 2.634-5.467.87-11.024-12.137-23.557-30.155-15.717-43.133 8.817-14.576 30.718-14.365 47.862-10.653z"/></g><path d="m416.807 85.12h-104.806c-8.549 0-16.508 4.342-21.128 11.535-10.675 16.619-28.487 46.838-26.656 60.834 3.606 27.563 71.908 84.809 71.908 84.809h56.559s68.302-57.246 71.908-84.809c1.831-13.996-15.981-44.214-26.656-60.834-4.621-7.194-12.58-11.535-21.129-11.535z" fill="#ffe3cc"/><path d="m434.593 208.995c-1.424-15.401-32.599-34.754-47.114-40.094-10.828-3.984-35.322-3.984-46.151 0-14.515 5.34-45.69 24.694-47.114 40.094-1.621 17.531 26.064 52.368 42.236 59.328 14.81 6.374 41.097 6.374 55.907 0 16.172-6.959 43.857-41.797 42.236-59.328z" fill="#f0c99d"/><path d="m163.308 97.292c-1.196-2.124-3.255-3.599-5.649-4.047-15.944-2.989-32.347 3.597-41.789 16.777s-10.4 30.83-2.44 44.964c1.196 2.124 3.255 3.599 5.649 4.047 2.553.478 5.116.711 7.662.711 13.355 0 26.197-6.418 34.127-17.488 9.441-13.18 10.399-30.83 2.44-44.964z" fill="#be694e"/><path d="m364.404 235.494c-4.246 0-7.688-3.442-7.688-7.688v-29.943c0-4.246 3.442-7.688 7.688-7.688s7.688 3.442 7.688 7.688v29.943c0 4.246-3.442 7.688-7.688 7.688z" fill="#dc805a"/><g fill="#be694e"><path d="m308.067 139.679c-4.246 0-7.688-3.442-7.688-7.688v-4.829c0-4.246 3.442-7.688 7.688-7.688s7.688 3.442 7.688 7.688v4.829c0 4.246-3.442 7.688-7.688 7.688z"/><path d="m420.74 139.679c-4.246 0-7.688-3.442-7.688-7.688v-4.829c0-4.246 3.442-7.688 7.688-7.688s7.688 3.442 7.688 7.688v4.829c0 4.246-3.442 7.688-7.688 7.688z"/></g><path d="m396.677 164.918c-4.276-9.082-19.475-12.318-32.273-12.318s-27.997 3.236-32.274 12.318c-1.543 3.278-2.273 8.937 3.018 17.276 6.372 10.043 19.648 20.795 29.256 20.795s22.884-10.752 29.256-20.795c5.29-8.34 4.561-13.998 3.017-17.276z" fill="#ac583e"/><path d="m364.404 235.479c-10.952 0-21.904-1.218-32.779-3.655-4.143-.928-6.749-5.039-5.821-9.182s5.041-6.749 9.182-5.821c19.52 4.373 39.315 4.373 58.835 0 4.143-.929 8.254 1.677 9.182 5.821.928 4.143-1.678 8.254-5.821 9.182-10.874 2.437-21.827 3.655-32.778 3.655z" fill="#dc805a"/></g></svg>