<svg id="Capa_1" enable-background="new 0 0 512 512" height="512" viewBox="0 0 512 512" width="512" xmlns="http://www.w3.org/2000/svg"><g><path d="m423.245 77.946 25.026 24.416s50.472 16.564 53.872-14.176c3.842-34.731-58.849-33.492-78.898-10.24z" fill="#aa7f7f"/><path d="m311.001 77.946-25.026 24.416s-50.472 16.564-53.872-14.176c-3.842-34.731 58.849-33.492 78.898-10.24z" fill="#aa7f7f"/><path d="m361.948 146.578v248.619l-215.484 60h-19.398c-35.086 0-66.858-14.223-89.845-37.22-22.998-22.987-37.221-54.758-37.221-89.845 0-100.266 81.288-181.554 181.554-181.554z" fill="#b58e85"/><path d="m37.22 396.377c-20.807-20.798-34.43-48.788-36.836-79.917-.245 3.86-.384 7.75-.384 11.672 0 35.086 14.223 66.858 37.22 89.845 22.987 22.997 54.758 37.22 89.845 37.22h234.883v-21.6h-234.883c-35.086.001-66.858-14.222-89.845-37.22z" fill="#9d6c6c"/><path d="m231.93 351.938v103.26h-27.006v-94.651c0-45.601-36.972-82.573-82.573-82.573-3.791 0-7.521.259-11.177.756 11.426-5.977 24.406-9.365 38.194-9.365 45.601 0 82.562 36.972 82.562 82.573z" fill="#9d6c6c"/><path d="m472.845 128.445c-6.439-48.847-51.314-71.642-105.722-71.642-54.456 0-99.362 22.294-105.738 71.653-24.27 15.877-39.139 39.545-39.139 71.95 0 57.165 64.864 103.507 144.877 103.507s144.877-46.342 144.877-103.507c0-32.412-14.875-56.084-39.155-71.961z" fill="#c2a19a"/><path d="m472.845 128.445c-6.439-48.847-51.314-71.642-105.722-71.642-4.698 0-9.318.178-13.855.513 48.087 3.579 86.143 26.449 92.033 71.13 24.28 15.877 39.155 39.549 39.155 71.961 0 53.846-57.553 98.083-131.105 103.039 4.534.306 9.126.468 13.772.468 80.013 0 144.877-46.342 144.877-103.507 0-32.413-14.875-56.085-39.155-71.962z" fill="#b79090"/><path d="m328.83 213.21 18.529 52.513c1.312 3.719 4.827 6.206 8.771 6.206h21.988c3.944 0 7.459-2.487 8.771-6.206l18.529-52.513z" fill="#faf8f8"/><path d="m399.307 162.198h-63.582c-22.35 0-41.066 18.291-40.639 40.637.414 21.655 18.098 39.082 39.852 39.082 11.018 0 20.988-4.474 28.201-11.701 2.213-2.217 5.745-2.228 7.957-.01 7.787 7.808 18.791 12.406 30.858 11.626 19.727-1.275 35.753-17.223 37.114-36.945 1.608-23.295-16.811-42.689-39.761-42.689z" fill="#ffdcce"/><path d="m301.297 395.322c-4.268 0-7.726-3.459-7.726-7.726v-53.817c0-4.267 3.459-7.726 7.726-7.726s7.726 3.459 7.726 7.726v53.817c0 4.267-3.459 7.726-7.726 7.726z" fill="#9d6c6c"/><path d="m146.463 455.197h285.502c34.987 0 61.003-32.358 53.488-66.529-6.273-28.524-33.826-47.107-62.622-42.236l-256.983 43.473c-22.393 3.788-38.782 23.183-38.782 45.894-.001 10.713 8.684 19.398 19.397 19.398z" fill="#a29aa5"/><path d="m431.965 433.598h-304.847c-.034.73-.053 1.464-.053 2.201 0 10.714 8.685 19.398 19.398 19.398h285.502c34.627 0 60.444-31.697 53.688-65.475-4.99 24.549-26.652 43.876-53.688 43.876z" fill="#8c818f"/><path d="m315.004 128.866c-4.143 0-7.5-3.358-7.5-7.5v-4.88c0-4.142 3.357-7.5 7.5-7.5s7.5 3.358 7.5 7.5v4.88c0 4.142-3.358 7.5-7.5 7.5z" fill="#664646"/><path d="m419.241 128.866c-4.143 0-7.5-3.358-7.5-7.5v-4.88c0-4.142 3.357-7.5 7.5-7.5s7.5 3.358 7.5 7.5v4.88c0 4.142-3.357 7.5-7.5 7.5z" fill="#664646"/><ellipse cx="367.123" cy="168.143" fill="#9d6c6c" rx="36.296" ry="26.713"/><path d="m476.01 367.887c-14.991 5.009-29.282 11.457-42.585 19.189-11.845-12.85-25.076-24.829-39.525-35.75l-21.474 3.633c17.691 12.031 33.695 25.634 47.692 40.499-23.033 15.673-42.488 35.333-56.724 57.771-9.921-19.391-23.705-38.919-39.732-56.702 13.526-15.791 28.738-29.64 45.127-40.953l-31.817 5.382c-8.431 7.488-16.454 15.623-23.99 24.317-5.997-6.004-12.235-11.728-18.633-17.107l-20.451 3.46c10.167 7.653 20.021 16.31 29.255 25.648-13.483 17.46-25.085 36.79-34.279 57.362-.083.185-.15.373-.217.561h16.993c7.871-16.546 17.373-32.17 28.209-46.486 13.024 14.7 24.388 30.587 33.095 46.486h33.707c13.004-18.574 29.989-34.902 49.797-48.094 10.873 12.994 20.289 26.806 28.064 41.245 4.599-2.557 8.773-5.753 12.419-9.455-7.681-13.934-16.77-27.305-27.166-39.94 12.405-6.972 25.7-12.78 39.643-17.25-1.821-5.026-4.334-9.66-7.408-13.816z" fill="#8c818f"/><path d="m211.299 407.785c8.095-11.478 16.287-21.338 22.967-27.48.72-.662 1.278-1.433 1.688-2.26l-24.523 4.148c-4.415 5.297-9.02 11.35-13.573 17.86-8.016-4.252-16.363-8.046-24.93-11.346l-7.082 1.198c-6.397 1.082-12.301 3.442-17.476 6.785.384.182.782.343 1.204.463 13.655 3.886 27.044 9.317 39.645 15.92-8.67 13.78-16.526 28.587-21.716 42.124h16.678c4.784-11.158 11.342-23.167 18.471-34.457 15.948 9.895 30.13 21.664 41.309 34.457h19.797c-13.18-18-31.35-34.269-52.459-47.412z" fill="#8c818f"/><g fill="#766d78"><path d="m470.937 438.881c-2.698-4.893-5.579-9.712-8.619-14.459-4.279 2.862-8.993 5.142-14.047 6.712 3.675 5.629 7.106 11.367 10.255 17.215 4.724-2.629 8.792-5.785 12.411-9.468z"/><path d="m377.767 433.598c-5.239 6.267-10.049 12.819-14.371 19.632-3.353-6.553-7.156-13.12-11.328-19.632h-18.57c4.973 7.124 9.494 14.36 13.458 21.6h33.707c5.32-7.599 11.317-14.814 17.89-21.6z"/><path d="m177.389 433.598c-3.831 7.327-7.213 14.632-9.885 21.6h16.678c2.999-6.994 6.696-14.323 10.792-21.6z"/><path d="m244.711 433.598h-23.684c8.535 6.718 16.272 13.975 22.936 21.6h19.797c-5.522-7.541-11.928-14.771-19.049-21.6z"/><path d="m279.373 433.598c-3.771 6.848-7.289 13.862-10.496 21.039-.083.185-.15.373-.217.561h16.993c3.52-7.4 7.384-14.603 11.53-21.6z"/></g></g></svg>