<svg id="Capa_1" enable-background="new 0 0 512 512" height="512" viewBox="0 0 512 512" width="512" xmlns="http://www.w3.org/2000/svg"><g><path d="m25.609 231.885c-1.104 0-2.224-.241-3.285-.749-10.536-5.045-17.984-14.75-20.969-27.328-3.286-13.843-.481-29.163 7.147-39.031 18.592-24.061 49.545-26.807 76.856-29.229 8.242-.731 16.028-1.422 22.872-2.664 37.502-6.805 44.255-27.003 45.417-35.371 1.468-10.56-2.945-20.909-10.491-24.607-3.778-1.851-5.34-6.414-3.489-10.192 1.852-3.777 6.415-5.341 10.192-3.488 13.5 6.614 21.263 23.221 18.878 40.383-3.371 24.268-24.974 42.31-57.787 48.264-7.527 1.366-15.648 2.086-24.246 2.848-25.383 2.252-51.629 4.58-66.148 23.371-4.849 6.274-6.608 16.801-4.378 26.197 1.101 4.64 4.219 13.032 12.726 17.106 3.795 1.817 5.397 6.366 3.58 10.16-1.309 2.733-4.035 4.33-6.875 4.33z" fill="#df6937"/><path d="m335.306 178.207h-244.566c-44.093 0-79.042 37.202-76.292 81.209.598 9.568 4.302 18.693 10.609 25.912 7.139 8.17 16.115 19.918 19.025 30.151 4.444 15.633-3.426 45.963-9.433 59.035-1.449 3.154-1.717 6.717-.658 10.022 6.365 19.866 15.809 46.883 20.604 60.47 1.81 5.129 6.654 8.549 12.093 8.549h59.885c6.447 0 11.673-5.226 11.673-11.673v-1.504c0-3.932-1.98-7.6-5.266-9.758l-27.948-18.35 15.238-40.236s30.784-11.692 43.772-40.02c91.53 36.932 247.171 57.167 261.658-93.658z" fill="#e69642"/><path d="m142.828 247.558c-7.094.655-11.194 8.328-7.846 14.617 37.955 71.296-19.461 90.234-29.854 93.014-.995.266-1.796.991-2.161 1.955l-19.969 52.729c-.53 1.4-.017 2.981 1.235 3.803l25.805 16.943c3.287 2.158 5.267 5.826 5.267 9.758v1.504c0 6.447-5.226 11.673-11.673 11.673h22.943c6.447 0 11.673-5.226 11.673-11.673v-1.504c0-3.932-1.98-7.6-5.266-9.758l-27.948-18.35 15.238-40.236s85.121-32.296 32.006-119.693c-1.986-3.265-5.646-5.133-9.45-4.782z" fill="#df6937"/><path d="m324.487 355.459c-52.317 9.449-114.466-4.888-160.445-23.446 2.397-5.209 4.184-10.986 5.058-17.357 42.698 15.617 96.283 26.697 142.964 19.9z" fill="#df6937"/><path d="m442.77 428.114-24.282-18.082c-2.379-1.772-4.346-4.038-5.766-6.642l-51.732-94.904-56.417 13.463 74.989 126.182c1.998 3.362 5.62 5.423 9.531 5.423h45.245c6.188 0 11.654-4.03 13.485-9.94 1.77-5.716-.255-11.927-5.053-15.5z" fill="#e69642"/><path d="m442.431 427.861-23.943-17.83c-2.379-1.772-4.346-4.038-5.766-6.642l-37.099-68.06c26.572-18.327 45.469-48.993 50.078-96.975l-90.394-60.147h-23.821l90.394 60.147c-4.455 46.379-22.259 71.602-47.439 89.787-1.513 1.093-1.998 3.129-1.156 4.795l35.617 70.454c1.42 2.604 3.387 4.87 5.766 6.642l23.943 17.83c4.478 3.335 6.867 8.939 5.738 14.407-1.37 6.636-7.185 11.286-13.832 11.286h23.821c6.647 0 12.462-4.65 13.832-11.286 1.128-5.469-1.261-11.073-5.739-14.408z" fill="#df6937"/><g fill="#e27c48"><path d="m250.703 64.531c-3.037 0-5.499 2.462-5.499 5.498v5.714c0 6.346 2.727 12.372 7.468 16.591 11.823 10.52 37.031 26.148 70.917 9.671l18.978-37.473h-91.864z"/><path d="m502.455 64.531c3.037 0 5.499 2.462 5.499 5.498v5.714c0 6.346-2.727 12.372-7.468 16.591-11.823 10.52-37.031 26.148-70.917 9.671l-18.979-37.474z"/></g><path d="m456.76 80.08c-3.362-9.334-12.208-15.549-22.12-15.549h-116.126c-9.912 0-18.758 6.216-22.12 15.549l-33.797 93.82 90.001 63.784h47.968l89.995-63.785z" fill="#e9a761"/><path d="m400.561 268.154 54.416-12.282 19.945 12.594c3.079 1.944 7.13-.011 7.523-3.631l2.852-26.272c.233-2.146 2.28-3.612 4.386-3.143l16.314 3.637c3.788.845 7.018-2.822 5.703-6.474l-21.14-58.684-73.288 39.665h-81.39l-73.285-39.664-21.141 58.684c-1.315 3.651 1.915 7.318 5.703 6.474l16.314-3.636c2.107-.47 4.154.997 4.386 3.143l2.852 26.272c.393 3.62 4.444 5.576 7.523 3.631l19.945-12.594 54.416 12.282h47.966z" fill="#fbf0dc"/><path d="m401.444 274.953c-10.442 6.748-39.289 6.748-49.731 0-13.953-9.017-27.301-57.539-27.301-57.539h104.333s-13.348 48.522-27.301 57.539z" fill="#f0c99d"/><path d="m408.244 183.848c-13.473 0-49.858 0-63.331 0-20.331 0-36.812 13.304-36.812 29.716 0 16.411 16.481 29.716 36.812 29.716 11.66 0 22.049-4.378 28.792-11.207 1.576-1.596 4.171-1.596 5.747 0 6.744 6.829 17.133 11.207 28.792 11.207 20.33 0 36.812-13.304 36.812-29.716s-16.481-29.716-36.812-29.716z" fill="#e69642"/><path d="m306.835 166.946c-1.381 2.549-4.001 3.991-6.713 3.991-1.219 0-2.468-.295-3.616-.914l-27.208-14.726 5.22-14.493 29.24 15.823c3.696 2.001 5.077 6.622 3.077 10.319z" fill="#664646"/><path d="m483.857 155.297-27.208 14.726c-1.158.62-2.397.914-3.616.914-2.712 0-5.332-1.442-6.713-3.991-2.001-3.697-.62-8.318 3.077-10.319l29.24-15.833z" fill="#664646"/><path d="m409.99 175.849c-5.674-9.574-27.009-10.318-33.412-10.318-6.404 0-27.739.744-33.413 10.318-1.47 2.481-2.522 6.666.811 12.516 5.345 9.38 21.438 20.838 32.601 20.838s27.257-11.458 32.602-20.838c3.333-5.851 2.281-10.036.811-12.516z" fill="#934c35"/><g fill="#523939"><path d="m315.872 144.635c-4.207 0-7.617-3.41-7.617-7.617v-4.811c0-4.207 3.41-7.617 7.617-7.617s7.617 3.41 7.617 7.617v4.811c0 4.207-3.409 7.617-7.617 7.617z"/><path d="m437.282 144.635c-4.207 0-7.617-3.41-7.617-7.617v-4.811c0-4.207 3.41-7.617 7.617-7.617s7.617 3.41 7.617 7.617v4.811c0 4.207-3.41 7.617-7.617 7.617z"/></g><g fill="#664646"><path d="m384.194 64.531v38.533c0 4.215-3.412 7.617-7.617 7.617s-7.617-3.402-7.617-7.617v-38.533z"/><path d="m397.938 97.78h-42.722c-4.207 0-7.617-3.41-7.617-7.617s3.41-7.617 7.617-7.617h42.722c4.207 0 7.617 3.41 7.617 7.617s-3.41 7.617-7.617 7.617z"/><path d="m195.086 178.207c-1.723 16.755 2.251 36.583 11.86 58.995 1.983 4.624 4.098 9.262 6.145 13.747 7.348 16.106 14.289 31.319 16.449 47.693.506 3.832 3.779 6.622 7.542 6.622.332 0 .668-.022 1.006-.066 4.172-.55 7.106-4.377 6.556-8.548-2.458-18.632-10.203-35.608-17.693-52.024-2.011-4.407-4.09-8.964-6.003-13.427-8.897-20.75-12.443-38.579-10.542-52.992z"/><path d="m401.789 309.435c-11.859-2.04-27.423-7.093-38.031-12.364-3.769-1.874-8.34-.336-10.212 3.432-1.872 3.767-.335 8.339 3.432 10.211 9.547 4.744 22.216 9.189 33.737 11.964 3.964-4.017 7.669-8.422 11.074-13.243z"/></g><path d="m379.627 303.569c-3.269 4.468-6.834 8.556-10.659 12.342 7.01 2.679 14.602 5.045 21.747 6.767 3.15-3.191 5.947-6.417 8.674-9.987.814-1.065 1.617-2.146 2.4-3.255-6.723-1.157-14.635-3.283-22.162-5.867z" fill="#523939"/><path d="m172.11 226.947c3.302-2.606 3.866-7.396 1.261-10.698-7.795-9.878-11.858-24.428-10.645-38.041h-15.268c-1.194 17.173 3.951 34.802 13.954 47.478 1.504 1.905 3.733 2.899 5.985 2.899 1.651 0 3.315-.536 4.713-1.638z" fill="#664646"/><path d="m82.387 345.524c2.792 0 5.481-1.541 6.816-4.207 1.884-3.761.363-8.338-3.398-10.222-12.917-6.472-38.9-23.623-52.024-34.868 7.08 9.786 11.087 17.498 11.543 27.749 12.244 8.468 25.36 16.583 33.657 20.74 1.095.548 2.259.808 3.406.808z" fill="#664646"/><path d="m40.558 196.984c2.485 19.233 12.095 39.695 21.323 53.809 3.922 5.992 8.146 11.88 12.231 17.574 10.873 15.156 21.145 29.472 26.528 46.037 1.046 3.218 4.032 5.265 7.242 5.265.781 0 1.574-.121 2.357-.375 4.001-1.3 6.19-5.598 4.89-9.598-6.115-18.814-17.565-34.774-28.639-50.209-3.992-5.563-8.119-11.316-11.859-17.032-9.216-14.094-19.789-37.019-19.444-55.474-5.27 2.773-10.182 6.128-14.629 10.003z" fill="#664646"/><path d="m70.819 384.339c1.245-4.018-1.004-8.285-5.022-9.53-7.674-2.378-19.044-9.366-25.273-17.114-1.743 6.323-3.729 11.991-5.569 16.129 7.568 6.817 17.504 12.802 26.333 15.537.751.233 1.51.343 2.256.343 3.253 0 6.263-2.097 7.275-5.365z" fill="#664646"/></g></svg>