<svg id="Capa_1" enable-background="new 0 0 512 512" height="512" viewBox="0 0 512 512" width="512" xmlns="http://www.w3.org/2000/svg"><g><path d="m57.952 444.726c-.467 0-.94-.043-1.415-.132-32.76-6.122-56.537-34.794-56.537-68.175v-24.97c0-10.605 2.487-21.245 7.193-30.77l56.507-114.167c4.856-9.805 4.31-21.207-1.46-30.504-5.773-9.302-15.756-14.856-26.704-14.856h-27.88c-4.228 0-7.656-3.428-7.656-7.656s3.428-7.656 7.656-7.656h27.879c16.282 0 31.128 8.259 39.714 22.093 8.582 13.829 9.394 30.791 2.172 45.373l-56.503 114.16c-3.667 7.422-5.606 15.717-5.606 23.982v24.97c0 26.013 18.52 48.354 44.037 53.122 4.156.777 6.896 4.776 6.12 8.933-.688 3.683-3.904 6.253-7.517 6.253z" fill="#9d6c6c"/><path d="m430.817 387.465h-26.639l-44.282-142.188-74.961 23.925 87.332 159.548h78.071c4.436 0 8.037-3.6 8.037-8.047v-5.691c-.001-15.216-12.342-27.547-27.558-27.547z" fill="#8c5e5e"/><path d="m392.615 184.604v102.743c0 12.145-3.489 23.475-9.519 33.043l-15.598 7.782-18.249 18.369c-5.899 1.861-12.179 2.865-18.694 2.865h-64.588l-66.271 102.667c-15.03 23.284-40.849 37.349-68.563 37.349-45.07 0-81.606-36.536-81.606-81.606 0-119.921 95.837-217.856 215.729-220.454z" fill="#b79090"/><path d="m368.866 185.119v90.998c0 34.275-27.785 62.06-62.059 62.06h-64.588l-66.271 102.667c-15.03 23.284-40.849 37.349-68.563 37.349-7.824 0-15.38-1.124-22.543-3.179 13.155 9.08 29.098 14.41 46.293 14.41 27.714 0 53.533-14.065 68.563-37.349l66.271-102.667h64.588c34.275 0 62.059-27.785 62.059-62.059v-102.745z" fill="#9d6c6c"/><path d="m277.486 200.962h-11.726c-29.705 0-53.786-24.081-53.786-53.786s24.081-53.786 53.786-53.786h11.726c28.132 0 50.937 22.805 50.937 50.937v5.699c0 28.131-22.805 50.936-50.937 50.936z" fill="#fde2db"/><path d="m446.488 200.962h11.726c29.705 0 53.786-24.081 53.786-53.786s-24.081-53.786-53.786-53.786h-11.726c-28.132 0-50.937 22.805-50.937 50.937v5.699c0 28.131 22.805 50.936 50.937 50.936z" fill="#fde2db"/><path d="m473.205 91.691c0-38.171-30.943-69.114-69.114-69.114h-84.208c-38.171 0-69.114 30.943-69.114 69.114v20.219c0 19.701 6.888 37.792 18.385 52.001 1.875 2.317 2.194 5.529.904 8.216-4.11 8.559-6.421 18.144-6.421 28.274 0 39.355 31.903 71.258 71.258 71.258h54.184c39.355 0 71.258-31.903 71.258-71.258 0-10.129-2.311-19.714-6.421-28.274-1.29-2.687-.971-5.899.904-8.216 11.497-14.209 18.385-32.3 18.385-52.001z" fill="#aa7f7f"/><path d="m409.171 164.542c6.864 3.111 12.677 8.118 16.767 14.35 4.1 6.231 6.486 13.697 6.486 21.713 0 21.866-17.725 39.581-39.581 39.581h-61.713c-10.923 0-20.826-4.426-27.985-11.596-7.17-7.16-11.596-17.052-11.596-27.985 0-16.032 9.546-29.842 23.253-36.063 2.06-.928 2.04-3.845 0-4.814-18.368-8.771-31.065-27.506-31.065-49.219v-25.058c0-7.761 6.293-14.044 14.044-14.044h5.871c7.604 0 15.092 2.396 21.012 7.167 8.068 6.503 21.777 10.782 37.328 10.782 15.543 0 29.25-4.28 37.318-10.782 5.92-4.772 13.408-7.167 21.011-7.167h5.872c7.756 0 14.044 6.288 14.044 14.044v25.058c0 21.713-12.697 40.448-31.065 49.219-2.04.969-2.061 3.886-.001 4.814z" fill="#fde2db"/><path d="m407.54 448.138h-26.65l-44.282-142.188-74.961 23.925 85.909 156.949c.877 1.603 2.559 2.599 4.386 2.599h75.108c4.436 0 8.037-3.6 8.037-8.047v-5.691c-.001-15.213-12.334-27.547-27.547-27.547z" fill="#b79090"/><path d="m258.267 448.138h-7.563c74.331-74.062 50.071-203.639-107.045-108.711v68.8l54.883 2.938v73.258c0 2.761 2.239 5 5 5h74.235c4.436 0 8.037-3.6 8.037-8.047v-5.691c0-15.213-12.333-27.547-27.547-27.547z" fill="#b79090"/><path d="m258.257 448.138h-7.553c59.131-58.917 55.867-152.962-27.037-141.173 56.844 9.836 53.252 89.182 1.072 141.173h7.553c15.217 0 27.557 12.33 27.557 27.547v5.691c0 4.447-3.6 8.047-8.037 8.047h25.965c4.436 0 8.037-3.6 8.037-8.047v-5.691c0-15.216-12.341-27.547-27.557-27.547z" fill="#9d6c6c"/><g fill="#aa7f7f"><path d="m327.249 134.808c-4.228 0-7.656-3.428-7.656-7.656v-6.61c0-4.228 3.428-7.656 7.656-7.656s7.656 3.428 7.656 7.656v6.61c0 4.228-3.428 7.656-7.656 7.656z"/><path d="m396.727 134.808c-4.228 0-7.656-3.428-7.656-7.656v-6.61c0-4.228 3.428-7.656 7.656-7.656s7.656 3.428 7.656 7.656v6.61c.001 4.228-3.427 7.656-7.656 7.656z"/><path d="m361.988 206.587c-4.228 0-7.656-3.428-7.656-7.656v-48.141c0-4.228 3.428-7.656 7.656-7.656s7.656 3.428 7.656 7.656v48.141c.001 4.228-3.427 7.656-7.656 7.656z"/><path d="m346.968 212.519c-9.71 0-22.113-3.368-27.555-11.019-2.451-3.446-1.645-8.226 1.8-10.677 3.446-2.451 8.226-1.645 10.677 1.8 1.394 1.959 8.389 4.791 15.795 4.573 4.741-.134 7.277-1.476 7.824-2.345 1.402-2.226 3.848-3.577 6.479-3.577s5.077 1.351 6.479 3.577c.547.869 3.082 2.212 7.824 2.345 7.388.213 14.403-2.613 15.796-4.573 2.452-3.445 7.232-4.252 10.677-1.8 3.445 2.451 4.252 7.231 1.8 10.677-5.66 7.956-18.841 11.28-28.705 11.003-5.444-.154-10.153-1.341-13.871-3.442-3.718 2.102-8.427 3.289-13.872 3.442-.377.01-.762.016-1.148.016z"/></g></g></svg>