<svg id="Capa_1" enable-background="new 0 0 512 512" height="512" viewBox="0 0 512 512" width="512" xmlns="http://www.w3.org/2000/svg"><g><path d="m32.18 250.094c-1.48 0-2.974-.43-4.287-1.328-16.821-11.494-28.539-33.919-27.865-53.321.793-22.883 13.819-45.368 34.844-60.147 28-19.677 58.288-20.662 82.624-21.453 10.7-.348 20.806-.677 29.195-2.501 17.832-3.89 28.258-13.055 30.399-19.924 1.364-4.377.576-9.657-2.107-14.123-2.41-4.013-6.009-6.733-9.871-7.463-4.131-.781-6.846-4.762-6.065-8.893.78-4.131 4.771-6.844 8.892-6.065 8.126 1.536 15.449 6.851 20.094 14.582 4.884 8.129 6.226 18.032 3.591 26.49-5.224 16.77-25.725 26.788-41.692 30.27-9.747 2.12-20.527 2.471-31.94 2.842-23.475.763-50.084 1.629-74.366 18.692-16.888 11.871-27.763 30.348-28.384 48.221-.498 14.317 8.633 31.609 21.24 40.224 3.471 2.372 4.362 7.108 1.99 10.579-1.475 2.158-3.863 3.318-6.292 3.318z" fill="#655e67"/><path d="m420.449 457.257h-53.275c-3.089 0-6.095-1.001-8.567-2.853l-33.883-25.378s-14.45-33.472-24.939-74.297h-25.459c-39.685 0-74.563-35.174-117.579-46.651-2.291 29.787-15.451 62.251-59.678 81.528 6.273 22.312 8.758 30.264 8.758 30.264s31.861-1.54 34.948 33.022c.209 2.341-1.639 4.365-3.99 4.365h-60.854c-4.328 0-8.422-1.957-11.141-5.328-10.026-12.488-33.119-45.217-31.313-80.126.062-1.2.595-2.321 1.426-3.189 14.389-15.053 20.011-34.664 9.855-50.537-10.457-16.355-42.758-71.253 10.98-118.107 55.276-48.199 219.037 28.819 266.533-20.153l75.134 107.68-.001 31.655c0 3.25-1.266 6.372-3.53 8.703l-31.45 32.392s2.443 51.783 24.47 62.15c0 0 32.926-1.931 37.523 30.321.342 2.397-1.547 4.539-3.968 4.539z" fill="#766d78"/><g fill="#655e67"><path d="m294.592 332.031c1.528 7.704 3.292 15.318 5.194 22.698h-25.459c-39.685 0-74.563-35.174-117.579-46.651.601-7.913.448-15.632-.112-22.862 40.683 13.473 74.849 43.932 113.343 43.932h21.117c1.706 0 3.164 1.21 3.496 2.883z"/><path d="m386.894 422.398c-22.027-10.367-24.47-62.15-24.47-62.15l31.45-32.392c2.264-2.332 3.53-5.453 3.53-8.703l.001-31.655-25.91-37.133v68.903c0 3.176-1.237 6.226-3.449 8.504l-27.736 28.568c-2.467 2.541-3.706 6.023-3.405 9.551 1.267 14.812 6.277 54.238 24.08 62.618 0 0 37.964-.635 37.964 28.748h21.499c2.421 0 4.31-2.142 3.969-4.538-4.597-32.252-37.523-30.321-37.523-30.321z"/><path d="m271.056 104.289c17.736-35.471 53.84-19.002 57.641 7.601l-13.935 27.87c-22.803 16.469-61.441 0-43.706-35.471z"/><path d="m507.48 104.289c-17.736-35.471-53.84-19.002-57.641 7.601l13.935 27.87c22.804 16.469 61.442 0 43.706-35.471z"/></g><path d="m393.502 302.063h-8.467c-18.443 0-33.394-14.951-33.394-33.394v-33.057h75.254v33.057c0 18.443-14.951 33.394-33.393 33.394z" fill="#a29aa5"/><path d="m389.268 95.195c-27.117 0-93.75 2.655-93.75 45.142s46.751 43.454 46.751 84.309h93.998c0-40.856 46.751-41.823 46.751-84.309 0-42.487-66.633-45.142-93.75-45.142z" fill="#8c818f"/><path d="m415.302 199.952h-51.431c-18.079 0-33.218 14.795-32.873 32.871.335 17.516 14.639 31.613 32.236 31.613 8.912 0 16.977-3.619 22.812-9.465 1.79-1.793 4.647-1.802 6.436-.008 6.299 6.316 15.2 10.035 24.961 9.404 15.957-1.031 28.921-13.932 30.022-29.884 1.3-18.842-13.599-34.531-32.163-34.531z" fill="#b1abb4"/><path d="m105.829 419.87s-2.481-7.946-8.758-30.264c62.922-27.412 62.96-81.535 58.274-116.639-.793-5.943-6.169-10.375-12.116-9.618-5.988.763-10.135 6.203-9.386 12.094 4.19 32.997 2.703 78.352-54.783 105.293-2.205 1.034-3.354 3.504-2.709 5.853 5.669 20.658 9.59 38.68 9.59 38.68s33.02 4.055 33.207 31.988l17.64-.001c2.35 0 4.199-2.024 3.989-4.365-3.092-34.564-34.948-33.021-34.948-33.021z" fill="#655e67"/><path d="m334.169 162.204c-4.204 0-7.612-3.408-7.612-7.612v-4.824c0-4.204 3.407-7.612 7.612-7.612 4.204 0 7.612 3.408 7.612 7.612v4.824c0 4.204-3.407 7.612-7.612 7.612z" fill="#544f56"/><path d="m444.368 162.204c-4.204 0-7.612-3.408-7.612-7.612v-4.824c0-4.204 3.407-7.612 7.612-7.612s7.612 3.408 7.612 7.612v4.824c-.001 4.204-3.408 7.612-7.612 7.612z" fill="#544f56"/><path d="m437.713 197.564-3.11-5.94c-2.482-4.739-7.347-7.683-12.696-7.683h-65.277c-5.35 0-10.215 2.944-12.697 7.683l-3.11 5.941c-1.828 3.491-2.144 7.471-.89 11.207 1.254 3.735 3.907 6.719 7.469 8.4l33.614 15.866c2.622 1.238 5.437 1.857 8.253 1.857 2.814 0 5.629-.619 8.252-1.857l33.614-15.866c3.563-1.682 6.215-4.666 7.469-8.401 1.252-3.736.936-7.716-.891-11.207z" fill="#655e67"/></g></svg>