<svg id="Capa_1" enable-background="new 0 0 512 512" height="512" viewBox="0 0 512 512" width="512" xmlns="http://www.w3.org/2000/svg"><g><path d="m32.223 279.588c-.941 0-1.897-.175-2.824-.547-18.17-7.268-29.215-26.989-29.395-41.857-.413-35.32 28.072-54.556 53.203-71.528 11.595-7.83 22.547-15.226 30.42-23.686 8.049-8.652 16.343-24.128 10.979-30.677-2.664-3.252-2.186-8.048 1.065-10.712 3.252-2.663 8.048-2.186 10.712 1.065 13.166 16.074-1.838 40.188-11.611 50.693-9.058 9.734-21.253 17.969-33.046 25.933-24.076 16.259-46.817 31.616-46.5 58.731.117 9.691 8.112 23.219 19.826 27.904 3.903 1.561 5.802 5.991 4.24 9.893-1.189 2.977-4.048 4.788-7.069 4.788z" fill="#a29aa5"/><path d="m110.92 93.154c-.226-5.996-2.454-11.987-5.961-16.026-3.518-4.052-11.92-10.33-19.544-14.603-11.909-6.676-20.097-7.838-25.029-3.556-4.933 4.283-4.93 12.552.007 25.28 3.161 8.148 8.197 17.348 11.715 21.4 3.507 4.04 9.125 7.087 15.03 8.152 1.583.285 3.132.427 4.633.427 4.934 0 9.345-1.525 12.722-4.457 4.403-3.824 6.686-9.725 6.427-16.617z" fill="#766d78"/><path d="m326.837 367.839c27.919-12.645 49.305-34.849 58.778-69.127l-41.312-130.073c-2.663-3.12-58.018-23.481-90.251-35.153-14.44-5.229-30.425-4.032-43.924 3.293l-158.265 85.886c-16.344 8.869-26.522 25.973-26.522 44.568v67.771l-13.153 21.931c-3.508 5.849-3.607 13.132-.259 19.074l40.522 71.926c2.651 4.706 7.634 7.618 13.036 7.618h27.757c3.87 0 6.422-4.03 4.767-7.529l-33.429-70.654c-1.346-2.846.443-6.186 3.56-6.622 11.495-1.609 35.96-6.897 51.757-23.684 48.765 24.137 107.628 38.073 158.028 33.17l3.868 22.721 58.977 49.131c2.689 2.24 6.077 3.466 9.577 3.466h23.85c4.497 0 6.932-5.267 4.018-8.691l-49.419-58.07z" fill="#8c818f"/><g fill="#766d78"><path d="m378.216 446.862c2.914 3.421.479 8.691-4.018 8.691h-22.753c4.497 0 6.934-5.27 4.02-8.691l-49.42-58.07-1.675-27.461c-.173-2.792 1.401-5.411 3.939-6.589 25.847-11.898 45.562-23.502 54.547-56.029l2.274-64.496 20.485 64.496c-9.482 34.273-30.86 56.488-58.778 69.127l1.96 20.952z"/><path d="m277.927 380.235c-50.405 4.903-109.258-9.039-158.028-33.17 5.259-5.584 9.552-12.434 12.09-20.85 44.517 19.868 95.957 31.563 141.733 29.319z"/><path d="m109.908 257.787-.013.006c-5.229 2.217-7.729 8.157-5.75 13.481 29.633 79.715-40.479 88.604-62.642 89.457-3.027.117-4.966 3.261-3.698 6.013l37.432 81.28c1.655 3.498-.896 7.529-4.767 7.529h22.774c3.87 0 6.422-4.03 4.767-7.529l-33.429-70.654c-1.35-2.853.453-6.187 3.579-6.625 22.274-3.12 93.093-20.042 55.568-107.429-2.29-5.329-8.48-7.793-13.821-5.529z"/></g><g><g fill="#766d78"><path d="m455.961 100.722-47.972 43.39 15.903 15.347s34.085 4.385 41.069-11.839c5.226-12.14.048-34.59-2.89-45.125-.748-2.678-4.047-3.639-6.11-1.773z"/><path d="m279.732 100.722 47.972 43.39-15.903 15.347s-34.085 4.385-41.069-11.839c-5.226-12.14-.048-34.59 2.89-45.125.749-2.678 4.047-3.639 6.11-1.773z"/></g><path d="m407.001 109.79c-1.663-2.433-5.062-2.899-7.318-1.003l-14.433 12.127c-1.006.845-2.538.527-3.123-.649l-9.821-19.71c-1.834-3.68-7.085-3.68-8.918 0l-9.821 19.71c-.586 1.176-2.118 1.494-3.123.649l-14.433-12.127c-2.256-1.896-5.655-1.43-7.318 1.003l-54.064 79.106c-4.92 7.199-5.746 16.437-2.182 24.395l20.962 46.803h148.878l20.962-46.803c3.564-7.958 2.738-17.196-2.182-24.395z" fill="#a29aa5"/><g fill="#f7f3f1"><path d="m489.174 202.989-3.494 21.166c-1.747 10.583-10.897 18.347-21.624 18.347h-54.832v38.906h57.15c25.199 0 45.626-20.427 45.626-45.626v-30.95c0-5.394-4.172-9.87-9.553-10.248l-2.417-.17c-5.289-.371-9.993 3.344-10.856 8.575z"/><path d="m246.52 202.989 3.494 21.166c1.747 10.583 10.897 18.347 21.624 18.347h54.832v38.906h-57.15c-25.199 0-45.626-20.427-45.626-45.626v-30.95c0-5.394 4.172-9.87 9.553-10.248l2.417-.17c5.289-.371 9.992 3.344 10.856 8.575z"/></g><path d="m397.782 208.329h-59.871c-3.934 0-7.728 1.459-10.649 4.094l-18.647 16.824c-2.241 2.022-3.52 4.898-3.52 7.916v63.575h125.503v-63.575c0-3.018-1.279-5.894-3.52-7.916l-18.647-16.824c-2.92-2.635-6.715-4.094-10.649-4.094z" fill="#a29aa5"/><path d="m383.681 253.207h-31.669c-6.538 0-12.705 3.037-16.69 8.22l-30.227 39.311 21.452 17.042c3.201 2.543 7.169 3.928 11.258 3.928h60.084c4.088 0 8.057-1.384 11.258-3.928l21.452-17.042-30.227-39.311c-3.986-5.183-10.153-8.22-16.691-8.22z" fill="#cdb1b1"/></g><g fill="#766d78"><path d="m315.188 196.989c-4.204 0-7.612-3.408-7.612-7.611v-6.62c0-4.204 3.408-7.611 7.612-7.611s7.611 3.408 7.611 7.611v6.62c0 4.203-3.408 7.611-7.611 7.611z"/><path d="m420.508 196.989c-4.204 0-7.612-3.408-7.612-7.611v-6.62c0-4.204 3.408-7.611 7.612-7.611s7.611 3.408 7.611 7.611v6.62c0 4.203-3.407 7.611-7.611 7.611z"/></g><g fill="#766d78"><path d="m351.206 298.718c-2.145 0-4.276-.901-5.782-2.658l-2.241-2.614c-2.736-3.192-2.366-7.997.825-10.733 3.191-2.735 7.997-2.366 10.733.825l2.241 2.614c2.736 3.192 2.366 7.997-.825 10.733-1.436 1.231-3.198 1.833-4.951 1.833z"/><path d="m384.49 298.718c-1.753 0-3.514-.602-4.95-1.832-3.192-2.736-3.561-7.541-.826-10.733l2.24-2.614c2.735-3.192 7.541-3.561 10.733-.826 3.192 2.736 3.561 7.541.826 10.733l-2.24 2.614c-1.505 1.756-3.638 2.658-5.783 2.658z"/></g></g></svg>