<svg id="Capa_1" enable-background="new 0 0 512 512" height="512" viewBox="0 0 512 512" width="512" xmlns="http://www.w3.org/2000/svg"><g><path d="m447.637 315.746c24.365 23.49 27.694 53.383 15.096 79.508l21.109-2.403c15.007-1.71 28.158 10.029 28.158 25.133 0 13.971-11.325 25.296-25.296 25.296h-59.991c-19.383 0-35.096-15.713-35.096-35.096v-65.62z" fill="#a29aa5"/><path d="m451.57 135.763-120.47-47.903c-53.922 57.611-82.278 86.235-116.968 172.583-25.787 64.188-171.959 97.916-132.949 11.044 6.217-.704 12.891-2.206 19.672-4.588 24.637-8.655 41.196-25.388 36.985-37.376s-27.597-14.689-52.234-6.034c-1.916.673-3.776 1.4-5.588 2.165-.537-1.892-1.133-3.799-1.806-5.714-8.655-24.637-25.388-41.196-37.376-36.985-11.987 4.211-14.689 27.597-6.035 52.234 1.892 5.386 4.179 10.368 6.709 14.849-104.48 123.647 6.014 170.662 135.265 170.662h242.457s64.525-195.871 32.338-284.937z" fill="#a29aa5"/><path d="m451.57 135.763-22.4-8.907c30.715 92.988 55.663 274.606-35.904 274.606-95.091 0-195.567 0-242.457 0-52.386 0-101.688-7.724-134.848-25.142 28.599 31.072 92.051 44.38 160.814 44.38h242.457s64.526-195.871 32.338-284.937z" fill="#8c818f"/><path d="m378.2 68.72c-47.951 0-86.823 30.308-86.823 78.259s38.872 86.823 86.823 86.823 86.823-38.872 86.823-86.823c.001-47.951-38.871-78.259-86.823-78.259z" fill="#b1abb4"/><g fill="#ffeee8"><path d="m444.307 248.091c0 24.056-8.509 86.378-19.006 86.378s-19.006-62.322-19.006-86.378 38.012-24.056 38.012 0z"/><path d="m350.106 248.091c0 24.056-8.509 86.378-19.006 86.378s-19.006-62.322-19.006-86.378 38.012-24.056 38.012 0z"/></g><path d="m413.105 168.661h-69.81c-24.05 0-43.546 19.496-43.546 43.546v27.007c0 9.496 7.698 17.194 17.194 17.194h37.108c3.938 0 7.634-1.949 9.808-5.233 2.883-4.354 8.221-7.279 14.342-7.279s11.459 2.925 14.342 7.279c2.174 3.283 5.87 5.233 9.808 5.233h37.107c9.496 0 17.194-7.698 17.194-17.194v-27.006c-.001-24.051-19.497-43.547-43.547-43.547z" fill="#c8c3ca"/><path d="m226.748 315.746c-24.365 23.49-27.694 53.383-15.096 79.508l-21.109-2.403c-15.007-1.709-28.158 10.03-28.158 25.134 0 13.971 11.325 25.296 25.296 25.296h59.991c19.383 0 35.096-15.713 35.096-35.096v-65.62z" fill="#a29aa5"/><g fill="#8c818f"><g><path d="m325.329 143.488c-4.267 0-7.726-3.459-7.726-7.726v-4.927c0-4.267 3.459-7.726 7.726-7.726s7.726 3.459 7.726 7.726v4.927c.001 4.267-3.458 7.726-7.726 7.726z"/><path d="m431.072 143.488c-4.267 0-7.726-3.459-7.726-7.726v-4.927c0-4.267 3.459-7.726 7.726-7.726s7.726 3.459 7.726 7.726v4.927c.001 4.267-3.458 7.726-7.726 7.726z"/></g><path d="m410.923 150.185c-13.456-12.615-51.987-12.615-65.443-.001-1.744 1.635-3.758 4.672-3.445 9.849.541 8.94 8.311 21.257 14.634 25.888 6.038 4.423 13.783 6.633 21.532 6.633 7.746-.001 15.495-2.211 21.531-6.633 6.323-4.631 14.093-16.949 14.634-25.888.314-5.177-1.699-8.213-3.443-9.848z"/></g></g></svg>