<svg id="Capa_1" enable-background="new 0 0 512 512" height="512" viewBox="0 0 512 512" width="512" xmlns="http://www.w3.org/2000/svg"><g><path d="m217.832 151.014c-29.863 3.737-64.05 4.167-107.769-.735-74.337-8.335-125.214 47.329-105.974 160.43.955 5.7 2.099 11.536 3.432 17.519l54.108 38.136s47.244 13.4 75.011-6.992c49.995 18.863 89.284 18.422 122.8 8.912l25.082-98.192c.001 0-27.307-124.002-66.69-119.078z" fill="#f7f3f1"/><path d="m352.766 328.228-3.611 75.282 22.074 30.083c3.579 4.891.094 11.788-5.973 11.788h-74.316c-6.802 0-12.743-4.598-14.443-11.179l-24.048-92.926c-2.845-10.979-7.726-21.329-14.275-30.587-19.293-27.249-57.931-95.099-20.342-159.675 39.383-4.923 71.272-15.598 107.653-27.365l99.791 135.595c-30.429 40.738-72.51 68.984-72.51 68.984z" fill="#8c818f"/><path d="m425.277 259.244-99.791-135.595c-5.226 1.69-10.354 3.354-15.43 4.985l98.304 107.622c-24.724 43.631-68.642 78.726-79.824 87.244-1.685 1.283-2.707 3.241-2.806 5.356l-3.336 71.185c-.075 1.61.395 3.199 1.334 4.509l20.624 28.766c3.579 5.006.094 12.064-5.973 12.064h26.879c6.067 0 9.552-6.896 5.973-11.788l-22.074-30.083 3.611-75.282c-.002.001 42.079-28.245 72.509-68.983z" fill="#766d78"/><path d="m259.441 368.283c-33.516 9.51-72.805 9.951-122.8-8.912 2.225-6.56 3.831-13.677 4.346-21.172 44.779 14.569 80.939 13.982 112.167 5.794z" fill="#ebe1dc"/><path d="m123.866 431.399c2.813 6.623-2.047 13.982-9.248 13.982h-68.448c-4.524 0-8.502-2.981-9.783-7.316-5.301-18.002-19.167-66.129-28.866-109.837-.013-.06-.027-.12-.04-.179-3.311-14.894.128-30.589 9.556-42.586 28.104-35.761 83.718-35.116 110.891 5.639 37.63 56.44-16.931 110.057-16.931 110.057z" fill="#8c818f"/><path d="m110.997 401.159s54.561-53.617 16.931-110.057c-16.876-25.311-44.72-35.139-70.133-30.396 17.349 3.215 33.835 13.237 45.276 30.396 33.548 50.317-7.011 96.721-16.207 106.198-1.063 1.096-1.361 2.718-.758 4.121l12.902 29.979c2.813 6.623-2.047 13.982-9.248 13.982h24.857c7.201 0 12.061-7.358 9.248-13.982z" fill="#766d78"/><g fill="#8c818f"><path d="m280.244 77.047c-21.655 19.204-27.008 39.929 20.405 51.269l37.896-32.899c-6.663-29.567-36.646-37.574-58.301-18.37z"/><path d="m479.492 77.047c21.655 19.204 27.008 39.929-20.405 51.269l-37.896-32.899c6.663-29.567 36.646-37.574 58.301-18.37z"/></g><path d="m486.961 155.121c-3.608-4.247-6.378-9.069-8.266-14.203-12.429-33.795-51.967-63.872-98.827-63.872s-86.398 30.077-98.827 63.872c-1.888 5.134-4.658 9.956-8.266 14.203-15.75 18.538-25.039 38.901-25.039 55.508 0 41.922 59.157 75.907 132.132 75.907s132.132-33.985 132.132-75.907c0-16.607-9.289-36.969-25.039-55.508z" fill="#f7f3f1"/><path d="m420.633 136.493c-22.27 0-33.699 35.724-19.565 57.949s56.343 9.234 59.304-5.613-11.089-52.336-39.739-52.336z" fill="#ffeee8"/><path d="m420.633 136.493c-22.27 0-33.699 35.724-19.565 57.949s56.343 9.234 59.304-5.613-11.089-52.336-39.739-52.336z" fill="#8c818f"/><path d="m339.103 136.493c22.27 0 33.699 35.724 19.565 57.949s-56.343 9.234-59.304-5.613c-2.962-14.847 11.089-52.336 39.739-52.336z" fill="#ffeee8"/><path d="m339.103 136.493c22.27 0 33.699 35.724 19.565 57.949s-56.343 9.234-59.304-5.613c-2.962-14.847 11.089-52.336 39.739-52.336z" fill="#8c818f"/><path d="m427.806 180.556c-4.143 0-7.5-3.358-7.5-7.5v-1.632c0-4.142 3.357-7.5 7.5-7.5s7.5 3.358 7.5 7.5v1.632c0 4.142-3.358 7.5-7.5 7.5z" fill="#544f56"/><path d="m331.931 180.556c-4.143 0-7.5-3.358-7.5-7.5v-1.632c0-4.142 3.357-7.5 7.5-7.5s7.5 3.358 7.5 7.5v1.632c0 4.142-3.358 7.5-7.5 7.5z" fill="#544f56"/><path d="m414.317 189.733c-5.837-9.851-27.842-10.617-34.447-10.617-6.61 0-28.613.767-34.451 10.617-1.506 2.541-2.583 6.831.84 12.837 5.396 9.471 22.304 21.487 33.61 21.487 11.307 0 28.213-12.016 33.61-21.487 3.42-6.006 2.344-10.295.838-12.837z" fill="#655e67"/><path d="m400.457 264.014c-7.489 0-14.737-2.541-20.556-7.175-5.801 4.649-12.962 7.175-20.516 7.175-15.546 0-29.094-11.041-32.213-26.251-.833-4.058 1.782-8.022 5.84-8.854 4.063-.833 8.021 1.783 8.854 5.84 1.695 8.266 9.063 14.265 17.52 14.265 4.787 0 9.283-1.864 12.66-5.25 2.104-2.105 4.887-3.263 7.838-3.267h.017c2.953 0 5.733 1.154 7.83 3.251 3.702 3.709 8.624 5.568 13.887 5.228 7.979-.513 14.687-6.367 16.31-14.236.837-4.057 4.806-6.667 8.86-5.83 4.057.836 6.667 4.803 5.831 8.86-2.984 14.466-15.337 25.23-30.04 26.175-.709.047-1.417.069-2.122.069z" fill="#766d78"/></g></svg>