<svg id="Capa_1" enable-background="new 0 0 512 512" height="512" viewBox="0 0 512 512" width="512" xmlns="http://www.w3.org/2000/svg"><g><path d="m437.932 188.928c-.671 0-1.351-.089-2.029-.274-4.083-1.118-6.487-5.334-5.368-9.417l43.914-160.355c1.117-4.083 5.324-6.489 9.417-5.368 4.082 1.118 6.486 5.334 5.367 9.417l-43.913 160.355c-.932 3.405-4.02 5.642-7.388 5.642z" fill="#766d78"/><path d="m378.69 188.928c-3.368 0-6.456-2.237-7.388-5.642l-43.916-160.356c-1.119-4.083 1.285-8.299 5.367-9.417 4.088-1.115 8.301 1.286 9.417 5.368l43.915 160.355c1.119 4.083-1.285 8.299-5.367 9.417-.677.186-1.359.275-2.028.275z" fill="#766d78"/><path d="m27.242 355.678c-.443 0-.891-.038-1.342-.118-4.169-.737-6.951-4.713-6.215-8.881l5.355-30.322c3.514-19.884 20.032-34.482 40.171-35.499.221-.011.444-.013.667-.005l12.742.465c4.231.155 7.535 3.709 7.38 7.939-.155 4.231-3.755 7.534-7.939 7.38l-12.389-.452c-12.816.789-23.292 10.139-25.536 22.839l-5.355 30.321c-.656 3.717-3.89 6.332-7.539 6.333z" fill="#dcd2cd"/><path d="m360.22 317.475c-12.946 30.16-42.387 56.343-52.284 64.576-2.102 1.748-3.316 4.333-3.316 7.067v72.5l13.674 25.435c2.848 5.295-.986 11.71-7.001 11.71h-44.557c-5.644 0-10.22-4.577-10.22-10.221v-38.553l10-22.918-10-25.833v-18.868c-36.858 2.632-71.761 23.871-113.646 5.931-15.453 26.381-35.829 36.179-35.829 36.179l7.074 36.254 17.452 25.608c3.588 5.274-.184 12.42-6.568 12.42h-37.309c-4.729 0-8.842-3.249-9.942-7.845l-9.786-40.929s4.157-42.337 6.26-48.75c1.469-4.478 1.867-9.953.1-16.505-36.282-40.949-13.354-90.647-.246-112.176 4.102-6.714 11.268-10.949 19.133-11.258l179.35-7.043c6.884-.27 13.618-2.095 19.697-5.336l66.668-35.551c.001 0 16.974 67.557 1.296 104.106z" fill="#f0e9e6"/><path d="m358.925 213.369-16.536 8.818c4.049 21.314 10.323 65.833-1.277 93.188-12.946 30.51-42.387 56.997-52.284 65.325-2.101 1.768-3.316 4.383-3.316 7.148v73.339l13.674 25.73c2.848 5.356-.987 11.846-7.002 11.846h19.108c6.014 0 9.849-6.415 7.001-11.71l-13.674-25.435v-72.5c0-2.734 1.215-5.319 3.316-7.067 9.897-8.232 39.337-34.416 52.284-64.576 15.679-36.549-1.294-104.106-1.294-104.106z" fill="#dcd2cd"/><path d="m256.515 360.377v21.993c-36.863 2.637-71.765 23.877-113.646 5.931 3.434-5.846 6.615-12.512 9.272-20.065 37.966 12.56 70.556-3.914 104.374-7.859z" fill="#dcd2cd"/><path d="m114.113 460.734-7.074-36.254s40.049-19.256 50.43-76.448c1.236-6.811-3.857-13.146-10.772-13.485-5.737-.281-10.772 3.722-11.864 9.36-9.37 48.398-39.58 68.436-49.134 73.661-1.729.946-2.649 2.892-2.275 4.827l7.137 36.908 17.943 26.568c3.696 5.474-.189 12.889-6.753 12.889h23.247c6.383 0 10.163-7.145 6.568-12.42z" fill="#dcd2cd"/><path d="m256.515 401.238h48.105v48.751h-48.105z" fill="#8c818f"/><path d="m285.512 401.238h19.108v48.751h-19.108z" fill="#766d78"/><path d="m107.039 424.48s13.556-6.522 26.94-23.242h-59.757c-2.104 6.412-6.404 10.783-9.697 13.343-2.56 1.994-3.774 5.273-3.013 8.429l6.45 26.978h44.052z" fill="#8c818f"/><path d="m107.039 424.48s.944-.456 2.57-1.425c7.804-4.665 16.649-12.172 24.37-21.817h-27.517c-8.552 8.984-16.61 14.06-20.763 16.331-1.729.946-2.649 2.892-2.275 4.827l5.336 27.592h23.255z" fill="#766d78"/><g fill="#ebe1dc"><path d="m509.473 159.479c-25.316-5.132-52.342 7.184-59.057 41.395l11.846 5.132c55.91 1.513 52.001-18.475 47.211-46.527z"/><path d="m307.144 159.479c25.316-5.132 52.342 7.184 59.057 41.395l-11.846 5.132c-55.91 1.513-52-18.475-47.211-46.527z"/></g><path d="m479.151 199.763s-21.222-21.208-21.453-21.426c-5.754-5.412-13.362 1.559-21.285 1.559h-56.208c-7.923 0-15.531-6.971-21.285-1.559-.231.218-.463.436-.688.661l-20.765 20.765c-8.385 8.385-10.958 20.966-6.537 31.969l17.196 42.801c.875 2.177 1.265 4.512 1.158 6.845-.019.417 3.376 5.444 3.325 5.86l-5.585 12.832-2.64 21.35c-1.9 15.366 3.024 30.793 13.474 42.217l14.651 16.018c2.867 3.135 6.92 4.92 11.169 4.92 8.62 0 18.637-6.399 22.26-14.22.936-2.019 3.806-2.019 4.741 0l.939 2.027c2.895 6.248 8.573 10.919 15.364 12.059 7.029 1.18 13.962-1.327 18.581-6.377l13.196-14.427c10.45-11.424 15.373-26.852 13.474-42.218l-4.796-38.793c-.339-2.744.023-5.529 1.054-8.095l17.196-42.801c4.422-11.002 1.85-23.582-6.536-31.967z" fill="#f7f3f1"/><g fill="#8c818f"><path d="m457.698 178.337c-5.754-5.411-13.363-8.441-21.285-8.441h-56.208c-7.923 0-15.531 3.029-21.285 8.441 8.581 12.97 27.463 23.704 49.39 23.704 21.925 0 40.807-10.734 49.388-23.704z"/><path d="m37.511 351.986c-1.54-4.227-5.117-7.219-9.57-8.006-4.453-.786-8.839.8-11.732 4.243-7.711 9.172-12.934 20.521-15.107 32.819-2.603 14.738-.56 29.853 5.755 42.561 1.226 2.464 3.485 4.152 6.202 4.631.512.09 1.023.135 1.529.135 2.18 0 4.264-.824 5.881-2.362 10.287-9.774 17.385-23.273 19.989-38.012 2.173-12.299 1.154-24.75-2.947-36.009z"/><path d="m366.519 243.609c-4.234 0-7.665-3.432-7.665-7.665v-3.787c0-4.233 3.431-7.665 7.665-7.665s7.665 3.432 7.665 7.665v3.787c-.001 4.234-3.432 7.665-7.665 7.665z"/><path d="m450.099 243.609c-4.234 0-7.665-3.432-7.665-7.665v-3.787c0-4.233 3.431-7.665 7.665-7.665s7.665 3.432 7.665 7.665v3.787c0 4.234-3.431 7.665-7.665 7.665z"/><path d="m446.263 314.386-2.429-4.639c-1.959-3.744-5.802-6.07-10.028-6.07h-50.993c-4.227 0-8.069 2.326-10.028 6.069l-2.429 4.64c-1.443 2.757-1.694 5.9-.704 8.851s3.085 5.307 5.9 6.636l26.258 12.396c2.065.974 4.282 1.462 6.499 1.462s4.434-.488 6.499-1.462l26.259-12.395c2.814-1.329 4.91-3.685 5.9-6.636.99-2.952.739-6.095-.704-8.852z"/><path d="m467.337 281.38c-10.583-5.054-22.421-8.669-34.932-10.708-1.618-.264-2.949-1.398-3.456-2.957-3.705-11.381-5.236-24.001-5.482-36.388-.034-1.697-1.554-2.97-3.236-2.737-3.876.535-7.858.821-11.922.821-4.063 0-8.045-.286-11.919-.821-1.682-.232-3.202 1.04-3.235 2.737-.246 12.386-1.777 25.005-5.482 36.385-.508 1.559-1.839 2.693-3.457 2.957-12.515 2.039-24.351 5.654-34.932 10.709-.061 1.326-.029.472-2.26 18.692 16.578-10.325 38.284-16.014 61.282-16.014 22.991 0 44.698 5.687 61.289 16.012-2.238-18.263-2.197-17.368-2.258-18.688z"/></g></g></svg>