<svg id="Capa_1" enable-background="new 0 0 512 512" height="512" viewBox="0 0 512 512" width="512" xmlns="http://www.w3.org/2000/svg"><g><path d="m340.116 111.689c0 41.802-26.376 88.241-85.836 88.241-59.624 0-127.925 51.89-127.925 167.667v36.774c0 22.548-16.054 41.901-38.214 46.067l-80.335 15.102c-4.527.85-7.806 4.803-7.806 9.409 0 5.288 4.287 9.574 9.574 9.574h178.963c44.652 0 93.385-31.191 101.582-74.231 42.398 0 106.051-28.978 106.051-142.414 0-31.428 0-151.595 0-151.595z" fill="#e29576"/><path d="m340.116 111.689c0 .73-.01 1.461-.026 2.194l29.283 2.4v151.595c0 113.436-63.653 142.414-106.051 142.414-8.196 43.04-56.929 74.231-101.582 74.231h26.796c44.652 0 93.385-31.191 101.582-74.231 42.398 0 106.051-28.978 106.051-142.414 0-31.428 0-151.595 0-151.595z" fill="#d66b3e"/><g><g fill="#dc805a"><path d="m508.859 31.955c-5.519-16.992-84.746 17.136-80.624 55.829l19.647 25.98c55.275 16.03 71.832-48.391 60.977-81.809z"/><path d="m293.259 31.955c5.519-16.992 84.746 17.136 80.624 55.829l-19.647 25.98c-55.275 16.03-71.831-48.391-60.977-81.809z"/></g><path d="m401.059 62.927c-40.474 0-73.285 32.811-73.285 73.285s32.811 100.238 73.285 100.238 73.285-59.764 73.285-100.238-32.811-73.285-73.285-73.285z" fill="#e7aa91"/><path d="m401.059 199.931c-10.933 0-32.518-16.781-27.861-24.64 5.934-10.014 49.788-10.014 55.722 0 4.657 7.859-16.928 24.64-27.861 24.64z" fill="#ac583e"/></g><path d="m410.394 451.474h-96.769s81.963-160.774-81.211-160.774l-14.099 96.911 35.055 20.911c7.814 4.661 12.6 13.089 12.6 22.188v35.68c0 10.015 8.118 18.133 18.133 18.133h147.528c3.262 0 5.906-2.644 5.906-5.906-.001-14.99-12.153-27.143-27.143-27.143z" fill="#e29576"/><g fill="#d66b3e"><path d="m296.39 451.474h17.235s79.702-156.348-74.581-160.678c108.048 16.955 65.337 129.075 53.787 155.23-1.134 2.568.753 5.448 3.559 5.448z"/><path d="m410.394 451.474h-23.32c14.991 0 27.143 12.152 27.143 27.143 0 3.262-2.644 5.906-5.906 5.906h23.32c3.262 0 5.906-2.644 5.906-5.906-.001-14.99-12.153-27.143-27.143-27.143z"/></g><path d="m421.303 313.866-52.767-29.681c-4.036-2.27-6.534-6.541-6.534-11.171v-23.052h-39.216l3.56 36.343c.896 9.153 6.148 17.314 14.108 21.922l84.204 48.75c2.666 1.544 6.082.529 7.473-2.221l.999-1.975c7.104-14.048 1.892-31.198-11.827-38.915z" fill="#e29576"/><g fill="#ad4c23"><path d="m364.581 138.319c-4.268 0-7.726-3.459-7.726-7.726v-3.842c0-4.267 3.459-7.726 7.726-7.726s7.726 3.459 7.726 7.726v3.842c.001 4.267-3.458 7.726-7.726 7.726z"/><path d="m437.535 138.319c-4.268 0-7.726-3.459-7.726-7.726v-3.842c0-4.267 3.459-7.726 7.726-7.726s7.726 3.459 7.726 7.726v3.842c.001 4.267-3.458 7.726-7.726 7.726z"/></g></g></svg>