<svg id="Capa_1" enable-background="new 0 0 512 512" height="512" viewBox="0 0 512 512" width="512" xmlns="http://www.w3.org/2000/svg"><g><path d="m84.014 167.491c-59.604 55.201-83.843 138.395-84.014 188.769-.159 47.15 48.807 50.879 60.739 8.305 10.486-37.413-5.971-114.667 36.898-164.621z" fill="#f7f3f1"/><path d="m84.014 167.491c-4.132 3.827-8.077 7.8-11.873 11.876l5.94 14.15c-42.869 49.954-26.412 127.208-36.898 164.621-5.2 18.554-17.434 28.311-29.57 29.515 15.214 13.566 40.923 6.182 49.127-23.089 10.486-37.413-5.971-114.667 36.898-164.621z" fill="#ebe1dc"/><path d="m62.316 357.605c2.332-12.786 2.623-28.924 3.326-46.502-14.04-10.088-33.55-16.443-57.397-12.452-4.476 17.139-7.059 33.389-7.917 47.638 25.908-5.737 47.022.666 61.988 11.316z" fill="#a29aa5"/><path d="m62.316 357.605c2.332-12.786 2.623-28.924 3.326-46.502-5.582-4.01-12.03-7.427-19.27-9.842-.817 17.309-.962 33.496-2.651 46.832 6.96 2.368 13.182 5.66 18.595 9.512z" fill="#8c818f"/><path d="m387.992 420.781c2.761 5.175-.975 11.418-6.843 11.418h-37.211c-4.86 0-8.955-3.641-9.521-8.47-2.33-19.776-8.746-65.257-17.899-102.447-57.669 15.493-90.207 25.58-119.608 9.026-13.32 30.472-41.704 36.592-41.704 36.592v24.574l15.178 14.46c3.013 2.866 4.725 6.859 4.725 11.026 0 4.209-1.701 8.018-4.462 10.778-2.75 2.761-6.56 4.46-10.77 4.46h-38.955c-7.243 0-13.11-5.868-13.11-13.11v-46.5c0-6.634-13.278-36.025-30.335-72.04-30.304-63.988-34.124-118.496 12.324-147.876 72.259-45.713 155.456 27.606 224.65 5.689l100.359 87.081c-5.868 32.876-33.358 72.501-41.441 84.299v63.683z" fill="#a29aa5"/><path d="m373.37 393.425v-63.683c8.082-11.798 35.573-51.423 41.441-84.299l-22.289-19.34c-13.272 56.174-31.23 93.747-38.007 103.639v63.683l14.622 27.355c2.761 5.175-.976 11.419-6.844 11.419h18.856c5.868 0 9.604-6.243 6.843-11.418z" fill="#8c818f"/><path d="m310.249 298.835c2.205 6.882 4.301 14.473 6.268 22.447-57.659 15.494-90.207 25.581-119.608 9.026-.082.196-.166.38-.269.576 2.812-6.264 4.976-13.588 6.109-22.128 27.136 10.508 58.113 2.75 107.5-9.921z" fill="#8c818f"/><g fill="#a29aa5"><path d="m506.056 84.978c-13.413-13.875-58.74 2.775-77.241 18.963l61.978 87.689c17.575-24.703 28.676-92.776 15.263-106.652z"/><path d="m261.404 84.978c13.413-13.875 58.74 2.775 77.241 18.963l-61.978 87.689c-17.575-24.703-28.676-92.776-15.263-106.652z"/></g><path d="m413.591 87.155h-59.722c-31.503 0-73.136 52.233-85.966 89.207-3.815 10.994 6.916 20.64 9.218 27.162 3.747 10.616 4.805 22.296 23.404 22.172.463-.003.93-.01 1.401-.028 3.482-.133 6.766 1.575 8.83 4.383 3.4 4.626 7.336 9.037 11.393 13.095 15.263 15.267 36.102 23.639 57.69 23.639h7.782c21.588 0 42.427-8.372 57.69-23.639 4.056-4.058 7.993-8.469 11.392-13.095 2.064-2.808 5.348-4.516 8.83-4.383 19.343.739 32.965-11.262 36.805-22.143 10.043-28.456-47.876-116.37-88.747-116.37z" fill="#f7f3f1"/><g fill="#8c818f"><path d="m502.338 203.524c1.942-5.502 1.342-13.227-1.185-22.109-4.786-16.824-14.902-31.66-28.496-42.667-4.303-3.484-8.511-6.692-12.517-9.531-10.818-7.667-25.343-7.997-36.245-.45-.499.346-.995.706-1.488 1.081-15.981 12.18-16.422 36.021-1.245 49.19 16.622 14.422 34.109 33.387 45.771 46.655 18.598.123 31.659-11.553 35.405-22.169z"/><path d="m265.121 203.524c-1.942-5.502-1.342-13.227 1.185-22.109 4.786-16.824 14.902-31.66 28.496-42.667 4.303-3.484 8.511-6.692 12.517-9.531 10.818-7.667 25.343-7.997 36.245-.45.499.346.995.706 1.488 1.081 15.981 12.18 16.422 36.021 1.245 49.19-16.622 14.422-34.109 33.39-45.771 46.658-18.598.123-31.658-11.556-35.405-22.172z"/><path d="m191.3 266.784c-6.689 0-11.822 5.863-11.028 12.505 7.138 59.676-27.7 73.357-41.794 76.436-3.341.73-5.701 3.72-5.701 7.139v25.035c0 2.285.936 4.47 2.591 6.046l12.27 11.685c3.052 2.907 4.979 6.879 5.044 11.093.132 8.524-6.738 15.475-15.232 15.475h21.975c8.114 0 15.134-6.156 15.655-14.253.291-4.52-1.44-8.91-4.696-12.01l-15.178-14.46v-24.575s57.891-12.488 47.109-90.543c-.759-5.489-5.473-9.573-11.015-9.573z"/></g><path d="m403.63 196.018c-5.573-5.77-12.641-8.947-19.901-8.947s-14.327 3.177-19.901 8.947c-5.106 5.286-8.155 12.087-8.155 18.192 0 15.859 18.251 15.859 28.056 15.859s28.056 0 28.056-15.859c.001-6.105-3.048-12.906-8.155-18.192z" fill="#766d78"/><path d="m445.648 171.412c-4.267 0-7.726-3.459-7.726-7.726v-5.241c0-4.268 3.459-7.726 7.726-7.726s7.726 3.459 7.726 7.726v5.241c0 4.268-3.459 7.726-7.726 7.726z" fill="#544f56"/><path d="m321.811 171.412c-4.267 0-7.726-3.459-7.726-7.726v-5.241c0-4.268 3.459-7.726 7.726-7.726s7.726 3.459 7.726 7.726v5.241c0 4.268-3.459 7.726-7.726 7.726z" fill="#544f56"/></g></svg>