<svg id="Capa_1" enable-background="new 0 0 512 512" height="512" viewBox="0 0 512 512" width="512" xmlns="http://www.w3.org/2000/svg"><g><path d="m387.619 165.96-75.866-48.426c-40.859 17.403-53.37 34.438-64.315 136.211-7.389 68.697-57.698 226.141-227.708 230.705-6.983.187-12.518 5.965-12.518 12.95 0 6.622 4.986 12.173 11.57 12.884 35.774 3.861 145.545 8.296 201.417-72.686 46.911 29.509 183.109 22.699 167.42-271.638z" fill="#f0e9e6"/><path d="m387.619 165.96-23.936-15.278c10.081 213.605-69.963 286.39-127.801 294.159 55.871 18.338 165.927-12.667 151.737-278.881z" fill="#dcd2cd"/><path d="m390.622 480.727h-79.302c-2.144 0-4.199-.859-5.706-2.385l-14.48-14.666c-1.929-1.954-.917-5.25 1.773-5.803 57.42-11.801 140.252-124.432 13.548-156.473l-58.185 80.962c30.742 34.799 2.341 66.643-9.776 77.645-2.652 2.408-2.967 6.459-.736 9.26l24.525 30.789c6.011 7.547 15.134 11.943 24.782 11.943h118.767c2.784 0 5.041-2.257 5.041-5.041v-5.98c.001-11.184-9.066-20.251-20.251-20.251z" fill="#f0e9e6"/><g fill="#dcd2cd"><path d="m270.68 453.234c-5.66 2.005-7.233 5.425-3.055 10.442l14.48 14.666c1.507 1.526 3.562 2.385 5.706 2.385h23.511c-2.144 0-4.199-.859-5.706-2.385l-14.48-14.666c-1.929-1.954-.917-5.25 1.773-5.803 56.4-11.592 137.31-120.46 20.094-154.687 84.888 39.927 10.631 131.293-42.323 150.048z"/><path d="m390.622 480.727h-23.511c11.185 0 20.252 9.067 20.252 20.252v5.98c0 2.784-2.257 5.041-5.042 5.041h23.511c2.784 0 5.041-2.257 5.041-5.041v-5.98c.001-11.185-9.066-20.252-20.251-20.252z"/></g><g fill="#a29aa5"><path d="m500.488 30.153c-7.991-17.85-37.577-33.24-64.191-9.634l26.615 90.582c32.241-15.356 50.785-51.442 37.576-80.948z"/><path d="m274.75 30.153c7.991-17.85 37.577-33.24 64.191-9.634l-26.615 90.581c-32.241-15.355-50.785-51.441-37.576-80.947z"/></g><path d="m410.212 181.79c-14.531 5.677-30.654 5.677-45.185 0-11.052-4.317-25.445-9.827-41.544-15.709-36.44-13.315-49.053-42.046-24.435-67.273-.431-10.636.12-20.162 1.481-28.689.524-3.283 11.168-6.418 11.922-9.41 1.057-4.196-7.669-8.113-6.206-11.768 16.212-40.518 55.675-48.941 81.374-48.941s65.162 8.423 81.375 48.939c1.251 3.125-7.637 6.442-6.68 9.96.959 3.527 11.763 7.256 12.393 11.199 1.363 8.532 1.916 18.065 1.484 28.709 24.619 25.228 12.005 53.959-24.435 67.273-16.1 5.884-30.493 11.393-41.544 15.71z" fill="#f7f3f1"/><g><path d="m370.628 48.839c-1.828 20.106-26.508 47.533-35.085 51.648-8.587 4.115-28.897 3.656-34.391-25.599-.306-1.644-.511-3.227-.623-4.769 1.256-7.883 3.206-14.918 5.718-21.178 7.832-11.283 21.699-16.889 29.194-18.39 15.99-3.197 35.595 13.784 35.187 18.288z" fill="#8c818f"/><path d="m329.793 67.433v1.371" fill="#a29aa5"/><path d="m474.709 70.098v.02c-.112 1.542-.317 3.125-.623 4.769-5.493 29.255-25.803 29.714-34.391 25.599-8.577-4.115-33.258-31.542-35.085-51.648-.408-4.503 19.197-21.484 35.187-18.288 7.495 1.501 21.362 7.107 29.194 18.39 2.512 6.25 4.463 13.285 5.718 21.158z" fill="#8c818f"/><path d="m445.445 67.433v1.371" fill="#a29aa5"/></g><path d="m441.028 317.313-2.397-19.043c-.917-7.284-5.571-13.56-12.275-16.551l-80.228-35.8c-3.439-1.534-5.653-4.947-5.653-8.713v-38.143l-40.412 12.019v30.197c0 13.009 7.743 24.769 19.693 29.911l85.071 36.6c2.681 1.154 4.528 3.667 4.828 6.571l2.074 20.086c.49 4.749 4.731 8.207 9.481 7.731 12.422-1.243 21.377-12.479 19.818-24.865z" fill="#f0e9e6"/><path d="m406.081 98.263c-4.308-6.228-11.729-13.502-18.465-13.502s-14.158 7.274-18.467 13.503c-2.935 4.242-7.473 12.384-4.889 19.237 3.11 8.249 14.104 11.189 23.356 11.189 9.251 0 20.245-2.94 23.355-11.189 2.584-6.854-1.954-14.995-4.89-19.238z" fill="#8c818f"/><path d="m329.791 76.531c-4.268 0-7.726-3.459-7.726-7.726v-1.371c0-4.268 3.459-7.726 7.726-7.726s7.726 3.459 7.726 7.726v1.371c0 4.267-3.459 7.726-7.726 7.726z" fill="#544f56"/><path d="m445.442 76.531c-4.268 0-7.726-3.459-7.726-7.726v-1.371c0-4.268 3.459-7.726 7.726-7.726s7.726 3.459 7.726 7.726v1.371c0 4.267-3.459 7.726-7.726 7.726z" fill="#544f56"/><path d="m403.007 161.142c-5.924 0-11.257-1.951-15.391-4.504-4.469 2.761-10.34 4.817-16.839 4.465-5.725-.309-14.141-2.645-21.715-12.021-2.503-3.098-2.02-7.638 1.078-10.141 3.098-2.501 7.639-2.021 10.141 1.078 3.404 4.214 7.197 6.463 11.273 6.682 4.681.24 8.843-2.136 10.972-4.257 2.815-2.805 7.367-2.804 10.18-.001 2.13 2.123 6.271 4.496 10.975 4.258 4.075-.219 7.867-2.468 11.272-6.682 2.503-3.098 7.043-3.579 10.141-1.078 3.099 2.503 3.581 7.043 1.078 10.141-7.573 9.376-15.989 11.712-21.714 12.021-.488.026-.971.039-1.451.039z" fill="#a29aa5"/><g fill="#8c818f"><path d="m266.776 314.772c0 4.265-3.461 7.726-7.726 7.726h-27.928c1.875-5.233 3.575-10.395 5.12-15.453h22.808c4.264.001 7.726 3.462 7.726 7.727z"/><path d="m274.605 276.789c0 4.265-3.462 7.726-7.726 7.726h-24.673c1.226-5.388 2.246-10.559 3.08-15.453h21.593c4.265.001 7.726 3.462 7.726 7.727z"/><path d="m282.445 238.806c0 4.265-3.461 7.726-7.726 7.726h-26.486c.608-5.398 1.226-10.539 1.854-15.453h24.632c4.264.001 7.726 3.462 7.726 7.727z"/></g></g></svg>