<svg id="Capa_1" enable-background="new 0 0 512 512" height="512" viewBox="0 0 512 512" width="512" xmlns="http://www.w3.org/2000/svg"><g><path d="m419.234 258.375c8.492 115.925-78.596 216.78-194.521 225.271-55.905 4.095-108.302-14.046-148.531-46.918l222.451-353.597c66.606 31.277 114.842 96.634 120.601 175.244z" fill="#ffeee8"/><path d="m419.234 258.375c-4.244-57.931-31.558-108.661-72.29-143.862 26.769 32.462 44.096 73.24 47.403 118.394 8.492 115.925-78.596 216.78-194.521 225.271-43.476 3.185-84.827-7.084-119.986-27.265l-3.658 5.814c40.229 32.872 92.625 51.014 148.531 46.918 115.925-8.49 203.012-109.345 194.521-225.27z" fill="#f1cdc7"/><path d="m34.221 413.034-32.957 61.172c-2.121 3.032-1.514 7.191 1.385 9.491 9.431 7.482 22.741 7.596 32.3.278l76.563-50.196 5.212-51.41z" fill="#d09180"/><path d="m319.97 239.7c-38.786 159.044-131.969 198.608-208.469 194.079l-10.063-4.512-13.919 1.62c-13.577-2.473-26.292-6.222-37.67-10.745l-5.487-6.578-10.141-.527c-10.266-5.314-18.865-11.188-25.28-17.072-1.521-1.395-2.027-3.592-1.291-5.52 37.735-98.74 129.716-171.879 243.65-196.726z" fill="#eaab8a"/><path d="m407.5 22.613c-21.408 0-115.433 0-136.842 0-57.622 0-104.5 46.879-104.5 104.5 0 30.507 7.971 58.964 23.691 84.58 12.662 20.632 30.148 39.072 51.972 54.808 34.458 24.845 76.511 39.692 97.259 39.692s62.8-14.847 97.259-39.692c21.824-15.736 39.31-34.176 51.972-54.808 15.72-25.616 23.691-54.072 23.691-84.58-.002-57.621-46.881-104.5-104.502-104.5z" fill="#d09180"/><path d="m408.92 53.618c-29.3-.553-54.765 16.049-67.066 40.43-1.16 2.298-4.391 2.298-5.55 0-12.302-24.381-37.766-40.983-67.066-40.43-40.672.768-72.7 35.026-72.071 75.701 1.633 105.569 120.281 145.882 141.912 145.882 21.632 0 140.28-40.313 141.913-145.882.628-40.674-31.4-74.933-72.072-75.701z" fill="#ffeee8"/><circle cx="264.253" cy="127.859" fill="#c4a3a3" r="30.37"/><path d="m339.221 148.042c-13.772-.082-24.363 12.044-23.402 25.783 1.288 18.412 16.721 33.973 21.713 38.552.877.804 2.212.808 3.089.004 5.206-4.775 21.803-21.525 21.803-40.994 0-12.846-10.375-23.269-23.203-23.345z" fill="#eaab8a"/><circle cx="413.902" cy="127.859" fill="#c4a3a3" r="30.37"/><path d="m264.254 135.586c-4.267 0-7.726-3.459-7.726-7.726v-2.332c0-4.267 3.459-7.726 7.726-7.726s7.726 3.459 7.726 7.726v2.332c0 4.266-3.459 7.726-7.726 7.726z" fill="#444145"/><path d="m413.902 135.586c-4.267 0-7.726-3.459-7.726-7.726v-2.332c0-4.267 3.459-7.726 7.726-7.726s7.726 3.459 7.726 7.726v2.332c.001 4.266-3.458 7.726-7.726 7.726z" fill="#444145"/><g fill="#c77e67"><path d="m131.362 331.294c-26.263 25.841-64.32 57.867-96.956 81.591-.065.047-.122.1-.184.149 4.857 2.514 10.084 4.903 15.632 7.108 31.609-23.516 67.045-53.573 92.029-78.156 2.953-2.905 2.991-7.654.086-10.606-2.907-2.952-7.655-2.991-10.607-.086z"/><path d="m180.732 364.008c-23.7 23.7-64.109 49.299-93.213 66.875 7.747 1.411 15.772 2.409 23.992 2.895 28.341-17.641 59.247-38.584 79.828-59.164 2.929-2.929 2.929-7.678 0-10.606-2.929-2.929-7.678-2.929-10.607 0z"/></g></g></svg>