<svg id="Capa_1" enable-background="new 0 0 512 512" height="512" viewBox="0 0 512 512" width="512" xmlns="http://www.w3.org/2000/svg"><g><path d="m112.466 39.919c-8.118 93.71-190.894 91.264-72.917 236.567l11.478-29.057c-74.58-86.439 160.666-50.842 68.204-209.056-1.799-3.08-6.457-2.009-6.765 1.546z" fill="#8c818f"/><path d="m437.704 460.716v4.078c0 5.878-4.765 10.643-10.643 10.643h-48.168c-6.798 0-12.997-3.886-15.959-10.004l-39.426-81.428c-12.525 2.404-26.471 2.53-42.188-.399-41.536-7.727-64.134-38.393-96.065-66.46 8.491 48.66-37.618 80.404-53.224 89.634-2.33 1.378-2.525 4.675-.364 6.305l33.629 25.37 32.92 11.056c5.42 1.82 9.071 6.898 9.071 12.616 0 7.35-5.959 13.31-13.309 13.31h-52.545c-3.706 0-7.327-1.11-10.397-3.186l-58.675-39.69c-5.338-3.61-7.418-10.465-4.988-16.433l25.717-63.159c-60.29-31.843-77.573-87.326-39.092-135.616 40.729-51.113 135.733 3.494 181.016-7.503 45.283-10.988 127.791-64.368 127.791-64.368l55.473 162.447c-12.963 16.622-26.646 34.996-43.453 49.721l31.834 82.109 24.804 11.267c3.801 1.727 6.241 5.516 6.241 9.69z" fill="#a29aa5"/><g fill="#8c818f"><path d="m310.146 356.414 13.362 27.59c-12.525 2.404-26.471 2.53-42.188-.399-41.536-7.727-64.134-38.393-96.065-66.46-1.586-9.061-5.061-18.715-10.988-28.914 39.59 27.522 57.701 59.599 98.313 66.752 13.732 2.424 26.179 2.755 37.566 1.431z"/><path d="m431.463 451.026-24.804-11.267-31.834-82.109c16.807-14.725 30.49-33.099 43.453-49.721l-10.763-31.519c-18.655 29.416-40.893 57.167-54.291 70.968-3.463 3.568-4.525 8.822-2.698 13.446l33 83.524 24.804 11.267c3.801 1.726 6.241 5.515 6.241 9.69v4.078c0 2.25-.703 4.334-1.894 6.053h14.384c5.878 0 10.643-4.765 10.643-10.643v-4.078c0-4.173-2.44-7.962-6.241-9.689z"/><path d="m197.847 449.39-32.55-10.934-33.629-25.37c-2.158-1.628-1.974-4.92.353-6.295 22.497-13.303 108.588-73.517 2.381-163.793-6.969.723-10.198 8.968-5.632 14.283 72.103 83.921-2.84 139.447-23.604 152.497-2.327 1.462-2.509 4.962-.351 6.691l33.629 26.962 32.917 11.753c5.419 1.935 9.07 7.332 9.07 13.408 0 2.484-.607 4.816-1.665 6.845h15.215c7.596 0 13.704-6.364 13.287-14.05-.303-5.53-4.171-10.234-9.421-11.997z"/></g><g fill="#efedef"><path d="m482.996 84.613c-29.232 5.657-51.272 34.35-49.441 53.787l46.954 49.132c22.926-28.91 24.831-73.058 6.766-101.081-.919-1.426-2.613-2.16-4.279-1.838z"/><path d="m304.287 84.613c29.232 5.657 51.272 34.35 49.441 53.787l-46.954 49.132c-22.926-28.91-24.831-73.058-6.767-101.081.92-1.426 2.613-2.16 4.28-1.838z"/></g><path d="m439.184 129.966c-23.206-6.208-67.879-6.208-91.085 0-24.087 6.443-48.358 18.003-61.972 53.276-5.949 15.414-9.862 31.728-10.836 47.323-.159 2.543 2.029 4.605 4.563 4.335 10.705-1.139 23.998-3.726 23.998-3.726s1.208 16.205 2.955 26.308c.579 3.35 4.733 4.593 7.063 2.117 6.637-7.056 15.018-18.232 15.018-18.232s9.702 62.977 44.77 82.455c.754.419 1.609.622 2.472.622h35.025c.862 0 1.718-.204 2.472-.622 35.068-19.478 44.77-82.455 44.77-82.455s8.382 11.176 15.019 18.232c2.329 2.476 6.483 1.233 7.062-2.117 1.747-10.103 2.955-26.308 2.955-26.308s13.293 2.587 23.998 3.726c2.534.27 4.722-1.792 4.563-4.335-.974-15.595-4.888-31.91-10.836-47.323-13.616-35.273-37.887-46.833-61.974-53.276z" fill="#efedef"/><path d="m442.276 143.609c14.047-.158 39.669 20.879 58.877 39.634-13.614-35.273-37.882-65.834-61.969-72.277-23.206-6.208-67.879-6.208-91.085 0-24.087 6.443-48.355 37.004-61.969 72.277 19.208-18.755 44.83-39.792 58.877-39.635 15.369.173 36.321 34.027 44.82 48.96 1.685 2.96 5.944 2.96 7.629 0 8.498-14.932 29.451-48.787 44.82-48.959z" fill="#a29aa5"/><path d="m423.183 266.136c-5.052-9.508-23.891-10.247-29.543-10.247-5.654 0-24.491.74-29.544 10.248-1.393 2.621-2.261 7.064 1.514 13.344 5.246 8.73 18.633 18.876 28.029 18.876s22.783-10.147 28.03-18.876c3.775-6.28 2.907-10.724 1.514-13.345z" fill="#766d78"/><path d="m342.04 219.911c-4.269 0-7.729-3.46-7.729-7.729v-11.241c0-4.269 3.46-7.729 7.729-7.729s7.729 3.46 7.729 7.729v11.241c0 4.269-3.46 7.729-7.729 7.729z" fill="#8c818f"/><path d="m445.238 219.911c-4.269 0-7.729-3.46-7.729-7.729v-11.241c0-4.269 3.46-7.729 7.729-7.729s7.729 3.46 7.729 7.729v11.241c0 4.269-3.46 7.729-7.729 7.729z" fill="#8c818f"/></g></svg>