<svg id="Capa_1" enable-background="new 0 0 512 512" height="512" viewBox="0 0 512 512" width="512" xmlns="http://www.w3.org/2000/svg"><g><g fill="#785252"><path d="m369.411 63.794-7.331-2.094v-15.532c0-1.057.474-2.042 1.3-2.703l10.123-8.098c3.325-2.661 3.864-7.513 1.204-10.838-2.661-3.326-7.512-3.864-10.838-1.204l-10.123 8.098c-4.504 3.604-7.087 8.978-7.087 14.745v11.127l-3.097-.885c-3.521-1.004-5.98-4.262-5.98-7.924v-40.775c0-4.259-3.452-7.711-7.711-7.711s-7.711 3.452-7.711 7.711v40.775c0 10.514 7.062 19.872 17.17 22.754l25.84 7.381c3.527 1.011 5.991 4.275 5.991 7.937v21.714c0 4.259 3.452 7.711 7.711 7.711s7.711-3.452 7.711-7.711v-21.714c-.002-10.505-7.06-19.865-17.172-22.764z"/><path d="m468.316 0c-4.259 0-7.711 3.452-7.711 7.711v40.775c0 3.662-2.459 6.92-5.984 7.926l-3.089.883v-11.127c0-5.767-2.583-11.142-7.087-14.745l-10.123-8.098c-3.327-2.661-8.178-2.123-10.838 1.204-2.66 3.325-2.122 8.178 1.204 10.838l10.123 8.098c.826.661 1.299 1.646 1.299 2.703v15.533l-7.329 2.094c-10.106 2.893-17.165 12.253-17.165 22.762v21.714c0 4.259 3.452 7.711 7.711 7.711s7.711-3.452 7.711-7.711v-21.713c0-3.664 2.462-6.927 5.984-7.936l25.833-7.381c10.111-2.885 17.173-12.241 17.173-22.755v-40.775c-.001-4.259-3.453-7.711-7.712-7.711z"/></g><path d="m63.98 225.755c-16.034-4.009-32.749-9.468-38.395-24.424-.659-1.746-2.705-2.483-4.324-1.556-31.447 17.985-19.684 38.388-12.575 45.5 9.644 9.648 31.871 7.027 59.198-3.513z" fill="#d66b3e"/><path d="m351.841 369.504 21.93 132.762c.524 3.177-1.922 6.056-5.14 6.056h-28.726c-2.19 0-4.102-1.45-4.688-3.558l-34.658-124.239c-18.539.478-39.057-18.909-60.999-24.162-24.324-5.823-50.399 1.834-77.468-11.03-14.404 43.993-60.927 61.996-60.927 61.996l54.39 92.551c3.156 5.356-.712 12.121-6.932 12.121h-23.36c-5.315 0-10.289-2.599-13.332-6.958l-61.113-87.638c-2.467-3.537-3.576-7.845-3.134-12.133l5.735-54.869c-52.331-76.204 1.84-147.824 43.15-147.824h37.519c6.116 0 12.768 10 19.812 10 8.478 0 17.526-10 26.894-10h160.004l58.294 73.428c1.623 23.349-12.035 34.787-20.092 50.315-8.169 15.748-10.863 35.475-27.159 43.182z" fill="#dc805a"/><path d="m290.092 343.01 10.466 37.516c-39.089 1.008-86.979-10.723-138.467-35.192 3.156-9.623 4.77-20.501 4.02-32.715 46.276 22.145 89.087 32.272 123.981 30.391z" fill="#ffeee8"/><path d="m166.029 325.313c-.542 7.198-1.92 13.869-3.938 20.021 51.488 24.469 99.378 36.2 138.467 35.192l-6.575-23.567c-36.748.007-80.726-10.542-127.954-31.646z" fill="#ffdcce"/><path d="m351.841 369.504c15.247-7.212 21.679-34.595 24.218-61.543-5.769 23.099-21.106 36.144-42.317 46.896-2.959 1.5-4.583 4.767-4.038 8.04l23.207 139.368c.524 3.177-1.923 6.057-5.141 6.057h20.861c3.218 0 5.664-2.879 5.14-6.056z" fill="#d66b3e"/><path d="m351.841 369.504-7.217-43.716c21.313-15.226 33.763-40.426 33.969-75.598l20.501 25.816c3.269 47.027-14.888 78.19-47.253 93.498z" fill="#ffeee8"/><path d="m399.094 276.007-20.501-25.816c-.03 5.211-.336 10.198-.893 14.971l.534 10.845c2.559 36.803-9.369 56.403-30.184 70.526l3.793 22.971c32.363-15.308 50.52-46.471 47.251-93.497z" fill="#ffdcce"/><path d="m131.399 213.341c.384 10.324 8.84 19.595 18.987 21.535s21.097-3.197 26.649-11.91c3.807-5.976 5.104-13.444 3.76-20.388-17.098 0-33.601 0-46.706 0-1.825 3.28-2.829 7.007-2.69 10.763z" fill="#ffdcce"/><path d="m101.164 407.329s81.351-31.489 62.209-112.92c-1.254-5.333-6.251-8.929-11.716-8.54-6.701.477-11.483 6.689-10.242 13.291 12.536 66.696-47.239 92.468-63.454 98.166-2.035.715-2.909 3.11-1.828 4.977l56.487 97.576c3.151 5.362-.715 12.121-6.934 12.121h22.937c6.219 0 10.083-6.759 6.932-12.121z" fill="#d66b3e"/><g fill="#d66b3e"><path d="m510.458 110.857c-9.048-15.965-55.748-1.732-68.279 20.312l13.734 25.773c30.306 11.891 61.698-33.464 54.545-46.085z"/><path d="m287.734 110.857c9.048-15.965 55.748-1.732 68.279 20.312l-13.734 25.773c-30.307 11.891-61.698-33.464-54.545-46.085z"/></g><path d="m488.135 182.043c-1.328-24.212-32.354-67.805-52.355-78.893-16.313-9.044-57.055-9.044-73.368 0-20.001 11.088-51.027 54.681-52.355 78.893-.415 7.568 4.522 23.44 9.829 28.41 3.763 3.524 11.785 6.181 20.55 8.141 4.528 1.013 7.726 5.066 7.726 9.706v16.311c0 27.89 22.064 51.251 49.95 51.78 28.534.542 51.919-22.512 51.919-50.924v-17.166c0-4.64 3.198-8.693 7.726-9.706 8.765-1.96 16.787-4.617 20.55-8.141 5.307-4.971 10.243-20.843 9.828-28.411z" fill="#e29576"/><path d="m238.89 237.64c8.301-.263 25.619 16.62 25.619 20.744 0 12.56-14.21 20.997-32.86 15.669s-11.989-26.053-11.989-27.681 13.141-8.539 19.23-8.732z" fill="#ffdcce"/><path d="m112.739 294.784c-5.72 7.167-27.287 16.733-34.827 11.513-7.667-5.308-6.594-30.706 0-37.3s31.17-7.027 37.3 0c4.258 4.88 1.567 20.725-2.473 25.787z" fill="#ffdcce"/><g fill="#785252"><g><path d="m439.734 186.633c-4.259 0-7.711-3.452-7.711-7.711v-4.036c0-4.259 3.452-7.711 7.711-7.711s7.711 3.452 7.711 7.711v4.036c-.001 4.259-3.453 7.711-7.711 7.711z"/><path d="m362.295 186.633c-4.259 0-7.711-3.452-7.711-7.711v-4.036c0-4.259 3.452-7.711 7.711-7.711s7.711 3.452 7.711 7.711v4.036c0 4.259-3.453 7.711-7.711 7.711z"/></g><path d="m412.588 227.509h-26.986c-6.688 0-12.129 5.441-12.129 12.129v4.639c0 14.129 11.494 25.623 25.622 25.623s25.622-11.494 25.622-25.623v-4.639c0-6.688-5.441-12.129-12.129-12.129z"/></g></g></svg>