<svg id="Capa_1" enable-background="new 0 0 512 512" height="512" viewBox="0 0 512 512" width="512" xmlns="http://www.w3.org/2000/svg"><g><g fill="#cba59d"><path d="m217.423 1.272c-16.404 7.365-26.941 100.967 63.069 145.267l22.486-7.91c-1.184-104.154-64.568-146.779-85.555-137.357z"/><path d="m476.581 1.272c16.404 7.365 26.941 100.967-63.069 145.267l-22.486-7.91c1.184-104.154 64.568-146.779 85.555-137.357z"/></g><ellipse cx="58.547" cy="453.713" fill="#cba59d" rx="34.146" ry="34.146" transform="matrix(.383 -.924 .924 .383 -383.034 334.175)"/><path d="m271.89 175.012c-66.504 49.581 7.428 125.034-126.428 125.034-48.572 0-87.947 42.043-87.947 93.906s39.375 93.907 87.947 93.907c100.637 0 269.054-53.001 192.297-249.06-54.161-35.169-49.281-34.871-65.869-63.787z" fill="#e4c2bb"/><g><path d="m274.823 180.205c-.904-1.624-1.875-3.349-2.933-5.193-3.265 2.434-6.186 4.931-8.815 7.477 4.504 6.744 7.55 3.372 11.748-2.284z" fill="#ffdcce"/><path d="m342.892 252.755c16.073 169.674-125.082 229.621-243.275 221.348 13.35 8.724 29.046 13.755 45.844 13.755 98.206 0 260.953-50.473 197.431-235.103z" fill="#cba59d"/></g><path d="m347.002 101.712c-64.447 0-116.692 56.354-116.692 105.663 0 64.084 52.245 79.043 116.692 79.043s116.692-14.959 116.692-79.043c0-49.309-52.245-105.663-116.692-105.663z" fill="#eacfca"/><ellipse cx="347.002" cy="266.176" fill="#ffeee8" rx="44.278" ry="34.369"/><path d="m384.191 208.661c-15.469 0-29.11 5.249-37.188 13.236-8.078-7.987-21.719-13.236-37.188-13.236-24.805 0-34.252 13.493-34.252 30.137s9.447 30.137 34.252 30.137c12.891 0 24.513-3.645 32.703-9.482 2.701-1.925 6.27-1.925 8.971 0 8.19 5.837 19.812 9.482 32.703 9.482 24.805 0 34.252-13.493 34.252-30.137s-9.449-30.137-34.253-30.137z" fill="#ffdcce"/><path d="m347.002 231.807c-12.965 0-38.563-22.255-33.04-32.678 7.037-13.28 59.043-13.28 66.08 0 5.523 10.422-20.075 32.678-33.04 32.678z" fill="#a3847e"/><path d="m148.38 370.704c14.362-17.068 45.957-35.075 83.319-35.075 94.602 0 78.137 97.555 22.992 118.878-1.746.675-2.907 2.339-2.907 4.211v12.26c0 2.717 2.382 4.818 5.078 4.479l75.204-9.463c13.026-1.639 25.385 6.189 29.47 18.666l5.336 16.296c1.783 5.446-2.275 11.045-8.005 11.045h-152.272c-5.731 0-11.008-3.12-13.77-8.142l-35.016-63.666c-.001-.001-23.79-52.421-9.429-69.489z" fill="#e4c2bb"/><path d="m225.264 457.333c-1.746.691-2.907 2.395-2.907 4.311v12.551c0 2.781 2.382 4.932 5.078 4.585l27.419-3.532c-1.766-.599-3.07-2.263-3.07-4.27v-12.26c0-1.872 1.161-3.536 2.907-4.211 55.145-21.323 71.609-118.878-22.992-118.878-4.978 0-9.85.328-14.596.923 77.788 10.026 60.221 100.173 8.161 120.781z" fill="#cba59d"/><path d="m366.871 500.955-5.336-16.296c-4.085-12.477-16.444-20.305-29.47-18.666l-23.781 2.993c10.815.898 20.338 8.311 23.825 19.216l5.336 16.683c.807 2.524.409 5.074-.79 7.115h22.211c5.731 0 9.789-5.599 8.005-11.045z" fill="#cba59d"/><path d="m379.958 353.193-58.688-36.48v41.439l32.839 19.526c2.875 1.709 4.498 4.931 4.16 8.258l-2.341 23.089c-.366 3.604 2.214 6.841 5.809 7.289l.841.105c13.478 1.679 25.86-7.63 27.989-21.045l2.234-14.076c1.762-11.098-3.299-22.173-12.843-28.105z" fill="#e4c2bb"/><g fill="#7a635e"><path d="m396.639 175.941c-4.267 0-7.726-3.459-7.726-7.726v-4.053c0-4.268 3.459-7.726 7.726-7.726s7.726 3.459 7.726 7.726v4.053c.001 4.267-3.459 7.726-7.726 7.726z"/><path d="m297.365 175.941c-4.267 0-7.726-3.459-7.726-7.726v-4.053c0-4.268 3.459-7.726 7.726-7.726s7.726 3.459 7.726 7.726v4.053c.001 4.267-3.459 7.726-7.726 7.726z"/></g></g></svg>