<svg id="Capa_1" enable-background="new 0 0 512 512" height="512" viewBox="0 0 512 512" width="512" xmlns="http://www.w3.org/2000/svg"><g><path d="m48.118 229.403c-13.709 0-27.355-4.562-35.84-12.874-9.489-9.3-13.881-21.83-11.75-33.517 1.784-9.783 7.782-17.584 16.456-21.4 11.674-5.123 25.84-.553 31.586 10.185 5.741 10.694 1.902 24.274-8.563 30.263-3.649 2.086-8.299.823-10.387-2.826s-.823-8.299 2.826-10.388c2.943-1.684 4.815-5.932 2.707-9.857-1.947-3.637-7.799-5.308-12.044-3.441-3.968 1.746-6.742 5.463-7.606 10.195-1.224 6.711 1.553 14.155 7.428 19.913 9.378 9.186 28.751 10.421 40.277 5.784 3.901-1.569 8.334.319 9.903 4.219 1.57 3.9-.319 8.334-4.219 9.904-6.456 2.598-13.624 3.84-20.774 3.84z" fill="#ebae9d"/><path d="m406.525 392.237c6.358 6.448 1.784 17.363-7.268 17.363h-46.09c-7.149 0-13.497-4.536-15.82-11.284l-13.586-39.5c-59.046 29.087-122.116 35.676-174.243 6.829l19.532 31.421c3.394 5.467-.529 12.535-6.967 12.535l-46.92-.001c-5.177 0-10.173-1.973-13.918-5.547-48.572-46.269-72.072-130.987-42.354-188.451 49.644-96.003 205.293-99.157 313.471-41.913 0 0 57.316 56.242 68.93 99.077-23.28 27.275-39.244 42.537-48.396 50.447-5.988 5.177-9.43 12.684-9.43 20.594v25.014z" fill="#ffcdbe"/><path d="m406.525 392.237c6.363 6.455 1.785 17.363-7.268 17.363h-22.387c9.053 0 13.63-10.91 7.267-17.365l-23.058-23.413v-25.016c0-7.906 3.44-15.416 9.428-20.592 8.007-6.932 38.372-45.284 61.44-73.04 4.09 7.693 7.376 15.335 9.345 22.591-23.281 27.28-39.242 42.531-48.396 50.447-5.988 5.176-9.43 12.688-9.43 20.594v25.014z" fill="#ebae9d"/><path d="m316.648 338.154c-56.741 22.784-116.162 29.137-167.738 11.377l.001 15.16.606.955c52.124 28.842 115.198 22.257 174.243-6.829z" fill="#ebae9d"/><path d="m482.919 163.781c-2.491-34.193-43.024-61.383-92.661-61.383s-90.17 27.19-92.661 61.383c-17.373 12.993-28.618 33.729-28.618 57.092 0 39.349 31.899 71.247 71.248 71.247h.116c6.888-.011 13.721 1.571 19.662 5.056 8.879 5.209 19.215 8.198 30.253 8.198s21.374-2.99 30.253-8.198c5.941-3.485 12.774-5.067 19.662-5.056h.116c39.349 0 71.248-31.899 71.248-71.247 0-23.363-11.245-44.099-28.618-57.092z" fill="#fde2db"/><g fill="#ebae9d"><path d="m440.866 121.18c5.308-13.119 67.128-5.549 70.914 29.776 2.33 21.744-14.419 44.188-23.551 42.474-12.373-2.321-53.252-57.696-47.363-72.25z"/><path d="m339.651 121.18c-5.308-13.119-67.128-5.549-70.914 29.776-2.33 21.744 14.419 44.188 23.551 42.474 12.373-2.321 53.253-57.696 47.363-72.25z"/><path d="m148.911 364.69.001-18.975s50.556-29.51 11.664-85.416c-1.761-2.532-4.729-3.952-7.803-3.703-6.26.508-9.866 7.314-6.822 12.807 27.713 49.998-17.345 76.312-17.345 76.312v18.973l20.135 32.38c3.398 5.464-.531 12.534-6.966 12.534l20.306-.001c6.434 0 10.365-7.071 6.967-12.535z"/></g><g fill="#8c818f"><path d="m433.735 183.077c-4.204 0-7.612-3.407-7.612-7.612v-3.55c0-4.204 3.407-7.612 7.612-7.612 4.204 0 7.612 3.407 7.612 7.612v3.55c0 4.205-3.408 7.612-7.612 7.612z"/><path d="m346.781 183.077c-4.204 0-7.612-3.407-7.612-7.612v-3.55c0-4.204 3.407-7.612 7.612-7.612 4.204 0 7.612 3.407 7.612 7.612v3.55c0 4.205-3.407 7.612-7.612 7.612z"/></g><path d="m423.716 200.62c-8.911-3.26-20.793-5.055-33.458-5.055s-24.547 1.795-33.458 5.055c-14.667 5.366-17.746 13.296-17.746 19.004 0 22.563 9.98 34.613 18.352 40.747 11.818 8.659 25.655 9.952 32.852 9.952s21.035-1.293 32.852-9.952c15.169-11.115 18.352-28.293 18.352-40.747.001-5.707-3.079-13.638-17.746-19.004z" fill="#ffcdbe"/><g fill="#ebae9d"><path d="m377.073 241.297c-.483 0-.972-.046-1.465-.142-3.334-.65-5.732-3.386-6.105-6.589-.363-.32-.831-.661-1.136-.828-3.794-1.62-5.615-5.984-4.072-9.833 1.565-3.902 5.999-5.797 9.898-4.231 4.043 1.621 11.889 7.535 10.343 15.466-.709 3.635-3.894 6.157-7.463 6.157zm-8.641-7.531c.034.015.065.027.094.039-.032-.013-.064-.026-.094-.039z"/><path d="m403.444 241.297c-3.569 0-6.754-2.521-7.463-6.156-1.546-7.931 6.3-13.844 10.343-15.466 3.897-1.566 8.333.327 9.898 4.231 1.543 3.848-.279 8.212-4.072 9.833-.305.167-.773.507-1.136.828-.373 3.203-2.771 5.939-6.105 6.589-.493.096-.983.141-1.465.141zm8.641-7.531c-.031.013-.062.026-.094.039.029-.012.06-.024.094-.039z"/></g></g></svg>