<svg id="Capa_1" enable-background="new 0 0 512 512" height="512" viewBox="0 0 512 512" width="512" xmlns="http://www.w3.org/2000/svg"><g><path d="m27.853 304.809c-1.709 0-3.427-.57-4.849-1.743-11.082-9.134-28.582-28.027-21.271-51.924 6.861-22.426 34.648-40.294 67.575-43.451 30.604-2.936 55.769-16.287 62.619-33.225 3.722-9.202 1.537-18.637-6.491-28.043-2.736-3.205-2.356-8.021.849-10.756 3.205-2.737 8.021-2.356 10.756.849 11.68 13.683 14.887 29.192 9.033 43.671-9.066 22.417-38.626 39.175-75.309 42.693-26.522 2.543-49.416 16.306-54.439 32.725-4.479 14.641 6.439 27.486 16.385 35.686 3.252 2.679 3.715 7.489 1.034 10.74-1.509 1.832-3.692 2.778-5.892 2.778z" fill="#b5adb7"/><path d="m354.682 464.244c.814 2.625-1.139 5.28-3.886 5.28h-56.502c-5.158 0-9.553-3.764-10.336-8.871l-8.068-52.392c-68.506 13.591-103.766-38.678-141.824-53.246-11.424 31.242-45.779 38.232-45.779 38.232l5.974 33.001c.224 1.2.962 2.247 2.041 2.838l24.548 13.561c.855.478 1.519 1.25 1.855 2.176l6.978 19.247c.967 2.645-1.007 5.455-3.825 5.455l-56.939.001c-4.405 0-8.342-2.767-9.837-6.918l-26.348-73.308c-1.455-4.039-1.109-8.505.946-12.269 3.957-7.274 10.275-19.461 11.445-25.321 1.74-8.647-29.014-18.647-20.702-60.998 10.733-54.691 83.247-46.685 128.874-54.081 26.705-4.334 128.07-47.142 158.447-65.556l74.844 125.374c-4.995 32.086-31.191 77.011-60.52 99.117v36.196c0 1.567.895 2.991 2.309 3.662l18.81 9.034c1.027.488 1.79 1.383 2.126 2.462z" fill="#a29aa5"/><path d="m349.311 446.919c-.336-1.078-1.099-1.974-2.126-2.462l-18.81-9.034c-1.414-.672-2.309-2.096-2.309-3.662v-36.196c29.329-22.106 55.525-67.031 60.52-99.117l-17.182-28.783c-14.883 60.653-42.247 110.999-67.566 130.286v36.581c0 1.583.895 3.023 2.309 3.701l18.81 9.13c1.027.493 1.79 1.398 2.126 2.488l5.371 17.509c.227.739.232 1.478.072 2.163h20.27c2.747 0 4.7-2.655 3.886-5.28z" fill="#8c818f"/><path d="m275.891 408.261c-68.506 13.591-103.766-38.678-141.824-53.246 2.472-6.745 3.876-14.639 3.622-23.836 36.511 15.056 71.131 61.761 134.591 53.633z" fill="#8c818f"/><g><path d="m472.228 45.94c-1.972-4.382-8.147-4.671-10.528-.497-16.487 28.905 14.797 33.539 14.797 50.795 0 23.828-31.09 34.482-63.474 33.41l13.866 36.301c65.434-6.406 85.11-36.607 85.11-52.165.001-38.894-26.564-38.502-39.771-67.844z" fill="#f0e9e6"/><path d="m263.698 45.94c1.972-4.382 8.147-4.671 10.528-.497 16.487 28.905-14.797 33.539-14.797 50.795 0 23.828 31.09 34.482 63.474 33.41l-13.866 36.301c-65.434-6.406-85.11-36.607-85.11-52.165-.001-38.894 26.564-38.502 39.771-67.844z" fill="#f0e9e6"/><path d="m443.279 180.057 68.721 19.384s-1.785 32.419-36.294 30.08c-34.509-2.34-41.352-15.736-41.352-15.736z" fill="#8c818f"/><path d="m292.647 180.057-68.721 19.385s1.785 32.419 36.294 30.08c34.509-2.34 41.352-15.736 41.352-15.736z" fill="#8c818f"/><path d="m458.053 197.098c-1.938-27.235-28.078-72.627-45.03-72.627s-27.56 10.147-45.512 10.147-28.56-10.147-45.512-10.147-43.093 45.392-45.03 72.627-.484 45.926 52.579 91.852h75.927c53.063-45.926 54.516-64.617 52.578-91.852z" fill="#b5adb7"/><ellipse cx="367.511" cy="299.938" fill="#ffdcce" rx="41.447" ry="34.014"/><path d="m367.511 299.73c-17.067 0-36.979 18.49-50.633 7.396-17.719-14.397-17.352-57.176 0-65.425s29.868.506 50.633.506 33.281-8.755 50.633-.506 17.719 51.028 0 65.425c-13.654 11.093-33.565-7.396-50.633-7.396z" fill="#ffeee8"/></g><path d="m122.705 444.822c-.336-.926-.993-1.7-1.855-2.176l-24.548-13.561c-1.071-.591-1.823-1.634-2.041-2.838l-5.974-33.001s59.735-12.157 47.874-76.026c-.878-4.726-5.423-7.852-10.165-7.07l-.172.028c-4.81.793-8.023 5.305-7.332 10.131 5.578 38.972-26.631 55.84-41.428 61.462-4.11 1.562-6.544 5.799-5.809 10.133l6.685 39.428c.218 1.204.966 2.245 2.036 2.837l24.549 13.561c.862.476 1.522 1.249 1.858 2.175l6.978 14.159c.962 2.653-1.003 5.456-3.826 5.456l16.322.001c2.822 0 4.787-2.801 3.825-5.455z" fill="#8c818f"/><path d="m141.852 122.394c-2.343-10.175-10.53-16.221-17.752-21.556-3.599-2.659-7-5.169-9.482-7.965-2.362-2.661-3.555-5.49-3.986-9.457-.331-3.053-2.128-5.764-4.806-7.253-2.697-1.499-5.976-1.594-8.77-.252-5.209 2.501-9.81 7.253-12.751 10.8-14.214 17.131-10.186 37.797.111 50.678 8.632 10.799 19.486 15.102 29.531 15.102 5.662 0 11.069-1.368 15.674-3.71 9.341-4.752 14.6-16.096 12.231-26.387z" fill="#8c818f"/><g fill="#b5adb7"><path d="m391.712 280.933c-.992 0-2.002-.194-2.974-.604-3.883-1.636-5.693-6.136-4.057-10.019 1.134-2.689 3.67-6.416 9.316-8.887 3.862-1.685 8.36.071 10.049 3.931s-.071 8.359-3.931 10.049c-1.106.484-1.396.881-1.396.881-1.227 2.912-4.039 4.649-7.007 4.649z"/><path d="m343.312 280.904c-2.976 0-5.804-1.752-7.033-4.667-.011 0-.325-.376-1.371-.834-3.861-1.69-5.62-6.189-3.931-10.049 1.69-3.861 6.191-5.616 10.049-3.931 5.646 2.471 8.182 6.197 9.316 8.887 1.635 3.883-.187 8.358-4.069 9.994-.969.408-1.973.6-2.961.6z"/></g><g fill="#766d78"><path d="m322.902 209.755c-4.214 0-7.63-3.416-7.63-7.63v-4.553c0-4.214 3.416-7.63 7.63-7.63s7.63 3.416 7.63 7.63v4.553c-.001 4.214-3.416 7.63-7.63 7.63z"/><path d="m412.119 209.755c-4.214 0-7.63-3.416-7.63-7.63v-4.553c0-4.214 3.416-7.63 7.63-7.63s7.63 3.416 7.63 7.63v4.553c0 4.214-3.415 7.63-7.63 7.63z"/></g></g></svg>