<svg id="Capa_1" enable-background="new 0 0 512 512" height="512" viewBox="0 0 512 512" width="512" xmlns="http://www.w3.org/2000/svg"><g><path d="m27.465 399.503c-4.204 0-7.611-3.407-7.611-7.611v-52.337c0-17.5 13.859-42.909 31.727-49.438 3.949-1.445 8.318.589 9.761 4.536 1.443 3.948-.588 8.319-4.536 9.761-11.192 4.09-21.729 23.264-21.729 35.141v52.337c0 4.204-3.407 7.611-7.612 7.611z" fill="#785252"/><g fill="#785252"><path d="m428.903 150.542c-.211 0-.423-.008-.637-.026-4.189-.347-7.304-4.025-6.957-8.214 3.455-41.705 3.02-86.788-1.293-133.995-.383-4.186 2.701-7.89 6.887-8.273 4.181-.398 7.89 2.702 8.272 6.887 4.393 48.084 4.832 94.055 1.305 136.638-.33 3.975-3.658 6.983-7.577 6.983z"/><path d="m346.032 150.553c-3.919 0-7.247-3.007-7.577-6.983-3.522-42.527-3.083-88.502 1.305-136.646.381-4.187 4.091-7.279 8.271-6.889 4.186.382 7.271 4.084 6.889 8.271-4.308 47.269-4.744 92.356-1.293 134.008.347 4.189-2.768 7.867-6.957 8.214-.214.017-.427.025-.638.025z"/></g><path d="m400.962 281.88-72.095-79.429-29.446 41.277c-4.268 5.983-11.165 9.535-18.514 9.535h-118.113c-24.943 0-95.436-22.975-117.474 45.295-10.46 32.403 10.46 62.978 33.794 85.508-5.497 8.994-10.372 17.794-13.279 23.172-1.77 3.275-1.769 7.217.004 10.49l49.901 92.077c.733 1.353 2.149 2.196 3.688 2.196h27.758c2.255 0 3.778-2.303 2.895-4.379l-32.734-76.888s35.959-9.723 47.109-42.491c20.691 5.374 45.904-2.074 72.157-3.538 23.13-1.29 47.067 4.302 69.432-4.04l35.803 128.268c.506 1.813 2.157 3.069 4.04 3.069h26.445c1.935 0 3.41-1.729 3.106-3.64l-24.221-152.312c15.674-12.041 19.068-27.209 28.798-45.988 4.464-8.62 18.158-17.997 20.946-28.182z" fill="#dc805a"/><path d="m351.217 356.048c16.836-25.193 32.777-50.713 41.642-83.095l-63.993-70.502-7.126 9.988 63.028 69.44c-8.449 30.864-28.479 46.016-50.138 62.579-1.971 1.508-2.941 3.988-2.52 6.433l27.135 157.468c.304 1.911-1.172 3.64-3.107 3.64h16.191c1.934 0 3.41-1.73 3.106-3.64z" fill="#d66b3e"/><path d="m306.044 380.663c-47.748 17.818-102.66 17.688-141.588 7.578 4.667-13.686 4.991-31.397-3.451-54.112 37.251 5.831 85.942 3.629 128.909-11.274z" fill="#785252"/><path d="m297.125 348.699 8.919 31.965c-47.749 17.811-102.658 17.696-141.588 7.578 2.781-8.139 4.015-17.733 2.777-28.968 41 7.459 88.759 5.257 129.892-10.575z" fill="#ffeee8"/><path d="m167.436 373.972c-.464 5.186-1.5 9.936-2.981 14.27 38.93 10.118 93.839 10.233 141.588-7.578l-4.22-15.123c-45.247 15.118-95.389 16.105-134.387 8.431z" fill="#ffdcce"/><path d="m400.962 281.88c-8.87 32.374-26.88 56.601-49.745 74.168l-5.672-35.671c16.958-14.553 30.637-33.147 39.223-56.337z" fill="#ffeee8"/><path d="m385.843 265.224-1.075-1.183c-1.556 4.202-3.284 8.246-5.163 12.149l5.164 5.69c-6.705 24.492-20.705 39.089-37.023 52.35l3.471 21.818c17.86-13.722 32.736-31.531 42.631-54.089 2.771-6.32 5.174-12.993 7.114-20.079z" fill="#ffdcce"/><path d="m117.347 430.733s75.068-20.293 41.916-101.065c-1.756-4.279-6.428-6.583-10.882-5.333-5.046 1.417-7.862 6.807-6.117 11.749 21.837 61.87-27.116 76.924-43.716 80.191-2.681.527-4.197 3.387-3.155 5.913l35.245 85.432c.884 2.075-.639 4.379-2.895 4.379h19.443c2.255 0 3.778-2.303 2.895-4.379z" fill="#d66b3e"/><g fill="#d66b3e"><path d="m294.363 114.568c-8.607-2.69-14.399 27.238-10.132 36.785 6.14 13.738 29.396 20.133 40.188 20.133l4.448-6.395c-4.848-21.437-25.379-47.672-34.504-50.523z"/><path d="m480.578 114.568c8.607-2.69 14.399 27.238 10.132 36.785-6.14 13.738-29.396 20.133-40.188 20.133l-4.448-6.395c4.848-21.437 25.379-47.672 34.504-50.523z"/></g><path d="m426.598 132.977h-11.46l-27.667 20-27.667-20h-11.46c-7.086 0-13.651 3.615-17.55 9.533-8.97 13.614-15.92 28.14-20.878 43.566-1.226 3.816-1.032 7.958.525 11.651 6.799 16.121 17.037 28.052 30.173 36.452l1.603 22.118c1.72 23.724 21.468 42.093 45.255 42.093 23.786 0 43.535-18.369 45.255-42.093l1.603-22.118c13.136-8.4 23.374-20.331 30.173-36.452 1.557-3.693 1.752-7.836.525-11.651-4.958-15.426-11.908-29.952-20.878-43.566-3.901-5.918-10.466-9.533-17.552-9.533z" fill="#e29576"/><path d="m415.138 132.977h-55.334v25.783c0 7.19 3.281 13.986 8.912 18.458l1.883 1.495c1.523 1.209 2.41 3.047 2.41 4.992v55.19h28.925v-55.19c0-1.944.887-3.783 2.41-4.992l1.883-1.495c5.63-4.472 8.912-11.268 8.912-18.458v-25.783z" fill="#ffeee8"/><g fill="#785252"><g><path d="m339.557 202.345c-4.204 0-7.611-3.407-7.611-7.611v-5.528c0-4.204 3.407-7.611 7.611-7.611s7.611 3.407 7.611 7.611v5.528c0 4.203-3.407 7.611-7.611 7.611z"/><path d="m435.384 202.345c-4.204 0-7.611-3.407-7.611-7.611v-5.528c0-4.204 3.407-7.611 7.611-7.611s7.611 3.407 7.611 7.611v5.528c0 4.203-3.407 7.611-7.611 7.611z"/></g><path d="m389.703 217.667h-4.466c-13.076 0-23.714 10.638-23.714 23.714v9.453c0 6.601 5.371 11.97 11.971 11.97h27.952c6.601 0 11.971-5.37 11.971-11.97v-9.453c.001-13.076-10.637-23.714-23.714-23.714z"/></g></g></svg>