<svg id="Capa_1" enable-background="new 0 0 512 512" height="512" viewBox="0 0 512 512" width="512" xmlns="http://www.w3.org/2000/svg"><g><g fill="#8c818f"><path d="m135.09 218.264c-67.087.16-132.051 43.8-135.008 51.348s75.107-2.971 106.981 1.82c13.177 1.981 95.115-53.327 28.027-53.168z"/><path d="m219.885 166.744c-57.03-35.333-135.244-32.635-141.744-27.791-6.501 4.843 65.323 37.186 89.845 58.104 10.138 8.648 108.929 5.02 51.899-30.313z"/><path d="m372.034 166.772c-40.792-53.261-114.879-78.477-122.675-76.254s47.89 57.935 63.399 86.19c6.412 11.682 100.068 43.325 59.276-9.936z"/></g><path d="m87.895 232.746c-28.119 42.612-30.115 127.28 14.022 180.946 4.128 5.019 10.29 7.926 16.788 7.926h42.955c6.167 0 11.449-4.417 12.54-10.487l.484-2.694c.722-4.017-.525-8.137-3.353-11.08l-15.196-15.816s10.222-2.678 18.65-11.691c40.992 20.675 95.349 6.875 137.756 2.03 13.928 18.472 34.39 36.342 44.554 44.746 3.9 3.224 8.795 4.993 13.855 4.993h26.313c5.88 0 10.996-4.024 12.382-9.739l1.009-4.161c1.337-5.517-1.137-11.253-6.067-14.067l-21.221-12.11-8.242-14.758c28.741-5.964 51.57-20.088 75.778-47.754l28.14-116.78c-99.195-61.207-331.882-59.314-391.147 30.496z" fill="#a29aa5"/><path d="m457.686 190.94-26.177 118.64c-24.208 30.214-47.036 45.638-75.778 52.152l8.242 16.117 21.221 13.225c4.93 3.073 7.404 9.338 6.067 15.363l-1.009 4.544c-1.385 6.241-6.502 10.636-12.382 10.636h19.391c5.88 0 10.996-4.024 12.382-9.739l1.009-4.161c1.337-5.517-1.137-11.254-6.067-14.067l-21.221-12.111-8.242-14.758c28.741-5.965 51.57-20.088 75.778-47.754l28.14-116.781c-6.562-4.047-13.713-7.817-21.354-11.306z" fill="#8c818f"/><path d="m312.528 371.875c-42.41 4.845-96.743 18.644-137.743-2.026 3.747-4.009 7.141-9.26 9.115-16.091.434-1.501 1.998-2.373 3.482-1.886 33.936 11.141 74.495 3.842 109.597-1.129 1.88-.266 3.709.694 4.568 2.387 2.303 4.542 7.013 13.479 10.981 18.745z" fill="#8c818f"/><path d="m456.095 180.139c-38.353-55.044-111.23-83.569-119.118-81.699s45.233 60.032 59.455 88.957c5.881 11.959 98.017 47.786 59.663-7.258z" fill="#b5adb7"/><path d="m421.13 181.334c70.243 0 85.28 36.714 82.437 85.598 25.58 51.907-11.777 77.889-48.726 66.298h-67.423c-36.949 11.591-74.306-14.391-48.726-66.298-2.842-48.883 12.194-85.598 82.438-85.598z" fill="#f0e9e6"/><path d="m460.835 277.546h-79.41c-28.695 48.071 4.658 72.846 39.705 72.846s68.4-24.776 39.705-72.846z" fill="#f0e9e6"/><path d="m421.13 272.394c-13.917 0-24.71 15.644-24.71 29.102 0 17.36 16.69 17.36 24.71 17.36 8.021 0 24.71 0 24.71-17.36 0-13.458-10.794-29.102-24.71-29.102z" fill="#a29aa5"/><path d="m368.804 255.004c-4.267 0-7.726-3.459-7.726-7.726v-4.535c0-4.268 3.459-7.726 7.726-7.726s7.726 3.459 7.726 7.726v4.535c0 4.267-3.459 7.726-7.726 7.726z" fill="#8c818f"/><path d="m473.456 255.004c-4.267 0-7.726-3.459-7.726-7.726v-4.535c0-4.268 3.459-7.726 7.726-7.726s7.726 3.459 7.726 7.726v4.535c0 4.267-3.459 7.726-7.726 7.726z" fill="#8c818f"/><path d="m311.067 173.068c-48.07-52.834-128.938-72.918-137.009-69.858s56.02 57.154 75.017 85.734c7.855 11.816 110.062 36.958 61.992-15.876z" fill="#b5adb7"/><path d="m197.401 196.369c-60.596-28.791-138.028-17.437-143.952-11.903s69.044 29.713 95.734 47.783c11.035 7.471 108.813-7.089 48.218-35.88z" fill="#b5adb7"/><path d="m139.396 254.27c-64.852 17.174-116.619 75.868-117.564 83.919-.946 8.051 71.896-21.929 103.943-25.381 13.248-1.427 78.473-75.713 13.621-58.538z" fill="#b5adb7"/></g></svg>