<svg id="Capa_1" enable-background="new 0 0 512 512" height="512" viewBox="0 0 512 512" width="512" xmlns="http://www.w3.org/2000/svg"><g><path d="m96.331 236.923 14.843 55.927 102.715 24.049c8.496 1.989 17.437.111 24.415-5.129 10.484-7.873 24.909-7.873 35.393 0 6.978 5.24 15.919 7.118 24.415 5.129l102.715-24.049 14.843-55.927z" fill="#ffdcce"/><g fill="#d66b3e"><path d="m459.649 321.532-29.004 14.815c2.91 30.396 31.507 82.424 40.8 98.656 1.768 3.088 5.053 4.987 8.611 4.987 4.557 0 8.533-3.1 9.633-7.523 4.155-16.712 13.141-56.612 8.246-71.369-4.333-13.065-38.286-39.566-38.286-39.566z"/><path d="m52.351 321.532 29.004 14.815c-2.91 30.396-31.507 82.424-40.8 98.656-1.768 3.088-5.053 4.987-8.611 4.987-4.557 0-8.533-3.1-9.633-7.523-4.155-16.712-13.141-56.612-8.246-71.369 4.333-13.065 38.286-39.566 38.286-39.566z"/></g><path d="m330.772 161.846h-149.544c-56.216 9.325-92.386 44.492-111.52 69.371-8.852 11.509-2 28.347 12.37 30.425 115.948 16.771 231.897 16.771 347.845 0 14.37-2.078 21.221-18.916 12.37-30.425-19.134-24.878-55.305-60.046-111.521-69.371z" fill="#dc805a"/><path d="m442.292 231.217c-19.134-24.879-55.304-60.046-111.52-69.371h-38.477c56.216 11.045 92.386 52.699 111.52 82.167 4.122 6.349 4.836 14.064 2.973 20.748 7.711-.967 15.423-2.003 23.134-3.118 14.37-2.079 21.222-18.916 12.37-30.426z" fill="#d66b3e"/><path d="m374.589 242.841c-4.487 3.765-8.711 7.684-12.66 11.719l93.718 111.838c4.687-3.203 9.307-6.7 13.819-10.487 48.162-40.412 52.956-87.568 26.756-118.792-26.199-31.223-73.471-34.69-121.633 5.722z" fill="#e5936a"/><path d="m499.715 241.633c4.145 23.526-8.184 53.7-40.082 84.031-3.395 3.229-7.012 6.459-10.855 9.683l-11.813 27.019 18.666 4.043c4.693-3.206 9.318-6.707 13.835-10.498 45.895-38.509 52.408-83.143 30.249-114.278z" fill="#e27c48"/><path d="m137.411 242.841c4.51 3.785 8.755 7.724 12.721 11.782l-93.807 111.757c-4.678-3.198-9.288-6.689-13.791-10.468-48.162-40.412-52.956-87.568-26.756-118.792s73.471-34.691 121.633 5.721z" fill="#e5936a"/><path d="m12.285 241.633c-4.145 23.525 8.183 53.697 40.078 84.027 3.397 3.23 17.848 24.178 17.848 24.178l-13.854 16.563c-4.689-3.204-9.309-6.701-13.823-10.489-45.895-38.51-52.408-83.144-30.249-114.279z" fill="#e27c48"/><path d="m361.868 254.625c-27.602 28.238-41.767 62.203-38.72 89.581.695 6.247 8.016 9.244 12.832 5.203l38.965-32.696c7.005-5.878 17.55-5.553 23.751 1.168 6.621 7.176 5.843 18.339-1.551 24.543l-39.333 33.004c-4.815 4.04-3.135 11.771 2.896 13.54 22.706 6.661 52.404 1.659 80.992-14.005l17.94-49.308c-2.242-15.243-8.782-29.478-19.12-41.798-19.175-22.85-47.109-33.98-78.652-29.232z" fill="#df6937"/><path d="m459.632 325.66c-3.397 3.23-7.01 6.462-10.854 9.688-31.715 26.612-66.346 42.37-93.664 44.857-.457 3.01.898 6.185 3.594 7.87 1.324.825 2.988 1.198 4.7 1.621 17.474 4.323 36.843 1.689 53.93-4.022 14.415-4.82 26.133-11.127 38.315-19.28 4.679-13.938 5.896-27.703 3.979-40.734z" fill="#dd552d"/><path d="m150.132 254.625c27.602 28.238 41.767 62.203 38.72 89.581-.695 6.247-8.016 9.244-12.831 5.203l-38.965-32.696c-7.005-5.878-17.55-5.553-23.752 1.168-6.621 7.176-5.843 18.339 1.551 24.543l39.333 33.004c4.815 4.04 3.135 11.771-2.896 13.54-22.731 6.668-52.469 1.648-81.086-14.057l-17.843-49.273c2.244-15.237 8.784-29.466 19.117-41.781 19.175-22.85 47.109-33.98 78.652-29.232z" fill="#df6937"/><path d="m156.887 380.205c-27.319-2.487-61.949-18.245-93.664-44.857-3.844-3.226-7.458-6.458-10.854-9.688-1.917 13.031-.7 26.797 3.98 40.734.016.011.032.021.048.032 8.845 6.04 18.476 11.352 28.127 15.423 14.002 5.894 29.673 9.916 45.043 9.992 3.108.012 6.161-.125 9.317-.46 2.39-.254 5.01-.67 6.943-1.065 1.477-.301 5.296-1.154 6.663-1.808.675-.318 1.204-.648 1.832-1.204 2.03-1.793 2.952-4.546 2.565-7.099z" fill="#dd552d"/><g fill="#f0e9e6"><path d="m179.641 141.55c-14.45 0-26.164-11.714-26.164-26.164v-9.483c0-14.45 11.714-26.164 26.164-26.164s26.164 11.714 26.164 26.164v9.483c0 14.45-11.714 26.164-26.164 26.164z"/><path d="m332.359 141.55c14.45 0 26.164-11.714 26.164-26.164v-9.483c0-14.45-11.714-26.164-26.164-26.164s-26.164 11.714-26.164 26.164v9.483c0 14.45 11.714 26.164 26.164 26.164z"/></g><path d="m203.413 190.564c-1.161 0-2.34-.263-3.449-.818-18.492-9.245-24.751-33.447-26.836-47.05-.059-.387-.089-.779-.089-1.17 0-4.268 3.459-7.731 7.726-7.731 3.933 0 7.179 2.934 7.664 6.733 1.347 8.676 5.802 29.076 18.445 35.397 3.817 1.908 5.364 6.549 3.455 10.366-1.353 2.707-4.082 4.273-6.916 4.273z" fill="#934c35"/><path d="m179.641 119.119c-4.267 0-7.726-3.459-7.726-7.726v-1.499c0-4.268 3.459-7.726 7.726-7.726s7.726 3.459 7.726 7.726v1.499c.001 4.267-3.459 7.726-7.726 7.726z" fill="#934c35"/><path d="m179.641 149.275c-18.687 0-33.89-15.203-33.89-33.89v-9.484c0-18.687 15.203-33.889 33.89-33.889s33.89 15.202 33.89 33.889v9.484c0 18.687-15.203 33.89-33.89 33.89zm0-61.811c-10.167 0-18.438 8.271-18.438 18.437v9.484c0 10.167 8.271 18.438 18.438 18.438 10.166 0 18.437-8.271 18.437-18.438v-9.484c0-10.166-8.27-18.437-18.437-18.437z" fill="#e5936a"/><path d="m308.587 190.564c-2.835 0-5.563-1.565-6.917-4.273-1.908-3.817-.362-8.458 3.455-10.366 12.67-6.335 17.118-26.811 18.454-35.455.515-3.769 3.745-6.676 7.655-6.676 4.267 0 7.726 3.454 7.726 7.721 0 .391-.03.793-.089 1.18-2.085 13.604-8.343 37.805-26.836 47.05-1.108.555-2.288.819-3.448.819z" fill="#934c35"/><path d="m332.359 119.119c-4.267 0-7.726-3.459-7.726-7.726v-1.499c0-4.268 3.459-7.726 7.726-7.726s7.726 3.459 7.726 7.726v1.499c0 4.267-3.459 7.726-7.726 7.726z" fill="#934c35"/><path d="m332.359 149.275c-18.687 0-33.89-15.203-33.89-33.89v-9.484c0-18.687 15.203-33.889 33.89-33.889s33.89 15.202 33.89 33.889v9.484c0 18.687-15.203 33.89-33.89 33.89zm0-61.811c-10.167 0-18.437 8.271-18.437 18.437v9.484c0 10.167 8.271 18.438 18.437 18.438s18.438-8.271 18.438-18.438v-9.484c-.001-10.166-8.272-18.437-18.438-18.437z" fill="#e5936a"/></g></svg>