<svg id="Capa_1" enable-background="new 0 0 512 512" height="512" viewBox="0 0 512 512" width="512" xmlns="http://www.w3.org/2000/svg"><g><path d="m430.164 197.186c-16.505 6.602-64.185 8.82-95.411 8.82h-310.621c-6.533 0-11.83 5.296-11.83 11.83 0 3.557 1.624 6.896 4.358 9.171 28.653 23.839 75.937 101.103 204.573 77.434 55.389-10.192 143.165-36.355 204.723-16.787 61.557 19.568 20.713-97.07 4.208-90.468z" fill="#e4c2bb"/><path d="m425.878 265.07c-62.69-19.568-152.08 6.595-208.488 16.787-122.09 22.059-172.217-43.542-202.094-71.868-1.857 2.089-2.994 4.832-2.994 7.847 0 3.557 1.623 6.896 4.358 9.171 28.653 23.839 75.937 101.103 204.573 77.434 55.389-10.192 143.165-36.355 204.723-16.787l4.209-90.468c-.343.137-.719.27-1.089.403z" fill="#cba59d"/><g><path d="m386.888 214.044c-4.61 8.006-5.974 27.421-4.193 45.371 1.656 16.695 15.695 29.414 32.472 29.414h63.607c16.777 0 30.815-12.719 32.472-29.414 1.781-17.95.417-37.365-4.193-45.371-21.243-36.887-98.922-36.887-120.165 0z" fill="#eacfca"/><path d="m466.327 254.053c-9.312-2.636-29.401-2.636-38.713 0-11.802 3.34-23.133 22.964-23.133 31.31 0 9.867 26.151 24.063 42.49 24.063s42.49-14.196 42.49-24.063c-.001-8.347-11.332-27.97-23.134-31.31z" fill="#cba59d"/></g><path d="m310.512 252.848-27.762 15.586c34.759 32.846-25.627 76.169-62.973 106.809-19.787 16.233-16.112 27.28-2.239 25.008 56.986-9.333 128.774-24.506 141.064-51.757 12.29-27.252 1.069-63.052-48.09-95.646z" fill="#e4c2bb"/><path d="m328.58 266.385c19.604 23.521 22.606 46.899 13.968 66.054-11.53 25.565-75.425 40.5-130.338 49.957-10.832 12.188-6.392 19.774 5.327 17.854 56.986-9.333 128.774-24.506 141.064-51.757 10.608-23.52 3.677-53.408-30.021-82.108z" fill="#cba59d"/><path d="m79.351 246.3s-78.944 64.763-79.348 72.618c-.561 10.902 97.768 49.592 109.812-44.279z" fill="#e4c2bb"/><path d="m9.945 306.816c-5.985 5.916-9.854 10.378-9.943 12.101-.555 10.781 95.584 48.717 109.367-41.22-19.54 55.65-80.685 41.108-99.424 29.119z" fill="#cba59d"/><path d="m367.064 195.165c2.624 4.017 2.43 9.28-.616 12.987-21.509 26.172-93.04 38.147-154.51 38.147-61.196 0-116.925-8.798-157.698-40.616-3.655-2.859-7.195-5.896-10.61-9.132-11.688-11.1 1.252-22.032 17.076-18.428 6.277 1.43 12.842-.483 17.198-5.224 34.993-38.095 86.75-61.445 135.899-61.445 58.117-.001 119.896 32.643 153.261 83.711z" fill="#aad8de"/><path d="m168.766 156.737-57.62 77.418c-21.036-6.295-40.229-15.461-56.907-28.472-3.657-2.854-7.19-5.897-10.61-9.132-11.682-11.105 1.253-22.033 17.076-18.428 6.274 1.432 12.84-.485 17.198-5.224 20.377-22.18 46.429-39.361 74.337-49.828z" fill="#61aab8"/><path d="m366.456 208.143c-10.127 12.331-31.338 21.51-57.371 27.763l-54.269-79.169 17.14-34.905c37.993 13.444 72.865 39.286 95.107 73.333 2.627 4.018 2.432 9.279-.607 12.978z" fill="#61aab8"/><path d="m152.24 123.071 16.526 33.666h86.051l17.14-34.905c-19.001-6.73-38.78-10.378-58.155-10.378-20.538-.001-41.527 4.09-61.562 11.617z" fill="#94ccd4"/><path d="m357.485 181.978c-28.797 19.99-90.557 29.237-144.556 29.237-53.317 0-102.479-6.686-141.221-29.449-3.032-1.781-6.391-2.858-9.862-3.421-.381-.062-.762-.136-1.142-.222-15.824-3.604-28.764 7.328-17.076 18.428 3.414 3.236 6.955 6.273 10.61 9.132 40.773 31.818 96.502 40.616 157.698 40.616 61.463 0 132.993-11.98 154.51-38.147 3.049-3.708 3.242-8.968.616-12.987-2.969-4.547-6.178-8.942-9.577-13.187z" fill="#6fbbc6"/><path d="m366.447 208.152c-9.148 11.116-27.301 19.667-49.883 25.838l-13.743-31.534c22.375-4.77 41.807-11.546 54.663-20.478 3.4 4.244 6.611 8.644 9.578 13.187 2.628 4.028 2.434 9.278-.615 12.987z" fill="#94ccd4"/><path d="m204.007 211.14v35.109c-40.167-.525-77.758-5.172-110.023-18.059l13.351-30.627c29.081 9.436 61.903 13.073 96.672 13.577z" fill="#94ccd4"/><g fill="#8c818f"><path d="m412.207 240.146c-2.319 0-4.611-1.038-6.133-3.019l-3.017-3.927c-2.6-3.383-1.965-8.234 1.42-10.834 3.385-2.602 8.234-1.964 10.834 1.42l3.017 3.927c2.6 3.383 1.965 8.234-1.42 10.834-1.403 1.078-3.059 1.599-4.701 1.599z"/><path d="m481.731 240.146c-1.642 0-3.298-.521-4.7-1.599-3.384-2.6-4.02-7.451-1.422-10.834l3.016-3.927c2.6-3.383 7.451-4.021 10.834-1.422 3.384 2.6 4.02 7.451 1.422 10.834l-3.016 3.927c-1.522 1.982-3.815 3.021-6.134 3.021z"/></g></g></svg>