<svg id="Capa_1" enable-background="new 0 0 512 512" height="512" viewBox="0 0 512 512" width="512" xmlns="http://www.w3.org/2000/svg"><g><path d="m509.378 325.504c-7.889-4.582-33.051-16.41-44.81-27.111l-35.594 34.551c64.197 32.105 92.163-.612 80.404-7.44z" fill="#9bb9c3"/><path d="m485.639 270.629c-.337-2.313 3.543-8.309 2.928-10.456-24.798-86.647-270.676-39.492-370.303-34.619-7.997.391-14.692-5.979-14.692-13.985v-17.989c26.404-6.934 54.028-27.525 54.028-39.775 0-9.439-49.802-7.521-58.528-4.28-7.481 2.779-13.083 19.431-20.273 19.431s-12.792-16.653-20.273-19.431c-8.724-3.241-58.526-5.159-58.526 4.28 0 12.074 26.833 32.24 52.886 39.457v49.53c0 42.35 46.74 74.168 112.923 94.871 44.908 14.048 102.515 13.711 156.802 17.339 134.687 9.002 169.27-41.57 163.028-84.373z" fill="#9bb9c3"/><path d="m485.639 270.629c-.337-2.314 3.543-8.31 2.928-10.456-2.328-8.129-6.606-15.079-12.522-20.998.133.707.254 1.422.359 2.145 6.242 42.803-36.445 106.409-171.133 97.408-106.777-7.135-211.901-34.784-250.498-81.547 9.257 35.041 52.123 61.902 110.098 80.186 45.092 14.22 98.027 16.969 152.695 20.622 134.689 9.001 174.315-44.557 168.073-87.36z" fill="#87a0af"/><path d="m318.864 364.272c-54.282-3.629-108.151-12.556-153.055-26.608 64.724-6.309 121.561-54.632 134.452-68.655 14.671-15.958 26.294-19.481 40.665-13.007 60.824 27.397 111.467 30.049 147.641 4.171.62 2.149 1.092 4.375 1.431 6.689 6.242 42.804-36.441 106.41-171.134 97.41z" fill="#e1e1e1"/><path d="m489.998 266.862c-.291-1.981-.781-4.359-1.369-6.441-.023-.081-.048-.16-.071-.241-4.638 3.317-9.518 6.158-14.623 8.545-12.027 37.919-60.888 77.207-168.663 70.005-32.161-2.149-64.169-6.162-94.258-11.995-14.258 5.386-29.491 9.394-45.192 10.926 38.157 11.983 90.453 22.405 153.042 26.612 134.688 9 177.376-54.609 171.134-97.411z" fill="#cdcdcd"/><path d="m174.133 306.792c-9.435 41.74-81.242 45.035-104.828 27.066-15.438-11.761 57.655-19.927 63.945-40.797 6.29-20.869 47.35-14.879 40.883 13.731z" fill="#9bb9c3"/><path d="m261.011 267.864c-4.143 0-7.5-3.357-7.5-7.5v-6.965c0-4.143 3.357-7.5 7.5-7.5s7.5 3.357 7.5 7.5v6.965c0 4.142-3.358 7.5-7.5 7.5z" fill="#607882"/><g fill="#cdcdcd"><path d="m410.361 276.959c-4.578-.571-9.252-1.354-14.013-2.334-11.46 31.993-41.033 70.547-92.093 87.942-.387.132-.75.3-1.098.49 10.834.931 20.075 1.621 30.686 1.92 41.663-22.152 66.407-57.987 76.518-88.018z"/><path d="m459.616 274.045c-4.601 1.307-9.356 2.297-14.26 2.976-2.601 25.965-17.986 60.656-44.435 80.528-.84.631-1.491 1.418-1.957 2.287 10.607-2.248 20.16-5.147 28.74-8.554 19.797-23.351 30.646-53.562 31.912-77.237z"/><path d="m367.194 266.496c-4.314-1.495-8.69-3.133-13.123-4.91-7.572 16.957-20.89 33.488-38.906 48.193-22.845 18.645-51.647 33.238-85.626 43.433 9.531 1.773 19.241 3.366 29.079 4.777 25.084-9.85 47.008-22.354 65.398-37.364 19.979-16.304 34.763-34.884 43.178-54.129z"/></g><g fill="#bebebe"><path d="m455.176 299.334c-5.82 6.005-12.9 11.662-21.35 16.734-7.56 15.677-18.614 30.743-32.905 41.48-.84.631-1.491 1.419-1.957 2.287 11.162-2.367 22.522-5.988 28.74-8.554 13.216-15.587 22.421-34.229 27.472-51.947z"/><path d="m298.894 338.256c-8.392-.626-16.76-1.377-25.083-2.256-13.572 6.676-28.346 12.434-44.272 17.212.103.019 24.481 4.219 29.079 4.777 14.509-5.697 27.954-12.288 40.276-19.733z"/><path d="m348.341 339.079c-12.386 9.499-27.031 17.677-44.086 23.488-.387.132-.75.3-1.098.49 9.09.781 21.551 1.663 30.686 1.92 15-7.976 27.795-17.729 38.516-28.343-7.536 1.132-15.536 1.959-24.018 2.445z"/></g></g></svg>