<svg id="Capa_1" enable-background="new 0 0 512 512" height="512" viewBox="0 0 512 512" width="512" xmlns="http://www.w3.org/2000/svg"><g><path d="m9.845 380.466c-3.739 0-7.004-2.75-7.545-6.559-6.483-45.64 1.006-92.37 19.078-119.05 2.363-3.489 7.108-4.402 10.597-2.038 3.489 2.363 4.402 7.108 2.038 10.597-15.818 23.354-22.491 66.894-16.604 108.345.593 4.173-2.309 8.035-6.482 8.628-.363.051-.725.077-1.082.077z" fill="#655e67"/><path d="m392.339 430.32 33.175-171.098-111.814-82.891-188.894-5.385c-26.996-.77-52.856 10.871-70.18 31.59l-21.881 26.17c-16.093 19.247-20.764 45.583-12.269 69.19 13.896 38.619 33.333 95.489 33.333 95.489v77.092c0 7.866 6.377 14.243 14.243 14.243h81.29c4.14 0 7.412-3.516 7.095-7.644-.826-10.758-5.374-30.661-26.357-45.086 13.48-10.784 23.341-26.82 28.721-45.803 21.798 16.715 49.12 32.447 77.685 35.916 36.717 4.458 69.335-1.17 96.407-11.246 2.642 6.693 4.349 12.31 4.349 15.482v44.139c0 7.866 6.377 14.243 14.243 14.243h66.285c4.607 0 7.967-4.308 6.915-8.794-8.094-34.5-32.346-45.607-32.346-45.607z" fill="#a59da7"/><path d="m417.581 456.72h-57.87c-8.362 0-15.14-6.377-15.14-14.243v-44.139c0-3.171-1.814-8.791-4.622-15.484-28.777 10.076-63.451 15.704-102.481 11.246-30.365-3.468-59.409-19.201-82.58-35.916-5.719 18.983-16.2 35.02-30.529 45.803 7.689 4.973 13.3 10.596 17.39 16.272 7.595-9.489 13.373-21.091 17.052-34.074 21.798 16.715 49.12 32.447 77.685 35.916 36.717 4.458 69.335-1.17 96.407-11.246 2.642 6.693 4.349 12.31 4.349 15.482v44.139c0 7.866 6.377 14.243 14.243 14.243h66.285c4.607 0 7.967-4.308 6.915-8.794-1.75-7.454-4.254-13.811-7.104-19.205z" fill="#968d97"/><path d="m156.437 477.075c.312 4.128-2.957 7.644-7.095 7.644h-81.29c-7.869 0-14.243-6.374-14.243-14.243v-77.092s-13.556-39.655-26.112-75.227h131.977c10.675 46.816-1.73 91.547-29.594 113.832 20.984 14.427 25.529 34.326 26.357 45.086z" fill="#a59da7"/><path d="m130.08 431.989c25.816-20.647 38.361-60.561 31.577-103.55-.935-5.921-6.05-10.282-12.044-10.282-7.397 0-13.045 6.531-12.066 13.863 5.131 38.439-5.191 74.036-26.576 95.063-2.677 2.632-2.484 6.983.355 9.438 15.988 13.827 19.736 30.881 20.48 40.553.312 4.128-2.956 7.645-7.095 7.645h24.631c4.139 0 7.407-3.516 7.095-7.644-.828-10.76-5.373-30.659-26.357-45.086z" fill="#968d97"/><path d="m417.769 484.72h-66.285c-7.869 0-14.243-6.374-14.243-14.243v-44.139c0-8.159-11.298-32.532-20.768-49.7h86.269l-10.403 53.682s24.25 11.109 32.345 45.606c1.053 4.493-2.314 8.794-6.915 8.794z" fill="#a59da7"/><path d="m392.339 430.32 33.175-171.098-19.311-14.316-35.204 183.279c-.465 2.419.67 4.853 2.815 6.063 7.08 3.997 22.556 15.465 28.706 41.674 1.053 4.487-2.306 8.797-6.915 8.797h22.165c4.607 0 7.967-4.308 6.915-8.794-8.094-34.498-32.346-45.605-32.346-45.605z" fill="#968d97"/><path d="m441.906 72.283 58.619-43.571c4.742-3.525 11.475-.14 11.475 5.768v31.417c0 16.854-13.663 30.516-30.516 30.516h-39.578z" fill="#a59da7"/><path d="m321.561 72.283-58.619-43.571c-4.742-3.525-11.475-.14-11.475 5.768v31.417c0 16.854 13.662 30.516 30.516 30.516h39.578z" fill="#a59da7"/><path d="m477.318 108.55v115.375c0 44.207-35.832 80.039-80.027 80.039h-31.115c-44.196 0-80.027-35.832-80.027-80.039 0 0 0-74.811 0-115.386 0-18.055 22.786-45.592 37.914-55.453 35.984-23.455 79.363-23.463 115.341 0 15.132 9.868 37.914 37.399 37.914 55.464z" fill="#968d97"/><path d="m439.404 53.085c-5.324-3.472-10.814-6.417-16.414-8.861 14.841 11.583 33.952 36.062 33.952 52.608v115.375c0 44.207-35.832 80.039-80.027 80.039h-31.115c-10.313 0-20.16-1.973-29.213-5.526 13.637 10.787 30.855 17.243 49.59 17.243h31.115c44.196 0 80.027-35.832 80.027-80.039 0 0 0-77 0-115.375-.001-18.064-22.783-45.595-37.915-55.464z" fill="#766d78"/><path d="m381.733 115.625c-6.639 0-23.88 96.339-23.88 109.528 0 13.188 10.691 23.88 23.88 23.88 13.188 0 23.88-10.691 23.88-23.88s-17.241-109.528-23.88-109.528z" fill="#ffeee8"/><g fill="#655e67"><path d="m322.074 205.224c-4.215 0-7.631-3.416-7.631-7.631v-6.46c0-4.214 3.416-7.631 7.631-7.631s7.631 3.416 7.631 7.631v6.46c0 4.214-3.416 7.631-7.631 7.631z"/><path d="m441.388 205.224c-4.215 0-7.631-3.416-7.631-7.631v-6.46c0-4.214 3.416-7.631 7.631-7.631s7.631 3.416 7.631 7.631v6.46c0 4.214-3.416 7.631-7.631 7.631z"/></g></g></svg>