<svg id="Capa_1" enable-background="new 0 0 512 512" height="512" viewBox="0 0 512 512" width="512" xmlns="http://www.w3.org/2000/svg"><g><path d="m304.824 364.024c-4.168-1.498-8.163-3.093-12.006-4.777 2.355-.845 4.712-1.694 7.088-2.585l86.039-148.668-11.121-67.549c-96.733 57.222-267.391-93.905-348.794 40.5-51.313 84.723-29.498 221.407 89.948 221.407 22.619 0 34.557-9.871 33.614-20.733 26.678 2.749 56.322.642 88.443-6.401 14.81 11.362 32.385 20.729 52.695 28.028 2.328.837 4.707 1.234 7.046 1.234 8.543 0 16.556-5.295 19.612-13.798 3.892-10.83-1.733-22.765-12.564-26.658z" fill="#ffeed2"/><path d="m117.901 123.812c-35.647 2.484-67.695 17.216-91.871 57.133-27.566 45.514-34.013 106.015-15.571 152.273 10.174-64.07 110.846-111.299 107.442-209.406z" fill="#e69642"/><path d="m374.824 140.446c-44.851 26.531-105.594 8.273-165.964-5.548-13.977 101.144 51.974 162.288 98.774 208.411l78.31-135.314z" fill="#e69642"/><g fill="#f4dabd"><path d="m238.004 375.221c-32.113 7.043-61.749 9.149-88.413 6.398-1.032-11.816-17.333-24.834-51.78-27.542 5.772-2.386 11.012-5.217 15.732-8.406 32.717 7.888 67.716 11.805 99.058 4.772 7.273 9.097 15.744 17.36 25.403 24.778z"/><path d="m97.811 354.077c49.148-20.3 60.399-73.214 29.435-102.511-2.187-2.069-5.193-3.045-8.174-2.625-6.846.965-10.638 8.539-7.202 14.538 15.748 27.494 2.119 65.266-31.604 89.875-2.456 1.792-1.52 5.655 1.474 6.181 52.402 9.203 54.546 37.386 20.043 42.131 4.57.447 9.296.685 14.193.685 47.25.001 47.926-43.064-18.165-48.274z"/><path d="m464.775 404.48c-2.339 0-4.718-.397-7.046-1.234-52.014-18.692-86.175-50.884-101.533-95.68-3.732-10.887 2.068-22.739 12.954-26.471 10.89-3.733 22.739 2.069 26.471 12.954 11.206 32.686 36.132 55.575 76.203 69.976 10.831 3.892 16.455 15.828 12.563 26.658-3.055 8.502-11.068 13.797-19.612 13.797z"/></g><g fill="#e38523"><path d="m269.908 112.617c-14.637 13.338-13.364 56.868 30.865 51.904l30.865-33.602c-22.911-16.419-47.093-31.641-61.73-18.302z"/><path d="m489.986 112.617c14.637 13.338 13.364 56.868-30.865 51.904l-30.865-33.602c22.91-16.419 47.093-31.641 61.73-18.302z"/></g><path d="m379.947 122.616c-6.775 0-13.521-9.352-19.899-8.276-14.461 2.439-27.039 7.081-33.812 11.374-52.454 33.243-92.548 145.721-73.543 207.407 9.295 30.168 38.44 39.874 66.985 40.243 25.321.327 50.17-26.693 60.269-33.297 10.099 6.603 34.948 33.624 60.269 33.297 28.544-.369 57.69-10.075 66.984-40.243 19.005-61.686-21.089-174.164-73.543-207.407-6.679-4.233-19.632-8.805-33.807-11.271-6.539-1.138-13.339 8.173-19.903 8.173z" fill="#ecb880"/><path d="m433.658 125.714c-6.679-4.233-19.632-8.805-33.807-11.271-6.54-1.138-13.341 1.173-19.904 1.173-5.287 0-10.547.398-15.637 1.083 14.314 1.951 27.979 3.258 36.02 7.515.948.502 1.818 1.003 2.601 1.5 52.454 33.244 92.548 145.721 73.543 207.407-7.862 25.517-29.927 36.389-53.817 39.36 33.113 3.668 73.315-2.913 84.544-39.36 19.005-61.686-21.09-174.163-73.543-207.407z" fill="#e9a761"/><path d="m426.225 256.77c-12.143-5.082-20.274-16.702-20.913-29.85l-5.462-112.476c-6.54-1.138-13.34-1.828-19.904-1.828-6.776 0-13.52.65-19.899 1.726l-5.467 112.578c-.639 13.148-8.77 24.768-20.913 29.85-28.976 12.127-48.562 35.288-48.562 61.87 0 22.037 13.46 41.723 34.571 54.722 25.321.327 50.17-6.692 60.269-13.295 10.099 6.603 34.948 13.622 60.269 13.295 21.111-12.998 34.571-32.685 34.571-54.722.002-26.581-19.584-49.742-48.56-61.87z" fill="#fcf3e3"/><g fill="#f8e7c7"><path d="m440.23 373.354c5.93-3.653 11.257-7.834 15.85-12.446-9.576 6.492-21.25 10.057-33.402 11.57 6.121.672 11.856.944 17.552.876z"/><path d="m364.445 113.682c-.044.006-.092.012-.135.018 14.319 1.953 27.978 6.264 36.016 10.523l-.475-9.777-.011-.002c-12.407-2.159-23.328-2.369-35.395-.762z"/></g><path d="m425.113 296.927c0 12.631-19.407 24.955-43.346 24.955s-43.346-12.324-43.346-24.955 19.407-14.535 43.346-14.535 43.346 1.904 43.346 14.535z" fill="#e5936a"/><g fill="#523939"><path d="m322.501 207.293c-4.143 0-7.5-3.357-7.5-7.5v-3.822c0-4.143 3.357-7.5 7.5-7.5s7.5 3.357 7.5 7.5v3.822c0 4.143-3.357 7.5-7.5 7.5z"/><path d="m441.033 207.293c-4.143 0-7.5-3.357-7.5-7.5v-3.822c0-4.143 3.357-7.5 7.5-7.5s7.5 3.357 7.5 7.5v3.822c0 4.143-3.357 7.5-7.5 7.5z"/></g></g></svg>