<svg id="Capa_1" enable-background="new 0 0 512 512" height="512" viewBox="0 0 512 512" width="512" xmlns="http://www.w3.org/2000/svg"><g><path d="m352.856 238.807-60.411-89.427c-13.857 17.925-76.286 39.97-120.33 39.97-31.92 0-79.446-12.907-118.166 2.937-14.707 6.018-20.012 23.649-30.84 40.246-24.028 36.828-22.641 54.18-11.593 68.558 7.04 9.161 14.7 14.085 14.7 15.179 0 2.541 0 20.018-8.831 27.495-1.906 1.614-2.975 3.996-2.76 6.484 1.939 22.502 9.046 82.251 11.474 102.478.466 3.885 3.761 6.804 7.674 6.804h36.404c4.604 0 7.56-4.891 5.419-8.967l-9.087-17.305c-.628-1.196-.965-2.525-.984-3.876l-.675-49.893s29.442-12.379 45.408-39.789c40.779 14.321 84.254 6.289 141.343-4.084l21.124 117.552c.662 3.683 3.866 6.363 7.608 6.363h34.806c4.575 0 7.533-4.836 5.449-8.909l-11.608-22.693c-.708-1.384-1.027-2.935-.923-4.487l6.771-100.508c34.552-17.814 38.028-84.128 38.028-84.128z" fill="#b79090"/><path d="m292.448 149.378.21.305c-.273-.021-.357-.116-.21-.305z" fill="#dc805a"/><path d="m314.833 322.932-6.775 100.506c-.105 1.554.221 3.109.924 4.485l11.607 22.7c2.08 4.076-.872 8.908-5.452 8.908h-18.992c4.58 0 7.532-4.832 5.452-8.908l-11.607-22.7c-.714-1.376-1.029-2.931-.924-4.485l6.366-115.16c34.549-17.815 38.436-69.476 38.436-69.476l3.96-22.259 15.032 22.259c-.002 0-3.478 66.315-38.027 84.13z" fill="#aa7f7f"/><path d="m50.889 245.132c-9.612 25.6-29.834 39.785-39.374 55.96-11.044-14.381-20.562-39.199 3.461-76.028 10.827-16.596 24.271-26.764 38.972-32.78 5.358 18.202 2.803 37.219-3.059 52.848z" fill="#ffdcce"/><path d="m251.607 335.611c-57.091 10.378-100.569 18.414-141.347 4.086 4.296-7.364 7.605-15.809 9.107-25.4 36.986 9.979 76.808 3.151 127.324-6.019z" fill="#aa7f7f"/><path d="m106.757 277.659c-5.736.884-9.575 6.291-8.646 12.021 8.381 51.696-35.934 71.804-50.061 76.845-2.524.901-4.199 3.292-4.174 5.972l.53 56.887c.018 1.351.355 2.679.984 3.876l9.087 17.305c2.14 4.076-.815 8.966-5.417 8.967h21.119c4.604 0 7.56-4.891 5.419-8.967l-9.087-17.305c-.628-1.196-.965-2.524-.983-3.875l-.675-49.893s67.012-28.152 53.667-93.615c-1.109-5.439-6.279-9.063-11.763-8.218z" fill="#aa7f7f"/><path d="m281.419 129.533c-13.86-14.731-33.987-16.954-51.095-9.717-.924.391-1.404 1.433-1.11 2.393 8.081 26.372 27.19 31.799 57.601 20.297z" fill="#b79090"/><path d="m402.697 129.533c13.86-14.731 33.987-16.954 51.095-9.717.924.391 1.404 1.433 1.11 2.393-8.081 26.372-27.19 31.799-57.601 20.297z" fill="#b79090"/><path d="m374.453 89.453h-64.79c-33.73 0-37.735 44.945-35.153 58.216 3.365 17.296 9.211 51.032 30.951 85.189h73.194c21.74-34.157 27.586-67.893 30.951-85.189 2.582-13.271-1.423-58.216-35.153-58.216z" fill="#c4a3a3"/><path d="m379.315 223.524-10.871-13.915h-52.714l-10.871 13.915c-2.414 3.09-2.563 7.385-.369 10.635l5.979 8.856c5.452 8.076 14.56 12.916 24.303 12.916h14.627c9.744 0 18.851-4.84 24.303-12.916l5.979-8.856c2.197-3.25 2.048-7.545-.366-10.635z" fill="#ffdcce"/><path d="m352.196 193.082h-20.218c-2.105 0-4.093.97-5.389 2.629l-10.859 13.899 19.247 13.248c4.282 2.947 9.938 2.947 14.22 0l19.247-13.248-10.859-13.899c-1.296-1.66-3.283-2.629-5.389-2.629z" fill="#9d6c6c"/><path d="m228.878 54.551c-25.481 6.635-47.37 26.895-54.395 52.272-7.313 26.419 2.641 56.778 25.345 72.477 6.012 4.157 12.736 7.304 19.831 9.092 4.607 1.161 6.245 2.161 7.395-2.674.649-2.725 1.032-5.553 1.401-8.375.397-3.04-1.118-6.059-3.869-7.412-14.518-7.138-24.658-22.863-24.5-39.119.149-15.375 9.183-30.259 22.56-37.839 24.674-13.981 53.793-1.521 69.418 19.732 3.447 4.689 8.758 7.65 14.575 7.83.384.012.775.023 1.171.034 14.986.412 24.535-16.049 16.545-28.735-20.132-31.966-66.692-44.778-95.477-37.283z" fill="#e7dad7"/><path d="m455.238 54.551c25.481 6.635 47.37 26.895 54.395 52.272 7.313 26.419-2.641 56.778-25.345 72.477-6.012 4.157-12.736 7.304-19.831 9.092-4.607 1.161-6.245 2.161-7.395-2.674-.649-2.725-1.032-5.553-1.401-8.375-.397-3.04 1.118-6.059 3.869-7.412 14.518-7.138 24.658-22.863 24.5-39.119-.149-15.375-9.183-30.259-22.56-37.839-24.674-13.981-53.793-1.521-69.418 19.732-3.447 4.689-8.758 7.65-14.575 7.83-.384.012-.775.023-1.171.034-14.986.412-24.535-16.049-16.545-28.735 20.132-31.966 66.692-44.778 95.477-37.283z" fill="#e7dad7"/><g fill="#785252"><path d="m303.426 158.088c-4.267 0-7.726-3.459-7.726-7.726v-2.326c0-4.268 3.459-7.726 7.726-7.726s7.726 3.459 7.726 7.726v2.326c.001 4.267-3.459 7.726-7.726 7.726z"/><path d="m381.851 158.088c-4.267 0-7.726-3.459-7.726-7.726v-2.326c0-4.268 3.459-7.726 7.726-7.726s7.726 3.459 7.726 7.726v2.326c0 4.267-3.459 7.726-7.726 7.726z"/></g></g></svg>