<svg id="Capa_1" enable-background="new 0 0 512 512" height="512" viewBox="0 0 512 512" width="512" xmlns="http://www.w3.org/2000/svg"><g><path d="m55.557 252.362c-8.37-28.596-37.83 10.24-19.751 36.501 21.922 31.843 51.553 4.877 51.553 4.877l8.041-19.324c-16.859 8.74-33.381.021-39.843-22.054z" fill="#dcd2cd"/><path d="m317.295 139.465v110.786c0 5.449-4.96 9.544-10.313 8.522-36.897-7.044-162.93-27.383-215.329 11.855-19.574 14.67-54.086 62.234-20.513 114.454 27.856 43.33 22.974 96.035 28.485 117.02 1.535 5.841 6.831 9.898 12.858 9.898h34.644c6.871 0 11.445-7.084 8.622-13.347l-9.539-21.161v-44.846s33.883-2.461 40.301-34.664c45.699 18.78 88.946.464 135.006-14.216 7.459 38.23 12.868 94.674 15.155 116.338.722 6.756 6.428 11.896 13.227 11.896h28.084c7.211 0 11.765-7.757 8.262-14.061l-4.976-8.942 9.972-128.001c16.442-11.796 24.055-29.618 27.527-47.646 2.38-12.321 2.813-24.724 2.813-35.356v-138.529z" fill="#ebe1dc"/><g fill="#dcd2cd"><path d="m316.183 360.028c1.762 7.149 3.451 15.226 5.038 23.828-45.946 14.67-89.112 32.863-134.708 14.124 1.308-6.531 1.485-14.278.022-23.478 43.803 15.587 85.618-.093 129.648-14.474z"/><path d="m169.113 351.178c-5.16 1.786-8.109 7.25-6.702 12.525 3.761 14.104 4.103 25.34 2.32 34.277-4.493 22.543-22.443 25.968-32.809 25.995-4.127.011-7.492 3.299-7.492 7.427v46.089l9.538 21.161c2.823 6.263-1.751 13.348-8.622 13.348h21.783c6.866 0 11.444-7.088 8.622-13.347l-9.539-21.161v-44.846s33.883-2.461 40.301-34.664c2.022-10.128 1.326-23.198-3.993-40.058-1.773-5.621-7.84-8.673-13.407-6.746z"/><path d="m398.235 139.465v138.529c0 10.631-.433 23.035-2.812 35.356-3.472 18.028-11.085 35.85-27.526 47.646l-9.972 128 4.976 8.942c3.503 6.304-1.051 14.061-8.262 14.061h23.346c7.211 0 11.765-7.757 8.262-14.061l-4.976-8.942 9.972-128.001c16.442-11.796 24.055-29.618 27.527-47.646 2.38-12.321 2.813-24.724 2.813-35.356v-138.528z"/></g><path d="m481.959 34.508c-.508-76.665-35.464-3.29-54.797 7.998l13.932 18.576c.001.001 41.019-3.353 40.865-26.574z" fill="#ebe1dc"/><path d="m256.917 34.508c.508-76.665 35.465-3.29 54.798 7.998l-13.932 18.576c-.001.001-41.02-3.353-40.866-26.574z" fill="#ebe1dc"/><path d="m431.182 30.542c-1.721 0-3.381.262-4.945.741-4.091-6.627-11.418-11.05-19.778-11.05-2.491 0-4.889.397-7.139 1.123-6.364-9.756-17.368-16.207-29.885-16.207s-23.515 6.451-29.88 16.207c-2.25-.726-4.648-1.123-7.139-1.123-8.36 0-15.687 4.423-19.778 11.05-1.564-.479-3.224-.741-4.945-.741-9.306 0-16.85 7.54-16.85 16.846v51.452h157.187v-51.451c0-9.306-7.543-16.847-16.848-16.847z" fill="#f0e9e6"/><path d="m441.597 87.043c3.275-.762 6.433 1.599 6.433 4.962v26.317c0 13.753-7.52 25.755-18.667 32.121-2.836 1.62-4.553 4.667-4.553 7.932v16.586c0 15.288-6.202 29.133-16.215 39.157-9.941 9.941-23.641 16.113-38.779 16.214-30.664.205-55.751-25.684-55.751-56.349v-15.609c0-3.266-1.72-6.315-4.564-7.933-11.147-6.366-18.658-18.368-18.658-32.121v-26.315c0-3.363 3.159-5.724 6.435-4.962 1.541.359 3.147.548 4.795.548 6.011 0 11.431-2.508 15.281-6.536.836-.875 2.27-.876 3.107-.001 3.856 4.029 9.277 6.537 15.289 6.537 6.011 0 11.439-2.507 15.29-6.535.837-.875 2.271-.875 3.107 0 3.851 4.028 9.279 6.535 15.29 6.535 6.012 0 11.433-2.508 15.289-6.537.837-.875 2.271-.874 3.107.001 3.849 4.028 9.269 6.536 15.281 6.536 6.011 0 11.439-2.507 15.29-6.535.837-.875 2.271-.875 3.107 0 3.851 4.028 9.279 6.535 15.29 6.535 1.649 0 3.254-.189 4.796-.548z" fill="#b5adb7"/><path d="m399.789 173.926c-4.034-1.393-8.432.746-9.827 4.779-1.063 3.077-3.938 5.286-7.146 5.494-2.092.141-4.075-.492-5.658-1.773v-20.286c0-4.268-3.459-7.726-7.726-7.726s-7.726 3.459-7.726 7.726v20.287c-1.439 1.157-3.214 1.79-5.09 1.79-3.479 0-6.576-2.209-7.706-5.498-1.386-4.035-5.784-6.184-9.818-4.796-4.035 1.386-6.183 5.783-4.796 9.818 3.275 9.527 12.243 15.929 22.32 15.929 4.626 0 9.047-1.321 12.831-3.782 4.219 2.723 9.245 4.058 14.363 3.732 9.491-.616 17.639-6.843 20.758-15.866 1.393-4.035-.746-8.434-4.779-9.828z" fill="#8c818f"/><path d="m332.593 132.443c-4.268 0-7.726-3.459-7.726-7.726v-4.839c0-4.268 3.459-7.726 7.726-7.726s7.726 3.459 7.726 7.726v4.839c0 4.267-3.459 7.726-7.726 7.726z" fill="#766d78"/><path d="m406.274 132.443c-4.268 0-7.726-3.459-7.726-7.726v-4.839c0-4.268 3.459-7.726 7.726-7.726 4.268 0 7.726 3.459 7.726 7.726v4.839c0 4.267-3.458 7.726-7.726 7.726z" fill="#766d78"/><path d="m369.435 125.875c-12.043 0-21.841 9.798-21.841 21.841v8.446c0 6.136 4.991 11.127 11.127 11.127h21.429c6.136 0 11.127-4.991 11.127-11.127v-8.446c-.001-12.043-9.799-21.841-21.842-21.841z" fill="#a29aa5"/></g></svg>