<svg id="Capa_1" enable-background="new 0 0 512 512" height="512" viewBox="0 0 512 512" width="512" xmlns="http://www.w3.org/2000/svg"><g><path d="m113.47 234.438v195.98h285.06v-195.98l-142.53-10z" fill="#785252"/><path d="m66.594 215.527v-28.66c0-10.444 8.467-18.911 18.911-18.911h340.991c10.444 0 18.911 8.467 18.911 18.911v28.66c0 10.444-8.467 18.911-18.911 18.911h-340.991c-10.445 0-18.911-8.466-18.911-18.911z" fill="#e5936a"/><path d="m426.495 217.557h-340.99c-10.444 0-18.911-8.467-18.911-18.911v16.881c0 10.444 8.467 18.911 18.911 18.911h340.991c10.444 0 18.911-8.467 18.911-18.911v-16.881c-.001 10.444-8.467 18.911-18.912 18.911z" fill="#c77e67"/><path d="m471.953 512h-55.588c-2.549 0-4.683-1.913-4.963-4.446-3.394-30.758-15.578-65.739-40.703-91.942-.644 33.115-5.158 70.291-14.811 96.389h-199.776c-9.653-26.097-14.168-63.274-14.811-96.389-25.125 26.203-37.309 61.185-40.703 91.942-.28 2.533-2.414 4.446-4.963 4.446h-55.588c-2.644 0-4.824-2.062-4.993-4.701-11.509-179.553 89.752-232.147 136.804-232.147h168.284c47.052 0 148.313 52.593 136.804 232.147-.169 2.639-2.349 4.701-4.993 4.701z" fill="#81a9c8"/><path d="m340.142 275.153h-25.959c47.461 0 150.074 53.51 136.479 236.847h21.291c2.644 0 4.824-2.062 4.993-4.701 11.509-179.553-89.752-232.146-136.804-232.146z" fill="#5d91b9"/><path d="m219.305 220.68-13.149 59.196c-1.666 7.501 1.069 15.299 7.057 20.114l10.436 8.393c18.984 15.268 46.035 15.268 65.019 0l10.436-8.393c5.988-4.816 8.724-12.613 7.057-20.114l-13.149-59.196z" fill="#ebae9d"/><path d="m368.136 146.132h-223.954c-10.141 0-18.362 8.221-18.362 18.361v6.926c0 10.14 8.221 18.361 18.362 18.361h223.955c10.141 0 18.362-8.221 18.362-18.361v-6.926c-.001-10.14-8.222-18.361-18.363-18.361z" fill="#ebae9d"/><path d="m173.814 90.063v92.883c0 34.12 27.66 61.78 61.78 61.78h41.131c34.12 0 61.78-27.66 61.78-61.78v-92.883c0-23.549-19.09-42.639-42.639-42.639h-79.414c-23.548 0-42.638 19.09-42.638 42.639z" fill="#ffcdbe"/><path d="m346.593 76.871v25.724c-57.557-25.366-123.638-25.366-181.187 0v-25.724c.001-42.454 34.417-76.871 76.872-76.871h27.444c42.455 0 76.871 34.416 76.871 76.871z" fill="#a29aa5"/><path d="m269.722 0h-26.461c42.455 0 76.871 34.417 76.871 76.871v16.021c8.973 2.666 17.815 5.892 26.461 9.703v-25.724c0-42.454-34.416-76.871-76.871-76.871z" fill="#8c818f"/><path d="m358.88 125.053c-2.186 0-4.403-.513-6.474-1.597-3.502-1.833-7.088-3.576-10.66-5.181-54.505-24.622-116.994-24.624-171.469-.011-3.596 1.617-7.182 3.36-10.684 5.192-6.845 3.582-15.298.936-18.881-5.909-3.582-6.845-.937-15.298 5.909-18.881 3.993-2.089 8.085-4.078 12.162-5.91 61.771-27.907 132.655-27.908 194.458.011 4.052 1.821 8.144 3.81 12.137 5.899 6.846 3.583 9.492 12.036 5.909 18.881-2.498 4.774-7.367 7.506-12.407 7.506z" fill="#b5adb7"/><path d="m355.376 263.382h-10.617c-4.907 0-8.688 4.347-7.982 9.203 12.118 83.337 11.996 163.237-1.386 239.415h32.71c5.497 0 10.277-3.788 11.526-9.141 16.987-72.775 17.631-145.55 1.93-218.324-2.661-12.336-13.561-21.153-26.181-21.153z" fill="#8c818f"/><path d="m156.624 263.382h10.617c4.907 0 8.688 4.347 7.982 9.203-12.118 83.337-11.996 163.237 1.386 239.415h-32.709c-5.497 0-10.277-3.788-11.526-9.141-16.987-72.775-17.631-145.55-1.93-218.324 2.66-12.336 13.56-21.153 26.18-21.153z" fill="#8c818f"/><g fill="#766d78"><path d="m256.211 203.358c-11.306 0-22.029-2.938-30.195-8.271-3.573-2.333-4.577-7.121-2.244-10.693 2.333-3.574 7.122-4.578 10.693-2.244 5.602 3.658 13.527 5.756 21.746 5.756s16.146-2.098 21.747-5.756c3.571-2.333 8.36-1.329 10.693 2.244 2.333 3.572 1.329 8.36-2.244 10.693-8.166 5.334-18.89 8.271-30.196 8.271z"/><g><path d="m211.175 157.216c-4.268 0-7.726-3.459-7.726-7.726v-5.35c0-4.268 3.459-7.726 7.726-7.726s7.726 3.459 7.726 7.726v5.35c0 4.268-3.458 7.726-7.726 7.726z"/><path d="m301.249 157.216c-4.268 0-7.726-3.459-7.726-7.726v-5.35c0-4.268 3.459-7.726 7.726-7.726s7.726 3.459 7.726 7.726v5.35c0 4.268-3.459 7.726-7.726 7.726z"/></g></g></g></svg>