<svg id="Capa_1" enable-background="new 0 0 512 512" height="512" viewBox="0 0 512 512" width="512" xmlns="http://www.w3.org/2000/svg"><g><path d="m424.41 478.76c-4.143 0-7.5-3.357-7.5-7.5v-168.406c0-4.143 3.357-7.5 7.5-7.5s7.5 3.357 7.5 7.5v168.406c0 4.142-3.357 7.5-7.5 7.5z" fill="#8c818f"/><g fill="#c77e67"><path d="m220.687 209.686 7.032-14.392c1.576-3.226.239-7.117-2.986-8.693-3.227-1.578-7.118-.239-8.693 2.986l-5.169 10.578-12.775-12.391c-2.578-2.5-6.693-2.438-9.191.141-2.499 2.577-2.437 6.691.141 9.191l24.618 23.878c1.107 1.069 1.717 2.506 1.717 4.046v28.21c0 3.59 2.91 6.5 6.5 6.5s6.5-2.91 6.5-6.5v-28.21c0-5.022-2.071-9.905-5.675-13.387z"/><path d="m296.547 187.916c-2.499-2.577-6.612-2.642-9.191-.143l-12.78 12.39-5.167-10.577c-1.575-3.225-5.466-4.563-8.693-2.986-3.226 1.575-4.563 5.468-2.986 8.693l7.029 14.388-2.025 1.964c-3.599 3.492-5.662 8.371-5.662 13.385v28.21c0 3.59 2.91 6.5 6.5 6.5s6.5-2.91 6.5-6.5v-28.21c0-1.541.609-2.982 1.714-4.054l5.34-5.177c.005-.005.01-.009.014-.014l19.265-18.678c2.576-2.499 2.641-6.614.142-9.191z"/></g><g><g fill="#e69642"><path d="m219.018 347.513h47.412v108.244h-47.412z"/><path d="m269.829 264.905 36.148-26.868c2.924-2.174 7.076-.086 7.076 3.557v19.374c0 10.393-8.425 18.818-18.818 18.818h-24.406z"/><path d="m215.618 264.905-36.148-26.868c-2.924-2.174-7.076-.086-7.076 3.557v19.374c0 10.393 8.425 18.818 18.818 18.818h24.406z"/></g><path d="m286.653 274.933v53.024c0 8.061-2.592 15.516-6.989 21.577-6.684 9.215-17.538 5.207-29.791 5.207h-14.3c-13.398 0-25.123 2.835-31.553-7.874-3.318-5.526-5.226-11.995-5.226-18.911 0 0 0-34.382 0-53.03 0-8.298 10.472-20.953 17.425-25.485 16.538-10.779 36.474-10.783 53.009 0 6.954 4.537 17.425 17.19 17.425 25.492z" fill="#ecb880"/><path d="m239.624 326.772c-10.519 0-20.469 1.523-29.319 4.235-6.696 2.052-9.886 9.854-6.281 15.859 6.429 10.71 18.152 17.876 31.55 17.876h14.3c12.253 0 23.102-5.996 29.783-15.213 4.185-5.774 1.692-13.949-4.957-16.526-10.192-3.949-22.206-6.231-35.076-6.231z" fill="#ffe3cc"/></g><path d="m72.315 343.22h32.506v104.09h-32.506z" fill="#e29576"/><path d="m164.632 350.829-32.79-49.157c-1.895-2.841-.874-6.7 2.178-8.232l15.253-7.659c4.889-2.455 6.524-8.636 3.488-13.187l-53.555-80.289c-5.062-7.589-16.214-7.589-21.276 0l-53.555 80.289c-3.035 4.551-1.4 10.732 3.488 13.187l15.254 7.659c3.052 1.532 4.073 5.391 2.178 8.232l-32.79 49.157c-4.027 6.037.301 14.127 7.558 14.127h137.013c7.255 0 11.583-8.089 7.556-14.127z" fill="#6fbbc6"/><path d="m164.632 350.829-32.79-49.157c-1.895-2.841-.874-6.7 2.178-8.232l15.253-7.659c4.888-2.455 6.523-8.636 3.488-13.187l-53.555-80.289c-5.01-7.51-15.974-7.576-21.107-.222l51.141 78.411c3.035 4.654 1.401 10.976-3.488 13.486l-15.253 7.833c-3.052 1.567-4.073 5.514-2.177 8.419l32.79 50.275c4.027 6.174-.301 14.448-7.558 14.448h23.522c7.255.001 11.583-8.088 7.556-14.126z" fill="#61aab8"/><path d="m213.969 471.262h-192.69c7.44-32.65 36.64-57.01 71.54-57.01h49.6c34.91 0 64.11 24.36 71.55 57.01z" fill="#94ccd4"/><path d="m391.469 471.262h-289.755c3.627-24.099 24.419-42.571 49.534-42.571 4.081 0 8.036.503 11.837 1.422 5.512-21.682 25.154-37.716 48.547-37.716 16.247 0 30.676 7.737 39.834 19.719 8.646-15.028 24.854-25.154 43.432-25.154 22.127 0 40.878 14.342 47.522 34.225 27.184.561 49.049 22.755 49.049 50.075z" fill="#67b59f"/><path d="m320.706 428.228c24.126.557 44.049 17.809 48.229 43.035h22.534c0-27.32-21.866-49.514-49.05-50.075-6.644-19.883-25.396-34.225-47.522-34.225-3.984 0-7.857.469-11.572 1.349 17.577 4.709 31.781 21.176 37.381 39.916z" fill="#56988c"/><path d="m501.039 176.696v59.714c0 42.253-33.799 77.275-76.051 77.584-42.585.312-77.199-34.11-77.199-76.623v-60.674c0-4.369 3.11-8.123 7.406-8.918 23.824-4.407 46.217-14.677 63.418-29.293 3.34-2.838 8.282-2.838 11.622-.001 17.205 14.615 39.585 24.88 63.401 29.292 4.294.797 7.403 4.551 7.403 8.919z" fill="#e27f86"/><path d="m493.636 167.778c-4.325-.801-8.6-1.801-12.808-2.979 1.7 1.716 2.731 4.074 2.731 6.636v62.002c0 40.6-30.061 74.745-69.312 79.872 3.513.466 7.095.712 10.741.685 42.252-.309 76.051-35.331 76.051-77.584v-59.714c0-4.368-3.109-8.122-7.403-8.918z" fill="#cd5668"/><g fill="#766d78"><path d="m227.017 310.354c-4.143 0-7.5-3.357-7.5-7.5v-2.969c0-4.143 3.357-7.5 7.5-7.5s7.5 3.357 7.5 7.5v2.969c0 4.143-3.358 7.5-7.5 7.5z"/><path d="m258.428 310.354c-4.143 0-7.5-3.357-7.5-7.5v-2.969c0-4.143 3.357-7.5 7.5-7.5s7.5 3.357 7.5 7.5v2.969c0 4.143-3.358 7.5-7.5 7.5z"/></g><path d="m457.769 245.565c-5.968-2.868-8.784-6.421-11.766-10.184-4.208-5.31-8.978-11.328-21.587-11.328s-17.379 6.019-21.587 11.328c-2.98 3.763-5.797 7.315-11.763 10.183-4.044 1.941-6.244 6.396-5.353 10.831 3.646 18.148 25.813 20.858 38.702 20.858s35.057-2.71 38.703-20.859c.891-4.435-1.309-8.887-5.349-10.829z" fill="#ffe3cc"/><g fill="#ffe3cc"><path d="m442.073 212.38c-.979 0-1.974-.193-2.932-.601-3.687-1.568-5.468-5.738-4.115-9.459.293-1.461.541-7.28-.563-13.164-.765-4.07 1.917-7.99 5.988-8.754 4.069-.764 7.99 1.916 8.754 5.988 1.337 7.125 1.617 17.086-.228 21.423-1.212 2.854-3.986 4.567-6.904 4.567zm-6.897-10.438c-.03.07-.064.15-.098.24.031-.079.064-.161.098-.24z"/><path d="m406.76 212.38c-2.918 0-5.691-1.712-6.905-4.566-1.845-4.337-1.564-14.298-.228-21.423.764-4.071 4.686-6.753 8.754-5.988 4.071.764 6.753 4.684 5.988 8.754-1.104 5.884-.855 11.703-.563 13.164 1.353 3.721-.429 7.891-4.115 9.459-.957.407-1.953.6-2.931.6zm6.897-10.438c.034.079.066.16.098.24-.033-.089-.067-.169-.098-.24z"/><path d="m467.591 232.554c-1.404 0-2.824-.394-4.089-1.218-3.47-2.263-4.449-6.909-2.188-10.379 1.941-2.978 3.085-7.558 2.82-9.023-1.248-3.912.885-8.108 4.792-9.399 3.935-1.301 8.175.836 9.475 4.768 2.399 7.261-1.39 17.043-4.521 21.847-1.438 2.204-3.839 3.404-6.289 3.404zm-3.436-20.555c.002.003.003.006.004.01-.001-.004-.002-.007-.004-.01z"/><path d="m381.241 232.554c-2.45 0-4.852-1.199-6.29-3.405-3.132-4.805-6.92-14.588-4.52-21.848 1.301-3.933 5.546-6.063 9.476-4.767 3.908 1.293 6.04 5.489 4.791 9.4-.266 1.466.878 6.045 2.819 9.022 2.262 3.47 1.282 8.116-2.188 10.379-1.263.824-2.683 1.219-4.088 1.219zm3.439-20.562c-.002.006-.004.012-.006.018.002-.006.004-.012.006-.018z"/></g><path d="m504.5 478.763h-497c-4.143 0-7.5-3.357-7.5-7.5s3.357-7.5 7.5-7.5h497c4.143 0 7.5 3.357 7.5 7.5s-3.357 7.5-7.5 7.5z" fill="#c77e67"/><g fill="#8c818f"><path d="m298.661 81.898c-.005 0-.009 0-.014 0-3.137-.004-6.076-1.392-8.065-3.809-3.488-4.222-8.637-6.649-14.116-6.649-4.081 0-7.943 1.317-11.17 3.811-3.277 2.532-7.988 1.929-10.521-1.349s-1.929-7.988 1.349-10.521c5.877-4.541 12.911-6.941 20.342-6.941 8.273 0 16.129 3.039 22.195 8.47 6.059-5.429 13.915-8.47 22.193-8.47 7.439 0 14.476 2.401 20.346 6.944 3.276 2.535 3.877 7.246 1.342 10.521-2.537 3.277-7.245 3.876-10.521 1.342-3.219-2.491-7.08-3.808-11.166-3.808-5.48 0-10.625 2.426-14.114 6.655-2.003 2.422-4.944 3.804-8.08 3.804zm3.482-13.366c.004.005.008.01.012.015-.005-.005-.009-.01-.012-.015z"/><path d="m104.703 113.733c-.005 0-.009 0-.014 0-3.137-.004-6.076-1.392-8.065-3.809-3.488-4.222-8.637-6.649-14.116-6.649-4.081 0-7.943 1.317-11.17 3.811-3.277 2.532-7.988 1.929-10.521-1.349s-1.929-7.988 1.349-10.521c5.877-4.541 12.911-6.941 20.342-6.941 8.273 0 16.129 3.039 22.195 8.47 6.059-5.429 13.915-8.47 22.193-8.47 7.439 0 14.476 2.401 20.346 6.944 3.276 2.535 3.877 7.246 1.342 10.521-2.536 3.276-7.246 3.876-10.521 1.342-3.219-2.491-7.08-3.808-11.166-3.808-5.48 0-10.625 2.426-14.114 6.655-2.003 2.422-4.944 3.804-8.08 3.804zm3.482-13.366c.004.005.008.01.012.015-.005-.005-.009-.01-.012-.015z"/><path d="m153.674 58.696c-.005 0-.009 0-.014 0-3.137-.004-6.076-1.392-8.065-3.809-3.488-4.223-8.637-6.65-14.116-6.65-4.081 0-7.943 1.317-11.17 3.811-3.277 2.531-7.988 1.929-10.521-1.349s-1.929-7.988 1.349-10.521c5.877-4.541 12.911-6.941 20.342-6.941 8.273 0 16.13 3.039 22.195 8.471 6.058-5.43 13.915-8.471 22.193-8.471 7.439 0 14.476 2.401 20.346 6.944 3.276 2.535 3.877 7.246 1.342 10.521-2.536 3.277-7.245 3.875-10.521 1.342-3.219-2.491-7.08-3.808-11.166-3.808-5.48 0-10.625 2.426-14.113 6.656-2.004 2.421-4.945 3.804-8.081 3.804zm3.482-13.365c.004.005.007.009.011.014-.004-.005-.008-.009-.011-.014z"/></g></g></svg>