<svg id="Capa_1" enable-background="new 0 0 512 512" height="512" viewBox="0 0 512 512" width="512" xmlns="http://www.w3.org/2000/svg"><g><path d="m227.395 120.291 5.464-33.664c.696-4.285 4.396-7.434 8.738-7.434h41.221l2.686-27.376c.427-4.352 4.087-7.671 8.46-7.671h91.859c3.859 0 6.987 3.128 6.987 6.987v334.855h-382.305v-166.283c0-6.543 3.958-12.435 10.015-14.909z" fill="#b58e85"/><path d="m392.81 122.932 84.054 48.251c4.85 2.785 7.841 7.95 7.841 13.543v188.9h-91.895z" fill="#b58e85"/><path d="m419.756 373.627h-26.946v-250.695l26.946 15.468z" fill="#9d6c6c"/><path d="m141.022 228.189 7.775 16.426c1.114 2.353 4.46 2.359 5.582.01l26.58-55.626c2.618-5.479 10.419-5.479 13.037 0l77.322 161.814h-201.402l58.046-122.624c2.609-5.511 10.451-5.511 13.06 0z" fill="#67b59f"/><path d="m193.996 188.999c-2.042-4.274-7.229-5.198-10.658-2.805.663.675 1.236 1.6 1.63 2.805l52.996 161.814h33.354z" fill="#56988c"/><path d="m84.189 169.28 56.51 213.976h-128.525l56.51-213.975c2.103-7.962 13.403-7.962 15.505-.001z" fill="#92e0c4"/><path d="m84.189 169.28c-2.009-7.605-12.391-7.926-15.15-1 .105.324.214.644.29 1l46.159 213.976h25.21z" fill="#77d1b3"/><path d="m372.04 202.669 80.442 164.201h-173.363l80.442-164.201c2.542-5.189 9.937-5.189 12.479 0z" fill="#67b59f"/><path d="m372.04 202.669c-1.754-3.581-5.819-4.688-9.006-3.326 1.007.611 1.891 1.718 2.445 3.326l56.64 164.201h30.362z" fill="#56988c"/><path d="m284.117 172.713 111.807 166.261h-235.979l111.807-166.261c2.952-4.39 9.412-4.39 12.365 0z" fill="#92e0c4"/><path d="m284.117 172.713c-2.237-3.327-6.485-4.127-9.698-2.413.755.548 1.435 1.349 1.961 2.413l82.214 166.261h37.33z" fill="#77d1b3"/><path d="m448.321 201.319 54.413 186.057h-122.365l54.413-186.057c1.978-6.764 11.56-6.764 13.539 0z" fill="#77d1b3"/><path d="m448.321 201.319c-1.978-6.764-11.561-6.764-13.539 0l-.025.085 46.226 185.972h21.751z" fill="#67b59f"/><path d="m10.128 396.309c-8.59 0-13.264-10.039-7.74-16.617 60.727-72.311 151.795-118.285 253.612-118.285s192.885 45.974 253.612 118.285c5.524 6.578.85 16.617-7.74 16.617z" fill="#fde2db"/><path d="m509.612 379.692c-60.727-72.31-151.795-118.285-253.612-118.285-6.052 0-12.064.168-18.035.488 94.674 5.188 178.802 51.962 236.006 123.176 2.755 3.43 2.973 7.759 1.434 11.237h26.467c8.59.001 13.264-10.038 7.74-16.616z" fill="#eacfca"/><path d="m66.808 52.811c2.792-2.792 6.655-4.523 10.92-4.523h3.07c.113-21.665 17.709-39.188 39.384-39.188 21.685 0 39.281 17.524 39.394 39.188h10.044c8.53 0 15.453 6.923 15.453 15.453 0 4.275-1.731 8.128-4.533 10.93-2.792 2.792-6.655 4.523-10.92 4.523h-91.892c-8.53 0-15.453-6.912-15.453-15.453 0-4.266 1.731-8.129 4.533-10.93z" fill="#e9edf1"/><ellipse cx="256" cy="405.279" fill="#e69642" rx="97.622" ry="97.622" transform="matrix(.007 -1 1 .007 -151.056 658.443)"/><path d="m335.539 348.668c4.454 11.174 6.906 23.363 6.906 36.125 0 53.914-43.707 97.621-97.622 97.621-32.811 0-61.84-16.188-79.539-41.011 14.361 36.031 49.563 61.497 90.716 61.497 53.915 0 97.622-43.707 97.622-97.621 0-21.105-6.698-40.644-18.083-56.611z" fill="#df6937"/><path d="m339.505 151.404c4.267 0 7.726-3.459 7.726-7.726v-99.531h-15.453v99.531c.001 4.268 3.46 7.726 7.727 7.726z" fill="#9d6c6c"/><g fill="#ffe3cc"><path d="m297.503 425.895c-7.753-3.725-11.547-8.513-15.217-13.144-5.389-6.801-10.961-13.832-26.286-13.832s-20.897 7.031-26.286 13.832c-3.67 4.631-7.464 9.419-15.218 13.145-4.616 2.219-7.129 7.31-6.11 12.38 2.323 11.562 12.47 25.346 47.614 25.346s45.29-13.784 47.614-25.346c1.018-5.07-1.494-10.16-6.111-12.381z"/><path d="m278.236 381.356c-1.009 0-2.035-.199-3.022-.619-3.834-1.632-5.668-5.996-4.197-9.856.45-1.891.75-9.766-.677-17.368-.787-4.194 1.974-8.232 6.169-9.019 4.197-.79 8.231 1.975 9.019 6.168 1.602 8.534 1.988 20.897-.179 25.991-1.251 2.94-4.109 4.703-7.113 4.703zm-7.106-10.753c-.021.049-.044.104-.067.163.022-.055.044-.109.067-.163z"/><path d="m233.764 381.356c-3.005 0-5.862-1.764-7.113-4.703-2.168-5.094-1.781-17.457-.179-25.991.787-4.192 4.823-6.951 9.019-6.168 4.194.787 6.956 4.825 6.169 9.019-1.427 7.603-1.126 15.477-.677 17.368 1.471 3.86-.363 8.224-4.197 9.856-.987.42-2.013.619-3.022.619zm7.106-10.753c.023.054.045.109.067.163-.023-.06-.046-.114-.067-.163z"/><path d="m310.37 406.761c-1.447 0-2.91-.405-4.212-1.255-3.575-2.331-4.584-7.118-2.253-10.692 2.819-4.325 4.321-10.908 3.771-12.753-1.339-4.051.861-8.419 4.912-9.758 4.052-1.336 8.423.863 9.762 4.914 2.812 8.506-1.881 20.483-5.5 26.034-1.481 2.274-3.956 3.51-6.48 3.51z"/><path d="m201.63 406.761c-2.524 0-4.998-1.235-6.479-3.508-3.619-5.551-8.312-17.528-5.5-26.034 1.339-4.051 5.708-6.253 9.761-4.911 4.051 1.339 6.25 5.709 4.911 9.761-.549 1.838.954 8.422 3.773 12.746 2.33 3.574 1.322 8.361-2.253 10.692-1.303.847-2.767 1.254-4.213 1.254z"/></g></g></svg>