<svg id="Capa_1" enable-background="new 0 0 512 512" height="512" viewBox="0 0 512 512" width="512" xmlns="http://www.w3.org/2000/svg"><g><path d="m341.333 102.802-170.666-44.428-166.69 43.393c-2.342.61-3.977 2.725-3.977 5.145v266.662c0 3.48 3.288 6.022 6.656 5.145l164.011-42.695 170.667 44.428 166.689-43.393c2.342-.61 3.977-2.725 3.977-5.145v-266.662c0-3.48-3.288-6.022-6.656-5.145z" fill="#ffeed2"/><path d="m505.344 60.107-18.017 4.69c1.626.907 2.768 2.634 2.768 4.692v269.505c0 1.091-.343 2.111-.916 2.971l18.844-4.906c2.342-.609 3.977-2.725 3.977-5.145v-266.662c0-3.48-3.288-6.022-6.656-5.145z" fill="#f1cd88"/><path d="m170.667 336.024 170.666 44.428v-277.65l-170.666-44.428z" fill="#f1cd88"/><path d="m398.37 214.469c8.709 5.014 19.385 5.192 28.255.47l18.299-9.74c11.143-5.931 14.801-20.143 7.905-30.716l-17.712-27.159c-5.052-7.747-5.696-17.567-1.698-25.907l23.324-48.658-115.41 30.044-170.666-44.429-91.084 23.711-13.564 28.031c-5.157 10.658-8.219 22.208-9.017 34.021l-6.102 90.31c-.696 10.294 7.467 19.026 17.784 19.026 6.752 0 12.924-3.815 15.943-9.854l27.669-55.339c7.813-15.626 26.299-22.655 42.52-16.167l134.324 53.73c9.53 3.812 20.314-1.104 23.686-10.799l5.363-15.419c4.713-13.549 20.59-19.468 33.022-12.31z" fill="#d09180"/><path d="m341.333 102.802-170.666-44.428v120.081l118.474 47.39c9.53 3.812 20.314-1.104 23.686-10.799l5.363-15.419c3.518-10.115 13.259-15.974 23.144-15.318v-81.507z" fill="#be694e"/><ellipse cx="256" cy="354.997" fill="#e69642" rx="98.629" ry="98.629" transform="matrix(.01 -1 1 .01 -101.506 607.481)"/><path d="m336.36 297.801c4.5 11.289 6.977 23.604 6.977 36.498 0 54.471-44.158 98.629-98.629 98.629-33.149 0-62.478-16.355-80.36-41.434 14.509 36.403 50.075 62.132 91.652 62.132 54.471 0 98.629-44.158 98.629-98.629 0-21.323-6.767-41.063-18.269-57.196z" fill="#df6937"/><path d="m457.927 291.863-40.125 16.883c-9.924 4.176-21.354-.485-25.53-10.409s.485-21.354 10.409-25.53l40.125-16.883c9.924-4.176 21.354.485 25.53 10.409 4.175 9.924-.485 21.354-10.409 25.53z" fill="#d09180"/><g><g fill="#ffe3cc"><path d="m297.908 375.875c-7.844-3.77-11.682-8.612-15.392-13.295-5.437-6.86-11.058-13.955-26.516-13.955s-21.079 7.095-26.516 13.955c-3.711 4.683-7.548 9.525-15.392 13.295-4.643 2.231-7.17 7.351-6.144 12.45 2.343 11.663 12.582 25.565 48.052 25.565s45.709-13.902 48.052-25.565c1.025-5.099-1.501-10.218-6.144-12.45z"/><path d="m278.465 330.748c-1.009 0-2.035-.199-3.022-.619-3.836-1.633-5.67-6-4.195-9.862.457-1.906.765-9.877-.682-17.586-.787-4.194 1.975-8.231 6.169-9.018 4.196-.787 8.232 1.975 9.019 6.169 1.615 8.61 2.007 21.079-.177 26.212-1.25 2.941-4.107 4.704-7.112 4.704zm-7.106-10.753c-.021.048-.043.102-.065.159.021-.053.043-.107.065-.159z"/><path d="m233.535 330.748c-3.005 0-5.862-1.764-7.113-4.703-2.184-5.133-1.792-17.603-.177-26.212.787-4.193 4.819-6.956 9.019-6.169 4.194.787 6.956 4.824 6.169 9.018-1.447 7.708-1.139 15.679-.682 17.586 1.475 3.862-.359 8.229-4.195 9.862-.987.419-2.012.618-3.021.618zm7.106-10.753c.022.052.044.106.065.159-.022-.057-.045-.111-.065-.159z"/><g><path d="m310.931 356.415c-1.447 0-2.91-.405-4.212-1.255-3.574-2.33-4.583-7.118-2.254-10.692 2.869-4.4 4.387-11.085 3.82-12.95-1.34-4.051.859-8.419 4.911-9.76 4.049-1.336 8.422.861 9.762 4.912 2.832 8.567-1.899 20.639-5.547 26.235-1.481 2.275-3.956 3.51-6.48 3.51z"/><path d="m201.069 356.415c-2.524 0-4.998-1.235-6.48-3.508-3.648-5.597-8.38-17.668-5.547-26.235 1.34-4.052 5.707-6.246 9.762-4.91 4.051 1.34 6.25 5.71 4.91 9.762-.566 1.861.952 8.545 3.821 12.946 2.33 3.574 1.321 8.362-2.254 10.692-1.302.848-2.765 1.253-4.212 1.253z"/></g></g></g></g></svg>