<svg id="Capa_1" enable-background="new 0 0 512 512" height="512" viewBox="0 0 512 512" width="512" xmlns="http://www.w3.org/2000/svg"><g><path d="m473.67 512h-50.132c-3.672 0-6.487-3.178-6.145-6.835 2.656-28.432-9.124-56.733-25.34-74.431-1.687 27.21-6.548 55.687-15.392 77.43-.946 2.326-3.215 3.836-5.726 3.836h-229.556c-2.511 0-4.78-1.51-5.726-3.836-8.843-21.742-13.704-50.219-15.392-77.43-16.216 17.697-27.996 45.998-25.34 74.431.342 3.656-2.473 6.835-6.145 6.835h-50.446c-3.263 0-5.966-2.543-6.174-5.799-11.262-176.194 92.133-227.842 140.236-227.842h167.216c48.104 0 151.499 51.648 140.236 227.842-.208 3.256-2.91 5.799-6.174 5.799z" fill="#ebe1dc"/><path d="m339.608 278.358h-28.593c48.627 0 153.757 52.779 139.827 233.642h22.828c3.263 0 5.966-2.543 6.174-5.799 11.263-176.195-92.132-227.843-140.236-227.843z" fill="#dcd2cd"/><path d="m219.802 224.619-12.971 58.395c-1.644 7.4 1.055 15.092 6.962 19.842l10.295 8.28c18.727 15.061 45.412 15.061 64.14 0l10.295-8.28c5.907-4.751 8.606-12.442 6.962-19.842l-12.971-58.395z" fill="#ebae9d"/><path d="m366.62 151.078h-220.927c-10.004 0-18.113 8.11-18.113 18.113v6.832c0 10.003 8.11 18.113 18.113 18.113h220.927c10.004 0 18.113-8.11 18.113-18.113v-6.832c.001-10.003-8.109-18.113-18.113-18.113z" fill="#ebae9d"/><path d="m174.925 53.706v133.689c0 33.659 27.286 60.945 60.945 60.945h40.575c33.659 0 60.945-27.286 60.945-60.945v-133.689z" fill="#ffcdbe"/><path d="m200.929 0h110.457c22.859 0 41.389 18.531 41.389 41.389v53.782h-193.236v-53.782c0-22.858 18.531-41.389 41.39-41.389z" fill="#61aab8"/><path d="m311.385 0h-26.666c22.859 0 41.389 18.53 41.389 41.389v53.782h26.666v-53.782c.001-22.859-18.53-41.389-41.389-41.389z" fill="#5595a2"/><path d="m362.276 124.989c-2.335 0-4.704-.536-6.926-1.669-62.111-31.648-136.273-31.647-198.385 0-7.52 3.831-16.724.842-20.557-6.679-3.832-7.521-.842-16.725 6.679-20.557 70.8-36.073 155.339-36.073 226.14 0 7.52 3.832 10.512 13.036 6.679 20.557-2.7 5.298-8.066 8.348-13.63 8.348z" fill="#94ccd4"/><path d="m256.244 207.409c-11.131 0-21.686-2.891-29.722-8.14-3.468-2.266-4.443-6.913-2.177-10.381s6.914-4.441 10.38-2.178c5.543 3.621 13.387 5.698 21.519 5.698s15.975-2.077 21.519-5.698c3.469-2.265 8.114-1.291 10.381 2.178 2.265 3.468 1.29 8.115-2.178 10.381-8.035 5.25-18.591 8.14-29.722 8.14z" fill="#766d78"/><g fill="#766d78"><path d="m211.816 161.892c-4.142 0-7.5-3.357-7.5-7.5v-5.278c0-4.143 3.358-7.5 7.5-7.5s7.5 3.357 7.5 7.5v5.278c0 4.142-3.358 7.5-7.5 7.5z"/><path d="m300.672 161.892c-4.143 0-7.5-3.357-7.5-7.5v-5.278c0-4.143 3.357-7.5 7.5-7.5s7.5 3.357 7.5 7.5v5.278c0 4.142-3.358 7.5-7.5 7.5z"/></g><g fill="#e5936a"><path d="m310.547 391.936c-1.162 0-2.338-.302-3.409-.938-3.181-1.886-4.23-5.995-2.344-9.175 15.832-26.693 31.327-75.443 28.249-102.717-.414-3.675 2.228-6.99 5.903-7.404 3.667-.433 6.989 2.227 7.404 5.903 1.588 14.066-.928 33.82-7.082 55.622-5.724 20.279-14.092 40.482-22.956 55.428-1.251 2.109-3.478 3.281-5.765 3.281z"/><path d="m201.937 391.936c-2.287 0-4.516-1.172-5.767-3.283-8.864-14.951-17.229-35.154-22.95-55.432-6.151-21.798-8.664-41.55-7.077-55.617.414-3.675 3.716-6.334 7.405-5.903 3.675.414 6.317 3.729 5.903 7.404-3.077 27.273 12.413 76.023 28.239 102.718 1.886 3.181.836 7.289-2.345 9.174-1.071.637-2.247.939-3.408.939z"/></g><path d="m307.719 380.681h-20.214c-1.842 0-3.464-1.212-3.986-2.978l-3.75-12.684c-.927-3.135-3.806-5.287-7.075-5.287h-33.074c-3.269 0-6.149 2.151-7.075 5.287l-3.749 12.684c-.522 1.766-2.144 2.978-3.986 2.978h-20.214c-5.709 0-10.336 4.628-10.336 10.336v70.778c0 5.709 4.628 10.337 10.336 10.337h103.124c5.709 0 10.337-4.628 10.337-10.337v-70.778c-.002-5.708-4.629-10.336-10.338-10.336z" fill="#766d78"/><ellipse cx="256.146" cy="423.269" fill="#94ccd4" rx="21.797" ry="21.797" transform="matrix(.987 -.16 .16 .987 -64.493 46.496)"/><path d="m256.244 450.888c-15.229 0-27.618-12.39-27.618-27.618 0-15.229 12.389-27.618 27.618-27.618 15.228 0 27.618 12.39 27.618 27.618s-12.39 27.618-27.618 27.618zm0-43.595c-8.809 0-15.976 7.167-15.976 15.977s7.167 15.977 15.976 15.977 15.976-7.167 15.976-15.977-7.167-15.977-15.976-15.977z" fill="#a29aa5"/></g></svg>