<svg id="Capa_1" enable-background="new 0 0 512 512" height="512" viewBox="0 0 512 512" width="512" xmlns="http://www.w3.org/2000/svg"><g><path d="m350.056 53.28v27.982h-188.111v-27.983c0-1.614.751-3.143 2.048-4.104 16.192-12.005 26.578-31.614 33.022-46.682.648-1.516 2.134-2.493 3.783-2.493h110.405c1.649 0 3.135.977 3.783 2.493 6.443 15.068 16.83 34.677 33.022 46.682 1.297.962 2.048 2.49 2.048 4.105z" fill="#6fbbc6"/><path d="m348.008 49.175c-16.192-12.006-26.578-31.615-33.022-46.682-.648-1.516-2.135-2.493-3.783-2.493h-24.281c1.649 0 3.135.977 3.783 2.493 6.443 15.067 16.83 34.677 33.022 46.682 1.297.961 2.048 2.49 2.048 4.105v27.982h24.281v-27.982c0-1.615-.751-3.144-2.048-4.105z" fill="#61aab8"/><path d="m489.309 433.089c-16.651-126.904-102.246-166.492-145.439-166.492-22.488 0-153.251 0-175.739 0-43.193 0-128.788 39.588-145.439 166.491v44.573l62.365 7.553 10.859-18.894c4.755-15.691 11.571-33.028 21.156-47.859 18.054 34.171 47.105 64.752 50.398 89.129.343 2.536 2.534 4.409 5.092 4.409h166.878c2.558 0 4.75-1.873 5.092-4.409 3.293-24.378 32.344-54.958 50.398-89.129 9.585 14.831 16.401 32.168 21.156 47.859 7.551 24.914 17.044 36.422 17.044 36.422l48.698-10.253c2.269-29.435 10.534-36.13 7.481-59.4z" fill="#6fbbc6"/><path d="m256 284.099c-4.268 0-7.726 3.459-7.726 7.726v220.175h15.453v-220.175c-.001-4.268-3.459-7.726-7.727-7.726z" fill="#61aab8"/><path d="m343.87 266.597c-7.055 0-17.905 0-29.473 0 45.252 0 137.041 43.451 147.337 185.234 1.334 18.367 4.556 28.83 2.877 50.616l18.812-4.886c2.269-29.436 8.94-41.202 5.887-64.472-16.652-126.904-102.247-166.492-145.44-166.492z" fill="#61aab8"/><path d="m95.921 466.322c-5.698 18.78-8.437 35.196-9.441 42.146-.293 2.029-2.028 3.533-4.078 3.533h-57.394c-2.161 0-3.966-1.674-4.115-3.831-1.919-27.881-1.124-52.824 1.802-75.081 16.576 17.656 50.459 29.215 73.226 33.233z" fill="#c38778"/><path d="m486.992 512h-57.392c-2.05 0-3.785-1.504-4.078-3.533-1.004-6.95-3.743-23.366-9.441-42.146 22.767-4.018 56.648-15.575 73.224-33.233 2.926 22.258 3.722 47.199 1.803 75.08-.149 2.158-1.954 3.832-4.116 3.832z" fill="#c38778"/><path d="m489.304 433.089c-6.887 7.336-16.767 13.617-27.589 18.743 1.335 18.372 1.319 38.374-.361 60.168h25.639c2.161 0 3.966-1.669 4.115-3.825 1.722-25.003 1.44-50.358-1.804-75.086z" fill="#b46e5a"/><path d="m308.534 252.507h-105.067c-9.181 0-17.948 3.777-24.263 10.442-10.46 11.039-25.909 28.982-32.243 44.623-2.209 5.454 2.384 11.17 8.208 10.328 23.732-3.433 51.033.197 51.033.197l44.038 60.527c2.845 3.911 8.677 3.911 11.522 0l44.038-60.527s27.301-3.629 51.033-.197c5.824.842 10.416-4.874 8.208-10.328-6.333-15.641-21.783-33.585-32.243-44.623-6.316-6.665-15.083-10.442-24.264-10.442z" fill="#aad8de"/><path d="m256 284.099c-4.268 0-7.726 3.458-7.726 7.727v84.097l1.965 2.702c2.845 3.911 8.677 3.911 11.522 0l1.965-2.701v-84.098c0-4.269-3.458-7.727-7.726-7.727z" fill="#94ccd4"/><path d="m220.186 206.852-13.343 60.066c-1.274 5.734.817 11.695 5.395 15.376l36.831 29.621c4.047 3.255 9.814 3.255 13.861 0l36.831-29.621c4.577-3.681 6.669-9.642 5.395-15.376l-13.343-60.066z" fill="#b46e5a"/><path d="m359.041 140.926h-206.081c-9.331 0-16.896 7.565-16.896 16.896v6.373c0 9.331 7.565 16.896 16.896 16.896h206.081c9.331 0 16.896-7.565 16.896-16.896v-6.373c0-9.331-7.565-16.896-16.896-16.896z" fill="#b46e5a"/><path d="m177.652 101.606v98.586c0 17.375 14.085 31.46 31.46 31.46h93.778c17.375 0 31.46-14.085 31.46-31.46v-98.586z" fill="#c38778"/><path d="m129.449 83.379v18.227c0 2.845 2.306 5.151 5.151 5.151h242.8c2.845 0 5.151-2.306 5.151-5.151v-18.227c0-2.845-2.306-5.151-5.151-5.151h-242.8c-2.845 0-5.151 2.306-5.151 5.151z" fill="#94ccd4"/><g fill="#784132"><path d="m214.558 151.742c-4.268 0-7.726-3.459-7.726-7.726v-4.924c0-4.268 3.459-7.726 7.726-7.726s7.726 3.459 7.726 7.726v4.924c.001 4.268-3.458 7.726-7.726 7.726z"/><path d="m297.443 151.742c-4.268 0-7.726-3.459-7.726-7.726v-4.924c0-4.268 3.459-7.726 7.726-7.726s7.726 3.459 7.726 7.726v4.924c0 4.268-3.459 7.726-7.726 7.726z"/></g><path d="m358.002 402.221h-53.507c-4.268 0-7.726-3.459-7.726-7.726s3.459-7.726 7.726-7.726h53.507c4.268 0 7.726 3.459 7.726 7.726s-3.458 7.726-7.726 7.726z" fill="#5595a2"/><path d="m256 194.202c-10.52 0-20.508-2.738-28.123-7.711-3.572-2.333-4.577-7.121-2.244-10.693 2.332-3.573 7.119-4.581 10.693-2.244 5.057 3.302 12.228 5.196 19.674 5.196 7.447 0 14.618-1.894 19.675-5.196 3.573-2.332 8.36-1.328 10.693 2.244s1.328 8.36-2.244 10.693c-7.615 4.973-17.603 7.711-28.124 7.711z" fill="#784132"/></g></svg>