<svg id="Capa_1" enable-background="new 0 0 512 512" height="512" viewBox="0 0 512 512" width="512" xmlns="http://www.w3.org/2000/svg"><g><path d="m31.2 435.404c-4.225 0-7.649-3.425-7.649-7.649v-17.879c0-34.373 27.964-62.338 62.338-62.338h26.756c4.225 0 7.649 3.425 7.649 7.649s-3.424 7.649-7.649 7.649h-26.757c-25.937 0-47.039 21.102-47.039 47.039v17.879c0 4.225-3.424 7.65-7.649 7.65z" fill="#e69642"/><path d="m337.748 82.926c-4.225 0-7.649-3.425-7.649-7.649v-46.239c0-4.225 3.424-7.649 7.649-7.649s7.649 3.425 7.649 7.649v46.239c0 4.224-3.424 7.649-7.649 7.649z" fill="#ac583e"/><path d="m401.859 82.926c-4.225 0-7.649-3.425-7.649-7.649v-46.239c0-4.225 3.424-7.649 7.649-7.649s7.649 3.425 7.649 7.649v46.239c.001 4.224-3.424 7.649-7.649 7.649z" fill="#ac583e"/><path d="m354.308 475.258v-117.4c.072-.221.155-.436.226-.657l60.936-189.621h-91.897l-44.388 138.125c-1.643 5.113-6.031 8.862-11.338 9.686l-139.546 21.669c-29.349 4.557-50.996 29.826-50.996 59.527l-.003 110.357c0 2.792 2.264 5.056 5.056 5.056h64.544c0-22.658-20.612-36.743-20.612-36.743v-10.997c8.074-6.498 14.419-14.397 18.672-23.519l94.976.001c21.9 0 42.74-5.938 60.755-16.478l4.626 28.337v54.344c0 2.792 2.264 5.056 5.056 5.056h66.591c0-22.659-22.658-36.743-22.658-36.743z" fill="#ecb880"/><path d="m354.308 475.258v-117.4c.072-.221.155-.436.226-.657l60.936-189.621h-24.72s-61.09 190.057-61.162 190.278v117.4s22.658 14.085 22.658 36.742h24.72c0-22.658-22.658-36.742-22.658-36.742z" fill="#e69642"/><path d="m168.197 347.483c0 3.23 1.698 6.223 4.471 7.88l24.126 14.417c3.097 1.851 6.991 1.716 9.952-.345l20.376-14.18c3.531-2.458 4.882-7.038 3.249-11.019l-8.881-21.646-53.291 8.275v16.618z" fill="#be694e"/><path d="m334.587 293.041-15.362 28.029c-1.978 3.609-2.114 7.946-.365 11.671l2.3 4.901c2.554 5.441 8.53 8.394 14.403 7.119l24.692-5.364 14.626-45.512-25.555-7.072c-5.762-1.594-11.865.984-14.739 6.228z" fill="#be694e"/><path d="m333.73 345.012c.61-.043 1.222-.12 1.833-.252l24.692-5.364 14.626-45.512-22.702-6.282z" fill="#ac583e"/><path d="m296.819 400.533-7.456 4.365c-14.993 8.771-32.087 13.402-49.425 13.402h-89.11c-.704 8.343-2.805 16.043-6.15 23.009.102-.184.193-.374.285-.568l94.976.001c21.898 0 42.733-5.943 60.755-16.478z" fill="#e69642"/><path d="m259.387 439.152 7.155-18.18c1.752-4.452.951-9.505-2.094-13.196l-11.043-13.39c-4.061-4.924-11.068-6.225-16.626-3.088l-9.081 5.125c-4.445 2.509-7.039 7.36-6.656 12.45l2.394 31.869 16.501.001c6.597-.001 13.095-.55 19.45-1.591z" fill="#be694e"/><path d="m266.542 420.971c.84-2.135 1.087-4.408.787-6.603-8.87 2.587-18.094 3.931-27.391 3.931h-18.187l1.686 22.442c8.889-.022 17 .057 20.943-.09 4.956-.182 10.318-.732 15.008-1.499z" fill="#ac583e"/><path d="m126.29 475.257v-10.997c18.159-14.616 27.584-36.301 24.082-63.106-.604-4.626-4.512-8.11-9.177-8.11-5.449 0-9.779 4.699-9.196 10.117 2.785 25.882-6.617 46.85-24.321 61.099v10.996s20.612 14.086 20.612 36.743h18.611c.001-22.657-20.611-36.742-20.611-36.742z" fill="#e69642"/><g fill="#e9a761"><path d="m287.021 77.986c-3.564-8.14-11.424-13.564-20.298-14.007l-21.316-1.065c-4.549-.227-7.972 4.071-6.745 8.458 4.04 14.442 18.657 41.862 71.499 46.154l3.362-20.654-15.029-7.086c-5.125-2.418-9.2-6.609-11.473-11.8z"/><path d="m452.589 77.986c3.564-8.14 11.424-13.564 20.298-14.007l21.316-1.065c4.549-.227 7.972 4.071 6.745 8.458-4.04 14.442-18.657 41.862-71.499 46.154l-3.362-20.654 15.029-7.086c5.125-2.418 9.201-6.609 11.473-11.8z"/></g><path d="m407.764 66.764h-75.919c-21.472 0-38.879 17.407-38.879 38.879v78.269c0 8.842 1.631 17.304 4.609 25.099 10.108 26.463 35.733 29.257 65.748 29.257h12.963c30.015 0 55.64-2.795 65.748-29.257 2.978-7.796 4.609-16.257 4.609-25.099v-78.269c0-21.472-17.406-38.879-38.879-38.879z" fill="#ecb880"/><path d="m369.805 169.041c-30.44 0-57.149 15.962-72.224 39.969 10.108 26.462 35.728 45.259 65.743 45.259h12.963c30.015 0 55.635-18.797 65.743-45.259-15.076-24.008-41.785-39.969-72.225-39.969z" fill="#ffe3cc"/><path d="m328.522 142.615c-4.225 0-7.649-3.425-7.649-7.649v-6.347c0-4.225 3.424-7.649 7.649-7.649s7.649 3.425 7.649 7.649v6.347c0 4.224-3.424 7.649-7.649 7.649z" fill="#ac583e"/><path d="m411.09 142.615c-4.225 0-7.649-3.425-7.649-7.649v-6.347c0-4.225 3.424-7.649 7.649-7.649s7.649 3.425 7.649 7.649v6.347c.001 4.224-3.424 7.649-7.649 7.649z" fill="#ac583e"/><path d="m351.124 212.525c-3.622 0-6.84-2.583-7.515-6.273-.091-.491-.374-.877-.569-1.05-4.047-.122-7.328-3.399-7.41-7.492-.086-4.224 3.269-7.717 7.493-7.802 7.387-.156 14.089 5.692 15.534 13.589.761 4.155-1.991 8.141-6.146 8.902-.465.085-.93.126-1.387.126z" fill="#e69642"/><path d="m388.488 212.525c-.457 0-.921-.041-1.386-.126-4.155-.761-6.907-4.747-6.146-8.902 1.427-7.797 7.957-13.592 15.255-13.592.094 0 .186.001.279.003 4.224.086 7.579 3.579 7.493 7.802-.083 4.093-3.365 7.369-7.41 7.492-.195.172-.478.559-.569 1.05-.677 3.689-3.895 6.273-7.516 6.273z" fill="#e69642"/><path d="m39.408 425.971c-4.604-4.447-11.816-4.445-16.417 0-7.747 7.484-12.19 18.292-12.19 29.653s4.443 22.168 12.189 29.652c2.303 2.224 5.256 3.336 8.21 3.336 2.953 0 5.907-1.112 8.208-3.335 7.747-7.483 12.189-18.291 12.189-29.652 0-11.363-4.442-22.171-12.189-29.654z" fill="#be694e"/><g fill="#ffe3cc"><path d="m337.753 0c-11.759 0-21.326 9.566-21.326 21.325s9.565 21.326 21.321 21.326c11.761 0 21.33-9.567 21.33-21.326s-9.566-21.325-21.325-21.325z"/><path d="m401.86 0c-11.759 0-21.326 9.566-21.326 21.325s9.566 21.326 21.325 21.326 21.326-9.567 21.326-21.326-9.566-21.325-21.325-21.325z"/></g></g></svg>