<svg id="Capa_1" enable-background="new 0 0 512 512" height="512" viewBox="0 0 512 512" width="512" xmlns="http://www.w3.org/2000/svg"><g><ellipse cx="256" cy="248.129" fill="#e27f86" rx="248.129" ry="248.129" transform="matrix(.707 -.707 .707 .707 -100.473 253.695)"/><circle cx="256" cy="248.129" fill="#fcf3e3" r="210.776"/><path d="m318.102 162.375c-2.221 0-4.427-.946-5.966-2.78l-22.955-27.354c-2.764-3.293-2.334-8.202.959-10.965 3.294-2.765 8.203-2.333 10.965.959l22.955 27.354c2.764 3.293 2.334 8.202-.959 10.965-1.458 1.224-3.233 1.821-4.999 1.821z" fill="#b5adb7"/><path d="m228.717 377.179c-8.599 0-17.274-2.776-24.571-8.415-3.401-2.629-4.028-7.517-1.4-10.918 2.629-3.402 7.52-4.024 10.918-1.4 9.733 7.522 23.412 6.761 31.821-1.766 4.216-4.278 6.478-9.935 6.366-15.926-.115-6.224-2.745-12.073-7.409-16.468-2.233-2.102-4.804-3.748-7.636-4.889-3.987-1.607-5.917-6.141-4.311-10.128 1.607-3.987 6.137-5.919 10.128-4.311 4.636 1.869 8.839 4.558 12.491 7.996 7.742 7.297 12.108 17.066 12.301 27.513.189 10.213-3.664 19.852-10.846 27.14-7.56 7.666-17.653 11.572-27.852 11.572z" fill="#766d78"/><g><path d="m224.613 328.862 155.89-130.807c8.112-6.807 9.17-18.901 2.363-27.012l-14.519-17.303-178.846 150.069c-9.086 7.624-15.058 22.69-17.424 36.164-.663 3.775-3.897 6.559-7.728 6.667-13.232.373-22.712.307-27.059.239-1.747-.027-3.449.513-4.864 1.537l-92.959 67.284c-.273.212-.476.502-.583.831l-11.293 34.769c-.224.689.005 1.444.574 1.892l64.78 57.017c3.312 2.915 8.445 2.185 10.812-1.54l69.021-108.597 36.316-4.414c2.802-.341 4.866-2.78 4.726-5.6-.673-13.603-1.348-51.009 10.793-61.196z" fill="#be694e"/><path d="m382.866 171.042-6.098-7.267c-.052 5.596-2.521 11.208-7.235 15.164l-161.217 135.276c-15.435 12.951-11.806 67.294-11.806 67.294l-42.265 5.793-73.055 112.559 11.755 10.347c3.312 2.915 8.445 2.185 10.812-1.54l69.021-108.597 36.316-4.414c2.802-.341 4.866-2.78 4.726-5.6-.674-13.603-1.349-51.009 10.791-61.196l155.89-130.807c8.114-6.806 9.172-18.9 2.365-27.012z" fill="#ac583e"/><path d="m167.988 132.052h147.792v34.592h-147.792z" fill="#766d78" transform="matrix(.766 -.643 .643 .766 -39.409 190.421)"/><path d="m312.682 65.039 24.524 29.226c3.023 3.603 1.643 9.107-2.722 10.857l-24.874 9.975-22.235-26.499 14.143-22.764c2.48-3.994 8.141-4.398 11.164-.795z" fill="#c8beb9"/><path d="m146.562 204.43 24.524 29.226c3.023 3.603 8.683 3.199 11.165-.795l14.143-22.764-22.235-26.499-24.874 9.975c-4.366 1.75-5.746 7.254-2.723 10.857z" fill="#c8beb9"/><path d="m197.77 296.871-15.584-18.571c-3.729-4.444-3.091-11.082 1.417-14.734l297.123-240.733c.88-.713 2.169-.589 2.896.279l15.359 18.304c.737.878.622 2.187-.256 2.924z" fill="#766d78"/></g><path d="m109.691 68.169c-12.329 10.042-23.609 21.321-33.651 33.651l326.269 326.269c12.329-10.042 23.609-21.322 33.651-33.651z" fill="#e27f86"/></g></svg>