<svg id="Capa_1" enable-background="new 0 0 512 512" height="512" viewBox="0 0 512 512" width="512" xmlns="http://www.w3.org/2000/svg"><g><path d="m14.378 376.808c-2.604 0-5.14-1.336-6.56-3.741-2.139-3.619-.938-8.287 2.682-10.425 3.804-2.247 8.313-8.209 12.373-16.357 1.961-3.942 1.779-8.661-.491-12.619-10.209-17.748-22.382-44.925-22.382-73.558 0-17.124 16.994-51.37 49.48-55.772 4.158-.567 7.999 2.354 8.564 6.521.565 4.166-2.355 8-6.52 8.564-23.949 3.245-36.3 29.99-36.3 40.686 0 25.273 11.071 49.829 20.359 65.978 4.812 8.39 5.153 18.475.918 26.986-5.572 11.184-11.715 18.813-18.258 22.678-1.216.718-2.549 1.059-3.865 1.059z" fill="#766d78"/><path d="m349.046 383.641v-221.111h-243.975c-24.263 0-46.234 14.278-56.168 36.41-7.327 16.308-13.74 36.522-13.74 57.285 0 50.303 40.003 96.983 40.003 96.983v65.89c0 1.681 1.363 3.043 3.045 3.043h86.753c2.394 0 4.254-2.058 4.042-4.443-.724-8.14-4.076-25.521-19.274-35.475v-35.459s9.703-4.188 16.938-16.569c22.457 25.532 69.898 37.086 110.296 13.035l14.399 76.431c.271 1.439 1.528 2.481 2.992 2.481h67.873c2.336 0 4.2-1.972 4.057-4.304-1.493-24.437-17.241-34.197-17.241-34.197z" fill="#a59da7"/><g fill="#8c818f"><path d="m149.732 382.223v-35.459s33.364-14.384 22.482-68.776c-1.155-5.775-5.965-10.114-11.831-10.635-8.416-.748-15.316 6.463-14.316 14.852 4.801 40.246-14.585 56.315-21.512 60.695-1.478.935-2.373 2.554-2.373 4.303v31.094c0 1.584.749 3.068 2.001 4.037 18.266 14.142 17.461 39.808 17.461 39.808h23.318c2.394 0 4.254-2.058 4.042-4.443-.723-8.14-4.076-25.528-19.272-35.476z"/><path d="m349.046 383.641v-221.111h-23.518v221.111s17.586 10.899 17.353 38.501h19.35c2.336 0 4.2-1.972 4.057-4.304-1.494-24.437-17.242-34.197-17.242-34.197z"/><path d="m273.214 323.294 3.753 19.936c-40.402 24.052-87.837 12.488-110.296-13.035 3.258-5.582 6.019-12.826 7.156-22.102 22.032 18.497 58.669 26.279 92.469 11.554 2.947-1.284 6.323.487 6.918 3.647z"/></g><path d="m318.522 172.108c0 8.392-2.932 16.818-8.897 23.625l-54.716 62.392c-13.051 14.88-35.699 16.371-50.587 3.311-8.08-7.086-12.217-17.003-12.217-26.962 0-8.392 2.932-16.818 8.897-23.625l5.607-6.393c4.966-5.662 3.8-14.475-2.556-18.513-15.302-9.722-25.184-27.211-24.111-46.914 1.445-26.516 23.037-47.908 49.565-49.116 27.931-1.272 51.301 19.474 54.209 46.353 8.047.227 16.059 3.151 22.589 8.881 8.08 7.085 12.217 17.002 12.217 26.961z" fill="#968d97"/><path d="m373.34 172.108c0 8.392 2.932 16.818 8.897 23.625l54.716 62.392c13.051 14.88 35.699 16.371 50.587 3.311 8.08-7.086 12.217-17.003 12.217-26.962 0-8.392-2.932-16.818-8.897-23.625l-5.607-6.393c-4.966-5.662-3.8-14.475 2.556-18.513 15.302-9.722 25.184-27.211 24.111-46.914-1.445-26.516-23.037-47.908-49.565-49.116-27.931-1.272-51.301 19.474-54.209 46.353-8.046.227-16.059 3.151-22.589 8.881-8.08 7.085-12.217 17.002-12.217 26.961z" fill="#968d97"/><path d="m421.712 241.316c-29.471 23.815-122.091 23.815-151.562 0-22.672-18.32-11.304-95.985 9.307-116.596 26.793-26.793 106.155-26.793 132.947 0 20.612 20.611 31.98 98.275 9.308 116.596z" fill="#b5adb7"/><path d="m401.286 318.328v4.221c0 8.439-6.841 15.28-15.28 15.28s-15.28-6.841-15.28-15.28v-118.271h-49.591v119.978c0 31.116 25.225 56.341 56.341 56.341h.359c31.116 0 56.341-25.225 56.341-56.341v-5.928c0-3.374-2.735-6.11-6.11-6.11h-20.672c-3.372 0-6.108 2.735-6.108 6.11z" fill="#b5adb7"/><path d="m297.654 181.386c-4.204 0-7.612-3.408-7.612-7.611v-5.092c0-4.204 3.407-7.611 7.612-7.611s7.611 3.408 7.611 7.611v5.092c.001 4.203-3.407 7.611-7.611 7.611z" fill="#766d78"/><path d="m394.21 181.386c-4.204 0-7.612-3.408-7.612-7.611v-5.092c0-4.204 3.407-7.611 7.612-7.611s7.611 3.408 7.611 7.611v5.092c.001 4.203-3.407 7.611-7.611 7.611z" fill="#766d78"/><path d="m276.736 293.735h-6.814c-4.204 0-7.612-3.408-7.612-7.612s3.407-7.611 7.612-7.611h6.814c5.839 0 10.591-4.751 10.591-10.591v-27.499c0-4.204 3.407-7.611 7.612-7.611s7.611 3.408 7.611 7.611v27.499c0 14.234-11.58 25.814-25.814 25.814z" fill="#f0e9e6"/><path d="m421.941 293.735h-6.813c-14.234 0-25.814-11.58-25.814-25.814v-27.499c0-4.204 3.407-7.611 7.611-7.611s7.612 3.408 7.612 7.611v27.499c0 5.84 4.751 10.591 10.591 10.591h6.813c4.204 0 7.612 3.408 7.612 7.611-.001 4.204-3.408 7.612-7.612 7.612z" fill="#f0e9e6"/></g></svg>