<svg id="Capa_1" enable-background="new 0 0 512 512" height="512" viewBox="0 0 512 512" width="512" xmlns="http://www.w3.org/2000/svg"><g><path d="m397.732 428.922c-3.514-3.074-23.021-66.742-34.397-104.623 73.878-58.229 74.785-148.573 74.785-148.573l-126.173-101.197c-52.81 33.172-173.042 102.87-260.035 152.898-53.3 30.652-68.275 100.742-32.164 150.506l34.932 48.14s-.849 52.152 34.214 52.152 68.366 0 85.535 0c5.895-24.05-24.226-45.459-26.422-51.106-3.489-8.971 19.128-21.827 24.902-55.575 36.728 2.243 68.359.038 95.619-5.407 9.498 21.493 19.898 44.581 26.984 59.025 16.305 33.237 48.792 53.064 56.926 53.064h69.142c10.016-14.813-17.041-43.348-23.848-49.304z" fill="#a29aa5"/><g fill="#8c818f"><path d="m397.732 428.922c-3.514-3.074-23.021-66.742-34.397-104.623 73.878-58.229 74.785-148.573 74.785-148.573l-126.173-101.197c-4.781 3.003-10.122 6.31-15.934 9.87l113.867 91.326s-.86 85.618-69.062 143.876c-3.465 2.96-4.819 7.712-3.503 12.074 11.529 38.219 28.882 94.363 32.177 97.246 6.807 5.956 33.864 34.491 23.849 49.302h28.241c10.014-14.81-17.043-43.345-23.85-49.301z"/><path d="m257.45 340.865c3.333 7.659 7.122 16.318 11.079 25.27-27.268 5.44-58.887 7.648-95.619 5.407 1.293-7.581 1.745-16.218.853-26.106 31.582 1.538 59.329-.246 83.687-4.571z"/><path d="m148.008 427.117c-4.954-12.74 42.745-33.298 20.078-110.426-2.318-7.886-11.308-11.654-18.565-7.793-5.262 2.799-7.951 8.83-6.498 14.61 17.981 71.542-26.743 91.254-21.938 103.61 2.196 5.647 32.317 27.056 26.422 51.106h26.922c5.896-24.05-24.225-45.459-26.421-51.107z"/><g><ellipse cx="471.247" cy="74.529" rx="40.753" ry="40.753" transform="matrix(.383 -.924 .924 .383 222.053 481.384)"/><ellipse cx="291.927" cy="74.529" rx="40.753" ry="40.753" transform="matrix(.383 -.924 .924 .383 111.356 315.713)"/></g></g><path d="m504.374 154.733c0 72.128-54.974 130.6-122.787 130.6s-122.787-58.472-122.787-130.6 54.974-106.075 122.787-106.075 122.787 33.947 122.787 106.075z" fill="#b5adb7"/><path d="m436.347 206.749c0 20.123-24.517 41.6-54.759 41.6-30.243 0-54.759-21.477-54.759-41.6s24.517-26.107 54.759-26.107 54.759 5.984 54.759 26.107z" fill="#ffeee8"/><path d="m381.587 155.841c-13.192 0-23.886 10.694-23.886 23.887 0 13.192 10.694 15.884 23.886 15.884s23.886-2.692 23.886-15.884c.001-13.193-10.694-23.887-23.886-23.887z" fill="#544f56"/><g fill="#544f56"><path d="m325.054 142.028c-4.267 0-7.726-3.459-7.726-7.726v-5.054c0-4.267 3.459-7.726 7.726-7.726s7.726 3.459 7.726 7.726v5.054c0 4.267-3.459 7.726-7.726 7.726z"/><path d="m438.121 142.028c-4.267 0-7.726-3.459-7.726-7.726v-5.054c0-4.267 3.459-7.726 7.726-7.726s7.726 3.459 7.726 7.726v5.054c0 4.267-3.459 7.726-7.726 7.726z"/></g></g></svg>