<svg id="Capa_1" enable-background="new 0 0 512 512" height="512" viewBox="0 0 512 512" width="512" xmlns="http://www.w3.org/2000/svg"><g><path d="m95.805 209.203c-52.912 0-95.805 42.893-95.805 95.805v96.611c0 3.253 2.637 5.89 5.89 5.89h2.829c19.691 0 35.653-15.962 35.653-35.653v-76.832c0-27.599 21.85-50.19 49.16-51.384l44.372-34.438h-42.099z" fill="#8c5e5e"/><path d="m397.316 8.315h-32.731c-5.713 0-11.04 2.886-14.16 7.672l-164.896 252.92h149.01l62.778-175.414v-85.178z" fill="#8c5e5e"/><path d="m389.572 489.086c3.583 6.589-1.176 14.598-8.675 14.598h-36.673c-3.982 0-7.199-3.217-7.199-7.199v-67.833l-4.038-24.249c-60.656 24.482-134.214-44.039-134.214-44.039h-27.921c-1.653 45.293-41.153 68.133-55.296 74.877-3.04 1.453-4.983 4.512-4.983 7.896v26.127l8.596 20.768c2.685 6.501-2.094 13.654-9.127 13.654h-41.489c-3.982 0-7.199-3.217-7.199-7.199v-79.77c0-4.127 1.62-8.098 4.504-11.06l10.139-10.35c2.884-2.962 4.504-6.933 4.504-11.06v-22.94c-32.391-41.188-30.827-94.257-9.085-126.094 25.891-37.916 79.159-37.749 118.994 0h71.283l110.496-169.467 42.131 195.813-33.601 64.517v146.738z" fill="#e5936a"/><g fill="#c77e67"><path d="m380.719 472.813v-146.738l33.601-64.517-42.131-195.812-16.46 25.244 36.7 170.569-33.601 64.517v146.738l8.852 16.273c3.583 6.589-1.176 14.598-8.675 14.598h21.891c7.499 0 12.258-8.009 8.675-14.598z"/><path d="m332.986 404.403c-60.656 24.482-134.214-44.039-134.214-44.039h-27.921c.355-9.54-.965-20.078-4.57-31.67h21.932c4.197 0 8.253 1.479 11.459 4.187 16.878 14.263 75.552 59.485 129.542 48.826z"/><path d="m115.556 435.241c17.081-8.148 71.102-39.746 50.902-105.983-1.527-5.006-6.12-8.451-11.354-8.451-7.607 0-13.258 7.077-11.539 14.487 12.997 56.022-36.098 79.919-52.521 87.753-3.04 1.45-4.969 4.517-4.969 7.885v38.332l8.594 20.77c2.69 6.502-2.089 13.652-9.125 13.652h24.496c7.037 0 11.818-7.152 9.127-13.654l-8.596-20.768v-26.127c.002-3.376 1.938-6.443 4.985-7.896z"/></g><g fill="#e5936a"><path d="m509.336 22.392c7.061 25.593 1.286 53.623-31.933 69.088l-22.775-13.518c-5.046-33.986 22.882-50.609 50.646-57.905 1.764-.463 3.577.577 4.062 2.335z"/><path d="m319.299 22.392c-7.061 25.593-1.286 53.623 31.933 69.088l22.775-13.518c5.046-33.986-22.882-50.609-50.646-57.905-1.764-.463-3.577.577-4.062 2.335z"/></g><path d="m502.012 122.761c-4.014-13.264-18.073-42.152-27.234-60.388-4.962-9.878-15.065-16.112-26.119-16.112h-68.684c-11.054 0-21.157 6.235-26.119 16.112-9.161 18.236-23.22 47.124-27.234 60.388-3.243 10.715-5.424 34.987 0 44.78 3.228 5.828 16.738 13.237 26.114 17.846 5.726 2.815 9.337 8.657 9.337 15.038v23.169l10 7.681h84.488l10-7.681v-23.169c0-6.381 3.611-12.223 9.337-15.038 9.377-4.609 22.886-12.018 26.114-17.846 5.425-9.793 3.243-34.065 0-44.78z" fill="#eaab8a"/><path d="m466.561 223.594c-12.415-15.052-31.209-24.647-52.244-24.647s-39.829 9.595-52.244 24.647v17.681c0 26.259 21.287 47.547 47.547 47.547h9.395c26.259 0 47.546-21.287 47.546-47.547z" fill="#ffeee8"/><path d="m428.396 70.396h-6.228c-14.304 0-26.109-11.189-26.875-25.473l-1.749-32.628c-.116-2.163 1.606-3.98 3.772-3.98h5.019c17.916 0 32.163 15.032 31.204 32.922l-1.371 25.583c-.108 2.005-1.764 3.576-3.772 3.576z" fill="#aa7f7f"/><g fill="#8c5e5e"><path d="m373.71 127.602c-4.142 0-7.5-3.358-7.5-7.5v-4.992c0-4.142 3.358-7.5 7.5-7.5s7.5 3.358 7.5 7.5v4.992c0 4.142-3.358 7.5-7.5 7.5z"/><path d="m454.928 127.602c-4.142 0-7.5-3.358-7.5-7.5v-4.992c0-4.142 3.358-7.5 7.5-7.5s7.5 3.358 7.5 7.5v4.992c0 4.142-3.358 7.5-7.5 7.5z"/></g><g fill="#aa7f7f"><path d="m396.792 251.759c-.364 0-.733-.026-1.104-.082-4.098-.604-6.929-4.417-6.324-8.515.03-.202-.058-.499-.164-.71-3.649-.988-6.042-4.589-5.439-8.408.647-4.091 4.483-6.883 8.579-6.237 7.523 1.189 13.067 9.388 11.863 17.546-.55 3.727-3.753 6.406-7.411 6.406z"/><path d="m431.846 251.759c-3.658 0-6.86-2.679-7.41-6.406-1.204-8.158 4.339-16.357 11.863-17.546 4.092-.646 7.933 2.146 8.579 6.237.604 3.819-1.79 7.42-5.439 8.408-.106.211-.194.508-.164.71.605 4.098-2.227 7.91-6.324 8.515-.372.056-.741.082-1.105.082z"/></g></g></svg>