<svg id="Capa_1" enable-background="new 0 0 512 512" height="512" viewBox="0 0 512 512" width="512" xmlns="http://www.w3.org/2000/svg"><g><path d="m14.139 439.497c35.558-5.811 40.937.046 60.629-24.234 27.216-62 12.525-177.729 67.319-157.36l20.058-65.735c-146.13-36.849-126.183 100.929-139.548 191.039-3.527 23.779.627 34.238-11.203 47.293-2.752 3.037-1.301 9.658 2.745 8.997z" fill="#dc805a"/><path d="m74.763 415.261c-10.193-20.678-31.091-29.691-52.169-32.055-3.527 23.778-9.371 44.239-21.2 57.293-2.753 3.038-1.217 7.943 2.745 8.998 38.254 10.184 58.557-6.747 70.624-34.236z" fill="#ffeee8"/><path d="m174.548 177.788c-79.453 0-76.401 93.736-59.103 142.036 6.38 18.945 9.047 50.998-2.85 73.933-.424.818-.469 1.778-.095 2.62l26.505 59.548c.482 1.083 1.556 1.78 2.741 1.78h46.896c6.415 0 10.333-7.047 6.948-12.496l-16.584-26.696v-19.925c16.611-7.215 31.334-26.853 37.466-50.711h106.183v98.318c0 6.357 5.154 11.511 11.511 11.511h48.753c6.415 0 10.333-7.047 6.948-12.496l-14.111-22.714c-1.617-2.602-2.473-5.605-2.473-8.669l-.002-65.95h1.896c26.641 0 48.237-21.597 48.237-48.237v-121.853c.001 0-121.12.001-248.866.001z" fill="#e29576"/><g fill="#dc805a"><path d="m322.655 325.573v22.303h-106.183c1.838-7.122 2.904-14.641 3.018-22.303z"/><path d="m423.415 177.787v121.851c0 26.64-21.597 48.237-48.237 48.237h-1.896l-.003-23.237c22.114-4.402 38.766-23.899 38.766-47.3v-99.552c7.339 0 11.37.001 11.37.001z"/><path d="m389.867 445.208-14.111-22.715c-1.617-2.602-2.473-5.605-2.473-8.668v-96.981c0-4.925-3.992-8.917-8.917-8.917s-8.917 3.992-8.917 8.917v96.981c0 3.063.857 6.066 2.473 8.668l14.111 22.715c3.385 5.449-.534 12.496-6.948 12.496h17.834c6.415 0 10.333-7.047 6.948-12.496z"/><path d="m179.005 418.512v-19.925c27.914-12.124 50.503-59.331 35.939-102.694-1.403-4.179-5.915-6.45-10.108-5.09-4.077 1.322-6.436 5.623-5.275 9.749 10.875 38.631-8.679 72.834-33.889 85.97-2.194 1.143-3.528 3.456-3.528 5.93v23.624c0 1.593.445 3.154 1.286 4.507l15.298 24.626c3.385 5.449-.534 12.496-6.948 12.496h16.86c6.415 0 10.333-7.047 6.948-12.496z"/></g><g><g><path d="m507.787 56.178c-.541-.388-1.193-.713-1.947-.978-13.089-4.605-47.106 18.801-82.889 35.99l36.539 52.73 28.397 38.276c25.906-28.905 28.029-120.197 19.9-126.018z" fill="#ffeee8"/><path d="m412.951 81.19 46.539 62.73c4.568-32.289 21.811-76.49 46.344-88.704-13.072-4.619-57.087 8.779-92.883 25.974z" fill="#dc805a"/></g><g><path d="m272.121 56.178c.541-.388 1.193-.713 1.947-.978 13.09-4.605 47.106 18.801 82.889 35.99l-36.539 52.73-28.397 38.276c-25.906-28.905-28.029-120.197-19.9-126.018z" fill="#ffeee8"/><path d="m366.957 81.19-46.539 62.73c-4.568-32.289-21.811-76.49-46.344-88.704 13.072-4.619 57.087 8.779 92.883 25.974z" fill="#dc805a"/></g></g><path d="m426.352 73.132c-16.211-8.023-56.585-8.023-72.795 0-27.576 13.648-72.674 107.329-72.674 107.329s1.673 3.407 4.738 9.011c14.192 25.946 58.237 48.988 104.334 48.988s90.142-23.042 104.334-48.988c3.065-5.604 4.738-9.011 4.738-9.011s-45.1-93.68-72.675-107.329z" fill="#e7aa91"/><path d="m478.31 189.472c-18.096 0-35.738 5.496-50.45 15.717l-37.906 26.334-37.906-26.334c-14.712-10.221-32.354-15.717-50.45-15.717h-15.977c14.185 25.936 58.229 98.989 104.333 98.989s90.148-73.053 104.333-98.989z" fill="#ffeee8"/><path d="m412.044 221.727c0 12.2-14.28 22.09-22.09 22.09s-22.09-9.89-22.09-22.09 9.89-15.182 22.09-15.182 22.09 2.983 22.09 15.182z" fill="#9d6c6c"/><g fill="#8c5e5e"><path d="m342.416 178.951c-1.385 0-2.784-.383-4.036-1.184l-8.757-5.605c-3.489-2.233-4.507-6.872-2.273-10.36 2.231-3.489 6.872-4.505 10.359-2.273l8.757 5.605c3.489 2.233 4.507 6.872 2.273 10.36-1.43 2.235-3.851 3.457-6.323 3.457z"/><path d="m437.491 178.951c-2.472 0-4.892-1.221-6.323-3.458-2.233-3.488-1.216-8.127 2.273-10.36l8.757-5.605c3.489-2.232 8.127-1.214 10.359 2.273 2.233 3.489 1.216 8.127-2.273 10.36l-8.757 5.605c-1.252.802-2.652 1.185-4.036 1.185z"/></g></g></svg>