<svg id="Capa_1" enable-background="new 0 0 512 512" height="512" viewBox="0 0 512 512" width="512" xmlns="http://www.w3.org/2000/svg"><g><path d="m456.736 467.078c0 3.563-1.441 6.774-3.766 9.11-2.336 2.325-5.558 3.767-9.111 3.767h-82.797c-8.918 0-17.11-4.896-21.334-12.747l-51.776-96.217c-27.329 19.232-58.466 26.113-94.818 18.379-9.174 24.545-26.125 41.591-26.125 41.591l9.867 4.759c7.264 3.509 11.894 10.869 11.894 18.944v19.33c0 3.296-2.678 5.963-5.963 5.963l-112.791-.001c-7.222 0-13.067-5.846-13.067-13.067v-54.945l-8.073-3.777c-29.824-13.964-48.876-43.917-48.876-76.856 0-33.953 13.759-64.685 36.01-86.936s52.993-36.012 86.946-36.012h16.128c32.854 0 114.981-25.294 129.36-62.575l130.956.002s1.067 105.059 0 106.125c-1.067 1.056-35.916 78.146-35.916 78.146l63.64 108.43c1.76 2.997 4.222 5.524 7.166 7.38l16.407 10.295c3.757 2.357 6.039 6.475 6.039 10.912z" fill="#b9c3cd"/><g fill="#a2abb8"><path d="m450.699 456.166-16.407-10.295c-2.944-1.856-5.406-4.383-7.166-7.38l-63.64-108.43s34.849-77.09 35.916-78.146c1.067-1.067 0-106.125 0-106.125h-27.372s1.067 107.213 0 108.302c-.89.899-25.29 55.797-33.355 73.974-1.61 3.629-1.391 7.807.588 11.25l60.49 105.178c1.76 3.059 4.224 5.639 7.168 7.533l16.406 10.505c3.755 2.406 6.038 6.608 6.038 11.136 0 2.281-.568 4.42-1.564 6.287l16.059.001c3.552 0 6.775-1.441 9.111-3.767 2.325-2.336 3.766-5.547 3.766-9.11-.001-4.438-2.283-8.556-6.038-10.913z"/><path d="m287.953 370.991c-27.329 19.232-58.466 26.113-94.818 18.379 3.083-8.214 5.291-17.259 5.696-26.795 29.057 4.533 54.817.085 78.007-12.235z"/><path d="m176.876 435.719-9.867-4.759s72.252-72.64-.723-133.997c-2.132-1.793-4.996-2.468-7.711-1.848-6.565 1.498-9.222 9.499-4.758 14.54 48.163 54.396-13.202 121.305-13.202 121.305l9.867 4.76c7.272 3.508 11.894 10.869 11.894 18.944v19.331c0 3.293-2.67 5.963-5.963 5.963l26.394-.002c3.293 0 5.963-2.67 5.963-5.963v-19.33c0-8.074-4.622-15.436-11.894-18.944z"/></g><g><g><path d="m286.008 36.709c-33.26-15.212-74.543 8.182-83.73 49.57-3.354 15.108-.225 32.191 10.587 43.264 14.145 14.486 36.541 15.877 55.58 16.246l44.67-61.134c3.129-19.686-9.38-39.838-27.107-47.946z" fill="#b9c3cd"/><path d="m277.688 75.899c-14.935-6.831-33.473 3.674-37.598 22.259-1.506 6.784-.101 14.455 4.754 19.427 6.352 6.505 16.409 7.128 24.959 7.294l20.058-27.451c1.404-8.839-4.213-17.889-12.173-21.529z" fill="#ffeee8"/></g><g><path d="m426.988 36.709c33.26-15.212 74.543 8.182 83.73 49.57 3.354 15.108.225 32.191-10.587 43.264-14.145 14.486-36.542 15.875-55.582 16.243l-44.668-61.132c-3.129-19.685 9.38-39.837 27.107-47.945z" fill="#b9c3cd"/><path d="m435.308 75.899c14.935-6.831 33.473 3.674 37.598 22.259 1.506 6.784.101 14.455-4.754 19.427-6.352 6.505-16.409 7.128-24.958 7.294l-20.058-27.451c-1.405-8.839 4.212-17.889 12.172-21.529z" fill="#ffeee8"/></g></g><path d="m454.556 248.682c-6.277 5.124-14.769 9.404-24.745 12.841-20.327 7.003-46.82.504-73.313.504s-52.985 6.499-73.313-.504c-9.977-3.437-18.468-7.717-24.745-12.841-29.337-23.946-19.167-178.664 98.058-178.664s127.395 154.718 98.058 178.664z" fill="#c8d2dc"/><path d="m283.188 261.516c40.656 14.009 105.963 14.009 146.62 0-2.134-38.641-34.136-69.319-73.31-69.319s-71.176 30.678-73.31 69.319z" fill="#ffeee8"/><path d="m356.498 131.658c-13.17 0-23.846 10.676-23.846 23.845v29.014c0 13.169 10.676 23.845 23.846 23.845 13.169 0 23.845-10.676 23.845-23.845v-29.014c.001-13.169-10.675-23.845-23.845-23.845z" fill="#dc805a"/><g fill="#655e67"><path d="m295.181 163.719c-4.268 0-7.726-3.459-7.726-7.726v-4.566c0-4.267 3.459-7.726 7.726-7.726s7.726 3.459 7.726 7.726v4.566c0 4.267-3.458 7.726-7.726 7.726z"/><path d="m417.815 163.719c-4.268 0-7.726-3.459-7.726-7.726v-4.566c0-4.267 3.459-7.726 7.726-7.726s7.726 3.459 7.726 7.726v4.566c0 4.267-3.459 7.726-7.726 7.726z"/></g><path d="m356.498 246.48c-7.631 0-15.263-1.542-22.84-4.627-3.953-1.609-5.852-6.117-4.243-10.069 1.609-3.951 6.118-5.852 10.068-4.243 11.451 4.661 22.579 4.661 34.03 0 3.951-1.608 8.46.291 10.068 4.243 1.609 3.952-.291 8.46-4.243 10.069-7.577 3.085-15.209 4.627-22.84 4.627z" fill="#655e67"/></g></svg>