<svg width="1080" height="1920" viewBox="0 0 1080 1920" fill="none" xmlns="http://www.w3.org/2000/svg">
<g clip-path="url(#clip0_266_188)">
<rect width="1080" height="1920" fill="#FECA52"/>
<rect width="893.364" height="203.483" transform="matrix(0.999682 -0.0252359 0.0223038 0.999751 116 72.5449)" fill="#FE5C2D"/>
<path d="M191.547 203.427C187.016 203.577 182.602 203.163 178.305 202.185C174.008 201.206 170.499 199.828 167.779 198.051L172.635 186.204C175.188 187.773 178.133 189.01 181.467 189.913C184.802 190.817 188.068 191.215 191.266 191.109C197.343 190.908 200.337 189.288 200.248 186.249C200.201 184.65 199.287 183.506 197.506 182.818C195.777 182.075 192.981 181.341 189.118 180.615C184.881 179.848 181.334 179.005 178.48 178.086C175.623 177.113 173.149 175.514 171.056 173.289C168.963 171.064 167.86 168.005 167.746 164.114C167.646 160.702 168.489 157.605 170.275 154.825C172.06 151.991 174.768 149.713 178.399 147.992C182.083 146.269 186.617 145.318 192.001 145.14C195.679 145.018 199.316 145.325 202.912 146.059C206.507 146.741 209.687 147.836 212.453 149.345L207.92 161.262C202.505 158.559 197.292 157.291 192.282 157.457C189.137 157.562 186.859 158.117 185.448 159.125C184.035 160.079 183.35 161.302 183.394 162.795C183.438 164.287 184.323 165.379 186.051 166.068C187.779 166.758 190.546 167.44 194.354 168.115C198.645 168.88 202.192 169.749 204.995 170.724C207.85 171.643 210.324 173.215 212.416 175.44C214.561 177.611 215.69 180.641 215.804 184.533C215.902 187.892 215.059 190.961 213.272 193.742C211.486 196.523 208.752 198.801 205.069 200.577C201.385 202.3 196.877 203.25 191.547 203.427ZM267.2 156.416L268.469 199.757L253.997 200.237L253.861 195.599C252.313 197.411 250.433 198.807 248.221 199.788C246.009 200.768 243.65 201.3 241.145 201.383C235.548 201.569 231.022 200.064 227.567 196.87C224.165 193.675 222.368 188.771 222.174 182.161L221.465 157.931L236.656 157.428L237.293 179.179C237.388 182.431 238.071 184.783 239.341 186.235C240.61 187.687 242.418 188.374 244.763 188.296C247.162 188.217 249.083 187.326 250.527 185.624C252.023 183.867 252.72 181.255 252.619 177.79L252.008 156.919L267.2 156.416ZM304.229 154.469C308.173 154.338 311.772 155.152 315.025 156.912C318.329 158.617 320.965 161.145 322.93 164.495C324.947 167.79 326.022 171.676 326.153 176.154C326.284 180.632 325.44 184.609 323.621 188.085C321.854 191.505 319.371 194.202 316.175 196.176C313.029 198.094 309.485 199.119 305.54 199.249C300.476 199.417 296.407 198.031 293.333 195.091L293.9 214.443L278.708 214.946L276.985 156.092L291.457 155.612L291.583 159.93C294.31 156.478 298.525 154.658 304.229 154.469ZM301.988 187.281C304.653 187.192 306.812 186.214 308.465 184.344C310.116 182.422 310.895 179.862 310.801 176.663C310.707 173.464 309.781 170.987 308.022 169.231C306.262 167.422 304.049 166.561 301.384 166.649C298.719 166.738 296.561 167.743 294.91 169.665C293.257 171.534 292.477 174.068 292.571 177.267C292.665 180.466 293.592 182.97 295.352 184.779C297.111 186.535 299.323 187.369 301.988 187.281ZM356.717 185.947C358.796 185.878 360.573 185.526 362.049 184.89C363.577 184.253 365.095 183.242 366.602 181.858L374.761 189.912C370.794 194.739 364.733 197.288 356.577 197.558C351.513 197.726 347.034 196.914 343.14 195.122C339.246 193.33 336.183 190.763 333.951 187.422C331.772 184.079 330.619 180.249 330.493 175.93C330.368 171.666 331.296 167.819 333.276 164.392C335.255 160.911 338.029 158.151 341.598 156.112C345.219 154.071 349.296 152.975 353.827 152.825C358.038 152.686 361.901 153.438 365.417 155.083C368.986 156.672 371.858 159.111 374.035 162.401C376.211 165.637 377.366 169.548 377.5 174.133L346.73 181.075C348.484 184.486 351.813 186.11 356.717 185.947ZM354.223 163.618C351.611 163.704 349.503 164.601 347.899 166.309C346.293 167.963 345.428 170.313 345.304 173.359L362.794 169.337C362.207 167.542 361.153 166.136 359.629 165.12C358.104 164.05 356.301 163.549 354.223 163.618ZM398.504 157.268C399.992 155.244 401.948 153.712 404.371 152.671C406.847 151.575 409.684 150.974 412.882 150.868L413.283 164.543C411.892 164.429 410.744 164.387 409.838 164.417C406.586 164.524 404.053 165.489 402.239 167.31C400.478 169.129 399.651 171.851 399.757 175.476L400.34 195.388L385.148 195.891L383.879 152.55L398.351 152.07L398.504 157.268ZM475.6 148.79C480.931 148.614 485.215 150.073 488.454 153.167C491.746 156.26 493.486 161.031 493.675 167.482L494.401 192.271L479.209 192.775L478.556 170.464C478.467 167.425 477.815 165.206 476.6 163.805C475.439 162.403 473.819 161.736 471.74 161.805C469.448 161.881 467.632 162.742 466.293 164.387C464.954 166.032 464.332 168.481 464.427 171.733L465.057 193.244L449.865 193.747L449.212 171.436C449.039 165.519 446.767 162.633 442.396 162.777C440.05 162.855 438.208 163.717 436.869 165.362C435.53 167.007 434.908 169.456 435.003 172.708L435.633 194.218L420.442 194.722L419.172 151.38L433.644 150.901L433.778 155.459C435.326 153.647 437.18 152.278 439.34 151.352C441.552 150.372 443.964 149.839 446.576 149.752C449.615 149.651 452.349 150.121 454.781 151.161C457.212 152.201 459.208 153.843 460.768 156.085C462.409 153.843 464.519 152.092 467.097 150.833C469.674 149.574 472.509 148.893 475.6 148.79ZM549.16 147.073L550.429 190.415L535.957 190.894L535.83 186.576C533.104 190.028 528.889 191.849 523.185 192.038C519.24 192.169 515.616 191.382 512.311 189.677C509.058 187.917 506.423 185.363 504.404 182.014C502.438 178.664 501.39 174.75 501.259 170.272C501.128 165.794 501.946 161.845 503.713 158.425C505.532 154.949 508.014 152.252 511.159 150.334C514.358 148.413 517.929 147.388 521.874 147.257C526.991 147.088 531.059 148.447 534.078 151.335L533.968 147.577L549.16 147.073ZM526.03 179.857C528.695 179.769 530.854 178.79 532.506 176.921C534.158 174.999 534.935 172.411 534.84 169.16C534.747 165.961 533.82 163.484 532.062 161.728C530.303 159.971 528.091 159.138 525.426 159.226C522.76 159.314 520.601 160.293 518.949 162.162C517.296 164.031 516.517 166.565 516.61 169.764C516.705 173.015 517.633 175.546 519.394 177.355C521.152 179.112 523.364 179.945 526.03 179.857ZM573.564 151.468C575.052 149.444 577.008 147.912 579.432 146.871C581.907 145.775 584.744 145.174 587.942 145.068L588.343 158.742C586.952 158.628 585.804 158.586 584.898 158.616C581.646 158.724 579.113 159.688 577.299 161.509C575.538 163.329 574.711 166.051 574.817 169.676L575.4 189.587L560.209 190.091L558.939 146.749L573.411 146.27L573.564 151.468ZM614.726 173.076L610.382 177.783L610.693 188.418L595.502 188.921L593.764 129.587L608.956 129.083L609.867 160.19L624.936 144.563L642.926 143.966L625.479 163.115L645.714 187.258L627.324 187.867L614.726 173.076ZM671.232 175.526C673.311 175.457 675.088 175.105 676.563 174.469C678.092 173.831 679.61 172.821 681.117 171.437L689.276 179.491C685.309 184.318 679.247 186.867 671.092 187.137C666.028 187.305 661.549 186.493 657.655 184.701C653.761 182.909 650.698 180.342 648.466 177.001C646.287 173.658 645.134 169.827 645.008 165.509C644.883 161.244 645.811 157.398 647.791 153.971C649.77 150.49 652.544 147.73 656.112 145.691C659.734 143.65 663.811 142.554 668.341 142.404C672.552 142.264 676.416 143.017 679.932 144.661C683.5 146.251 686.373 148.69 688.55 151.98C690.726 155.216 691.881 159.127 692.015 163.712L661.245 170.654C662.999 174.065 666.328 175.689 671.232 175.526ZM668.737 153.197C666.126 153.283 664.018 154.18 662.414 155.888C660.808 157.542 659.943 159.892 659.819 162.937L677.309 158.916C676.722 157.121 675.667 155.715 674.144 154.698C672.618 153.628 670.816 153.128 668.737 153.197ZM727.516 182.786C726.261 183.628 724.706 184.293 722.853 184.782C721.053 185.268 719.114 185.546 717.035 185.615C711.385 185.802 707 184.56 703.88 181.888C700.814 179.215 699.201 175.133 699.04 169.642L697.951 132.458L713.143 131.955L713.473 143.23L723.307 142.904L723.64 154.259L713.805 154.585L714.227 168.979C714.274 170.578 714.709 171.791 715.534 172.617C716.358 173.444 717.464 173.834 718.849 173.788C720.608 173.73 722.141 173.226 723.447 172.275L727.516 182.786ZM777.085 184.025C772.554 184.175 768.14 183.761 763.843 182.783C759.546 181.805 756.037 180.427 753.317 178.649L758.173 166.802C760.726 168.372 763.671 169.608 767.005 170.512C770.34 171.415 773.606 171.814 776.804 171.708C782.881 171.507 785.875 169.887 785.786 166.848C785.739 165.249 784.825 164.105 783.044 163.417C781.315 162.674 778.519 161.939 774.656 161.213C770.419 160.447 766.872 159.604 764.018 158.684C761.161 157.712 758.687 156.113 756.594 153.888C754.501 151.662 753.398 148.604 753.284 144.712C753.184 141.3 754.027 138.204 755.813 135.423C757.598 132.589 760.306 130.312 763.937 128.591C767.621 126.868 772.155 125.917 777.539 125.739C781.217 125.617 784.854 125.923 788.45 126.658C792.045 127.339 795.225 128.434 797.991 129.944L793.458 141.86C788.043 139.158 782.83 137.89 777.82 138.056C774.675 138.16 772.397 138.716 770.986 139.723C769.573 140.677 768.888 141.901 768.932 143.393C768.976 144.886 769.861 145.977 771.589 146.667C773.317 147.357 776.084 148.039 779.892 148.713C784.183 149.478 787.73 150.348 790.533 151.322C793.388 152.242 795.862 153.814 797.954 156.039C800.099 158.209 801.228 161.24 801.342 165.132C801.44 168.49 800.597 171.56 798.811 174.341C797.025 177.121 794.29 179.4 790.607 181.176C786.923 182.899 782.415 183.849 777.085 184.025ZM852.977 137.007L854.247 180.348L839.775 180.828L839.648 176.509C836.921 179.962 832.706 181.782 827.003 181.971C823.058 182.102 819.434 181.315 816.129 179.61C812.876 177.85 810.24 175.296 808.221 171.948C806.256 168.598 805.207 164.684 805.076 160.205C804.945 155.727 805.763 151.778 807.531 148.358C809.35 144.882 811.832 142.185 814.977 140.267C818.175 138.346 821.747 137.321 825.691 137.19C830.809 137.021 834.877 138.38 837.896 141.268L837.786 137.51L852.977 137.007ZM829.847 169.79C832.512 169.702 834.671 168.723 836.324 166.854C837.975 164.932 838.753 162.345 838.658 159.093C838.564 155.894 837.638 153.417 835.879 151.661C834.12 149.905 831.908 149.071 829.243 149.159C826.578 149.247 824.419 150.226 822.766 152.095C821.114 153.964 820.334 156.498 820.428 159.697C820.523 162.949 821.451 165.479 823.211 167.289C824.97 169.045 827.182 169.879 829.847 169.79ZM880.918 180.185C875.588 180.361 871.39 179.14 868.325 176.52C865.313 173.845 863.731 169.948 863.581 164.83L862.289 120.689L877.48 120.186L878.75 163.527C878.796 165.127 879.232 166.34 880.057 167.166C880.934 167.991 882.12 168.378 883.612 168.329C884.838 168.288 885.976 167.984 887.027 167.415L888.001 178.829C885.731 179.652 883.37 180.103 880.918 180.185ZM915.551 167.431C917.63 167.362 919.407 167.01 920.882 166.374C922.411 165.736 923.929 164.725 925.436 163.341L933.595 171.395C929.628 176.223 923.567 178.772 915.411 179.042C910.347 179.21 905.868 178.397 901.974 176.605C898.08 174.813 895.017 172.247 892.785 168.906C890.606 165.563 889.453 161.732 889.327 157.414C889.202 153.149 890.13 149.303 892.11 145.875C894.089 142.395 896.863 139.635 900.432 137.595C904.053 135.554 908.13 134.459 912.66 134.309C916.871 134.169 920.735 134.922 924.251 136.566C927.819 138.155 930.692 140.595 932.869 143.885C935.045 147.121 936.2 151.031 936.334 155.616L905.564 162.559C907.318 165.969 910.647 167.593 915.551 167.431ZM913.057 145.101C910.445 145.188 908.337 146.085 906.733 147.792C905.127 149.446 904.262 151.796 904.138 154.842L921.628 150.821C921.041 149.026 919.987 147.62 918.463 146.603C916.937 145.533 915.135 145.032 913.057 145.101ZM940.504 121.46L958.574 120.861L956.578 156.546L944.505 156.946L940.504 121.46ZM951.199 177.856C948.534 177.944 946.325 177.217 944.573 175.674C942.819 174.078 941.907 172.107 941.839 169.762C941.768 167.363 942.563 165.362 944.224 163.759C945.884 162.157 948.047 161.311 950.712 161.223C953.378 161.135 955.559 161.836 957.257 163.327C959.008 164.817 959.918 166.761 959.989 169.16C960.057 171.506 959.263 173.533 957.606 175.242C955.947 176.898 953.811 177.769 951.199 177.856Z" fill="white"/>
<rect x="50" y="324" width="987" height="1236" rx="20" fill="white"/>
</g>
<defs>
<clipPath id="clip0_266_188">
<rect width="1080" height="1920" fill="white"/>
</clipPath>
</defs>
</svg>
