<svg width="1080" height="1920" viewBox="0 0 1080 1920" fill="none" xmlns="http://www.w3.org/2000/svg">
<g id="supermarket" clip-path="url(#clip0_413_10737)">
<g id="bg">
<rect id="Rectangle 107" width="1080" height="1920" fill="#FECA52"/>
<g id="header">
<rect id="Rectangle 67" width="893.364" height="142.271" transform="matrix(0.999682 -0.0252359 0.0223038 0.999751 115.645 56.6016)" fill="#FE5C2D"/>
<path id="Supermarket Sale!" d="M201.582 155.427C197.051 155.577 192.637 155.163 188.34 154.185C184.043 153.206 180.534 151.828 177.815 150.051L182.67 138.204C185.224 139.773 188.168 141.01 191.502 141.913C194.837 142.817 198.103 143.215 201.301 143.109C207.378 142.908 210.372 141.288 210.283 138.249C210.236 136.65 209.322 135.506 207.541 134.818C205.812 134.075 203.016 133.341 199.153 132.615C194.916 131.848 191.37 131.005 188.515 130.086C185.658 129.113 183.184 127.514 181.091 125.289C178.999 123.064 177.895 120.005 177.781 116.114C177.681 112.702 178.524 109.605 180.31 106.825C182.095 103.991 184.803 101.713 188.434 99.9921C192.118 98.2691 196.652 97.3185 202.036 97.1401C205.714 97.0182 209.351 97.3246 212.948 98.0592C216.542 98.7406 219.722 99.8358 222.488 101.345L217.955 113.262C212.54 110.559 207.327 109.291 202.317 109.457C199.172 109.562 196.894 110.117 195.483 111.125C194.07 112.079 193.386 113.302 193.429 114.795C193.473 116.287 194.359 117.379 196.086 118.068C197.814 118.758 200.582 119.44 204.39 120.115C208.68 120.88 212.227 121.749 215.03 122.724C217.885 123.643 220.359 125.215 222.452 127.44C224.596 129.611 225.725 132.641 225.839 136.533C225.938 139.892 225.094 142.961 223.308 145.742C221.522 148.523 218.787 150.801 215.104 152.577C211.42 154.3 206.912 155.25 201.582 155.427ZM277.235 108.416L278.504 151.757L264.032 152.237L263.896 147.599C262.348 149.411 260.468 150.807 258.256 151.788C256.044 152.768 253.685 153.3 251.18 153.383C245.583 153.569 241.057 152.064 237.602 148.87C234.2 145.675 232.403 140.771 232.209 134.161L231.5 109.931L246.691 109.428L247.328 131.179C247.424 134.431 248.106 136.783 249.376 138.235C250.645 139.687 252.453 140.374 254.798 140.296C257.197 140.217 259.118 139.326 260.563 137.624C262.058 135.867 262.756 133.255 262.654 129.79L262.043 108.919L277.235 108.416ZM314.264 106.469C318.208 106.338 321.807 107.152 325.06 108.912C328.365 110.617 331 113.145 332.965 116.495C334.983 119.79 336.057 123.676 336.188 128.154C336.319 132.632 335.475 136.609 333.656 140.085C331.889 143.505 329.407 146.202 326.21 148.176C323.065 150.094 319.52 151.119 315.575 151.249C310.511 151.417 306.442 150.031 303.368 147.091L303.935 166.443L288.743 166.946L287.02 108.092L301.492 107.612L301.618 111.93C304.345 108.478 308.56 106.658 314.264 106.469ZM312.023 139.281C314.689 139.192 316.848 138.214 318.5 136.344C320.151 134.422 320.93 131.862 320.836 128.663C320.743 125.464 319.816 122.987 318.058 121.231C316.297 119.422 314.084 118.561 311.419 118.649C308.754 118.738 306.596 119.743 304.945 121.665C303.292 123.534 302.513 126.068 302.606 129.267C302.7 132.466 303.627 134.97 305.387 136.779C307.146 138.535 309.358 139.369 312.023 139.281ZM366.752 137.947C368.831 137.878 370.608 137.526 372.084 136.89C373.612 136.253 375.13 135.242 376.637 133.858L384.796 141.912C380.829 146.739 374.768 149.288 366.612 149.558C361.548 149.726 357.069 148.914 353.175 147.122C349.281 145.33 346.218 142.763 343.986 139.422C341.807 136.079 340.655 132.249 340.528 127.93C340.403 123.666 341.331 119.819 343.312 116.392C345.291 112.911 348.064 110.151 351.633 108.112C355.255 106.071 359.331 104.975 363.862 104.825C368.073 104.686 371.936 105.438 375.453 107.083C379.021 108.672 381.893 111.111 384.07 114.401C386.246 117.637 387.401 121.548 387.535 126.133L356.766 133.075C358.519 136.486 361.848 138.11 366.752 137.947ZM364.258 115.618C361.646 115.704 359.538 116.601 357.934 118.309C356.328 119.963 355.463 122.313 355.339 125.359L372.829 121.337C372.243 119.542 371.188 118.136 369.664 117.12C368.139 116.05 366.337 115.549 364.258 115.618ZM408.539 109.268C410.027 107.244 411.983 105.712 414.407 104.671C416.882 103.575 419.719 102.974 422.917 102.868L423.318 116.543C421.927 116.429 420.779 116.387 419.873 116.417C416.621 116.524 414.088 117.489 412.274 119.31C410.513 121.129 409.686 123.851 409.792 127.476L410.375 147.388L395.184 147.891L393.914 104.55L408.386 104.07L408.539 109.268ZM485.635 100.79C490.966 100.614 495.25 102.073 498.489 105.167C501.781 108.26 503.521 113.031 503.71 119.482L504.436 144.271L489.244 144.775L488.591 122.464C488.502 119.425 487.85 117.206 486.635 115.805C485.474 114.403 483.854 113.736 481.775 113.805C479.483 113.881 477.667 114.742 476.328 116.387C474.989 118.032 474.367 120.481 474.462 123.733L475.092 145.244L459.901 145.747L459.247 123.436C459.074 117.519 456.802 114.633 452.431 114.777C450.086 114.855 448.243 115.717 446.904 117.362C445.565 119.007 444.943 121.456 445.038 124.708L445.668 146.218L430.477 146.722L429.208 103.38L443.68 102.901L443.813 107.459C445.361 105.647 447.215 104.278 449.375 103.352C451.587 102.372 454 101.839 456.611 101.752C459.65 101.651 462.385 102.121 464.816 103.161C467.248 104.201 469.243 105.843 470.803 108.085C472.444 105.843 474.554 104.092 477.132 102.833C479.709 101.574 482.544 100.893 485.635 100.79ZM559.195 99.0733L560.464 142.415L545.992 142.894L545.866 138.576C543.139 142.028 538.924 143.849 533.22 144.038C529.276 144.169 525.651 143.382 522.346 141.677C519.094 139.917 516.458 137.363 514.439 134.014C512.473 130.664 511.425 126.75 511.294 122.272C511.163 117.794 511.981 113.845 513.748 110.425C515.567 106.949 518.049 104.252 521.194 102.334C524.393 100.413 527.964 99.3878 531.909 99.2571C537.026 99.0875 541.094 100.447 544.113 103.335L544.003 99.5767L559.195 99.0733ZM536.065 131.857C538.73 131.769 540.889 130.79 542.542 128.921C544.193 126.999 544.971 124.411 544.875 121.16C544.782 117.961 543.855 115.484 542.097 113.728C540.338 111.971 538.126 111.138 535.461 111.226C532.795 111.314 530.637 112.293 528.984 114.162C527.331 116.031 526.552 118.565 526.645 121.764C526.741 125.015 527.668 127.546 529.429 129.355C531.188 131.112 533.4 131.945 536.065 131.857ZM583.599 103.468C585.087 101.444 587.043 99.9116 589.467 98.8707C591.942 97.7748 594.779 97.1739 597.978 97.0679L598.378 110.742C596.987 110.628 595.839 110.586 594.933 110.616C591.681 110.724 589.148 111.688 587.334 113.509C585.574 115.329 584.746 118.051 584.852 121.676L585.435 141.587L570.244 142.091L568.975 98.7493L583.447 98.2698L583.599 103.468ZM624.761 125.076L620.417 129.783L620.729 140.418L605.537 140.921L603.799 81.5867L618.991 81.0834L619.902 112.19L634.971 96.5626L652.961 95.9665L635.514 115.115L655.749 139.258L637.359 139.867L624.761 125.076ZM681.267 127.526C683.346 127.457 685.123 127.105 686.599 126.469C688.127 125.831 689.645 124.821 691.152 123.437L699.311 131.491C695.344 136.318 689.283 138.867 681.127 139.137C676.063 139.305 671.584 138.493 667.69 136.701C663.796 134.909 660.733 132.342 658.501 129.001C656.322 125.658 655.169 121.827 655.043 117.509C654.918 113.244 655.846 109.398 657.826 105.971C659.805 102.49 662.579 99.73 666.148 97.6907C669.769 95.6497 673.846 94.5541 678.377 94.404C682.588 94.2644 686.451 95.0169 689.968 96.6613C693.536 98.2507 696.408 100.69 698.585 103.98C700.761 107.216 701.916 111.127 702.05 115.712L671.28 122.654C673.034 126.065 676.363 127.689 681.267 127.526ZM678.773 105.197C676.161 105.283 674.053 106.18 672.449 107.888C670.843 109.542 669.978 111.892 669.854 114.937L687.344 110.916C686.758 109.121 685.703 107.715 684.179 106.698C682.654 105.628 680.852 105.128 678.773 105.197ZM737.552 134.786C736.296 135.628 734.741 136.293 732.888 136.782C731.088 137.268 729.149 137.546 727.07 137.615C721.42 137.802 717.035 136.56 713.915 133.888C710.849 131.215 709.236 127.133 709.075 121.642L707.986 84.458L723.178 83.9547L723.508 95.2298L733.342 94.904L733.675 106.259L723.84 106.585L724.262 120.979C724.309 122.578 724.744 123.791 725.569 124.617C726.393 125.444 727.499 125.834 728.885 125.788C730.644 125.73 732.176 125.226 733.482 124.275L737.552 134.786ZM787.12 136.025C782.589 136.175 778.175 135.761 773.878 134.783C769.581 133.805 766.072 132.427 763.353 130.649L768.208 118.802C770.762 120.372 773.706 121.608 777.04 122.512C780.375 123.415 783.641 123.814 786.839 123.708C792.916 123.507 795.91 121.887 795.821 118.848C795.774 117.249 794.86 116.105 793.079 115.417C791.35 114.674 788.554 113.939 784.691 113.213C780.454 112.447 776.908 111.604 774.053 110.684C771.196 109.712 768.722 108.113 766.629 105.888C764.537 103.662 763.433 100.604 763.319 96.7122C763.219 93.3004 764.062 90.2041 765.848 87.4234C767.633 84.5895 770.341 82.3119 773.972 80.5907C777.656 78.8678 782.19 77.9171 787.574 77.7387C791.252 77.6169 794.889 77.9232 798.486 78.6579C802.08 79.3392 805.26 80.4345 808.026 81.9437L803.493 93.8603C798.078 91.1581 792.865 89.8901 787.855 90.0561C784.71 90.1603 782.432 90.716 781.021 91.7233C779.608 92.6773 778.924 93.9006 778.967 95.3933C779.011 96.886 779.897 97.9773 781.624 98.6671C783.352 99.3569 786.12 100.039 789.928 100.713C794.218 101.478 797.765 102.348 800.568 103.322C803.423 104.242 805.897 105.814 807.99 108.039C810.134 110.209 811.263 113.24 811.377 117.132C811.476 120.49 810.632 123.56 808.846 126.341C807.06 129.121 804.325 131.4 800.642 133.176C796.958 134.899 792.45 135.849 787.12 136.025ZM863.013 89.0066L864.282 132.348L849.81 132.828L849.683 128.509C846.956 131.962 842.741 133.782 837.038 133.971C833.093 134.102 829.469 133.315 826.164 131.61C822.911 129.85 820.275 127.296 818.256 123.948C816.291 120.598 815.243 116.684 815.111 112.205C814.98 107.727 815.798 103.778 817.566 100.358C819.385 96.8823 821.867 94.1853 825.012 92.2668C828.21 90.3465 831.782 89.321 835.726 89.1903C840.844 89.0207 844.912 90.3801 847.931 93.2683L847.821 89.5099L863.013 89.0066ZM839.882 121.79C842.548 121.702 844.707 120.723 846.359 118.854C848.01 116.932 848.788 114.345 848.693 111.093C848.599 107.894 847.673 105.417 845.914 103.661C844.156 101.905 841.944 101.071 839.278 101.159C836.613 101.247 834.454 102.226 832.802 104.095C831.149 105.964 830.369 108.498 830.463 111.697C830.558 114.949 831.486 117.479 833.246 119.289C835.005 121.045 837.217 121.879 839.882 121.79ZM890.953 132.185C885.623 132.361 881.425 131.14 878.361 128.52C875.348 125.845 873.766 121.948 873.616 116.83L872.324 72.6894L887.516 72.186L888.785 115.527C888.832 117.127 889.267 118.34 890.092 119.166C890.97 119.991 892.155 120.378 893.647 120.329C894.873 120.288 896.012 119.984 897.062 119.415L898.037 130.829C895.766 131.652 893.405 132.103 890.953 132.185ZM925.586 119.431C927.665 119.362 929.442 119.01 930.918 118.374C932.446 117.736 933.964 116.725 935.471 115.341L943.63 123.395C939.663 128.223 933.602 130.772 925.446 131.042C920.382 131.21 915.903 130.397 912.009 128.605C908.115 126.813 905.052 124.247 902.82 120.906C900.641 117.563 899.489 113.732 899.362 109.414C899.237 105.149 900.165 101.303 902.146 97.8754C904.124 94.3947 906.898 91.6347 910.467 89.5954C914.088 87.5543 918.165 86.4588 922.696 86.3086C926.907 86.1691 930.77 86.9216 934.287 88.566C937.855 90.1554 940.727 92.5949 942.904 95.8846C945.08 99.1209 946.235 103.031 946.369 107.616L915.6 114.559C917.353 117.969 920.682 119.593 925.586 119.431ZM923.092 97.1014C920.48 97.1879 918.372 98.0849 916.768 99.7922C915.162 101.446 914.297 103.796 914.173 106.842L931.663 102.821C931.077 101.026 930.022 99.6199 928.498 98.6031C926.973 97.5331 925.171 97.0325 923.092 97.1014ZM950.539 73.4596L968.609 72.8609L966.613 108.546L954.54 108.946L950.539 73.4596ZM961.235 129.856C958.569 129.944 956.361 129.217 954.608 127.674C952.854 126.078 951.942 124.107 951.874 121.762C951.804 119.363 952.599 117.362 954.259 115.759C955.92 114.157 958.082 113.311 960.748 113.223C963.413 113.135 965.594 113.836 967.292 115.327C969.043 116.817 969.954 118.761 970.024 121.16C970.092 123.506 969.298 125.533 967.641 127.242C965.982 128.898 963.847 129.769 961.235 129.856Z" fill="white"/>
</g>
<rect id="container" x="50" y="251" width="987" height="1132" rx="20" fill="white"/>
</g>
</g>

<defs>
<clipPath id="clip0_413_10737">
<rect width="1080" height="1920" fill="white"/>
</clipPath>
</defs>
</svg>
