<svg enable-background="new 0 0 512 512" height="512" viewBox="0 0 512 512" width="512" xmlns="http://www.w3.org/2000/svg"><g id="_x30_1_Melon"><g><path d="m473.665 256c0 141.322-97.465 255.932-217.647 255.932-120.245 0-217.71-114.61-217.71-255.932s97.465-255.932 217.71-255.932c120.182 0 217.647 114.61 217.647 255.932z" fill="#ffce29"/><g opacity=".4"><path d="m114.607 93.833c-3.406-2.959-3.77-8.118-.814-11.524 7.804-8.984 16.395-17.36 25.536-24.898 3.48-2.866 8.628-2.377 11.5 1.109 2.869 3.48 2.372 8.628-1.109 11.5-8.445 6.958-16.381 14.698-23.589 22.999-2.969 3.418-8.128 3.76-11.524.814z" fill="#fff"/></g><path d="m473.692 256c0 141.307-97.472 255.932-217.651 255.932-4.52 0-8.985-.164-13.45-.49 113.863-8.168 204.147-119.472 204.147-255.442 0-135.971-90.284-247.274-204.147-255.442 4.465-.327 8.93-.49 13.45-.49 120.179 0 217.651 114.625 217.651 255.932z" opacity=".08"/><g fill="#f2b816"><g><path d="m131.765 117.804c-32.574 98.251-21.963 200.939 17.512 276.392-54.989-69.233-63.752-193.357-17.512-276.392z"/><path d="m362.702 394.196c40.234-76.815 49.426-179.919 17.508-276.392 46.036 82.57 37.744 206.733-17.508 276.392z"/><path d="m183.999 117.804c-16.854 88.024-15.512 191.598 11.683 276.392-40.131-72.865-44.171-195.276-11.683-276.392z"/><path d="m316.294 394.196c27.359-85.156 28.371-188.933 11.681-276.392 32.136 80.11 28.831 202.724-11.681 276.392z"/></g><ellipse cx="255.987" cy="37.247" rx="26.93" ry="18.326"/></g></g></g></svg>