<svg enable-background="new 0 0 512 512" height="512" viewBox="0 0 512 512" width="512" xmlns="http://www.w3.org/2000/svg"><g id="_x30_2_Pomegranate"><g><path d="m450.036 286.841c0-91.916-60.187-169.3-142.144-192.708 10.769-66.044 41.158-76.205 41.158-76.205-50.042-.622-64.233 32.241-64.233 32.241-.684-33.735-28.817-50.104-28.817-50.104s-28.195 16.369-28.817 50.104c0 0-14.253-32.863-64.233-32.241 0 0 30.386 10.16 41.156 76.195-81.939 23.396-142.142 100.788-142.142 192.718 0 100.73 72.192 184.007 166.081 197.972-.107.865-.302 1.708-.302 2.598 0 13.554 12.697 24.518 28.257 24.518s28.257-10.965 28.257-24.518c0-.892-.196-1.737-.303-2.604 93.914-13.986 166.082-97.252 166.082-197.966z" fill="#f96464"/><g opacity=".4"><path d="m176.29 128.724c-1.96-4.063-.255-8.944 3.81-10.904 9.006-4.342 18.341-7.91 27.748-10.601 4.337-1.25 8.857 1.268 10.098 5.605 1.242 4.337-1.268 8.859-5.605 10.098-8.514 2.438-16.977 5.671-25.148 9.612-4.099 1.974-8.961.226-10.903-3.81z" fill="#fff"/></g><path d="m283.935 484.81c2.56 20.468-22.148 33.141-41.276 24.232 9.437-4.485 15.94-13.466 14.594-24.232 93.878-13.994 166.083-97.254 166.083-197.993 0-91.918-60.226-169.296-142.178-192.711 6.534-39.914 20.202-59.409 30.004-68.611 9.42-4.465 21.781-7.787 37.9-7.569 0 0-30.385 10.183-41.167 76.181 81.953 23.415 142.124 100.794 142.124 192.711-.001 100.738-72.152 183.998-166.084 197.992z" opacity=".08"/><g fill="#ea4e4e"><g><path d="m138.143 357.135c-44.184-61.755-22.782-155.249 40.213-192.821-52.223 52.878-67.564 122.035-40.213 192.821z"/><path d="m222.612 430.3c-41.905-17.661-68.898-73.775-56.648-117.385 5.648 46.47 21.218 81.531 56.648 117.385z"/><path d="m202.241 275.191c-31.064-40.869-16.695-107.611 27.043-132.483-33.052 40.58-41.373 82.998-27.043 132.483z"/></g><g><path d="m385.485 357.135c26.549-68.711 13.439-138.497-40.213-192.821 64.747 38.618 83.253 132.666 40.213 192.821z"/><path d="m301.017 430.3c33.712-34.117 50.671-68.214 56.648-117.385 12.349 43.964-15.223 99.926-56.648 117.385z"/><path d="m321.387 275.191c14.382-49.659 5.907-92.028-27.043-132.483 44.091 25.072 57.977 91.786 27.043 132.483z"/></g><path d="m231.119 360.135c-36.143-36.512 27.719-89.923 19.859-134.942 25.888 41.226-38.882 90.757-19.859 134.942z"/><path d="m270.589 393.539c14.169-12.545.64-28.339.672-59.276-.091-24.04 9.533-44.729 25.321-58.618-17.984 39.927-14.498 50.251-12.812 89.518.392 12.925-.983 24.631-13.181 28.376z"/></g></g></g></svg>