<svg enable-background="new 0 0 512 512" height="512" viewBox="0 0 512 512" width="512" xmlns="http://www.w3.org/2000/svg"><g id="_x31_8_Plum"><g><path d="m503.754 304.803c0 145.392-126.218 243.228-242.183 194.444h-.071c-116.269 48.91-242.183-49.49-242.183-194.444 0-145.392 126.218-243.227 242.183-194.444h.071c116.269-48.912 242.183 49.49 242.183 194.444z" fill="#8760f4"/><g opacity=".4"><path d="m123.778 470.404v.147c0 3.134 1.657 6.083 4.395 7.608 14.977 8.338 30.961 14.116 47.316 17.013 5.345.947 10.26-3.185 10.26-8.613 0-4.152-2.916-7.806-7.005-8.526-14.53-2.559-28.751-7.76-42.115-15.256-5.757-3.23-12.851 1.026-12.851 7.627z" fill="#fff"/></g><path d="m503.773 304.787c0 129.962-100.891 221.947-205.061 205.132 84.646-13.467 155.968-95.833 155.968-205.132 0-109.015-71.18-191.666-155.968-205.132 104.454-16.816 205.061 75.526 205.061 205.132z" opacity=".08"/><path d="m332.922 165.669c40.387 41.663 63.34 110.172 49.217 185.565-13.974 67.561-57.244 126.353-120.639 148.013 55.96-34.724 91.754-89.157 103.494-151.407 12.327-58.961 2.323-125.499-32.072-182.171z" fill="#704fe8"/><g fill="#0bad67"><path d="m207.174 48.234c4.58 1.642 7.103 6.551 5.699 11.209-3.494 11.591-9.161 34.094-7.915 54.774 5.521 91.645-123.969 137.656-190.835 112.509-6.201-2.332-7.903-10.222-3.214-14.901 11.12-11.098 28.168-32.789 31.774-64.048 5.278-45.757 79.605-129.974 164.491-99.543z"/><path d="m274.904 40.03c-28.435-4.692-67.918-1.031-105.987 36.604l7.734 7.833c35.968-35.556 72.53-38.365 98.253-33.648z"/></g><path d="m322.386 41.271c-5.48 2.681-17.546 3.031-30.254 14.748-13.291 12.242-20.578 31.479-23.842 51.706-2.215.816-4.488 1.691-6.704 2.623h-.058c-4.43-1.865-8.919-3.556-13.407-4.897-2.099-42.904 13.116-82.66 54.387-102.771l.875-.408c10.784-5.247 23.784-.816 29.03 9.968 5.246 10.785.757 23.785-10.027 29.031z" fill="#6d6d6d"/></g></g></svg>