<svg enable-background="new 0 0 512 512" height="512" viewBox="0 0 512 512" width="512" xmlns="http://www.w3.org/2000/svg"><g id="_x32_0_Raspberry"><g><g><g><g><path d="m359.887 453.379c0 32.328-20.583 58.553-46.014 58.553-25.385 0-45.968-26.225-45.968-58.553 0-32.383 20.583-58.554 45.968-58.554 25.431 0 46.014 26.17 46.014 58.554z" fill="#f96464"/><path d="m359.891 453.379c0 32.308-20.602 58.533-46.009 58.533-13.547 0-25.714-7.464-34.149-19.375 6.441 4.396 13.751 6.85 21.573 6.85 25.458 0 46.009-26.225 46.009-58.584 0-15.03-4.447-28.679-11.656-39.005 14.417 9.866 24.232 29.241 24.232 51.581z" fill="#ea4e4e"/></g><g><path d="m301.989 453.379c0 32.328-20.583 58.553-46.014 58.553-25.385 0-45.968-26.225-45.968-58.553 0-32.383 20.583-58.554 45.968-58.554 25.431 0 46.014 26.17 46.014 58.554z" fill="#f96464"/><path d="m301.993 453.379c0 32.308-20.602 58.533-46.009 58.533-13.547 0-25.714-7.464-34.149-19.375 6.441 4.396 13.751 6.85 21.573 6.85 25.458 0 46.009-26.225 46.009-58.584 0-15.03-4.447-28.679-11.656-39.005 14.416 9.866 24.232 29.241 24.232 51.581z" fill="#ea4e4e"/></g><g><path d="m244.09 453.379c0 32.328-20.583 58.553-46.014 58.553-25.385 0-45.968-26.225-45.968-58.553 0-32.383 20.583-58.554 45.968-58.554 25.432 0 46.014 26.17 46.014 58.554z" fill="#f96464"/><path d="m244.094 453.379c0 32.308-20.602 58.533-46.009 58.533-13.547 0-25.714-7.464-34.149-19.375 6.441 4.396 13.751 6.85 21.573 6.85 25.458 0 46.009-26.225 46.009-58.584 0-15.03-4.447-28.679-11.656-39.005 14.417 9.866 24.232 29.241 24.232 51.581z" fill="#ea4e4e"/></g></g><g><g><path d="m390.328 380.597c0 32.691-20.814 59.211-46.531 59.211-25.67 0-46.484-26.52-46.484-59.211 0-32.747 20.814-59.211 46.484-59.211 25.718-.001 46.531 26.464 46.531 59.211z" fill="#f96464"/><path d="m390.333 380.597c0 32.671-20.833 59.191-46.525 59.191-13.699 0-26.003-7.548-34.533-19.593 6.514 4.446 13.906 6.927 21.815 6.927 25.744 0 46.525-26.52 46.525-59.243 0-15.198-4.497-29.001-11.787-39.443 14.579 9.978 24.505 29.57 24.505 52.161z" fill="#ea4e4e"/></g><g><path d="m331.78 380.597c0 32.691-20.814 59.211-46.531 59.211-25.67 0-46.484-26.52-46.484-59.211 0-32.747 20.814-59.211 46.484-59.211 25.717-.001 46.531 26.464 46.531 59.211z" fill="#f96464"/><path d="m331.784 380.597c0 32.671-20.833 59.191-46.525 59.191-13.699 0-26.003-7.548-34.533-19.593 6.514 4.446 13.906 6.927 21.815 6.927 25.744 0 46.525-26.52 46.525-59.243 0-15.198-4.497-29.001-11.787-39.443 14.579 9.978 24.505 29.57 24.505 52.161z" fill="#ea4e4e"/></g><g><path d="m273.231 380.597c0 32.691-20.814 59.211-46.531 59.211-25.67 0-46.484-26.52-46.484-59.211 0-32.747 20.814-59.211 46.484-59.211 25.717-.001 46.531 26.464 46.531 59.211z" fill="#f96464"/><path d="m273.235 380.597c0 32.671-20.833 59.191-46.525 59.191-13.699 0-26.003-7.548-34.533-19.593 6.514 4.446 13.906 6.927 21.815 6.927 25.744 0 46.525-26.52 46.525-59.243 0-15.198-4.497-29.001-11.787-39.443 14.579 9.978 24.505 29.57 24.505 52.161z" fill="#ea4e4e"/></g><g><path d="m214.682 380.597c0 32.691-20.814 59.211-46.531 59.211-25.67 0-46.484-26.52-46.484-59.211 0-32.747 20.814-59.211 46.484-59.211 25.717-.001 46.531 26.464 46.531 59.211z" fill="#f96464"/><path d="m214.686 380.597c0 32.671-20.833 59.191-46.525 59.191-13.699 0-26.003-7.548-34.533-19.593 6.514 4.446 13.906 6.927 21.815 6.927 25.744 0 46.525-26.52 46.525-59.243 0-15.198-4.497-29.001-11.787-39.443 14.58 9.978 24.505 29.57 24.505 52.161z" fill="#ea4e4e"/></g></g><g><g><path d="m431.82 303.962c0 29.8-18.973 53.975-42.416 53.975-23.4 0-42.373-24.174-42.373-53.975 0-29.851 18.973-53.975 42.373-53.975 23.443 0 42.416 24.124 42.416 53.975z" fill="#f96464"/><path d="m431.824 303.962c0 29.782-18.991 53.956-42.411 53.956-12.488 0-23.703-6.88-31.479-17.86 5.938 4.053 12.676 6.315 19.886 6.315 23.467 0 42.411-24.174 42.411-54.003 0-13.854-4.1-26.436-10.744-35.955 13.289 9.094 22.337 26.954 22.337 47.547z" fill="#ea4e4e"/></g><g><path d="m378.449 303.962c0 29.8-18.973 53.975-42.416 53.975-23.4 0-42.373-24.174-42.373-53.975 0-29.851 18.973-53.975 42.373-53.975 23.443 0 42.416 24.124 42.416 53.975z" fill="#f96464"/><path d="m378.453 303.962c0 29.782-18.991 53.956-42.411 53.956-12.488 0-23.703-6.88-31.479-17.86 5.938 4.053 12.676 6.315 19.886 6.315 23.467 0 42.411-24.174 42.411-54.003 0-13.854-4.1-26.436-10.744-35.955 13.289 9.094 22.337 26.954 22.337 47.547z" fill="#ea4e4e"/></g><g><path d="m325.078 303.962c0 29.8-18.973 53.975-42.416 53.975-23.4 0-42.373-24.174-42.373-53.975 0-29.851 18.973-53.975 42.373-53.975 23.443 0 42.416 24.124 42.416 53.975z" fill="#f96464"/><path d="m325.082 303.962c0 29.782-18.991 53.956-42.411 53.956-12.488 0-23.703-6.88-31.479-17.86 5.938 4.053 12.676 6.315 19.886 6.315 23.467 0 42.411-24.174 42.411-54.003 0-13.854-4.1-26.436-10.744-35.955 13.289 9.094 22.337 26.954 22.337 47.547z" fill="#ea4e4e"/></g><g><path d="m271.707 303.962c0 29.8-18.973 53.975-42.416 53.975-23.4 0-42.373-24.174-42.373-53.975 0-29.851 18.973-53.975 42.373-53.975 23.443 0 42.416 24.124 42.416 53.975z" fill="#f96464"/><path d="m271.711 303.962c0 29.782-18.991 53.956-42.411 53.956-12.488 0-23.703-6.88-31.479-17.86 5.938 4.053 12.676 6.315 19.886 6.315 23.467 0 42.411-24.174 42.411-54.003 0-13.854-4.1-26.436-10.744-35.955 13.289 9.094 22.337 26.954 22.337 47.547z" fill="#ea4e4e"/></g><g><path d="m218.336 303.962c0 29.8-18.973 53.975-42.416 53.975-23.4 0-42.373-24.174-42.373-53.975 0-29.851 18.973-53.975 42.373-53.975 23.443 0 42.416 24.124 42.416 53.975z" fill="#f96464"/><path d="m218.34 303.962c0 29.782-18.991 53.956-42.411 53.956-12.488 0-23.703-6.88-31.479-17.86 5.938 4.053 12.676 6.315 19.886 6.315 23.467 0 42.411-24.174 42.411-54.003 0-13.854-4.1-26.436-10.744-35.955 13.289 9.094 22.337 26.954 22.337 47.547z" fill="#ea4e4e"/></g><g><path d="m164.965 303.962c0 29.8-18.973 53.975-42.416 53.975-23.4 0-42.373-24.174-42.373-53.975 0-29.851 18.973-53.975 42.373-53.975 23.443 0 42.416 24.124 42.416 53.975z" fill="#f96464"/><path d="m164.969 303.962c0 29.782-18.991 53.956-42.411 53.956-12.488 0-23.703-6.88-31.479-17.86 5.938 4.053 12.676 6.315 19.886 6.315 23.467 0 42.411-24.174 42.411-54.003 0-13.854-4.1-26.436-10.744-35.955 13.289 9.094 22.337 26.954 22.337 47.547z" fill="#ea4e4e"/></g></g><g><g><path d="m458.505 217.093c0 29.8-18.973 53.975-42.416 53.975-23.4 0-42.373-24.174-42.373-53.975 0-29.851 18.973-53.975 42.373-53.975 23.443 0 42.416 24.124 42.416 53.975z" fill="#f96464"/><path d="m458.509 217.093c0 29.782-18.991 53.956-42.411 53.956-12.488 0-23.703-6.88-31.479-17.86 5.938 4.053 12.676 6.315 19.886 6.315 23.467 0 42.411-24.174 42.411-54.003 0-13.854-4.1-26.436-10.744-35.955 13.289 9.094 22.337 26.954 22.337 47.547z" fill="#ea4e4e"/></g><g><g><path d="m405.134 217.093c0 29.8-18.973 53.975-42.416 53.975-23.4 0-42.373-24.174-42.373-53.975 0-29.851 18.973-53.975 42.373-53.975 23.443 0 42.416 24.124 42.416 53.975z" fill="#f96464"/><path d="m405.138 217.093c0 29.782-18.991 53.956-42.411 53.956-12.488 0-23.703-6.88-31.479-17.86 5.938 4.053 12.676 6.315 19.886 6.315 23.467 0 42.411-24.174 42.411-54.003 0-13.854-4.1-26.436-10.744-35.955 13.289 9.094 22.337 26.954 22.337 47.547z" fill="#ea4e4e"/></g><g><path d="m351.763 217.093c0 29.8-18.973 53.975-42.416 53.975-23.4 0-42.373-24.174-42.373-53.975 0-29.851 18.973-53.975 42.373-53.975 23.443 0 42.416 24.124 42.416 53.975z" fill="#f96464"/><path d="m351.767 217.093c0 29.782-18.991 53.956-42.411 53.956-12.488 0-23.703-6.88-31.479-17.86 5.938 4.053 12.676 6.315 19.886 6.315 23.467 0 42.411-24.174 42.411-54.003 0-13.854-4.1-26.436-10.744-35.955 13.289 9.094 22.337 26.954 22.337 47.547z" fill="#ea4e4e"/></g><g><path d="m298.393 217.093c0 29.8-18.973 53.975-42.416 53.975-23.4 0-42.373-24.174-42.373-53.975 0-29.851 18.973-53.975 42.373-53.975 23.442 0 42.416 24.124 42.416 53.975z" fill="#f96464"/><path d="m298.396 217.093c0 29.782-18.991 53.956-42.411 53.956-12.488 0-23.703-6.88-31.479-17.86 5.938 4.053 12.676 6.315 19.886 6.315 23.467 0 42.411-24.174 42.411-54.003 0-13.854-4.1-26.436-10.744-35.955 13.289 9.094 22.337 26.954 22.337 47.547z" fill="#ea4e4e"/></g><g><path d="m245.022 217.093c0 29.8-18.973 53.975-42.416 53.975-23.4 0-42.373-24.174-42.373-53.975 0-29.851 18.973-53.975 42.373-53.975 23.443 0 42.416 24.124 42.416 53.975z" fill="#f96464"/><path d="m245.025 217.093c0 29.782-18.991 53.956-42.411 53.956-12.488 0-23.703-6.88-31.479-17.86 5.938 4.053 12.676 6.315 19.886 6.315 23.467 0 42.411-24.174 42.411-54.003 0-13.854-4.1-26.436-10.744-35.955 13.29 9.094 22.337 26.954 22.337 47.547z" fill="#ea4e4e"/></g><g><path d="m191.651 217.093c0 29.8-18.973 53.975-42.416 53.975-23.4 0-42.373-24.174-42.373-53.975 0-29.851 18.973-53.975 42.373-53.975 23.443 0 42.416 24.124 42.416 53.975z" fill="#f96464"/><path d="m191.655 217.093c0 29.782-18.991 53.956-42.411 53.956-12.488 0-23.703-6.88-31.479-17.86 5.938 4.053 12.676 6.315 19.886 6.315 23.467 0 42.411-24.174 42.411-54.003 0-13.854-4.1-26.436-10.744-35.955 13.289 9.094 22.337 26.954 22.337 47.547z" fill="#ea4e4e"/></g><g><path d="m138.28 217.093c0 29.8-18.973 53.975-42.416 53.975-23.4 0-42.373-24.174-42.373-53.975 0-29.851 18.973-53.975 42.373-53.975 23.443 0 42.416 24.124 42.416 53.975z" fill="#f96464"/><path d="m138.284 217.093c0 29.782-18.991 53.956-42.411 53.956-12.488 0-23.703-6.88-31.479-17.86 5.938 4.053 12.676 6.315 19.886 6.315 23.467 0 42.411-24.174 42.411-54.003 0-13.854-4.1-26.436-10.744-35.955 13.289 9.094 22.337 26.954 22.337 47.547z" fill="#ea4e4e"/></g></g></g><g><g><path d="m431.82 143.123c0 29.8-18.973 53.975-42.416 53.975-23.4 0-42.373-24.174-42.373-53.975 0-29.851 18.973-53.975 42.373-53.975 23.443 0 42.416 24.124 42.416 53.975z" fill="#f96464"/><path d="m431.824 143.123c0 29.782-18.991 53.956-42.411 53.956-12.488 0-23.703-6.88-31.479-17.86 5.938 4.053 12.676 6.315 19.886 6.315 23.467 0 42.411-24.174 42.411-54.003 0-13.854-4.1-26.436-10.744-35.955 13.289 9.095 22.337 26.954 22.337 47.547z" fill="#ea4e4e"/></g><g><path d="m378.449 143.123c0 29.8-18.973 53.975-42.416 53.975-23.4 0-42.373-24.174-42.373-53.975 0-29.851 18.973-53.975 42.373-53.975 23.443 0 42.416 24.124 42.416 53.975z" fill="#f96464"/><path d="m378.453 143.123c0 29.782-18.991 53.956-42.411 53.956-12.488 0-23.703-6.88-31.479-17.86 5.938 4.053 12.676 6.315 19.886 6.315 23.467 0 42.411-24.174 42.411-54.003 0-13.854-4.1-26.436-10.744-35.955 13.289 9.095 22.337 26.954 22.337 47.547z" fill="#ea4e4e"/></g><g><path d="m325.078 143.123c0 29.8-18.973 53.975-42.416 53.975-23.4 0-42.373-24.174-42.373-53.975 0-29.851 18.973-53.975 42.373-53.975 23.443 0 42.416 24.124 42.416 53.975z" fill="#f96464"/><path d="m325.082 143.123c0 29.782-18.991 53.956-42.411 53.956-12.488 0-23.703-6.88-31.479-17.86 5.938 4.053 12.676 6.315 19.886 6.315 23.467 0 42.411-24.174 42.411-54.003 0-13.854-4.1-26.436-10.744-35.955 13.289 9.095 22.337 26.954 22.337 47.547z" fill="#ea4e4e"/></g><g><path d="m271.707 143.123c0 29.8-18.973 53.975-42.416 53.975-23.4 0-42.373-24.174-42.373-53.975 0-29.851 18.973-53.975 42.373-53.975 23.443 0 42.416 24.124 42.416 53.975z" fill="#f96464"/><path d="m271.711 143.123c0 29.782-18.991 53.956-42.411 53.956-12.488 0-23.703-6.88-31.479-17.86 5.938 4.053 12.676 6.315 19.886 6.315 23.467 0 42.411-24.174 42.411-54.003 0-13.854-4.1-26.436-10.744-35.955 13.289 9.095 22.337 26.954 22.337 47.547z" fill="#ea4e4e"/></g><g><path d="m218.336 143.123c0 29.8-18.973 53.975-42.416 53.975-23.4 0-42.373-24.174-42.373-53.975 0-29.851 18.973-53.975 42.373-53.975 23.443 0 42.416 24.124 42.416 53.975z" fill="#f96464"/><path d="m218.34 143.123c0 29.782-18.991 53.956-42.411 53.956-12.488 0-23.703-6.88-31.479-17.86 5.938 4.053 12.676 6.315 19.886 6.315 23.467 0 42.411-24.174 42.411-54.003 0-13.854-4.1-26.436-10.744-35.955 13.289 9.095 22.337 26.954 22.337 47.547z" fill="#ea4e4e"/></g><g><path d="m164.965 143.123c0 29.8-18.973 53.975-42.416 53.975-23.4 0-42.373-24.174-42.373-53.975 0-29.851 18.973-53.975 42.373-53.975 23.443 0 42.416 24.124 42.416 53.975z" fill="#f96464"/><path d="m164.969 143.123c0 29.782-18.991 53.956-42.411 53.956-12.488 0-23.703-6.88-31.479-17.86 5.938 4.053 12.676 6.315 19.886 6.315 23.467 0 42.411-24.174 42.411-54.003 0-13.854-4.1-26.436-10.744-35.955 13.289 9.095 22.337 26.954 22.337 47.547z" fill="#ea4e4e"/></g></g></g><g><g fill="#0bad67"><path d="m256.195 115.104c-15.097-43.789-10.435-92.555 31.793-113.137l.622-.303c7.82-3.811 17.249-.562 21.06 7.258s.562 17.249-7.258 21.06c-3.992 1.946-12.753 2.234-21.994 10.728-17.603 16.214-20.703 49.266-18.016 72.803l.021.18c.201 1.762-1.064 3.354-2.827 3.555-1.524.174-2.921-.751-3.401-2.144z"/><path d="m307.815 90.424 64.43 17.39s32.429-9.764 41.907-44.973c0 0-23.946 18.745-59.227 11.617 0 0-.213-.071-.713-.143.571.143-.428-.071-.428-.071-5.345-.927-28.652-4.348-44.117 1.853z"/><path d="m204.185 90.424-64.43 17.39s-32.429-9.764-41.907-44.973c0 0 23.946 18.745 59.227 11.617 0 0 .213-.071.713-.143-.571.143.428-.071.428-.071 5.345-.927 28.652-4.348 44.117 1.853z"/></g><path d="m299.048 102.184c2.637 15.822 10.905 20.954 10.905 20.954 21.168 18.175 8.053 34.71 8.053 34.71-57.659 1.283-62.006-34.71-62.006-34.71s-4.348 35.993-62.007 34.71c0 0-13.114-16.535 8.054-34.71 0 0 8.267-5.131 10.904-20.954-17.818 29.221-52.029 34.424-98.427 21.667.642.071 19.386-45.686 83.888-43.547 0 0-9.764-10.192-41.338-5.844 0 0 34.496-13.827 74.622 6.628 0 0 13.827 8.481 24.304 7.982 10.477.499 24.304-7.982 24.304-7.982 40.126-20.455 74.622-6.628 74.622-6.628-31.574-4.348-41.338 5.844-41.338 5.844 64.502-2.139 83.246 43.619 83.888 43.547-46.399 12.757-80.61 7.555-98.428-21.667z" fill="#13bd79"/></g></g></g></svg>