<svg enable-background="new 0 0 512 512" height="512" viewBox="0 0 512 512" width="512" xmlns="http://www.w3.org/2000/svg"><g id="_x32_1_Cranberry"><g><g fill="#13bd79"><path d="m181.202 168.487c85.107 24.462 145.861 72.991 135.701 108.339s-87.397 44.163-172.504 19.701c-85.153-24.474-145.921-72.954-135.76-108.302 10.16-35.349 87.41-44.212 172.563-19.738z"/><path d="m269.699 377.725c-26.667-84.441-19.814-161.895 15.26-172.971s85.12 48.409 111.787 132.85c26.681 84.486 19.877 161.925-15.197 173.001s-85.169-48.394-111.85-132.88z"/><path d="m444.124 174.33c-53.604 70.487-120.832 109.561-150.109 87.296s-9.544-97.457 44.06-167.944c53.632-70.524 120.82-109.629 150.097-87.364 29.277 22.265 9.585 97.488-44.048 168.012z"/></g><path d="m339.942 317.837c0 58.87-47.705 106.576-106.519 106.576-58.87 0-106.576-47.705-106.576-106.576 0-58.814 47.705-106.519 106.576-106.519 58.814 0 106.519 47.705 106.519 106.519z" fill="#f96464"/><path d="m339.942 317.837c0 58.87-47.705 106.576-106.519 106.576-37.555 0-70.599-19.454-89.489-48.833 16.578 10.714 36.314 16.86 57.517 16.86 58.814 0 106.519-47.705 106.519-106.575 0-21.259-6.259-41.051-17.03-57.686 29.491 18.946 49.002 52.046 49.002 89.658z" opacity=".08"/><path d="m207.198 328.904c5.395-8.709 15.08-12.51 21.639-8.5 6.594 4.082 7.61 14.43 2.215 23.139-5.36 8.781-15.045 12.582-21.639 8.499-6.613-4.028-7.557-14.411-2.215-23.138z" fill="#ea4e4e"/><path d="m504.471 265.623c0 58.87-47.705 106.576-106.519 106.576-58.87 0-106.576-47.705-106.576-106.576 0-58.814 47.705-106.519 106.576-106.519 58.814 0 106.519 47.705 106.519 106.519z" fill="#f96464"/><path d="m504.471 265.623c0 58.87-47.705 106.576-106.519 106.576-37.555 0-70.599-19.454-89.489-48.833 16.578 10.714 36.314 16.86 57.517 16.86 58.814 0 106.519-47.705 106.519-106.575 0-21.259-6.259-41.051-17.03-57.686 29.491 18.946 49.002 52.046 49.002 89.658z" opacity=".08"/><path d="m371.727 276.69c5.395-8.709 15.08-12.51 21.639-8.5 6.594 4.082 7.61 14.43 2.215 23.139-5.36 8.781-15.045 12.582-21.639 8.499-6.613-4.027-7.557-14.41-2.215-23.138z" fill="#ea4e4e"/><path d="m369.592 192.909c0 58.87-47.705 106.576-106.519 106.576-58.87 0-106.576-47.705-106.576-106.576 0-58.814 47.705-106.519 106.576-106.519 58.814 0 106.519 47.705 106.519 106.519z" fill="#f96464"/><g opacity=".4"><path d="m187.155 156.169c-4.316-2.137-5.895-7.552-3.357-11.644 3.141-5.062 6.759-9.814 10.828-14.222 3.262-3.533 8.891-3.474 12.108.1 2.82 3.133 2.762 7.875-.097 10.973-3.367 3.648-6.36 7.577-8.956 11.759-2.218 3.575-6.756 4.901-10.526 3.034z" fill="#fff"/></g><path d="m369.592 192.909c0 58.87-47.705 106.576-106.519 106.576-37.555 0-70.599-19.454-89.489-48.833 16.578 10.714 36.314 16.86 57.517 16.86 58.814 0 106.519-47.705 106.519-106.575 0-21.259-6.259-41.051-17.03-57.686 29.492 18.946 49.002 52.047 49.002 89.658z" opacity=".08"/><path d="m236.848 203.976c5.395-8.709 15.08-12.51 21.639-8.499 6.594 4.082 7.61 14.43 2.215 23.139-5.36 8.781-15.045 12.582-21.639 8.499-6.612-4.028-7.557-14.411-2.215-23.139z" fill="#ea4e4e"/></g></g></svg>