<svg enable-background="new 0 0 512 512" height="512" viewBox="0 0 512 512" width="512" xmlns="http://www.w3.org/2000/svg"><g id="_x32_4_Coconut"><g><path d="m479.306 255.496c-15.655 161.941-152.454 231.922-203.79 252.645-12.429 5.017-26.246 5.028-38.676.012-54.465-21.98-205.286-99.463-205.286-283.537 0-124.539 101.422-225.415 226.242-224.527 134.397.954 234.442 121.631 221.51 255.407z" fill="#c17d61"/><g opacity=".4"><path d="m66.83 131.868c-6.93 14.033-12.358 28.934-16.032 44.513-1.219 5.169 2.614 10.156 7.925 10.156 3.821 0 7.055-2.676 7.932-6.395 3.384-14.343 8.4-28.048 14.793-40.961 2.695-5.444-1.172-11.81-7.247-11.81h-.034c-3.093-.001-5.967 1.723-7.337 4.497z" fill="#fff"/></g><path d="m479.326 255.463c-15.688 162.008-152.504 231.925-203.792 252.666-11.464 4.676-24.135 5.053-35.751 1.056.981-.302 1.961-.679 2.942-1.056 51.287-20.741 188.104-90.658 203.792-252.666 12.445-128.671-79.721-245.274-206.507-254.778 5.883-.453 11.766-.679 17.8-.603 134.403.981 234.414 121.657 221.516 255.381z" opacity=".08"/><g fill="#ad6850"><g><ellipse cx="296.91" cy="37.051" rx="23.489" ry="15.247"/><ellipse cx="215.416" cy="37.051" rx="23.489" ry="15.247"/></g><ellipse cx="252.427" cy="77.798" rx="23.489" ry="15.247"/><g><path d="m297.741 245.756c9.018-37.24 1.153-75.737-23.087-106.796 29.886 24.235 40.315 72.277 23.087 106.796z"/><path d="m295.904 377.547c33.049-14.361 50.49-46.339 43.988-82.332 15.597 33.844-7.162 76.452-43.988 82.332z"/><path d="m308.785 440.354c36.288-3.619 67.655-23.822 86.006-55.399-10.241 34.902-49.923 60.489-86.006 55.399z"/><path d="m364.376 206.768c.355-43.97-12.2-83.503-40.832-120.131 32.904 28.219 49.726 77.416 40.832 120.131z"/><path d="m362.839 361.051c48.008-66.788 54.222-132.408 33.103-208.612 31.789 75.592 14.59 153.383-33.103 208.612z"/></g><g><path d="m268.288 441.535c-21.439-12.032-31.065-43.738-19.93-65.624-2.781 24.695 3.976 46.79 19.93 65.624z"/><path d="m214.584 245.756c-17.181-34.424-6.883-82.492 23.087-106.796-23.53 30.149-32.378 68.429-23.087 106.796z"/><path d="m216.421 377.547c-36.798-5.876-59.597-48.463-43.988-82.332-6.405 35.458 10.443 67.756 43.988 82.332z"/><path d="m203.54 440.354c-36.003 5.079-75.741-20.415-86.006-55.399 18.324 31.53 49.662 51.774 86.006 55.399z"/><path d="m147.949 206.768c-8.835-42.432 7.717-91.73 40.832-120.131-27.08 34.642-41.208 73.642-40.832 120.131z"/><path d="m149.486 361.051c-50.902-58.946-63.419-136.537-33.102-208.612-22.202 80.089-9.236 149.71 33.102 208.612z"/></g><path d="m317.177 281.675c-13.491-27.522 32.919-38.038 33.187-62.669 6.768 17.94-20.355 33.679-29.437 45.84-4.35 4.755-4.326 10.952-3.75 16.829z"/><path d="m206.55 317.944c27.94 20.479 74.984 3.977 65.723-61.031 22.167 61.462-37.507 92.519-65.723 61.031z"/></g></g></g></svg>