<svg enable-background="new 0 0 512 512" height="512" viewBox="0 0 512 512" width="512" xmlns="http://www.w3.org/2000/svg"><g id="_x32_5_Figs"><g><path d="m350.154 295.57c0 82.9-78.318 150.262-175.069 150.262-96.594 0-175.017-67.363-175.017-150.262 0-54.406 33.602-102.018 83.901-128.405 38.441-20.177 67.901-51.517 82.641-94.692 2.836-8.307 14.46-8.456 17.243-.13 13.558 40.56 38.961 72.38 81.399 94.296 50.878 26.28 84.902 74.208 84.902 128.931z" fill="#ad6850"/><g opacity=".4"><path d="m19.291 335.545c-4.727-13.179-7.119-26.628-7.114-39.967 0-4.016 3.259-7.273 7.275-7.273h.005c4.016.002 7.27 3.261 7.27 7.277-.005 11.661 2.103 23.454 6.261 35.051 1.355 3.782-.611 7.948-4.395 9.304-3.763 1.354-7.941-.599-9.302-4.392z" fill="#fff"/></g><path d="m350.171 295.579c0 82.886-78.327 150.253-175.085 150.253-4.462 0-8.876-.145-13.241-.436 90.55-5.82 161.796-70.762 161.796-149.816 0-54.708-33.998-102.674-84.875-128.961-38.121-19.643-62.468-47.336-76.824-82.159 1.746-3.88 3.249-7.857 4.656-11.98 2.861-8.294 14.453-8.487 17.266-.145 13.531 40.546 38.945 72.41 81.383 94.284 50.877 26.286 84.924 74.253 84.924 128.96z" opacity=".08"/><g fill="#c17d61"><path d="m92.963 175.731c-65.092 59.807-70.96 167.959-4.871 235.346-70.885-59.164-67.569-180.455 4.871-235.346z"/><path d="m262.157 411.077c63.121-63.778 63.192-172.209-4.878-235.346 72.984 55.278 75.118 176.681 4.878 235.346z"/><path d="m119.105 175.731c-44.077 60.913-46.683 169.255-3.321 235.346-48.957-60.489-47.503-178 3.321-235.346z"/><path d="m234.455 411.077c42.406-64.589 41.702-173.058-3.325-235.346 50.552 57.014 52.486 174.557 3.325 235.346z"/><path d="m148.621 175.731c-19.759 62.334-19.922 170.845-1.571 235.346-24.551-61.386-24.466-175.225 1.571-235.346z"/><path d="m203.179 411.077c18.299-64.227 18.239-172.751-1.573-235.346 26.223 60.501 25.917 174.41 1.573 235.346z"/></g><path d="m511.932 295.57c0 82.9-78.318 150.262-175.069 150.262-96.594 0-175.017-67.363-175.017-150.262 0-54.406 33.602-102.018 83.901-128.405 38.441-20.177 67.901-51.517 82.641-94.692 2.836-8.307 14.46-8.456 17.243-.13 13.558 40.56 38.961 72.38 81.399 94.296 50.878 26.28 84.902 74.208 84.902 128.931z" fill="#c17d61"/><path d="m336.861 431.282c-88.484 0-160.467-60.881-160.467-135.712 0-47.332 28.456-90.518 76.113-115.521 38.98-20.461 67.938-51.183 84.453-89.4 16.369 39.274 43.764 68.452 83.392 88.917 48.235 24.915 77.031 68.281 77.031 116.004.001 74.832-72.01 135.712-160.522 135.712z" fill="#ffce29"/><path d="m473.119 295.579c0 61.449-61.11 111.453-136.236 111.453s-136.236-50.003-136.236-111.453c0-38.169 23.619-73.332 63.147-94.041 61.112-32.996 98.08-24.124 145.451-.436 40.012 20.661 63.874 55.968 63.874 94.477z" fill="#f96464"/><path d="m473.106 295.588c0 61.424-61.097 111.467-136.243 111.467-3.921 0-7.841-.164-11.653-.436 69.701-4.846 124.535-52.82 124.535-111.031 0-38.498-23.851-73.839-63.874-94.477-21.346-10.673-40.622-18.351-60.879-20.529 29.568-3.104 54.889 5.881 84.24 20.529 40.024 20.637 63.874 55.978 63.874 94.477z" opacity=".08"/><g fill="#ea4e4e"><g><path d="m328.483 235.757c0-4.665 3.751-8.416 8.383-8.416 4.665 0 8.416 3.751 8.416 8.416 0 4.632-8.416 16.962-8.416 16.962s-8.383-12.33-8.383-16.962z"/><path d="m345.282 351.222c0 4.665-3.751 8.416-8.383 8.416-4.664 0-8.416-3.751-8.416-8.416 0-4.632 8.416-16.962 8.416-16.962s8.383 12.33 8.383 16.962z"/></g><g><path d="m371.766 246.727c3.298-3.298 8.603-3.298 11.879-.023 3.298 3.298 3.298 8.603 0 11.902-3.275 3.275-17.945 6.043-17.945 6.043s2.791-14.646 6.066-17.922z"/><path d="m301.999 340.251c-3.298 3.298-8.603 3.298-11.879.023-3.298-3.298-3.298-8.603 0-11.902 3.275-3.275 17.945-6.043 17.945-6.043s-2.791 14.647-6.066 17.922z"/></g><g><path d="m394.614 285.09c4.664 0 8.416 3.751 8.416 8.383 0 4.664-3.751 8.416-8.416 8.416-4.632 0-16.962-8.415-16.962-8.415s12.33-8.384 16.962-8.384z"/><path d="m279.151 301.889c-4.664 0-8.416-3.751-8.416-8.383 0-4.664 3.751-8.416 8.416-8.416 4.632 0 16.962 8.415 16.962 8.415s-12.33 8.384-16.962 8.384z"/></g><g><path d="m383.644 328.372c3.298 3.298 3.298 8.603.023 11.878-3.298 3.298-8.603 3.298-11.902 0-3.275-3.275-6.043-17.944-6.043-17.944s14.647 2.791 17.922 6.066z"/><path d="m290.121 258.607c-3.298-3.298-3.298-8.603-.023-11.878 3.298-3.298 8.603-3.298 11.902 0 3.275 3.275 6.043 17.944 6.043 17.944s-14.647-2.791-17.922-6.066z"/></g></g></g></g></svg>