<svg enable-background="new 0 0 512 512" height="512" viewBox="0 0 512 512" width="512" xmlns="http://www.w3.org/2000/svg"><g id="_x32_7_Dragon_Fruit"><g><g fill="#13bd79"><g><path d="m371.641 121.841c.033-6.066 8.5-7.588 10.425-1.836 1.96 5.858 3.522 11.912 4.709 18.069 10.48 54.404-10.379 101.917-40.761 147.717-3.028 4.565-8.621 6.955-13.941 5.647-18.057-4.443-30.082-16.176-35.345-36.083-1.387-5.248.771-10.788 5.156-13.986 17.249-12.58 60.722-46.648 68.528-102.705.761-5.504 1.198-11.136 1.229-16.823z"/><path d="m420.054 218.15c1.551-5.864 10.13-5.217 10.553.834.43 6.162.426 12.415.033 18.672-3.483 55.295-35.578 96.068-76.464 132.797-4.075 3.661-10.089 4.574-14.911 1.974-16.369-8.825-25.071-23.196-25.179-43.786-.028-5.428 3.449-10.251 8.496-12.249 19.851-7.858 70.471-29.95 92.07-82.264 2.113-5.138 3.947-10.48 5.402-15.978z"/><path d="m444.193 326.669c2.854-5.352 11.056-2.757 10.081 3.23-.993 6.097-2.429 12.181-4.245 18.182-16.057 53.022-56.639 85.355-104.853 111.737-4.806 2.63-10.868 2.141-14.967-1.494-13.912-12.339-19.092-28.321-14.48-48.386 1.216-5.289 5.705-9.187 11.076-9.976 21.124-3.101 75.46-13.007 108.469-58.978 3.234-4.517 6.243-9.296 8.919-14.315z"/></g><g><path d="m140.359 121.841c-.033-6.066-8.5-7.588-10.425-1.836-1.96 5.858-3.522 11.912-4.709 18.069-10.48 54.404 10.379 101.917 40.761 147.717 3.028 4.565 8.621 6.955 13.941 5.647 18.057-4.443 30.082-16.176 35.345-36.083 1.387-5.248-.771-10.788-5.156-13.986-17.249-12.58-60.722-46.648-68.528-102.705-.761-5.504-1.198-11.136-1.229-16.823z"/><path d="m91.946 218.15c-1.551-5.864-10.13-5.217-10.553.834-.43 6.162-.426 12.415-.033 18.672 3.483 55.295 35.578 96.068 76.464 132.797 4.075 3.661 10.089 4.574 14.911 1.974 16.369-8.825 25.071-23.196 25.179-43.786.028-5.428-3.449-10.251-8.496-12.249-19.851-7.858-70.471-29.95-92.07-82.264-2.113-5.138-3.947-10.48-5.402-15.978z"/><path d="m67.807 326.669c-2.854-5.352-11.056-2.757-10.081 3.23.993 6.097 2.429 12.181 4.245 18.182 16.057 53.022 56.639 85.355 104.853 111.737 4.806 2.63 10.868 2.141 14.967-1.494 13.912-12.339 19.092-28.321 14.48-48.386-1.216-5.289-5.705-9.187-11.076-9.976-21.124-3.101-75.46-13.007-108.469-58.978-3.234-4.517-6.243-9.296-8.919-14.315z"/></g></g><g fill="#0bad67"><path d="m345.482 53.627c4.166-2.655 1.54-9.15-3.259-7.981-4.888 1.191-9.738 2.743-14.497 4.597-44.251 17.251-68.17 55.116-86.963 98.685l52.034 11.705c1.245-3.548-1.536-62.478 41.624-98.858 3.463-2.913 7.154-5.658 11.061-8.148z"/><path d="m166.518 53.627c-4.166-2.655-1.54-9.15 3.259-7.981 4.888 1.191 9.738 2.743 14.497 4.597 44.251 17.251 68.17 55.116 86.963 98.685l-52.034 11.705c-1.245-3.548 1.536-62.478-41.624-98.858-3.463-2.913-7.154-5.658-11.061-8.148z"/><path d="m358.558 86.273c4.166-2.655 1.54-9.15-3.259-7.981-4.888 1.191-9.738 2.743-14.497 4.597-44.251 17.251-68.17 55.116-86.963 98.685l52.034 11.705c1.245-3.548-1.536-62.478 41.624-98.858 3.463-2.912 7.154-5.658 11.061-8.148z"/><path d="m153.442 86.273c-4.166-2.655-1.54-9.15 3.259-7.981 4.888 1.191 9.738 2.743 14.497 4.597 44.251 17.251 68.17 55.116 86.963 98.685l-52.034 11.705c-1.245-3.548 1.536-62.478-41.624-98.858-3.463-2.912-7.154-5.658-11.061-8.148z"/></g><path d="m281.527 144.551c0 65.273-11.423 78.705-25.515 78.705s-25.539-13.432-25.539-78.705c0-48.398 14.041-111.675 21.301-141.157 1.092-4.435 7.381-4.435 8.472.001 7.253 29.482 21.281 92.758 21.281 141.156z" fill="#13bd79"/><path d="m395.787 358.398c0 100.832-62.551 153.517-139.758 153.517s-139.816-52.685-139.816-153.517 62.61-211.589 139.816-211.589 139.758 110.757 139.758 211.589z" fill="#f96464"/><g opacity=".4"><path d="m186.828 196.737c-9.06 10.164-17.413 22.065-24.811 35.221-2.773 4.931.837 11.049 6.495 11.049h.157c2.692 0 5.146-1.49 6.46-3.838 6.83-12.202 14.496-23.203 22.738-32.52 4.259-4.815.942-12.359-5.487-12.359-2.115 0-4.144.868-5.552 2.447z" fill="#fff"/></g><path d="m395.8 358.388c0 100.858-62.572 153.544-139.795 153.544-4.316 0-8.53-.151-12.745-.502 71.202-5.519 127-57.805 127-153.042 0-95.187-55.798-199.306-127-210.596 4.215-.652 8.43-1.004 12.745-1.004 77.224 0 139.795 110.793 139.795 211.6z" opacity=".08"/><g fill="#13bd79"><path d="m254.92 453.633c-.78 8.269-29.597 21.426-74.807-35.474-44.169-65.714 4.982-135.531 5.269-130.429-2.738 1.255-2.955 68.151 29.203 107.396 30.81 39.92 46.283 45.951 40.335 58.507z"/><path d="m257.08 373.343c.78 8.269 29.597 21.426 74.807-35.474 44.169-65.714-4.982-135.532-5.269-130.429 2.738 1.255 2.955 68.151-29.203 107.396-30.81 39.92-46.284 45.952-40.335 58.507z"/></g></g></g></svg>