<svg enable-background="new 0 0 512 512" height="512" viewBox="0 0 512 512" width="512" xmlns="http://www.w3.org/2000/svg"><g id="_x32_8_Papaya"><g><path d="m262.943 510.726c-4.818-.688-9.281-.638-13.878 0-93.37 14.332-161.678-114.328-161.678-198.965 0-39.392 13.567-81.48 36.219-110.169 51.652-65.53 53.27-130.313 53.084-129.753 7.281-71.877 77.541-72.251 79.345-71.69 40.948 0 75.238 30.991 79.345 71.69.56 2.303 3.174 69.637 50.407 126.454 93.427 112.243 4.725 331.834-122.844 312.433z" fill="#13bd79"/><path d="m265.402 494.575c-6.2-.886-12.145-.92-18.583-.032-44.055 6.735-80.257-24.724-104.307-61.579-23.924-36.66-38.788-83.106-38.788-121.202 0-36.166 12.531-74.496 32.704-100.043 53.282-67.604 56.188-136.498 56.52-138.234 7.934-78.396 118.742-73.596 126.185 0 7.244 46.132 15.451 88.772 54.097 135.251 47.689 57.299 41.17 142.388 13.555 201.298-23.723 50.603-67.47 92.721-121.383 84.541z" fill="#ffce29"/><g opacity=".4"><path d="m168.645 188.78c-4.892 8.253-10.405 16.62-16.644 25.005-2.662 3.578-2.085 8.606 1.417 11.367 3.581 2.824 8.845 2.199 11.57-1.458 6.65-8.925 12.527-17.837 17.735-26.632 3.216-5.431-.768-12.292-7.08-12.292h-.003c-2.889.001-5.522 1.524-6.995 4.01z" fill="#fff"/></g><path d="m270.866 495.214c-7.024.654-14.321.491-21.781-.653-.381-.055-.762-.109-1.143-.109 6.044-.817 11.653-.709 17.479.109 1.796.272 3.648.49 5.445.653z" opacity=".08"/><path d="m247.941 494.452c-.381 0-.762.055-1.144.109-6.916 1.034-13.613 1.143-20.148.489 1.253-.163 2.505-.326 3.812-.489 6.099-.872 11.653-.872 17.48-.109z" opacity=".08"/><path d="m386.798 410.049c-22.925 48.845-64.528 89.794-115.932 85.165 43.89-4.301 79.176-41.602 99.596-85.165 27.608-58.919 34.142-144.03-13.559-201.315-38.662-46.504-46.885-89.141-54.127-135.263-3.431-33.87-28.697-53.147-55.815-56.523 32.4-3.757 68.067 15.9 72.151 56.523 7.242 46.122 15.465 88.759 54.127 135.263 47.701 57.285 41.167 142.396 13.559 201.315z" opacity=".08"/><path d="m337.906 327.879c0 48.004-39.156 89.734-63.321 110.918-10.619 9.309-26.549 9.309-37.168 0-24.165-21.183-63.321-62.914-63.321-110.918 0-48.041 39.154-89.782 63.32-110.969 10.619-9.311 26.553-9.311 37.172 0 24.164 21.187 63.318 62.928 63.318 110.969z" fill="#6d6d6d"/><g><g><path d="m265.04 419.428c0 4.992-4.058 9.05-9.05 9.05-4.991 0-9.029-4.058-9.029-9.05 0-4.991 4.038-9.029 9.029-9.029s9.05 4.038 9.05 9.029z" fill="#5b5b5b"/></g><g fill="#5b5b5b"><g><path d="m292.07 393.261c0 4.992-4.058 9.05-9.05 9.05-4.991 0-9.03-4.058-9.03-9.05 0-4.991 4.038-9.029 9.03-9.029 4.991 0 9.05 4.037 9.05 9.029z"/><path d="m265.04 393.261c0 4.992-4.058 9.05-9.05 9.05-4.991 0-9.029-4.058-9.029-9.05 0-4.991 4.038-9.029 9.029-9.029s9.05 4.037 9.05 9.029z"/><path d="m238.01 393.261c0 4.992-4.058 9.05-9.05 9.05s-9.029-4.058-9.029-9.05c0-4.991 4.038-9.029 9.029-9.029 4.992 0 9.05 4.037 9.05 9.029z"/></g><g><path d="m319.099 367.093c0 4.992-4.058 9.05-9.05 9.05s-9.03-4.058-9.03-9.05c0-4.991 4.038-9.029 9.03-9.029s9.05 4.038 9.05 9.029z"/><path d="m292.07 367.093c0 4.992-4.058 9.05-9.05 9.05-4.991 0-9.03-4.058-9.03-9.05 0-4.991 4.038-9.029 9.03-9.029 4.991 0 9.05 4.038 9.05 9.029z"/><path d="m265.04 367.093c0 4.992-4.058 9.05-9.05 9.05-4.991 0-9.029-4.058-9.029-9.05 0-4.991 4.038-9.029 9.029-9.029s9.05 4.038 9.05 9.029z"/><path d="m238.01 367.093c0 4.992-4.058 9.05-9.05 9.05s-9.029-4.058-9.029-9.05c0-4.991 4.038-9.029 9.029-9.029 4.992 0 9.05 4.038 9.05 9.029z"/><path d="m210.98 367.093c0 4.992-4.058 9.05-9.05 9.05s-9.03-4.058-9.03-9.05c0-4.991 4.038-9.029 9.03-9.029s9.05 4.038 9.05 9.029z"/></g><g><path d="m319.099 340.926c0 4.992-4.058 9.05-9.05 9.05s-9.03-4.058-9.03-9.05 4.038-9.029 9.03-9.029c4.992-.001 9.05 4.037 9.05 9.029z"/><path d="m292.07 340.926c0 4.992-4.058 9.05-9.05 9.05-4.991 0-9.03-4.058-9.03-9.05s4.038-9.029 9.03-9.029c4.991-.001 9.05 4.037 9.05 9.029z"/><path d="m265.04 340.926c0 4.992-4.058 9.05-9.05 9.05-4.991 0-9.029-4.058-9.029-9.05s4.038-9.029 9.029-9.029c4.991-.001 9.05 4.037 9.05 9.029z"/><path d="m238.01 340.926c0 4.992-4.058 9.05-9.05 9.05s-9.029-4.058-9.029-9.05 4.038-9.029 9.029-9.029c4.992-.001 9.05 4.037 9.05 9.029z"/><path d="m210.98 340.926c0 4.992-4.058 9.05-9.05 9.05s-9.03-4.058-9.03-9.05 4.038-9.029 9.03-9.029c4.992-.001 9.05 4.037 9.05 9.029z"/></g><g><path d="m319.099 314.758c0 4.992-4.058 9.05-9.05 9.05s-9.03-4.058-9.03-9.05 4.038-9.029 9.03-9.029 9.05 4.038 9.05 9.029z"/><path d="m292.07 314.758c0 4.992-4.058 9.05-9.05 9.05-4.991 0-9.03-4.058-9.03-9.05s4.038-9.029 9.03-9.029c4.991 0 9.05 4.038 9.05 9.029z"/><path d="m265.04 314.758c0 4.992-4.058 9.05-9.05 9.05-4.991 0-9.029-4.058-9.029-9.05s4.038-9.029 9.029-9.029 9.05 4.038 9.05 9.029z"/><path d="m238.01 314.758c0 4.992-4.058 9.05-9.05 9.05s-9.029-4.058-9.029-9.05 4.038-9.029 9.029-9.029c4.992 0 9.05 4.038 9.05 9.029z"/><path d="m210.98 314.758c0 4.992-4.058 9.05-9.05 9.05s-9.03-4.058-9.03-9.05 4.038-9.029 9.03-9.029 9.05 4.038 9.05 9.029z"/></g></g><g><path d="m265.04 236.256c0 4.992-4.058 9.05-9.05 9.05-4.991 0-9.029-4.058-9.029-9.05s4.038-9.029 9.029-9.029c4.991-.001 9.05 4.037 9.05 9.029z" fill="#5b5b5b"/></g><g fill="#5b5b5b"><path d="m292.07 262.423c0 4.992-4.058 9.05-9.05 9.05-4.991 0-9.03-4.058-9.03-9.05 0-4.991 4.038-9.029 9.03-9.029 4.991 0 9.05 4.038 9.05 9.029z"/><path d="m265.04 262.423c0 4.992-4.058 9.05-9.05 9.05-4.991 0-9.029-4.058-9.029-9.05 0-4.991 4.038-9.029 9.029-9.029s9.05 4.038 9.05 9.029z"/><path d="m238.01 262.423c0 4.992-4.058 9.05-9.05 9.05s-9.029-4.058-9.029-9.05c0-4.991 4.038-9.029 9.029-9.029 4.992 0 9.05 4.038 9.05 9.029z"/></g><g fill="#5b5b5b"><path d="m319.099 288.591c0 4.992-4.058 9.05-9.05 9.05s-9.03-4.058-9.03-9.05c0-4.991 4.038-9.029 9.03-9.029 4.992-.001 9.05 4.037 9.05 9.029z"/><path d="m292.07 288.591c0 4.992-4.058 9.05-9.05 9.05-4.991 0-9.03-4.058-9.03-9.05 0-4.991 4.038-9.029 9.03-9.029 4.991-.001 9.05 4.037 9.05 9.029z"/><path d="m265.04 288.591c0 4.992-4.058 9.05-9.05 9.05-4.991 0-9.029-4.058-9.029-9.05 0-4.991 4.038-9.029 9.029-9.029 4.991-.001 9.05 4.037 9.05 9.029z"/><path d="m238.01 288.591c0 4.992-4.058 9.05-9.05 9.05s-9.029-4.058-9.029-9.05c0-4.991 4.038-9.029 9.029-9.029 4.992-.001 9.05 4.037 9.05 9.029z"/><path d="m210.98 288.591c0 4.992-4.058 9.05-9.05 9.05s-9.03-4.058-9.03-9.05c0-4.991 4.038-9.029 9.03-9.029 4.992-.001 9.05 4.037 9.05 9.029z"/></g></g></g></g></svg>