<svg enable-background="new 0 0 512 512" height="512" viewBox="0 0 512 512" width="512" xmlns="http://www.w3.org/2000/svg"><g id="_x33_0_Lychee"><g><path d="m170.076 155.437c-19.417-56.32-13.42-119.041 40.891-145.512l.8-.39c10.058-4.902 22.185-.723 27.087 9.335s.723 22.185-9.335 27.087c-5.135 2.503-16.402 2.873-28.288 13.798-22.641 20.854-26.628 63.364-23.172 93.637l.026.231c.259 2.267-1.369 4.314-3.636 4.573-1.96.222-3.756-.968-4.373-2.759z" fill="#6d6d6d"/><path d="m332.853 288.316c-3.927 11.647-21.032 18.237-26.556 29.485s-.266 28.819-7.188 39.136c-7.055 10.583-25.225 12.313-33.478 21.298-8.719 9.451-9.185 27.821-19.035 34.942-10.383 7.588-27.555 2.063-39.003 6.256-11.78 4.393-21.764 19.701-34.343 19.701s-22.563-15.308-34.344-19.701c-11.448-4.193-28.619 1.331-39.002-6.256-9.85-7.122-10.316-25.491-19.035-34.942-8.253-8.985-26.423-10.716-33.478-21.298-6.922-10.316-1.664-27.821-7.188-39.069-5.524-11.315-22.63-17.837-26.556-29.551-4.127-12.113 5.524-27.621 3.261-39.601-2.396-12.779-16.839-24.094-16.839-36.007 0-10.383 14.11-18.569 15.974-27.222 2.13-10.05-6.922-23.561-2.596-31.481 4.726-8.652 21.032-7.92 28.087-14.31 6.922-6.256 7.521-22.43 16.373-26.822 8.253-4.06 21.964 4.992 31.615 2.396 8.852-2.463 15.575-17.371 25.425-18.769 9.185-1.331 20.1 11.049 29.951 10.449 9.318-.533 18.569-14.11 28.353-14.11s19.035 13.577 28.353 14.11c9.85.599 20.766-11.781 29.951-10.449 9.85 1.398 16.573 16.307 25.425 18.769 9.65 2.596 23.361-6.456 31.615-2.396 8.918 4.393 9.451 20.566 16.439 26.822 6.988 6.39 23.295 5.724 28.021 14.31 4.326 7.92-4.726 21.431-2.596 31.481 1.863 8.653 15.974 16.772 15.974 27.222 0 11.914-14.443 23.228-16.839 36.007-2.265 11.979 7.386 27.486 3.259 39.6z" fill="#ea4e4e"/><g opacity=".4"><path d="m22.416 221.902c-4.199-3.575-4.699-9.873-1.124-14.072 10.27-12.057 13.987-19.785 10.413-36.418-1.157-5.395 2.275-10.705 7.663-11.862 5.395-1.144 10.705 2.275 11.862 7.663 5.2 24.224-1.462 37.984-14.741 53.564-3.582 4.206-9.893 4.698-14.073 1.125z" fill="#fff"/></g><path d="m332.853 288.316c-3.927 11.647-21.032 18.237-26.556 29.485s-.266 28.819-7.188 39.136c-7.055 10.583-25.225 12.313-33.478 21.298-8.719 9.451-9.185 27.821-19.035 34.942-10.383 7.588-27.555 2.063-39.003 6.256-11.78 4.393-21.764 19.701-34.343 19.701-5.192 0-9.85-2.596-14.443-5.857 6.656-4.792 12.978-11.248 19.967-13.844 11.448-4.193 28.619 1.331 39.002-6.256 9.85-7.122 10.316-25.491 19.035-34.942 8.253-8.985 26.423-10.716 33.478-21.298 6.922-10.316 1.664-27.887 7.188-39.136 5.524-11.248 22.63-17.837 26.556-29.485 4.127-12.113-5.524-27.621-3.261-39.601 2.396-12.779 16.839-24.094 16.839-36.007 0-10.449-14.11-18.569-15.974-27.222-2.13-10.05 6.922-23.561 2.596-31.481-4.726-8.586-21.032-7.92-28.021-14.31-5.923-5.324-7.254-17.837-12.978-24.16 8.719-.799 18.769-5.923 25.358-2.662 8.918 4.393 9.451 20.566 16.439 26.822 6.988 6.39 23.295 5.724 28.021 14.31 4.326 7.92-4.726 21.431-2.596 31.481 1.863 8.653 15.974 16.772 15.974 27.222 0 11.914-14.443 23.228-16.839 36.007-2.262 11.98 7.389 27.487 3.262 39.601z" opacity=".08"/><path d="m498.354 353.699c-3.927 11.647-21.032 18.237-26.556 29.485s-.266 28.819-7.188 39.136c-7.055 10.583-25.225 12.313-33.478 21.298-8.719 9.451-9.185 27.821-19.035 34.942-10.383 7.588-27.555 2.063-39.003 6.256-11.78 4.393-21.764 19.701-34.343 19.701s-22.563-15.308-34.344-19.701c-11.448-4.193-28.619 1.331-39.002-6.256-9.85-7.122-10.316-25.491-19.035-34.942-8.253-8.985-26.423-10.716-33.478-21.298-6.922-10.316-1.664-27.821-7.188-39.069-5.524-11.315-22.63-17.837-26.556-29.551-4.127-12.113 5.524-27.621 3.261-39.602-2.396-12.779-16.839-24.094-16.839-36.007 0-10.383 14.11-18.569 15.974-27.222 2.13-10.05-6.922-23.561-2.596-31.481 4.726-8.652 21.032-7.92 28.087-14.31 6.922-6.256 7.521-22.43 16.373-26.822 8.253-4.06 21.964 4.992 31.615 2.396 8.852-2.463 15.575-17.371 25.425-18.769 9.185-1.331 20.1 11.049 29.951 10.45 9.318-.533 18.569-14.11 28.353-14.11s19.035 13.577 28.353 14.11c9.85.599 20.766-11.781 29.951-10.45 9.85 1.398 16.573 16.307 25.425 18.769 9.65 2.596 23.361-6.456 31.615-2.396 8.918 4.393 9.451 20.566 16.439 26.822 6.988 6.39 23.295 5.724 28.021 14.31 4.326 7.92-4.726 21.431-2.596 31.481 1.863 8.653 15.974 16.773 15.974 27.222 0 11.914-14.443 23.228-16.839 36.007-2.265 11.981 7.385 27.488 3.259 39.601z" fill="#f96464"/><path d="m447.757 296.646c0 39.713-48.762 150.807-109.006 150.807-60.245 0-109.006-111.094-109.006-150.807s48.761-81.36 109.006-81.36c60.244 0 109.006 41.647 109.006 81.36z" fill="#f2f0f0"/><path d="m447.73 296.635c0 39.735-48.72 150.818-108.954 150.818-3.461 0-6.856-.333-10.25-1.065 55.375-11.514 98.637-112.282 98.637-149.753s-43.262-76.541-98.637-80.933c3.394-.266 6.789-.399 10.25-.399 60.235 0 108.954 41.598 108.954 81.332z" opacity=".08"/><ellipse cx="338.751" cy="331.37" fill="#6d6d6d" rx="40.267" ry="70.634"/></g></g></svg>