<svg enable-background="new 0 0 512 512" height="512" viewBox="0 0 512 512" width="512" xmlns="http://www.w3.org/2000/svg"><g id="_x33_1_Passion_Fruit"><g><path d="m193.049 119.679c-15.687-45.5-10.842-96.172 33.036-117.558l.646-.315c8.125-3.96 17.923-.584 21.883 7.542 3.96 8.125.584 17.923-7.541 21.883-4.148 2.022-13.251 2.321-22.854 11.147-18.291 16.848-21.512 51.191-18.72 75.648l.021.187c.209 1.831-1.106 3.485-2.937 3.694-1.584.181-3.035-.78-3.534-2.228z" fill="#13bd79"/><ellipse cx="198.449" cy="286.445" fill="#ad6850" rx="195.171" ry="225.406"/><g opacity=".4"><path d="m25.278 350.54c-5.645-20.799-8.525-42.365-8.557-64.094-.008-4.453 3.6-8.071 8.052-8.076h.013c4.45 0 8.058 3.602 8.066 8.055.032 20.306 2.72 40.459 7.995 59.893 1.166 4.295-1.373 8.727-5.671 9.893-4.247 1.164-8.719-1.335-9.898-5.671z" fill="#fff"/></g><path d="m393.599 286.434c0 124.48-87.377 225.406-195.134 225.406-7.044 0-13.98-.43-20.809-1.29 98.024-11.991 174.324-107.756 174.324-224.116 0-116.359-76.3-212.125-174.324-224.115 6.829-.86 13.765-1.29 20.809-1.29 107.757-.001 195.134 100.926 195.134 225.405z" opacity=".08"/><ellipse cx="327.305" cy="330.435" fill="#c17d61" rx="181.416" ry="181.416" transform="matrix(.707 -.707 .707 .707 -137.787 328.222)"/><path d="m327.306 484.966c-85.209 0-154.533-69.324-154.533-154.533s69.324-154.527 154.533-154.527 154.53 69.319 154.53 154.527-69.321 154.533-154.53 154.533z" fill="#e5e3e5"/><path d="m480.438 330.418c0 85.226-69.31 154.537-154.537 154.537-4.302 0-8.55-.161-12.744-.591 79.312-6.452 141.793-73.02 141.793-153.945 0-80.87-62.481-147.493-141.793-153.945 4.194-.43 8.442-.591 12.744-.591 85.227-.001 154.537 69.363 154.537 154.535z" opacity=".08"/><g fill="#6d6d6d"><g><g><path d="m335.079 237.283c0 12.168-7.775 22.055-7.775 22.055s-7.775-9.887-7.775-22.055c0-12.22 7.775-22.107 7.775-22.107s7.775 9.887 7.775 22.107z"/><path d="m335.079 423.641c0 12.168-7.775 22.055-7.775 22.055s-7.775-9.887-7.775-22.055c0-12.22 7.775-22.107 7.775-22.107s7.775 9.887 7.775 22.107z"/></g><g><path d="m398.671 270.064c-8.604 8.604-21.093 10.098-21.093 10.098s1.493-12.488 10.098-21.092c8.641-8.641 21.129-10.134 21.129-10.134s-1.493 12.487-10.134 21.128z"/><path d="m266.896 401.837c-8.604 8.604-21.093 10.098-21.093 10.098s1.493-12.488 10.098-21.092c8.641-8.641 21.13-10.134 21.13-10.134s-1.494 12.488-10.135 21.128z"/></g><g><path d="m420.457 338.209c-12.168 0-22.055-7.775-22.055-7.775s9.887-7.775 22.055-7.775c12.22 0 22.107 7.775 22.107 7.775s-9.887 7.775-22.107 7.775z"/><path d="m234.101 338.208c-12.168 0-22.055-7.775-22.055-7.775s9.887-7.775 22.055-7.775c12.22 0 22.107 7.775 22.107 7.775s-9.887 7.775-22.107 7.775z"/></g><g><path d="m387.677 401.8c-8.604-8.604-10.098-21.092-10.098-21.092s12.488 1.493 21.092 10.098c8.641 8.641 10.134 21.129 10.134 21.129s-12.488-1.495-21.128-10.135z"/><path d="m255.904 270.026c-8.604-8.604-10.098-21.092-10.098-21.092s12.488 1.493 21.092 10.098c8.641 8.641 10.134 21.129 10.134 21.129s-12.487-1.494-21.128-10.135z"/></g></g><g><g><path d="m358.242 267.249c-3.329 8.532-11.485 13.337-11.485 13.337s-2.746-9.059.583-17.591c3.343-8.568 11.499-13.373 11.499-13.373s2.746 9.059-.597 17.627z"/><path d="m307.256 397.913c-3.329 8.532-11.485 13.337-11.485 13.337s-2.746-9.059.583-17.591c3.343-8.568 11.499-13.373 11.499-13.373s2.747 9.059-.597 17.627z"/></g><g><path d="m393.86 307.631c-8.387 3.679-17.552 1.309-17.552 1.309s4.464-8.348 12.851-12.026c8.423-3.694 17.588-1.325 17.588-1.325s-4.464 8.348-12.887 12.042z"/><path d="m265.415 363.972c-8.387 3.679-17.552 1.309-17.552 1.309s4.464-8.348 12.851-12.026c8.423-3.694 17.588-1.325 17.588-1.325s-4.464 8.347-12.887 12.042z"/></g><g><path d="m390.492 361.371c-8.532-3.329-13.337-11.485-13.337-11.485s9.059-2.746 17.591.583c8.568 3.343 13.373 11.499 13.373 11.499s-9.059 2.747-17.627-.597z"/><path d="m259.829 310.386c-8.532-3.329-13.337-11.485-13.337-11.485s9.059-2.746 17.591.583c8.568 3.343 13.373 11.499 13.373 11.499s-9.059 2.746-17.627-.597z"/></g><g><path d="m350.111 396.989c-3.679-8.387-1.309-17.551-1.309-17.551s8.348 4.464 12.026 12.85c3.694 8.423 1.325 17.587 1.325 17.587s-8.348-4.463-12.042-12.886z"/><path d="m293.77 268.545c-3.679-8.387-1.309-17.551-1.309-17.551s8.348 4.464 12.026 12.85c3.694 8.423 1.325 17.587 1.325 17.587s-8.348-4.463-12.042-12.886z"/></g></g></g></g></g></svg>