<svg enable-background="new 0 0 512 512" height="512" viewBox="0 0 512 512" width="512" xmlns="http://www.w3.org/2000/svg"><g id="_x33_3_Chikoo"><g><path d="m202.609 136.373c17.888-51.885 12.364-109.667-37.671-134.054l-.737-.359c-9.266-4.516-20.438-.666-24.954 8.6s-.666 20.438 8.6 24.954c4.73 2.306 15.111 2.647 26.061 12.711 20.858 19.212 24.531 58.375 21.347 86.264l-.024.213c-.238 2.088 1.261 3.974 3.349 4.213 1.806.205 3.461-.892 4.029-2.542z" fill="#6d6d6d"/><path d="m338.048 210.174c0 95.306-63.793 301.748-142.416 301.748-78.622 0-142.351-206.442-142.351-301.748s63.729-150.477 142.351-150.477c78.623 0 142.416 55.171 142.416 150.477z" fill="#ad6850"/><g opacity=".4"><path d="m77.813 219.394s0 0-.003 0c-5.078 0-9.194-4.12-9.194-9.197.003-18.694 3-36.616 8.904-53.268 1.695-4.79 6.964-7.293 11.739-5.599 4.79 1.701 7.293 6.958 5.596 11.742-5.2 14.676-7.841 30.532-7.844 47.125-.001 5.077-4.121 9.197-9.198 9.197z" fill="#fff"/></g><path d="m338.039 210.195c0 95.286-63.769 301.737-142.376 301.737-3.495 0-6.99-.43-10.485-1.226 73.702-17.169 131.83-209.518 131.83-300.511 0-91.055-58.128-145.442-131.83-150.102 3.434-.246 6.929-.368 10.485-.368 78.607 0 142.376 55.123 142.376 150.47z" opacity=".08"/><path d="m458.719 230.955c0 88.742-59.399 280.967-132.608 280.967-73.208 0-132.548-192.224-132.548-280.967s59.34-140.113 132.548-140.113c73.208-.001 132.608 51.37 132.608 140.113z" fill="#c17d61"/><path d="m458.709 230.981c0 88.725-59.415 280.951-132.627 280.951-4.415 0-8.768-.674-13.06-2.085 67.08-20.786 119.444-195.537 119.444-278.866 0-83.389-52.364-133.792-119.444-139.617 4.292-.368 8.646-.551 13.06-.551 73.211 0 132.627 51.382 132.627 140.168z" opacity=".08"/><path d="m374.243 301.381c0 64.457-21.552 116.637-48.067 116.637-26.583 0-48.135-52.18-48.135-116.637 0-64.405 21.552-116.636 48.135-116.636 26.514 0 48.067 52.232 48.067 116.636z" fill="#ffce29"/><path d="m352.369 248.342c0 35.146-11.752 63.598-26.209 63.598-14.495 0-26.246-28.452-26.246-63.598 0-35.117 11.751-63.597 26.246-63.597 14.457 0 26.209 28.48 26.209 63.597z" fill="#6d6d6d"/></g></g></svg>