<svg enable-background="new 0 0 512 512" height="512" viewBox="0 0 512 512" width="512" xmlns="http://www.w3.org/2000/svg"><g id="_x33_4_Longan"><g><g><g><g fill="#0bad67"><path d="m229.699 56.758c-.662 2.903 1.038 5.822 3.903 6.633 7.13 2.018 20.604 6.51 30.86 13.968 45.449 33.048 111.854-18.577 120.919-61.352.841-3.967-2.668-7.445-6.627-6.568-9.389 2.078-26.195 3.723-43.506-4.718-25.338-12.356-93.27-1.773-105.549 52.037z"/><path d="m197.068 114.834c0-.548.605-55.032 59.887-68.448l1.491 6.57c-53.926 12.206-54.637 59.852-54.641 61.874z"/></g><path d="m203.141 133.839c14.298-41.472 9.882-87.658-30.111-107.15l-.589-.287c-7.406-3.61-16.336-.532-19.946 6.874s-.532 16.336 6.874 19.946c3.781 1.843 12.078 2.116 20.83 10.16 16.672 15.356 19.608 46.659 17.063 68.951l-.019.17c-.191 1.669 1.008 3.177 2.677 3.367 1.444.165 2.767-.711 3.221-2.031z" fill="#6d6d6d"/></g><path d="m382.719 269.363c0 97.138-78.759 175.898-175.898 175.898-97.188 0-175.947-78.76-175.947-175.898 0-97.187 78.76-175.947 175.947-175.947 97.139 0 175.898 78.76 175.898 175.947z" fill="#f2b816"/><g opacity=".4"><path d="m61.298 301.224c-1.775-8.068-2.902-16.376-3.303-24.871-.183-3.872-3.259-6.97-7.136-6.97h-.421c-4.119 0-7.326 3.476-7.136 7.591.431 9.339 1.651 18.475 3.589 27.345.708 3.24 3.651 5.508 6.968 5.508h.487c4.536.001 7.926-4.172 6.952-8.603z" fill="#fff"/></g><path d="m382.719 269.382c0 97.139-78.76 175.898-175.898 175.898-6.617 0-13.184-.343-19.604-1.128 87.925-9.704 156.294-84.248 156.294-174.77 0-90.571-68.369-165.116-156.294-174.819 6.42-.785 12.988-1.128 19.604-1.128 97.139 0 175.898 78.759 175.898 175.947z" opacity=".08"/></g><path d="m481.126 345.632c0 91.838-74.462 166.3-166.3 166.3-91.885 0-166.347-74.462-166.347-166.3 0-91.884 74.462-166.347 166.347-166.347 91.838 0 166.3 74.462 166.3 166.347z" fill="#ffce29"/><path d="m314.825 497.771c-83.916 0-152.186-68.252-152.186-152.14 0-83.916 68.27-152.186 152.186-152.186 83.888 0 152.14 68.27 152.14 152.186 0 83.888-68.252 152.14-152.14 152.14z" fill="#f2f0f0"/><path d="m466.965 345.633c0 83.881-68.257 152.138-152.138 152.138-3.871 0-7.694-.142-11.47-.425 78.547-5.9 140.667-71.702 140.667-151.712 0-80.057-62.12-145.86-140.667-151.76 3.776-.283 7.6-.425 11.47-.425 83.881-.001 152.138 68.256 152.138 152.184z" opacity=".08"/><path d="m314.812 415.391c-38.485 0-69.794-31.301-69.794-69.773 0-38.485 31.309-69.794 69.794-69.794 38.472 0 69.773 31.309 69.773 69.794 0 38.472-31.301 69.773-69.773 69.773z" fill="#6d6d6d"/><g opacity=".4"><path d="m261.323 323.303c-1.921 4.569-3.279 9.429-3.974 14.498-.571 4.166 2.841 7.83 7.046 7.83h.036c3.559 0 6.481-2.661 6.985-6.185.546-3.81 1.587-7.461 3.052-10.89 1.965-4.598-1.556-9.681-6.556-9.681-2.89 0-5.469 1.764-6.589 4.428z" fill="#fff"/></g><path d="m384.594 345.633c0 38.471-31.296 69.767-69.767 69.767-3.021 0-6.042-.189-8.969-.614 34.223-4.39 60.751-33.75 60.751-69.153 0-35.45-26.528-64.811-60.751-69.201 2.927-.425 5.948-.614 8.969-.614 38.471.001 69.767 31.297 69.767 69.815z" opacity=".08"/></g></g></svg>