<svg enable-background="new 0 0 512 512" height="512" viewBox="0 0 512 512" width="512" xmlns="http://www.w3.org/2000/svg"><g id="_x33_5_Olive"><g><path d="m387.589 30.536c-33.524 11.341-61.327 33.172-83.91 61.176.202.507-23.859 54.23 52.344 130.432l-7.227 6.976c-2.861-2.911-61.578-64.037-59.119-118.388-39.596 59.069-60.022 137.759-65.04 204.305-.151 2.459-2.208 4.366-4.617 4.366h-.301c-2.559-.201-4.517-2.359-4.316-4.919.1-2.409 16.913-241.192 169.176-292.782 2.409-.804 5.069.551 5.922 2.96.802 2.411-.453 5.02-2.912 5.874z" fill="#c17d61"/><g><ellipse cx="220.448" cy="377.438" fill="#13bd79" rx="113.168" ry="78.924" transform="matrix(.052 -.999 .999 .052 -167.932 577.983)"/><g opacity=".4"><path d="m163.651 374.494c-4.721-.246-8.218-4.444-7.707-9.144 1.362-12.536 4.229-24.382 8.562-35.387 1.745-4.431 6.88-6.468 11.175-4.413l.002.001c3.807 1.822 5.664 6.266 4.11 10.19-3.877 9.789-6.432 20.386-7.632 31.652-.453 4.237-4.253 7.322-8.51 7.101z" fill="#fff"/></g><path d="m299.238 381.547c-3.245 62.395-41.127 111.153-84.646 108.89-3.046-.158-6.078-.589-8.99-1.231 39.61-4.376 72.614-50.605 75.631-108.595 3.019-58.043-25.011-107.447-63.953-115.91 2.963-.337 6.023-.45 9.07-.292 43.517 2.264 76.136 54.688 72.888 117.138z" opacity=".08"/></g><g><ellipse cx="389.49" cy="285.386" fill="#13bd79" rx="78.925" ry="113.165" transform="matrix(.9 -.437 .437 .9 -85.554 198.896)"/><g opacity=".4"><path d="m338.336 310.242c-4.253 2.065-9.343.078-11.166-4.284-4.863-11.634-8.075-23.391-9.597-35.119-.613-4.722 2.899-8.986 7.654-9.261h.002c4.214-.244 7.986 2.75 8.521 6.937 1.335 10.444 4.216 20.956 8.607 31.4 1.651 3.928-.187 8.464-4.021 10.327z" fill="#fff"/></g><path d="m460.465 250.926c27.299 56.199 17.683 117.187-21.517 136.226-2.744 1.333-5.607 2.42-8.467 3.264 32.569-22.964 39.137-79.383 13.765-131.613-25.395-52.279-73.805-81.996-111.991-70.595 2.432-1.726 5.057-3.304 7.801-4.636 39.2-19.039 93.086 11.107 120.409 67.354z" opacity=".08"/></g><g><path d="m308.358 74.605c-.643-.423-65.049-41.78-126.566 17.43l6.559 6.823c55.962-53.86 112.424-17.906 114.8-16.35z" fill="#c17d61"/><path d="m144.746 204.572c-41.616 36.167-90.303 54.445-121.835 63.186-14.607 4.049-27.353-10.623-21.302-24.52 13.062-29.995 37.96-75.641 79.573-111.805 52.119-45.294 115.341-62.54 142.021-68.124 5.883-1.231 10.814 4.441 8.777 10.096-9.239 25.647-35.114 85.871-87.234 131.167z" fill="#13bd79"/></g><g><path d="m311.54 70.23c.418-.275 42.283-27.157 82.269 11.33l-4.263 4.435c-36.376-35.01-73.077-11.639-74.621-10.628z" fill="#c17d61"/><path d="m417.89 154.709c27.051 23.509 58.698 35.39 79.194 41.071 9.495 2.632 17.78-6.905 13.846-15.938-8.49-19.497-24.674-49.168-51.723-72.675-33.878-29.442-74.973-40.652-92.316-44.282-3.824-.8-7.03 2.887-5.705 6.562 6.006 16.673 22.825 55.819 56.704 85.262z" fill="#13bd79"/></g></g></g></svg>