<svg enable-background="new 0 0 512 512" height="512" viewBox="0 0 512 512" width="512" xmlns="http://www.w3.org/2000/svg"><g id="_x33_6_Cantaloupe"><g><path d="m385.69 256.023c0 134.015-86.374 242.722-192.811 242.722-106.505 0-192.811-108.707-192.811-242.722 0-134.073 86.306-242.78 192.811-242.78 106.437 0 192.811 108.706 192.811 242.78z" fill="#0bad67"/><g opacity=".4"><path d="m104.068 77.743c6.518-5.561 13.358-10.529 20.475-14.845 6.921-4.198 3.812-14.874-4.283-14.874h-.155c-1.508 0-2.995.401-4.281 1.189-7.763 4.756-15.202 10.231-22.288 16.331-5.635 4.851-2.092 14.141 5.344 14.141 1.906-.001 3.737-.705 5.188-1.942z" fill="#fff"/></g><path d="m385.708 256c0 134.065-86.418 242.754-192.82 242.754-4.901 0-9.747-.217-14.539-.708 99.705-9.366 178.281-114.135 178.281-242.046s-78.576-232.68-178.281-242.046c4.792-.491 9.638-.709 14.539-.709 106.403 0 192.82 108.69 192.82 242.755z" opacity=".08"/><g fill="#13bd79"><path d="m294.83 93.441c53.846 88.386 54.57 235.632 0 325.106 39.408-97.112 40.31-225.902 0-325.106z"/><path d="m90.925 418.547c-54.052-88.508-54.338-236.224 0-325.106-40.561 99.653-39.173 229.001 0 325.106z"/><path d="m235.735 93.441c26.745 89.261 27.291 234.191 0 325.106 12.378-98.081 12.924-223.099 0-325.106z"/><path d="m150.019 418.547c-27.035-90.626-26.98-234.824 0-325.106-12.909 103.315-12.357 226.616 0 325.106z"/></g><path d="m511.932 312.169c0 103.003-91.085 186.588-203.336 186.588-112.302 0-203.284-83.585-203.284-186.588z" fill="#13bd79"/><path d="m495.749 312.169v15.412c-8.58 87.181-89.236 155.764-187.154 155.764s-178.523-68.583-187.153-155.764v-15.412z" fill="#ffce29"/><g fill="#6d6d6d"><g><g><path d="m393.913 349.829c4.294 2.054 9.43.235 11.481-4.066 2.043-4.284.228-9.428-4.065-11.482-4.294-2.054-24.541-2.203-24.541-2.203s12.831 15.697 17.125 17.751z"/><path d="m370.308 372.976c3.859 2.786 9.237 1.91 12.022-1.956 2.774-3.852 1.904-9.237-1.955-12.023s-23.757-6.538-23.757-6.538 9.831 17.731 13.69 20.517z"/><path d="m339.536 393.439c2.732 3.899 8.098 4.841 11.993 2.106 3.88-2.724 4.822-8.094 2.089-11.993-2.732-3.899-20.293-13.983-20.293-13.983s3.479 19.971 6.211 23.87z"/></g><g><path d="m223.279 349.829c-4.294 2.054-9.43.235-11.481-4.066-2.043-4.284-.228-9.428 4.065-11.482 4.294-2.054 24.541-2.203 24.541-2.203s-12.831 15.697-17.125 17.751z"/><path d="m246.884 372.976c-3.859 2.786-9.237 1.91-12.022-1.956-2.774-3.852-1.904-9.237 1.955-12.023s23.757-6.538 23.757-6.538-9.831 17.731-13.69 20.517z"/><path d="m277.656 393.439c-2.732 3.899-8.098 4.841-11.993 2.106-3.88-2.724-4.822-8.094-2.089-11.993 2.732-3.899 20.293-13.983 20.293-13.983s-3.479 19.971-6.211 23.87z"/></g></g><path d="m317.202 398.439c0 4.761-3.854 8.616-8.616 8.616-4.742 0-8.597-3.854-8.597-8.616 0-4.761 8.597-23.108 8.597-23.108s8.616 18.347 8.616 23.108z"/></g></g></g></svg>