<svg enable-background="new 0 0 512 512" height="512" viewBox="0 0 512 512" width="512" xmlns="http://www.w3.org/2000/svg"><g id="_x33_8_Dates"><g><g><path d="m452.08 332.618c-69.317 103.902-210.144 210.518-269.651 170.818-59.469-39.675-15.107-210.646 54.21-314.548 69.318-103.903 137.32-101.359 196.79-61.685 59.506 39.7 87.969 101.512 18.651 205.415z" fill="#c17d61"/><path d="m452.072 332.615c-69.317 103.902-210.104 210.509-269.609 170.811-4.695-3.133-8.74-7.039-12.132-11.722 65.759 16.126 190.222-81.822 254.08-177.542 63.859-95.721 44.721-155.649-5.19-195.53 4.788 2.59 9.514 5.475 14.21 8.607 59.506 39.698 87.959 101.473 18.641 205.376z" opacity=".08"/><path d="m456.355 152.79c-5.552 8.322-22.421 6.808-37.707-3.39s-23.162-25.193-17.61-33.515c5.52-8.275 22.39-6.762 37.676 3.437 15.286 10.198 23.161 25.193 17.641 33.468z" fill="#6d6d6d"/><g fill="#ad6850"><path d="m333.049 166.552c-12.641 3.89-23.585 11.23-32.351 20.474-55.248 57.969-19.037 164.145-128.627 236.399 102.686-97.66 60.969-185.302 124.889-240.376 10.341-8.693 22.908-15.048 36.089-16.497z"/><path d="m246.053 401.098c21.108-3.029 35.763-27.726 45.011-47.11 25.614-54.376 34.547-151.209 102.202-175.741-61.752 38.375-61.418 121.56-94.495 179.751-11.041 19.718-30.273 44.619-52.718 43.1z"/><path d="m450.258 211.532c-36.143 17.469-31.166 67.832-45.29 94.647-.148-30.78-1.518-61.324 18.881-82.547 6.86-7.257 16.659-12.553 26.409-12.1z"/><path d="m206.856 483.012c75.369-33.484 71.211-78.229 99.089-99.79 5.811-4.413 12.842-7.624 19.951-7.655-12.929 4.912-20.72 15.96-26.817 28.308-1.758 2.238-23.747 73.237-92.223 79.137z"/><path d="m345.051 408.06c14.962-30.868-3.664-66.987 12.599-96.786 7.078-13.195 18.062-19.458 27.037-19.803-42.516 21.973-5.888 88.516-39.636 116.589z"/></g></g><g><path d="m279.925 135.188c30.438 121.136 14.864 297.081-54.513 314.513-69.334 17.422-166.226-130.264-196.664-251.4-30.438-121.136 17.113-169.816 86.447-187.237 69.378-17.433 134.292 2.987 164.73 124.124z" fill="#c17d61"/><g opacity=".4"><path d="m51.448 196.879c-4.48 1.126-9.03-1.586-10.167-6.066-2.273-8.944-4.075-17.157-5.507-25.109-.822-4.56 2.165-8.985 6.763-9.735 4.556-.824 8.916 2.205 9.737 6.759 1.362 7.558 3.084 15.397 5.257 23.956 1.138 4.486-1.572 9.05-6.061 10.189-.009.003-.014.004-.022.006z" fill="#fff"/></g><path d="m279.918 135.192c30.438 121.136 14.885 297.045-54.491 314.477-5.474 1.376-11.085 1.749-16.833 1.118 56.109-37.896 67.116-195.894 39.075-307.491-28.041-111.598-85.298-137.662-148.365-127.462 5.135-1.809 10.446-3.373 15.92-4.749 69.375-17.431 134.256 2.97 164.694 124.107z" opacity=".08"/><path d="m149.55 11.259c2.438 9.702-10.012 21.185-27.834 25.663s-34.221.244-36.659-9.458c-2.424-9.647 10.026-21.131 27.848-25.609s34.221-.243 36.645 9.404z" fill="#6d6d6d"/><g fill="#ad6850"><path d="m76.942 111.865c-5.607 11.979-7.517 25.017-6.555 37.72 5.851 79.866 108.841 124.336 88.783 254.06-3.404-141.669-96.358-169.614-94.241-253.961.504-13.5 4.235-27.078 12.013-37.819z"/><path d="m192.31 333.834c11.931-17.674 3.472-45.118-4.68-64.988-23.09-55.495-88.84-127.141-61.584-193.746-13.035 71.526 48.826 127.142 69.731 190.728 7.196 21.423 12.731 52.395-3.467 68.006z"/><path d="m188.982 55.224c-11.328 38.512 29.332 68.645 39.715 97.117-22.906-20.56-46.458-40.057-48.485-69.424-.769-9.955 1.886-20.772 8.77-27.693z"/><path d="m226.682 417.887c25.803-78.332-10.143-105.299-7.397-140.435.632-7.269 2.975-14.635 7.726-19.924-5.043 12.879-2.088 26.071 2.967 38.88.476 2.806 38.317 66.779-3.296 121.479z"/><path d="m263.95 265.155c-12.825-31.815-52.095-42.27-63.254-74.331-5.024-14.106-2.289-26.45 3.483-33.332-12.271 46.259 61.633 63.805 59.771 107.663z"/></g></g></g></g></svg>