<svg enable-background="new 0 0 512 512" height="512" viewBox="0 0 512 512" width="512" xmlns="http://www.w3.org/2000/svg"><g id="_x34_1_Sapodilla"><g><g><path d="m314.087 228.036c0 104.306-57.353 231.607-128.111 231.607-70.714 0-128.068-127.301-128.068-231.607s57.355-165.574 128.069-165.574c70.757 0 128.11 61.268 128.11 165.574z" fill="#ad6850"/><g opacity=".4"><path d="m74.459 271.828c-1.936-14.448-2.925-29.173-2.941-43.77-.005-4.515 3.648-8.173 8.16-8.179h.008c4.507 0 8.163 3.653 8.168 8.157.016 13.885.957 27.886 2.797 41.622.598 4.472-2.539 8.583-7.011 9.178-4.318.626-8.568-2.437-9.181-7.008z" fill="#fff"/></g><path d="m314.108 228.046c0 104.279-57.394 231.591-128.129 231.591-3.975 0-7.896-.381-11.762-1.198 65.236-12.959 116.367-131.941 116.367-230.393 0-98.506-51.077-158.623-116.367-164.994 3.866-.382 7.787-.6 11.762-.6 70.735 0 128.129 61.261 128.129 165.594z" opacity=".08"/><path d="m226.563 80.171c-10.21-7.935-20.231-4.796-20.231-4.796 9.732 7.683 10.374 17.681 9.25 24.617-.475 2.93-4.361 3.46-5.728.825-7.47-14.392-17.8-20.861-24.105-23.59-6.305 2.729-16.636 9.199-24.105 23.59-1.367 2.635-5.253 2.105-5.728-.825-1.124-6.936-.482-16.934 9.25-24.617 0 0-9.69-3.035-19.721 4.409-2.455 1.822-5.707-.8-4.592-3.648 12.477-31.867 79.635-31.693 90.347.448.952 2.863-2.255 5.438-4.637 3.587z" fill="#6d6d6d"/></g><path d="m197.913 289.017c0-104.306 57.353-231.607 128.111-231.607 70.714 0 128.068 127.301 128.067 231.607 0 104.306-57.354 165.574-128.068 165.574-70.757 0-128.11-61.268-128.11-165.574z" fill="#c17d61"/><path d="m326.022 443.702c-70.112 0-117.219-62.164-117.219-154.688 0-99.351 54.089-220.713 117.219-220.713 63.108 0 117.179 121.361 117.179 220.713 0 92.524-47.091 154.688-117.179 154.688z" fill="#e5e3e5"/><path d="m443.218 289.034c0 92.517-47.103 154.648-117.184 154.648-3.158 0-6.262-.109-9.311-.382 64.909-5.282 107.873-65.888 107.873-154.266 0-94.478-48.845-208.776-107.873-219.884 3.104-.599 6.207-.871 9.311-.871 63.111 0 117.184 121.378 117.184 220.755z" opacity=".08"/><g fill="#6d6d6d"><path d="m317.833 210.849c0-10.643-13.698-15.012-19.811-6.3-17.921 25.54-34.324 70.115-34.324 116.543 0 40.981 14.553 71.674 37.963 83.975 7.342 3.858 16.172-1.262 16.172-9.556z"/><path d="m334.169 210.822v184.702c0 8.293 8.828 13.412 16.17 9.557 23.413-12.294 37.968-42.993 37.968-83.988 0-46.445-16.407-91.035-34.327-116.57-6.114-8.713-19.811-4.343-19.811 6.299z"/></g></g></g></svg>