<svg enable-background="new 0 0 512 512" height="512" viewBox="0 0 512 512" width="512" xmlns="http://www.w3.org/2000/svg"><g id="_x34_2_Custard_Apple"><g><g><path d="m318.636 29.625c-1.947 5.611-5.954 10.134-11.336 12.768-4.107 2.053-47.625 6.089-38.876 82.045.286 2.576-.401 4.98-1.889 6.87-1.546 1.889-3.722 3.092-6.126 3.378-.344.057-.687.057-1.031.057-3.779 0-7.329-2.462-8.588-6.126-5.783-16.718-8.531-32.806-8.531-47.75 0-35.325 15.688-64.01 44.887-78.208l.63-.344c11.417-5.465 24.577-.547 29.772 10.306 2.634 5.324 2.977 11.393 1.088 17.004z" fill="#c17d61"/></g><path d="m365.23 450.367c0 33.991-21.641 61.565-48.38 61.565-26.691 0-48.332-27.574-48.332-61.565 0-34.049 21.641-61.565 48.332-61.565 26.739 0 48.38 27.517 48.38 61.565z" fill="#13bd79"/><path d="m365.234 450.367c0 33.97-21.661 61.543-48.375 61.543-14.244 0-27.036-7.848-35.905-20.371 6.773 4.622 14.459 7.203 22.683 7.203 26.767 0 48.375-27.574 48.375-61.597 0-15.802-4.676-30.154-12.255-41.011 15.157 10.373 25.477 30.745 25.477 54.233z" fill="#0bad67"/><path d="m304.354 450.367c0 33.991-21.641 61.565-48.38 61.565-26.691 0-48.332-27.574-48.332-61.565 0-34.049 21.641-61.565 48.332-61.565 26.739 0 48.38 27.517 48.38 61.565z" fill="#13bd79"/><path d="m304.358 450.367c0 33.97-21.661 61.543-48.375 61.543-14.244 0-27.036-7.848-35.905-20.371 6.773 4.622 14.459 7.203 22.683 7.203 26.767 0 48.375-27.574 48.375-61.597 0-15.802-4.676-30.154-12.255-41.011 15.157 10.373 25.477 30.745 25.477 54.233z" fill="#0bad67"/><path d="m243.478 450.367c0 33.991-21.641 61.565-48.38 61.565-26.691 0-48.332-27.574-48.332-61.565 0-34.049 21.641-61.565 48.332-61.565 26.739 0 48.38 27.517 48.38 61.565z" fill="#13bd79"/><path d="m243.482 450.367c0 33.97-21.661 61.543-48.375 61.543-14.244 0-27.036-7.848-35.905-20.371 6.773 4.622 14.459 7.203 22.683 7.203 26.767 0 48.375-27.574 48.375-61.597 0-15.802-4.676-30.154-12.255-41.011 15.157 10.373 25.477 30.745 25.477 54.233z" fill="#0bad67"/><path d="m397.236 373.843c0 34.373-21.884 62.256-48.923 62.256-26.991 0-48.875-27.884-48.875-62.256 0-34.431 21.884-62.257 48.875-62.257 27.039 0 48.923 27.826 48.923 62.257z" fill="#13bd79"/><path d="m397.241 373.843c0 34.351-21.905 62.235-48.918 62.235-14.404 0-27.34-7.936-36.308-20.6 6.849 4.674 14.621 7.284 22.937 7.284 27.068 0 48.918-27.883 48.918-62.289 0-15.98-4.729-30.492-12.393-41.472 15.328 10.489 25.764 31.089 25.764 54.842z" fill="#0bad67"/><path d="m335.677 373.843c0 34.373-21.884 62.256-48.923 62.256-26.991 0-48.875-27.884-48.875-62.256 0-34.431 21.884-62.257 48.875-62.257 27.039 0 48.923 27.826 48.923 62.257z" fill="#13bd79"/><path d="m335.681 373.843c0 34.351-21.905 62.235-48.918 62.235-14.404 0-27.34-7.936-36.308-20.6 6.849 4.674 14.621 7.284 22.937 7.284 27.068 0 48.918-27.883 48.918-62.289 0-15.98-4.729-30.492-12.393-41.472 15.328 10.489 25.764 31.089 25.764 54.842z" fill="#0bad67"/><path d="m274.117 373.843c0 34.373-21.884 62.256-48.923 62.256-26.991 0-48.875-27.884-48.875-62.256 0-34.431 21.884-62.257 48.875-62.257 27.039 0 48.923 27.826 48.923 62.257z" fill="#13bd79"/><path d="m274.121 373.843c0 34.351-21.905 62.235-48.918 62.235-14.404 0-27.34-7.936-36.308-20.6 6.849 4.674 14.621 7.284 22.937 7.284 27.068 0 48.918-27.883 48.918-62.289 0-15.98-4.729-30.492-12.393-41.472 15.328 10.489 25.764 31.089 25.764 54.842z" fill="#0bad67"/><path d="m212.557 373.843c0 34.373-21.884 62.256-48.923 62.256-26.991 0-48.875-27.884-48.875-62.256 0-34.431 21.884-62.257 48.875-62.257 27.039 0 48.923 27.826 48.923 62.257z" fill="#13bd79"/><path d="m212.562 373.843c0 34.351-21.905 62.235-48.918 62.235-14.404 0-27.34-7.936-36.308-20.6 6.849 4.674 14.621 7.284 22.937 7.284 27.068 0 48.918-27.883 48.918-62.289 0-15.98-4.729-30.492-12.393-41.472 15.328 10.489 25.764 31.089 25.764 54.842z" fill="#0bad67"/><path d="m440.862 293.267c0 31.333-19.949 56.75-44.597 56.75-24.604 0-44.553-25.418-44.553-56.75 0-31.386 19.949-56.751 44.553-56.751 24.648 0 44.597 25.365 44.597 56.751z" fill="#13bd79"/><path d="m440.866 293.267c0 31.314-19.967 56.731-44.592 56.731-13.13 0-24.922-7.234-33.097-18.778 6.243 4.261 13.328 6.639 20.909 6.639 24.674 0 44.592-25.417 44.592-56.781 0-14.567-4.311-27.796-11.297-37.804 13.971 9.563 23.485 28.341 23.485 49.993z" fill="#0bad67"/><path d="m384.746 293.267c0 31.333-19.949 56.75-44.597 56.75-24.604 0-44.553-25.418-44.553-56.75 0-31.386 19.949-56.751 44.553-56.751 24.648 0 44.597 25.365 44.597 56.751z" fill="#13bd79"/><path d="m384.75 293.267c0 31.314-19.967 56.731-44.592 56.731-13.13 0-24.922-7.234-33.097-18.778 6.243 4.261 13.328 6.639 20.909 6.639 24.674 0 44.592-25.417 44.592-56.781 0-14.567-4.311-27.796-11.297-37.804 13.972 9.563 23.485 28.341 23.485 49.993z" fill="#0bad67"/><path d="m328.631 293.267c0 31.333-19.949 56.75-44.597 56.75-24.604 0-44.553-25.418-44.553-56.75 0-31.386 19.949-56.751 44.553-56.751 24.648 0 44.597 25.365 44.597 56.751z" fill="#13bd79"/><path d="m328.634 293.267c0 31.314-19.967 56.731-44.592 56.731-13.13 0-24.922-7.234-33.097-18.778 6.243 4.261 13.328 6.639 20.909 6.639 24.674 0 44.592-25.417 44.592-56.781 0-14.567-4.311-27.796-11.297-37.804 13.972 9.563 23.485 28.341 23.485 49.993z" fill="#0bad67"/><path d="m272.515 293.267c0 31.333-19.949 56.75-44.597 56.75-24.604 0-44.553-25.418-44.553-56.75 0-31.386 19.949-56.751 44.553-56.751 24.648 0 44.597 25.365 44.597 56.751z" fill="#13bd79"/><path d="m272.519 293.267c0 31.314-19.967 56.731-44.592 56.731-13.13 0-24.922-7.234-33.097-18.778 6.243 4.261 13.328 6.639 20.909 6.639 24.674 0 44.592-25.417 44.592-56.781 0-14.567-4.311-27.796-11.297-37.804 13.972 9.563 23.485 28.341 23.485 49.993z" fill="#0bad67"/><path d="m216.399 293.267c0 31.333-19.949 56.75-44.597 56.75-24.604 0-44.553-25.418-44.553-56.75 0-31.386 19.949-56.751 44.553-56.751 24.648 0 44.597 25.365 44.597 56.751z" fill="#13bd79"/><path d="m216.403 293.267c0 31.314-19.967 56.731-44.592 56.731-13.13 0-24.922-7.234-33.097-18.778 6.243 4.261 13.328 6.639 20.909 6.639 24.674 0 44.592-25.417 44.592-56.781 0-14.567-4.311-27.796-11.297-37.804 13.972 9.563 23.485 28.341 23.485 49.993z" fill="#0bad67"/><path d="m160.284 293.267c0 31.333-19.949 56.75-44.597 56.75-24.604 0-44.553-25.418-44.553-56.75 0-31.386 19.949-56.751 44.553-56.751 24.648 0 44.597 25.365 44.597 56.751z" fill="#13bd79"/><path d="m160.288 293.267c0 31.314-19.967 56.731-44.592 56.731-13.13 0-24.922-7.234-33.097-18.778 6.243 4.261 13.328 6.639 20.909 6.639 24.674 0 44.592-25.417 44.592-56.781 0-14.567-4.311-27.796-11.297-37.804 13.972 9.563 23.485 28.341 23.485 49.993z" fill="#0bad67"/><path d="m468.919 201.93c0 31.333-19.949 56.75-44.597 56.75-24.604 0-44.553-25.418-44.553-56.75 0-31.386 19.949-56.751 44.553-56.751 24.649.001 44.597 25.365 44.597 56.751z" fill="#13bd79"/><path d="m468.923 201.93c0 31.314-19.967 56.731-44.592 56.731-13.13 0-24.922-7.234-33.097-18.778 6.243 4.261 13.328 6.639 20.909 6.639 24.674 0 44.592-25.417 44.592-56.781 0-14.567-4.311-27.796-11.297-37.804 13.972 9.563 23.485 28.341 23.485 49.993z" fill="#0bad67"/><path d="m412.804 201.93c0 31.333-19.949 56.75-44.597 56.75-24.604 0-44.553-25.418-44.553-56.75 0-31.386 19.949-56.751 44.553-56.751 24.648.001 44.597 25.365 44.597 56.751z" fill="#13bd79"/><path d="m412.808 201.93c0 31.314-19.967 56.731-44.592 56.731-13.13 0-24.922-7.234-33.097-18.778 6.243 4.261 13.328 6.639 20.909 6.639 24.674 0 44.592-25.417 44.592-56.781 0-14.567-4.311-27.796-11.297-37.804 13.972 9.563 23.485 28.341 23.485 49.993z" fill="#0bad67"/><path d="m356.688 201.93c0 31.333-19.949 56.75-44.597 56.75-24.604 0-44.553-25.418-44.553-56.75 0-31.386 19.949-56.751 44.553-56.751 24.648.001 44.597 25.365 44.597 56.751z" fill="#13bd79"/><path d="m356.692 201.93c0 31.314-19.967 56.731-44.592 56.731-13.13 0-24.922-7.234-33.097-18.778 6.243 4.261 13.328 6.639 20.909 6.639 24.674 0 44.592-25.417 44.592-56.781 0-14.567-4.311-27.796-11.297-37.804 13.972 9.563 23.485 28.341 23.485 49.993z" fill="#0bad67"/><path d="m300.573 201.93c0 31.333-19.949 56.75-44.597 56.75-24.604 0-44.553-25.418-44.553-56.75 0-31.386 19.949-56.751 44.553-56.751 24.648.001 44.597 25.365 44.597 56.751z" fill="#13bd79"/><path d="m300.577 201.93c0 31.314-19.967 56.731-44.592 56.731-13.13 0-24.922-7.234-33.097-18.778 6.243 4.261 13.328 6.639 20.909 6.639 24.674 0 44.592-25.417 44.592-56.781 0-14.567-4.311-27.796-11.297-37.804 13.972 9.563 23.485 28.341 23.485 49.993z" fill="#0bad67"/><path d="m244.457 201.93c0 31.333-19.949 56.75-44.597 56.75-24.604 0-44.553-25.418-44.553-56.75 0-31.386 19.949-56.751 44.553-56.751 24.648.001 44.597 25.365 44.597 56.751z" fill="#13bd79"/><path d="m244.461 201.93c0 31.314-19.967 56.731-44.592 56.731-13.13 0-24.922-7.234-33.097-18.778 6.243 4.261 13.328 6.639 20.909 6.639 24.674 0 44.592-25.417 44.592-56.781 0-14.567-4.311-27.796-11.297-37.804 13.972 9.563 23.485 28.341 23.485 49.993z" fill="#0bad67"/><path d="m188.342 201.93c0 31.333-19.949 56.75-44.597 56.75-24.604 0-44.553-25.418-44.553-56.75 0-31.386 19.949-56.751 44.553-56.751 24.648.001 44.597 25.365 44.597 56.751z" fill="#13bd79"/><path d="m188.345 201.93c0 31.314-19.967 56.731-44.592 56.731-13.13 0-24.922-7.234-33.097-18.778 6.243 4.261 13.328 6.639 20.909 6.639 24.674 0 44.592-25.417 44.592-56.781 0-14.567-4.311-27.796-11.297-37.804 13.972 9.563 23.485 28.341 23.485 49.993z" fill="#0bad67"/><path d="m132.226 201.93c0 31.333-19.949 56.75-44.597 56.75-24.604 0-44.553-25.418-44.553-56.75 0-31.386 19.949-56.751 44.553-56.751 24.648.001 44.597 25.365 44.597 56.751z" fill="#13bd79"/><path d="m132.23 201.93c0 31.314-19.967 56.731-44.592 56.731-13.13 0-24.922-7.234-33.097-18.778 6.243 4.261 13.328 6.639 20.909 6.639 24.674 0 44.592-25.417 44.592-56.781 0-14.567-4.311-27.796-11.297-37.804 13.972 9.563 23.485 28.341 23.485 49.993z" fill="#0bad67"/><path d="m440.862 124.157c0 31.333-19.949 56.75-44.597 56.75-24.604 0-44.553-25.418-44.553-56.75 0-31.386 19.949-56.751 44.553-56.751 24.648 0 44.597 25.364 44.597 56.751z" fill="#13bd79"/><path d="m440.866 124.157c0 31.314-19.967 56.731-44.592 56.731-13.13 0-24.922-7.234-33.097-18.778 6.243 4.261 13.328 6.639 20.909 6.639 24.674 0 44.592-25.417 44.592-56.781 0-14.567-4.311-27.796-11.297-37.804 13.971 9.562 23.485 28.341 23.485 49.993z" fill="#0bad67"/><path d="m384.746 124.157c0 31.333-19.949 56.75-44.597 56.75-24.604 0-44.553-25.418-44.553-56.75 0-31.386 19.949-56.751 44.553-56.751 24.648 0 44.597 25.364 44.597 56.751z" fill="#13bd79"/><path d="m384.75 124.157c0 31.314-19.967 56.731-44.592 56.731-13.13 0-24.922-7.234-33.097-18.778 6.243 4.261 13.328 6.639 20.909 6.639 24.674 0 44.592-25.417 44.592-56.781 0-14.567-4.311-27.796-11.297-37.804 13.972 9.562 23.485 28.341 23.485 49.993z" fill="#0bad67"/><path d="m328.631 124.157c0 31.333-19.949 56.75-44.597 56.75-24.604 0-44.553-25.418-44.553-56.75 0-31.386 19.949-56.751 44.553-56.751 24.648 0 44.597 25.364 44.597 56.751z" fill="#13bd79"/><path d="m328.634 124.157c0 31.314-19.967 56.731-44.592 56.731-13.13 0-24.922-7.234-33.097-18.778 6.243 4.261 13.328 6.639 20.909 6.639 24.674 0 44.592-25.417 44.592-56.781 0-14.567-4.311-27.796-11.297-37.804 13.972 9.562 23.485 28.341 23.485 49.993z" fill="#0bad67"/><path d="m272.515 124.157c0 31.333-19.949 56.75-44.597 56.75-24.604 0-44.553-25.418-44.553-56.75 0-31.386 19.949-56.751 44.553-56.751 24.648 0 44.597 25.364 44.597 56.751z" fill="#13bd79"/><path d="m272.519 124.157c0 31.314-19.967 56.731-44.592 56.731-13.13 0-24.922-7.234-33.097-18.778 6.243 4.261 13.328 6.639 20.909 6.639 24.674 0 44.592-25.417 44.592-56.781 0-14.567-4.311-27.796-11.297-37.804 13.972 9.562 23.485 28.341 23.485 49.993z" fill="#0bad67"/><path d="m216.399 124.157c0 31.333-19.949 56.75-44.597 56.75-24.604 0-44.553-25.418-44.553-56.75 0-31.386 19.949-56.751 44.553-56.751 24.648 0 44.597 25.364 44.597 56.751z" fill="#13bd79"/><path d="m216.403 124.157c0 31.314-19.967 56.731-44.592 56.731-13.13 0-24.922-7.234-33.097-18.778 6.243 4.261 13.328 6.639 20.909 6.639 24.674 0 44.592-25.417 44.592-56.781 0-14.567-4.311-27.796-11.297-37.804 13.972 9.562 23.485 28.341 23.485 49.993z" fill="#0bad67"/><path d="m160.284 124.157c0 31.333-19.949 56.75-44.597 56.75-24.604 0-44.553-25.418-44.553-56.75 0-31.386 19.949-56.751 44.553-56.751 24.648 0 44.597 25.364 44.597 56.751z" fill="#13bd79"/><path d="m160.288 124.157c0 31.314-19.967 56.731-44.592 56.731-13.13 0-24.922-7.234-33.097-18.778 6.243 4.261 13.328 6.639 20.909 6.639 24.674 0 44.592-25.417 44.592-56.781 0-14.567-4.311-27.796-11.297-37.804 13.972 9.562 23.485 28.341 23.485 49.993z" fill="#0bad67"/></g></g></svg>