<svg enable-background="new 0 0 512 512" height="512" viewBox="0 0 512 512" width="512" xmlns="http://www.w3.org/2000/svg"><g id="_x34_4_Carambola"><g><g><path d="m149.853.154c30.368-.23 48.576 54.672 43.187 100.008l-1.784 14.501c-.174 1.412-1.459 2.416-2.871 2.242-1.211-.149-2.121-1.115-2.247-2.277l-.017-.163c-3.641-27.577 1.624 5.595-3.848-28.078-3.436-20.16-18.89-56.703-36.083-54.959l-.142.078c.421.153.116.091.539.159-8.701-.902-15.024-8.687-14.123-17.388.902-8.702 8.687-15.025 17.389-14.123z" fill="#c17d61"/><path d="m321.62 234.082c0 81.55-78.642 197.942-117.422 250.379-10.219 13.819-32.002 13.817-42.218-.004-38.765-52.439-117.373-168.827-117.373-250.375 0-108.184 61.997-163.023 138.479-163.023s138.534 54.839 138.534 163.023z" fill="#f2b816"/><path d="m321.601 234.082c0 81.563-78.628 197.935-117.401 250.405-7.157 9.68-19.979 12.564-30.535 8.65 4.48-1.647 8.599-4.531 11.637-8.65 38.774-52.47 117.401-168.842 117.401-250.405 0-103.705-57.001-158.389-129.039-162.714 3.09-.206 6.231-.309 9.423-.309 76.467 0 138.514 54.839 138.514 163.023z" opacity=".08"/><path d="m278.704 228.982c0 89.581-55.242 217.775-81.744 274.123-5.524 11.745-22.204 11.744-27.726-.002-26.492-56.349-81.711-184.541-81.711-274.121 0-117.795 42.787-177.505 95.571-177.505s95.61 59.71 95.61 177.505z" fill="#ffce29"/><g opacity=".4"><path d="m103.587 178.839c-1.784 13.262-2.853 27.436-3.126 42.417-.077 4.241 3.395 7.728 7.637 7.728h.219c4.169 0 7.514-3.377 7.591-7.545.265-14.272 1.282-27.782 2.966-40.389.616-4.61-2.882-8.734-7.533-8.734h-.193c-3.795-.001-7.056 2.763-7.561 6.523z" fill="#fff"/></g><path d="m183.088 511.932c-10.539-126.519-9.768-343.876 0-460.44 9.467 112.975 10.746 331.436 0 460.44z" fill="#f2b816"/></g><path d="m416.957 431.548c9.199 24.046 7.986 53.951 6.393 69.936-.625 6.274-6.552 10.567-12.712 9.222-15.41-3.364-43.449-11.219-63.413-26.812-3.72-2.905-9.051-2.878-12.722.089-20.032 16.19-48.844 24.278-64.536 27.703-6.16 1.344-12.074-2.966-12.699-9.24-1.565-15.702-2.761-44.814 5.919-68.608 1.616-4.429-.056-9.487-4.009-12.057-21.639-14.067-38.281-39.074-46.377-52.931-3.135-5.367-.886-12.289 4.804-14.788 14.419-6.334 41.808-16.519 67.192-15.635 4.715.164 9.011-2.992 10.235-7.549 6.694-24.93 25.326-48.473 36.001-60.45 4.136-4.641 11.417-4.639 15.551.003 10.477 11.762 28.623 34.673 35.631 59.087 1.301 4.533 5.628 7.642 10.338 7.401 25.766-1.321 53.921 9.126 68.613 15.577 5.691 2.498 7.941 9.421 4.806 14.788-7.941 13.599-24.11 37.934-45.169 52.144-3.911 2.637-5.531 7.714-3.846 12.12z" fill="#f2b816"/><path d="m267.699 501.634s-.166-.005-.186-.216c-1.443-14.487-2.67-42.078 5.35-64.048 3.238-8.89-.156-19.073-8.076-24.222-19.893-12.938-35.541-36.562-43.099-49.491 18.41-8.294 42.639-15.709 62.751-14.94.515-.177 16.298.573 20.541-15.161 6.155-22.93 23.78-45.101 33.741-56.274 9.881 10.892 27.129 32.539 33.59 55.077 2.635 9.158 11.383 15.376 20.778 14.839 20.746-1.033 44.965 6.395 63.937 14.723-7.301 12.762-22.543 35.848-41.988 48.968-7.839 5.29-11.078 15.528-7.694 24.343 8.463 22.13 7.241 50.365 5.758 65.23-14.487-2.922-41.098-10.278-59.537-24.685-7.453-5.822-18.108-5.807-25.535.196-18.445 14.904-45.674 22.467-60.262 25.65z" fill="#e5e3e5"/><path d="m390.343 347.21c-2.78-.102-5.51-.154-8.187 0-9.423.515-18.177-5.716-20.803-14.83-5.355-18.794-18.228-36.919-28.063-48.763 1.957-2.368 3.759-4.531 5.407-6.333 9.886 10.916 27.136 32.543 33.624 55.096 2.368 8.188 9.732 14.109 18.022 14.83z" opacity=".08"/><path d="m457.025 361.936c-7.312 12.77-22.553 35.838-41.966 48.969-7.878 5.252-11.122 15.499-7.724 24.304 8.496 22.142 7.261 50.411 5.767 65.24-3.089-.618-6.745-1.441-10.71-2.472 1.339-15.294 2.008-41.811-5.973-62.769-3.398-8.805-.154-19.052 7.672-24.304 13.388-9.063 24.819-22.862 33.006-34.705 5.098-7.415 1.699-17.507-6.797-20.494-12.461-4.326-26.003-7.672-38.773-8.445.515 0 1.03 0 1.545-.052 20.751-1.028 45.004 6.386 63.953 14.728z" opacity=".08"/><path d="m311.088 433.713s-.065-.002-.073-.085c-.569-5.715-1.053-16.6 2.111-25.267 1.278-3.507-.061-7.525-3.186-9.556-7.848-5.104-14.021-14.424-17.003-19.524 7.263-3.272 16.821-6.197 24.756-5.894.203-.07 6.43.226 8.104-5.981 2.428-9.046 9.381-17.793 13.311-22.201 3.898 4.297 10.703 12.837 13.252 21.728 1.04 3.613 4.491 6.066 8.197 5.854 8.184-.408 17.739 2.523 25.224 5.809-2.88 5.035-8.893 14.142-16.565 19.318-3.093 2.087-4.37 6.126-3.035 9.604 3.339 8.731 2.857 19.87 2.271 25.734-5.715-1.153-16.214-4.055-23.488-9.738-2.94-2.297-7.144-2.291-10.074.077-7.277 5.88-18.019 8.864-23.774 10.119z" fill="#ffce29"/><g fill="#6d6d6d"><path d="m311.871 381.018c4.473.792 7.864 2.728 7.582 4.324-.285 1.612-4.133 2.267-8.606 1.475s-7.864-2.728-7.579-4.34c.282-1.596 4.13-2.251 8.603-1.459z"/><path d="m342.33 366.158c-.006 4.542-1.326 8.216-2.947 8.215-1.637-.002-2.948-3.678-2.942-8.22s1.326-8.216 2.963-8.215c1.621.001 2.932 3.678 2.926 8.22z"/><path d="m367.41 381.012c-4.482.732-7.896 2.623-7.635 4.222.264 1.615 4.102 2.321 8.584 1.589s7.897-2.623 7.633-4.238c-.262-1.599-4.1-2.305-8.582-1.573z"/><path d="m358.064 412.453c-3.211-3.211-6.74-4.879-7.886-3.733-1.157 1.157.511 4.686 3.722 7.897s6.74 4.879 7.898 3.721c1.146-1.145-.522-4.674-3.734-7.885z"/></g><g><path d="m325.628 417.01c2.548-3.76 3.52-7.54 2.178-8.45-1.355-.918-4.506 1.385-7.053 5.145-2.548 3.76-3.52 7.54-2.165 8.459 1.342.909 4.492-1.394 7.04-5.154z" fill="#6d6d6d"/></g></g></g></svg>