<svg enable-background="new 0 0 512 512" height="512" viewBox="0 0 512 512" width="512" xmlns="http://www.w3.org/2000/svg"><g id="_x34_5_Quince"><g><g><g fill="#13bd79"><path d="m158.366 66.223c.673 2.951-1.055 5.918-3.967 6.742-7.247 2.051-20.943 6.617-31.367 14.197-46.196 33.591-113.69-18.881-122.904-62.358-.854-4.032 2.712-7.567 6.735-6.676 9.543 2.112 26.625 3.784 44.22-4.796 25.756-12.559 94.803-1.802 107.283 52.891z"/><path d="m191.533 125.252c0-.557-.615-55.935-60.87-69.572l-1.516 6.678c54.812 12.407 55.534 60.834 55.538 62.889z"/></g><path d="m185.36 144.57c-14.533-42.153-10.045-89.097 30.605-108.909l.599-.292c7.528-3.669 16.604-.541 20.273 6.987s.541 16.604-6.987 20.273c-3.843 1.873-12.276 2.15-21.172 10.327-16.946 15.608-19.93 47.425-17.343 70.083l.02.173c.194 1.697-1.025 3.229-2.721 3.423-1.468.167-2.812-.724-3.274-2.065z" fill="#6d6d6d"/></g><path d="m350.401 338.759c0 90.912-73.626 164.638-164.538 164.638-91.012 0-164.638-73.726-164.638-164.638 0-57.981 29.963-117.231 75.299-152.548 22.276-17.353 40.045-40.221 49.003-66.999 4.317-12.906 11.752-22.653 20.958-22.653 7.771 0 14.695 5.53 19.328 14.247 4.633-8.718 11.507-14.247 19.278-14.247 8.367 0 16.007 9.223 20.636 21.862 9.469 25.849 24.824 49.286 46.848 65.802 46.735 35.047 77.826 95.465 77.826 154.536z" fill="#0bad67"/><g opacity=".4"><path d="m38.331 375.739c-2.418-9.528-3.9-19.211-4.431-28.938-.237-4.342 3.107-8.037 7.455-8.04 3.906-.003 7.246 2.999 7.45 6.9.469 8.981 1.839 17.925 4.093 26.724.97 3.788-1.331 7.653-5.065 8.811-4.15 1.286-8.434-1.247-9.502-5.457z" fill="#fff"/></g><path d="m350.401 338.759c0 90.912-73.626 164.638-164.539 164.638-3.786 0-7.572-.15-11.258-.399 85.682-5.778 153.28-77.113 153.28-164.239 0-59.081-31.084-119.506-77.811-154.526-22.018-16.539-37.411-39.952-46.876-65.806-2.59-7.074-6.078-13.051-10.162-16.987 3.537-3.138 7.672-4.882 12.055-4.882 8.369 0 15.991 9.216 20.623 21.869 9.465 25.854 24.858 49.267 46.876 65.806 46.727 35.02 77.812 95.446 77.812 154.526z" opacity=".08"/><path d="m512 348.288c0 85.65-69.365 155.109-155.015 155.109-85.744 0-155.109-69.459-155.109-155.109 0-54.625 28.229-110.446 70.94-143.719 20.986-16.349 37.728-37.893 46.167-63.122 4.067-12.159 11.071-21.342 19.745-21.342 7.321 0 13.845 5.21 18.21 13.423 4.365-8.213 10.841-13.423 18.163-13.423 7.883 0 15.08 8.69 19.442 20.596 8.921 24.353 23.387 46.433 44.137 61.993 44.029 33.021 73.32 89.942 73.32 145.594z" fill="#13bd79"/><path d="m356.985 487.607c-76.818 0-139.315-62.497-139.315-139.32 0-49.05 25.455-100.572 64.851-131.255 31.128-24.254 42.624-48.942 49.165-64.873 3.003-7.314 13.155-7.789 16.792-.769.071.138.144.277.216.417 3.455 6.658 12.989 6.701 16.455.049.085-.164.17-.326.253-.486 3.607-6.932 13.634-6.587 16.714.595 7.094 16.546 18.9 42.221 47.091 63.365 40.702 30.524 67 82.714 67 132.956 0 76.824-62.455 139.321-139.222 139.321z" fill="#e5e3e5"/><path d="m496.218 348.274c0 76.851-62.481 139.332-139.227 139.332-3.211 0-6.422-.105-9.58-.369 72.324-4.895 129.647-65.323 129.647-138.963 0-50.217-26.319-102.433-67.008-132.963-27.214-20.371-39.162-45.005-46.321-61.534.579-.579 1.053-1.211 1.421-1.948.105-.158.158-.316.263-.474 3.579-6.895 13.633-6.58 16.686.632 7.106 16.528 18.897 42.216 47.111 63.323 40.689 30.531 67.008 82.747 67.008 132.964z" opacity=".08"/><g fill="#6d6d6d"><path d="m349.044 273.239c0-8.972-10.447-13.798-17.313-8.022-2.305 1.939-4.691 3.873-7.161 5.798-22.654 17.642-38.471 49.415-38.471 77.271 0 31.452 20.596 58.163 49.005 67.403 6.864 2.232 13.939-2.769 13.939-9.987v-132.463z"/><path d="m388.157 270.074c-2.093-1.569-4.123-3.155-6.094-4.756-6.918-5.621-17.229-.815-17.229 8.099v132.309c0 7.215 7.071 12.215 13.934 9.988 28.409-9.219 49.011-35.952 49.011-67.43 0-28.553-16.295-60.712-39.622-78.21z"/></g><g fill="#5b5b5b"><g><path d="m380.021 385.394c3.239 3.239 8.448 3.239 11.664.023 3.239-3.239 3.239-8.448 0-11.687-3.216-3.216-17.621-5.934-17.621-5.934s2.741 14.382 5.957 17.598z"/><path d="m402.457 347.724c4.58 0 8.264-3.683 8.264-8.231 0-4.58-3.684-8.264-8.264-8.264-4.548 0-16.655 8.263-16.655 8.263s12.107 8.232 16.655 8.232z"/><path d="m391.684 305.224c3.239-3.239 3.239-8.448.023-11.664-3.239-3.239-8.448-3.239-11.687 0-3.216 3.216-5.934 17.62-5.934 17.62s14.382-2.74 17.598-5.956z"/></g><g><g><path d="m382.034 385.394c3.239 3.239 8.448 3.239 11.664.023 3.239-3.239 3.239-8.448 0-11.687-3.216-3.216-17.621-5.934-17.621-5.934s2.741 14.382 5.957 17.598z"/><path d="m404.469 347.724c4.58 0 8.264-3.683 8.264-8.231 0-4.58-3.684-8.264-8.264-8.264-4.548 0-16.655 8.263-16.655 8.263s12.107 8.232 16.655 8.232z"/><path d="m393.697 305.224c3.239-3.239 3.239-8.448.023-11.664-3.239-3.239-8.448-3.239-11.687 0-3.216 3.216-5.934 17.62-5.934 17.62s14.382-2.74 17.598-5.956z"/></g><g><path d="m331.845 385.394c-3.239 3.239-8.448 3.239-11.664.023-3.239-3.239-3.239-8.448 0-11.687 3.216-3.216 17.621-5.934 17.621-5.934s-2.741 14.382-5.957 17.598z"/><path d="m309.409 347.724c-4.58 0-8.264-3.683-8.264-8.231 0-4.58 3.684-8.264 8.264-8.264 4.548 0 16.655 8.263 16.655 8.263s-12.107 8.232-16.655 8.232z"/><path d="m320.182 305.224c-3.239-3.239-3.239-8.448-.023-11.664 3.239-3.239 8.448-3.239 11.687 0 3.216 3.216 5.934 17.62 5.934 17.62s-14.382-2.74-17.598-5.956z"/></g></g></g></g></g></svg>