<svg enable-background="new 0 0 512 512" height="512" viewBox="0 0 512 512" width="512" xmlns="http://www.w3.org/2000/svg"><g id="_x34_6_Jujube"><g><g><path d="m406.261 400.846c-70.891 86.418-183.111 138.314-234.492 96.165-51.381-42.15-22.424-162.349 48.467-248.766 70.857-86.376 156.754-106.184 208.135-64.035s48.747 130.26-22.11 216.636z" fill="#13bd79"/><path d="m406.272 400.855c-70.891 86.418-183.128 138.3-234.503 96.156-3.184-2.612-6.098-5.552-8.656-8.748 54.938 28.728 157.74-21.969 224.188-102.97 66.414-80.96 72.911-163.499 31.101-208.231 3.433 2.13 6.785 4.537 9.969 7.148 51.374 42.143 48.759 130.269-22.099 216.645z" opacity=".08"/><path d="m420 230.819c-5.891 7.181-18.673 6.443-28.522-1.636s-13.071-20.471-7.18-27.652 18.707-6.484 28.556 1.595 13.037 20.512 7.146 27.693z" fill="#0bad67"/></g><g><path d="m288.972 181.591c0 111.78-53.845 223.082-120.3 223.082s-120.301-111.302-120.301-223.082c0-111.726 53.845-181.523 120.301-181.523 66.455 0 120.3 69.796 120.3 181.523z" fill="#13bd79"/><g opacity=".4"><path d="m70.774 146.277c-1.016 8.798-1.691 17.879-1.939 27.255-.117 4.427 3.518 8.059 7.946 8.059h.049c4.338 0 7.809-3.493 7.924-7.829.234-8.855.858-17.418 1.797-25.696.53-4.672-3.188-8.734-7.889-8.734-4.004-.001-7.429 2.967-7.888 6.945z" fill="#fff"/></g><path d="m288.986 181.591c0 111.78-53.868 223.082-120.314 223.082-4.118 0-8.235-.425-12.24-1.274 60.693-12.633 108.018-117.035 108.018-221.809 0-104.721-47.325-172.659-108.018-180.727 4.005-.531 8.123-.796 12.24-.796 66.446.001 120.314 69.797 120.314 181.524z" opacity=".08"/><path d="m191.761 41.415c0 9.288-10.35 16.826-23.089 16.826-12.738 0-23.088-7.537-23.088-16.826s10.35-16.879 23.088-16.879c12.739 0 23.089 7.59 23.089 16.879z" fill="#0bad67"/></g></g></g></svg>