<svg enable-background="new 0 0 512 512" height="512" viewBox="0 0 512 512" width="512" xmlns="http://www.w3.org/2000/svg"><g id="_x34_8_Cashew_Apple"><g><path d="m257.382 115.329c15.127-43.875 10.455-92.736-31.855-113.358l-.623-.304c-7.835-3.819-17.282-.563-21.101 7.272s-.563 17.282 7.272 21.101c4 1.95 12.778 2.238 22.037 10.749 17.638 16.246 20.744 49.362 18.051 72.946l-.021.18c-.202 1.766 1.066 3.361 2.832 3.562 1.528.175 2.928-.753 3.408-2.148z" fill="#c17d61"/><path d="m340.515 474.109c-.529-.346-74.372-15.258-20.35-114.904h-133.453c12.528 90.373 60.13 167.159 151.304 150.418 6.357-1.182 11.924-5.693 14.116-12.26 3.213-9.628-1.988-20.04-11.617-23.254z" fill="#e5e3e5"/><path d="m384.146 263.493c-19.253-33.834-28.272-72.224-31.894-110.983-4.637-49.626-42.868-93.727-96.246-93.727-53.406 0-91.535 44.027-96.228 93.562-3.677 38.809-12.629 77.264-31.91 111.144-43.643 76.693 24.297 165.915 128.138 165.915 104.361 0 171.61-89.52 128.14-165.911z" fill="#f96464"/><g opacity=".4"><path d="m139.613 356.464c-7.433-12.841-11.626-27.054-12.119-41.105-.152-4.294 3.205-7.894 7.499-8.046 4.365-.076 7.896 3.21 8.046 7.499.405 11.509 3.876 23.216 10.038 33.854 2.152 3.722.884 8.476-2.836 10.628-3.659 2.133-8.449.924-10.628-2.83z" fill="#fff"/></g><path d="m256.006 429.404c-3.941 0-7.829-.104-11.666-.415 97.581-6.429 158.193-92.033 116.403-165.504-19.288-33.806-28.31-72.227-31.888-110.959-4.304-45.886-37.332-87.107-84.567-92.966 3.837-.518 7.726-.777 11.718-.777 53.353 0 91.618 44.123 96.233 93.743 3.63 38.732 12.651 77.153 31.887 110.959 43.502 76.375-23.747 165.919-128.12 165.919z" opacity=".08"/></g></g></svg>